<svg xmlns="http://www.w3.org/2000/svg" version="1.1" width="1024" height="768">
<rect x="0" y="0" width="1024" height="768" fill="#929d99" />
<g transform="scale(4.000000) translate(0.5 0.5)">
<polygon fill="#00005d" fill-opacity="0.501961" points="251,207 -16,173 271,97" />
<polygon fill="#ffffd4" fill-opacity="0.501961" points="0,-16 271,6 1,147" />
<polygon fill="#002e6f" fill-opacity="0.501961" points="-6,133 2,207 271,168" />
<polygon fill="#ede8c4" fill-opacity="0.501961" points="271,8 99,96 271,114" />
<polygon fill="#ba8d00" fill-opacity="0.501961" points="133,158 43,106 170,87" />
<polygon fill="#075092" fill-opacity="0.501961" points="137,124 224,207 271,105" />
<polygon fill="#0b4488" fill-opacity="0.501961" points="-16,148 105,129 81,207" />
<polygon fill="#dcc675" fill-opacity="0.501961" points="-12,142 123,74 82,136" />
<polygon fill="#e5c24d" fill-opacity="0.501961" points="205,108 105,83 158,122" />
<polygon fill="#ffffba" fill-opacity="0.501961" points="-16,28 -16,-16 147,0" />
<polygon fill="#775a00" fill-opacity="0.501961" points="104,98 110,159 135,107" />
<polygon fill="#162739" fill-opacity="0.501961" points="100,206 85,131 156,183" />
<polygon fill="#276ec1" fill-opacity="0.501961" points="137,180 232,160 142,155" />
<polygon fill="#202418" fill-opacity="0.501961" points="181,200 159,117 158,174" />
<polygon fill="#2e71bd" fill-opacity="0.501961" points="77,207 87,136 57,135" />
<polygon fill="#322814" fill-opacity="0.501961" points="220,207 198,127 197,171" />
<polygon fill="#1a1503" fill-opacity="0.501961" points="13,140 30,168 27,207" />
<polygon fill="#fce4a8" fill-opacity="0.501961" points="271,2 129,19 147,-16" />
<polygon fill="#31260e" fill-opacity="0.501961" points="242,137 226,112 240,176" />
<polygon fill="#0955bb" fill-opacity="0.501961" points="63,207 54,168 -16,183" />
<polygon fill="#bca11d" fill-opacity="0.501961" points="87,121 143,115 141,154" />
<polygon fill="#d7d6cc" fill-opacity="0.501961" points="-16,146 16,-16 43,136" />
<polygon fill="#c0ccd1" fill-opacity="0.501961" points="189,114 271,18 254,107" />
<polygon fill="#2d2c20" fill-opacity="0.501961" points="59,173 17,168 98,155" />
<polygon fill="#3391f8" fill-opacity="0.501961" points="239,144 269,134 271,183" />
<polygon fill="#0750a4" fill-opacity="0.501961" points="267,170 248,207 119,190" />
<polygon fill="#102c61" fill-opacity="0.501961" points="123,142 72,207 140,163" />
<polygon fill="#3b2b13" fill-opacity="0.501961" points="104,111 128,120 125,98" />
<polygon fill="#242420" fill-opacity="0.501961" points="164,150 192,135 231,142" />
<polygon fill="#2d7ada" fill-opacity="0.501961" points="91,188 91,166 61,165" />
<polygon fill="#1f61be" fill-opacity="0.501961" points="258,130 171,144 271,99" />
<polygon fill="#d2ae00" fill-opacity="0.501961" points="167,102 146,122 177,118" />
<polygon fill="#cec487" fill-opacity="0.501961" points="88,87 191,77 158,106" />
<polygon fill="#302710" fill-opacity="0.501961" points="247,164 235,167 254,207" />
<polygon fill="#d4b550" fill-opacity="0.501961" points="106,127 48,135 73,87" />
<polygon fill="#c3cbcf" fill-opacity="0.501961" points="146,47 254,75 40,84" />
<polygon fill="#1e1e1e" fill-opacity="0.501961" points="46,136 63,174 57,136" />
<polygon fill="#145db9" fill-opacity="0.501961" points="140,178 166,173 147,123" />
<polygon fill="#1d1e0b" fill-opacity="0.501961" points="123,162 163,150 144,148" />
<polygon fill="#0f5cd0" fill-opacity="0.501961" points="97,152 99,131 110,154" />
<polygon fill="#2a6cbe" fill-opacity="0.501961" points="255,159 171,151 175,174" />
<polygon fill="#382d1a" fill-opacity="0.501961" points="200,146 214,174 210,207" />
<polygon fill="#2e7cde" fill-opacity="0.501961" points="240,175 235,207 214,180" />
<polygon fill="#1f3a67" fill-opacity="0.501961" points="192,130 208,113 143,124" />
<polygon fill="#222319" fill-opacity="0.501961" points="146,179 60,191 104,197" />
<polygon fill="#c8c9af" fill-opacity="0.501961" points="-16,118 81,123 30,79" />
<polygon fill="#251d05" fill-opacity="0.501961" points="29,207 30,181 18,163" />
<polygon fill="#2d230e" fill-opacity="0.501961" points="238,134 228,142 230,111" />
<polygon fill="#1166de" fill-opacity="0.501961" points="-16,167 7,142 14,167" />
<polygon fill="#271d06" fill-opacity="0.501961" points="63,207 71,195 56,163" />
<polygon fill="#a0970a" fill-opacity="0.501961" points="103,130 144,122 109,151" />
<polygon fill="#282615" fill-opacity="0.501961" points="136,203 127,148 154,207" />
<polygon fill="#2f353b" fill-opacity="0.501961" points="200,167 166,185 242,170" />
<polygon fill="#342f1e" fill-opacity="0.501961" points="103,184 84,151 92,132" />
<polygon fill="#2a6fc8" fill-opacity="0.501961" points="229,111 198,118 210,141" />
<polygon fill="#b5b7a2" fill-opacity="0.501961" points="125,41 243,61 271,27" />
<polygon fill="#6e701c" fill-opacity="0.501961" points="76,138 56,136 89,130" />
<polygon fill="#d29600" fill-opacity="0.501961" points="100,107 85,101 62,109" />
<polygon fill="#2c1900" fill-opacity="0.501961" points="271,138 263,130 236,137" />
<polygon fill="#f2e4b2" fill-opacity="0.501961" points="140,35 52,43 109,22" />
<polygon fill="#fff3b7" fill-opacity="0.501961" points="-9,25 18,-16 139,0" />
<polygon fill="#0d3a95" fill-opacity="0.501961" points="27,168 21,141 60,137" />
<polygon fill="#206dcd" fill-opacity="0.501961" points="206,152 235,166 230,142" />
<polygon fill="#1d5fb8" fill-opacity="0.501961" points="27,172 57,169 34,207" />
<polygon fill="#dbd8cb" fill-opacity="0.501961" points="-16,30 44,106 49,15" />
<polygon fill="#333022" fill-opacity="0.501961" points="207,153 194,116 194,146" />
<polygon fill="#27313b" fill-opacity="0.501961" points="42,129 56,125 46,124" />
<polygon fill="#292e24" fill-opacity="0.501961" points="170,186 136,181 200,172" />
<polygon fill="#222205" fill-opacity="0.501961" points="-8,172 16,166 29,173" />
<polygon fill="#c2c5b7" fill-opacity="0.501961" points="49,112 18,144 -16,89" />
<polygon fill="#cb9c5b" fill-opacity="0.501961" points="171,112 145,104 119,126" />
<polygon fill="#c0c5ba" fill-opacity="0.501961" points="186,111 227,112 237,17" />
<polygon fill="#153783" fill-opacity="0.501961" points="100,185 123,143 129,182" />
<polygon fill="#337cd6" fill-opacity="0.501961" points="61,156 84,135 81,157" />
<polygon fill="#bfbea4" fill-opacity="0.501961" points="125,62 48,47 171,29" />
<polygon fill="#555c4f" fill-opacity="0.501961" points="125,96 105,101 103,115" />
<polygon fill="#256ecd" fill-opacity="0.501961" points="162,161 136,155 140,177" />
<polygon fill="#242b2a" fill-opacity="0.501961" points="120,151 79,162 138,162" />
<polygon fill="#cdd1ca" fill-opacity="0.501961" points="17,69 98,100 91,61" />
<polygon fill="#b6931b" fill-opacity="0.501961" points="72,127 88,134 93,118" />
<polygon fill="#d2c26a" fill-opacity="0.501961" points="142,85 97,84 95,104" />
<polygon fill="#1b54af" fill-opacity="0.501961" points="165,128 190,138 190,116" />
<polygon fill="#282d2c" fill-opacity="0.501961" points="238,167 252,168 235,149" />
<polygon fill="#002d8e" fill-opacity="0.501961" points="98,147 101,130 90,130" />
<polygon fill="#2b2d2a" fill-opacity="0.501961" points="165,180 164,143 182,202" />
<polygon fill="#36301f" fill-opacity="0.501961" points="22,142 15,147 22,173" />
<polygon fill="#266bc2" fill-opacity="0.501961" points="62,169 70,192 89,163" />
<polygon fill="#0f53b3" fill-opacity="0.501961" points="200,178 184,207 175,181" />
<polygon fill="#2f70c7" fill-opacity="0.501961" points="238,140 271,140 246,165" />
<polygon fill="#2570d3" fill-opacity="0.501961" points="235,122 271,139 271,100" />
<polygon fill="#1259b8" fill-opacity="0.501961" points="18,173 -16,179 24,207" />
<polygon fill="#584800" fill-opacity="0.501961" points="144,121 160,125 177,118" />
<polygon fill="#1a52b2" fill-opacity="0.501961" points="155,124 142,123 161,149" />
<polygon fill="#d2c972" fill-opacity="0.501961" points="181,95 195,116 164,114" />
<polygon fill="#282e2e" fill-opacity="0.501961" points="242,173 267,161 221,169" />
<polygon fill="#899341" fill-opacity="0.501961" points="100,128 110,152 123,142" />
<polygon fill="#132e5f" fill-opacity="0.501961" points="259,112 237,110 254,107" />
<polygon fill="#256cc6" fill-opacity="0.501961" points="170,154 195,148 200,173" />
<polygon fill="#e7da8d" fill-opacity="0.501961" points="25,103 66,91 91,102" />
<polygon fill="#c8ab97" fill-opacity="0.501961" points="105,117 65,113 95,108" />
<polygon fill="#b07e1b" fill-opacity="0.501961" points="126,116 134,105 166,107" />
<polygon fill="#262922" fill-opacity="0.501961" points="183,143 168,153 141,150" />
<polygon fill="#bca87c" fill-opacity="0.501961" points="132,106 121,90 166,97" />
<polygon fill="#333731" fill-opacity="0.501961" points="241,134 238,144 204,142" />
<polygon fill="#e9dcb5" fill-opacity="0.501961" points="201,31 269,28 224,18" />
<polygon fill="#c3c7c9" fill-opacity="0.501961" points="256,22 190,27 271,-16" />
<polygon fill="#2264bf" fill-opacity="0.501961" points="131,187 68,200 157,207" />
<polygon fill="#1a5bb3" fill-opacity="0.501961" points="88,147 63,142 85,134" />
<polygon fill="#ecdfab" fill-opacity="0.501961" points="258,3 224,-13 152,17" />
<polygon fill="#afb7a4" fill-opacity="0.501961" points="55,137 2,134 40,125" />
<polygon fill="#e1c400" fill-opacity="0.501961" points="162,120 172,115 147,117" />
<polygon fill="#ffea95" fill-opacity="0.501961" points="144,85 147,78 170,84" />
<polygon fill="#c4cbc8" fill-opacity="0.501961" points="94,56 121,90 147,54" />
<polygon fill="#b0b6ab" fill-opacity="0.501961" points="190,97 176,83 152,101" />
<polygon fill="#2d6dbe" fill-opacity="0.501961" points="207,170 234,165 217,153" />
<polygon fill="#564316" fill-opacity="0.501961" points="102,115 125,101 133,112" />
<polygon fill="#c7c7b5" fill-opacity="0.501961" points="134,6 176,11 210,-11" />
<polygon fill="#c6a670" fill-opacity="0.501961" points="138,125 127,119 161,110" />
<polygon fill="#bbac79" fill-opacity="0.501961" points="105,128 66,134 93,122" />
<polygon fill="#829244" fill-opacity="0.501961" points="136,156 144,142 122,140" />
<polygon fill="#302a1a" fill-opacity="0.501961" points="59,160 82,159 60,167" />
<polygon fill="#efe4bb" fill-opacity="0.501961" points="8,119 -10,135 37,122" />
<polygon fill="#1146a3" fill-opacity="0.501961" points="17,161 14,144 -9,143" />
<polygon fill="#bfc8c7" fill-opacity="0.501961" points="261,47 269,108 179,97" />
<polygon fill="#bdb021" fill-opacity="0.501961" points="55,127 46,136 73,127" />
<polygon fill="#053ea2" fill-opacity="0.501961" points="169,205 169,184 141,189" />
<polygon fill="#c3cac4" fill-opacity="0.501961" points="69,48 -16,94 63,97" />
<polygon fill="#1e62b6" fill-opacity="0.501961" points="157,146 143,149 144,126" />
<polygon fill="#2c6fbf" fill-opacity="0.501961" points="210,140 230,135 221,114" />
<polygon fill="#16479c" fill-opacity="0.501961" points="26,166 56,162 49,138" />
<polygon fill="#d7c15c" fill-opacity="0.501961" points="48,116 45,124 75,117" />
<polygon fill="#262d27" fill-opacity="0.501961" points="66,183 56,142 54,166" />
<polygon fill="#2d312f" fill-opacity="0.501961" points="203,170 198,145 214,174" />
<polygon fill="#a78b00" fill-opacity="0.501961" points="137,137 102,129 140,123" />
<polygon fill="#f4dd97" fill-opacity="0.501961" points="81,6 55,16 105,11" />
<polygon fill="#ddcfa0" fill-opacity="0.501961" points="136,33 207,29 176,43" />
<polygon fill="#2d2c1b" fill-opacity="0.501961" points="52,142 58,157 56,136" />
<polygon fill="#c2c3ab" fill-opacity="0.501961" points="198,114 258,105 176,95" />
<polygon fill="#2762a4" fill-opacity="0.501961" points="125,143 111,153 126,150" />
<polygon fill="#2162b9" fill-opacity="0.501961" points="59,136 59,157 76,140" />
<polygon fill="#2f2d22" fill-opacity="0.501961" points="237,170 206,169 220,174" />
<polygon fill="#19489a" fill-opacity="0.501961" points="189,130 162,121 170,146" />
<polygon fill="#1353b3" fill-opacity="0.501961" points="248,171 256,207 271,166" />
<polygon fill="#2d2c28" fill-opacity="0.501961" points="84,135 90,141 94,131" />
<polygon fill="#1851a3" fill-opacity="0.501961" points="68,190 92,172 96,186" />
<polygon fill="#cecbbd" fill-opacity="0.501961" points="23,16 145,16 36,46" />
<polygon fill="#f5e8ae" fill-opacity="0.501961" points="19,97 59,97 33,104" />
<polygon fill="#d9c989" fill-opacity="0.501961" points="219,73 225,65 199,74" />
<polygon fill="#333129" fill-opacity="0.501961" points="166,135 156,121 164,155" />
<polygon fill="#4e452a" fill-opacity="0.501961" points="195,121 195,128 188,113" />
<polygon fill="#ca9e00" fill-opacity="0.501961" points="63,105 82,103 87,110" />
<polygon fill="#262d29" fill-opacity="0.501961" points="115,196 88,207 97,176" />
<polygon fill="#b8bba0" fill-opacity="0.501961" points="210,52 152,39 271,29" />
<polygon fill="#aa723c" fill-opacity="0.501961" points="102,124 92,116 125,118" />
<polygon fill="#fffcbb" fill-opacity="0.501961" points="132,33 101,38 105,30" />
<polygon fill="#2d3439" fill-opacity="0.501961" points="229,127 236,110 224,113" />
<polygon fill="#d3c556" fill-opacity="0.501961" points="90,104 71,92 62,96" />
<polygon fill="#2a6bc0" fill-opacity="0.501961" points="238,173 217,176 216,207" />
<polygon fill="#d0d1c2" fill-opacity="0.501961" points="77,97 80,59 100,99" />
<polygon fill="#215dac" fill-opacity="0.501961" points="31,172 66,207 53,168" />
<polygon fill="#d1c26a" fill-opacity="0.501961" points="158,102 191,98 190,115" />
<polygon fill="#f2f3d8" fill-opacity="0.501961" points="100,5 150,0 55,-16" />
<polygon fill="#e3d396" fill-opacity="0.501961" points="137,18 114,7 171,10" />
<polygon fill="#bec2b7" fill-opacity="0.501961" points="-11,101 20,121 65,113" />
<polygon fill="#d0c5a6" fill-opacity="0.501961" points="68,119 57,129 80,120" />
<polygon fill="#2263b5" fill-opacity="0.501961" points="197,152 176,175 201,170" />
<polygon fill="#1b59b9" fill-opacity="0.501961" points="236,128 263,109 233,113" />
<polygon fill="#212d33" fill-opacity="0.501961" points="50,165 19,175 13,165" />
<polygon fill="#bac4c0" fill-opacity="0.501961" points="168,47 228,114 221,80" />
<polygon fill="#272c35" fill-opacity="0.501961" points="8,145 4,142 15,142" />
<polygon fill="#efead5" fill-opacity="0.501961" points="27,50 12,57 -7,40" />
<polygon fill="#f0da9d" fill-opacity="0.501961" points="-16,30 -16,17 32,18" />
<polygon fill="#7d8971" fill-opacity="0.501961" points="108,101 129,104 115,97" />
<polygon fill="#1e5bb6" fill-opacity="0.501961" points="161,157 139,155 163,177" />
<polygon fill="#c3bb48" fill-opacity="0.501961" points="48,105 62,102 45,111" />
<polygon fill="#c78902" fill-opacity="0.501961" points="110,125 121,128 128,116" />
<polygon fill="#c1c9c0" fill-opacity="0.501961" points="-16,118 14,140 -16,146" />
<polygon fill="#292e27" fill-opacity="0.501961" points="140,157 114,156 127,150" />
<polygon fill="#8e8825" fill-opacity="0.501961" points="71,139 79,134 64,134" />
<polygon fill="#1248a3" fill-opacity="0.501961" points="64,135 59,148 58,136" />
<polygon fill="#b0b8b1" fill-opacity="0.501961" points="36,102 36,116 51,103" />
<polygon fill="#f1e4ab" fill-opacity="0.501961" points="68,36 66,44 45,42" />
<polygon fill="#2056a2" fill-opacity="0.501961" points="97,130 100,154 108,148" />
<polygon fill="#bcbcad" fill-opacity="0.501961" points="198,99 187,105 193,117" />
<polygon fill="#614412" fill-opacity="0.501961" points="125,116 109,117 106,102" />
<polygon fill="#b8c0b9" fill-opacity="0.501961" points="270,45 150,48 271,79" />
<polygon fill="#2c6dbb" fill-opacity="0.501961" points="69,164 89,166 83,185" />
<polygon fill="#cfb07c" fill-opacity="0.501961" points="100,111 108,94 93,111" />
<polygon fill="#b89000" fill-opacity="0.501961" points="150,121 158,120 145,112" />
<polygon fill="#e3d5a7" fill-opacity="0.501961" points="185,76 166,86 200,80" />
<polygon fill="#1056ab" fill-opacity="0.501961" points="242,158 248,165 256,161" />
<polygon fill="#bbb146" fill-opacity="0.501961" points="57,126 49,134 54,138" />
<polygon fill="#272c28" fill-opacity="0.501961" points="160,182 138,178 121,188" />
<polygon fill="#8c8c33" fill-opacity="0.501961" points="121,142 101,133 114,153" />
<polygon fill="#bebfb2" fill-opacity="0.501961" points="157,87 133,96 144,83" />
<polygon fill="#242b2f" fill-opacity="0.501961" points="23,160 31,192 21,207" />
<polygon fill="#2d2f28" fill-opacity="0.501961" points="178,143 195,144 173,150" />
<polygon fill="#153a87" fill-opacity="0.501961" points="192,142 192,129 166,145" />
<polygon fill="#0a4ba7" fill-opacity="0.501961" points="237,207 245,195 239,171" />
<polygon fill="#343833" fill-opacity="0.501961" points="251,189 238,171 237,144" />
<polygon fill="#132e74" fill-opacity="0.501961" points="104,160 128,159 101,180" />
<polygon fill="#bac5c6" fill-opacity="0.501961" points="117,66 179,71 119,85" />
<polygon fill="#91963a" fill-opacity="0.501961" points="142,149 143,128 125,143" />
<polygon fill="#c5b417" fill-opacity="0.501961" points="95,86 102,89 105,87" />
<polygon fill="#c18c00" fill-opacity="0.501961" points="78,126 98,120 86,120" />
<polygon fill="#fbf0af" fill-opacity="0.501961" points="58,20 74,2 4,14" />
<polygon fill="#2369c1" fill-opacity="0.501961" points="15,159 -16,133 -14,177" />
<polygon fill="#c8b354" fill-opacity="0.501961" points="161,86 134,97 152,98" />
<polygon fill="#ad8f79" fill-opacity="0.501961" points="94,123 101,110 106,119" />
<polygon fill="#183567" fill-opacity="0.501961" points="48,138 43,141 37,139" />
<polygon fill="#e0dca0" fill-opacity="0.501961" points="70,100 62,96 54,111" />
<polygon fill="#383d35" fill-opacity="0.501961" points="172,175 164,183 194,176" />
<polygon fill="#2d3231" fill-opacity="0.501961" points="204,147 217,139 184,144" />
<polygon fill="#3374c1" fill-opacity="0.501961" points="66,156 89,157 61,141" />
<polygon fill="#b09075" fill-opacity="0.501961" points="129,105 148,109 135,110" />
<polygon fill="#242a2a" fill-opacity="0.501961" points="115,184 85,207 70,191" />
<polygon fill="#c2a278" fill-opacity="0.501961" points="129,115 147,119 147,114" />
<polygon fill="#363123" fill-opacity="0.501961" points="82,163 71,160 92,158" />
<polygon fill="#d2cdba" fill-opacity="0.501961" points="129,32 128,4 93,8" />
<polygon fill="#2a2d24" fill-opacity="0.501961" points="231,135 258,133 246,139" />
<polygon fill="#d3d6c8" fill-opacity="0.501961" points="74,90 116,80 96,58" />
<polygon fill="#c0b344" fill-opacity="0.501961" points="181,106 195,113 166,108" />
<polygon fill="#d1ae22" fill-opacity="0.501961" points="163,111 141,105 173,105" />
<polygon fill="#184ea4" fill-opacity="0.501961" points="26,143 30,164 46,140" />
<polygon fill="#23271a" fill-opacity="0.501961" points="259,168 241,169 256,164" />
<polygon fill="#143783" fill-opacity="0.501961" points="122,161 131,178 106,183" />
<polygon fill="#d0bc7d" fill-opacity="0.501961" points="160,109 152,115 178,111" />
<polygon fill="#103f96" fill-opacity="0.501961" points="139,177 136,165 148,179" />
<polygon fill="#222822" fill-opacity="0.501961" points="13,173 -16,177 -16,165" />
<polygon fill="#283b52" fill-opacity="0.501961" points="182,117 169,121 172,124" />
<polygon fill="#0f3d91" fill-opacity="0.501961" points="180,200 211,203 204,177" />
<polygon fill="#bcba9b" fill-opacity="0.501961" points="75,46 61,41 38,51" />
<polygon fill="#4f535a" fill-opacity="0.501961" points="88,145 92,157 83,152" />
<polygon fill="#bcbba3" fill-opacity="0.501961" points="190,110 175,102 217,104" />
<polygon fill="#2d73c5" fill-opacity="0.501961" points="151,174 151,159 136,161" />
<polygon fill="#d4c36c" fill-opacity="0.501961" points="126,97 144,82 107,94" />
<polygon fill="#235ead" fill-opacity="0.501961" points="205,140 199,116 228,137" />
<polygon fill="#554525" fill-opacity="0.501961" points="117,97 124,100 124,97" />
<polygon fill="#3d423f" fill-opacity="0.501961" points="204,179 204,165 216,193" />
<polygon fill="#256abb" fill-opacity="0.501961" points="-11,177 19,175 13,182" />
<polygon fill="#1f5cb2" fill-opacity="0.501961" points="210,165 231,143 205,149" />
<polygon fill="#b8beaf" fill-opacity="0.501961" points="244,103 229,111 207,105" />
<polygon fill="#f8ebb7" fill-opacity="0.501961" points="208,26 208,33 229,27" />
<polygon fill="#0c3c90" fill-opacity="0.501961" points="65,181 72,207 80,200" />
<polygon fill="#34362c" fill-opacity="0.501961" points="188,178 196,172 205,175" />
<polygon fill="#bec0a3" fill-opacity="0.501961" points="131,36 159,52 85,43" />
<polygon fill="#c4c9c3" fill-opacity="0.501961" points="74,14 107,28 53,36" />
<polygon fill="#dfd3a5" fill-opacity="0.501961" points="256,31 224,23 252,22" />
<polygon fill="#bdc7bb" fill-opacity="0.501961" points="23,133 15,142 41,136" />
<polygon fill="#23549a" fill-opacity="0.501961" points="187,139 188,116 165,127" />
<polygon fill="#a37309" fill-opacity="0.501961" points="146,111 129,112 138,115" />
<polygon fill="#bdc0b0" fill-opacity="0.501961" points="52,62 86,48 107,59" />
<polygon fill="#282d2b" fill-opacity="0.501961" points="174,177 167,207 181,207" />
<polygon fill="#dbd49b" fill-opacity="0.501961" points="64,109 75,113 45,118" />
<polygon fill="#1a262d" fill-opacity="0.501961" points="156,177 170,182 140,186" />
<polygon fill="#777767" fill-opacity="0.501961" points="59,126 53,123 40,130" />
<path stroke="#3b4e52" stroke-opacity="0.501961" fill="none" d="M 63.760129 144.178940 Q 70.780667 137.709295, 98.501627 130.683116" stroke-width="0.500000" />
<path stroke="#242a22" stroke-opacity="0.501961" fill="none" d="M 127.014990 160.952244 Q 132.740836 151.617470, 217.093972 143.560138" stroke-width="0.500000" />
<path stroke="#4d4d3e" stroke-opacity="0.501961" fill="none" d="M 227.774795 114.488140 Q 228.845252 124.615352, 252.265448 207.000000" stroke-width="0.500000" />
<path stroke="#776a07" stroke-opacity="0.501961" fill="none" d="M 185.431085 117.785562 Q 180.460151 116.653009, 164.964200 121.425845" stroke-width="0.500000" />
<path stroke="#183878" stroke-opacity="0.501961" fill="none" d="M 263.007756 207.000000 Q 238.619486 161.272387, 234.887752 118.288769" stroke-width="0.500000" />
<path stroke="#172b52" stroke-opacity="0.501961" fill="none" d="M 197.863513 124.669560 Q 210.010973 168.505173, 214.578422 195.435232" stroke-width="0.500000" />
<path stroke="#3d4a51" stroke-opacity="0.501961" fill="none" d="M -16.000000 146.943095 Q 30.214323 140.034652, 55.614180 140.079119" stroke-width="0.500000" />
<path stroke="#c3c8c4" stroke-opacity="0.501961" fill="none" d="M 32.936194 35.753877 Q 84.693056 44.677643, 270.587745 7.264596" stroke-width="0.500000" />
<path stroke="#11376e" stroke-opacity="0.501961" fill="none" d="M 225.704561 117.133558 Q 237.440700 167.611379, 246.004754 197.909190" stroke-width="0.500000" />
<path stroke="#a78c06" stroke-opacity="0.501961" fill="none" d="M 177.001653 117.743774 Q 163.943790 123.741265, 131.783514 119.137888" stroke-width="0.500000" />
<path stroke="#344359" stroke-opacity="0.501961" fill="none" d="M 143.267541 127.824755 Q 216.467635 109.548574, 228.972918 115.017910" stroke-width="0.500000" />
<path stroke="#747f6f" stroke-opacity="0.501961" fill="none" d="M 271.000000 102.624285 Q 264.395523 107.999897, 216.338834 113.040786" stroke-width="0.500000" />
<path stroke="#cfc591" stroke-opacity="0.501961" fill="none" d="M 108.932489 102.800650 Q 119.236301 94.426294, 166.513234 77.320524" stroke-width="0.500000" />
<path stroke="#c4c3ad" stroke-opacity="0.501961" fill="none" d="M 21.874369 140.734819 Q 42.496668 132.818211, 70.705313 122.528849" stroke-width="0.500000" />
<path stroke="#433e1e" stroke-opacity="0.501961" fill="none" d="M 144.378158 124.453193 Q 145.998456 123.240524, 176.019983 120.610002" stroke-width="0.500000" />
<path stroke="#d3d7d6" stroke-opacity="0.501961" fill="none" d="M -7.891314 104.790474 Q 33.532472 106.640691, 59.763861 101.266796" stroke-width="0.500000" />
<path stroke="#fcf1c0" stroke-opacity="0.501961" fill="none" d="M 50.432441 42.187643 Q 51.539101 42.313480, 106.619326 40.440611" stroke-width="0.500000" />
<path stroke="#22416c" stroke-opacity="0.501961" fill="none" d="M 82.760063 189.244246 Q 127.208888 168.066651, 97.527816 131.491632" stroke-width="0.500000" />
<path stroke="#363736" stroke-opacity="0.501961" fill="none" d="M 100.241702 130.971237 Q 83.968319 130.739140, 87.619764 142.336528" stroke-width="0.500000" />
<path stroke="#172f5c" stroke-opacity="0.501961" fill="none" d="M 33.192523 196.611213 Q 31.094621 190.460651, 20.550100 142.446413" stroke-width="0.500000" />
<path stroke="#3b4649" stroke-opacity="0.501961" fill="none" d="M 159.507540 122.136371 Q 264.585623 105.815158, 270.992158 109.868959" stroke-width="0.500000" />
<path stroke="#d5bb47" stroke-opacity="0.501961" fill="none" d="M 119.004698 90.834752 Q 87.700730 108.534758, 49.355555 106.203730" stroke-width="0.500000" />
<path stroke="#2b2f1d" stroke-opacity="0.501961" fill="none" d="M 159.253920 153.759001 Q 107.434438 152.837854, 93.274872 165.412234" stroke-width="0.500000" />
<path stroke="#193361" stroke-opacity="0.501961" fill="none" d="M 210.833345 207.000000 Q 191.252486 115.345053, 186.521364 115.469340" stroke-width="0.500000" />
<path stroke="#3e3d2e" stroke-opacity="0.501961" fill="none" d="M 236.652779 138.090011 Q 227.384757 140.542526, 136.119677 152.330126" stroke-width="0.500000" />
<path stroke="#826714" stroke-opacity="0.501961" fill="none" d="M 102.674676 106.343686 Q 143.373583 129.486598, 174.446902 118.885328" stroke-width="0.500000" />
<path stroke="#c1b092" stroke-opacity="0.501961" fill="none" d="M 31.124929 121.398688 Q 70.459721 130.188308, 101.548058 106.025130" stroke-width="0.500000" />
<path stroke="#113e97" stroke-opacity="0.501961" fill="none" d="M 143.798522 155.323616 Q 169.580776 157.755224, 163.349325 178.335167" stroke-width="0.500000" />
<path stroke="#17366f" stroke-opacity="0.501961" fill="none" d="M 152.841703 122.319712 Q 163.349929 134.774006, 161.907294 188.589927" stroke-width="0.500000" />
<path stroke="#1a3569" stroke-opacity="0.501961" fill="none" d="M 102.392004 191.592288 Q 163.974790 186.265505, 202.991529 177.131175" stroke-width="0.500000" />
<path stroke="#1a3164" stroke-opacity="0.501961" fill="none" d="M 260.685601 207.000000 Q 247.469100 187.722176, 233.539280 119.065314" stroke-width="0.500000" />
<path stroke="#2a3a50" stroke-opacity="0.501961" fill="none" d="M 48.412955 139.156815 Q 40.275884 139.119956, 21.069813 143.127218" stroke-width="0.500000" />
<path stroke="#d4c98e" stroke-opacity="0.501961" fill="none" d="M 240.929990 65.696564 Q 180.793959 73.085461, 150.063440 95.067669" stroke-width="0.500000" />
<path stroke="#cd9c07" stroke-opacity="0.501961" fill="none" d="M 62.383991 109.411923 Q 70.927896 108.730688, 101.592957 105.194866" stroke-width="0.500000" />
<path stroke="#244573" stroke-opacity="0.501961" fill="none" d="M 25.174992 165.033771 Q 204.337168 145.510100, 215.297095 129.667596" stroke-width="0.500000" />
<path stroke="#4f5040" stroke-opacity="0.501961" fill="none" d="M 203.735234 163.236405 Q 196.684414 131.858403, 189.557235 112.297684" stroke-width="0.500000" />
<path stroke="#233656" stroke-opacity="0.501961" fill="none" d="M 144.848760 149.388275 Q 204.888315 142.708822, 221.757663 138.729173" stroke-width="0.500000" />
<path stroke="#152740" stroke-opacity="0.501961" fill="none" d="M 230.832751 142.308104 Q 243.691673 174.460689, 247.040233 207.000000" stroke-width="0.500000" />
<path stroke="#b5b798" stroke-opacity="0.501961" fill="none" d="M 149.322332 114.939746 Q 271.000000 112.663287, 269.792720 98.688230" stroke-width="0.500000" />
<path stroke="#c19503" stroke-opacity="0.501961" fill="none" d="M 103.932965 117.418877 Q 73.995939 126.033713, 73.121341 127.913624" stroke-width="0.500000" />
<path stroke="#f4e2a2" stroke-opacity="0.501961" fill="none" d="M 95.845129 31.181103 Q 99.965896 36.312239, 212.625741 32.071202" stroke-width="0.500000" />
<path stroke="#1f271e" stroke-opacity="0.501961" fill="none" d="M -16.000000 180.728868 Q 15.138046 168.153415, 55.534270 167.785494" stroke-width="0.500000" />
<path stroke="#a3812d" stroke-opacity="0.501961" fill="none" d="M 69.971012 139.003249 Q 94.597713 121.947816, 149.740983 110.175092" stroke-width="0.500000" />
<path stroke="#fceeb4" stroke-opacity="0.501961" fill="none" d="M 120.542545 23.387239 Q 124.855757 29.307853, 137.700841 25.237325" stroke-width="0.500000" />
<path stroke="#c2c4af" stroke-opacity="0.501961" fill="none" d="M 151.476663 95.108124 Q 196.199212 90.920845, 228.299041 114.020371" stroke-width="0.500000" />
<path stroke="#efdb99" stroke-opacity="0.501961" fill="none" d="M 172.849537 32.245707 Q 199.958582 33.512946, 241.030885 27.399699" stroke-width="0.500000" />
<path stroke="#dbd6bc" stroke-opacity="0.501961" fill="none" d="M -9.608288 25.894757 Q 239.731285 49.379864, 268.139958 20.714705" stroke-width="0.500000" />
<path stroke="#193769" stroke-opacity="0.501961" fill="none" d="M 81.263901 202.531845 Q 87.392779 156.476714, 224.111126 144.872587" stroke-width="0.500000" />
<path stroke="#b7b379" stroke-opacity="0.501961" fill="none" d="M -16.000000 147.384589 Q 79.815910 130.348052, 124.130390 125.509048" stroke-width="0.500000" />
<path stroke="#a2a290" stroke-opacity="0.501961" fill="none" d="M 21.150735 160.723464 Q 15.474694 130.043280, 22.255502 106.440390" stroke-width="0.500000" />
<path stroke="#bab191" stroke-opacity="0.501961" fill="none" d="M 88.619262 116.222102 Q 41.196038 125.563149, -16.000000 143.934501" stroke-width="0.500000" />
<path stroke="#28323d" stroke-opacity="0.501961" fill="none" d="M 21.973018 147.124033 Q -0.812351 139.229428, -16.000000 154.141759" stroke-width="0.500000" />
<path stroke="#19335c" stroke-opacity="0.501961" fill="none" d="M -14.726630 204.580748 Q 233.856923 165.279162, 265.739338 164.972276" stroke-width="0.500000" />
<path stroke="#c8c2a1" stroke-opacity="0.501961" fill="none" d="M 16.626425 142.438498 Q 84.940426 117.857978, 89.692198 120.435654" stroke-width="0.500000" />
<path stroke="#c9be8c" stroke-opacity="0.501961" fill="none" d="M 29.029388 95.763432 Q 90.679795 108.373450, 112.713355 103.006021" stroke-width="0.500000" />
<path stroke="#d7d4ab" stroke-opacity="0.501961" fill="none" d="M 80.318800 98.979697 Q 93.455473 86.279419, 144.335884 90.301233" stroke-width="0.500000" />
<path stroke="#bdc1c1" stroke-opacity="0.501961" fill="none" d="M 185.876140 37.528707 Q 263.800503 20.991731, 271.000000 42.411802" stroke-width="0.500000" />
<path stroke="#c5be83" stroke-opacity="0.501961" fill="none" d="M 159.208007 79.661993 Q 183.483703 110.387343, 194.007814 119.385339" stroke-width="0.500000" />
<path stroke="#bab05f" stroke-opacity="0.501961" fill="none" d="M 189.775801 86.604643 Q 181.426662 88.350547, 143.098925 94.932803" stroke-width="0.500000" />
<path stroke="#282e30" stroke-opacity="0.501961" fill="none" d="M 12.520578 142.755488 Q 28.111328 154.784941, 22.658039 160.470082" stroke-width="0.500000" />
<path stroke="#e2ce26" stroke-opacity="0.501961" fill="none" d="M 156.543941 116.290288 Q 165.912338 114.860250, 174.394096 116.572565" stroke-width="0.500000" />
<path stroke="#c2c7bc" stroke-opacity="0.501961" fill="none" d="M 56.620318 127.635525 Q 33.128577 137.138512, -4.235745 141.218720" stroke-width="0.500000" />
<path stroke="#c0c5c2" stroke-opacity="0.501961" fill="none" d="M 241.066682 25.968359 Q 79.465992 24.416878, 79.434836 11.549586" stroke-width="0.500000" />
<path stroke="#fae192" stroke-opacity="0.501961" fill="none" d="M 168.407756 17.618677 Q 162.754202 17.812040, 143.101667 15.466143" stroke-width="0.500000" />
<path stroke="#d3d4c8" stroke-opacity="0.501961" fill="none" d="M 69.249127 112.763211 Q 24.688018 119.877312, -6.722820 120.712161" stroke-width="0.500000" />
<path stroke="#bba322" stroke-opacity="0.501961" fill="none" d="M 53.734547 140.804952 Q 54.827660 128.041194, 90.384065 123.811786" stroke-width="0.500000" />
<path stroke="#194b95" stroke-opacity="0.501961" fill="none" d="M 64.470600 166.515848 Q 95.562215 159.406813, 95.146596 184.178156" stroke-width="0.500000" />
<path stroke="#252a24" stroke-opacity="0.501961" fill="none" d="M 29.069145 170.857304 Q 53.804781 166.350913, 93.643920 156.731239" stroke-width="0.500000" />
<path stroke="#2a2e23" stroke-opacity="0.501961" fill="none" d="M 97.762240 157.500929 Q 126.495844 161.042156, 168.483203 145.616040" stroke-width="0.500000" />
<path stroke="#bba16b" stroke-opacity="0.501961" fill="none" d="M 38.210412 126.286860 Q 50.414684 119.440395, 106.729025 119.960055" stroke-width="0.500000" />
<path stroke="#fbeaa9" stroke-opacity="0.501961" fill="none" d="M 39.672244 123.251840 Q 30.135425 128.040417, 7.554135 123.951326" stroke-width="0.500000" />
<path stroke="#a3902b" stroke-opacity="0.501961" fill="none" d="M 168.243244 106.602948 Q 118.564398 137.252355, 136.072605 156.125518" stroke-width="0.500000" />
<path stroke="#c09406" stroke-opacity="0.501961" fill="none" d="M 72.130213 129.351647 Q 89.130902 120.463395, 99.463074 118.818282" stroke-width="0.500000" />
<path stroke="#25354e" stroke-opacity="0.501961" fill="none" d="M 266.736530 117.237643 Q 256.151477 101.968461, 226.647222 116.065718" stroke-width="0.500000" />
<path stroke="#fbeec3" stroke-opacity="0.501961" fill="none" d="M 49.237053 42.372356 Q 78.363447 43.193196, 91.627208 41.265869" stroke-width="0.500000" />
<path stroke="#c4bb8c" stroke-opacity="0.501961" fill="none" d="M 104.280679 115.677933 Q 59.527285 108.570265, -16.000000 109.120959" stroke-width="0.500000" />
<path stroke="#e0dfd1" stroke-opacity="0.501961" fill="none" d="M 49.340753 100.046733 Q 45.865682 107.852798, 5.961219 105.394690" stroke-width="0.500000" />
<path stroke="#cda507" stroke-opacity="0.501961" fill="none" d="M 84.086342 104.570386 Q 74.003652 113.084348, 60.340571 106.170958" stroke-width="0.500000" />
<path stroke="#e1dfcf" stroke-opacity="0.501961" fill="none" d="M 78.528238 51.548949 Q 11.936718 47.679653, -16.000000 68.026357" stroke-width="0.500000" />
<path stroke="#afbebf" stroke-opacity="0.501961" fill="none" d="M -6.864519 143.438570 Q 42.949086 138.522718, 47.059744 137.341179" stroke-width="0.500000" />
<path stroke="#1e2a3c" stroke-opacity="0.501961" fill="none" d="M 192.566325 121.793866 Q 204.911930 183.019561, 214.028359 207.000000" stroke-width="0.500000" />
<path stroke="#ccb303" stroke-opacity="0.501961" fill="none" d="M 174.838458 118.476116 Q 163.924373 109.767814, 157.638358 124.407335" stroke-width="0.500000" />
<path stroke="#e7cc58" stroke-opacity="0.501961" fill="none" d="M 101.979738 98.963034 Q 83.919123 110.448880, 66.814050 97.849512" stroke-width="0.500000" />
<path stroke="#1f2a35" stroke-opacity="0.501961" fill="none" d="M 216.544609 207.000000 Q 215.336392 194.913035, 194.997492 116.299848" stroke-width="0.500000" />
<path stroke="#c1ba91" stroke-opacity="0.501961" fill="none" d="M -16.000000 127.015467 Q 34.684312 151.900310, 99.349085 121.735315" stroke-width="0.500000" />
<path stroke="#c6a705" stroke-opacity="0.501961" fill="none" d="M 142.455089 113.295519 Q 155.336188 123.747303, 175.620344 117.677617" stroke-width="0.500000" />
<path stroke="#cbcbb3" stroke-opacity="0.501961" fill="none" d="M 85.828590 83.623968 Q 24.491027 115.507373, 17.306232 146.300399" stroke-width="0.500000" />
<path stroke="#2f2e2a" stroke-opacity="0.501961" fill="none" d="M 255.593476 167.011622 Q 207.907466 171.706993, 177.355291 177.601372" stroke-width="0.500000" />
<path stroke="#d2c784" stroke-opacity="0.501961" fill="none" d="M 66.809910 91.803896 Q 101.605023 87.400758, 115.816693 84.159476" stroke-width="0.500000" />
<path stroke="#d5c794" stroke-opacity="0.501961" fill="none" d="M 251.908076 93.280200 Q 162.991824 102.872351, 143.447075 109.942956" stroke-width="0.500000" />
<path stroke="#aa905e" stroke-opacity="0.501961" fill="none" d="M 88.279908 136.858507 Q 100.830229 108.385010, 110.043499 94.378426" stroke-width="0.500000" />
<path stroke="#424a42" stroke-opacity="0.501961" fill="none" d="M 193.848225 119.710261 Q 198.111083 132.582554, 211.926289 197.299448" stroke-width="0.500000" />
<path stroke="#1a366c" stroke-opacity="0.501961" fill="none" d="M 199.159459 128.466268 Q 219.596944 199.141460, 214.317631 207.000000" stroke-width="0.500000" />
<path stroke="#0c3186" stroke-opacity="0.501961" fill="none" d="M 159.438497 153.802826 Q 171.539637 175.413251, 153.477353 178.348123" stroke-width="0.500000" />
<path stroke="#212f46" stroke-opacity="0.501961" fill="none" d="M 25.226868 156.344339 Q 13.006792 138.753853, -1.923902 146.728341" stroke-width="0.500000" />
<path stroke="#c7c7bb" stroke-opacity="0.501961" fill="none" d="M 19.397809 22.280811 Q 55.302473 11.275559, 167.650036 26.883483" stroke-width="0.500000" />
<path stroke="#14326a" stroke-opacity="0.501961" fill="none" d="M 173.803848 175.123571 Q 62.266669 186.438487, 11.395593 207.000000" stroke-width="0.500000" />
<path stroke="#19263a" stroke-opacity="0.501961" fill="none" d="M 167.017716 178.703206 Q 161.147466 131.739685, 154.148041 122.482121" stroke-width="0.500000" />
<path stroke="#cdb68c" stroke-opacity="0.501961" fill="none" d="M 130.478950 119.005133 Q 140.649376 125.307474, 144.285438 123.252375" stroke-width="0.500000" />
<path stroke="#1a2736" stroke-opacity="0.501961" fill="none" d="M 125.123339 147.526391 Q 132.909668 185.861749, 136.054289 192.291442" stroke-width="0.500000" />
<path stroke="#193b72" stroke-opacity="0.501961" fill="none" d="M 166.732392 142.988720 Q 193.652088 144.397167, 254.665004 132.591138" stroke-width="0.500000" />
<path stroke="#232b2b" stroke-opacity="0.501961" fill="none" d="M 121.410697 162.713639 Q 136.236471 151.301943, 232.236842 141.102655" stroke-width="0.500000" />
<path stroke="#f3e5a4" stroke-opacity="0.501961" fill="none" d="M 167.406566 35.966958 Q 129.682398 32.314357, 77.772404 34.287978" stroke-width="0.500000" />
<path stroke="#596039" stroke-opacity="0.501961" fill="none" d="M 111.957757 129.943065 Q 83.911706 130.840150, 72.186149 140.316126" stroke-width="0.500000" />
<path stroke="#1b437f" stroke-opacity="0.501961" fill="none" d="M -16.000000 183.200405 Q -16.000000 175.417427, 82.963380 166.653082" stroke-width="0.500000" />
<path stroke="#f5e5a2" stroke-opacity="0.501961" fill="none" d="M 17.974375 102.340147 Q 48.900337 97.832367, 66.668464 99.761495" stroke-width="0.500000" />
<path stroke="#bebc7a" stroke-opacity="0.501961" fill="none" d="M 81.262461 127.709381 Q 74.629214 137.772091, 56.328787 134.904899" stroke-width="0.500000" />
<path stroke="#90622d" stroke-opacity="0.501961" fill="none" d="M 100.483511 113.264100 Q 124.085265 127.270819, 141.487016 101.683864" stroke-width="0.500000" />
<path stroke="#c2ad88" stroke-opacity="0.501961" fill="none" d="M 40.830031 123.346566 Q 78.265546 125.555991, 97.603112 117.070509" stroke-width="0.500000" />
<path stroke="#202b32" stroke-opacity="0.501961" fill="none" d="M 50.874526 138.240267 Q 65.143474 207.000000, 67.645757 207.000000" stroke-width="0.500000" />
<path stroke="#d9cdaa" stroke-opacity="0.501961" fill="none" d="M 136.297530 17.159956 Q 127.675777 8.770417, -6.671400 22.391789" stroke-width="0.500000" />
<path stroke="#897755" stroke-opacity="0.501961" fill="none" d="M 116.193494 100.966051 Q 108.787638 94.896757, 102.758128 106.089604" stroke-width="0.500000" />
<path stroke="#232b20" stroke-opacity="0.501961" fill="none" d="M 86.632568 134.787204 Q 107.375380 204.445986, 96.499743 207.000000" stroke-width="0.500000" />
<path stroke="#cccdbf" stroke-opacity="0.501961" fill="none" d="M 160.779409 101.746933 Q 247.364712 79.294692, 271.000000 106.374063" stroke-width="0.500000" />
<path stroke="#2b6ab2" stroke-opacity="0.501961" fill="none" d="M 67.189993 157.760764 Q 83.463945 161.815033, 86.395894 143.642322" stroke-width="0.500000" />
<path stroke="#c1c0b2" stroke-opacity="0.501961" fill="none" d="M 252.853920 22.616571 Q 147.499954 36.181885, 142.578653 25.553115" stroke-width="0.500000" />
<path stroke="#848935" stroke-opacity="0.501961" fill="none" d="M 88.175439 129.895870 Q 71.795035 137.088441, 66.710492 141.021455" stroke-width="0.500000" />
<path stroke="#162d62" stroke-opacity="0.501961" fill="none" d="M 157.360113 186.819783 Q 136.108412 192.952175, 135.746615 157.048323" stroke-width="0.500000" />
<path stroke="#252e32" stroke-opacity="0.501961" fill="none" d="M 195.427489 116.178356 Q 201.133400 148.155426, 218.992669 207.000000" stroke-width="0.500000" />
<path stroke="#c0ced2" stroke-opacity="0.501961" fill="none" d="M 255.782482 59.192357 Q 216.795851 64.973256, 155.298941 77.861046" stroke-width="0.500000" />
<path stroke="#494f45" stroke-opacity="0.501961" fill="none" d="M 231.000802 125.602656 Q 246.536294 192.330302, 255.541848 207.000000" stroke-width="0.500000" />
<path stroke="#d5d4b4" stroke-opacity="0.501961" fill="none" d="M -16.000000 109.346769 Q 75.531327 99.520975, 124.624980 86.641375" stroke-width="0.500000" />
<path stroke="#2c3f4e" stroke-opacity="0.501961" fill="none" d="M 82.220512 205.589712 Q 109.458971 159.393486, 125.865085 138.316049" stroke-width="0.500000" />
<path stroke="#c09506" stroke-opacity="0.501961" fill="none" d="M 136.677334 108.422780 Q 145.383203 106.844440, 163.945192 108.409513" stroke-width="0.500000" />
<path stroke="#ccc6a3" stroke-opacity="0.501961" fill="none" d="M 85.541233 47.991880 Q 116.665625 15.202522, 158.472830 41.902944" stroke-width="0.500000" />
<path stroke="#2e3130" stroke-opacity="0.501961" fill="none" d="M -16.000000 207.000000 Q 207.560401 171.137980, 239.756071 168.486911" stroke-width="0.500000" />
<path stroke="#1f5199" stroke-opacity="0.501961" fill="none" d="M 61.906336 206.254135 Q 104.620144 187.736740, 132.365459 190.694411" stroke-width="0.500000" />
<path stroke="#a59175" stroke-opacity="0.501961" fill="none" d="M 156.408142 88.297511 Q 143.927670 86.877096, 131.529050 110.883702" stroke-width="0.500000" />
</g>
</svg>