<svg xmlns="http://www.w3.org/2000/svg" version="1.1" width="1024" height="768">
<rect x="0" y="0" width="1024" height="768" fill="#929d99" />
<g transform="scale(4.000000) translate(0.5 0.5)">
<polygon fill="#00005d" fill-opacity="0.501961" points="271,97 251,207 -16,173" />
<g transform="translate(128 43) rotate(182) scale(255 125)"><rect fill="#fffccf" fill-opacity="0.501961" x="-0.5" y="-0.5" width="1" height="1" /></g>
<path stroke="#001b24" stroke-opacity="0.501961" fill="none" d="M -10.758496 205.562309 Q -16.000000 141.652912, 216.012469 114.349572" stroke-width="0.500000" />
<path stroke="#000710" stroke-opacity="0.501961" fill="none" d="M -0.840309 189.459229 Q 104.358540 200.247306, 269.170335 163.113930" stroke-width="0.500000" />
<path stroke="#00224d" stroke-opacity="0.501961" fill="none" d="M -1.630688 167.933547 Q 219.242592 104.914145, 234.584241 114.339832" stroke-width="0.500000" />
<path stroke="#061f1d" stroke-opacity="0.501961" fill="none" d="M 183.289263 120.914402 Q 29.374430 130.807265, -12.697926 188.397436" stroke-width="0.500000" />
<path stroke="#000029" stroke-opacity="0.501961" fill="none" d="M 111.140744 190.486023 Q 15.936366 197.919998, 15.779076 143.661817" stroke-width="0.500000" />
<path stroke="#002548" stroke-opacity="0.501961" fill="none" d="M -5.596554 168.223674 Q 219.451995 99.043941, 230.941993 120.744651" stroke-width="0.500000" />
<path stroke="#00133f" stroke-opacity="0.501961" fill="none" d="M 125.846564 97.240083 Q 116.485942 157.488867, -7.951723 143.402674" stroke-width="0.500000" />
<path stroke="#002652" stroke-opacity="0.501961" fill="none" d="M 193.319718 117.906025 Q 2.737255 166.926392, -16.000000 143.746628" stroke-width="0.500000" />
<path stroke="#002856" stroke-opacity="0.501961" fill="none" d="M 204.836858 114.332542 Q 83.898346 144.850281, -16.000000 173.021134" stroke-width="0.500000" />
<path stroke="#000069" stroke-opacity="0.501961" fill="none" d="M 122.346856 192.505980 Q -8.142144 179.674349, -16.000000 191.652442" stroke-width="0.500000" />
<path stroke="#001024" stroke-opacity="0.501961" fill="none" d="M 271.000000 159.083804 Q 143.583743 193.122480, -7.422313 191.537260" stroke-width="0.500000" />
<path stroke="#05273c" stroke-opacity="0.501961" fill="none" d="M -16.000000 145.659759 Q 67.775507 146.696686, 188.488879 117.741598" stroke-width="0.500000" />
<path stroke="#011f48" stroke-opacity="0.501961" fill="none" d="M 121.495441 91.548133 Q 137.042157 135.742486, -0.954338 162.127176" stroke-width="0.500000" />
<path stroke="#000071" stroke-opacity="0.501961" fill="none" d="M -11.018446 190.222937 Q -1.794686 173.580246, 118.506772 193.480425" stroke-width="0.500000" />
<path stroke="#001745" stroke-opacity="0.501961" fill="none" d="M -16.000000 190.903721 Q 183.053883 185.606319, 225.833517 173.192159" stroke-width="0.500000" />
<path stroke="#001d4c" stroke-opacity="0.501961" fill="none" d="M -14.501690 149.669568 Q 94.074033 167.390030, 123.081265 96.609440" stroke-width="0.500000" />
<path stroke="#000f6f" stroke-opacity="0.501961" fill="none" d="M 101.801831 139.555703 Q 10.364346 126.065748, 1.047214 199.491432" stroke-width="0.500000" />
<path stroke="#001725" stroke-opacity="0.501961" fill="none" d="M 250.902601 166.209279 Q 53.887186 207.000000, -1.333662 178.110669" stroke-width="0.500000" />
<path stroke="#00140a" stroke-opacity="0.501961" fill="none" d="M 220.958527 140.182696 Q 24.640513 181.721713, 12.899229 141.433939" stroke-width="0.500000" />
<path stroke="#e4a000" stroke-opacity="0.501961" fill="none" d="M 187.301482 108.548654 Q 181.752655 107.825131, 46.235266 106.847726" stroke-width="0.500000" />
<path stroke="#3f3c00" stroke-opacity="0.501961" fill="none" d="M 195.249206 115.931707 Q 20.538460 145.594728, -16.000000 146.230063" stroke-width="0.500000" />
<path stroke="#00178e" stroke-opacity="0.501961" fill="none" d="M 2.163833 195.748571 Q -7.959413 132.063989, 100.793652 143.963763" stroke-width="0.500000" />
<path stroke="#f1af00" stroke-opacity="0.501961" fill="none" d="M 188.852459 107.984723 Q 87.260314 149.819433, 67.938457 92.759596" stroke-width="0.500000" />
<path stroke="#02224b" stroke-opacity="0.501961" fill="none" d="M -16.000000 148.767318 Q 101.343008 154.363565, 120.252794 99.154908" stroke-width="0.500000" />
<path stroke="#edb200" stroke-opacity="0.501961" fill="none" d="M 45.555987 132.180106 Q 175.366043 118.019316, 197.611532 113.770504" stroke-width="0.500000" />
<path stroke="#d6a100" stroke-opacity="0.501961" fill="none" d="M 44.103676 122.273262 Q 73.640303 91.615690, 195.122100 113.934154" stroke-width="0.500000" />
<path stroke="#eca800" stroke-opacity="0.501961" fill="none" d="M 183.256800 115.998407 Q 77.357227 118.440766, 45.542520 137.237987" stroke-width="0.500000" />
<path stroke="#002330" stroke-opacity="0.501961" fill="none" d="M -16.000000 142.920397 Q 116.167696 171.192844, 270.404918 131.111029" stroke-width="0.500000" />
<path stroke="#001a6c" stroke-opacity="0.501961" fill="none" d="M 175.571034 207.000000 Q 38.136585 87.351628, -9.059204 181.463996" stroke-width="0.500000" />
<path stroke="#ecb700" stroke-opacity="0.501961" fill="none" d="M 186.910787 110.911984 Q 82.972770 150.153181, 54.624593 94.607633" stroke-width="0.500000" />
<path stroke="#000e39" stroke-opacity="0.501961" fill="none" d="M 166.081977 177.471406 Q 87.749308 207.000000, -7.590973 173.862384" stroke-width="0.500000" />
<path stroke="#001830" stroke-opacity="0.501961" fill="none" d="M -8.751719 180.308853 Q 0.962712 207.000000, 258.188510 164.753819" stroke-width="0.500000" />
<path stroke="#001c4c" stroke-opacity="0.501961" fill="none" d="M 247.111284 166.007644 Q 8.167897 205.606399, -16.000000 166.200870" stroke-width="0.500000" />
<path stroke="#092841" stroke-opacity="0.501961" fill="none" d="M 126.285861 96.455712 Q 130.923805 159.005034, -4.723550 154.800523" stroke-width="0.500000" />
<path stroke="#533f00" stroke-opacity="0.501961" fill="none" d="M 163.821301 90.333407 Q 58.512799 110.155475, 105.828771 194.367354" stroke-width="0.500000" />
<path stroke="#cb8c00" stroke-opacity="0.501961" fill="none" d="M 43.701131 136.211002 Q 56.512681 127.088950, 187.125808 102.374437" stroke-width="0.500000" />
<path stroke="#001c8b" stroke-opacity="0.501961" fill="none" d="M 100.634638 142.009375 Q -11.558673 129.940716, 0.416527 196.287225" stroke-width="0.500000" />
<path stroke="#e9a900" stroke-opacity="0.501961" fill="none" d="M 182.642860 117.348852 Q 145.189963 116.876845, 50.227572 131.345311" stroke-width="0.500000" />
<path stroke="#c59100" stroke-opacity="0.501961" fill="none" d="M 43.779407 110.221912 Q 135.222942 89.279661, 134.160175 159.700383" stroke-width="0.500000" />
<path stroke="#002a70" stroke-opacity="0.501961" fill="none" d="M 0.830015 162.192090 Q 46.534196 99.356654, 202.504514 207.000000" stroke-width="0.500000" />
<path stroke="#b28600" stroke-opacity="0.501961" fill="none" d="M 71.043924 106.918819 Q 147.742059 82.206243, 135.303430 157.317452" stroke-width="0.500000" />
<path stroke="#01285d" stroke-opacity="0.501961" fill="none" d="M -16.000000 152.903303 Q 75.314241 175.443938, 126.318478 101.935245" stroke-width="0.500000" />
<path stroke="#cd9200" stroke-opacity="0.501961" fill="none" d="M 47.424282 135.151059 Q 164.225691 102.668134, 203.890260 107.415359" stroke-width="0.500000" />
<path stroke="#002d7e" stroke-opacity="0.501961" fill="none" d="M -16.000000 154.327943 Q 7.797848 203.988284, 231.814080 188.300681" stroke-width="0.500000" />
<path stroke="#e4b400" stroke-opacity="0.501961" fill="none" d="M 69.510646 93.461968 Q 120.364380 157.032340, 143.662510 137.740906" stroke-width="0.500000" />
<path stroke="#fcd56f" stroke-opacity="0.501961" fill="none" d="M 242.904874 109.239161 Q 14.064742 128.277741, -3.214042 124.451125" stroke-width="0.500000" />
<path stroke="#dca900" stroke-opacity="0.501961" fill="none" d="M 176.062292 97.259753 Q 109.756570 169.682859, 62.762211 91.534031" stroke-width="0.500000" />
<path stroke="#ce9300" stroke-opacity="0.501961" fill="none" d="M 193.744780 109.164545 Q 103.612256 108.942891, 57.712545 108.900115" stroke-width="0.500000" />
<path stroke="#001e67" stroke-opacity="0.501961" fill="none" d="M 158.208020 207.000000 Q 50.169631 84.212367, -8.379170 197.759384" stroke-width="0.500000" />
<path stroke="#1f384b" stroke-opacity="0.501961" fill="none" d="M -4.634426 153.885180 Q 136.751398 151.233508, 125.509627 85.769736" stroke-width="0.500000" />
<path stroke="#4e3e00" stroke-opacity="0.501961" fill="none" d="M 86.537570 105.017638 Q 176.049233 90.284778, 170.788258 194.266176" stroke-width="0.500000" />
<path stroke="#fed144" stroke-opacity="0.501961" fill="none" d="M -16.000000 138.626075 Q 113.059418 91.292653, 141.128576 152.324437" stroke-width="0.500000" />
<path stroke="#002263" stroke-opacity="0.501961" fill="none" d="M 166.767102 180.816747 Q 84.614880 188.555999, -16.000000 187.099998" stroke-width="0.500000" />
<path stroke="#001e41" stroke-opacity="0.501961" fill="none" d="M -16.000000 182.095998 Q 116.759072 207.000000, 249.183409 162.600284" stroke-width="0.500000" />
<path stroke="#0047a5" stroke-opacity="0.501961" fill="none" d="M -16.000000 189.309666 Q 161.807251 189.405119, 271.000000 131.707522" stroke-width="0.500000" />
<path stroke="#143a52" stroke-opacity="0.501961" fill="none" d="M 271.000000 106.481228 Q -11.909386 148.995763, -16.000000 159.182336" stroke-width="0.500000" />
<path stroke="#dda800" stroke-opacity="0.501961" fill="none" d="M 69.218891 91.020995 Q 100.647739 161.636351, 171.401620 106.465605" stroke-width="0.500000" />
<path stroke="#7f6c00" stroke-opacity="0.501961" fill="none" d="M 179.432289 118.292251 Q 136.448064 124.492888, 30.943895 141.132501" stroke-width="0.500000" />
<path stroke="#002368" stroke-opacity="0.501961" fill="none" d="M -1.866521 156.361341 Q 14.988518 123.549301, 209.645131 205.480803" stroke-width="0.500000" />
<path stroke="#d8a200" stroke-opacity="0.501961" fill="none" d="M 44.856581 129.358764 Q 87.450317 72.755613, 137.995725 153.458472" stroke-width="0.500000" />
<path stroke="#003b92" stroke-opacity="0.501961" fill="none" d="M -9.201752 184.986284 Q 197.170463 186.396208, 237.584733 151.508381" stroke-width="0.500000" />
<path stroke="#0d1a00" stroke-opacity="0.501961" fill="none" d="M 252.477849 133.925916 Q -8.867616 181.584533, -16.000000 169.304373" stroke-width="0.500000" />
<path stroke="#af7e00" stroke-opacity="0.501961" fill="none" d="M 47.560914 135.352726 Q 50.773936 138.218733, 166.576394 91.120501" stroke-width="0.500000" />
<path stroke="#002767" stroke-opacity="0.501961" fill="none" d="M -2.018101 186.073267 Q 50.634085 80.712863, 169.539529 205.550765" stroke-width="0.500000" />
<path stroke="#433202" stroke-opacity="0.501961" fill="none" d="M 116.329388 202.586161 Q 54.913647 126.737062, 148.115265 95.335142" stroke-width="0.500000" />
<path stroke="#dba200" stroke-opacity="0.501961" fill="none" d="M 113.346393 153.945541 Q 104.121747 105.303212, 190.631581 110.471379" stroke-width="0.500000" />
<path stroke="#e5b700" stroke-opacity="0.501961" fill="none" d="M 142.684184 135.678682 Q 118.808349 155.663790, 70.426371 89.944139" stroke-width="0.500000" />
<path stroke="#082d63" stroke-opacity="0.501961" fill="none" d="M 118.312732 97.978486 Q 91.949763 167.698960, -16.000000 154.704660" stroke-width="0.500000" />
<path stroke="#002149" stroke-opacity="0.501961" fill="none" d="M 254.017060 170.519061 Q 25.988757 207.000000, 4.779053 180.498780" stroke-width="0.500000" />
<path stroke="#cd9e00" stroke-opacity="0.501961" fill="none" d="M 133.742528 155.220627 Q 120.711435 86.420134, 45.634543 110.399099" stroke-width="0.500000" />
<path stroke="#3d3c00" stroke-opacity="0.501961" fill="none" d="M -9.937307 174.199205 Q 143.779442 166.854495, 123.320690 97.794746" stroke-width="0.500000" />
<path stroke="#b27b00" stroke-opacity="0.501961" fill="none" d="M 188.629785 100.174743 Q 145.974793 100.416207, 69.969820 130.102607" stroke-width="0.500000" />
<path stroke="#00274b" stroke-opacity="0.501961" fill="none" d="M -16.000000 167.497531 Q 21.661864 198.831164, 239.007774 169.337037" stroke-width="0.500000" />
<path stroke="#e3b000" stroke-opacity="0.501961" fill="none" d="M 170.450596 118.627105 Q 120.524860 124.979007, 49.021728 134.494734" stroke-width="0.500000" />
<path stroke="#002995" stroke-opacity="0.501961" fill="none" d="M 106.150990 144.724880 Q 98.868965 126.263875, -13.649048 168.879176" stroke-width="0.500000" />
<path stroke="#b08800" stroke-opacity="0.501961" fill="none" d="M 113.940602 152.335333 Q 116.308404 85.748843, 177.180549 89.182358" stroke-width="0.500000" />
<path stroke="#051200" stroke-opacity="0.501961" fill="none" d="M 134.317195 172.133696 Q 130.753819 144.994819, 3.907552 174.447508" stroke-width="0.500000" />
<path stroke="#00248e" stroke-opacity="0.501961" fill="none" d="M -0.127758 145.870178 Q 12.262607 157.127474, 103.956059 137.605613" stroke-width="0.500000" />
<path stroke="#ab8100" stroke-opacity="0.501961" fill="none" d="M 175.199441 88.577244 Q 98.625727 118.766717, 111.528186 155.895039" stroke-width="0.500000" />
<path stroke="#f9f2da" stroke-opacity="0.501961" fill="none" d="M 36.301030 128.173240 Q -6.002845 132.597875, -0.534814 4.615846" stroke-width="0.500000" />
<path stroke="#ce9800" stroke-opacity="0.501961" fill="none" d="M 116.972971 151.337239 Q 115.762553 94.810745, 185.212916 108.737732" stroke-width="0.500000" />
<path stroke="#937500" stroke-opacity="0.501961" fill="none" d="M 132.388142 170.264300 Q 145.306493 87.465266, 75.513035 103.293493" stroke-width="0.500000" />
<path stroke="#004ba4" stroke-opacity="0.501961" fill="none" d="M -16.000000 182.611618 Q 226.509391 189.737309, 258.511277 104.120789" stroke-width="0.500000" />
<path stroke="#1e2400" stroke-opacity="0.501961" fill="none" d="M 236.689277 137.556007 Q -8.606706 176.771413, -16.000000 170.835380" stroke-width="0.500000" />
<path stroke="#775b00" stroke-opacity="0.501961" fill="none" d="M 168.237954 185.849661 Q 169.574401 75.252901, 72.409606 107.964868" stroke-width="0.500000" />
<path stroke="#0049a3" stroke-opacity="0.501961" fill="none" d="M 257.381350 137.083663 Q 202.817471 164.651174, -16.000000 192.949871" stroke-width="0.500000" />
<path stroke="#0053aa" stroke-opacity="0.501961" fill="none" d="M -8.057992 183.450826 Q 247.587751 164.688865, 253.611159 140.225528" stroke-width="0.500000" />
<path stroke="#d1a900" stroke-opacity="0.501961" fill="none" d="M 169.626585 89.373790 Q 143.718553 123.755823, 109.203894 149.379767" stroke-width="0.500000" />
<path stroke="#00275e" stroke-opacity="0.501961" fill="none" d="M -16.000000 192.868279 Q 76.837481 78.623797, 154.969967 203.922539" stroke-width="0.500000" />
<path stroke="#00469f" stroke-opacity="0.501961" fill="none" d="M 253.906647 109.723258 Q 132.446274 207.000000, -1.095089 183.526528" stroke-width="0.500000" />
<path stroke="#c89b00" stroke-opacity="0.501961" fill="none" d="M 53.991242 122.611376 Q 100.988419 69.975775, 141.880164 148.880065" stroke-width="0.500000" />
<path stroke="#002c9f" stroke-opacity="0.501961" fill="none" d="M -12.985440 145.594787 Q 6.341343 171.278636, 103.609257 140.891095" stroke-width="0.500000" />
<path stroke="#dcaa00" stroke-opacity="0.501961" fill="none" d="M 135.829972 153.963562 Q 100.172666 103.409159, 52.247172 107.592737" stroke-width="0.500000" />
<path stroke="#18250c" stroke-opacity="0.501961" fill="none" d="M 270.091660 138.093260 Q 262.343018 133.987023, -6.844396 171.950257" stroke-width="0.500000" />
<path stroke="#00276f" stroke-opacity="0.501961" fill="none" d="M -16.000000 187.735739 Q 13.922200 94.911422, 159.837968 189.473551" stroke-width="0.500000" />
<path stroke="#deab01" stroke-opacity="0.501961" fill="none" d="M 139.956715 152.536395 Q 82.218828 90.011289, 56.924131 112.367765" stroke-width="0.500000" />
<path stroke="#574000" stroke-opacity="0.501961" fill="none" d="M 83.761102 107.136780 Q 172.318159 93.733977, 166.390502 182.558189" stroke-width="0.500000" />
<path stroke="#deb300" stroke-opacity="0.501961" fill="none" d="M 64.304349 103.735821 Q 117.558886 151.689688, 142.400352 130.302958" stroke-width="0.500000" />
<path stroke="#e1b300" stroke-opacity="0.501961" fill="none" d="M 50.485661 132.811079 Q 111.750659 105.953211, 138.569190 150.211824" stroke-width="0.500000" />
<path stroke="#002c9c" stroke-opacity="0.501961" fill="none" d="M 101.669505 134.744745 Q 75.407316 149.014091, -16.000000 167.985585" stroke-width="0.500000" />
<path stroke="#011f20" stroke-opacity="0.501961" fill="none" d="M 232.627381 142.179716 Q 206.878172 146.709097, -6.626251 175.800380" stroke-width="0.500000" />
<path stroke="#705800" stroke-opacity="0.501961" fill="none" d="M 93.308872 88.541611 Q 118.942310 82.858481, 138.714534 207.000000" stroke-width="0.500000" />
<path stroke="#fffeca" stroke-opacity="0.501961" fill="none" d="M -13.997080 136.979750 Q 38.234899 115.838029, 83.237449 111.520018" stroke-width="0.500000" />
<path stroke="#a17b00" stroke-opacity="0.501961" fill="none" d="M 111.739001 152.828672 Q 86.972550 111.516529, 167.613782 90.623766" stroke-width="0.500000" />
<path stroke="#000000" stroke-opacity="0.501961" fill="none" d="M 11.388801 143.825712 Q 19.957912 145.713949, 28.209644 207.000000" stroke-width="0.500000" />
<path stroke="#1b2002" stroke-opacity="0.501961" fill="none" d="M 271.000000 165.165760 Q 104.936814 188.811986, 65.751264 191.810109" stroke-width="0.500000" />
<path stroke="#004a96" stroke-opacity="0.501961" fill="none" d="M -0.602150 169.843751 Q 18.679011 102.710069, 244.473356 194.480267" stroke-width="0.500000" />
<path stroke="#004893" stroke-opacity="0.501961" fill="none" d="M -16.000000 154.158061 Q 55.211350 122.934101, 263.581630 193.622876" stroke-width="0.500000" />
<path stroke="#d39b00" stroke-opacity="0.501961" fill="none" d="M 54.232438 123.703318 Q 93.949875 82.914222, 137.922414 143.806921" stroke-width="0.500000" />
<path stroke="#00439e" stroke-opacity="0.501961" fill="none" d="M -16.000000 181.579927 Q 12.822072 207.000000, 238.067333 158.885383" stroke-width="0.500000" />
<path stroke="#b38a00" stroke-opacity="0.501961" fill="none" d="M 110.952013 154.219628 Q 107.788242 94.614298, 182.011235 104.420804" stroke-width="0.500000" />
<path stroke="#ddbb00" stroke-opacity="0.501961" fill="none" d="M 194.603871 110.434926 Q 118.382771 120.382884, 112.890639 149.994760" stroke-width="0.500000" />
<path stroke="#000000" stroke-opacity="0.501961" fill="none" d="M 22.938141 143.094911 Q 12.134765 145.644908, 28.325526 207.000000" stroke-width="0.500000" />
<path stroke="#fff8c4" stroke-opacity="0.501961" fill="none" d="M 73.683234 119.726470 Q 21.728916 74.263799, -7.885631 158.515570" stroke-width="0.500000" />
<path stroke="#c09400" stroke-opacity="0.501961" fill="none" d="M 139.300459 153.352376 Q 142.191705 101.639545, 48.991289 105.111510" stroke-width="0.500000" />
<path stroke="#002662" stroke-opacity="0.501961" fill="none" d="M -13.543266 146.557064 Q 44.124257 150.506308, 214.978119 199.160602" stroke-width="0.500000" />
<path stroke="#004da6" stroke-opacity="0.501961" fill="none" d="M -0.606113 189.614470 Q 219.744367 144.197899, 270.191541 143.305411" stroke-width="0.500000" />
<path stroke="#003785" stroke-opacity="0.501961" fill="none" d="M 265.824450 191.613852 Q -2.288760 191.491033, -14.638706 170.048153" stroke-width="0.500000" />
<path stroke="#d4a21c" stroke-opacity="0.501961" fill="none" d="M 54.111730 127.759882 Q 99.234583 74.160159, 172.344415 119.960515" stroke-width="0.500000" />
<path stroke="#0057af" stroke-opacity="0.501961" fill="none" d="M -16.000000 183.297251 Q -6.462017 183.740323, 263.525362 152.743727" stroke-width="0.500000" />
<path stroke="#ddb908" stroke-opacity="0.501961" fill="none" d="M 46.881859 136.408321 Q 138.835925 121.006331, 143.551437 137.369108" stroke-width="0.500000" />
<path stroke="#002e87" stroke-opacity="0.501961" fill="none" d="M -16.000000 180.679481 Q 87.618866 101.726300, 129.722392 180.668854" stroke-width="0.500000" />
<path stroke="#583500" stroke-opacity="0.501961" fill="none" d="M 105.585212 102.193290 Q 113.923888 123.171504, 174.684284 122.911337" stroke-width="0.500000" />
<path stroke="#e9eab2" stroke-opacity="0.501961" fill="none" d="M 256.445766 103.862707 Q 229.090629 115.402300, 168.519184 112.730441" stroke-width="0.500000" />
<path stroke="#715c00" stroke-opacity="0.501961" fill="none" d="M 138.788780 204.484611 Q 129.949885 126.019627, 106.822829 83.428170" stroke-width="0.500000" />
<path stroke="#8e7500" stroke-opacity="0.501961" fill="none" d="M 162.922738 92.622165 Q 93.791634 88.334767, 113.080099 155.881652" stroke-width="0.500000" />
<path stroke="#01274a" stroke-opacity="0.501961" fill="none" d="M 241.992873 136.354855 Q -7.084713 199.338454, -16.000000 113.894070" stroke-width="0.500000" />
<path stroke="#544818" stroke-opacity="0.501961" fill="none" d="M 109.808156 204.837104 Q 61.809744 100.945221, 153.320017 93.656298" stroke-width="0.500000" />
</g>
</svg>