<svg xmlns="http://www.w3.org/2000/svg" version="1.1" width="1024" height="768">
<rect x="0" y="0" width="1024" height="768" fill="#929d99" />
<g transform="scale(4.000000) translate(0.5 0.5)">
<polygon fill="#00005d" fill-opacity="0.501961" points="-16,174 250,207 271,97" />
<polygon fill="#ffffd4" fill-opacity="0.501961" points="-15,-16 271,6 5,145" />
<polygon fill="#003071" fill-opacity="0.501961" points="4,131 271,172 -9,207" />
<polygon fill="#e7e2c3" fill-opacity="0.501961" points="256,-16 270,112 104,97" />
<polygon fill="#b88b00" fill-opacity="0.501961" points="171,87 45,106 133,160" />
<polygon fill="#074f92" fill-opacity="0.501961" points="254,207 136,125 265,105" />
<polygon fill="#073d81" fill-opacity="0.501961" points="116,128 -16,147 21,207" />
<polygon fill="#e5cc75" fill-opacity="0.501961" points="88,132 118,77 -16,144" />
<polygon fill="#ffffb9" fill-opacity="0.501961" points="6,-16 158,-2 -16,29" />
<polygon fill="#976e00" fill-opacity="0.501961" points="103,137 183,117 107,103" />
<polygon fill="#e2ca73" fill-opacity="0.501961" points="106,78 227,110 145,119" />
<polygon fill="#162f47" fill-opacity="0.501961" points="84,128 181,190 97,201" />
<polygon fill="#246dc1" fill-opacity="0.501961" points="137,154 234,159 138,180" />
<polygon fill="#2b7acf" fill-opacity="0.501961" points="96,180 62,133 67,190" />
<polygon fill="#201f0f" fill-opacity="0.501961" points="159,183 176,181 161,121" />
<polygon fill="#d7d6cc" fill-opacity="0.501961" points="-4,143 16,-16 43,137" />
<polygon fill="#34290f" fill-opacity="0.501961" points="209,148 207,185 191,115" />
<polygon fill="#35291c" fill-opacity="0.501961" points="122,97 98,116 136,114" />
<polygon fill="#c0cdd1" fill-opacity="0.501961" points="260,106 264,27 183,116" />
<polygon fill="#323021" fill-opacity="0.501961" points="229,157 253,195 229,106" />
<polygon fill="#281d03" fill-opacity="0.501961" points="21,143 16,173 35,207" />
<polygon fill="#bca024" fill-opacity="0.501961" points="180,97 110,152 102,125" />
<polygon fill="#1e272e" fill-opacity="0.501961" points="54,161 111,170 167,147" />
<polygon fill="#cccab3" fill-opacity="0.501961" points="265,-10 28,19 194,113" />
<polygon fill="#2469bc" fill-opacity="0.501961" points="214,193 222,114 248,207" />
<polygon fill="#302415" fill-opacity="0.501961" points="256,166 226,176 201,169" />
<polygon fill="#155dbd" fill-opacity="0.501961" points="56,169 -16,180 60,207" />
<polygon fill="#054fbf" fill-opacity="0.501961" points="159,125 143,121 147,150" />
<polygon fill="#252211" fill-opacity="0.501961" points="65,164 49,138 64,196" />
<polygon fill="#262b29" fill-opacity="0.501961" points="161,145 236,138 199,152" />
<polygon fill="#2970ca" fill-opacity="0.501961" points="249,166 271,104 236,115" />
<polygon fill="#2e1e00" fill-opacity="0.501961" points="266,134 220,145 234,133" />
<g transform="translate(73 150) rotate(351) scale(26 20)"><rect fill="#3179d3" fill-opacity="0.501961" x="-0.5" y="-0.5" width="1" height="1" /></g>
<g transform="translate(186 162) rotate(176) scale(22 25)"><rect fill="#2676d5" fill-opacity="0.501961" x="-0.5" y="-0.5" width="1" height="1" /></g>
<g transform="translate(90 191) rotate(351) scale(144 5)"><rect fill="#221d09" fill-opacity="0.501961" x="-0.5" y="-0.5" width="1" height="1" /></g>
<g transform="translate(214 128) rotate(169) scale(27 22)"><rect fill="#2570d1" fill-opacity="0.501961" x="-0.5" y="-0.5" width="1" height="1" /></g>
<g transform="translate(192 191) rotate(81) scale(21 29)"><rect fill="#0051bd" fill-opacity="0.501961" x="-0.5" y="-0.5" width="1" height="1" /></g>
<g transform="translate(194 0) rotate(352) scale(123 27)"><rect fill="#f5e2a8" fill-opacity="0.501961" x="-0.5" y="-0.5" width="1" height="1" /></g>
<g transform="translate(80 129) rotate(337) scale(35 11)"><rect fill="#c1a327" fill-opacity="0.501961" x="-0.5" y="-0.5" width="1" height="1" /></g>
<g transform="translate(22 175) rotate(348) scale(6 64)"><rect fill="#282518" fill-opacity="0.501961" x="-0.5" y="-0.5" width="1" height="1" /></g>
<g transform="translate(19 171) rotate(83) scale(4 83)"><rect fill="#2c2405" fill-opacity="0.501961" x="-0.5" y="-0.5" width="1" height="1" /></g>
<g transform="translate(100 144) rotate(335) scale(8 26)"><rect fill="#0b4dbf" fill-opacity="0.501961" x="-0.5" y="-0.5" width="1" height="1" /></g>
<g transform="translate(180 56) rotate(353) scale(144 38)"><rect fill="#b7c0ba" fill-opacity="0.501961" x="-0.5" y="-0.5" width="1" height="1" /></g>
<g transform="translate(0 158) rotate(258) scale(20 32)"><rect fill="#1664da" fill-opacity="0.501961" x="-0.5" y="-0.5" width="1" height="1" /></g>
<g transform="translate(74 103) rotate(129) scale(14 24)"><rect fill="#ddb92b" fill-opacity="0.501961" x="-0.5" y="-0.5" width="1" height="1" /></g>
<g transform="translate(151 166) rotate(170) scale(23 22)"><rect fill="#1c67d0" fill-opacity="0.501961" x="-0.5" y="-0.5" width="1" height="1" /></g>
<g transform="translate(119 161) rotate(220) scale(17 32)"><rect fill="#113376" fill-opacity="0.501961" x="-0.5" y="-0.5" width="1" height="1" /></g>
<g transform="translate(220 155) rotate(-10) scale(26 19)"><rect fill="#216bcd" fill-opacity="0.501961" x="-0.5" y="-0.5" width="1" height="1" /></g>
<g transform="translate(165 111) rotate(353) scale(54 18)"><rect fill="#d3b444" fill-opacity="0.501961" x="-0.5" y="-0.5" width="1" height="1" /></g>
<g transform="translate(79 176) rotate(258) scale(24 28)"><rect fill="#1f67c3" fill-opacity="0.501961" x="-0.5" y="-0.5" width="1" height="1" /></g>
<g transform="translate(124 134) rotate(283) scale(17 37)"><rect fill="#a39508" fill-opacity="0.501961" x="-0.5" y="-0.5" width="1" height="1" /></g>
<g transform="translate(134 173) rotate(164) scale(7 39)"><rect fill="#29240e" fill-opacity="0.501961" x="-0.5" y="-0.5" width="1" height="1" /></g>
<g transform="translate(207 175) rotate(-14) scale(7 67)"><rect fill="#283232" fill-opacity="0.501961" x="-0.5" y="-0.5" width="1" height="1" /></g>
<g transform="translate(221 173) rotate(82) scale(5 112)"><rect fill="#323227" fill-opacity="0.501961" x="-0.5" y="-0.5" width="1" height="1" /></g>
<g transform="translate(59 116) rotate(13) scale(36 16)"><rect fill="#cfca9b" fill-opacity="0.501961" x="-0.5" y="-0.5" width="1" height="1" /></g>
<g transform="translate(227 187) rotate(257) scale(25 23)"><rect fill="#1f6dd1" fill-opacity="0.501961" x="-0.5" y="-0.5" width="1" height="1" /></g>
<g transform="translate(118 91) rotate(91) scale(14 46)"><rect fill="#cfc270" fill-opacity="0.501961" x="-0.5" y="-0.5" width="1" height="1" /></g>
<g transform="translate(181 125) rotate(349) scale(55 13)"><rect fill="#1f4179" fill-opacity="0.501961" x="-0.5" y="-0.5" width="1" height="1" /></g>
<g transform="translate(158 191) rotate(78) scale(9 23)"><rect fill="#0250cb" fill-opacity="0.501961" x="-0.5" y="-0.5" width="1" height="1" /></g>
<g transform="translate(41 153) rotate(77) scale(22 24)"><rect fill="#0f45ab" fill-opacity="0.501961" x="-0.5" y="-0.5" width="1" height="1" /></g>
<g transform="translate(255 151) rotate(258) scale(20 26)"><rect fill="#3e84d9" fill-opacity="0.501961" x="-0.5" y="-0.5" width="1" height="1" /></g>
<g transform="translate(139 113) rotate(198) scale(16 24)"><rect fill="#b68d63" fill-opacity="0.501961" x="-0.5" y="-0.5" width="1" height="1" /></g>
<g transform="translate(10 50) rotate(253) scale(46 62)"><rect fill="#dfdbcf" fill-opacity="0.501961" x="-0.5" y="-0.5" width="1" height="1" /></g>
<g transform="translate(110 71) rotate(175) scale(161 26)"><rect fill="#c9cfcf" fill-opacity="0.501961" x="-0.5" y="-0.5" width="1" height="1" /></g>
<path stroke="#5c5814" stroke-opacity="0.501961" fill="none" d="M 208.055620 114.627154 Q 206.222366 114.579970, 145.007091 123.376351" stroke-width="0.500000" />
<path stroke="#413d17" stroke-opacity="0.501961" fill="none" d="M 55.139489 119.654638 Q 59.277084 187.951358, 62.873737 201.975570" stroke-width="0.500000" />
<path stroke="#312b08" stroke-opacity="0.501961" fill="none" d="M 223.454295 141.614879 Q 175.753722 149.977550, 60.086149 163.807184" stroke-width="0.500000" />
<path stroke="#384044" stroke-opacity="0.501961" fill="none" d="M 55.337603 125.743966 Q 43.626416 128.702338, 41.106630 128.847992" stroke-width="0.500000" />
<path stroke="#343119" stroke-opacity="0.501961" fill="none" d="M 22.438636 171.795796 Q 198.272875 143.388063, 262.768393 133.237726" stroke-width="0.500000" />
<path stroke="#575f3a" stroke-opacity="0.501961" fill="none" d="M 106.157125 130.348679 Q 64.933451 135.829991, 44.068454 139.252968" stroke-width="0.500000" />
<path stroke="#ffffb4" stroke-opacity="0.501961" fill="none" d="M 137.612971 32.049973 Q 61.894397 45.159065, 48.553870 41.922451" stroke-width="0.500000" />
<path stroke="#322c0c" stroke-opacity="0.501961" fill="none" d="M 175.641646 207.000000 Q 158.070959 121.241134, 154.013568 118.935341" stroke-width="0.500000" />
<path stroke="#9d7606" stroke-opacity="0.501961" fill="none" d="M 154.471807 106.859111 Q 144.675486 109.356016, 64.390290 105.206169" stroke-width="0.500000" />
<path stroke="#363113" stroke-opacity="0.501961" fill="none" d="M 271.000000 132.323207 Q 173.902662 150.116433, 64.275905 162.265386" stroke-width="0.500000" />
<path stroke="#3a3a23" stroke-opacity="0.501961" fill="none" d="M 74.162649 207.000000 Q 61.746757 186.204677, 52.203216 125.394896" stroke-width="0.500000" />
<path stroke="#29230a" stroke-opacity="0.501961" fill="none" d="M 101.203552 188.747410 Q 87.958585 149.527694, 93.445138 131.762566" stroke-width="0.500000" />
<path stroke="#c4c5af" stroke-opacity="0.501961" fill="none" d="M 235.314748 107.937618 Q 211.303907 135.022404, -16.000000 22.884215" stroke-width="0.500000" />
<path stroke="#c7cab1" stroke-opacity="0.501961" fill="none" d="M 15.734047 145.230661 Q 42.688915 125.932228, 81.896722 77.022586" stroke-width="0.500000" />
<path stroke="#c39e00" stroke-opacity="0.501961" fill="none" d="M 93.094777 120.348191 Q 83.586914 126.341851, 49.724553 133.693239" stroke-width="0.500000" />
<path stroke="#142e5a" stroke-opacity="0.501961" fill="none" d="M -12.619906 204.301222 Q 8.246710 197.378568, 271.000000 163.136200" stroke-width="0.500000" />
<path stroke="#6d7456" stroke-opacity="0.501961" fill="none" d="M 107.668119 129.614150 Q 74.373391 133.785860, 15.448520 143.141089" stroke-width="0.500000" />
<path stroke="#2d281d" stroke-opacity="0.501961" fill="none" d="M 250.867857 207.000000 Q 226.248220 125.626978, 228.981573 113.306054" stroke-width="0.500000" />
<path stroke="#1c76e7" stroke-opacity="0.501961" fill="none" d="M 151.130597 207.000000 Q 139.092490 175.048037, 69.318522 207.000000" stroke-width="0.500000" />
<path stroke="#242724" stroke-opacity="0.501961" fill="none" d="M 271.000000 107.179521 Q 227.042821 109.645918, 228.278258 117.906943" stroke-width="0.500000" />
<path stroke="#c9cfb9" stroke-opacity="0.501961" fill="none" d="M 18.267198 145.800381 Q 13.678140 124.482534, 95.449433 90.383953" stroke-width="0.500000" />
<path stroke="#a5aa28" stroke-opacity="0.501961" fill="none" d="M 136.328374 130.746632 Q 150.237252 148.353234, 133.471628 154.961362" stroke-width="0.500000" />
<path stroke="#262c1f" stroke-opacity="0.501961" fill="none" d="M 227.055723 142.434686 Q 186.302183 147.085270, 88.023290 163.047612" stroke-width="0.500000" />
<path stroke="#c3b782" stroke-opacity="0.501961" fill="none" d="M 4.397903 96.114027 Q 70.068602 162.718106, 205.265406 94.935141" stroke-width="0.500000" />
<path stroke="#38351b" stroke-opacity="0.501961" fill="none" d="M 225.307245 141.946584 Q 87.101015 156.998825, 62.756672 164.771438" stroke-width="0.500000" />
<path stroke="#b27e00" stroke-opacity="0.501961" fill="none" d="M 109.466189 112.904809 Q 102.762595 104.160269, 65.434936 109.031519" stroke-width="0.500000" />
<path stroke="#fffea8" stroke-opacity="0.501961" fill="none" d="M 138.433516 34.039773 Q 98.288301 31.825760, 82.095176 33.915311" stroke-width="0.500000" />
<path stroke="#beb187" stroke-opacity="0.501961" fill="none" d="M 109.501488 117.313901 Q 29.184275 101.277658, -16.000000 116.423841" stroke-width="0.500000" />
<path stroke="#262213" stroke-opacity="0.501961" fill="none" d="M 96.574858 185.570714 Q 94.614410 161.016275, 92.235408 131.646931" stroke-width="0.500000" />
<path stroke="#bab78d" stroke-opacity="0.501961" fill="none" d="M -16.000000 130.807257 Q -16.000000 98.077748, 185.095303 101.976105" stroke-width="0.500000" />
<path stroke="#565545" stroke-opacity="0.501961" fill="none" d="M 41.369888 129.990863 Q 59.549154 125.427284, 59.636639 124.574411" stroke-width="0.500000" />
<path stroke="#b5b38a" stroke-opacity="0.501961" fill="none" d="M 230.972569 35.627926 Q 153.158423 40.534615, 46.182809 47.691354" stroke-width="0.500000" />
<path stroke="#46401a" stroke-opacity="0.501961" fill="none" d="M 150.918542 116.124377 Q 170.192800 139.783647, 174.060152 207.000000" stroke-width="0.500000" />
<path stroke="#242e29" stroke-opacity="0.501961" fill="none" d="M 19.382600 170.708117 Q 178.898956 150.752038, 189.790745 147.862544" stroke-width="0.500000" />
<path stroke="#ffe998" stroke-opacity="0.501961" fill="none" d="M 208.652844 30.983633 Q 122.037865 36.756044, 87.136480 32.529498" stroke-width="0.500000" />
<path stroke="#5a503a" stroke-opacity="0.501961" fill="none" d="M 113.611831 203.554898 Q 58.828786 122.992105, 124.798291 96.353256" stroke-width="0.500000" />
<path stroke="#161e23" stroke-opacity="0.501961" fill="none" d="M 57.229650 136.567445 Q 54.107220 153.560432, 63.356198 207.000000" stroke-width="0.500000" />
<path stroke="#4f4520" stroke-opacity="0.501961" fill="none" d="M 133.872964 112.140339 Q 165.298402 107.734461, 173.501582 207.000000" stroke-width="0.500000" />
<path stroke="#4f4205" stroke-opacity="0.501961" fill="none" d="M 178.729347 118.226765 Q 152.302282 126.066734, 142.104994 121.616049" stroke-width="0.500000" />
<path stroke="#fffeb8" stroke-opacity="0.501961" fill="none" d="M 50.385707 41.258099 Q 86.092741 45.535726, 122.938125 30.574816" stroke-width="0.500000" />
<path stroke="#fee9a2" stroke-opacity="0.501961" fill="none" d="M 160.313179 36.037945 Q 222.328499 26.724735, 256.398502 28.207816" stroke-width="0.500000" />
<path stroke="#142240" stroke-opacity="0.501961" fill="none" d="M 233.149820 111.805263 Q 266.816349 107.706481, 269.342703 108.017778" stroke-width="0.500000" />
<path stroke="#fbe380" stroke-opacity="0.501961" fill="none" d="M 6.660267 98.389110 Q 83.382797 98.282147, 92.686893 104.284582" stroke-width="0.500000" />
<path stroke="#7b8887" stroke-opacity="0.501961" fill="none" d="M 56.083600 125.199344 Q 33.998083 128.531506, 15.547233 133.326220" stroke-width="0.500000" />
<path stroke="#3b3b23" stroke-opacity="0.501961" fill="none" d="M 70.762804 207.000000 Q 55.271100 156.232205, 50.499792 124.622484" stroke-width="0.500000" />
<path stroke="#beb4a3" stroke-opacity="0.501961" fill="none" d="M 106.511876 116.528243 Q -1.616651 109.039267, -15.926388 128.273193" stroke-width="0.500000" />
<path stroke="#2c2915" stroke-opacity="0.501961" fill="none" d="M 115.699786 207.000000 Q 85.789459 171.167859, 91.633922 131.641398" stroke-width="0.500000" />
<path stroke="#b7b691" stroke-opacity="0.501961" fill="none" d="M 44.076035 49.313507 Q 249.851865 30.563383, 258.828198 49.050882" stroke-width="0.500000" />
<path stroke="#d6cc85" stroke-opacity="0.501961" fill="none" d="M 127.837466 87.833741 Q 174.163958 67.041786, 193.683552 120.548529" stroke-width="0.500000" />
<path stroke="#c3a10d" stroke-opacity="0.501961" fill="none" d="M 95.139894 118.294127 Q 72.618084 130.223655, 47.225622 135.967542" stroke-width="0.500000" />
<path stroke="#d8b700" stroke-opacity="0.501961" fill="none" d="M 145.170896 116.522117 Q 169.633125 121.546457, 179.115658 116.419781" stroke-width="0.500000" />
<path stroke="#2b291c" stroke-opacity="0.501961" fill="none" d="M 108.178273 196.594592 Q 80.195664 135.811657, 94.515291 130.996157" stroke-width="0.500000" />
<path stroke="#bbad5a" stroke-opacity="0.501961" fill="none" d="M 109.369415 145.607596 Q 98.629174 144.277786, 102.599476 85.448720" stroke-width="0.500000" />
<path stroke="#9b6c06" stroke-opacity="0.501961" fill="none" d="M 67.317279 110.018284 Q 94.557679 103.332723, 123.618387 117.513537" stroke-width="0.500000" />
<path stroke="#242e37" stroke-opacity="0.501961" fill="none" d="M 154.595694 155.335058 Q 236.940320 135.687080, 257.773955 132.891357" stroke-width="0.500000" />
<path stroke="#4e4831" stroke-opacity="0.501961" fill="none" d="M 224.941971 112.066369 Q 237.767822 145.255183, 250.477121 207.000000" stroke-width="0.500000" />
<path stroke="#c4c29c" stroke-opacity="0.501961" fill="none" d="M 220.990271 76.464223 Q 13.458553 118.971086, -16.000000 104.723243" stroke-width="0.500000" />
<path stroke="#ad9b01" stroke-opacity="0.501961" fill="none" d="M 113.540794 155.124073 Q 115.211558 123.453884, 176.992439 116.351079" stroke-width="0.500000" />
<path stroke="#fdea90" stroke-opacity="0.501961" fill="none" d="M 83.709139 104.205241 Q 54.923898 95.293169, 16.583257 102.788266" stroke-width="0.500000" />
<path stroke="#c8cdbd" stroke-opacity="0.501961" fill="none" d="M 226.665157 114.270157 Q 235.473112 105.598866, 222.351925 66.344968" stroke-width="0.500000" />
<path stroke="#2a3127" stroke-opacity="0.501961" fill="none" d="M 58.064925 162.464028 Q 64.521790 159.990648, 180.973489 150.280094" stroke-width="0.500000" />
<path stroke="#bb8900" stroke-opacity="0.501961" fill="none" d="M 107.710836 105.109481 Q 77.489720 106.723852, 64.457039 107.181628" stroke-width="0.500000" />
<path stroke="#a4ae3a" stroke-opacity="0.501961" fill="none" d="M 143.306802 139.918287 Q 141.199946 155.846748, 131.459251 152.008973" stroke-width="0.500000" />
<path stroke="#c7b28b" stroke-opacity="0.501961" fill="none" d="M 125.681288 120.561108 Q 163.800188 109.042167, 192.521071 116.331350" stroke-width="0.500000" />
<path stroke="#fff6c3" stroke-opacity="0.501961" fill="none" d="M 198.354223 -0.214221 Q 168.094547 -4.198324, -1.034865 18.692231" stroke-width="0.500000" />
<path stroke="#b9990b" stroke-opacity="0.501961" fill="none" d="M 92.100671 122.433812 Q 51.300214 130.441774, 54.070462 141.975167" stroke-width="0.500000" />
<path stroke="#945d0f" stroke-opacity="0.501961" fill="none" d="M 157.190755 108.254730 Q 147.580149 114.013456, 105.691971 118.185027" stroke-width="0.500000" />
<path stroke="#b9b29d" stroke-opacity="0.501961" fill="none" d="M 103.426148 116.836161 Q 14.667006 99.049458, 19.329555 155.918149" stroke-width="0.500000" />
<path stroke="#e7cd67" stroke-opacity="0.501961" fill="none" d="M 170.482129 85.765234 Q 129.777812 75.947474, 97.718624 105.870662" stroke-width="0.500000" />
<path stroke="#d2cab8" stroke-opacity="0.501961" fill="none" d="M 104.013492 115.207039 Q 14.015109 104.412641, -15.937072 154.258470" stroke-width="0.500000" />
<path stroke="#442f0f" stroke-opacity="0.501961" fill="none" d="M 126.637837 117.724416 Q 104.169014 113.703991, 107.249487 100.638362" stroke-width="0.500000" />
<path stroke="#3a3c26" stroke-opacity="0.501961" fill="none" d="M 62.301915 207.000000 Q 60.354531 145.644398, 44.550511 125.777924" stroke-width="0.500000" />
<path stroke="#cec370" stroke-opacity="0.501961" fill="none" d="M 106.792726 128.685590 Q 68.282004 131.528330, 49.583042 136.723722" stroke-width="0.500000" />
<path stroke="#c4b78b" stroke-opacity="0.501961" fill="none" d="M 262.229518 106.964084 Q 131.114351 106.400644, 123.561440 126.253564" stroke-width="0.500000" />
<path stroke="#b0993e" stroke-opacity="0.501961" fill="none" d="M 137.203650 152.142233 Q 105.527971 107.255405, 168.971294 83.990989" stroke-width="0.500000" />
<path stroke="#242928" stroke-opacity="0.501961" fill="none" d="M 105.375784 207.000000 Q 47.703616 198.520429, 55.768101 134.260985" stroke-width="0.500000" />
<path stroke="#102e65" stroke-opacity="0.501961" fill="none" d="M 169.488856 174.628739 Q 94.234247 190.849290, 56.200830 188.896943" stroke-width="0.500000" />
<path stroke="#bbc2b0" stroke-opacity="0.501961" fill="none" d="M 253.740567 106.060029 Q 212.016572 119.493406, 154.459846 94.553361" stroke-width="0.500000" />
<path stroke="#b6b590" stroke-opacity="0.501961" fill="none" d="M 47.534379 49.784641 Q 95.024246 38.078091, 260.093883 38.187917" stroke-width="0.500000" />
<path stroke="#2e301a" stroke-opacity="0.501961" fill="none" d="M 80.623487 132.320800 Q 95.891471 136.504763, 100.528519 207.000000" stroke-width="0.500000" />
<path stroke="#dadcc0" stroke-opacity="0.501961" fill="none" d="M 18.562585 144.827410 Q -16.000000 112.131633, -16.000000 111.480704" stroke-width="0.500000" />
<path stroke="#81877a" stroke-opacity="0.501961" fill="none" d="M 19.456820 133.777032 Q 59.720867 124.446032, 61.418761 123.114034" stroke-width="0.500000" />
<path stroke="#cfd2ba" stroke-opacity="0.501961" fill="none" d="M 17.253220 144.791538 Q 23.225068 133.948800, 115.629650 64.136895" stroke-width="0.500000" />
<path stroke="#fff0b2" stroke-opacity="0.501961" fill="none" d="M 147.412916 32.745143 Q 52.943750 43.015788, 47.419096 42.703455" stroke-width="0.500000" />
<path stroke="#1d6ad0" stroke-opacity="0.501961" fill="none" d="M 133.603925 190.645025 Q 125.956318 191.127952, 53.787094 195.872999" stroke-width="0.500000" />
<path stroke="#aa7100" stroke-opacity="0.501961" fill="none" d="M 118.973286 126.165277 Q 133.421505 99.439177, 158.373018 109.219601" stroke-width="0.500000" />
<path stroke="#333323" stroke-opacity="0.501961" fill="none" d="M 177.198566 199.721204 Q 166.324845 140.656049, 157.702567 124.036034" stroke-width="0.500000" />
<path stroke="#4d5350" stroke-opacity="0.501961" fill="none" d="M 101.808747 113.680834 Q 114.059693 95.831218, 124.964061 99.220331" stroke-width="0.500000" />
<path stroke="#b3bdc1" stroke-opacity="0.501961" fill="none" d="M 224.388614 70.390383 Q 204.865263 103.695590, 146.091856 99.881426" stroke-width="0.500000" />
<path stroke="#564a00" stroke-opacity="0.501961" fill="none" d="M 146.897467 121.213374 Q 159.630236 124.117819, 177.917014 119.241636" stroke-width="0.500000" />
<path stroke="#caa80d" stroke-opacity="0.501961" fill="none" d="M 95.688767 119.614422 Q 47.884204 134.226954, 48.602421 137.027730" stroke-width="0.500000" />
<path stroke="#fdeda9" stroke-opacity="0.501961" fill="none" d="M 43.346176 44.546627 Q 117.671695 23.469800, 122.087254 35.777506" stroke-width="0.500000" />
<path stroke="#93680e" stroke-opacity="0.501961" fill="none" d="M 163.904745 137.444164 Q 150.603126 95.939100, 119.655525 121.814602" stroke-width="0.500000" />
<path stroke="#cdbb9f" stroke-opacity="0.501961" fill="none" d="M 88.198056 133.569060 Q 114.607776 105.126298, 83.317639 79.304333" stroke-width="0.500000" />
<path stroke="#433a28" stroke-opacity="0.501961" fill="none" d="M 61.926085 161.702387 Q 88.705521 169.690399, 91.835328 131.057821" stroke-width="0.500000" />
<path stroke="#343027" stroke-opacity="0.501961" fill="none" d="M 228.233666 121.009643 Q 247.974014 196.463653, 248.012323 207.000000" stroke-width="0.500000" />
<path stroke="#2361af" stroke-opacity="0.501961" fill="none" d="M 227.525928 168.454549 Q 192.261824 170.383707, 173.716579 169.020705" stroke-width="0.500000" />
<path stroke="#232a34" stroke-opacity="0.501961" fill="none" d="M 10.314909 142.930140 Q 34.315889 174.354308, 26.469970 207.000000" stroke-width="0.500000" />
<path stroke="#fff0ab" stroke-opacity="0.501961" fill="none" d="M 271.000000 35.899149 Q 248.238298 20.025832, 188.438300 33.566556" stroke-width="0.500000" />
<path stroke="#c0bfa0" stroke-opacity="0.501961" fill="none" d="M 265.663918 105.535422 Q 210.989797 107.210813, 149.899735 105.286995" stroke-width="0.500000" />
<path stroke="#204476" stroke-opacity="0.501961" fill="none" d="M 166.389948 170.125648 Q 134.299719 127.622987, 191.015576 115.598770" stroke-width="0.500000" />
<path stroke="#242b33" stroke-opacity="0.501961" fill="none" d="M 70.492261 165.296248 Q -5.341889 165.273705, -16.000000 179.468634" stroke-width="0.500000" />
<path stroke="#243d5b" stroke-opacity="0.501961" fill="none" d="M -4.886017 179.162329 Q 44.213987 145.375227, 98.695360 130.288748" stroke-width="0.500000" />
<path stroke="#d19500" stroke-opacity="0.501961" fill="none" d="M 94.197606 109.001943 Q 83.419977 102.056846, 62.295315 110.296786" stroke-width="0.500000" />
<path stroke="#bbba92" stroke-opacity="0.501961" fill="none" d="M 47.577016 50.208857 Q 154.836617 38.935105, 248.282909 40.762927" stroke-width="0.500000" />
<path stroke="#16376d" stroke-opacity="0.501961" fill="none" d="M 126.090522 139.040827 Q 90.841793 207.000000, 57.841235 184.599455" stroke-width="0.500000" />
<path stroke="#1e55af" stroke-opacity="0.501961" fill="none" d="M 204.780191 147.592443 Q 208.511773 170.464524, 218.489916 169.059485" stroke-width="0.500000" />
<path stroke="#9e9f37" stroke-opacity="0.501961" fill="none" d="M 134.654340 155.793369 Q 149.165346 150.327589, 137.698037 119.404124" stroke-width="0.500000" />
<path stroke="#0048bf" stroke-opacity="0.501961" fill="none" d="M -1.263334 176.228440 Q -1.727386 194.253494, 12.016621 191.497822" stroke-width="0.500000" />
<path stroke="#ddc67f" stroke-opacity="0.501961" fill="none" d="M 104.909268 126.845391 Q 92.809429 124.275576, 59.227338 134.695839" stroke-width="0.500000" />
<path stroke="#fdeda1" stroke-opacity="0.501961" fill="none" d="M 69.098664 99.113434 Q 28.927886 103.505724, 20.913210 101.320925" stroke-width="0.500000" />
<path stroke="#475751" stroke-opacity="0.501961" fill="none" d="M 120.100757 97.518679 Q 109.906053 108.372382, 104.112260 105.755870" stroke-width="0.500000" />
<path stroke="#0f3a78" stroke-opacity="0.501961" fill="none" d="M 225.461758 115.245418 Q 238.074288 181.760031, 252.525599 207.000000" stroke-width="0.500000" />
<path stroke="#fffcbd" stroke-opacity="0.501961" fill="none" d="M -7.456308 20.920027 Q -8.124568 14.753661, 148.797637 -0.197942" stroke-width="0.500000" />
<path stroke="#295171" stroke-opacity="0.501961" fill="none" d="M 57.428236 136.120362 Q 107.289963 147.092148, 108.661497 135.819359" stroke-width="0.500000" />
<path stroke="#bca400" stroke-opacity="0.501961" fill="none" d="M 121.512281 135.474414 Q 157.070854 110.947026, 176.624525 118.337503" stroke-width="0.500000" />
<path stroke="#bab067" stroke-opacity="0.501961" fill="none" d="M 197.647811 84.943242 Q 2.285756 118.761780, -1.940850 108.455656" stroke-width="0.500000" />
<path stroke="#fef1b7" stroke-opacity="0.501961" fill="none" d="M 137.251711 24.329151 Q 89.539905 42.938794, 70.540200 43.363067" stroke-width="0.500000" />
<path stroke="#213141" stroke-opacity="0.501961" fill="none" d="M 147.260181 156.156208 Q 194.855673 143.291986, 271.000000 129.851454" stroke-width="0.500000" />
<path stroke="#cb9401" stroke-opacity="0.501961" fill="none" d="M 97.995990 105.320093 Q 70.316341 112.369994, 63.967682 108.193444" stroke-width="0.500000" />
<path stroke="#b8b795" stroke-opacity="0.501961" fill="none" d="M 45.479867 48.069935 Q 113.433983 37.327301, 271.000000 36.436491" stroke-width="0.500000" />
<path stroke="#163a7c" stroke-opacity="0.501961" fill="none" d="M 174.028081 181.968355 Q 213.768422 176.810146, 265.150899 169.094575" stroke-width="0.500000" />
<path stroke="#b6b37f" stroke-opacity="0.501961" fill="none" d="M 268.118254 35.637290 Q 163.305180 22.909155, 134.354052 155.792005" stroke-width="0.500000" />
<path stroke="#2d3022" stroke-opacity="0.501961" fill="none" d="M 177.512342 197.018323 Q 158.555074 155.537294, 158.195121 120.806873" stroke-width="0.500000" />
<path stroke="#c7c8af" stroke-opacity="0.501961" fill="none" d="M 92.867817 68.977652 Q 168.998855 122.012149, 249.529407 106.946609" stroke-width="0.500000" />
<path stroke="#fffbc7" stroke-opacity="0.501961" fill="none" d="M 146.523467 1.872873 Q 143.535728 -8.012984, 5.589686 18.861622" stroke-width="0.500000" />
<path stroke="#174ba2" stroke-opacity="0.501961" fill="none" d="M 14.971114 171.583706 Q 21.362595 172.000128, 22.674655 207.000000" stroke-width="0.500000" />
<path stroke="#494734" stroke-opacity="0.501961" fill="none" d="M 44.460760 122.768381 Q 62.477395 132.903387, 62.279582 207.000000" stroke-width="0.500000" />
<path stroke="#faf3cc" stroke-opacity="0.501961" fill="none" d="M 150.629840 2.057843 Q 79.958076 1.927583, -2.871625 1.759051" stroke-width="0.500000" />
<path stroke="#5d3e0c" stroke-opacity="0.501961" fill="none" d="M 129.848144 117.136121 Q 117.075546 122.192871, 105.879298 101.387041" stroke-width="0.500000" />
<path stroke="#ffee93" stroke-opacity="0.501961" fill="none" d="M 132.290375 83.360419 Q 151.238180 83.924186, 179.188360 84.539492" stroke-width="0.500000" />
<path stroke="#cfac00" stroke-opacity="0.501961" fill="none" d="M 172.557801 117.142002 Q 160.747851 125.001240, 142.667707 113.881400" stroke-width="0.500000" />
<path stroke="#343f43" stroke-opacity="0.501961" fill="none" d="M 222.488544 112.891451 Q 142.184516 124.631961, 139.073027 125.552286" stroke-width="0.500000" />
<path stroke="#0d52ac" stroke-opacity="0.501961" fill="none" d="M 57.334492 138.504566 Q 67.787576 141.306169, 86.170655 137.889689" stroke-width="0.500000" />
<path stroke="#f7da95" stroke-opacity="0.501961" fill="none" d="M 103.486224 11.141780 Q 28.203356 17.292793, -9.006599 24.964623" stroke-width="0.500000" />
<path stroke="#4c4c39" stroke-opacity="0.501961" fill="none" d="M 195.005042 116.843405 Q 192.437420 120.417306, 210.238004 189.347109" stroke-width="0.500000" />
<path stroke="#feedad" stroke-opacity="0.501961" fill="none" d="M 164.508870 37.261626 Q 130.487789 28.760733, 88.124149 41.568548" stroke-width="0.500000" />
<path stroke="#42494a" stroke-opacity="0.501961" fill="none" d="M 45.010351 128.658214 Q 54.445565 122.952036, 56.120338 126.055076" stroke-width="0.500000" />
<path stroke="#1b2738" stroke-opacity="0.501961" fill="none" d="M 249.512463 207.000000 Q 234.678262 152.014907, 226.446824 117.064481" stroke-width="0.500000" />
<path stroke="#bdc1ab" stroke-opacity="0.501961" fill="none" d="M 0.834731 114.207836 Q 178.591247 86.901100, 211.192816 18.246951" stroke-width="0.500000" />
<path stroke="#2c3129" stroke-opacity="0.501961" fill="none" d="M 82.906778 152.766968 Q 115.575000 162.978353, 176.034444 148.080183" stroke-width="0.500000" />
<path stroke="#2c2b1f" stroke-opacity="0.501961" fill="none" d="M 89.832001 132.815750 Q 95.988347 135.301849, 97.595039 190.999324" stroke-width="0.500000" />
<path stroke="#c1c1a2" stroke-opacity="0.501961" fill="none" d="M 229.030027 113.526045 Q 187.790626 100.438007, 156.113847 105.649543" stroke-width="0.500000" />
<path stroke="#e7da9d" stroke-opacity="0.501961" fill="none" d="M 9.514799 96.817279 Q 24.808598 102.975210, 74.870867 103.738856" stroke-width="0.500000" />
<path stroke="#b4b6a2" stroke-opacity="0.501961" fill="none" d="M 142.950439 104.939415 Q 187.544080 87.633560, 194.032604 119.926521" stroke-width="0.500000" />
<path stroke="#d0ad19" stroke-opacity="0.501961" fill="none" d="M 97.776234 120.932391 Q 58.464388 128.464549, 49.419049 134.327909" stroke-width="0.500000" />
<path stroke="#1e66c2" stroke-opacity="0.501961" fill="none" d="M 151.725108 207.000000 Q 132.730107 173.728508, 81.138827 207.000000" stroke-width="0.500000" />
<path stroke="#fff6a2" stroke-opacity="0.501961" fill="none" d="M 91.837473 14.124587 Q 27.262926 4.818157, -9.881491 20.921377" stroke-width="0.500000" />
<path stroke="#d8b400" stroke-opacity="0.501961" fill="none" d="M 174.884409 117.606912 Q 153.458125 122.664914, 144.899550 113.333211" stroke-width="0.500000" />
<path stroke="#c6bd79" stroke-opacity="0.501961" fill="none" d="M 49.921129 136.876360 Q 90.099633 129.542273, 108.226364 127.770367" stroke-width="0.500000" />
<path stroke="#272d29" stroke-opacity="0.501961" fill="none" d="M 196.456547 116.414751 Q 195.873603 128.286723, 217.902816 207.000000" stroke-width="0.500000" />
<path stroke="#222a3d" stroke-opacity="0.501961" fill="none" d="M -12.838237 148.534168 Q 15.697725 137.939462, 24.359197 154.717104" stroke-width="0.500000" />
<path stroke="#063686" stroke-opacity="0.501961" fill="none" d="M -14.760818 186.351677 Q 24.204021 198.463588, 92.699388 187.663244" stroke-width="0.500000" />
<path stroke="#1566ca" stroke-opacity="0.501961" fill="none" d="M 159.194897 144.280271 Q 144.840722 145.579263, 145.312092 125.417103" stroke-width="0.500000" />
<path stroke="#2b312c" stroke-opacity="0.501961" fill="none" d="M 5.413779 171.111014 Q 201.153065 151.765041, 198.428302 134.256606" stroke-width="0.500000" />
<path stroke="#bcb9ab" stroke-opacity="0.501961" fill="none" d="M -10.996089 116.907406 Q 37.283074 117.565968, 99.418259 110.855773" stroke-width="0.500000" />
<path stroke="#1d509a" stroke-opacity="0.501961" fill="none" d="M -16.000000 181.202140 Q 21.728278 172.342611, 54.283363 169.488141" stroke-width="0.500000" />
<path stroke="#262a2c" stroke-opacity="0.501961" fill="none" d="M 223.595171 112.845398 Q 245.893268 137.169241, 235.047741 155.600743" stroke-width="0.500000" />
<path stroke="#252c2f" stroke-opacity="0.501961" fill="none" d="M -9.658154 172.068985 Q 93.294458 156.933876, 137.958888 156.514854" stroke-width="0.500000" />
<path stroke="#c79e00" stroke-opacity="0.501961" fill="none" d="M 176.161712 107.238351 Q 155.775916 109.379011, 139.353963 106.758842" stroke-width="0.500000" />
<path stroke="#444641" stroke-opacity="0.501961" fill="none" d="M 44.664523 129.175573 Q 48.893017 128.039166, 53.815095 127.685869" stroke-width="0.500000" />
<path stroke="#554a1e" stroke-opacity="0.501961" fill="none" d="M 81.987725 131.167192 Q 99.680534 142.142614, 83.397229 152.141960" stroke-width="0.500000" />
<path stroke="#e1c96e" stroke-opacity="0.501961" fill="none" d="M 186.331329 83.323070 Q 159.306999 71.495638, 88.115238 105.176994" stroke-width="0.500000" />
<path stroke="#dfdcc0" stroke-opacity="0.501961" fill="none" d="M 68.801746 87.286710 Q 64.734537 122.461490, -16.000000 135.474376" stroke-width="0.500000" />
<path stroke="#175ebe" stroke-opacity="0.501961" fill="none" d="M 175.345004 173.207957 Q 166.311296 154.744972, 179.854421 151.829367" stroke-width="0.500000" />
<path stroke="#b8b795" stroke-opacity="0.501961" fill="none" d="M 271.000000 32.118135 Q 70.620042 45.242776, 55.360937 46.417101" stroke-width="0.500000" />
<path stroke="#bca13e" stroke-opacity="0.501961" fill="none" d="M 137.858253 154.181549 Q 103.479762 99.806914, 36.057708 126.484208" stroke-width="0.500000" />
<path stroke="#0d3c95" stroke-opacity="0.501961" fill="none" d="M 122.535109 142.724029 Q 126.299948 176.036664, 118.674261 182.830046" stroke-width="0.500000" />
<path stroke="#c49f0a" stroke-opacity="0.501961" fill="none" d="M 172.915137 109.340493 Q 140.793918 105.661008, 138.964899 106.296082" stroke-width="0.500000" />
<path stroke="#1d293c" stroke-opacity="0.501961" fill="none" d="M 271.000000 110.610039 Q 242.758646 107.149938, 228.905394 114.593550" stroke-width="0.500000" />
<path stroke="#c9b781" stroke-opacity="0.501961" fill="none" d="M 169.059513 4.119736 Q 210.121898 151.624930, 55.141527 122.442668" stroke-width="0.500000" />
<path stroke="#cec03f" stroke-opacity="0.501961" fill="none" d="M 69.083639 109.486829 Q 60.199094 96.226190, 47.179420 110.467612" stroke-width="0.500000" />
<path stroke="#fdedae" stroke-opacity="0.501961" fill="none" d="M 65.182649 38.421866 Q 99.850717 40.638682, 140.365437 32.771617" stroke-width="0.500000" />
<path stroke="#31372f" stroke-opacity="0.501961" fill="none" d="M 43.053229 168.619127 Q 67.810259 157.455212, 231.438520 140.736300" stroke-width="0.500000" />
<path stroke="#d1d4c0" stroke-opacity="0.501961" fill="none" d="M 19.692272 144.221268 Q -16.000000 122.547254, -16.000000 94.890389" stroke-width="0.500000" />
<path stroke="#fff3b1" stroke-opacity="0.501961" fill="none" d="M 74.056219 41.943930 Q 90.897399 26.108264, 132.008813 36.061513" stroke-width="0.500000" />
<path stroke="#b6b79e" stroke-opacity="0.501961" fill="none" d="M 193.102646 119.476437 Q 184.928789 66.636011, 127.196002 100.269521" stroke-width="0.500000" />
<path stroke="#aca586" stroke-opacity="0.501961" fill="none" d="M 114.797099 94.110740 Q 118.935280 113.732425, 190.015982 89.604439" stroke-width="0.500000" />
<path stroke="#2b3025" stroke-opacity="0.501961" fill="none" d="M 229.879968 142.415899 Q 29.037364 167.730076, -16.000000 177.408651" stroke-width="0.500000" />
<path stroke="#c0b894" stroke-opacity="0.501961" fill="none" d="M 20.633156 138.692887 Q 57.665823 141.525736, 101.254622 120.235739" stroke-width="0.500000" />
<path stroke="#d0be8e" stroke-opacity="0.501961" fill="none" d="M 184.797628 113.927732 Q 159.178362 114.217425, 135.022106 116.938061" stroke-width="0.500000" />
<path stroke="#1569c0" stroke-opacity="0.501961" fill="none" d="M 160.477245 145.255510 Q 142.644643 149.796705, 145.419592 135.940625" stroke-width="0.500000" />
<path stroke="#f1dfa0" stroke-opacity="0.501961" fill="none" d="M 152.331671 36.410173 Q 237.575406 29.079167, 254.761943 23.482323" stroke-width="0.500000" />
<path stroke="#c89401" stroke-opacity="0.501961" fill="none" d="M 65.984701 109.891755 Q 95.854443 101.512603, 103.936663 109.896721" stroke-width="0.500000" />
<path stroke="#43524a" stroke-opacity="0.501961" fill="none" d="M 105.537940 110.334295 Q 111.587593 104.056054, 117.126527 98.533317" stroke-width="0.500000" />
<path stroke="#1e2829" stroke-opacity="0.501961" fill="none" d="M 59.196519 206.773190 Q 60.864194 138.982319, 48.111976 137.860326" stroke-width="0.500000" />
<path stroke="#79873f" stroke-opacity="0.501961" fill="none" d="M 99.041493 130.718126 Q 121.559703 140.016279, 135.439371 155.897510" stroke-width="0.500000" />
<path stroke="#c1c2a3" stroke-opacity="0.501961" fill="none" d="M 115.873307 85.916270 Q 252.629574 137.934029, 271.000000 82.848796" stroke-width="0.500000" />
<path stroke="#abb1a2" stroke-opacity="0.501961" fill="none" d="M 57.648337 113.909682 Q 29.886069 102.847659, -13.724710 112.998662" stroke-width="0.500000" />
<path stroke="#bfaa00" stroke-opacity="0.501961" fill="none" d="M 105.297336 88.225979 Q 101.866448 88.907488, 97.108141 88.340112" stroke-width="0.500000" />
<path stroke="#c09f1a" stroke-opacity="0.501961" fill="none" d="M 98.912631 118.800233 Q 86.739915 125.519093, 48.121023 135.969757" stroke-width="0.500000" />
<path stroke="#2d3027" stroke-opacity="0.501961" fill="none" d="M -16.000000 194.165905 Q 0.038624 207.000000, 256.637849 165.994774" stroke-width="0.500000" />
<path stroke="#fff5a3" stroke-opacity="0.501961" fill="none" d="M 96.692825 11.889185 Q 39.466229 2.156037, -3.755786 22.231942" stroke-width="0.500000" />
<path stroke="#927a00" stroke-opacity="0.501961" fill="none" d="M 174.604109 119.906165 Q 158.832853 122.334120, 137.587542 120.334157" stroke-width="0.500000" />
<path stroke="#283035" stroke-opacity="0.501961" fill="none" d="M 271.000000 163.125899 Q 214.917363 170.112405, 78.961842 192.141806" stroke-width="0.500000" />
<path stroke="#b9beab" stroke-opacity="0.501961" fill="none" d="M 227.173999 113.418600 Q 217.494218 110.085526, 152.139079 94.786756" stroke-width="0.500000" />
<path stroke="#172442" stroke-opacity="0.501961" fill="none" d="M 22.506213 142.523745 Q 28.184485 197.459805, 32.751337 199.521188" stroke-width="0.500000" />
<path stroke="#312e1d" stroke-opacity="0.501961" fill="none" d="M 99.331809 185.885742 Q 97.541599 149.471489, 88.249900 133.378692" stroke-width="0.500000" />
<path stroke="#44483d" stroke-opacity="0.501961" fill="none" d="M 213.409558 207.000000 Q 197.208128 115.594736, 185.320056 115.156587" stroke-width="0.500000" />
<path stroke="#c8c0a0" stroke-opacity="0.501961" fill="none" d="M -13.098536 148.092933 Q 68.104701 126.157262, 100.968123 115.532810" stroke-width="0.500000" />
<path stroke="#2e363d" stroke-opacity="0.501961" fill="none" d="M 16.334255 143.761557 Q -16.000000 143.088673, -16.000000 162.480556" stroke-width="0.500000" />
<path stroke="#d7c000" stroke-opacity="0.501961" fill="none" d="M 157.934969 124.040507 Q 160.641286 110.727975, 176.413441 118.740939" stroke-width="0.500000" />
<path stroke="#1b304f" stroke-opacity="0.501961" fill="none" d="M -3.826235 171.054660 Q 139.275586 160.771800, 189.643093 148.575082" stroke-width="0.500000" />
<path stroke="#163c71" stroke-opacity="0.501961" fill="none" d="M 263.647223 130.970200 Q 199.650269 141.634132, 141.458474 149.870713" stroke-width="0.500000" />
<path stroke="#343522" stroke-opacity="0.501961" fill="none" d="M 155.934804 119.541764 Q 164.914958 153.461645, 181.489201 207.000000" stroke-width="0.500000" />
<path stroke="#366898" stroke-opacity="0.501961" fill="none" d="M 126.963298 140.744555 Q 119.470265 159.401908, 100.669268 150.892302" stroke-width="0.500000" />
<path stroke="#f2e5a3" stroke-opacity="0.501961" fill="none" d="M 84.336051 94.650915 Q 56.625071 105.444204, 24.141286 98.119626" stroke-width="0.500000" />
<path stroke="#796226" stroke-opacity="0.501961" fill="none" d="M 84.165354 122.125694 Q 95.028536 144.647658, 84.244595 153.258845" stroke-width="0.500000" />
<path stroke="#643c09" stroke-opacity="0.501961" fill="none" d="M 106.441981 100.890316 Q 104.888592 120.655677, 127.010829 118.014928" stroke-width="0.500000" />
<path stroke="#1b539f" stroke-opacity="0.501961" fill="none" d="M 184.095341 115.730931 Q 184.775205 145.838198, 144.116748 148.580882" stroke-width="0.500000" />
<path stroke="#bcbc9b" stroke-opacity="0.501961" fill="none" d="M 268.034731 47.218922 Q 259.529819 41.990145, 48.259657 49.321103" stroke-width="0.500000" />
<path stroke="#1c2737" stroke-opacity="0.501961" fill="none" d="M 56.251972 136.628299 Q 46.728000 199.750713, 89.442756 194.177890" stroke-width="0.500000" />
<path stroke="#c2b9a0" stroke-opacity="0.501961" fill="none" d="M 103.766648 104.082903 Q 86.674221 121.717656, -16.000000 105.504912" stroke-width="0.500000" />
<path stroke="#1559c7" stroke-opacity="0.501961" fill="none" d="M 251.622271 170.486426 Q 261.442252 188.798295, 247.387738 207.000000" stroke-width="0.500000" />
<path stroke="#fff9b1" stroke-opacity="0.501961" fill="none" d="M 10.086792 18.810165 Q 85.242364 6.674841, 100.305964 8.017262" stroke-width="0.500000" />
<path stroke="#ab7503" stroke-opacity="0.501961" fill="none" d="M 124.947895 112.999288 Q 143.042430 115.683545, 162.107835 107.542386" stroke-width="0.500000" />
<path stroke="#b8c4d1" stroke-opacity="0.501961" fill="none" d="M 141.873346 29.518553 Q 209.525448 18.264980, 271.000000 13.637302" stroke-width="0.500000" />
<path stroke="#e7d996" stroke-opacity="0.501961" fill="none" d="M 223.115431 67.632935 Q 172.676084 94.133997, 144.386168 80.565170" stroke-width="0.500000" />
<path stroke="#f5e6ac" stroke-opacity="0.501961" fill="none" d="M -12.476976 -1.121974 Q 209.908673 34.112590, 244.869335 -10.489512" stroke-width="0.500000" />
<path stroke="#272b2b" stroke-opacity="0.501961" fill="none" d="M 257.590582 137.402335 Q 237.602719 144.775431, 227.866877 116.933283" stroke-width="0.500000" />
<path stroke="#215eaa" stroke-opacity="0.501961" fill="none" d="M 169.581297 150.678988 Q 169.613861 177.456280, 222.341177 168.677071" stroke-width="0.500000" />
<path stroke="#262a29" stroke-opacity="0.501961" fill="none" d="M 99.378116 207.000000 Q 92.424325 152.642452, 86.574353 134.146656" stroke-width="0.500000" />
<path stroke="#414236" stroke-opacity="0.501961" fill="none" d="M 225.485533 114.386785 Q 243.204405 156.984018, 248.561105 207.000000" stroke-width="0.500000" />
<path stroke="#2e69ab" stroke-opacity="0.501961" fill="none" d="M 158.463444 146.872365 Q 149.680469 149.398041, 141.323229 120.803261" stroke-width="0.500000" />
<path stroke="#cabba6" stroke-opacity="0.501961" fill="none" d="M 80.387627 82.966330 Q 112.626293 94.562766, 93.819991 130.959897" stroke-width="0.500000" />
<path stroke="#485556" stroke-opacity="0.501961" fill="none" d="M 205.078374 114.594571 Q 255.697786 110.297080, 268.623101 103.287656" stroke-width="0.500000" />
<path stroke="#cca814" stroke-opacity="0.501961" fill="none" d="M 48.628343 108.588684 Q 79.437622 102.641239, 93.279344 108.288926" stroke-width="0.500000" />
<path stroke="#8a9243" stroke-opacity="0.501961" fill="none" d="M 143.686773 128.627348 Q 138.606688 153.533545, 128.770036 156.373769" stroke-width="0.500000" />
<path stroke="#b8b790" stroke-opacity="0.501961" fill="none" d="M 271.000000 29.197831 Q 178.079175 44.063955, 128.559870 43.716538" stroke-width="0.500000" />
<path stroke="#153773" stroke-opacity="0.501961" fill="none" d="M 122.763590 142.091032 Q 134.780602 170.887242, 57.499172 194.230855" stroke-width="0.500000" />
<path stroke="#cdb051" stroke-opacity="0.501961" fill="none" d="M 125.105122 89.261525 Q 52.817467 122.249093, 43.743400 125.591199" stroke-width="0.500000" />
<path stroke="#b5ad5f" stroke-opacity="0.501961" fill="none" d="M 189.252325 86.816564 Q 187.348636 87.827924, 139.027375 95.790103" stroke-width="0.500000" />
<path stroke="#1350ab" stroke-opacity="0.501961" fill="none" d="M -16.000000 177.778052 Q 4.450599 204.357944, 134.221676 189.261549" stroke-width="0.500000" />
<path stroke="#716146" stroke-opacity="0.501961" fill="none" d="M 126.190124 99.428707 Q 100.949072 94.865425, 102.891403 116.635621" stroke-width="0.500000" />
<path stroke="#97890b" stroke-opacity="0.501961" fill="none" d="M 159.492132 117.150293 Q 111.539955 136.369595, 114.233504 154.414362" stroke-width="0.500000" />
<path stroke="#4b4836" stroke-opacity="0.501961" fill="none" d="M 253.081764 207.000000 Q 232.723473 141.945250, 228.194176 114.875509" stroke-width="0.500000" />
<path stroke="#fceeb9" stroke-opacity="0.501961" fill="none" d="M 204.680604 28.518162 Q 258.636526 27.720262, 260.187558 27.764269" stroke-width="0.500000" />
<path stroke="#bec9c3" stroke-opacity="0.501961" fill="none" d="M 54.696504 128.971279 Q 29.496283 135.863167, 1.628627 143.825542" stroke-width="0.500000" />
<path stroke="#f9f1c0" stroke-opacity="0.501961" fill="none" d="M 62.629979 37.558750 Q 109.145868 47.947431, 114.905621 27.090982" stroke-width="0.500000" />
<path stroke="#d5ce9e" stroke-opacity="0.501961" fill="none" d="M -16.000000 103.217112 Q 205.983251 90.930162, 271.000000 48.888347" stroke-width="0.500000" />
<path stroke="#b5b490" stroke-opacity="0.501961" fill="none" d="M 258.559299 34.037508 Q 152.790098 44.518361, 116.426720 38.489660" stroke-width="0.500000" />
<path stroke="#c1a018" stroke-opacity="0.501961" fill="none" d="M 50.287571 131.487806 Q 88.259283 127.988573, 95.725312 119.132974" stroke-width="0.500000" />
<path stroke="#8c8d2c" stroke-opacity="0.501961" fill="none" d="M 58.008112 131.213364 Q 72.319572 146.301598, 84.885586 129.660567" stroke-width="0.500000" />
<path stroke="#ebd400" stroke-opacity="0.501961" fill="none" d="M 176.283354 116.101434 Q 172.479309 118.977835, 155.658181 117.417258" stroke-width="0.500000" />
<path stroke="#fce88c" stroke-opacity="0.501961" fill="none" d="M 138.555776 84.792942 Q 146.988222 78.834486, 172.187804 85.484244" stroke-width="0.500000" />
<path stroke="#c6cabc" stroke-opacity="0.501961" fill="none" d="M 74.836043 113.948100 Q 12.260902 116.216197, 17.451167 146.203545" stroke-width="0.500000" />
<path stroke="#c3c7b8" stroke-opacity="0.501961" fill="none" d="M 51.488366 83.115878 Q 105.812502 113.332204, 142.556082 68.443647" stroke-width="0.500000" />
<path stroke="#cf9400" stroke-opacity="0.501961" fill="none" d="M 97.567887 107.605896 Q 83.332217 105.138461, 65.698455 109.506094" stroke-width="0.500000" />
<path stroke="#b9c5d1" stroke-opacity="0.501961" fill="none" d="M 157.942294 25.266921 Q 271.000000 13.591125, 269.813511 1.106975" stroke-width="0.500000" />
<path stroke="#1f2630" stroke-opacity="0.501961" fill="none" d="M 56.170833 137.535364 Q 62.168034 191.404405, 74.231434 204.717388" stroke-width="0.500000" />
<path stroke="#99a44a" stroke-opacity="0.501961" fill="none" d="M 140.009007 151.693827 Q 129.091683 153.947679, 124.948152 141.445335" stroke-width="0.500000" />
<path stroke="#18201f" stroke-opacity="0.501961" fill="none" d="M 25.566387 192.573440 Q 13.673595 144.031316, 15.458862 142.591386" stroke-width="0.500000" />
<path stroke="#212a30" stroke-opacity="0.501961" fill="none" d="M 57.206072 136.090833 Q 60.098340 207.000000, 66.657123 207.000000" stroke-width="0.500000" />
<path stroke="#f9f2cd" stroke-opacity="0.501961" fill="none" d="M 4.170632 9.984591 Q 50.326788 -5.839555, 147.066152 3.071801" stroke-width="0.500000" />
<path stroke="#195aae" stroke-opacity="0.501961" fill="none" d="M 152.132442 122.439624 Q 161.003297 140.234844, 150.390865 148.228287" stroke-width="0.500000" />
<path stroke="#fff9bd" stroke-opacity="0.501961" fill="none" d="M -9.936206 18.226501 Q 193.578808 -4.040444, 197.051124 -16.000000" stroke-width="0.500000" />
</g>
</svg>