<svg xmlns="http://www.w3.org/2000/svg" version="1.1" width="1024" height="768">
<rect x="0" y="0" width="1024" height="768" fill="#929d99" />
<g transform="scale(4.000000) translate(0.5 0.5)">
<g transform="translate(131 168) rotate(-8) scale(255 84)"><rect fill="#00005a" fill-opacity="0.501961" x="-0.5" y="-0.5" width="1" height="1" /></g>
<g transform="translate(128 45) rotate(359) scale(255 118)"><rect fill="#fffdd0" fill-opacity="0.501961" x="-0.5" y="-0.5" width="1" height="1" /></g>
<g transform="translate(119 116) rotate(295) scale(54 68)"><rect fill="#c09200" fill-opacity="0.501961" x="-0.5" y="-0.5" width="1" height="1" /></g>
<g transform="translate(119 171) rotate(1) scale(255 51)"><rect fill="#00437e" fill-opacity="0.501961" x="-0.5" y="-0.5" width="1" height="1" /></g>
<g transform="translate(37 120) rotate(263) scale(39 100)"><rect fill="#f3de8d" fill-opacity="0.501961" x="-0.5" y="-0.5" width="1" height="1" /></g>
<g transform="translate(117 109) rotate(346) scale(22 21)"><rect fill="#2b1b06" fill-opacity="0.501961" x="-0.5" y="-0.5" width="1" height="1" /></g>
<g transform="translate(202 132) rotate(351) scale(113 32)"><rect fill="#044788" fill-opacity="0.501961" x="-0.5" y="-0.5" width="1" height="1" /></g>
<g transform="translate(166 103) rotate(438) scale(34 44)"><rect fill="#d8b944" fill-opacity="0.501961" x="-0.5" y="-0.5" width="1" height="1" /></g>
<g transform="translate(60 0) rotate(171) scale(203 33)"><rect fill="#ffffbb" fill-opacity="0.501961" x="-0.5" y="-0.5" width="1" height="1" /></g>
<g transform="translate(119 177) rotate(155) scale(42 59)"><rect fill="#1d2331" fill-opacity="0.501961" x="-0.5" y="-0.5" width="1" height="1" /></g>
<g transform="translate(122 138) rotate(92) scale(27 33)"><rect fill="#b5a90a" fill-opacity="0.501961" x="-0.5" y="-0.5" width="1" height="1" /></g>
<g transform="translate(74 162) rotate(82) scale(51 22)"><rect fill="#2b7ace" fill-opacity="0.501961" x="-0.5" y="-0.5" width="1" height="1" /></g>
<g transform="translate(73 117) rotate(23) scale(26 43)"><rect fill="#cfae32" fill-opacity="0.501961" x="-0.5" y="-0.5" width="1" height="1" /></g>
<g transform="translate(50 166) rotate(172) scale(74 6)"><rect fill="#221a07" fill-opacity="0.501961" x="-0.5" y="-0.5" width="1" height="1" /></g>
<g transform="translate(18 101) rotate(445) scale(78 43)"><rect fill="#cfd4d4" fill-opacity="0.501961" x="-0.5" y="-0.5" width="1" height="1" /></g>
<g transform="translate(224 91) rotate(352) scale(94 41)"><rect fill="#c2c9c7" fill-opacity="0.501961" x="-0.5" y="-0.5" width="1" height="1" /></g>
<g transform="translate(185 162) rotate(264) scale(22 25)"><rect fill="#2881ee" fill-opacity="0.501961" x="-0.5" y="-0.5" width="1" height="1" /></g>
<g transform="translate(221 156) rotate(346) scale(24 84)"><rect fill="#266cc2" fill-opacity="0.501961" x="-0.5" y="-0.5" width="1" height="1" /></g>
<g transform="translate(255 151) rotate(168) scale(26 23)"><rect fill="#238dfb" fill-opacity="0.501961" x="-0.5" y="-0.5" width="1" height="1" /></g>
<g transform="translate(189 177) rotate(351) scale(128 6)"><rect fill="#2d1f00" fill-opacity="0.501961" x="-0.5" y="-0.5" width="1" height="1" /></g>
<g transform="translate(150 167) rotate(261) scale(21 25)"><rect fill="#1b71e6" fill-opacity="0.501961" x="-0.5" y="-0.5" width="1" height="1" /></g>
<g transform="translate(100 81) rotate(158) scale(40 30)"><rect fill="#d2d7d0" fill-opacity="0.501961" x="-0.5" y="-0.5" width="1" height="1" /></g>
<g transform="translate(205 144) rotate(81) scale(5 164)"><rect fill="#362400" fill-opacity="0.501961" x="-0.5" y="-0.5" width="1" height="1" /></g>
<g transform="translate(44 186) rotate(268) scale(30 25)"><rect fill="#166bd8" fill-opacity="0.501961" x="-0.5" y="-0.5" width="1" height="1" /></g>
<g transform="translate(22 169) rotate(79) scale(48 5)"><rect fill="#2b1d00" fill-opacity="0.501961" x="-0.5" y="-0.5" width="1" height="1" /></g>
<g transform="translate(248 122) rotate(-9) scale(21 21)"><rect fill="#1972eb" fill-opacity="0.501961" x="-0.5" y="-0.5" width="1" height="1" /></g>
<g transform="translate(11 50) rotate(254) scale(48 52)"><rect fill="#e4dfd5" fill-opacity="0.501961" x="-0.5" y="-0.5" width="1" height="1" /></g>
<g transform="translate(167 159) rotate(257) scale(85 5)"><rect fill="#3d2d00" fill-opacity="0.501961" x="-0.5" y="-0.5" width="1" height="1" /></g>
<g transform="translate(218 65) rotate(263) scale(58 108)"><rect fill="#b3bab7" fill-opacity="0.501961" x="-0.5" y="-0.5" width="1" height="1" /></g>
<g transform="translate(5 157) rotate(347) scale(19 22)"><rect fill="#196ee5" fill-opacity="0.501961" x="-0.5" y="-0.5" width="1" height="1" /></g>
<g transform="translate(61 178) rotate(347) scale(7 66)"><rect fill="#211d0e" fill-opacity="0.501961" x="-0.5" y="-0.5" width="1" height="1" /></g>
<g transform="translate(238 154) rotate(76) scale(83 6)"><rect fill="#342b0e" fill-opacity="0.501961" x="-0.5" y="-0.5" width="1" height="1" /></g>
<g transform="translate(149 136) rotate(83) scale(25 11)"><rect fill="#1660d0" fill-opacity="0.501961" x="-0.5" y="-0.5" width="1" height="1" /></g>
<g transform="translate(208 5) rotate(173) scale(155 12)"><rect fill="#f6dfa4" fill-opacity="0.501961" x="-0.5" y="-0.5" width="1" height="1" /></g>
<g transform="translate(40 153) rotate(263) scale(24 26)"><rect fill="#0a48b2" fill-opacity="0.501961" x="-0.5" y="-0.5" width="1" height="1" /></g>
<g transform="translate(0 188) rotate(346) scale(42 19)"><rect fill="#1163d4" fill-opacity="0.501961" x="-0.5" y="-0.5" width="1" height="1" /></g>
<g transform="translate(92 150) rotate(76) scale(40 6)"><rect fill="#2c2a09" fill-opacity="0.501961" x="-0.5" y="-0.5" width="1" height="1" /></g>
<g transform="translate(208 176) rotate(165) scale(6 123)"><rect fill="#392e11" fill-opacity="0.501961" x="-0.5" y="-0.5" width="1" height="1" /></g>
<g transform="translate(171 112) rotate(349) scale(35 13)"><rect fill="#e2c434" fill-opacity="0.501961" x="-0.5" y="-0.5" width="1" height="1" /></g>
<g transform="translate(136 95) rotate(365) scale(68 18)"><rect fill="#c4b778" fill-opacity="0.501961" x="-0.5" y="-0.5" width="1" height="1" /></g>
<g transform="translate(97 140) rotate(272) scale(18 9)"><rect fill="#003aa8" fill-opacity="0.501961" x="-0.5" y="-0.5" width="1" height="1" /></g>
<g transform="translate(123 147) rotate(96) scale(9 7)"><rect fill="#0346c7" fill-opacity="0.501961" x="-0.5" y="-0.5" width="1" height="1" /></g>
<g transform="translate(88 191) rotate(172) scale(77 4)"><rect fill="#251e03" fill-opacity="0.501961" x="-0.5" y="-0.5" width="1" height="1" /></g>
<g transform="translate(82 107) rotate(269) scale(5 29)"><rect fill="#d48f00" fill-opacity="0.501961" x="-0.5" y="-0.5" width="1" height="1" /></g>
<g transform="translate(116 173) rotate(260) scale(19 27)"><rect fill="#0b3293" fill-opacity="0.501961" x="-0.5" y="-0.5" width="1" height="1" /></g>
<g transform="translate(53 131) rotate(60) scale(15 13)"><rect fill="#878544" fill-opacity="0.501961" x="-0.5" y="-0.5" width="1" height="1" /></g>
<g transform="translate(89 121) rotate(257) scale(23 23)"><rect fill="#c9a360" fill-opacity="0.501961" x="-0.5" y="-0.5" width="1" height="1" /></g>
<g transform="translate(0 173) rotate(349) scale(32 6)"><rect fill="#1a1401" fill-opacity="0.501961" x="-0.5" y="-0.5" width="1" height="1" /></g>
<g transform="translate(82 172) rotate(360) scale(22 17)"><rect fill="#256fcf" fill-opacity="0.501961" x="-0.5" y="-0.5" width="1" height="1" /></g>
<g transform="translate(118 127) rotate(171) scale(23 18)"><rect fill="#b58200" fill-opacity="0.501961" x="-0.5" y="-0.5" width="1" height="1" /></g>
<g transform="translate(255 181) rotate(257) scale(22 10)"><rect fill="#0055ca" fill-opacity="0.501961" x="-0.5" y="-0.5" width="1" height="1" /></g>
<g transform="translate(191 191) rotate(81) scale(23 24)"><rect fill="#1156bf" fill-opacity="0.501961" x="-0.5" y="-0.5" width="1" height="1" /></g>
<g transform="translate(73 147) rotate(157) scale(30 15)"><rect fill="#2670c9" fill-opacity="0.501961" x="-0.5" y="-0.5" width="1" height="1" /></g>
<g transform="translate(112 70) rotate(85) scale(29 150)"><rect fill="#c5cccd" fill-opacity="0.501961" x="-0.5" y="-0.5" width="1" height="1" /></g>
<g transform="translate(66 3) rotate(263) scale(18 137)"><rect fill="#fff5be" fill-opacity="0.501961" x="-0.5" y="-0.5" width="1" height="1" /></g>
<g transform="translate(161 120) rotate(350) scale(32 3)"><rect fill="#9b8200" fill-opacity="0.501961" x="-0.5" y="-0.5" width="1" height="1" /></g>
<g transform="translate(103 35) rotate(260) scale(8 77)"><rect fill="#f4e6b2" fill-opacity="0.501961" x="-0.5" y="-0.5" width="1" height="1" /></g>
<g transform="translate(229 188) rotate(75) scale(18 28)"><rect fill="#216ed3" fill-opacity="0.501961" x="-0.5" y="-0.5" width="1" height="1" /></g>
<g transform="translate(229 96) rotate(262) scale(28 66)"><rect fill="#c7cdc5" fill-opacity="0.501961" x="-0.5" y="-0.5" width="1" height="1" /></g>
<g transform="translate(213 42) rotate(175) scale(94 14)"><rect fill="#b7b697" fill-opacity="0.501961" x="-0.5" y="-0.5" width="1" height="1" /></g>
<g transform="translate(62 116) rotate(112) scale(14 27)"><rect fill="#dad19c" fill-opacity="0.501961" x="-0.5" y="-0.5" width="1" height="1" /></g>
<g transform="translate(135 146) rotate(141) scale(14 16)"><rect fill="#9a9a40" fill-opacity="0.501961" x="-0.5" y="-0.5" width="1" height="1" /></g>
<g transform="translate(122 191) rotate(174) scale(26 4)"><rect fill="#1c62bf" fill-opacity="0.501961" x="-0.5" y="-0.5" width="1" height="1" /></g>
<g transform="translate(181 119) rotate(260) scale(1 71)"><rect fill="#273a41" fill-opacity="0.501961" x="-0.5" y="-0.5" width="1" height="1" /></g>
<g transform="translate(158 84) rotate(174) scale(70 5)"><rect fill="#e5d485" fill-opacity="0.501961" x="-0.5" y="-0.5" width="1" height="1" /></g>
<g transform="translate(118 112) rotate(-32) scale(26 16)"><rect fill="#644916" fill-opacity="0.501961" x="-0.5" y="-0.5" width="1" height="1" /></g>
<g transform="translate(83 125) rotate(70) scale(4 18)"><rect fill="#bc9000" fill-opacity="0.501961" x="-0.5" y="-0.5" width="1" height="1" /></g>
<g transform="translate(116 48) rotate(172) scale(99 20)"><rect fill="#bebea7" fill-opacity="0.501961" x="-0.5" y="-0.5" width="1" height="1" /></g>
<g transform="translate(133 169) rotate(77) scale(24 5)"><rect fill="#242106" fill-opacity="0.501961" x="-0.5" y="-0.5" width="1" height="1" /></g>
<g transform="translate(221 160) rotate(76) scale(13 27)"><rect fill="#2870ca" fill-opacity="0.501961" x="-0.5" y="-0.5" width="1" height="1" /></g>
<g transform="translate(213 127) rotate(180) scale(24 23)"><rect fill="#2769c1" fill-opacity="0.501961" x="-0.5" y="-0.5" width="1" height="1" /></g>
<g transform="translate(177 132) rotate(164) scale(23 19)"><rect fill="#1852ac" fill-opacity="0.501961" x="-0.5" y="-0.5" width="1" height="1" /></g>
<g transform="translate(255 15) rotate(-59) scale(26 46)"><rect fill="#c9cac6" fill-opacity="0.501961" x="-0.5" y="-0.5" width="1" height="1" /></g>
<g transform="translate(54 144) rotate(183) scale(7 11)"><rect fill="#172423" fill-opacity="0.501961" x="-0.5" y="-0.5" width="1" height="1" /></g>
<g transform="translate(97 171) rotate(168) scale(7 64)"><rect fill="#232a2c" fill-opacity="0.501961" x="-0.5" y="-0.5" width="1" height="1" /></g>
<g transform="translate(103 146) rotate(63) scale(19 4)"><rect fill="#145dbd" fill-opacity="0.501961" x="-0.5" y="-0.5" width="1" height="1" /></g>
<g transform="translate(111 145) rotate(70) scale(14 9)"><rect fill="#9b9b2d" fill-opacity="0.501961" x="-0.5" y="-0.5" width="1" height="1" /></g>
<g transform="translate(184 106) rotate(191) scale(24 19)"><rect fill="#cbc58c" fill-opacity="0.501961" x="-0.5" y="-0.5" width="1" height="1" /></g>
<g transform="translate(78 134) rotate(65) scale(4 22)"><rect fill="#8a9022" fill-opacity="0.501961" x="-0.5" y="-0.5" width="1" height="1" /></g>
<g transform="translate(165 118) rotate(-5) scale(19 4)"><rect fill="#e9cd00" fill-opacity="0.501961" x="-0.5" y="-0.5" width="1" height="1" /></g>
<g transform="translate(196 32) rotate(352) scale(76 2)"><rect fill="#ffe9a5" fill-opacity="0.501961" x="-0.5" y="-0.5" width="1" height="1" /></g>
<g transform="translate(49 127) rotate(167) scale(7 3)"><rect fill="#1a274b" fill-opacity="0.501961" x="-0.5" y="-0.5" width="1" height="1" /></g>
<g transform="translate(92 112) rotate(181) scale(19 7)"><rect fill="#c7ad9c" fill-opacity="0.501961" x="-0.5" y="-0.5" width="1" height="1" /></g>
<g transform="translate(168 167) rotate(254) scale(35 7)"><rect fill="#222c37" fill-opacity="0.501961" x="-0.5" y="-0.5" width="1" height="1" /></g>
<g transform="translate(12 127) rotate(347) scale(49 7)"><rect fill="#efe6c3" fill-opacity="0.501961" x="-0.5" y="-0.5" width="1" height="1" /></g>
<g transform="translate(57 29) rotate(177) scale(71 20)"><rect fill="#d0cfc5" fill-opacity="0.501961" x="-0.5" y="-0.5" width="1" height="1" /></g>
<g transform="translate(115 102) rotate(263) scale(7 17)"><rect fill="#5c6f59" fill-opacity="0.501961" x="-0.5" y="-0.5" width="1" height="1" /></g>
<g transform="translate(240 170) rotate(81) scale(5 73)"><rect fill="#27323b" fill-opacity="0.501961" x="-0.5" y="-0.5" width="1" height="1" /></g>
<g transform="translate(26 131) rotate(53) scale(11 33)"><rect fill="#bdc2ae" fill-opacity="0.501961" x="-0.5" y="-0.5" width="1" height="1" /></g>
<g transform="translate(147 116) rotate(250) scale(7 44)"><rect fill="#ce9f5b" fill-opacity="0.501961" x="-0.5" y="-0.5" width="1" height="1" /></g>
<g transform="translate(88 154) rotate(352) scale(5 14)"><rect fill="#4b402e" fill-opacity="0.501961" x="-0.5" y="-0.5" width="1" height="1" /></g>
<g transform="translate(124 126) rotate(282) scale(12 38)"><rect fill="#b5931a" fill-opacity="0.501961" x="-0.5" y="-0.5" width="1" height="1" /></g>
<g transform="translate(99 142) rotate(163) scale(8 24)"><rect fill="#14499c" fill-opacity="0.501961" x="-0.5" y="-0.5" width="1" height="1" /></g>
<g transform="translate(156 191) rotate(175) scale(27 10)"><rect fill="#0941ac" fill-opacity="0.501961" x="-0.5" y="-0.5" width="1" height="1" /></g>
<g transform="translate(147 112) rotate(257) scale(2 45)"><rect fill="#b88313" fill-opacity="0.501961" x="-0.5" y="-0.5" width="1" height="1" /></g>
<g transform="translate(248 182) rotate(76) scale(23 2)"><rect fill="#122633" fill-opacity="0.501961" x="-0.5" y="-0.5" width="1" height="1" /></g>
<g transform="translate(245 91) rotate(337) scale(54 25)"><rect fill="#c1cac6" fill-opacity="0.501961" x="-0.5" y="-0.5" width="1" height="1" /></g>
<g transform="translate(1 103) rotate(198) scale(98 11)"><rect fill="#bdc3b9" fill-opacity="0.501961" x="-0.5" y="-0.5" width="1" height="1" /></g>
<g transform="translate(112 158) rotate(353) scale(107 3)"><rect fill="#2b3027" fill-opacity="0.501961" x="-0.5" y="-0.5" width="1" height="1" /></g>
<g transform="translate(74 107) rotate(182) scale(22 6)"><rect fill="#cea500" fill-opacity="0.501961" x="-0.5" y="-0.5" width="1" height="1" /></g>
<g transform="translate(30 100) rotate(178) scale(28 4)"><rect fill="#fce897" fill-opacity="0.501961" x="-0.5" y="-0.5" width="1" height="1" /></g>
<g transform="translate(103 87) rotate(165) scale(16 6)"><rect fill="#d6c842" fill-opacity="0.501961" x="-0.5" y="-0.5" width="1" height="1" /></g>
<g transform="translate(61 140) rotate(246) scale(7 10)"><rect fill="#0950a7" fill-opacity="0.501961" x="-0.5" y="-0.5" width="1" height="1" /></g>
<g transform="translate(64 103) rotate(323) scale(32 8)"><rect fill="#d3ce7a" fill-opacity="0.501961" x="-0.5" y="-0.5" width="1" height="1" /></g>
<g transform="translate(183 162) rotate(-12) scale(20 26)"><rect fill="#2766b9" fill-opacity="0.501961" x="-0.5" y="-0.5" width="1" height="1" /></g>
<g transform="translate(121 150) rotate(227) scale(6 10)"><rect fill="#11479d" fill-opacity="0.501961" x="-0.5" y="-0.5" width="1" height="1" /></g>
<g transform="translate(148 165) rotate(80) scale(21 16)"><rect fill="#256ac1" fill-opacity="0.501961" x="-0.5" y="-0.5" width="1" height="1" /></g>
<g transform="translate(20 160) rotate(354) scale(9 31)"><rect fill="#252f35" fill-opacity="0.501961" x="-0.5" y="-0.5" width="1" height="1" /></g>
<g transform="translate(152 135) rotate(168) scale(10 23)"><rect fill="#245bad" fill-opacity="0.501961" x="-0.5" y="-0.5" width="1" height="1" /></g>
<g transform="translate(174 95) rotate(73) scale(7 28)"><rect fill="#afb7b1" fill-opacity="0.501961" x="-0.5" y="-0.5" width="1" height="1" /></g>
<g transform="translate(76 13) rotate(350) scale(55 5)"><rect fill="#f2db9b" fill-opacity="0.501961" x="-0.5" y="-0.5" width="1" height="1" /></g>
<g transform="translate(120 74) rotate(322) scale(19 26)"><rect fill="#bec7c6" fill-opacity="0.501961" x="-0.5" y="-0.5" width="1" height="1" /></g>
<g transform="translate(245 71) rotate(-13) scale(41 29)"><rect fill="#bbc8ce" fill-opacity="0.501961" x="-0.5" y="-0.5" width="1" height="1" /></g>
<g transform="translate(48 131) rotate(71) scale(1 70)"><rect fill="#c4c5b5" fill-opacity="0.501961" x="-0.5" y="-0.5" width="1" height="1" /></g>
<g transform="translate(83 78) rotate(15) scale(32 33)"><rect fill="#d2d4c4" fill-opacity="0.501961" x="-0.5" y="-0.5" width="1" height="1" /></g>
<g transform="translate(149 88) rotate(342) scale(22 5)"><rect fill="#c4c9c3" fill-opacity="0.501961" x="-0.5" y="-0.5" width="1" height="1" /></g>
<g transform="translate(76 177) rotate(350) scale(24 25)"><rect fill="#2060b6" fill-opacity="0.501961" x="-0.5" y="-0.5" width="1" height="1" /></g>
<g transform="translate(227 19) rotate(348) scale(65 8)"><rect fill="#bec6cf" fill-opacity="0.501961" x="-0.5" y="-0.5" width="1" height="1" /></g>
<g transform="translate(245 141) rotate(77) scale(1 64)"><rect fill="#10468e" fill-opacity="0.501961" x="-0.5" y="-0.5" width="1" height="1" /></g>
<g transform="translate(255 28) rotate(189) scale(57 5)"><rect fill="#ead8a5" fill-opacity="0.501961" x="-0.5" y="-0.5" width="1" height="1" /></g>
<g transform="translate(27 142) rotate(79) scale(1 44)"><rect fill="#1f3e55" fill-opacity="0.501961" x="-0.5" y="-0.5" width="1" height="1" /></g>
<g transform="translate(67 130) rotate(165) scale(40 2)"><rect fill="#c5ad1e" fill-opacity="0.501961" x="-0.5" y="-0.5" width="1" height="1" /></g>
<g transform="translate(17 129) rotate(263) scale(30 2)"><rect fill="#c7ccba" fill-opacity="0.501961" x="-0.5" y="-0.5" width="1" height="1" /></g>
<g transform="translate(100 105) rotate(396) scale(6 12)"><rect fill="#dbb974" fill-opacity="0.501961" x="-0.5" y="-0.5" width="1" height="1" /></g>
<g transform="translate(133 9) rotate(351) scale(101 8)"><rect fill="#d4ceb6" fill-opacity="0.501961" x="-0.5" y="-0.5" width="1" height="1" /></g>
<g transform="translate(161 180) rotate(160) scale(34 6)"><rect fill="#1f2a35" fill-opacity="0.501961" x="-0.5" y="-0.5" width="1" height="1" /></g>
<g transform="translate(175 108) rotate(22) scale(32 1)"><rect fill="#cfbc3c" fill-opacity="0.501961" x="-0.5" y="-0.5" width="1" height="1" /></g>
<g transform="translate(125 24) rotate(183) scale(97 15)"><rect fill="#c9c8bc" fill-opacity="0.501961" x="-0.5" y="-0.5" width="1" height="1" /></g>
<g transform="translate(142 99) rotate(84) scale(12 24)"><rect fill="#c4a86c" fill-opacity="0.501961" x="-0.5" y="-0.5" width="1" height="1" /></g>
<g transform="translate(236 140) rotate(219) scale(7 15)"><rect fill="#2c3535" fill-opacity="0.501961" x="-0.5" y="-0.5" width="1" height="1" /></g>
<g transform="translate(58 42) rotate(-1) scale(23 2)"><rect fill="#fffdb4" fill-opacity="0.501961" x="-0.5" y="-0.5" width="1" height="1" /></g>
<g transform="translate(53 121) rotate(80) scale(5 19)"><rect fill="#d4c262" fill-opacity="0.501961" x="-0.5" y="-0.5" width="1" height="1" /></g>
<g transform="translate(50 108) rotate(154) scale(6 3)"><rect fill="#c0b218" fill-opacity="0.501961" x="-0.5" y="-0.5" width="1" height="1" /></g>
<g transform="translate(160 122) rotate(80) scale(1 26)"><rect fill="#544700" fill-opacity="0.501961" x="-0.5" y="-0.5" width="1" height="1" /></g>
<g transform="translate(158 14) rotate(4) scale(26 8)"><rect fill="#f3e094" fill-opacity="0.501961" x="-0.5" y="-0.5" width="1" height="1" /></g>
<g transform="translate(133 119) rotate(269) scale(9 8)"><rect fill="#c09e7d" fill-opacity="0.501961" x="-0.5" y="-0.5" width="1" height="1" /></g>
<g transform="translate(55 114) rotate(183) scale(30 3)"><rect fill="#c5c9c6" fill-opacity="0.501961" x="-0.5" y="-0.5" width="1" height="1" /></g>
<g transform="translate(74 153) rotate(181) scale(18 11)"><rect fill="#3978c6" fill-opacity="0.501961" x="-0.5" y="-0.5" width="1" height="1" /></g>
<g transform="translate(216 71) rotate(74) scale(3 31)"><rect fill="#d8ca94" fill-opacity="0.501961" x="-0.5" y="-0.5" width="1" height="1" /></g>
<g transform="translate(2 52) rotate(254) scale(15 45)"><rect fill="#e7e3d1" fill-opacity="0.501961" x="-0.5" y="-0.5" width="1" height="1" /></g>
<g transform="translate(134 87) rotate(159) scale(38 5)"><rect fill="#d8ca79" fill-opacity="0.501961" x="-0.5" y="-0.5" width="1" height="1" /></g>
<g transform="translate(32 135) rotate(264) scale(10 27)"><rect fill="#afb8aa" fill-opacity="0.501961" x="-0.5" y="-0.5" width="1" height="1" /></g>
<g transform="translate(216 143) rotate(261) scale(4 36)"><rect fill="#2c302e" fill-opacity="0.501961" x="-0.5" y="-0.5" width="1" height="1" /></g>
<g transform="translate(17 81) rotate(360) scale(90 33)"><rect fill="#c9cdc3" fill-opacity="0.501961" x="-0.5" y="-0.5" width="1" height="1" /></g>
<g transform="translate(86 94) rotate(181) scale(21 10)"><rect fill="#cacbb7" fill-opacity="0.501961" x="-0.5" y="-0.5" width="1" height="1" /></g>
<g transform="translate(65 47) rotate(-4) scale(38 4)"><rect fill="#b8b591" fill-opacity="0.501961" x="-0.5" y="-0.5" width="1" height="1" /></g>
<g transform="translate(109 139) rotate(332) scale(7 21)"><rect fill="#8e922e" fill-opacity="0.501961" x="-0.5" y="-0.5" width="1" height="1" /></g>
<g transform="translate(196 159) rotate(69) scale(24 3)"><rect fill="#1a58b2" fill-opacity="0.501961" x="-0.5" y="-0.5" width="1" height="1" /></g>
<g transform="translate(69 132) rotate(172) scale(21 4)"><rect fill="#d1c885" fill-opacity="0.501961" x="-0.5" y="-0.5" width="1" height="1" /></g>
<g transform="translate(1 190) rotate(272) scale(28 36)"><rect fill="#1d5bad" fill-opacity="0.501961" x="-0.5" y="-0.5" width="1" height="1" /></g>
<g transform="translate(161 71) rotate(351) scale(81 13)"><rect fill="#bac5c6" fill-opacity="0.501961" x="-0.5" y="-0.5" width="1" height="1" /></g>
<g transform="translate(109 36) rotate(68) scale(3 21)"><rect fill="#ffffc8" fill-opacity="0.501961" x="-0.5" y="-0.5" width="1" height="1" /></g>
<g transform="translate(167 171) rotate(258) scale(94 1)"><rect fill="#1f262c" fill-opacity="0.501961" x="-0.5" y="-0.5" width="1" height="1" /></g>
<g transform="translate(52 102) rotate(265) scale(5 34)"><rect fill="#d8d6bd" fill-opacity="0.501961" x="-0.5" y="-0.5" width="1" height="1" /></g>
<g transform="translate(156 108) rotate(94) scale(1 44)"><rect fill="#c49b0c" fill-opacity="0.501961" x="-0.5" y="-0.5" width="1" height="1" /></g>
<g transform="translate(157 92) rotate(168) scale(25 2)"><rect fill="#c7b93e" fill-opacity="0.501961" x="-0.5" y="-0.5" width="1" height="1" /></g>
<g transform="translate(232 49) rotate(262) scale(12 113)"><rect fill="#b7bbad" fill-opacity="0.501961" x="-0.5" y="-0.5" width="1" height="1" /></g>
<g transform="translate(112 111) rotate(181) scale(19 10)"><rect fill="#564819" fill-opacity="0.501961" x="-0.5" y="-0.5" width="1" height="1" /></g>
<g transform="translate(165 104) rotate(177) scale(32 4)"><rect fill="#e5cc6f" fill-opacity="0.501961" x="-0.5" y="-0.5" width="1" height="1" /></g>
<g transform="translate(148 34) rotate(176) scale(71 1)"><rect fill="#f7e29e" fill-opacity="0.501961" x="-0.5" y="-0.5" width="1" height="1" /></g>
<g transform="translate(44 182) rotate(80) scale(22 27)"><rect fill="#1c5aac" fill-opacity="0.501961" x="-0.5" y="-0.5" width="1" height="1" /></g>
<g transform="translate(14 155) rotate(355) scale(2 26)"><rect fill="#0f3884" fill-opacity="0.501961" x="-0.5" y="-0.5" width="1" height="1" /></g>
<g transform="translate(161 165) rotate(163) scale(4 25)"><rect fill="#0e388b" fill-opacity="0.501961" x="-0.5" y="-0.5" width="1" height="1" /></g>
<g transform="translate(251 164) rotate(-9) scale(18 3)"><rect fill="#09438c" fill-opacity="0.501961" x="-0.5" y="-0.5" width="1" height="1" /></g>
<g transform="translate(124 154) rotate(148) scale(14 5)"><rect fill="#242f3b" fill-opacity="0.501961" x="-0.5" y="-0.5" width="1" height="1" /></g>
<g transform="translate(209 184) rotate(350) scale(8 36)"><rect fill="#2c363e" fill-opacity="0.501961" x="-0.5" y="-0.5" width="1" height="1" /></g>
<g transform="translate(185 126) rotate(167) scale(15 19)"><rect fill="#1e4c94" fill-opacity="0.501961" x="-0.5" y="-0.5" width="1" height="1" /></g>
<g transform="translate(140 137) rotate(178) scale(5 26)"><rect fill="#95a03f" fill-opacity="0.501961" x="-0.5" y="-0.5" width="1" height="1" /></g>
<g transform="translate(230 113) rotate(71) scale(1 12)"><rect fill="#524f2f" fill-opacity="0.501961" x="-0.5" y="-0.5" width="1" height="1" /></g>
<g transform="translate(170 111) rotate(260) scale(6 31)"><rect fill="#cabb6a" fill-opacity="0.501961" x="-0.5" y="-0.5" width="1" height="1" /></g>
<g transform="translate(127 132) rotate(158) scale(22 9)"><rect fill="#a79100" fill-opacity="0.501961" x="-0.5" y="-0.5" width="1" height="1" /></g>
<g transform="translate(152 118) rotate(201) scale(15 1)"><rect fill="#c59c00" fill-opacity="0.501961" x="-0.5" y="-0.5" width="1" height="1" /></g>
<g transform="translate(56 144) rotate(276) scale(17 1)"><rect fill="#232927" fill-opacity="0.501961" x="-0.5" y="-0.5" width="1" height="1" /></g>
<g transform="translate(218 150) rotate(257) scale(5 25)"><rect fill="#1d5eba" fill-opacity="0.501961" x="-0.5" y="-0.5" width="1" height="1" /></g>
<g transform="translate(138 191) rotate(264) scale(28 8)"><rect fill="#2b322f" fill-opacity="0.501961" x="-0.5" y="-0.5" width="1" height="1" /></g>
<g transform="translate(86 123) rotate(341) scale(28 1)"><rect fill="#c19100" fill-opacity="0.501961" x="-0.5" y="-0.5" width="1" height="1" /></g>
<g transform="translate(153 82) rotate(265) scale(5 7)"><rect fill="#fff7a6" fill-opacity="0.501961" x="-0.5" y="-0.5" width="1" height="1" /></g>
<g transform="translate(25 126) rotate(266) scale(4 32)"><rect fill="#ede2b7" fill-opacity="0.501961" x="-0.5" y="-0.5" width="1" height="1" /></g>
<g transform="translate(102 150) rotate(215) scale(7 12)"><rect fill="#1f53a6" fill-opacity="0.501961" x="-0.5" y="-0.5" width="1" height="1" /></g>
<g transform="translate(77 141) rotate(-18) scale(19 5)"><rect fill="#1c60ae" fill-opacity="0.501961" x="-0.5" y="-0.5" width="1" height="1" /></g>
<g transform="translate(91 129) rotate(85) scale(4 32)"><rect fill="#c5b467" fill-opacity="0.501961" x="-0.5" y="-0.5" width="1" height="1" /></g>
<g transform="translate(133 41) rotate(180) scale(56 5)"><rect fill="#b9ba97" fill-opacity="0.501961" x="-0.5" y="-0.5" width="1" height="1" /></g>
<g transform="translate(248 122) rotate(260) scale(21 25)"><rect fill="#2160b9" fill-opacity="0.501961" x="-0.5" y="-0.5" width="1" height="1" /></g>
<g transform="translate(131 114) rotate(147) scale(18 4)"><rect fill="#915b1c" fill-opacity="0.501961" x="-0.5" y="-0.5" width="1" height="1" /></g>
<g transform="translate(244 177) rotate(165) scale(1 129)"><rect fill="#4c4d41" fill-opacity="0.501961" x="-0.5" y="-0.5" width="1" height="1" /></g>
<g transform="translate(130 146) rotate(45) scale(24 5)"><rect fill="#8e8937" fill-opacity="0.501961" x="-0.5" y="-0.5" width="1" height="1" /></g>
<g transform="translate(89 102) rotate(85) scale(4 19)"><rect fill="#e4c450" fill-opacity="0.501961" x="-0.5" y="-0.5" width="1" height="1" /></g>
<g transform="translate(202 106) rotate(359) scale(21 16)"><rect fill="#c3c3ac" fill-opacity="0.501961" x="-0.5" y="-0.5" width="1" height="1" /></g>
<g transform="translate(9 138) rotate(262) scale(8 25)"><rect fill="#b4bdb5" fill-opacity="0.501961" x="-0.5" y="-0.5" width="1" height="1" /></g>
<g transform="translate(178 90) rotate(249) scale(4 43)"><rect fill="#b4b495" fill-opacity="0.501961" x="-0.5" y="-0.5" width="1" height="1" /></g>
<g transform="translate(0 156) rotate(134) scale(12 24)"><rect fill="#276dc3" fill-opacity="0.501961" x="-0.5" y="-0.5" width="1" height="1" /></g>
<g transform="translate(150 139) rotate(277) scale(18 10)"><rect fill="#2661ad" fill-opacity="0.501961" x="-0.5" y="-0.5" width="1" height="1" /></g>
<g transform="translate(221 172) rotate(261) scale(2 148)"><rect fill="#34362c" fill-opacity="0.501961" x="-0.5" y="-0.5" width="1" height="1" /></g>
<g transform="translate(223 127) rotate(166) scale(9 16)"><rect fill="#2c70c2" fill-opacity="0.501961" x="-0.5" y="-0.5" width="1" height="1" /></g>
<g transform="translate(43 12) rotate(262) scale(8 70)"><rect fill="#fdf2af" fill-opacity="0.501961" x="-0.5" y="-0.5" width="1" height="1" /></g>
<g transform="translate(42 107) rotate(250) scale(4 23)"><rect fill="#adb6ac" fill-opacity="0.501961" x="-0.5" y="-0.5" width="1" height="1" /></g>
<g transform="translate(56 123) rotate(176) scale(34 1)"><rect fill="#bbb49e" fill-opacity="0.501961" x="-0.5" y="-0.5" width="1" height="1" /></g>
<g transform="translate(71 95) rotate(249) scale(3 14)"><rect fill="#c6b954" fill-opacity="0.501961" x="-0.5" y="-0.5" width="1" height="1" /></g>
<g transform="translate(133 87) rotate(-10) scale(16 1)"><rect fill="#c0b437" fill-opacity="0.501961" x="-0.5" y="-0.5" width="1" height="1" /></g>
<g transform="translate(103 75) rotate(344) scale(21 17)"><rect fill="#cfd4cb" fill-opacity="0.501961" x="-0.5" y="-0.5" width="1" height="1" /></g>
<g transform="translate(112 163) rotate(251) scale(4 29)"><rect fill="#0f2663" fill-opacity="0.501961" x="-0.5" y="-0.5" width="1" height="1" /></g>
<g transform="translate(13 21) rotate(86) scale(3 76)"><rect fill="#e6d0a7" fill-opacity="0.501961" x="-0.5" y="-0.5" width="1" height="1" /></g>
<g transform="translate(118 0) rotate(0) scale(64 7)"><rect fill="#f3f1d4" fill-opacity="0.501961" x="-0.5" y="-0.5" width="1" height="1" /></g>
<g transform="translate(93 132) rotate(155) scale(6 1)"><rect fill="#171c29" fill-opacity="0.501961" x="-0.5" y="-0.5" width="1" height="1" /></g>
<g transform="translate(119 189) rotate(349) scale(96 1)"><rect fill="#202a2c" fill-opacity="0.501961" x="-0.5" y="-0.5" width="1" height="1" /></g>
<g transform="translate(188 116) rotate(367) scale(10 1)"><rect fill="#a7a47a" fill-opacity="0.501961" x="-0.5" y="-0.5" width="1" height="1" /></g>
<g transform="translate(252 149) rotate(182) scale(16 18)"><rect fill="#3877c7" fill-opacity="0.501961" x="-0.5" y="-0.5" width="1" height="1" /></g>
<g transform="translate(128 121) rotate(122) scale(14 1)"><rect fill="#ba9f79" fill-opacity="0.501961" x="-0.5" y="-0.5" width="1" height="1" /></g>
<g transform="translate(51 127) rotate(255) scale(3 14)"><rect fill="#6c6c68" fill-opacity="0.501961" x="-0.5" y="-0.5" width="1" height="1" /></g>
<g transform="translate(224 110) rotate(22) scale(10 6)"><rect fill="#b9bfab" fill-opacity="0.501961" x="-0.5" y="-0.5" width="1" height="1" /></g>
<g transform="translate(205 7) rotate(91) scale(3 38)"><rect fill="#fceeb5" fill-opacity="0.501961" x="-0.5" y="-0.5" width="1" height="1" /></g>
<g transform="translate(28 170) rotate(352) scale(57 1)"><rect fill="#1e261a" fill-opacity="0.501961" x="-0.5" y="-0.5" width="1" height="1" /></g>
<g transform="translate(37 49) rotate(350) scale(17 60)"><rect fill="#d0d1c1" fill-opacity="0.501961" x="-0.5" y="-0.5" width="1" height="1" /></g>
<g transform="translate(79 174) rotate(163) scale(20 11)"><rect fill="#3073c2" fill-opacity="0.501961" x="-0.5" y="-0.5" width="1" height="1" /></g>
<g transform="translate(120 142) rotate(315) scale(26 5)"><rect fill="#9a8c1a" fill-opacity="0.501961" x="-0.5" y="-0.5" width="1" height="1" /></g>
<g transform="translate(176 114) rotate(104) scale(4 15)"><rect fill="#d2ca93" fill-opacity="0.501961" x="-0.5" y="-0.5" width="1" height="1" /></g>
<g transform="translate(175 37) rotate(262) scale(21 25)"><rect fill="#cac6a6" fill-opacity="0.501961" x="-0.5" y="-0.5" width="1" height="1" /></g>
<g transform="translate(146 156) rotate(346) scale(21 3)"><rect fill="#123681" fill-opacity="0.501961" x="-0.5" y="-0.5" width="1" height="1" /></g>
<g transform="translate(226 184) rotate(252) scale(17 22)"><rect fill="#2568be" fill-opacity="0.501961" x="-0.5" y="-0.5" width="1" height="1" /></g>
<g transform="translate(255 109) rotate(249) scale(1 8)"><rect fill="#081a4d" fill-opacity="0.501961" x="-0.5" y="-0.5" width="1" height="1" /></g>
<g transform="translate(26 191) rotate(85) scale(36 7)"><rect fill="#1b272c" fill-opacity="0.501961" x="-0.5" y="-0.5" width="1" height="1" /></g>
<g transform="translate(58 128) rotate(212) scale(1 23)"><rect fill="#c4b65b" fill-opacity="0.501961" x="-0.5" y="-0.5" width="1" height="1" /></g>
<g transform="translate(62 184) rotate(260) scale(70 4)"><rect fill="#282e28" fill-opacity="0.501961" x="-0.5" y="-0.5" width="1" height="1" /></g>
<g transform="translate(119 27) rotate(175) scale(35 2)"><rect fill="#e9e1b7" fill-opacity="0.501961" x="-0.5" y="-0.5" width="1" height="1" /></g>
<g transform="translate(208 178) rotate(73) scale(71 1)"><rect fill="#494e44" fill-opacity="0.501961" x="-0.5" y="-0.5" width="1" height="1" /></g>
<g transform="translate(39 157) rotate(261) scale(17 30)"><rect fill="#184390" fill-opacity="0.501961" x="-0.5" y="-0.5" width="1" height="1" /></g>
<g transform="translate(77 136) rotate(333) scale(16 1)"><rect fill="#6a7127" fill-opacity="0.501961" x="-0.5" y="-0.5" width="1" height="1" /></g>
<g transform="translate(172 146) rotate(81) scale(1 62)"><rect fill="#212f4d" fill-opacity="0.501961" x="-0.5" y="-0.5" width="1" height="1" /></g>
<g transform="translate(107 121) rotate(90) scale(7 19)"><rect fill="#ae7a3f" fill-opacity="0.501961" x="-0.5" y="-0.5" width="1" height="1" /></g>
<g transform="translate(152 59) rotate(335) scale(49 6)"><rect fill="#ced4cd" fill-opacity="0.501961" x="-0.5" y="-0.5" width="1" height="1" /></g>
<g transform="translate(146 124) rotate(341) scale(7 1)"><rect fill="#213973" fill-opacity="0.501961" x="-0.5" y="-0.5" width="1" height="1" /></g>
<g transform="translate(255 121) rotate(3) scale(17 15)"><rect fill="#2f74ca" fill-opacity="0.501961" x="-0.5" y="-0.5" width="1" height="1" /></g>
<g transform="translate(255 28) rotate(275) scale(3 10)"><rect fill="#ffffce" fill-opacity="0.501961" x="-0.5" y="-0.5" width="1" height="1" /></g>
<g transform="translate(77 190) rotate(168) scale(41 1)"><rect fill="#132f68" fill-opacity="0.501961" x="-0.5" y="-0.5" width="1" height="1" /></g>
<g transform="translate(141 123) rotate(79) scale(1 6)"><rect fill="#c7bd98" fill-opacity="0.501961" x="-0.5" y="-0.5" width="1" height="1" /></g>
<g transform="translate(6 121) rotate(175) scale(87 3)"><rect fill="#d2d3c7" fill-opacity="0.501961" x="-0.5" y="-0.5" width="1" height="1" /></g>
<g transform="translate(62 74) rotate(121) scale(50 10)"><rect fill="#bfc6bb" fill-opacity="0.501961" x="-0.5" y="-0.5" width="1" height="1" /></g>
<g transform="translate(206 121) rotate(174) scale(15 11)"><rect fill="#225aac" fill-opacity="0.501961" x="-0.5" y="-0.5" width="1" height="1" /></g>
<g transform="translate(81 160) rotate(262) scale(1 55)"><rect fill="#292a27" fill-opacity="0.501961" x="-0.5" y="-0.5" width="1" height="1" /></g>
<g transform="translate(172 121) rotate(75) scale(1 38)"><rect fill="#383f43" fill-opacity="0.501961" x="-0.5" y="-0.5" width="1" height="1" /></g>
<g transform="translate(141 110) rotate(261) scale(1 15)"><rect fill="#c5947c" fill-opacity="0.501961" x="-0.5" y="-0.5" width="1" height="1" /></g>
<g transform="translate(149 115) rotate(82) scale(1 40)"><rect fill="#c4a779" fill-opacity="0.501961" x="-0.5" y="-0.5" width="1" height="1" /></g>
<g transform="translate(81 36) rotate(181) scale(39 3)"><rect fill="#bec2b6" fill-opacity="0.501961" x="-0.5" y="-0.5" width="1" height="1" /></g>
<g transform="translate(180 159) rotate(253) scale(10 18)"><rect fill="#2a6fc1" fill-opacity="0.501961" x="-0.5" y="-0.5" width="1" height="1" /></g>
<g transform="translate(97 33) rotate(353) scale(30 1)"><rect fill="#fff1a0" fill-opacity="0.501961" x="-0.5" y="-0.5" width="1" height="1" /></g>
<g transform="translate(58 105) rotate(80) scale(3 8)"><rect fill="#bab458" fill-opacity="0.501961" x="-0.5" y="-0.5" width="1" height="1" /></g>
<g transform="translate(18 133) rotate(349) scale(36 4)"><rect fill="#b6b8a1" fill-opacity="0.501961" x="-0.5" y="-0.5" width="1" height="1" /></g>
<g transform="translate(158 120) rotate(263) scale(1 20)"><rect fill="#baa000" fill-opacity="0.501961" x="-0.5" y="-0.5" width="1" height="1" /></g>
<g transform="translate(9 110) rotate(179) scale(75 4)"><rect fill="#b6b9a1" fill-opacity="0.501961" x="-0.5" y="-0.5" width="1" height="1" /></g>
<g transform="translate(104 109) rotate(110) scale(11 5)"><rect fill="#7e6e4d" fill-opacity="0.501961" x="-0.5" y="-0.5" width="1" height="1" /></g>
<g transform="translate(0 191) rotate(97) scale(8 44)"><rect fill="#134696" fill-opacity="0.501961" x="-0.5" y="-0.5" width="1" height="1" /></g>
<g transform="translate(255 135) rotate(172) scale(26 3)"><rect fill="#202626" fill-opacity="0.501961" x="-0.5" y="-0.5" width="1" height="1" /></g>
<g transform="translate(106 87) rotate(253) scale(2 21)"><rect fill="#cabd4f" fill-opacity="0.501961" x="-0.5" y="-0.5" width="1" height="1" /></g>
<g transform="translate(171 180) rotate(148) scale(4 5)"><rect fill="#4f5752" fill-opacity="0.501961" x="-0.5" y="-0.5" width="1" height="1" /></g>
<g transform="translate(166 184) rotate(260) scale(1 54)"><rect fill="#122c5f" fill-opacity="0.501961" x="-0.5" y="-0.5" width="1" height="1" /></g>
<g transform="translate(12 144) rotate(255) scale(2 7)"><rect fill="#1a2222" fill-opacity="0.501961" x="-0.5" y="-0.5" width="1" height="1" /></g>
<path stroke="#cbc398" stroke-opacity="0.501961" fill="none" d="M 226.532185 68.310961 Q 128.125555 88.010381, 107.845781 103.720054" stroke-width="0.500000" />
<path stroke="#c8c9b9" stroke-opacity="0.501961" fill="none" d="M 116.954345 38.009319 Q 3.085154 46.606011, 19.453951 149.750058" stroke-width="0.500000" />
<path stroke="#1a3971" stroke-opacity="0.501961" fill="none" d="M 233.582865 136.264787 Q 246.904124 154.440134, 253.169655 203.628190" stroke-width="0.500000" />
<path stroke="#d8cc96" stroke-opacity="0.501961" fill="none" d="M 43.346206 98.933380 Q 103.735453 84.267462, 114.686673 84.418767" stroke-width="0.500000" />
<path stroke="#c0c4bc" stroke-opacity="0.501961" fill="none" d="M 147.264057 103.277850 Q 207.015144 91.022487, 225.807584 105.781917" stroke-width="0.500000" />
<path stroke="#cccaae" stroke-opacity="0.501961" fill="none" d="M 120.951357 96.319010 Q 141.395002 105.449304, 177.116960 47.401659" stroke-width="0.500000" />
<path stroke="#102f5d" stroke-opacity="0.501961" fill="none" d="M 245.773429 194.770056 Q 239.317936 171.370070, 227.371455 125.347168" stroke-width="0.500000" />
<path stroke="#cab278" stroke-opacity="0.501961" fill="none" d="M 102.721055 120.264990 Q 72.465464 132.122887, 56.807073 134.944142" stroke-width="0.500000" />
<path stroke="#846415" stroke-opacity="0.501961" fill="none" d="M 106.581643 99.492377 Q 111.124392 122.007379, 161.344418 121.648876" stroke-width="0.500000" />
<path stroke="#29456f" stroke-opacity="0.501961" fill="none" d="M -0.502402 145.772091 Q 13.139743 146.736105, 62.780092 135.872998" stroke-width="0.500000" />
<path stroke="#394f6a" stroke-opacity="0.501961" fill="none" d="M 240.763222 111.455131 Q 213.903075 111.602673, 170.954910 122.848133" stroke-width="0.500000" />
<path stroke="#c5ad89" stroke-opacity="0.501961" fill="none" d="M 50.753295 124.704987 Q 77.207482 125.131679, 103.668146 115.352241" stroke-width="0.500000" />
<path stroke="#a39b4e" stroke-opacity="0.501961" fill="none" d="M 195.866825 123.258405 Q 182.402694 104.084977, 169.859504 108.290648" stroke-width="0.500000" />
<path stroke="#152c55" stroke-opacity="0.501961" fill="none" d="M 201.247926 139.232348 Q 215.989579 194.321804, 220.119805 207.000000" stroke-width="0.500000" />
<path stroke="#968122" stroke-opacity="0.501961" fill="none" d="M 187.055115 115.764811 Q 154.100884 126.745645, 130.669097 117.730067" stroke-width="0.500000" />
<path stroke="#17366b" stroke-opacity="0.501961" fill="none" d="M 57.752598 140.835518 Q 62.709826 178.041469, 72.883057 207.000000" stroke-width="0.500000" />
<path stroke="#16346e" stroke-opacity="0.501961" fill="none" d="M 253.508808 207.000000 Q 256.376271 200.644366, 232.499170 118.929009" stroke-width="0.500000" />
<path stroke="#1a2a44" stroke-opacity="0.501961" fill="none" d="M 191.559985 119.939903 Q 203.032668 173.815029, 213.383583 207.000000" stroke-width="0.500000" />
<path stroke="#d8ca97" stroke-opacity="0.501961" fill="none" d="M 47.381091 99.277732 Q 82.724541 79.862397, 132.641957 100.787989" stroke-width="0.500000" />
<path stroke="#cec395" stroke-opacity="0.501961" fill="none" d="M 52.341779 99.142704 Q 90.280373 77.088396, 122.062360 102.432642" stroke-width="0.500000" />
<path stroke="#f7e599" stroke-opacity="0.501961" fill="none" d="M 22.767637 97.367981 Q 54.218684 99.150976, 71.903526 100.347747" stroke-width="0.500000" />
<path stroke="#1e365c" stroke-opacity="0.501961" fill="none" d="M 240.641562 142.209540 Q 185.814128 149.670760, 166.527474 151.071334" stroke-width="0.500000" />
<path stroke="#173e78" stroke-opacity="0.501961" fill="none" d="M 246.998581 167.462227 Q 239.404844 165.136082, 122.654218 181.199775" stroke-width="0.500000" />
<path stroke="#bbbd9a" stroke-opacity="0.501961" fill="none" d="M 9.761735 108.835820 Q 45.839571 145.869707, 80.299488 131.642187" stroke-width="0.500000" />
<path stroke="#173466" stroke-opacity="0.501961" fill="none" d="M -14.393425 179.426773 Q -0.479765 175.309062, 56.497371 168.914819" stroke-width="0.500000" />
<path stroke="#b6bcaa" stroke-opacity="0.501961" fill="none" d="M 177.783213 114.249963 Q 182.683212 122.721887, 233.684421 102.365956" stroke-width="0.500000" />
<path stroke="#d1cdac" stroke-opacity="0.501961" fill="none" d="M 241.468844 63.825363 Q 187.942511 90.049255, 111.969388 90.237586" stroke-width="0.500000" />
<path stroke="#1b2220" stroke-opacity="0.501961" fill="none" d="M 238.311772 136.688397 Q 230.354929 128.350561, 230.596113 112.435779" stroke-width="0.500000" />
<path stroke="#1b3a70" stroke-opacity="0.501961" fill="none" d="M 156.944425 199.331142 Q 124.416258 168.239294, 144.553314 146.321769" stroke-width="0.500000" />
<path stroke="#7b9399" stroke-opacity="0.501961" fill="none" d="M -13.902076 140.931261 Q -12.181527 146.582103, 30.517981 140.420783" stroke-width="0.500000" />
<path stroke="#d2c488" stroke-opacity="0.501961" fill="none" d="M 66.610036 94.870028 Q 81.354297 106.120562, 141.586892 91.260331" stroke-width="0.500000" />
<path stroke="#163670" stroke-opacity="0.501961" fill="none" d="M 50.613124 139.447594 Q 51.184496 156.223132, 64.980541 207.000000" stroke-width="0.500000" />
<path stroke="#c3aa23" stroke-opacity="0.501961" fill="none" d="M 158.282805 126.036870 Q 159.018368 113.308594, 169.686181 106.288676" stroke-width="0.500000" />
<path stroke="#194789" stroke-opacity="0.501961" fill="none" d="M 229.027720 137.147485 Q 211.612313 142.065877, 193.999675 139.203890" stroke-width="0.500000" />
<path stroke="#466057" stroke-opacity="0.501961" fill="none" d="M 86.305849 133.878905 Q 65.378407 143.101704, 62.989496 135.646230" stroke-width="0.500000" />
<path stroke="#204072" stroke-opacity="0.501961" fill="none" d="M 93.241386 181.047369 Q 93.289323 166.344525, 85.170707 133.745400" stroke-width="0.500000" />
<path stroke="#b6b594" stroke-opacity="0.501961" fill="none" d="M 192.593010 85.700221 Q 138.309181 85.569893, 126.281423 105.315634" stroke-width="0.500000" />
<path stroke="#c5ccc0" stroke-opacity="0.501961" fill="none" d="M 254.689081 85.323372 Q 186.562773 77.340318, 154.421819 92.102193" stroke-width="0.500000" />
<path stroke="#fbe9ab" stroke-opacity="0.501961" fill="none" d="M 81.955874 39.146160 Q 51.578182 36.687031, 46.999058 47.725124" stroke-width="0.500000" />
<path stroke="#344255" stroke-opacity="0.501961" fill="none" d="M 219.928482 114.097347 Q 241.942597 110.971806, 257.365066 108.280872" stroke-width="0.500000" />
<path stroke="#273136" stroke-opacity="0.501961" fill="none" d="M 170.405446 152.441101 Q 35.622343 162.185981, -9.716105 174.276047" stroke-width="0.500000" />
<path stroke="#b9bca4" stroke-opacity="0.501961" fill="none" d="M 228.966260 114.044704 Q 206.764357 100.025023, 171.488635 106.770088" stroke-width="0.500000" />
<path stroke="#b6bbab" stroke-opacity="0.501961" fill="none" d="M 264.492589 105.116718 Q 156.492618 133.704222, 159.589036 24.335555" stroke-width="0.500000" />
<path stroke="#b1a765" stroke-opacity="0.501961" fill="none" d="M 43.115152 138.825054 Q 65.216640 134.320524, 134.830192 123.576971" stroke-width="0.500000" />
<path stroke="#c0beab" stroke-opacity="0.501961" fill="none" d="M 4.511754 142.692911 Q 35.105248 137.535610, 78.646856 117.836029" stroke-width="0.500000" />
<path stroke="#242a23" stroke-opacity="0.501961" fill="none" d="M 214.320598 143.593738 Q 139.035784 151.474656, 133.191307 157.967107" stroke-width="0.500000" />
<path stroke="#cdcbb6" stroke-opacity="0.501961" fill="none" d="M -2.251250 76.515964 Q 21.511197 123.085943, 82.796515 112.099053" stroke-width="0.500000" />
<path stroke="#1954a1" stroke-opacity="0.501961" fill="none" d="M 201.764785 168.174821 Q 182.334932 182.718606, 171.044309 163.483051" stroke-width="0.500000" />
<path stroke="#1b263c" stroke-opacity="0.501961" fill="none" d="M 26.490523 170.263112 Q 23.142321 156.534848, 21.176710 142.356248" stroke-width="0.500000" />
<path stroke="#b3b4a1" stroke-opacity="0.501961" fill="none" d="M 20.111516 154.596463 Q 17.890566 102.327579, 29.053845 71.193857" stroke-width="0.500000" />
<path stroke="#1e467a" stroke-opacity="0.501961" fill="none" d="M 41.197442 160.118539 Q 52.903168 164.320565, 121.873799 151.603539" stroke-width="0.500000" />
<path stroke="#d6bd5f" stroke-opacity="0.501961" fill="none" d="M 144.547335 116.633449 Q 184.872740 95.278098, 192.476965 101.443259" stroke-width="0.500000" />
<path stroke="#242c29" stroke-opacity="0.501961" fill="none" d="M 92.612997 134.062925 Q 96.815287 177.781635, 100.454848 192.355503" stroke-width="0.500000" />
<path stroke="#1f2e49" stroke-opacity="0.501961" fill="none" d="M 180.943251 207.000000 Q 166.624575 147.279838, 162.840330 128.567896" stroke-width="0.500000" />
<path stroke="#d6bf69" stroke-opacity="0.501961" fill="none" d="M 104.651928 96.039480 Q 103.984028 121.121182, 48.725192 131.789540" stroke-width="0.500000" />
<path stroke="#f2e2ac" stroke-opacity="0.501961" fill="none" d="M 271.000000 5.579732 Q 220.965063 2.159177, 210.650508 14.706571" stroke-width="0.500000" />
<path stroke="#e0ddc8" stroke-opacity="0.501961" fill="none" d="M 11.906938 -4.092056 Q -1.766373 65.505677, 78.301830 48.965775" stroke-width="0.500000" />
<path stroke="#1e3153" stroke-opacity="0.501961" fill="none" d="M 58.498922 146.048101 Q 64.135679 199.721561, 78.985127 207.000000" stroke-width="0.500000" />
<path stroke="#d0cead" stroke-opacity="0.501961" fill="none" d="M 99.204937 98.873035 Q 98.167917 101.047068, 26.574981 90.223613" stroke-width="0.500000" />
<path stroke="#1b2f53" stroke-opacity="0.501961" fill="none" d="M 214.449437 192.110088 Q 199.937196 122.663495, 193.594940 120.293977" stroke-width="0.500000" />
<path stroke="#5c4920" stroke-opacity="0.501961" fill="none" d="M 130.673741 113.211066 Q 126.124797 97.663522, 119.606241 98.546293" stroke-width="0.500000" />
<path stroke="#f9ecb2" stroke-opacity="0.501961" fill="none" d="M 242.796356 4.849584 Q 204.319229 7.370961, 160.373576 16.361944" stroke-width="0.500000" />
<path stroke="#0b387f" stroke-opacity="0.501961" fill="none" d="M 12.913717 167.439192 Q -11.512822 175.014153, -14.107962 155.866911" stroke-width="0.500000" />
<path stroke="#2069c2" stroke-opacity="0.501961" fill="none" d="M 133.390421 191.322645 Q 119.154086 188.211601, 45.674075 207.000000" stroke-width="0.500000" />
<path stroke="#bcbca3" stroke-opacity="0.501961" fill="none" d="M 124.131040 85.566151 Q 176.980828 62.884000, 193.157743 118.921302" stroke-width="0.500000" />
<path stroke="#bdbc9e" stroke-opacity="0.501961" fill="none" d="M 245.849415 104.363391 Q 194.640620 110.853158, 176.410269 105.801942" stroke-width="0.500000" />
<path stroke="#b8c3ca" stroke-opacity="0.501961" fill="none" d="M 242.428716 25.406381 Q 192.053299 25.666793, 164.484329 25.589778" stroke-width="0.500000" />
<path stroke="#fbecb8" stroke-opacity="0.501961" fill="none" d="M 91.069175 39.849375 Q 71.258515 42.492496, 44.031171 43.637365" stroke-width="0.500000" />
<path stroke="#e6dcb8" stroke-opacity="0.501961" fill="none" d="M 165.813845 -16.000000 Q 197.560256 26.768602, 232.711346 23.743395" stroke-width="0.500000" />
<path stroke="#435b5e" stroke-opacity="0.501961" fill="none" d="M 141.084239 120.604169 Q 148.510763 140.607541, 139.593188 156.885515" stroke-width="0.500000" />
<path stroke="#dadcd5" stroke-opacity="0.501961" fill="none" d="M 42.321027 104.867101 Q 28.248031 107.410846, -5.235818 105.059610" stroke-width="0.500000" />
<path stroke="#3f575d" stroke-opacity="0.501961" fill="none" d="M 97.761578 155.318294 Q 89.826206 130.300735, 57.577495 137.202137" stroke-width="0.500000" />
<path stroke="#d4cc9c" stroke-opacity="0.501961" fill="none" d="M 139.284669 93.939319 Q 75.474818 97.812209, 7.069645 97.946084" stroke-width="0.500000" />
<path stroke="#2b3948" stroke-opacity="0.501961" fill="none" d="M 229.691826 113.358532 Q 261.955388 102.367286, 271.000000 122.441224" stroke-width="0.500000" />
<path stroke="#383d31" stroke-opacity="0.501961" fill="none" d="M 30.434693 201.143589 Q 13.933178 146.448127, 22.425132 141.245154" stroke-width="0.500000" />
<path stroke="#745f33" stroke-opacity="0.501961" fill="none" d="M 128.162065 115.674274 Q 127.210010 89.618797, 103.987292 102.494568" stroke-width="0.500000" />
<path stroke="#897700" stroke-opacity="0.501961" fill="none" d="M 150.367635 117.301464 Q 152.110373 125.099356, 178.746505 118.049316" stroke-width="0.500000" />
<path stroke="#0f3d8d" stroke-opacity="0.501961" fill="none" d="M 245.115397 198.597865 Q 243.810233 165.301551, 218.032268 177.322226" stroke-width="0.500000" />
<path stroke="#182b55" stroke-opacity="0.501961" fill="none" d="M 92.355657 130.673461 Q 97.168974 159.575367, 108.700762 204.538408" stroke-width="0.500000" />
<path stroke="#c2c9be" stroke-opacity="0.501961" fill="none" d="M 52.309594 130.298737 Q 2.897497 144.571063, -10.135206 144.582463" stroke-width="0.500000" />
<path stroke="#bac4c2" stroke-opacity="0.501961" fill="none" d="M 152.089534 100.645918 Q 187.552304 103.575536, 231.316250 74.100558" stroke-width="0.500000" />
<path stroke="#184f97" stroke-opacity="0.501961" fill="none" d="M 236.241063 207.000000 Q 248.117909 201.925435, 225.167931 123.319002" stroke-width="0.500000" />
<path stroke="#ffffc7" stroke-opacity="0.501961" fill="none" d="M 136.775437 33.711852 Q 117.751256 34.178439, 103.436971 37.631841" stroke-width="0.500000" />
<path stroke="#202f3d" stroke-opacity="0.501961" fill="none" d="M 20.074974 172.783271 Q 100.642799 161.552851, 122.314865 155.049232" stroke-width="0.500000" />
<path stroke="#c6b236" stroke-opacity="0.501961" fill="none" d="M 53.698858 139.510597 Q 57.122377 129.312014, 84.690836 123.073862" stroke-width="0.500000" />
<path stroke="#263038" stroke-opacity="0.501961" fill="none" d="M 248.150632 207.000000 Q 254.996552 173.872131, 227.190121 138.956122" stroke-width="0.500000" />
<path stroke="#fffbcc" stroke-opacity="0.501961" fill="none" d="M 211.766995 28.332008 Q 217.980805 28.449858, 232.163624 27.800999" stroke-width="0.500000" />
<path stroke="#c6a831" stroke-opacity="0.501961" fill="none" d="M 191.140277 113.741509 Q 184.219147 102.614879, 142.723217 112.634498" stroke-width="0.500000" />
<path stroke="#11469b" stroke-opacity="0.501961" fill="none" d="M 86.266809 163.138207 Q 97.693776 169.781719, 91.187546 185.663325" stroke-width="0.500000" />
<path stroke="#f9e59c" stroke-opacity="0.501961" fill="none" d="M 177.848724 83.998797 Q 170.464972 86.095313, 146.041412 81.610965" stroke-width="0.500000" />
<path stroke="#986d07" stroke-opacity="0.501961" fill="none" d="M 103.429818 129.734119 Q 115.446680 131.500064, 133.153569 108.193293" stroke-width="0.500000" />
<path stroke="#232d33" stroke-opacity="0.501961" fill="none" d="M 194.437976 120.003087 Q 205.687482 152.403152, 213.170252 191.449259" stroke-width="0.500000" />
<path stroke="#ca9c27" stroke-opacity="0.501961" fill="none" d="M 70.376343 105.688338 Q 80.512246 116.154991, 98.906579 105.356147" stroke-width="0.500000" />
<path stroke="#d1cbb4" stroke-opacity="0.501961" fill="none" d="M 99.427695 117.348655 Q 107.215295 82.818374, 63.132358 82.755490" stroke-width="0.500000" />
<path stroke="#e6d59f" stroke-opacity="0.501961" fill="none" d="M 149.663561 35.374446 Q 254.401084 29.604808, 255.209490 22.532860" stroke-width="0.500000" />
<path stroke="#cbd1cb" stroke-opacity="0.501961" fill="none" d="M 53.309310 111.700046 Q 38.692566 111.243217, -11.706058 116.646676" stroke-width="0.500000" />
<path stroke="#cac9b1" stroke-opacity="0.501961" fill="none" d="M 80.921894 112.674713 Q 29.961110 109.866277, 16.720045 146.041959" stroke-width="0.500000" />
<path stroke="#172332" stroke-opacity="0.501961" fill="none" d="M 127.153736 157.188180 Q 127.029841 169.139847, 142.309845 207.000000" stroke-width="0.500000" />
<path stroke="#2f598f" stroke-opacity="0.501961" fill="none" d="M 99.177126 135.720033 Q 104.417214 163.968137, 129.188651 147.841217" stroke-width="0.500000" />
<path stroke="#1c4178" stroke-opacity="0.501961" fill="none" d="M 238.702824 141.385264 Q 177.797662 152.251746, 136.669683 160.163507" stroke-width="0.500000" />
<path stroke="#23272d" stroke-opacity="0.501961" fill="none" d="M 249.401709 207.000000 Q 247.206387 192.804019, 232.655272 143.263644" stroke-width="0.500000" />
<path stroke="#c5c2ab" stroke-opacity="0.501961" fill="none" d="M 268.953981 98.053815 Q 266.499714 86.530688, 129.428499 105.801254" stroke-width="0.500000" />
<path stroke="#eee1a2" stroke-opacity="0.501961" fill="none" d="M 57.227848 117.235526 Q 25.060314 131.052821, 8.149637 123.291520" stroke-width="0.500000" />
<path stroke="#cab179" stroke-opacity="0.501961" fill="none" d="M 108.924029 96.394725 Q 87.779640 127.812000, 46.444484 119.122323" stroke-width="0.500000" />
<path stroke="#aeb5b3" stroke-opacity="0.501961" fill="none" d="M 162.013525 85.817003 Q 142.029562 91.924495, 140.419134 80.542808" stroke-width="0.500000" />
<path stroke="#c1cfd5" stroke-opacity="0.501961" fill="none" d="M 174.209746 78.937412 Q 212.721737 65.922375, 233.570684 61.354719" stroke-width="0.500000" />
<path stroke="#e9dfba" stroke-opacity="0.501961" fill="none" d="M 230.916869 26.468938 Q 192.177781 36.647439, 153.710576 37.124342" stroke-width="0.500000" />
<path stroke="#f6e8af" stroke-opacity="0.501961" fill="none" d="M 156.670873 16.403753 Q 167.116870 14.367992, 268.412869 1.912778" stroke-width="0.500000" />
<path stroke="#262d2c" stroke-opacity="0.501961" fill="none" d="M 238.709224 168.461178 Q 241.207943 147.262658, 229.089596 113.235434" stroke-width="0.500000" />
<path stroke="#c8ad5e" stroke-opacity="0.501961" fill="none" d="M 114.672288 93.098000 Q 58.350706 125.265536, 33.757699 125.741458" stroke-width="0.500000" />
<path stroke="#19437e" stroke-opacity="0.501961" fill="none" d="M 204.458972 141.968406 Q 269.276194 125.723586, 271.000000 138.847431" stroke-width="0.500000" />
<path stroke="#817e2a" stroke-opacity="0.501961" fill="none" d="M 138.546901 126.753054 Q 115.726192 147.791603, 113.132180 155.893111" stroke-width="0.500000" />
<path stroke="#8f8d35" stroke-opacity="0.501961" fill="none" d="M 87.159877 127.855892 Q 70.843539 142.311059, 63.832991 136.668797" stroke-width="0.500000" />
<path stroke="#dcc212" stroke-opacity="0.501961" fill="none" d="M 173.984175 116.334469 Q 163.175307 113.888705, 150.137771 119.421688" stroke-width="0.500000" />
<path stroke="#decfa5" stroke-opacity="0.501961" fill="none" d="M 202.516993 18.143434 Q 147.561299 23.589828, 139.369962 20.530577" stroke-width="0.500000" />
<path stroke="#1f3145" stroke-opacity="0.501961" fill="none" d="M 94.187461 162.718419 Q 140.679615 155.556168, 213.791313 144.515327" stroke-width="0.500000" />
<path stroke="#23437a" stroke-opacity="0.501961" fill="none" d="M 199.179045 115.367291 Q 211.601263 114.351696, 257.755772 111.507747" stroke-width="0.500000" />
<path stroke="#ded4b0" stroke-opacity="0.501961" fill="none" d="M 243.306177 11.078359 Q 226.386371 -10.211105, 94.203541 9.212869" stroke-width="0.500000" />
<path stroke="#343626" stroke-opacity="0.501961" fill="none" d="M 100.948858 159.527963 Q 171.602406 144.842310, 235.341931 141.918021" stroke-width="0.500000" />
<path stroke="#b97d00" stroke-opacity="0.501961" fill="none" d="M 124.278190 128.964102 Q 126.562273 118.792325, 116.459063 116.872090" stroke-width="0.500000" />
<path stroke="#0e358a" stroke-opacity="0.501961" fill="none" d="M 144.160318 179.961259 Q 137.685823 179.482128, 137.494134 165.470485" stroke-width="0.500000" />
<path stroke="#b6bdb2" stroke-opacity="0.501961" fill="none" d="M 253.156315 38.275194 Q 209.381055 126.102975, 175.472272 116.107823" stroke-width="0.500000" />
<path stroke="#103885" stroke-opacity="0.501961" fill="none" d="M 134.298174 161.938545 Q 137.791792 185.083328, 163.099660 175.554195" stroke-width="0.500000" />
<path stroke="#78552e" stroke-opacity="0.501961" fill="none" d="M 136.008597 106.240596 Q 116.565162 117.055637, 93.330620 118.834983" stroke-width="0.500000" />
<path stroke="#1954a3" stroke-opacity="0.501961" fill="none" d="M 183.631176 175.271312 Q 167.035502 175.405526, 174.560586 151.016491" stroke-width="0.500000" />
<path stroke="#bbbba2" stroke-opacity="0.501961" fill="none" d="M 259.304684 30.408859 Q 64.236899 49.235644, 48.825271 45.567404" stroke-width="0.500000" />
<path stroke="#1454b5" stroke-opacity="0.501961" fill="none" d="M 250.427113 170.529298 Q 262.037766 171.012469, 271.000000 170.816153" stroke-width="0.500000" />
<path stroke="#bcbb9c" stroke-opacity="0.501961" fill="none" d="M 271.000000 21.271659 Q 271.000000 43.784936, 88.069440 37.923299" stroke-width="0.500000" />
<path stroke="#283646" stroke-opacity="0.501961" fill="none" d="M 2.064880 144.685450 Q 26.068691 138.066896, 26.501445 173.872208" stroke-width="0.500000" />
<path stroke="#3d4644" stroke-opacity="0.501961" fill="none" d="M 230.125248 172.305960 Q 217.908977 172.892702, 160.105706 182.998180" stroke-width="0.500000" />
<path stroke="#bdac59" stroke-opacity="0.501961" fill="none" d="M 169.377640 83.457364 Q 145.555445 92.766380, 124.808848 106.104686" stroke-width="0.500000" />
<path stroke="#c19b25" stroke-opacity="0.501961" fill="none" d="M 49.396093 106.599600 Q 81.087482 105.891639, 105.862860 110.095736" stroke-width="0.500000" />
<path stroke="#babfb3" stroke-opacity="0.501961" fill="none" d="M 226.588433 114.204768 Q 243.315707 93.922660, 271.000000 66.355711" stroke-width="0.500000" />
<path stroke="#a07f1e" stroke-opacity="0.501961" fill="none" d="M 134.106569 112.007035 Q 158.021701 113.414322, 159.891350 130.691050" stroke-width="0.500000" />
<path stroke="#cecfc1" stroke-opacity="0.501961" fill="none" d="M 50.636455 131.223556 Q 23.387306 129.121996, 2.933304 115.705432" stroke-width="0.500000" />
<path stroke="#1c305a" stroke-opacity="0.501961" fill="none" d="M 231.441337 110.573033 Q 241.345374 165.689625, 257.936652 203.485794" stroke-width="0.500000" />
<path stroke="#22303f" stroke-opacity="0.501961" fill="none" d="M 48.835694 138.720562 Q 64.465037 139.870670, 55.010813 172.427147" stroke-width="0.500000" />
<path stroke="#1e2e47" stroke-opacity="0.501961" fill="none" d="M 207.527790 172.438297 Q 205.969613 152.986698, 195.440464 115.511280" stroke-width="0.500000" />
<path stroke="#e2c359" stroke-opacity="0.501961" fill="none" d="M 69.834814 128.267494 Q 88.581874 116.129775, 97.106961 115.951284" stroke-width="0.500000" />
<path stroke="#215297" stroke-opacity="0.501961" fill="none" d="M 202.450626 128.677562 Q 208.809225 144.952344, 228.800473 137.536453" stroke-width="0.500000" />
<path stroke="#c6c7ac" stroke-opacity="0.501961" fill="none" d="M 63.933127 102.270799 Q 34.295713 127.004606, 17.080581 144.834174" stroke-width="0.500000" />
<path stroke="#e9e2c8" stroke-opacity="0.501961" fill="none" d="M 89.035396 40.102346 Q 20.418946 47.815653, 10.134538 56.651215" stroke-width="0.500000" />
<path stroke="#c4a73d" stroke-opacity="0.501961" fill="none" d="M 123.486845 126.617186 Q 74.922899 123.863489, 48.651581 137.146796" stroke-width="0.500000" />
<path stroke="#57756a" stroke-opacity="0.501961" fill="none" d="M 96.046283 127.490359 Q 101.939384 132.944803, 109.388612 153.141524" stroke-width="0.500000" />
<path stroke="#c0c7c5" stroke-opacity="0.501961" fill="none" d="M 188.680245 21.709212 Q 129.936403 32.886821, 64.445030 26.116120" stroke-width="0.500000" />
<path stroke="#bfa67b" stroke-opacity="0.501961" fill="none" d="M 105.742412 120.196036 Q 81.303769 126.749432, 70.811970 134.575726" stroke-width="0.500000" />
<path stroke="#052676" stroke-opacity="0.501961" fill="none" d="M 203.061380 178.077357 Q 209.305316 196.908581, 212.999393 207.000000" stroke-width="0.500000" />
<path stroke="#e5d59a" stroke-opacity="0.501961" fill="none" d="M 217.786964 1.080747 Q 161.829191 16.590194, 119.562470 13.560785" stroke-width="0.500000" />
<path stroke="#b7ba83" stroke-opacity="0.501961" fill="none" d="M 44.170365 138.587337 Q 62.964830 132.752281, 77.545831 133.376493" stroke-width="0.500000" />
<path stroke="#293236" stroke-opacity="0.501961" fill="none" d="M 182.422591 207.000000 Q 169.427250 166.566198, 155.768887 122.916069" stroke-width="0.500000" />
<path stroke="#c3c2a7" stroke-opacity="0.501961" fill="none" d="M 25.018814 34.706096 Q 48.110688 23.449907, 73.684355 29.853016" stroke-width="0.500000" />
<path stroke="#8b8730" stroke-opacity="0.501961" fill="none" d="M 136.642805 123.189107 Q 151.356972 152.492637, 128.733066 156.228314" stroke-width="0.500000" />
<path stroke="#2b6bb9" stroke-opacity="0.501961" fill="none" d="M 89.152748 156.873230 Q 58.424873 151.843198, 58.994692 140.628020" stroke-width="0.500000" />
<path stroke="#cbcbb7" stroke-opacity="0.501961" fill="none" d="M 105.072541 105.119694 Q 62.953229 69.240906, 62.311811 17.046939" stroke-width="0.500000" />
<path stroke="#5d471b" stroke-opacity="0.501961" fill="none" d="M 105.681229 101.181119 Q 116.816278 121.633551, 133.317319 108.098296" stroke-width="0.500000" />
<path stroke="#bfbca7" stroke-opacity="0.501961" fill="none" d="M 102.721265 112.311162 Q 52.561795 114.653274, 4.131589 117.166865" stroke-width="0.500000" />
<path stroke="#123c81" stroke-opacity="0.501961" fill="none" d="M 63.103339 172.825293 Q 73.907665 207.000000, 74.427818 207.000000" stroke-width="0.500000" />
<path stroke="#d9d6a7" stroke-opacity="0.501961" fill="none" d="M 126.017927 88.940925 Q 99.169727 89.468496, 88.594986 93.517309" stroke-width="0.500000" />
<path stroke="#b28d13" stroke-opacity="0.501961" fill="none" d="M 87.032205 122.385140 Q 115.733578 124.729680, 143.800763 131.541483" stroke-width="0.500000" />
<path stroke="#c0c7c9" stroke-opacity="0.501961" fill="none" d="M 167.900937 23.734977 Q 224.115966 27.831857, 243.950119 26.317028" stroke-width="0.500000" />
<path stroke="#14366f" stroke-opacity="0.501961" fill="none" d="M 78.116589 185.310230 Q 123.134108 187.295761, 176.428238 170.105625" stroke-width="0.500000" />
<path stroke="#cead5b" stroke-opacity="0.501961" fill="none" d="M 102.141838 121.195717 Q 73.053312 114.739325, 53.272000 121.143737" stroke-width="0.500000" />
<path stroke="#c5bb87" stroke-opacity="0.501961" fill="none" d="M 147.749270 84.679650 Q 115.187299 95.715207, 109.397049 103.113240" stroke-width="0.500000" />
<path stroke="#d9d9c5" stroke-opacity="0.501961" fill="none" d="M 256.341343 -11.177474 Q 253.489423 -8.853757, 258.919649 74.889049" stroke-width="0.500000" />
<path stroke="#1e2831" stroke-opacity="0.501961" fill="none" d="M 176.798258 183.750293 Q 127.420647 184.132162, 129.394134 167.108326" stroke-width="0.500000" />
<path stroke="#bec3b4" stroke-opacity="0.501961" fill="none" d="M 145.764247 93.491434 Q 138.989628 46.241391, 23.366500 55.109681" stroke-width="0.500000" />
<path stroke="#bbbda5" stroke-opacity="0.501961" fill="none" d="M 174.766317 104.268355 Q 235.151902 109.750114, 263.557397 105.538808" stroke-width="0.500000" />
<path stroke="#1c3561" stroke-opacity="0.501961" fill="none" d="M 271.000000 165.896634 Q 222.059997 176.496269, 181.699209 180.363710" stroke-width="0.500000" />
<path stroke="#ced3d4" stroke-opacity="0.501961" fill="none" d="M -16.000000 102.064526 Q 10.916912 107.128390, 53.989858 103.338900" stroke-width="0.500000" />
<path stroke="#f1e18c" stroke-opacity="0.501961" fill="none" d="M 91.200905 99.191645 Q 78.256171 100.925867, 9.827745 98.399579" stroke-width="0.500000" />
<path stroke="#d3bb64" stroke-opacity="0.501961" fill="none" d="M 192.382697 102.016582 Q 177.123673 97.834345, 134.873938 123.776623" stroke-width="0.500000" />
<path stroke="#29343c" stroke-opacity="0.501961" fill="none" d="M 69.200838 196.542039 Q 43.239091 140.548311, 59.850125 135.973255" stroke-width="0.500000" />
<path stroke="#163474" stroke-opacity="0.501961" fill="none" d="M 190.502952 139.830689 Q 161.978188 153.361837, 162.718823 124.411237" stroke-width="0.500000" />
<path stroke="#e1d294" stroke-opacity="0.501961" fill="none" d="M 118.691069 9.331120 Q 165.263169 14.127893, 174.773178 9.686743" stroke-width="0.500000" />
<path stroke="#f8e7a1" stroke-opacity="0.501961" fill="none" d="M 52.503037 40.853373 Q 68.799244 36.286305, 86.012838 40.348106" stroke-width="0.500000" />
<path stroke="#1d2733" stroke-opacity="0.501961" fill="none" d="M 229.238216 112.180910 Q 231.880843 124.757075, 239.600924 137.649721" stroke-width="0.500000" />
<path stroke="#f3e8b6" stroke-opacity="0.501961" fill="none" d="M 206.252519 16.452010 Q 182.593674 7.587340, 160.672608 16.084322" stroke-width="0.500000" />
<path stroke="#c3c9c6" stroke-opacity="0.501961" fill="none" d="M 164.793654 98.647029 Q 188.701592 94.628134, 213.180515 105.177059" stroke-width="0.500000" />
<path stroke="#1956ac" stroke-opacity="0.501961" fill="none" d="M 200.052454 169.025253 Q 201.219934 152.009330, 188.264871 149.920179" stroke-width="0.500000" />
<path stroke="#b8b9a7" stroke-opacity="0.501961" fill="none" d="M 254.755778 19.754612 Q 224.951282 27.231370, 222.071046 41.664317" stroke-width="0.500000" />
<path stroke="#235ea8" stroke-opacity="0.501961" fill="none" d="M 213.763034 114.421553 Q 235.275787 148.455943, 235.452391 165.450528" stroke-width="0.500000" />
<path stroke="#fffbc8" stroke-opacity="0.501961" fill="none" d="M 209.314869 31.061243 Q 221.374612 27.583722, 229.073263 27.162250" stroke-width="0.500000" />
<path stroke="#e4d8a6" stroke-opacity="0.501961" fill="none" d="M 200.108300 79.828017 Q 182.142370 85.110033, 142.691065 85.048893" stroke-width="0.500000" />
<path stroke="#f3e4b1" stroke-opacity="0.501961" fill="none" d="M 39.044137 123.914571 Q -1.669860 125.068453, -16.000000 124.646913" stroke-width="0.500000" />
<path stroke="#1c3567" stroke-opacity="0.501961" fill="none" d="M 93.928281 129.680601 Q 99.967964 164.918772, 106.347336 205.681268" stroke-width="0.500000" />
<path stroke="#28313e" stroke-opacity="0.501961" fill="none" d="M 210.497935 202.152586 Q 201.321092 154.757547, 189.662045 114.794055" stroke-width="0.500000" />
<path stroke="#21335a" stroke-opacity="0.501961" fill="none" d="M 165.895815 143.493295 Q 166.675415 122.713712, 149.663908 123.730938" stroke-width="0.500000" />
<path stroke="#a87700" stroke-opacity="0.501961" fill="none" d="M 144.679709 113.285372 Q 127.453942 110.598700, 115.365468 130.539425" stroke-width="0.500000" />
<path stroke="#b0a47a" stroke-opacity="0.501961" fill="none" d="M 125.839962 105.786197 Q 156.416694 99.291983, 189.702453 90.378982" stroke-width="0.500000" />
<path stroke="#262e2c" stroke-opacity="0.501961" fill="none" d="M 245.131065 139.125897 Q 228.322720 132.696675, 229.938448 111.333976" stroke-width="0.500000" />
<path stroke="#e4d398" stroke-opacity="0.501961" fill="none" d="M 218.096598 31.507051 Q 180.475741 31.034508, 147.567959 35.771416" stroke-width="0.500000" />
<path stroke="#e8e2c8" stroke-opacity="0.501961" fill="none" d="M 19.466667 29.520851 Q 44.379019 14.947491, 65.885660 21.111674" stroke-width="0.500000" />
<path stroke="#d4c99c" stroke-opacity="0.501961" fill="none" d="M -12.341944 100.447468 Q -2.121442 101.937909, 40.081774 102.652343" stroke-width="0.500000" />
<path stroke="#b7b9a7" stroke-opacity="0.501961" fill="none" d="M 232.523887 111.936000 Q 221.703902 102.058528, 182.243622 107.191471" stroke-width="0.500000" />
<path stroke="#cccdc2" stroke-opacity="0.501961" fill="none" d="M 131.472024 37.393695 Q 218.516458 9.776643, 233.511804 -4.542215" stroke-width="0.500000" />
<path stroke="#f8e1a6" stroke-opacity="0.501961" fill="none" d="M 34.970065 17.168373 Q 22.246375 18.538055, -2.842051 28.999822" stroke-width="0.500000" />
<path stroke="#aaaf9d" stroke-opacity="0.501961" fill="none" d="M 161.250740 85.096331 Q 148.370891 90.785235, 137.277398 95.964726" stroke-width="0.500000" />
<path stroke="#af9600" stroke-opacity="0.501961" fill="none" d="M 149.598820 120.855319 Q 156.621860 122.723588, 175.136694 117.864041" stroke-width="0.500000" />
<path stroke="#2d3b48" stroke-opacity="0.501961" fill="none" d="M 230.861731 113.118722 Q 240.239306 110.021961, 266.622776 106.968250" stroke-width="0.500000" />
<path stroke="#8c966d" stroke-opacity="0.501961" fill="none" d="M 124.479315 141.192463 Q 126.886953 149.000628, 129.761782 149.749213" stroke-width="0.500000" />
<path stroke="#bcaa1e" stroke-opacity="0.501961" fill="none" d="M 67.253068 127.797425 Q 57.954371 134.542037, 49.358318 134.870891" stroke-width="0.500000" />
<path stroke="#d8c97d" stroke-opacity="0.501961" fill="none" d="M 47.107982 132.092896 Q 81.686479 121.743603, 83.516690 121.896724" stroke-width="0.500000" />
<path stroke="#e6dfbe" stroke-opacity="0.501961" fill="none" d="M -16.000000 128.663013 Q 33.804527 132.058620, 58.660560 108.294984" stroke-width="0.500000" />
<path stroke="#164393" stroke-opacity="0.501961" fill="none" d="M 15.813408 167.977106 Q 22.114306 150.813001, -16.000000 138.473613" stroke-width="0.500000" />
<path stroke="#13418f" stroke-opacity="0.501961" fill="none" d="M 235.014775 114.151803 Q 232.398742 139.538375, 256.799232 132.571090" stroke-width="0.500000" />
<path stroke="#a5a28a" stroke-opacity="0.501961" fill="none" d="M 31.979433 132.336665 Q 60.233030 120.148764, 79.625042 120.633751" stroke-width="0.500000" />
<path stroke="#1c272d" stroke-opacity="0.501961" fill="none" d="M 142.393552 203.015448 Q 122.695519 175.551361, 137.221861 154.302812" stroke-width="0.500000" />
<path stroke="#cb9100" stroke-opacity="0.501961" fill="none" d="M 96.917721 106.238934 Q 84.296534 106.783211, 73.343990 107.176419" stroke-width="0.500000" />
<path stroke="#ccd3d5" stroke-opacity="0.501961" fill="none" d="M 34.943242 127.681215 Q 14.683912 127.691093, -16.000000 137.839746" stroke-width="0.500000" />
<path stroke="#d2cba1" stroke-opacity="0.501961" fill="none" d="M 167.890063 39.478060 Q 111.715980 21.354190, 98.749159 39.890908" stroke-width="0.500000" />
<path stroke="#787866" stroke-opacity="0.501961" fill="none" d="M 132.908573 109.618271 Q 125.080584 95.579319, 105.379193 104.981924" stroke-width="0.500000" />
<path stroke="#262e30" stroke-opacity="0.501961" fill="none" d="M 195.718591 116.845600 Q 194.415631 121.381542, 218.293135 207.000000" stroke-width="0.500000" />
<path stroke="#1e65bd" stroke-opacity="0.501961" fill="none" d="M 95.845797 207.000000 Q 128.086927 175.565889, 157.884226 207.000000" stroke-width="0.500000" />
<path stroke="#a58910" stroke-opacity="0.501961" fill="none" d="M 134.294100 155.661496 Q 133.961088 132.106190, 100.807204 121.996571" stroke-width="0.500000" />
<path stroke="#134494" stroke-opacity="0.501961" fill="none" d="M 91.003846 186.998554 Q 99.584701 171.454124, 86.027915 163.995032" stroke-width="0.500000" />
<path stroke="#d7cfa3" stroke-opacity="0.501961" fill="none" d="M 2.839110 101.857717 Q 78.554033 95.144124, 100.897641 99.178910" stroke-width="0.500000" />
<path stroke="#262e2d" stroke-opacity="0.501961" fill="none" d="M 93.316918 134.378424 Q 93.558812 190.776860, 106.152128 207.000000" stroke-width="0.500000" />
<path stroke="#2f322c" stroke-opacity="0.501961" fill="none" d="M 125.532831 153.663278 Q 75.075646 162.522091, 24.253904 169.273165" stroke-width="0.500000" />
<path stroke="#1854ad" stroke-opacity="0.501961" fill="none" d="M 238.357042 144.203478 Q 255.886882 135.832204, 266.073033 141.791594" stroke-width="0.500000" />
<path stroke="#173f83" stroke-opacity="0.501961" fill="none" d="M 56.603541 170.669434 Q 49.455427 166.984192, 29.989515 173.913843" stroke-width="0.500000" />
<path stroke="#173d72" stroke-opacity="0.501961" fill="none" d="M 188.587292 173.714259 Q 226.014489 168.427617, 229.406871 168.503125" stroke-width="0.500000" />
<path stroke="#123465" stroke-opacity="0.501961" fill="none" d="M 229.187840 141.652764 Q 233.459762 141.127654, 246.115602 204.687100" stroke-width="0.500000" />
<path stroke="#614a19" stroke-opacity="0.501961" fill="none" d="M 127.328903 119.885313 Q 116.563257 114.420240, 127.012828 100.515315" stroke-width="0.500000" />
<path stroke="#bcc6c5" stroke-opacity="0.501961" fill="none" d="M 215.999052 106.331585 Q 203.025002 39.681095, 119.935602 54.357963" stroke-width="0.500000" />
<path stroke="#c1c5c1" stroke-opacity="0.501961" fill="none" d="M 265.504890 -16.000000 Q 249.921549 19.665395, 123.904681 31.396192" stroke-width="0.500000" />
<path stroke="#d0cfc5" stroke-opacity="0.501961" fill="none" d="M 125.512514 36.837114 Q 165.893951 38.550289, 194.057316 35.195242" stroke-width="0.500000" />
<path stroke="#ba8c07" stroke-opacity="0.501961" fill="none" d="M 96.503660 124.402313 Q 125.587588 119.637399, 123.625109 140.728830" stroke-width="0.500000" />
<path stroke="#3f433a" stroke-opacity="0.501961" fill="none" d="M 21.004670 141.048955 Q 16.979504 159.824696, 26.801682 178.203740" stroke-width="0.500000" />
<path stroke="#dbdcd2" stroke-opacity="0.501961" fill="none" d="M 69.387360 55.437739 Q 29.505909 55.905129, -16.000000 60.178635" stroke-width="0.500000" />
<path stroke="#1d2a2a" stroke-opacity="0.501961" fill="none" d="M 47.680401 138.333025 Q 55.552403 138.028733, 58.637464 164.103429" stroke-width="0.500000" />
<path stroke="#bec7c8" stroke-opacity="0.501961" fill="none" d="M 256.139242 60.348266 Q 187.056113 92.427697, 171.895984 82.437620" stroke-width="0.500000" />
<path stroke="#847d18" stroke-opacity="0.501961" fill="none" d="M 108.221591 148.813973 Q 110.876313 147.114991, 109.116322 128.896381" stroke-width="0.500000" />
<path stroke="#e5dcb6" stroke-opacity="0.501961" fill="none" d="M 95.417622 26.700783 Q 119.692630 26.050230, 121.098049 12.713030" stroke-width="0.500000" />
<path stroke="#4e5040" stroke-opacity="0.501961" fill="none" d="M 205.995989 174.458691 Q 197.847545 130.213478, 189.709970 113.040494" stroke-width="0.500000" />
<path stroke="#ce9602" stroke-opacity="0.501961" fill="none" d="M 93.915697 106.917470 Q 91.915446 108.981448, 75.994262 104.022466" stroke-width="0.500000" />
<path stroke="#b5a45e" stroke-opacity="0.501961" fill="none" d="M 105.370482 143.838684 Q 99.868973 109.513827, 87.488059 96.402956" stroke-width="0.500000" />
<path stroke="#c79b06" stroke-opacity="0.501961" fill="none" d="M 166.206248 109.349140 Q 157.215145 108.360457, 145.453820 106.466054" stroke-width="0.500000" />
<path stroke="#d4bb70" stroke-opacity="0.501961" fill="none" d="M 46.343204 119.207951 Q 68.751478 113.207422, 91.933468 117.070176" stroke-width="0.500000" />
<path stroke="#b1baad" stroke-opacity="0.501961" fill="none" d="M 56.543052 112.135807 Q 19.107729 118.459381, -16.000000 117.434335" stroke-width="0.500000" />
<path stroke="#103d94" stroke-opacity="0.501961" fill="none" d="M 161.686792 176.593931 Q 139.096814 182.805692, 137.196064 168.128524" stroke-width="0.500000" />
<path stroke="#b0bec1" stroke-opacity="0.501961" fill="none" d="M -16.000000 145.700921 Q 45.101521 136.811562, 47.727388 137.713817" stroke-width="0.500000" />
<path stroke="#fff6bc" stroke-opacity="0.501961" fill="none" d="M 135.728194 33.197892 Q 122.685602 38.709866, 101.266730 30.695098" stroke-width="0.500000" />
<path stroke="#2d6bbe" stroke-opacity="0.501961" fill="none" d="M 86.742239 147.501949 Q 59.774158 142.183895, 61.114404 158.303144" stroke-width="0.500000" />
<path stroke="#22487e" stroke-opacity="0.501961" fill="none" d="M 22.364947 170.099546 Q 27.972789 157.356133, 80.637239 136.035740" stroke-width="0.500000" />
<path stroke="#cfccba" stroke-opacity="0.501961" fill="none" d="M 176.535136 23.445378 Q -8.842430 2.782441, -9.678486 48.402013" stroke-width="0.500000" />
<path stroke="#decb90" stroke-opacity="0.501961" fill="none" d="M 206.984904 30.407590 Q 186.822203 30.119792, 186.008243 28.365452" stroke-width="0.500000" />
<path stroke="#c0c3ae" stroke-opacity="0.501961" fill="none" d="M 7.308915 102.087481 Q 55.993669 105.041216, 64.981775 104.764376" stroke-width="0.500000" />
<path stroke="#ecd456" stroke-opacity="0.501961" fill="none" d="M 66.474734 98.381232 Q 85.726370 106.537568, 101.884493 99.425385" stroke-width="0.500000" />
<path stroke="#b3ae90" stroke-opacity="0.501961" fill="none" d="M 90.411714 131.442938 Q 93.229861 128.917380, 102.866230 129.454018" stroke-width="0.500000" />
<path stroke="#192b48" stroke-opacity="0.501961" fill="none" d="M 211.419808 207.000000 Q 198.467198 144.261425, 192.689969 138.243296" stroke-width="0.500000" />
<path stroke="#674c13" stroke-opacity="0.501961" fill="none" d="M 106.415703 99.916900 Q 103.423804 113.036139, 127.516809 117.444511" stroke-width="0.500000" />
<path stroke="#2d4e7e" stroke-opacity="0.501961" fill="none" d="M 142.071792 123.986018 Q 150.542773 138.928633, 179.816934 120.474948" stroke-width="0.500000" />
<path stroke="#444626" stroke-opacity="0.501961" fill="none" d="M 176.713023 119.372624 Q 157.028742 118.487971, 160.522318 135.387917" stroke-width="0.500000" />
<path stroke="#0f254a" stroke-opacity="0.501961" fill="none" d="M 14.514662 145.155940 Q 25.507287 197.813905, 22.237343 205.374554" stroke-width="0.500000" />
<path stroke="#d9c777" stroke-opacity="0.501961" fill="none" d="M 116.602714 82.872540 Q 103.598338 79.884161, 101.863474 106.303183" stroke-width="0.500000" />
<path stroke="#1d355a" stroke-opacity="0.501961" fill="none" d="M 19.745213 145.873896 Q 22.233459 139.330044, 53.792183 140.401451" stroke-width="0.500000" />
</g>
</svg>