<svg xmlns="http://www.w3.org/2000/svg" version="1.1" width="1024" height="768">
<rect x="0" y="0" width="1024" height="768" fill="#929d99" />
<g transform="scale(4.000000) translate(0.5 0.5)">
<path stroke="#000000" stroke-opacity="0.501961" fill="none" d="M -16.000000 175.450912 Q 68.616626 165.502075, 260.124727 135.693218" stroke-width="0.500000" />
<path stroke="#000000" stroke-opacity="0.501961" fill="none" d="M 271.000000 131.928704 Q 97.839262 160.392097, -14.927770 173.218023" stroke-width="0.500000" />
<path stroke="#000000" stroke-opacity="0.501961" fill="none" d="M 262.104925 136.914316 Q 185.400745 149.146564, -9.748019 176.721601" stroke-width="0.500000" />
<path stroke="#000000" stroke-opacity="0.501961" fill="none" d="M 1.878080 183.852595 Q 27.854270 207.000000, 262.835141 164.188170" stroke-width="0.500000" />
<path stroke="#000000" stroke-opacity="0.501961" fill="none" d="M 260.489938 132.364764 Q 196.482612 144.538056, -16.000000 172.403482" stroke-width="0.500000" />
<path stroke="#00001d" stroke-opacity="0.501961" fill="none" d="M -13.109997 166.426814 Q 72.946981 207.000000, 256.262307 167.638373" stroke-width="0.500000" />
<path stroke="#00002a" stroke-opacity="0.501961" fill="none" d="M 271.000000 161.323133 Q 143.350537 187.856216, -9.381877 188.885629" stroke-width="0.500000" />
<path stroke="#000028" stroke-opacity="0.501961" fill="none" d="M -16.000000 178.310911 Q 242.675916 143.637354, 261.233085 134.688610" stroke-width="0.500000" />
<path stroke="#00001a" stroke-opacity="0.501961" fill="none" d="M 257.133854 166.283150 Q 71.279239 207.000000, -12.209320 161.315867" stroke-width="0.500000" />
<path stroke="#000045" stroke-opacity="0.501961" fill="none" d="M 271.000000 152.385183 Q 257.624845 202.271453, 0.963724 147.172536" stroke-width="0.500000" />
<path stroke="#000040" stroke-opacity="0.501961" fill="none" d="M 249.159349 164.288970 Q 24.702368 207.000000, 11.084616 140.618224" stroke-width="0.500000" />
<path stroke="#00003d" stroke-opacity="0.501961" fill="none" d="M 244.030360 120.601025 Q 240.650269 207.000000, -0.819973 185.164815" stroke-width="0.500000" />
<path stroke="#000042" stroke-opacity="0.501961" fill="none" d="M -16.000000 129.448987 Q 49.746180 197.614573, 271.000000 129.325993" stroke-width="0.500000" />
<path stroke="#000027" stroke-opacity="0.501961" fill="none" d="M -16.000000 161.602174 Q 104.690810 203.079370, 271.000000 162.036112" stroke-width="0.500000" />
<path stroke="#000000" stroke-opacity="0.501961" fill="none" d="M 271.000000 128.397196 Q 271.000000 137.513381, -16.000000 174.528674" stroke-width="0.500000" />
<path stroke="#000067" stroke-opacity="0.501961" fill="none" d="M -16.000000 133.860444 Q 47.695396 196.823436, 271.000000 133.028184" stroke-width="0.500000" />
<path stroke="#000063" stroke-opacity="0.501961" fill="none" d="M 271.000000 190.224514 Q 208.692768 192.113642, -16.000000 190.148213" stroke-width="0.500000" />
<path stroke="#000055" stroke-opacity="0.501961" fill="none" d="M 15.431120 183.014274 Q 251.809598 207.000000, 250.773696 137.908364" stroke-width="0.500000" />
<path stroke="#000b39" stroke-opacity="0.501961" fill="none" d="M 6.934597 169.505514 Q 227.479382 65.765365, 251.230694 192.055635" stroke-width="0.500000" />
<path stroke="#000063" stroke-opacity="0.501961" fill="none" d="M -7.710845 155.025053 Q 80.924031 185.178305, 271.000000 184.089732" stroke-width="0.500000" />
<path stroke="#00017c" stroke-opacity="0.501961" fill="none" d="M 256.040872 144.542567 Q 170.614642 207.000000, -0.741064 150.176966" stroke-width="0.500000" />
<path stroke="#000072" stroke-opacity="0.501961" fill="none" d="M 253.156886 111.300994 Q 247.416933 207.000000, 5.665194 144.435348" stroke-width="0.500000" />
<path stroke="#000053" stroke-opacity="0.501961" fill="none" d="M 271.000000 127.391657 Q 254.908118 135.888471, -9.595094 169.893857" stroke-width="0.500000" />
<path stroke="#000276" stroke-opacity="0.501961" fill="none" d="M 271.000000 191.880022 Q 46.451878 150.297075, -0.392067 191.236889" stroke-width="0.500000" />
<path stroke="#00005b" stroke-opacity="0.501961" fill="none" d="M 271.000000 168.463724 Q 100.621099 207.000000, -3.001156 168.833229" stroke-width="0.500000" />
<path stroke="#00006d" stroke-opacity="0.501961" fill="none" d="M -16.000000 139.375781 Q 110.970651 207.000000, 257.887703 181.265629" stroke-width="0.500000" />
<path stroke="#00037e" stroke-opacity="0.501961" fill="none" d="M -6.757037 145.038922 Q 43.294402 195.071868, 263.732742 137.091528" stroke-width="0.500000" />
<path stroke="#000178" stroke-opacity="0.501961" fill="none" d="M -16.000000 180.316725 Q 60.825086 207.000000, 271.000000 100.449871" stroke-width="0.500000" />
<path stroke="#001042" stroke-opacity="0.501961" fill="none" d="M 252.795154 195.401285 Q 215.384152 64.546024, -7.814393 179.882493" stroke-width="0.500000" />
<path stroke="#00006a" stroke-opacity="0.501961" fill="none" d="M 249.911915 110.015693 Q 84.158954 187.628567, -16.000000 183.443841" stroke-width="0.500000" />
<path stroke="#000577" stroke-opacity="0.501961" fill="none" d="M 3.871155 144.470740 Q 174.670446 207.000000, 254.602735 139.762910" stroke-width="0.500000" />
<path stroke="#000770" stroke-opacity="0.501961" fill="none" d="M -3.810533 146.543832 Q 103.974305 148.321797, 271.000000 186.498954" stroke-width="0.500000" />
<path stroke="#000c88" stroke-opacity="0.501961" fill="none" d="M -0.397998 178.992084 Q 219.634405 186.807145, 249.276589 109.697372" stroke-width="0.500000" />
<path stroke="#00015e" stroke-opacity="0.501961" fill="none" d="M -16.000000 138.118785 Q 151.440975 198.190343, 264.102506 102.541537" stroke-width="0.500000" />
<path stroke="#000030" stroke-opacity="0.501961" fill="none" d="M 1.457198 191.499083 Q 162.835904 187.021924, 271.000000 159.651493" stroke-width="0.500000" />
<path stroke="#000b74" stroke-opacity="0.501961" fill="none" d="M 1.753367 165.356542 Q 230.473843 206.595963, 238.108486 108.767635" stroke-width="0.500000" />
<path stroke="#ffffe7" stroke-opacity="0.501961" fill="none" d="M 160.240034 0.255135 Q -3.270501 -12.883748, 1.805268 133.560769" stroke-width="0.500000" />
<path stroke="#000000" stroke-opacity="0.501961" fill="none" d="M 239.044774 140.137212 Q 36.343212 170.148212, -12.846572 175.716054" stroke-width="0.500000" />
<path stroke="#00097b" stroke-opacity="0.501961" fill="none" d="M -16.000000 183.542762 Q 67.611461 207.000000, 261.691547 105.815066" stroke-width="0.500000" />
<path stroke="#000451" stroke-opacity="0.501961" fill="none" d="M 264.268872 103.448863 Q 77.929199 184.826846, 14.183728 151.767767" stroke-width="0.500000" />
<path stroke="#00056a" stroke-opacity="0.501961" fill="none" d="M 259.010544 125.166415 Q 196.413329 195.521546, 9.223679 143.569946" stroke-width="0.500000" />
<path stroke="#001937" stroke-opacity="0.501961" fill="none" d="M 245.819681 193.458045 Q 239.359329 99.184456, -5.704897 148.861365" stroke-width="0.500000" />
<path stroke="#000366" stroke-opacity="0.501961" fill="none" d="M -16.000000 189.685064 Q 191.263162 190.450047, 254.081752 189.382925" stroke-width="0.500000" />
<path stroke="#00035c" stroke-opacity="0.501961" fill="none" d="M -6.891478 149.524246 Q -1.294688 197.360904, 258.147329 179.074480" stroke-width="0.500000" />
<path stroke="#00117c" stroke-opacity="0.501961" fill="none" d="M -16.000000 156.191928 Q 143.700662 207.000000, 263.209056 105.833756" stroke-width="0.500000" />
<path stroke="#000c6b" stroke-opacity="0.501961" fill="none" d="M -2.976076 145.160344 Q 113.750536 144.216018, 259.555857 182.494267" stroke-width="0.500000" />
<path stroke="#000057" stroke-opacity="0.501961" fill="none" d="M 271.000000 150.311637 Q 244.603679 207.000000, -14.495401 151.922462" stroke-width="0.500000" />
<path stroke="#ffffd2" stroke-opacity="0.501961" fill="none" d="M 257.578862 84.602043 Q 231.047562 -16.000000, -12.161440 1.922744" stroke-width="0.500000" />
<path stroke="#001e45" stroke-opacity="0.501961" fill="none" d="M -8.230072 173.677215 Q 195.780241 69.185138, 253.651464 180.883223" stroke-width="0.500000" />
<path stroke="#001455" stroke-opacity="0.501961" fill="none" d="M 259.507211 106.858530 Q 203.093253 121.632353, -16.000000 187.976166" stroke-width="0.500000" />
<path stroke="#001e50" stroke-opacity="0.501961" fill="none" d="M -15.581864 166.333368 Q 220.642818 74.767841, 259.675708 204.825473" stroke-width="0.500000" />
<path stroke="#000c75" stroke-opacity="0.501961" fill="none" d="M -5.632889 166.695673 Q 225.273930 207.000000, 262.022400 116.842507" stroke-width="0.500000" />
<path stroke="#00188d" stroke-opacity="0.501961" fill="none" d="M -16.000000 188.032230 Q 271.000000 184.367453, 257.775828 84.485265" stroke-width="0.500000" />
<path stroke="#001767" stroke-opacity="0.501961" fill="none" d="M -7.721935 143.975389 Q 120.206643 143.178144, 271.000000 180.370667" stroke-width="0.500000" />
<path stroke="#000047" stroke-opacity="0.501961" fill="none" d="M -8.838157 173.857282 Q 115.642720 207.000000, 271.000000 163.300849" stroke-width="0.500000" />
<path stroke="#001e3f" stroke-opacity="0.501961" fill="none" d="M -0.435147 176.574730 Q 208.296017 92.746975, 264.227077 121.181587" stroke-width="0.500000" />
<path stroke="#000b75" stroke-opacity="0.501961" fill="none" d="M -16.000000 190.567546 Q 255.905929 195.613851, 271.000000 175.852739" stroke-width="0.500000" />
<path stroke="#002145" stroke-opacity="0.501961" fill="none" d="M -6.025306 176.945967 Q 228.405474 78.664815, 258.338119 145.230969" stroke-width="0.500000" />
<path stroke="#001a4e" stroke-opacity="0.501961" fill="none" d="M -13.408390 180.837722 Q 157.336393 74.700223, 266.388323 204.530783" stroke-width="0.500000" />
<path stroke="#001586" stroke-opacity="0.501961" fill="none" d="M -16.000000 175.090459 Q 220.456111 192.153959, 271.000000 89.972855" stroke-width="0.500000" />
<path stroke="#ffffd8" stroke-opacity="0.501961" fill="none" d="M 260.642310 3.958186 Q 248.183846 3.939575, -3.235713 3.963094" stroke-width="0.500000" />
<path stroke="#00147c" stroke-opacity="0.501961" fill="none" d="M 254.873326 186.595780 Q 55.262918 148.676706, 2.088268 187.994091" stroke-width="0.500000" />
<path stroke="#001581" stroke-opacity="0.501961" fill="none" d="M -8.937123 176.478428 Q 98.793894 207.000000, 258.501076 106.898796" stroke-width="0.500000" />
<path stroke="#001d7b" stroke-opacity="0.501961" fill="none" d="M 266.065225 102.378627 Q 235.560811 153.929049, -1.283778 156.390441" stroke-width="0.500000" />
<path stroke="#001177" stroke-opacity="0.501961" fill="none" d="M 241.708186 128.565627 Q 215.841445 207.000000, -7.297877 145.102971" stroke-width="0.500000" />
<path stroke="#ffffd0" stroke-opacity="0.501961" fill="none" d="M 265.191961 5.016093 Q 259.499477 6.819573, -16.000000 5.251134" stroke-width="0.500000" />
<path stroke="#000f71" stroke-opacity="0.501961" fill="none" d="M 257.594441 172.520424 Q 231.075749 203.006757, -2.639858 165.209645" stroke-width="0.500000" />
<path stroke="#ffffd4" stroke-opacity="0.501961" fill="none" d="M -16.000000 26.042506 Q 114.952927 -16.000000, 261.222277 13.630579" stroke-width="0.500000" />
<path stroke="#ffffd0" stroke-opacity="0.501961" fill="none" d="M 255.436691 102.488915 Q 257.036869 -16.000000, -15.226680 12.467735" stroke-width="0.500000" />
<path stroke="#ffffdb" stroke-opacity="0.501961" fill="none" d="M 250.204995 19.439986 Q -16.000000 -16.000000, 0.636172 144.182472" stroke-width="0.500000" />
<path stroke="#000f6a" stroke-opacity="0.501961" fill="none" d="M -10.475578 154.363203 Q 244.185273 207.000000, 258.435761 179.229082" stroke-width="0.500000" />
<path stroke="#ffffca" stroke-opacity="0.501961" fill="none" d="M 249.709787 106.453584 Q 251.086020 -16.000000, 0.401838 15.244377" stroke-width="0.500000" />
<path stroke="#001241" stroke-opacity="0.501961" fill="none" d="M 257.015423 106.802543 Q 129.666685 155.179743, -16.000000 177.640071" stroke-width="0.500000" />
<path stroke="#00244c" stroke-opacity="0.501961" fill="none" d="M 3.483016 144.659718 Q 248.239335 121.557732, 255.090083 177.062621" stroke-width="0.500000" />
<path stroke="#00225c" stroke-opacity="0.501961" fill="none" d="M 254.855635 189.066314 Q 226.398733 74.074934, -8.029531 185.482780" stroke-width="0.500000" />
<path stroke="#ffffd1" stroke-opacity="0.501961" fill="none" d="M 257.351415 9.155516 Q 15.757842 5.086185, 2.023093 145.261078" stroke-width="0.500000" />
<path stroke="#ffffe6" stroke-opacity="0.501961" fill="none" d="M -1.879117 -2.418016 Q 50.020991 149.412842, 271.000000 -4.508382" stroke-width="0.500000" />
<path stroke="#ffffd0" stroke-opacity="0.501961" fill="none" d="M 245.346536 5.863931 Q -8.256598 15.526263, 8.578595 137.531603" stroke-width="0.500000" />
<path stroke="#ffffd3" stroke-opacity="0.501961" fill="none" d="M 240.194525 4.441023 Q -16.000000 -16.000000, -0.242179 109.348013" stroke-width="0.500000" />
<path stroke="#001986" stroke-opacity="0.501961" fill="none" d="M 249.061785 114.866465 Q 225.133034 204.220695, 23.842468 143.062445" stroke-width="0.500000" />
<path stroke="#ffffcd" stroke-opacity="0.501961" fill="none" d="M -8.620512 17.944102 Q 236.908443 -16.000000, 249.422793 108.552425" stroke-width="0.500000" />
<path stroke="#001579" stroke-opacity="0.501961" fill="none" d="M 271.000000 100.479596 Q 64.415138 199.906014, -1.311979 181.464824" stroke-width="0.500000" />
<path stroke="#001f71" stroke-opacity="0.501961" fill="none" d="M -16.000000 134.378827 Q 8.390745 172.441103, 271.000000 128.342638" stroke-width="0.500000" />
<path stroke="#002846" stroke-opacity="0.501961" fill="none" d="M -16.000000 161.655200 Q 223.396698 80.242401, 253.342019 192.452240" stroke-width="0.500000" />
<path stroke="#002155" stroke-opacity="0.501961" fill="none" d="M -16.000000 189.017817 Q 52.912055 160.504114, 249.897804 108.799536" stroke-width="0.500000" />
<path stroke="#001a7e" stroke-opacity="0.501961" fill="none" d="M -16.000000 154.048197 Q 77.288987 191.525493, 271.000000 137.976539" stroke-width="0.500000" />
<path stroke="#ffffef" stroke-opacity="0.501961" fill="none" d="M 271.000000 53.217069 Q 3.825956 125.427616, -1.351228 -0.335820" stroke-width="0.500000" />
<path stroke="#001b82" stroke-opacity="0.501961" fill="none" d="M 264.957756 142.964222 Q 47.289706 161.892503, -16.000000 201.744776" stroke-width="0.500000" />
<path stroke="#001473" stroke-opacity="0.501961" fill="none" d="M 261.661938 160.428711 Q 34.088650 207.000000, 1.910712 157.067949" stroke-width="0.500000" />
<path stroke="#ffffd7" stroke-opacity="0.501961" fill="none" d="M 250.308299 106.185258 Q 263.057992 -16.000000, -16.000000 4.163558" stroke-width="0.500000" />
<path stroke="#ffffe2" stroke-opacity="0.501961" fill="none" d="M -4.470994 -13.253847 Q 50.222076 153.518102, 271.000000 -8.828834" stroke-width="0.500000" />
<path stroke="#ffffd8" stroke-opacity="0.501961" fill="none" d="M 3.152871 140.827608 Q 35.099529 5.153573, 271.000000 31.096821" stroke-width="0.500000" />
<path stroke="#010600" stroke-opacity="0.501961" fill="none" d="M 28.724899 167.377882 Q 271.000000 134.742322, 270.728738 133.101434" stroke-width="0.500000" />
<path stroke="#001367" stroke-opacity="0.501961" fill="none" d="M 252.219220 170.778235 Q 228.184428 201.852969, 8.290238 164.656652" stroke-width="0.500000" />
<path stroke="#fffee5" stroke-opacity="0.501961" fill="none" d="M 255.950327 9.510479 Q 39.694516 143.481955, -0.507380 23.280518" stroke-width="0.500000" />
<path stroke="#ffffd9" stroke-opacity="0.501961" fill="none" d="M 6.864261 130.031960 Q -16.000000 -16.000000, 261.102922 11.445525" stroke-width="0.500000" />
<path stroke="#fffddb" stroke-opacity="0.501961" fill="none" d="M 2.939118 133.353494 Q -7.014491 2.174303, 250.928500 28.141062" stroke-width="0.500000" />
<path stroke="#00050d" stroke-opacity="0.501961" fill="none" d="M 17.894144 182.351666 Q 48.508529 207.000000, 254.840685 165.448074" stroke-width="0.500000" />
<path stroke="#002270" stroke-opacity="0.501961" fill="none" d="M -16.000000 170.667439 Q 5.671408 115.987601, 260.385606 176.608269" stroke-width="0.500000" />
<path stroke="#ffffdd" stroke-opacity="0.501961" fill="none" d="M 1.514992 -4.882413 Q -4.869383 109.618807, 255.161199 77.576277" stroke-width="0.500000" />
<path stroke="#ffffd3" stroke-opacity="0.501961" fill="none" d="M 2.008481 143.080955 Q 59.703509 -1.442830, 245.497006 13.183221" stroke-width="0.500000" />
<path stroke="#00295c" stroke-opacity="0.501961" fill="none" d="M 271.000000 163.508764 Q 245.103912 69.835776, -16.000000 186.196895" stroke-width="0.500000" />
<path stroke="#001e80" stroke-opacity="0.501961" fill="none" d="M -6.269518 153.949614 Q 243.922518 191.075160, 271.000000 143.266205" stroke-width="0.500000" />
<path stroke="#ffffd0" stroke-opacity="0.501961" fill="none" d="M -16.000000 8.760024 Q 255.705240 7.201761, 239.313389 109.634148" stroke-width="0.500000" />
<path stroke="#ffffd4" stroke-opacity="0.501961" fill="none" d="M -13.988761 3.896012 Q 205.668073 75.214491, 271.000000 -8.321352" stroke-width="0.500000" />
<path stroke="#fffede" stroke-opacity="0.501961" fill="none" d="M -1.160323 -12.562694 Q 47.189954 144.687124, 255.329939 -0.032524" stroke-width="0.500000" />
<path stroke="#fffce4" stroke-opacity="0.501961" fill="none" d="M 265.564112 6.003269 Q 39.719429 147.870170, -1.405825 28.979239" stroke-width="0.500000" />
<path stroke="#001675" stroke-opacity="0.501961" fill="none" d="M -16.000000 189.013162 Q 32.847852 189.237615, 268.505412 187.015991" stroke-width="0.500000" />
<path stroke="#ffffd3" stroke-opacity="0.501961" fill="none" d="M -16.000000 64.838379 Q 227.154762 -16.000000, 259.981598 115.358490" stroke-width="0.500000" />
<path stroke="#002873" stroke-opacity="0.501961" fill="none" d="M -16.000000 134.575463 Q 15.793347 194.891627, 244.036412 109.300410" stroke-width="0.500000" />
<path stroke="#00146d" stroke-opacity="0.501961" fill="none" d="M -16.000000 119.210347 Q -0.960963 192.971067, 247.284615 191.482000" stroke-width="0.500000" />
<path stroke="#ffffd1" stroke-opacity="0.501961" fill="none" d="M -15.456584 23.205176 Q 141.283918 -16.000000, 247.659202 107.499176" stroke-width="0.500000" />
<path stroke="#002881" stroke-opacity="0.501961" fill="none" d="M 260.334191 163.622308 Q 9.809288 144.052522, -16.000000 145.459808" stroke-width="0.500000" />
<path stroke="#ffffda" stroke-opacity="0.501961" fill="none" d="M 270.809180 57.020266 Q 271.000000 -14.159255, 0.607456 6.511200" stroke-width="0.500000" />
<path stroke="#fffdcb" stroke-opacity="0.501961" fill="none" d="M 269.072999 4.543747 Q -12.145700 6.074254, 4.691169 144.046234" stroke-width="0.500000" />
<path stroke="#fffeda" stroke-opacity="0.501961" fill="none" d="M 237.583404 74.092933 Q 3.678225 106.172202, 0.878686 -5.044785" stroke-width="0.500000" />
<path stroke="#ffffda" stroke-opacity="0.501961" fill="none" d="M 254.152360 104.087138 Q 12.519573 -16.000000, -7.580454 18.265265" stroke-width="0.500000" />
<path stroke="#00257a" stroke-opacity="0.501961" fill="none" d="M 259.975260 107.783398 Q 179.907050 136.186388, -8.369267 190.876701" stroke-width="0.500000" />
<path stroke="#fffadd" stroke-opacity="0.501961" fill="none" d="M 256.407488 17.039678 Q -12.547124 27.550366, 11.114379 134.213961" stroke-width="0.500000" />
<path stroke="#001d78" stroke-opacity="0.501961" fill="none" d="M -9.966700 150.771301 Q 47.571098 140.066345, 271.000000 188.852752" stroke-width="0.500000" />
<path stroke="#002a5e" stroke-opacity="0.501961" fill="none" d="M -3.316397 163.305394 Q 223.676124 78.883676, 250.448607 207.000000" stroke-width="0.500000" />
<path stroke="#001a62" stroke-opacity="0.501961" fill="none" d="M -7.250548 168.985382 Q 251.281750 207.000000, 255.227859 119.136608" stroke-width="0.500000" />
<path stroke="#ffffd6" stroke-opacity="0.501961" fill="none" d="M 267.653934 111.190466 Q 98.137575 -8.750310, -16.000000 20.882155" stroke-width="0.500000" />
<path stroke="#003174" stroke-opacity="0.501961" fill="none" d="M 6.594846 143.223472 Q 252.195085 143.425877, 271.000000 120.484348" stroke-width="0.500000" />
<path stroke="#ffffd5" stroke-opacity="0.501961" fill="none" d="M 2.325813 89.873725 Q -11.234204 -16.000000, 220.393048 8.748836" stroke-width="0.500000" />
<path stroke="#001668" stroke-opacity="0.501961" fill="none" d="M 260.866999 161.263589 Q 253.102613 201.084239, -16.000000 160.307705" stroke-width="0.500000" />
<path stroke="#fff9e1" stroke-opacity="0.501961" fill="none" d="M 0.269063 13.390886 Q 6.433197 115.408058, 259.625113 63.995277" stroke-width="0.500000" />
<path stroke="#fffcdc" stroke-opacity="0.501961" fill="none" d="M 255.315321 104.794371 Q 6.180858 26.774306, 3.104687 -3.897531" stroke-width="0.500000" />
<path stroke="#fffbdb" stroke-opacity="0.501961" fill="none" d="M 245.951515 -2.268070 Q 52.918305 144.335614, -1.746847 -16.000000" stroke-width="0.500000" />
<path stroke="#00092d" stroke-opacity="0.501961" fill="none" d="M 271.000000 132.014975 Q 271.000000 142.388592, -2.114481 173.655058" stroke-width="0.500000" />
<path stroke="#ffffd1" stroke-opacity="0.501961" fill="none" d="M 271.000000 29.183821 Q 3.319373 26.714899, 2.612304 75.366725" stroke-width="0.500000" />
<path stroke="#002892" stroke-opacity="0.501961" fill="none" d="M -3.780275 180.136601 Q 264.257778 191.914249, 267.623365 68.497981" stroke-width="0.500000" />
<path stroke="#ffffce" stroke-opacity="0.501961" fill="none" d="M 251.448445 106.842894 Q 229.310944 0.528242, 2.012868 1.768275" stroke-width="0.500000" />
<path stroke="#ffffd4" stroke-opacity="0.501961" fill="none" d="M -16.000000 11.834220 Q 76.696905 -16.000000, 260.857568 103.424379" stroke-width="0.500000" />
<path stroke="#fff5c5" stroke-opacity="0.501961" fill="none" d="M 1.643630 0.728918 Q 55.295911 178.028698, 259.576278 21.666800" stroke-width="0.500000" />
<path stroke="#002c55" stroke-opacity="0.501961" fill="none" d="M 264.992075 117.939428 Q 242.355225 89.521355, -10.272449 185.661418" stroke-width="0.500000" />
<path stroke="#fff8da" stroke-opacity="0.501961" fill="none" d="M 246.462859 23.519626 Q -3.611882 -16.000000, 15.393699 130.260090" stroke-width="0.500000" />
<path stroke="#002686" stroke-opacity="0.501961" fill="none" d="M -16.000000 148.406303 Q 19.547925 180.690619, 271.000000 153.657650" stroke-width="0.500000" />
<path stroke="#00080c" stroke-opacity="0.501961" fill="none" d="M 56.219888 181.852829 Q 61.228149 207.000000, 267.636230 163.788502" stroke-width="0.500000" />
<path stroke="#001d75" stroke-opacity="0.501961" fill="none" d="M -16.000000 173.037220 Q 247.532606 207.000000, 271.000000 178.026878" stroke-width="0.500000" />
<path stroke="#ffffc9" stroke-opacity="0.501961" fill="none" d="M 249.173995 107.622806 Q 186.709243 -16.000000, -10.358760 11.574690" stroke-width="0.500000" />
<path stroke="#ffffce" stroke-opacity="0.501961" fill="none" d="M 265.638112 19.708837 Q 2.528846 -16.000000, -1.331004 47.710137" stroke-width="0.500000" />
<path stroke="#070c00" stroke-opacity="0.501961" fill="none" d="M -16.000000 174.462514 Q 214.916968 143.995228, 256.831893 136.684000" stroke-width="0.500000" />
<path stroke="#fff9ca" stroke-opacity="0.501961" fill="none" d="M 271.000000 63.057444 Q 4.391202 123.809461, -0.999854 16.548575" stroke-width="0.500000" />
<path stroke="#002379" stroke-opacity="0.501961" fill="none" d="M 254.066467 106.548540 Q 237.075729 207.000000, 14.071848 149.922229" stroke-width="0.500000" />
<path stroke="#f8f5e0" stroke-opacity="0.501961" fill="none" d="M -1.783275 34.181137 Q 44.490264 148.642726, 271.000000 4.515945" stroke-width="0.500000" />
<path stroke="#00296c" stroke-opacity="0.501961" fill="none" d="M 271.000000 183.654240 Q 23.497937 117.662541, -2.227734 153.934966" stroke-width="0.500000" />
<path stroke="#fff9cd" stroke-opacity="0.501961" fill="none" d="M 247.744513 0.510512 Q -16.000000 15.435683, 4.117545 127.452232" stroke-width="0.500000" />
<path stroke="#f4f3df" stroke-opacity="0.501961" fill="none" d="M 246.664608 109.486144 Q 123.815782 -16.000000, -3.413190 144.665226" stroke-width="0.500000" />
<path stroke="#fff8c7" stroke-opacity="0.501961" fill="none" d="M 15.558899 134.414896 Q 14.456837 0.680139, 271.000000 43.127128" stroke-width="0.500000" />
<path stroke="#fffad8" stroke-opacity="0.501961" fill="none" d="M 5.060993 0.654769 Q 237.036736 93.752504, 271.000000 114.262489" stroke-width="0.500000" />
<path stroke="#001577" stroke-opacity="0.501961" fill="none" d="M 108.970580 192.064954 Q 183.200185 88.375828, 260.727354 125.848607" stroke-width="0.500000" />
<path stroke="#00298d" stroke-opacity="0.501961" fill="none" d="M -7.393936 184.296122 Q 200.523280 192.646212, 271.000000 91.514792" stroke-width="0.500000" />
<path stroke="#fdf6cf" stroke-opacity="0.501961" fill="none" d="M -6.097531 -16.000000 Q 14.020145 59.494814, 271.000000 110.540589" stroke-width="0.500000" />
<path stroke="#002180" stroke-opacity="0.501961" fill="none" d="M 247.781651 115.755723 Q 149.714408 207.000000, -1.699728 145.136579" stroke-width="0.500000" />
<path stroke="#fff9d6" stroke-opacity="0.501961" fill="none" d="M 258.585044 28.063149 Q 6.640886 -16.000000, 2.671660 91.503800" stroke-width="0.500000" />
<path stroke="#013464" stroke-opacity="0.501961" fill="none" d="M 255.418231 186.760221 Q 231.807764 71.260235, -16.000000 170.953934" stroke-width="0.500000" />
<path stroke="#fff8d6" stroke-opacity="0.501961" fill="none" d="M 260.821202 106.118781 Q 34.479103 -16.000000, 1.661954 28.135651" stroke-width="0.500000" />
<path stroke="#ffffc7" stroke-opacity="0.501961" fill="none" d="M -0.891178 79.220481 Q -3.438876 -12.114138, 271.000000 3.948921" stroke-width="0.500000" />
<path stroke="#f6f5e2" stroke-opacity="0.501961" fill="none" d="M 4.476058 143.571594 Q 44.391987 9.316696, 247.666744 103.929815" stroke-width="0.500000" />
<path stroke="#f9bf00" stroke-opacity="0.501961" fill="none" d="M 65.403390 85.690824 Q 87.444081 164.832668, 185.563982 101.596555" stroke-width="0.500000" />
<path stroke="#000d4c" stroke-opacity="0.501961" fill="none" d="M 269.507052 137.314150 Q 145.584178 118.612749, 78.879351 207.000000" stroke-width="0.500000" />
<path stroke="#ffface" stroke-opacity="0.501961" fill="none" d="M 266.651766 31.520723 Q 187.160615 6.952504, 2.814577 129.118606" stroke-width="0.500000" />
<path stroke="#002373" stroke-opacity="0.501961" fill="none" d="M 259.213957 178.648670 Q 3.974278 121.974797, -16.000000 187.982424" stroke-width="0.500000" />
<path stroke="#002d8a" stroke-opacity="0.501961" fill="none" d="M 255.721532 147.810062 Q 243.678024 189.601038, -16.000000 141.345317" stroke-width="0.500000" />
<path stroke="#001f78" stroke-opacity="0.501961" fill="none" d="M 262.744053 193.213835 Q 24.610830 149.759324, -16.000000 188.827756" stroke-width="0.500000" />
<path stroke="#fff5d0" stroke-opacity="0.501961" fill="none" d="M 258.368028 8.914928 Q -6.839045 25.500861, 11.878126 129.570529" stroke-width="0.500000" />
<path stroke="#003481" stroke-opacity="0.501961" fill="none" d="M -8.042172 154.033149 Q 240.079313 147.429561, 251.677956 105.974821" stroke-width="0.500000" />
<path stroke="#002c90" stroke-opacity="0.501961" fill="none" d="M 271.000000 110.292011 Q 82.957653 207.000000, -6.100646 182.020607" stroke-width="0.500000" />
<path stroke="#fffac8" stroke-opacity="0.501961" fill="none" d="M 36.261908 139.080583 Q 17.214880 5.472763, 271.000000 7.052359" stroke-width="0.500000" />
<path stroke="#f6f6e6" stroke-opacity="0.501961" fill="none" d="M 243.481307 58.686852 Q 14.474316 114.969015, 4.504182 -8.590646" stroke-width="0.500000" />
<path stroke="#001f73" stroke-opacity="0.501961" fill="none" d="M 254.873674 191.209896 Q 198.481922 191.194348, 1.099712 172.802776" stroke-width="0.500000" />
<path stroke="#dd9f00" stroke-opacity="0.501961" fill="none" d="M 202.266891 108.737184 Q 160.920128 107.298498, 42.976852 108.018046" stroke-width="0.500000" />
<path stroke="#002b77" stroke-opacity="0.501961" fill="none" d="M -4.196144 153.131510 Q 20.629106 186.735613, 263.672175 112.695100" stroke-width="0.500000" />
<path stroke="#002378" stroke-opacity="0.501961" fill="none" d="M 253.528735 170.210649 Q 247.481543 199.354156, -11.847540 176.066802" stroke-width="0.500000" />
<path stroke="#002e98" stroke-opacity="0.501961" fill="none" d="M 258.107214 149.947499 Q 21.921089 207.000000, -16.000000 186.174155" stroke-width="0.500000" />
<path stroke="#2e1800" stroke-opacity="0.501961" fill="none" d="M 161.767033 197.891904 Q 183.292257 98.293046, 101.799553 111.248789" stroke-width="0.500000" />
<path stroke="#fff7d3" stroke-opacity="0.501961" fill="none" d="M -0.742807 -16.000000 Q 59.723403 146.744075, 245.994133 -9.987035" stroke-width="0.500000" />
<path stroke="#f4f1d9" stroke-opacity="0.501961" fill="none" d="M 13.208027 138.878496 Q 59.062816 -16.000000, 226.304137 105.780495" stroke-width="0.500000" />
<path stroke="#00254d" stroke-opacity="0.501961" fill="none" d="M 91.973643 177.890814 Q 195.411549 51.734521, 271.000000 205.255132" stroke-width="0.500000" />
<path stroke="#fbf1c4" stroke-opacity="0.501961" fill="none" d="M -4.952990 -0.264398 Q 84.112659 183.376111, 271.000000 0.891663" stroke-width="0.500000" />
<path stroke="#002d5a" stroke-opacity="0.501961" fill="none" d="M -16.000000 149.781321 Q 252.933378 113.741848, 252.074350 207.000000" stroke-width="0.500000" />
<path stroke="#fcf5d0" stroke-opacity="0.501961" fill="none" d="M 261.098286 80.472235 Q 191.001258 129.667251, -14.358079 -11.822969" stroke-width="0.500000" />
<path stroke="#d29100" stroke-opacity="0.501961" fill="none" d="M 182.949517 103.921382 Q 39.878329 131.274676, 35.720936 140.863424" stroke-width="0.500000" />
<path stroke="#fff6d3" stroke-opacity="0.501961" fill="none" d="M 3.052974 98.285666 Q -7.866215 -16.000000, 269.630740 14.984964" stroke-width="0.500000" />
<path stroke="#ffffc3" stroke-opacity="0.501961" fill="none" d="M 271.000000 24.609633 Q 238.908221 -16.000000, -16.000000 16.801948" stroke-width="0.500000" />
<path stroke="#efb500" stroke-opacity="0.501961" fill="none" d="M 200.546751 107.109530 Q 132.501662 136.927724, 52.956291 117.111497" stroke-width="0.500000" />
<path stroke="#ffffc8" stroke-opacity="0.501961" fill="none" d="M -16.000000 3.121509 Q 232.941438 -8.179198, 248.446119 94.596106" stroke-width="0.500000" />
<path stroke="#002171" stroke-opacity="0.501961" fill="none" d="M 257.445905 147.969248 Q 234.583280 207.000000, 9.616298 183.518703" stroke-width="0.500000" />
<path stroke="#ffeda3" stroke-opacity="0.501961" fill="none" d="M 254.453939 15.657760 Q 258.236293 103.481225, -6.272643 101.111823" stroke-width="0.500000" />
<path stroke="#00061d" stroke-opacity="0.501961" fill="none" d="M 85.525538 132.909822 Q 97.552029 205.757653, 247.263610 163.929820" stroke-width="0.500000" />
<path stroke="#f5eec8" stroke-opacity="0.501961" fill="none" d="M -4.999945 30.356322 Q 52.530280 163.428742, 264.586202 14.269140" stroke-width="0.500000" />
<path stroke="#05355d" stroke-opacity="0.501961" fill="none" d="M 9.129354 191.157470 Q 19.782156 161.975217, 242.569351 109.834729" stroke-width="0.500000" />
<path stroke="#003191" stroke-opacity="0.501961" fill="none" d="M -6.612685 175.571154 Q 255.344101 178.491860, 253.394317 120.693661" stroke-width="0.500000" />
<path stroke="#faf4da" stroke-opacity="0.501961" fill="none" d="M 229.384937 109.352221 Q 31.780362 -16.000000, -2.624921 78.972974" stroke-width="0.500000" />
<path stroke="#f8eec2" stroke-opacity="0.501961" fill="none" d="M -2.525310 10.418473 Q 62.554346 176.285594, 263.376090 20.596337" stroke-width="0.500000" />
<path stroke="#fbf2ce" stroke-opacity="0.501961" fill="none" d="M 8.462439 132.318119 Q 179.098640 17.376843, 245.930456 1.176983" stroke-width="0.500000" />
<path stroke="#002578" stroke-opacity="0.501961" fill="none" d="M 271.000000 135.207838 Q 48.670338 186.413897, 6.947141 155.397323" stroke-width="0.500000" />
<path stroke="#4e3800" stroke-opacity="0.501961" fill="none" d="M 209.301725 193.682600 Q 194.779552 81.931368, 82.921279 124.083115" stroke-width="0.500000" />
<path stroke="#fffbc5" stroke-opacity="0.501961" fill="none" d="M 245.675653 104.101256 Q 178.648548 -16.000000, -15.846325 15.545599" stroke-width="0.500000" />
<path stroke="#f7b700" stroke-opacity="0.501961" fill="none" d="M 186.829155 111.771572 Q 97.118687 139.051917, 57.955451 104.383864" stroke-width="0.500000" />
<path stroke="#fdf4cf" stroke-opacity="0.501961" fill="none" d="M 236.596124 -4.293008 Q 64.586234 134.893245, 6.550571 -8.499666" stroke-width="0.500000" />
<path stroke="#fff9c4" stroke-opacity="0.501961" fill="none" d="M 24.076057 141.236576 Q 18.718102 38.003071, 240.494534 -0.761892" stroke-width="0.500000" />
<path stroke="#fff8ce" stroke-opacity="0.501961" fill="none" d="M 3.474842 21.373454 Q 50.044688 -16.000000, 269.009592 108.276550" stroke-width="0.500000" />
<path stroke="#002c84" stroke-opacity="0.501961" fill="none" d="M 16.076612 159.167876 Q 235.588882 207.000000, 255.551740 118.215777" stroke-width="0.500000" />
<path stroke="#fff6ce" stroke-opacity="0.501961" fill="none" d="M -16.000000 -10.799770 Q 38.484276 72.417768, 271.000000 -1.121748" stroke-width="0.500000" />
<path stroke="#001b70" stroke-opacity="0.501961" fill="none" d="M 102.427044 194.160414 Q 196.100795 76.686295, 252.763868 135.278718" stroke-width="0.500000" />
<path stroke="#00379b" stroke-opacity="0.501961" fill="none" d="M -16.000000 187.328039 Q -16.000000 184.455500, 267.858423 147.404003" stroke-width="0.500000" />
<path stroke="#00193d" stroke-opacity="0.501961" fill="none" d="M 7.686606 168.379654 Q 10.178965 207.000000, 271.000000 167.583476" stroke-width="0.500000" />
<path stroke="#001853" stroke-opacity="0.501961" fill="none" d="M 70.937910 206.250287 Q 199.087094 77.769954, 268.759206 197.785925" stroke-width="0.500000" />
<path stroke="#fffac6" stroke-opacity="0.501961" fill="none" d="M 250.272447 22.338895 Q 1.403909 -12.247322, -0.069798 58.331332" stroke-width="0.500000" />
<path stroke="#ffffc5" stroke-opacity="0.501961" fill="none" d="M 266.783715 30.417280 Q 35.176337 31.064508, -16.000000 67.438443" stroke-width="0.500000" />
<path stroke="#00206d" stroke-opacity="0.501961" fill="none" d="M 40.322206 139.432704 Q 174.106511 207.000000, 265.935465 177.428382" stroke-width="0.500000" />
<path stroke="#ffefaf" stroke-opacity="0.501961" fill="none" d="M -0.197588 -16.000000 Q 144.864188 170.718058, 270.905190 69.442235" stroke-width="0.500000" />
<path stroke="#e8a600" stroke-opacity="0.501961" fill="none" d="M 180.405521 117.357541 Q 96.521607 118.234626, 45.284620 136.707548" stroke-width="0.500000" />
<path stroke="#f5edc2" stroke-opacity="0.501961" fill="none" d="M 265.006324 -3.679816 Q 40.669138 115.589876, -3.044269 146.399313" stroke-width="0.500000" />
<path stroke="#00225d" stroke-opacity="0.501961" fill="none" d="M 254.666353 118.788661 Q 36.557243 192.368277, 13.831663 159.909315" stroke-width="0.500000" />
<path stroke="#033461" stroke-opacity="0.501961" fill="none" d="M -16.000000 182.821339 Q 181.878196 73.493718, 271.000000 202.661910" stroke-width="0.500000" />
<path stroke="#002262" stroke-opacity="0.501961" fill="none" d="M 259.344742 119.130053 Q 247.331041 205.506348, 13.746550 188.158397" stroke-width="0.500000" />
<path stroke="#fdf1c3" stroke-opacity="0.501961" fill="none" d="M -8.698895 153.416174 Q 46.235796 29.187332, 271.000000 26.959693" stroke-width="0.500000" />
<path stroke="#4d3200" stroke-opacity="0.501961" fill="none" d="M 172.081137 207.000000 Q 179.244306 89.754639, 83.991568 108.716761" stroke-width="0.500000" />
<path stroke="#fef1cc" stroke-opacity="0.501961" fill="none" d="M 14.594116 136.900263 Q -16.000000 -16.000000, 215.055292 16.400863" stroke-width="0.500000" />
<path stroke="#ffffdd" stroke-opacity="0.501961" fill="none" d="M 3.467243 130.726930 Q -16.000000 -16.000000, 133.403667 3.107891" stroke-width="0.500000" />
<path stroke="#fcf3c3" stroke-opacity="0.501961" fill="none" d="M 0.317087 10.996512 Q 8.106107 121.971439, 271.000000 69.018192" stroke-width="0.500000" />
<path stroke="#f5f0d8" stroke-opacity="0.501961" fill="none" d="M 271.000000 -7.680791 Q 60.500734 146.941684, -0.219160 13.235111" stroke-width="0.500000" />
<path stroke="#eeb500" stroke-opacity="0.501961" fill="none" d="M 69.577507 92.092554 Q 98.563263 166.081360, 176.897103 101.367225" stroke-width="0.500000" />
<path stroke="#002a78" stroke-opacity="0.501961" fill="none" d="M -16.000000 150.213698 Q 237.675747 156.593363, 254.359192 197.010596" stroke-width="0.500000" />
<path stroke="#00297b" stroke-opacity="0.501961" fill="none" d="M 30.353840 147.614761 Q 230.021431 198.645176, 249.285031 147.135837" stroke-width="0.500000" />
<path stroke="#00399b" stroke-opacity="0.501961" fill="none" d="M 269.540941 150.403005 Q 21.622873 179.263942, -1.289654 192.301298" stroke-width="0.500000" />
<path stroke="#fef2c6" stroke-opacity="0.501961" fill="none" d="M 271.000000 4.109970 Q 141.814034 -16.000000, 11.634340 136.681492" stroke-width="0.500000" />
<path stroke="#ffffd1" stroke-opacity="0.501961" fill="none" d="M 209.566049 6.583201 Q -16.000000 -16.000000, -1.426680 93.804925" stroke-width="0.500000" />
<path stroke="#002b73" stroke-opacity="0.501961" fill="none" d="M 261.449738 124.289427 Q 78.665589 174.824096, -15.451031 150.100456" stroke-width="0.500000" />
<path stroke="#d49c00" stroke-opacity="0.501961" fill="none" d="M 44.303942 107.571811 Q 152.899262 101.658714, 196.143099 114.223204" stroke-width="0.500000" />
<path stroke="#fdf5c8" stroke-opacity="0.501961" fill="none" d="M -16.000000 -1.535599 Q 230.256189 18.209044, 271.000000 136.177998" stroke-width="0.500000" />
<path stroke="#f9f0cf" stroke-opacity="0.501961" fill="none" d="M 271.000000 25.052254 Q 6.041666 4.343567, 5.711593 131.569016" stroke-width="0.500000" />
<path stroke="#efecd5" stroke-opacity="0.501961" fill="none" d="M 264.575031 10.304791 Q 50.340966 155.243556, -3.631172 22.545521" stroke-width="0.500000" />
<path stroke="#f7eec4" stroke-opacity="0.501961" fill="none" d="M 267.074966 58.701233 Q 209.945804 160.688706, -6.860659 6.272425" stroke-width="0.500000" />
<path stroke="#001121" stroke-opacity="0.501961" fill="none" d="M 84.462504 130.584541 Q 100.256176 201.694092, 248.644501 165.311400" stroke-width="0.500000" />
<path stroke="#eaece0" stroke-opacity="0.501961" fill="none" d="M -16.000000 183.921421 Q -2.411669 58.822553, 257.890726 63.103647" stroke-width="0.500000" />
<path stroke="#003c7c" stroke-opacity="0.501961" fill="none" d="M -12.851710 179.132252 Q -11.015044 122.222857, 256.562027 159.247583" stroke-width="0.500000" />
<path stroke="#fffecd" stroke-opacity="0.501961" fill="none" d="M 192.630226 0.202659 Q -16.000000 -16.000000, 11.506647 144.103149" stroke-width="0.500000" />
<path stroke="#fcf5c9" stroke-opacity="0.501961" fill="none" d="M 258.489369 97.187254 Q 68.431703 -16.000000, 4.572072 6.920347" stroke-width="0.500000" />
<path stroke="#eae9d8" stroke-opacity="0.501961" fill="none" d="M 246.282325 106.253240 Q 75.450305 -9.471228, -0.015693 132.441519" stroke-width="0.500000" />
<path stroke="#f8f1d3" stroke-opacity="0.501961" fill="none" d="M 4.071417 100.074459 Q -5.652685 14.915868, 264.094001 27.424418" stroke-width="0.500000" />
<path stroke="#001f69" stroke-opacity="0.501961" fill="none" d="M 271.000000 154.504424 Q 157.191540 62.587332, 118.520554 207.000000" stroke-width="0.500000" />
<path stroke="#fff0a4" stroke-opacity="0.501961" fill="none" d="M 271.000000 56.092825 Q 26.680288 124.111185, -16.000000 84.925002" stroke-width="0.500000" />
<path stroke="#523f00" stroke-opacity="0.501961" fill="none" d="M 71.007938 105.609538 Q 217.514052 111.285792, 210.003919 194.145562" stroke-width="0.500000" />
<path stroke="#f7edc2" stroke-opacity="0.501961" fill="none" d="M 256.049834 6.286502 Q 201.133817 -16.000000, 16.787823 142.230725" stroke-width="0.500000" />
<path stroke="#e4b300" stroke-opacity="0.501961" fill="none" d="M 67.001073 97.532510 Q 103.083902 166.666509, 180.559022 100.257138" stroke-width="0.500000" />
<path stroke="#002e87" stroke-opacity="0.501961" fill="none" d="M 241.831291 111.565806 Q 207.891898 205.004039, -16.000000 179.417678" stroke-width="0.500000" />
<path stroke="#f5efcc" stroke-opacity="0.501961" fill="none" d="M -16.000000 -3.695305 Q 217.788440 133.593446, 253.928416 94.178249" stroke-width="0.500000" />
<path stroke="#03407f" stroke-opacity="0.501961" fill="none" d="M 270.542329 125.869798 Q 212.519388 118.461575, -16.000000 169.512898" stroke-width="0.500000" />
<path stroke="#002d78" stroke-opacity="0.501961" fill="none" d="M 271.000000 194.682916 Q 11.156540 122.496834, -1.537668 184.921162" stroke-width="0.500000" />
<path stroke="#e2a400" stroke-opacity="0.501961" fill="none" d="M 48.431719 137.790434 Q 94.864014 114.737868, 194.933282 115.421753" stroke-width="0.500000" />
<path stroke="#d39600" stroke-opacity="0.501961" fill="none" d="M 192.537266 101.586896 Q 88.074827 119.729053, 47.023385 133.782143" stroke-width="0.500000" />
<path stroke="#ffffca" stroke-opacity="0.501961" fill="none" d="M 255.298094 54.957043 Q 224.273800 -16.000000, 0.005945 9.722314" stroke-width="0.500000" />
<path stroke="#003b9a" stroke-opacity="0.501961" fill="none" d="M -11.034883 179.498888 Q 28.888311 178.813403, 271.000000 144.340511" stroke-width="0.500000" />
<path stroke="#fff4ab" stroke-opacity="0.501961" fill="none" d="M 153.195907 86.880071 Q -9.066100 138.081902, 2.271830 3.487888" stroke-width="0.500000" />
<path stroke="#e8eadb" stroke-opacity="0.501961" fill="none" d="M 17.961169 141.123816 Q 46.357720 11.031190, 271.000000 84.866926" stroke-width="0.500000" />
<path stroke="#ecb500" stroke-opacity="0.501961" fill="none" d="M 180.520796 108.565988 Q 86.589535 154.778684, 70.482362 88.942797" stroke-width="0.500000" />
<path stroke="#0c1914" stroke-opacity="0.501961" fill="none" d="M 271.000000 129.539022 Q 1.680151 182.291171, -16.000000 165.194442" stroke-width="0.500000" />
<path stroke="#f2efd1" stroke-opacity="0.501961" fill="none" d="M 271.000000 84.774247 Q 241.653376 132.519461, -10.962220 -8.381046" stroke-width="0.500000" />
<path stroke="#3f431f" stroke-opacity="0.501961" fill="none" d="M -16.000000 147.669055 Q 230.257149 112.018767, 252.946930 108.747769" stroke-width="0.500000" />
<path stroke="#003b9e" stroke-opacity="0.501961" fill="none" d="M -4.420387 183.211807 Q 34.301184 207.000000, 261.908888 137.694734" stroke-width="0.500000" />
<path stroke="#002c7a" stroke-opacity="0.501961" fill="none" d="M 254.273782 162.936205 Q 241.121404 200.812034, -5.641216 188.246197" stroke-width="0.500000" />
<path stroke="#fff7cd" stroke-opacity="0.501961" fill="none" d="M 0.810091 4.456084 Q 268.655413 -16.000000, 255.727007 97.808075" stroke-width="0.500000" />
<path stroke="#f3ebc4" stroke-opacity="0.501961" fill="none" d="M -16.000000 -2.519718 Q 203.405713 127.616620, 256.108037 104.683149" stroke-width="0.500000" />
<path stroke="#e9e6ca" stroke-opacity="0.501961" fill="none" d="M -16.000000 21.076107 Q 48.740903 170.604366, 271.000000 5.307499" stroke-width="0.500000" />
<path stroke="#f1e9ce" stroke-opacity="0.501961" fill="none" d="M 247.961873 20.505869 Q -0.226247 -14.050980, 2.087986 144.365587" stroke-width="0.500000" />
<path stroke="#00216f" stroke-opacity="0.501961" fill="none" d="M 74.134535 205.017133 Q 224.224002 74.817365, 271.000000 143.421532" stroke-width="0.500000" />
<path stroke="#c68700" stroke-opacity="0.501961" fill="none" d="M 132.249430 152.933334 Q 142.044348 103.638550, 54.155658 105.775337" stroke-width="0.500000" />
<path stroke="#f6f1cd" stroke-opacity="0.501961" fill="none" d="M -16.000000 9.282673 Q -1.640079 -12.948123, 271.000000 91.825301" stroke-width="0.500000" />
<path stroke="#003f85" stroke-opacity="0.501961" fill="none" d="M -2.053897 148.935576 Q 162.287924 155.803274, 264.557162 105.552873" stroke-width="0.500000" />
<path stroke="#043c77" stroke-opacity="0.501961" fill="none" d="M -3.384834 163.499871 Q 11.480130 125.320811, 266.237575 158.231061" stroke-width="0.500000" />
<path stroke="#00040d" stroke-opacity="0.501961" fill="none" d="M 174.134915 173.048752 Q 89.438705 207.000000, 90.866619 134.647247" stroke-width="0.500000" />
<path stroke="#002b7d" stroke-opacity="0.501961" fill="none" d="M 244.450562 115.753225 Q 67.440836 207.000000, 8.688859 173.864434" stroke-width="0.500000" />
<path stroke="#fffacd" stroke-opacity="0.501961" fill="none" d="M 32.340591 129.011951 Q -9.637513 -16.000000, 191.417786 3.642738" stroke-width="0.500000" />
<path stroke="#22221e" stroke-opacity="0.501961" fill="none" d="M 99.144681 114.295252 Q 221.900468 124.368527, 211.755471 207.000000" stroke-width="0.500000" />
<path stroke="#f1ebcb" stroke-opacity="0.501961" fill="none" d="M 271.000000 15.111894 Q 20.600613 10.920516, 18.841000 134.945812" stroke-width="0.500000" />
<path stroke="#fef0c1" stroke-opacity="0.501961" fill="none" d="M 271.000000 2.299348 Q -11.804568 23.004680, 17.726368 143.886609" stroke-width="0.500000" />
<path stroke="#362800" stroke-opacity="0.501961" fill="none" d="M 169.719657 207.000000 Q 174.602746 94.003657, 103.872481 114.614171" stroke-width="0.500000" />
<path stroke="#002c74" stroke-opacity="0.501961" fill="none" d="M 226.216540 119.744324 Q 28.320685 207.000000, 3.706399 155.789360" stroke-width="0.500000" />
<path stroke="#f8e8b8" stroke-opacity="0.501961" fill="none" d="M 6.685004 -8.522170 Q -7.358101 124.628748, 271.000000 95.371660" stroke-width="0.500000" />
<path stroke="#e5e8df" stroke-opacity="0.501961" fill="none" d="M 0.482586 17.778408 Q 58.844762 122.758808, 271.000000 45.517324" stroke-width="0.500000" />
<path stroke="#e0a500" stroke-opacity="0.501961" fill="none" d="M 141.680897 153.751341 Q 84.850518 89.779803, 51.195768 115.457059" stroke-width="0.500000" />
<path stroke="#eae9d8" stroke-opacity="0.501961" fill="none" d="M 271.000000 110.887762 Q 199.025222 -10.751005, 11.113786 129.739710" stroke-width="0.500000" />
<path stroke="#001e3b" stroke-opacity="0.501961" fill="none" d="M -16.000000 178.763960 Q 239.002281 139.792269, 271.000000 139.110753" stroke-width="0.500000" />
<path stroke="#f1eed3" stroke-opacity="0.501961" fill="none" d="M -10.963450 -10.832423 Q 216.482668 118.340886, 255.757374 75.260298" stroke-width="0.500000" />
<path stroke="#001a44" stroke-opacity="0.501961" fill="none" d="M 76.734998 189.781812 Q 267.875452 180.059086, 268.942211 160.577184" stroke-width="0.500000" />
<path stroke="#f4e8b6" stroke-opacity="0.501961" fill="none" d="M 259.686087 83.861812 Q 215.246696 163.835793, -0.152351 12.846916" stroke-width="0.500000" />
<path stroke="#00348b" stroke-opacity="0.501961" fill="none" d="M -7.400677 179.875547 Q 239.146487 139.350099, 255.985297 155.308077" stroke-width="0.500000" />
<path stroke="#f7ecca" stroke-opacity="0.501961" fill="none" d="M 253.058628 16.346722 Q -7.961212 -9.345880, 3.897119 105.447326" stroke-width="0.500000" />
<path stroke="#c99600" stroke-opacity="0.501961" fill="none" d="M 135.650926 153.316976 Q 135.763288 76.548670, 59.928767 112.757196" stroke-width="0.500000" />
<path stroke="#003997" stroke-opacity="0.501961" fill="none" d="M -4.026992 191.350477 Q 245.662178 173.896130, 256.965231 142.675481" stroke-width="0.500000" />
<path stroke="#fffbc0" stroke-opacity="0.501961" fill="none" d="M -1.481883 18.386204 Q 230.974630 -8.675767, 254.153881 23.296552" stroke-width="0.500000" />
<path stroke="#002f81" stroke-opacity="0.501961" fill="none" d="M 268.371587 179.539660 Q 164.514826 207.000000, 21.329750 173.136071" stroke-width="0.500000" />
<path stroke="#d8a100" stroke-opacity="0.501961" fill="none" d="M 180.580811 117.888575 Q 67.697074 125.266039, 46.672091 137.153785" stroke-width="0.500000" />
<path stroke="#f3eac1" stroke-opacity="0.501961" fill="none" d="M 28.198672 139.619437 Q 8.663738 39.953940, 271.000000 23.215264" stroke-width="0.500000" />
<path stroke="#f0edd4" stroke-opacity="0.501961" fill="none" d="M 222.664273 94.603520 Q 25.811386 -6.393080, 1.304317 66.476792" stroke-width="0.500000" />
<path stroke="#043b72" stroke-opacity="0.501961" fill="none" d="M -0.847474 179.812426 Q 31.757935 86.149369, 258.195808 207.000000" stroke-width="0.500000" />
<path stroke="#2b2100" stroke-opacity="0.501961" fill="none" d="M 127.999685 101.343738 Q 77.629499 121.504249, 102.193872 195.006156" stroke-width="0.500000" />
<path stroke="#000207" stroke-opacity="0.501961" fill="none" d="M 194.392642 115.142535 Q 210.625258 176.980902, 218.275116 205.582280" stroke-width="0.500000" />
<path stroke="#f6f1cf" stroke-opacity="0.501961" fill="none" d="M 241.714276 96.752835 Q 46.558076 0.532168, -11.503306 0.625402" stroke-width="0.500000" />
<path stroke="#012e62" stroke-opacity="0.501961" fill="none" d="M 98.494875 192.171364 Q 187.507008 54.652417, 271.000000 193.176539" stroke-width="0.500000" />
<path stroke="#e3e5d8" stroke-opacity="0.501961" fill="none" d="M 2.635997 147.794023 Q 31.021541 8.544048, 265.888509 92.474692" stroke-width="0.500000" />
<path stroke="#e2ac03" stroke-opacity="0.501961" fill="none" d="M 167.849585 96.087744 Q 117.323509 170.881388, 75.821516 99.237968" stroke-width="0.500000" />
<path stroke="#4d3100" stroke-opacity="0.501961" fill="none" d="M 99.594107 113.986480 Q 170.275502 89.968953, 169.070977 180.038503" stroke-width="0.500000" />
<path stroke="#f2b000" stroke-opacity="0.501961" fill="none" d="M 158.688929 104.153900 Q 110.154394 160.198503, 78.541818 97.154022" stroke-width="0.500000" />
<path stroke="#eeeacd" stroke-opacity="0.501961" fill="none" d="M 3.175846 2.621405 Q 234.929959 129.140243, 271.000000 92.875727" stroke-width="0.500000" />
<path stroke="#00257b" stroke-opacity="0.501961" fill="none" d="M 271.000000 132.250785 Q 184.903294 85.337147, 105.236292 199.167945" stroke-width="0.500000" />
<path stroke="#f9efc0" stroke-opacity="0.501961" fill="none" d="M 246.368293 100.951596 Q 231.141516 -8.568911, -10.424936 17.162415" stroke-width="0.500000" />
<path stroke="#e5e4cc" stroke-opacity="0.501961" fill="none" d="M 250.710167 78.952199 Q 129.425126 -11.458430, 13.104810 140.534443" stroke-width="0.500000" />
<path stroke="#003579" stroke-opacity="0.501961" fill="none" d="M -5.354760 160.762635 Q 268.945553 148.930403, 271.000000 107.003198" stroke-width="0.500000" />
<path stroke="#e8e7d0" stroke-opacity="0.501961" fill="none" d="M -7.863887 4.505289 Q 203.175948 144.871108, 262.435756 10.970539" stroke-width="0.500000" />
<path stroke="#d89800" stroke-opacity="0.501961" fill="none" d="M 112.404730 151.570252 Q 103.115896 109.676057, 184.567892 108.136984" stroke-width="0.500000" />
<path stroke="#ab8100" stroke-opacity="0.501961" fill="none" d="M 134.550601 181.685073 Q 141.294344 84.277590, 44.186123 110.208430" stroke-width="0.500000" />
<path stroke="#131c1d" stroke-opacity="0.501961" fill="none" d="M -2.038571 170.369273 Q 225.842783 141.206762, 254.162241 133.692242" stroke-width="0.500000" />
<path stroke="#07130e" stroke-opacity="0.501961" fill="none" d="M -16.000000 207.000000 Q 11.045612 200.782956, 223.739436 169.476391" stroke-width="0.500000" />
<path stroke="#e4e6d8" stroke-opacity="0.501961" fill="none" d="M -16.000000 128.091364 Q 235.567897 10.228942, 262.427989 101.826301" stroke-width="0.500000" />
<path stroke="#e7e6d3" stroke-opacity="0.501961" fill="none" d="M -2.115188 41.435931 Q 48.473944 140.594800, 247.141811 20.740839" stroke-width="0.500000" />
<path stroke="#0043a0" stroke-opacity="0.501961" fill="none" d="M -14.729982 176.583935 Q 234.333576 181.246186, 271.000000 124.526342" stroke-width="0.500000" />
<path stroke="#e7e7d7" stroke-opacity="0.501961" fill="none" d="M 7.113674 137.135803 Q 109.956916 0.211740, 231.567083 103.997900" stroke-width="0.500000" />
<path stroke="#fffed2" stroke-opacity="0.501961" fill="none" d="M 148.891018 3.162968 Q -15.157110 -15.722341, 37.098349 133.435190" stroke-width="0.500000" />
<path stroke="#f3e9b8" stroke-opacity="0.501961" fill="none" d="M 271.000000 93.252141 Q 6.300281 112.399317, 3.750555 1.630055" stroke-width="0.500000" />
<path stroke="#003699" stroke-opacity="0.501961" fill="none" d="M 255.872278 189.743449 Q 255.867763 92.053650, 144.594712 139.824635" stroke-width="0.500000" />
<path stroke="#d8b004" stroke-opacity="0.501961" fill="none" d="M 178.263832 116.599682 Q 166.831646 121.892184, 46.289599 135.053109" stroke-width="0.500000" />
<path stroke="#00419c" stroke-opacity="0.501961" fill="none" d="M 0.990866 190.102494 Q 73.075993 164.326665, 261.790951 162.587126" stroke-width="0.500000" />
<path stroke="#f4c42e" stroke-opacity="0.501961" fill="none" d="M 190.533892 114.699016 Q 83.243136 73.426765, 48.519571 137.074210" stroke-width="0.500000" />
<path stroke="#060b02" stroke-opacity="0.501961" fill="none" d="M 231.194232 110.876798 Q 236.991903 151.155378, 251.950341 195.789937" stroke-width="0.500000" />
<path stroke="#fdf3c6" stroke-opacity="0.501961" fill="none" d="M 0.634134 7.909992 Q 233.206113 -13.261843, 249.338034 86.677024" stroke-width="0.500000" />
<path stroke="#003281" stroke-opacity="0.501961" fill="none" d="M 255.946065 207.000000 Q 39.445810 108.563223, -4.678569 160.720124" stroke-width="0.500000" />
<path stroke="#ece8d0" stroke-opacity="0.501961" fill="none" d="M -2.839990 -11.383532 Q 59.951939 148.884433, 259.827988 -5.713102" stroke-width="0.500000" />
<path stroke="#eee5b1" stroke-opacity="0.501961" fill="none" d="M -9.443860 126.594081 Q 42.005166 57.336094, 239.048313 109.359782" stroke-width="0.500000" />
<path stroke="#efeaca" stroke-opacity="0.501961" fill="none" d="M 9.618710 -10.328025 Q 19.928802 63.028227, 245.852064 106.305821" stroke-width="0.500000" />
<path stroke="#d49f00" stroke-opacity="0.501961" fill="none" d="M 46.370071 125.757093 Q 99.875710 75.062868, 139.130774 154.819241" stroke-width="0.500000" />
<path stroke="#3e2700" stroke-opacity="0.501961" fill="none" d="M 101.907031 188.173440 Q 69.205720 118.660152, 143.078605 106.617904" stroke-width="0.500000" />
<path stroke="#f7eccc" stroke-opacity="0.501961" fill="none" d="M 264.707912 -14.568606 Q 259.168675 64.610714, -16.000000 23.766876" stroke-width="0.500000" />
<path stroke="#f4ecc3" stroke-opacity="0.501961" fill="none" d="M 229.636163 -7.107547 Q 22.672718 138.169756, 6.083873 131.346319" stroke-width="0.500000" />
<path stroke="#ffffd5" stroke-opacity="0.501961" fill="none" d="M 22.646555 109.226603 Q -16.000000 -16.000000, 126.429165 6.137230" stroke-width="0.500000" />
<path stroke="#f9ebc3" stroke-opacity="0.501961" fill="none" d="M 4.942617 129.801674 Q -16.000000 15.456366, 253.817410 0.885480" stroke-width="0.500000" />
<path stroke="#001633" stroke-opacity="0.501961" fill="none" d="M 262.803966 163.484309 Q 143.799134 203.151807, 81.627183 158.437688" stroke-width="0.500000" />
<path stroke="#fff0b5" stroke-opacity="0.501961" fill="none" d="M 262.915015 21.023915 Q 166.839536 49.992141, -8.181899 20.138626" stroke-width="0.500000" />
<path stroke="#00347a" stroke-opacity="0.501961" fill="none" d="M 271.000000 167.537300 Q 202.395268 142.537600, -16.000000 166.871357" stroke-width="0.500000" />
<path stroke="#003f9b" stroke-opacity="0.501961" fill="none" d="M 256.752135 147.442886 Q 223.698810 187.304845, -16.000000 176.601330" stroke-width="0.500000" />
<path stroke="#003179" stroke-opacity="0.501961" fill="none" d="M 257.768403 122.692760 Q -2.930896 200.752924, -16.000000 192.246379" stroke-width="0.500000" />
<path stroke="#1a415b" stroke-opacity="0.501961" fill="none" d="M 271.000000 129.927012 Q -5.373966 137.820218, -16.000000 149.748385" stroke-width="0.500000" />
<path stroke="#4c3300" stroke-opacity="0.501961" fill="none" d="M 105.584053 101.340692 Q 110.488100 102.386732, 144.997552 202.801278" stroke-width="0.500000" />
<path stroke="#141800" stroke-opacity="0.501961" fill="none" d="M -4.232063 207.000000 Q 268.811450 162.516071, 271.000000 169.367940" stroke-width="0.500000" />
<path stroke="#faeec8" stroke-opacity="0.501961" fill="none" d="M -11.015277 -1.932964 Q 8.848855 87.461186, 264.150602 -4.013509" stroke-width="0.500000" />
<path stroke="#fff5c9" stroke-opacity="0.501961" fill="none" d="M 142.345460 9.903712 Q -16.000000 -16.000000, 33.849616 137.670790" stroke-width="0.500000" />
<path stroke="#e2e3d0" stroke-opacity="0.501961" fill="none" d="M 240.293065 94.908049 Q 55.627074 -16.000000, 11.607159 139.582604" stroke-width="0.500000" />
<path stroke="#004199" stroke-opacity="0.501961" fill="none" d="M -9.825553 183.515071 Q 252.828621 184.288045, 252.234641 121.185001" stroke-width="0.500000" />
<path stroke="#002b7d" stroke-opacity="0.501961" fill="none" d="M 254.525344 130.581151 Q 194.496343 81.360713, 89.147740 207.000000" stroke-width="0.500000" />
<path stroke="#001f63" stroke-opacity="0.501961" fill="none" d="M 271.000000 185.668194 Q 90.207720 207.000000, 92.667540 131.950538" stroke-width="0.500000" />
<path stroke="#d1a60d" stroke-opacity="0.501961" fill="none" d="M 161.114942 90.975628 Q 135.298400 171.911547, 64.860429 107.450947" stroke-width="0.500000" />
<path stroke="#efeccd" stroke-opacity="0.501961" fill="none" d="M 268.989433 51.657869 Q 234.230436 98.121609, 3.598939 -1.692967" stroke-width="0.500000" />
<path stroke="#fff6bb" stroke-opacity="0.501961" fill="none" d="M 111.300846 92.704116 Q -16.000000 132.969315, 10.697600 3.490571" stroke-width="0.500000" />
<path stroke="#dda701" stroke-opacity="0.501961" fill="none" d="M 189.143227 103.259198 Q 119.437775 94.076307, 111.061597 151.885802" stroke-width="0.500000" />
<path stroke="#c49400" stroke-opacity="0.501961" fill="none" d="M 53.659359 123.280670 Q 111.196726 71.261052, 140.912865 150.390784" stroke-width="0.500000" />
<path stroke="#002878" stroke-opacity="0.501961" fill="none" d="M 251.357820 118.368652 Q 151.938452 98.907898, 127.055194 186.075705" stroke-width="0.500000" />
<path stroke="#b48900" stroke-opacity="0.501961" fill="none" d="M 110.585261 154.791643 Q 102.374897 96.556709, 174.313903 88.948315" stroke-width="0.500000" />
<path stroke="#f6dd82" stroke-opacity="0.501961" fill="none" d="M 225.271958 108.810980 Q 83.407044 72.706580, 18.336290 139.072836" stroke-width="0.500000" />
<path stroke="#ede6c8" stroke-opacity="0.501961" fill="none" d="M 260.273180 56.537764 Q 18.311054 136.267712, -12.929371 -16.000000" stroke-width="0.500000" />
<path stroke="#f2ebc1" stroke-opacity="0.501961" fill="none" d="M -16.000000 -3.167212 Q 47.073621 4.254048, 271.000000 75.321585" stroke-width="0.500000" />
<path stroke="#faecc1" stroke-opacity="0.501961" fill="none" d="M 255.837969 4.875941 Q 15.589554 15.650682, 5.822362 116.671642" stroke-width="0.500000" />
<path stroke="#004197" stroke-opacity="0.501961" fill="none" d="M 271.000000 160.722437 Q 65.243502 158.823958, -2.966275 186.644382" stroke-width="0.500000" />
<path stroke="#003c93" stroke-opacity="0.501961" fill="none" d="M -16.000000 193.275500 Q 221.442614 185.556660, 271.000000 89.410912" stroke-width="0.500000" />
<path stroke="#ede9cc" stroke-opacity="0.501961" fill="none" d="M 271.000000 70.225658 Q 14.738852 115.353450, 7.609542 2.069058" stroke-width="0.500000" />
<path stroke="#543b00" stroke-opacity="0.501961" fill="none" d="M 122.479302 95.531330 Q 122.015428 133.614574, 136.489234 192.161000" stroke-width="0.500000" />
<path stroke="#f3e8c9" stroke-opacity="0.501961" fill="none" d="M 248.050347 0.276730 Q 15.461988 3.553300, 5.646452 90.472014" stroke-width="0.500000" />
<path stroke="#dba500" stroke-opacity="0.501961" fill="none" d="M 54.569801 133.472804 Q 89.540578 117.346931, 188.244135 116.345272" stroke-width="0.500000" />
<path stroke="#002769" stroke-opacity="0.501961" fill="none" d="M 255.844646 151.567302 Q 210.185816 87.265610, 85.575325 199.167897" stroke-width="0.500000" />
<path stroke="#dddfd0" stroke-opacity="0.501961" fill="none" d="M 253.595311 108.542206 Q 50.407687 21.850534, 18.235699 145.946432" stroke-width="0.500000" />
<path stroke="#0c0e05" stroke-opacity="0.501961" fill="none" d="M 231.808966 113.642205 Q 231.829298 179.177309, 262.908222 207.000000" stroke-width="0.500000" />
<path stroke="#fff1b0" stroke-opacity="0.501961" fill="none" d="M -13.733769 122.803252 Q 105.088774 145.660343, 104.339423 0.338792" stroke-width="0.500000" />
<path stroke="#00266f" stroke-opacity="0.501961" fill="none" d="M -16.000000 159.792182 Q 88.080608 109.629529, 140.396377 186.057668" stroke-width="0.500000" />
<path stroke="#003077" stroke-opacity="0.501961" fill="none" d="M -16.000000 177.979715 Q 271.000000 207.000000, 271.000000 143.714966" stroke-width="0.500000" />
<path stroke="#d8a407" stroke-opacity="0.501961" fill="none" d="M 53.561422 121.544709 Q 96.086686 82.672706, 135.978147 156.289000" stroke-width="0.500000" />
<path stroke="#002d6f" stroke-opacity="0.501961" fill="none" d="M 1.856896 151.824120 Q 256.161310 185.605653, 271.000000 189.842430" stroke-width="0.500000" />
<path stroke="#0d3c6a" stroke-opacity="0.501961" fill="none" d="M 16.800620 158.110318 Q 220.419639 95.795674, 251.256480 203.240541" stroke-width="0.500000" />
<path stroke="#ffffd1" stroke-opacity="0.501961" fill="none" d="M 158.765415 2.031870 Q -16.000000 -3.469047, 3.955381 88.054783" stroke-width="0.500000" />
<path stroke="#e8e6cc" stroke-opacity="0.501961" fill="none" d="M -5.319159 -16.000000 Q -10.631726 23.391367, 232.156441 101.374093" stroke-width="0.500000" />
<path stroke="#342300" stroke-opacity="0.501961" fill="none" d="M 167.000560 180.826485 Q 166.473159 99.068240, 103.449848 115.629638" stroke-width="0.500000" />
<path stroke="#f7ebbc" stroke-opacity="0.501961" fill="none" d="M 7.026960 19.569828 Q 191.361627 -12.550391, 191.893346 117.421639" stroke-width="0.500000" />
<path stroke="#fcf3cf" stroke-opacity="0.501961" fill="none" d="M 5.112180 10.095877 Q -16.000000 121.004595, 96.902847 92.344453" stroke-width="0.500000" />
<path stroke="#e4e1c9" stroke-opacity="0.501961" fill="none" d="M 256.621946 6.510114 Q 0.907494 77.453238, 12.507859 137.264734" stroke-width="0.500000" />
<path stroke="#003ea5" stroke-opacity="0.501961" fill="none" d="M 147.380100 132.115681 Q 250.862279 99.474560, 255.547178 193.242900" stroke-width="0.500000" />
<path stroke="#f0e8c5" stroke-opacity="0.501961" fill="none" d="M 21.984197 122.629980 Q 14.492063 18.938211, 257.377279 28.418869" stroke-width="0.500000" />
<path stroke="#dfaa00" stroke-opacity="0.501961" fill="none" d="M 71.683129 93.353641 Q 120.340565 150.083237, 144.604083 130.510610" stroke-width="0.500000" />
<path stroke="#3b3500" stroke-opacity="0.501961" fill="none" d="M 125.332856 98.739316 Q 89.741960 115.804876, 151.427190 198.179059" stroke-width="0.500000" />
<path stroke="#e0e0c8" stroke-opacity="0.501961" fill="none" d="M 256.175380 80.500169 Q 134.895991 -16.000000, -5.831419 140.855585" stroke-width="0.500000" />
<path stroke="#fcf2ca" stroke-opacity="0.501961" fill="none" d="M 34.680680 134.767045 Q -6.401993 -16.000000, 200.178851 2.701484" stroke-width="0.500000" />
<path stroke="#eae7cb" stroke-opacity="0.501961" fill="none" d="M 244.992995 103.825264 Q 222.978652 95.789321, -16.000000 -8.805266" stroke-width="0.500000" />
<path stroke="#ece4b9" stroke-opacity="0.501961" fill="none" d="M 232.871397 110.071270 Q 3.254610 74.649445, 10.826764 -16.000000" stroke-width="0.500000" />
<path stroke="#1a1e0a" stroke-opacity="0.501961" fill="none" d="M -11.105882 176.513766 Q 248.709099 138.722780, 259.612170 134.530540" stroke-width="0.500000" />
<path stroke="#e8bb20" stroke-opacity="0.501961" fill="none" d="M 51.157738 133.675989 Q 174.427140 118.966333, 189.220277 107.057162" stroke-width="0.500000" />
<path stroke="#dba600" stroke-opacity="0.501961" fill="none" d="M 187.130649 111.516317 Q 124.482701 89.611097, 114.128990 152.246264" stroke-width="0.500000" />
<path stroke="#f5eabf" stroke-opacity="0.501961" fill="none" d="M 271.000000 -4.275524 Q -16.000000 41.645002, 16.501476 142.659778" stroke-width="0.500000" />
<path stroke="#002c73" stroke-opacity="0.501961" fill="none" d="M 265.870594 148.362719 Q 175.192768 72.561618, 115.245107 194.750994" stroke-width="0.500000" />
<path stroke="#ddad04" stroke-opacity="0.501961" fill="none" d="M 67.948792 92.763965 Q 117.589199 154.622420, 143.240031 131.888972" stroke-width="0.500000" />
<path stroke="#e8dfb5" stroke-opacity="0.501961" fill="none" d="M 271.000000 71.447821 Q 227.507725 169.287843, 2.041713 18.499444" stroke-width="0.500000" />
<path stroke="#023e81" stroke-opacity="0.501961" fill="none" d="M 271.000000 189.386012 Q 40.506474 113.870506, -16.000000 171.788081" stroke-width="0.500000" />
<path stroke="#003683" stroke-opacity="0.501961" fill="none" d="M -10.141113 176.054594 Q -0.801460 195.128619, 271.000000 191.037899" stroke-width="0.500000" />
<path stroke="#e4dfb9" stroke-opacity="0.501961" fill="none" d="M -16.000000 13.167209 Q 24.937247 167.951489, 271.000000 27.435486" stroke-width="0.500000" />
<path stroke="#634a00" stroke-opacity="0.501961" fill="none" d="M 103.364587 100.377672 Q 129.033498 98.149407, 138.781603 207.000000" stroke-width="0.500000" />
<path stroke="#00469f" stroke-opacity="0.501961" fill="none" d="M -16.000000 182.269226 Q 230.678806 172.547402, 271.000000 152.115689" stroke-width="0.500000" />
<path stroke="#ffffd3" stroke-opacity="0.501961" fill="none" d="M 115.790109 4.720388 Q -16.000000 -16.000000, 12.256487 113.873592" stroke-width="0.500000" />
<path stroke="#e8e2cb" stroke-opacity="0.501961" fill="none" d="M 268.847725 27.963300 Q -6.545742 -3.598462, -2.087608 127.598954" stroke-width="0.500000" />
<path stroke="#f3e18e" stroke-opacity="0.501961" fill="none" d="M 210.815008 109.151291 Q 159.681856 45.265414, 9.959194 142.104375" stroke-width="0.500000" />
<path stroke="#003276" stroke-opacity="0.501961" fill="none" d="M 0.747696 160.368855 Q 258.237850 203.154560, 271.000000 160.104342" stroke-width="0.500000" />
<path stroke="#fff4ac" stroke-opacity="0.501961" fill="none" d="M -16.000000 8.670303 Q 242.851086 21.809954, 264.479617 -3.900437" stroke-width="0.500000" />
<path stroke="#0c0c00" stroke-opacity="0.501961" fill="none" d="M 180.478042 207.000000 Q 158.193949 163.458157, 161.378724 119.722373" stroke-width="0.500000" />
<path stroke="#b28300" stroke-opacity="0.501961" fill="none" d="M 137.075419 154.804294 Q 151.141904 106.275114, 65.206417 104.299124" stroke-width="0.500000" />
<path stroke="#181801" stroke-opacity="0.501961" fill="none" d="M 228.961526 112.177895 Q 235.501346 137.444962, 248.049621 207.000000" stroke-width="0.500000" />
<path stroke="#dde0d3" stroke-opacity="0.501961" fill="none" d="M 256.854988 85.241658 Q 97.303163 4.839443, 17.619761 145.376159" stroke-width="0.500000" />
<path stroke="#fbecb9" stroke-opacity="0.501961" fill="none" d="M -15.808552 -8.664300 Q 9.298838 47.713369, 261.621396 29.829834" stroke-width="0.500000" />
<path stroke="#c39200" stroke-opacity="0.501961" fill="none" d="M 45.787972 110.688986 Q 135.012100 95.802608, 134.793015 156.125504" stroke-width="0.500000" />
<path stroke="#fff8d1" stroke-opacity="0.501961" fill="none" d="M 21.364742 125.390159 Q -16.000000 -14.914313, 142.689570 3.114901" stroke-width="0.500000" />
<path stroke="#cc8f00" stroke-opacity="0.501961" fill="none" d="M 110.682737 153.210463 Q 104.342255 105.471784, 176.026206 112.641063" stroke-width="0.500000" />
<path stroke="#dfb026" stroke-opacity="0.501961" fill="none" d="M 52.373961 141.325735 Q 83.750863 72.385536, 175.248121 118.625407" stroke-width="0.500000" />
<path stroke="#dee1d6" stroke-opacity="0.501961" fill="none" d="M 12.869477 89.905431 Q 31.721532 9.557506, 267.791429 91.422374" stroke-width="0.500000" />
<path stroke="#003e90" stroke-opacity="0.501961" fill="none" d="M 271.000000 143.821968 Q 130.957433 153.355620, -0.541677 186.657797" stroke-width="0.500000" />
<path stroke="#e3e2c5" stroke-opacity="0.501961" fill="none" d="M -16.000000 -1.113752 Q 202.007064 156.470025, 254.876379 51.420896" stroke-width="0.500000" />
<path stroke="#f6ecba" stroke-opacity="0.501961" fill="none" d="M 247.253853 103.923877 Q 246.065439 -16.000000, -16.000000 12.389653" stroke-width="0.500000" />
<path stroke="#1c1d04" stroke-opacity="0.501961" fill="none" d="M 271.000000 167.768205 Q 246.946287 165.222822, 89.531656 191.331666" stroke-width="0.500000" />
<path stroke="#00419a" stroke-opacity="0.501961" fill="none" d="M 257.930108 109.884613 Q 138.043382 194.197305, -16.000000 186.170075" stroke-width="0.500000" />
<path stroke="#352a0c" stroke-opacity="0.501961" fill="none" d="M 113.475417 194.066126 Q 61.785393 149.823073, 124.096122 96.951163" stroke-width="0.500000" />
<path stroke="#04090b" stroke-opacity="0.501961" fill="none" d="M 211.296602 206.053396 Q 201.197212 160.713258, 192.051337 119.531693" stroke-width="0.500000" />
<path stroke="#00276b" stroke-opacity="0.501961" fill="none" d="M 253.744091 108.454971 Q 169.344970 130.325040, 59.531160 207.000000" stroke-width="0.500000" />
<path stroke="#ebdfa5" stroke-opacity="0.501961" fill="none" d="M 254.672600 34.631207 Q 258.124345 86.892995, -16.000000 107.419242" stroke-width="0.500000" />
<path stroke="#030700" stroke-opacity="0.501961" fill="none" d="M 60.236185 191.114541 Q 60.301203 157.360295, 50.812988 138.291945" stroke-width="0.500000" />
<path stroke="#f0e6bd" stroke-opacity="0.501961" fill="none" d="M -1.446599 34.963276 Q 21.834820 -16.000000, 267.528707 67.593327" stroke-width="0.500000" />
<path stroke="#f5c537" stroke-opacity="0.501961" fill="none" d="M 62.477667 131.268112 Q 122.519515 59.468737, 166.455333 120.048954" stroke-width="0.500000" />
<path stroke="#003d8b" stroke-opacity="0.501961" fill="none" d="M 260.945927 186.631514 Q 14.043930 119.956780, -2.829853 175.444032" stroke-width="0.500000" />
<path stroke="#e3dfbe" stroke-opacity="0.501961" fill="none" d="M -0.551323 21.134616 Q 30.286650 148.357117, 258.853236 39.383245" stroke-width="0.500000" />
<path stroke="#003fa4" stroke-opacity="0.501961" fill="none" d="M 254.392578 199.085376 Q 252.172254 98.598703, 144.289419 136.002469" stroke-width="0.500000" />
<path stroke="#493404" stroke-opacity="0.501961" fill="none" d="M 133.748356 104.471066 Q 66.263083 113.563102, 102.163440 181.855989" stroke-width="0.500000" />
<path stroke="#d9ab00" stroke-opacity="0.501961" fill="none" d="M 47.357209 134.524936 Q 110.089999 104.927075, 141.880779 147.145283" stroke-width="0.500000" />
<path stroke="#00285e" stroke-opacity="0.501961" fill="none" d="M -14.145214 192.010912 Q 78.243451 76.007568, 155.314018 207.000000" stroke-width="0.500000" />
<path stroke="#e4e3d4" stroke-opacity="0.501961" fill="none" d="M -11.990433 12.883138 Q 44.508403 148.189455, 255.930830 0.726436" stroke-width="0.500000" />
<path stroke="#d2a600" stroke-opacity="0.501961" fill="none" d="M 188.970256 111.642749 Q 142.598493 92.349737, 109.079890 154.036456" stroke-width="0.500000" />
<path stroke="#f1eabf" stroke-opacity="0.501961" fill="none" d="M 243.861286 93.504456 Q 209.926960 1.329333, -13.101122 3.759299" stroke-width="0.500000" />
<path stroke="#473700" stroke-opacity="0.501961" fill="none" d="M 146.193652 207.000000 Q 103.613464 108.710475, 125.464366 100.015175" stroke-width="0.500000" />
<path stroke="#f7eebb" stroke-opacity="0.501961" fill="none" d="M 26.065951 139.348362 Q 128.685646 58.766014, 9.880056 2.760265" stroke-width="0.500000" />
<path stroke="#03428e" stroke-opacity="0.501961" fill="none" d="M 20.179089 147.787849 Q 80.449060 173.149112, 258.593922 115.864366" stroke-width="0.500000" />
<path stroke="#003989" stroke-opacity="0.501961" fill="none" d="M -8.502529 188.613560 Q 55.373229 196.052826, 241.673125 185.882310" stroke-width="0.500000" />
<path stroke="#e7e2bc" stroke-opacity="0.501961" fill="none" d="M 232.774763 -14.474714 Q 235.314391 -0.287125, 7.390060 140.860247" stroke-width="0.500000" />
<path stroke="#fffcd3" stroke-opacity="0.501961" fill="none" d="M 93.969022 4.307848 Q -14.209651 -16.000000, 7.442411 104.998504" stroke-width="0.500000" />
<path stroke="#00348c" stroke-opacity="0.501961" fill="none" d="M 143.701821 139.720256 Q 171.544142 99.981068, 271.000000 141.496478" stroke-width="0.500000" />
<path stroke="#f1e9bd" stroke-opacity="0.501961" fill="none" d="M 192.332976 117.922479 Q 204.865235 6.141801, 2.031958 13.175729" stroke-width="0.500000" />
<path stroke="#fbecb9" stroke-opacity="0.501961" fill="none" d="M 99.914451 114.369316 Q -16.000000 111.639692, 18.471860 -6.879239" stroke-width="0.500000" />
<path stroke="#dcdcc7" stroke-opacity="0.501961" fill="none" d="M 239.327306 73.676887 Q 38.997242 -4.123800, 17.403146 132.847830" stroke-width="0.500000" />
<path stroke="#565201" stroke-opacity="0.501961" fill="none" d="M 98.058067 193.281529 Q 83.020007 122.445351, 195.986530 117.437654" stroke-width="0.500000" />
<path stroke="#00357f" stroke-opacity="0.501961" fill="none" d="M 271.000000 157.297613 Q 113.898435 196.390775, 31.187552 141.418031" stroke-width="0.500000" />
<path stroke="#1f2213" stroke-opacity="0.501961" fill="none" d="M 271.000000 128.081306 Q 236.937035 144.099635, -5.566284 171.058811" stroke-width="0.500000" />
<path stroke="#003984" stroke-opacity="0.501961" fill="none" d="M -6.810261 176.704079 Q 14.352456 99.692724, 236.263315 201.785964" stroke-width="0.500000" />
<path stroke="#00469c" stroke-opacity="0.501961" fill="none" d="M 271.000000 146.198284 Q 244.744204 140.566879, -6.325257 189.705637" stroke-width="0.500000" />
<path stroke="#eee8bd" stroke-opacity="0.501961" fill="none" d="M 271.000000 34.805843 Q 252.336324 85.895273, 11.998368 -0.236315" stroke-width="0.500000" />
<path stroke="#daddce" stroke-opacity="0.501961" fill="none" d="M 233.140410 93.331491 Q 56.540030 -10.380979, 17.193748 135.986675" stroke-width="0.500000" />
<path stroke="#eae3c7" stroke-opacity="0.501961" fill="none" d="M 236.923548 14.614473 Q 19.155315 -16.000000, 10.649682 130.089778" stroke-width="0.500000" />
<path stroke="#003e9c" stroke-opacity="0.501961" fill="none" d="M 252.595887 196.807044 Q 271.000000 91.809181, 163.108777 125.087037" stroke-width="0.500000" />
<path stroke="#c09001" stroke-opacity="0.501961" fill="none" d="M 113.093851 154.358083 Q 115.870325 104.389164, 169.431809 90.578512" stroke-width="0.500000" />
<path stroke="#d8ad10" stroke-opacity="0.501961" fill="none" d="M 143.594256 147.297338 Q 137.595738 111.498605, 61.406451 134.285963" stroke-width="0.500000" />
<path stroke="#dedfce" stroke-opacity="0.501961" fill="none" d="M -1.213815 -16.000000 Q 35.293709 142.438483, 271.000000 28.404760" stroke-width="0.500000" />
<path stroke="#af8b09" stroke-opacity="0.501961" fill="none" d="M 170.680493 87.514318 Q 98.128232 100.734281, 109.209174 151.741123" stroke-width="0.500000" />
<path stroke="#003d89" stroke-opacity="0.501961" fill="none" d="M 259.795588 159.151883 Q -16.000000 157.505454, -16.000000 167.351829" stroke-width="0.500000" />
<path stroke="#1e1c05" stroke-opacity="0.501961" fill="none" d="M 192.722550 119.210248 Q 206.875622 153.303101, 208.086665 191.886456" stroke-width="0.500000" />
<path stroke="#002d75" stroke-opacity="0.501961" fill="none" d="M 92.120304 195.317903 Q 231.978395 72.135018, 271.000000 131.679744" stroke-width="0.500000" />
<path stroke="#e9e4c8" stroke-opacity="0.501961" fill="none" d="M 202.830795 -6.985304 Q 80.623557 163.460130, -3.525881 35.644880" stroke-width="0.500000" />
<path stroke="#04418e" stroke-opacity="0.501961" fill="none" d="M 255.393747 110.266041 Q 225.994929 144.805061, -2.751969 167.166608" stroke-width="0.500000" />
<path stroke="#dddecb" stroke-opacity="0.501961" fill="none" d="M 261.462884 107.939608 Q 205.340783 -16.000000, -0.220769 141.504995" stroke-width="0.500000" />
<path stroke="#d4aa05" stroke-opacity="0.501961" fill="none" d="M 189.447933 115.979642 Q 152.146474 89.403569, 111.909363 151.917228" stroke-width="0.500000" />
<path stroke="#004197" stroke-opacity="0.501961" fill="none" d="M -16.000000 188.570264 Q 260.919307 184.404631, 263.969258 122.539364" stroke-width="0.500000" />
<path stroke="#e6e2c9" stroke-opacity="0.501961" fill="none" d="M 271.000000 13.098210 Q 20.965245 24.989028, 4.698568 107.049116" stroke-width="0.500000" />
<path stroke="#d4a308" stroke-opacity="0.501961" fill="none" d="M 60.680605 130.548242 Q 74.559672 124.121158, 181.929239 117.097100" stroke-width="0.500000" />
<path stroke="#e5dfc7" stroke-opacity="0.501961" fill="none" d="M 4.539337 86.197466 Q 20.982499 -16.000000, 271.000000 55.084436" stroke-width="0.500000" />
<path stroke="#f9ecb3" stroke-opacity="0.501961" fill="none" d="M 106.229570 95.653367 Q -16.000000 132.033633, 8.706364 4.126265" stroke-width="0.500000" />
<path stroke="#d7dcd7" stroke-opacity="0.501961" fill="none" d="M 265.184794 93.315111 Q 20.534328 14.136862, 6.211166 128.713859" stroke-width="0.500000" />
<path stroke="#003983" stroke-opacity="0.501961" fill="none" d="M 11.743283 176.002708 Q 245.198863 136.316507, 271.000000 168.176760" stroke-width="0.500000" />
<path stroke="#e0dfc9" stroke-opacity="0.501961" fill="none" d="M 271.000000 106.947101 Q 203.026990 114.922032, -16.000000 24.611209" stroke-width="0.500000" />
<path stroke="#171400" stroke-opacity="0.501961" fill="none" d="M 76.316850 207.000000 Q 62.733697 199.162403, 55.801384 134.665367" stroke-width="0.500000" />
<path stroke="#ca9b00" stroke-opacity="0.501961" fill="none" d="M 64.272676 104.267771 Q 137.224042 133.630874, 136.177258 157.957586" stroke-width="0.500000" />
<path stroke="#dbded3" stroke-opacity="0.501961" fill="none" d="M 248.313177 105.467754 Q 83.066604 12.686698, 26.166153 127.865972" stroke-width="0.500000" />
<path stroke="#e3ddb9" stroke-opacity="0.501961" fill="none" d="M 254.539921 33.858266 Q 34.769956 11.925553, 26.378910 140.511049" stroke-width="0.500000" />
<path stroke="#050400" stroke-opacity="0.501961" fill="none" d="M 27.859087 207.000000 Q 19.701185 170.126747, 15.556868 143.412083" stroke-width="0.500000" />
<path stroke="#faefc7" stroke-opacity="0.501961" fill="none" d="M 12.777013 109.270876 Q -13.150456 -16.000000, 189.835068 7.618008" stroke-width="0.500000" />
<path stroke="#edbf37" stroke-opacity="0.501961" fill="none" d="M 50.405597 135.415042 Q 123.507228 61.551310, 166.024633 121.684594" stroke-width="0.500000" />
<path stroke="#001e5c" stroke-opacity="0.501961" fill="none" d="M 94.555678 129.751576 Q 88.559914 206.455761, 210.048934 183.303212" stroke-width="0.500000" />
<path stroke="#fff3b5" stroke-opacity="0.501961" fill="none" d="M 259.439768 -3.163897 Q 8.841012 27.303547, -2.533538 -16.000000" stroke-width="0.500000" />
<path stroke="#5d4900" stroke-opacity="0.501961" fill="none" d="M 104.361349 102.907254 Q 142.106870 108.249670, 130.214826 187.442229" stroke-width="0.500000" />
<path stroke="#003ea6" stroke-opacity="0.501961" fill="none" d="M 142.816491 143.783843 Q 165.109704 131.774205, 271.000000 107.789401" stroke-width="0.500000" />
<path stroke="#e6e1c4" stroke-opacity="0.501961" fill="none" d="M 271.000000 37.666218 Q 218.089867 -16.000000, -1.550335 130.752222" stroke-width="0.500000" />
<path stroke="#f4edc7" stroke-opacity="0.501961" fill="none" d="M 42.090132 135.917327 Q -16.000000 2.554845, 159.358123 1.000601" stroke-width="0.500000" />
<path stroke="#dcdfd4" stroke-opacity="0.501961" fill="none" d="M 252.089841 54.248482 Q 19.307086 118.523401, -3.478518 -16.000000" stroke-width="0.500000" />
<path stroke="#1b1806" stroke-opacity="0.501961" fill="none" d="M 231.786642 113.402432 Q 222.502529 135.520202, 258.863985 207.000000" stroke-width="0.500000" />
<path stroke="#c8a304" stroke-opacity="0.501961" fill="none" d="M 103.338189 136.585573 Q 147.701179 149.858045, 151.356148 89.932204" stroke-width="0.500000" />
<path stroke="#0042ab" stroke-opacity="0.501961" fill="none" d="M 144.064808 130.569285 Q 252.605608 143.506798, 256.252276 110.890100" stroke-width="0.500000" />
<path stroke="#003274" stroke-opacity="0.501961" fill="none" d="M 248.820989 169.615946 Q 179.228628 207.000000, 0.376251 144.779729" stroke-width="0.500000" />
<path stroke="#fcedbe" stroke-opacity="0.501961" fill="none" d="M 1.794369 89.224360 Q -7.286417 -16.000000, 233.075157 8.458804" stroke-width="0.500000" />
<path stroke="#e6dfb3" stroke-opacity="0.501961" fill="none" d="M 249.907446 105.194535 Q 172.469896 137.977143, -16.000000 -10.363701" stroke-width="0.500000" />
<path stroke="#110c00" stroke-opacity="0.501961" fill="none" d="M 64.696053 195.978769 Q 51.703180 152.667906, 56.096177 137.365483" stroke-width="0.500000" />
<path stroke="#fbf0c2" stroke-opacity="0.501961" fill="none" d="M 78.517394 121.029250 Q -16.000000 78.595087, 37.684715 0.055853" stroke-width="0.500000" />
<path stroke="#bf9c00" stroke-opacity="0.501961" fill="none" d="M 143.065378 146.649980 Q 124.517973 108.687766, 68.595971 138.553366" stroke-width="0.500000" />
<path stroke="#e8e0be" stroke-opacity="0.501961" fill="none" d="M 259.308131 27.020889 Q 30.666935 -5.795406, 1.228901 133.352556" stroke-width="0.500000" />
<path stroke="#3d2e13" stroke-opacity="0.501961" fill="none" d="M 115.708483 202.753672 Q 53.182110 130.808308, 131.420272 106.555718" stroke-width="0.500000" />
<path stroke="#13160d" stroke-opacity="0.501961" fill="none" d="M 159.231868 122.240276 Q 166.461648 135.833094, 177.476294 204.362085" stroke-width="0.500000" />
<path stroke="#1d2312" stroke-opacity="0.501961" fill="none" d="M 70.929872 196.810151 Q 108.790325 188.197965, 271.000000 167.728546" stroke-width="0.500000" />
<path stroke="#e9d482" stroke-opacity="0.501961" fill="none" d="M 34.847275 138.311010 Q 60.010224 70.954617, 228.471470 112.699952" stroke-width="0.500000" />
<path stroke="#ca9200" stroke-opacity="0.501961" fill="none" d="M 175.176173 118.141145 Q 125.644848 84.348285, 115.975298 149.889423" stroke-width="0.500000" />
<path stroke="#715900" stroke-opacity="0.501961" fill="none" d="M 143.682715 199.215755 Q 110.989693 90.723028, 102.000352 86.055424" stroke-width="0.500000" />
<path stroke="#443700" stroke-opacity="0.501961" fill="none" d="M 141.526908 207.000000 Q 116.366272 125.202735, 106.051172 102.972328" stroke-width="0.500000" />
<path stroke="#f5eecb" stroke-opacity="0.501961" fill="none" d="M 14.177747 0.460468 Q -16.000000 106.259956, 100.025966 96.219602" stroke-width="0.500000" />
</g>
</svg>