<svg xmlns="http://www.w3.org/2000/svg" version="1.1" width="1024" height="768">
<rect x="0" y="0" width="1024" height="768" fill="#929d99" />
<g transform="scale(4.000000) translate(0.5 0.5)">
<polygon fill="#00005d" fill-opacity="0.501961" points="250,207 271,96 -16,174" />
<polygon fill="#ffffd4" fill-opacity="0.501961" points="2,146 -10,-16 271,6" />
<polygon fill="#002e70" fill-opacity="0.501961" points="271,169 -16,132 6,207" />
<polygon fill="#e7e4c2" fill-opacity="0.501961" points="271,9 251,116 84,92" />
<polygon fill="#b68b01" fill-opacity="0.501961" points="132,161 42,106 172,88" />
<polygon fill="#075091" fill-opacity="0.501961" points="268,106 133,124 237,207" />
<polygon fill="#0b4286" fill-opacity="0.501961" points="104,129 -16,148 88,207" />
<polygon fill="#e1c970" fill-opacity="0.501961" points="72,139 30,102 128,78" />
<polygon fill="#ffffb9" fill-opacity="0.501961" points="-16,29 7,-16 158,0" />
<polygon fill="#a5830e" fill-opacity="0.501961" points="103,103 195,107 107,149" />
<polygon fill="#dbd7c8" fill-opacity="0.501961" points="18,-16 -16,145 46,136" />
<polygon fill="#dbc67c" fill-opacity="0.501961" points="224,111 112,78 140,119" />
<polygon fill="#3a2618" fill-opacity="0.501961" points="104,99 104,119 143,111" />
<polygon fill="#256dc0" fill-opacity="0.501961" points="142,179 134,155 230,162" />
<polygon fill="#162a41" fill-opacity="0.501961" points="83,133 142,156 104,207" />
<polygon fill="#1d1e0f" fill-opacity="0.501961" points="161,122 181,200 160,180" />
<polygon fill="#175aad" fill-opacity="0.501961" points="-16,182 77,207 94,162" />
<polygon fill="#1f1400" fill-opacity="0.501961" points="27,207 30,166 14,143" />
<polygon fill="#fbe4a9" fill-opacity="0.501961" points="140,-16 136,19 271,2" />
<polygon fill="#2d2209" fill-opacity="0.501961" points="55,131 51,168 71,207" />
<polygon fill="#32250c" fill-opacity="0.501961" points="220,204 199,174 199,131" />
<polygon fill="#1f2416" fill-opacity="0.501961" points="173,175 68,191 110,207" />
<polygon fill="#004aca" fill-opacity="0.501961" points="157,122 143,122 148,153" />
<polygon fill="#0c50a3" fill-opacity="0.501961" points="271,168 115,190 253,207" />
<polygon fill="#322d1e" fill-opacity="0.501961" points="231,123 233,170 259,207" />
<polygon fill="#3073c2" fill-opacity="0.501961" points="59,139 74,207 86,137" />
<polygon fill="#c4cbca" fill-opacity="0.501961" points="271,110 40,66 250,46" />
<polygon fill="#296dc1" fill-opacity="0.501961" points="171,157 258,164 271,136" />
<polygon fill="#2d2514" fill-opacity="0.501961" points="228,140 247,172 230,110" />
<polygon fill="#1e2427" fill-opacity="0.501961" points="140,154 223,143 178,136" />
<polygon fill="#332a11" fill-opacity="0.501961" points="92,152 55,164 108,162" />
<polygon fill="#2776dc" fill-opacity="0.501961" points="230,135 200,137 222,110" />
<g transform="translate(255 120) rotate(-11) scale(37 20)"><rect fill="#166ae4" fill-opacity="0.501961" x="-0.5" y="-0.5" width="1" height="1" /></g>
<g transform="translate(64 129) rotate(268) scale(13 47)"><rect fill="#c5af45" fill-opacity="0.501961" x="-0.5" y="-0.5" width="1" height="1" /></g>
<g transform="translate(229 189) rotate(347) scale(27 25)"><rect fill="#2c78db" fill-opacity="0.501961" x="-0.5" y="-0.5" width="1" height="1" /></g>
<g transform="translate(101 145) rotate(63) scale(23 8)"><rect fill="#0a53cb" fill-opacity="0.501961" x="-0.5" y="-0.5" width="1" height="1" /></g>
<g transform="translate(230 171) rotate(172) scale(122 5)"><rect fill="#3b2e0f" fill-opacity="0.501961" x="-0.5" y="-0.5" width="1" height="1" /></g>
<g transform="translate(119 135) rotate(65) scale(24 32)"><rect fill="#a59a15" fill-opacity="0.501961" x="-0.5" y="-0.5" width="1" height="1" /></g>
<g transform="translate(236 139) rotate(259) scale(4 81)"><rect fill="#342a0d" fill-opacity="0.501961" x="-0.5" y="-0.5" width="1" height="1" /></g>
<g transform="translate(3 157) rotate(172) scale(18 22)"><rect fill="#0f65e1" fill-opacity="0.501961" x="-0.5" y="-0.5" width="1" height="1" /></g>
<g transform="translate(135 177) rotate(335) scale(7 68)"><rect fill="#162433" fill-opacity="0.501961" x="-0.5" y="-0.5" width="1" height="1" /></g>
<g transform="translate(199 141) rotate(-14) scale(5 40)"><rect fill="#332a16" fill-opacity="0.501961" x="-0.5" y="-0.5" width="1" height="1" /></g>
<g transform="translate(135 88) rotate(84) scale(13 75)"><rect fill="#d3c675" fill-opacity="0.501961" x="-0.5" y="-0.5" width="1" height="1" /></g>
<g transform="translate(26 169) rotate(83) scale(4 84)"><rect fill="#27250c" fill-opacity="0.501961" x="-0.5" y="-0.5" width="1" height="1" /></g>
<g transform="translate(167 47) rotate(267) scale(20 191)"><rect fill="#b8b9a4" fill-opacity="0.501961" x="-0.5" y="-0.5" width="1" height="1" /></g>
<g transform="translate(80 107) rotate(87) scale(6 29)"><rect fill="#ce9000" fill-opacity="0.501961" x="-0.5" y="-0.5" width="1" height="1" /></g>
<g transform="translate(55 113) rotate(23) scale(43 13)"><rect fill="#cbcbad" fill-opacity="0.501961" x="-0.5" y="-0.5" width="1" height="1" /></g>
<g transform="translate(152 166) rotate(170) scale(23 20)"><rect fill="#1c6ad2" fill-opacity="0.501961" x="-0.5" y="-0.5" width="1" height="1" /></g>
<g transform="translate(187 163) rotate(168) scale(27 22)"><rect fill="#2771cd" fill-opacity="0.501961" x="-0.5" y="-0.5" width="1" height="1" /></g>
<g transform="translate(28 123) rotate(261) scale(35 39)"><rect fill="#bec1ad" fill-opacity="0.501961" x="-0.5" y="-0.5" width="1" height="1" /></g>
<g transform="translate(162 118) rotate(173) scale(21 5)"><rect fill="#ebc900" fill-opacity="0.501961" x="-0.5" y="-0.5" width="1" height="1" /></g>
<g transform="translate(177 133) rotate(79) scale(27 26)"><rect fill="#17469b" fill-opacity="0.501961" x="-0.5" y="-0.5" width="1" height="1" /></g>
<g transform="translate(10 184) rotate(262) scale(19 22)"><rect fill="#0c57bd" fill-opacity="0.501961" x="-0.5" y="-0.5" width="1" height="1" /></g>
<g transform="translate(230 96) rotate(172) scale(58 29)"><rect fill="#c3cdc9" fill-opacity="0.501961" x="-0.5" y="-0.5" width="1" height="1" /></g>
<g transform="translate(43 181) rotate(170) scale(26 20)"><rect fill="#1860c0" fill-opacity="0.501961" x="-0.5" y="-0.5" width="1" height="1" /></g>
<g transform="translate(41 153) rotate(260) scale(22 26)"><rect fill="#0c42a7" fill-opacity="0.501961" x="-0.5" y="-0.5" width="1" height="1" /></g>
<g transform="translate(96 35) rotate(261) scale(10 81)"><rect fill="#f0e3b3" fill-opacity="0.501961" x="-0.5" y="-0.5" width="1" height="1" /></g>
<g transform="translate(51 5) rotate(172) scale(136 18)"><rect fill="#fff5ba" fill-opacity="0.501961" x="-0.5" y="-0.5" width="1" height="1" /></g>
<g transform="translate(122 148) rotate(349) scale(10 9)"><rect fill="#2967b1" fill-opacity="0.501961" x="-0.5" y="-0.5" width="1" height="1" /></g>
<g transform="translate(121 108) rotate(235) scale(14 15)"><rect fill="#48411b" fill-opacity="0.501961" x="-0.5" y="-0.5" width="1" height="1" /></g>
<g transform="translate(80 175) rotate(170) scale(23 21)"><rect fill="#2c72c8" fill-opacity="0.501961" x="-0.5" y="-0.5" width="1" height="1" /></g>
<g transform="translate(74 151) rotate(-88) scale(15 22)"><rect fill="#347cd3" fill-opacity="0.501961" x="-0.5" y="-0.5" width="1" height="1" /></g>
<g transform="translate(93 154) rotate(165) scale(7 42)"><rect fill="#2d2a1d" fill-opacity="0.501961" x="-0.5" y="-0.5" width="1" height="1" /></g>
<g transform="translate(137 138) rotate(272) scale(29 10)"><rect fill="#a7a51f" fill-opacity="0.501961" x="-0.5" y="-0.5" width="1" height="1" /></g>
<path stroke="#352c0c" stroke-opacity="0.501961" fill="none" d="M 200.147538 115.636191 Q 154.586926 122.903194, 148.269902 124.495842" stroke-width="0.500000" />
<path stroke="#3d423a" stroke-opacity="0.501961" fill="none" d="M 168.956761 120.424139 Q 176.716769 118.086167, 266.081432 107.584020" stroke-width="0.500000" />
<path stroke="#35331e" stroke-opacity="0.501961" fill="none" d="M 42.802442 169.045854 Q 111.705078 154.174734, 215.903034 141.451959" stroke-width="0.500000" />
<path stroke="#c28b16" stroke-opacity="0.501961" fill="none" d="M 176.512959 103.485493 Q 133.853084 114.850081, 74.971001 125.672313" stroke-width="0.500000" />
<path stroke="#716411" stroke-opacity="0.501961" fill="none" d="M 48.896173 139.275895 Q 133.815237 125.323624, 189.778831 116.949255" stroke-width="0.500000" />
<path stroke="#061535" stroke-opacity="0.501961" fill="none" d="M 228.790382 114.548962 Q 266.553978 102.351839, 268.346899 114.162535" stroke-width="0.500000" />
<path stroke="#2a2310" stroke-opacity="0.501961" fill="none" d="M 157.254871 122.746929 Q 162.366363 150.037417, 176.140768 207.000000" stroke-width="0.500000" />
<path stroke="#374342" stroke-opacity="0.501961" fill="none" d="M 81.428585 135.904018 Q 15.937925 141.390897, -6.798853 147.725988" stroke-width="0.500000" />
<path stroke="#362c0c" stroke-opacity="0.501961" fill="none" d="M 148.284071 122.654771 Q 177.716331 122.519869, 181.231489 117.251319" stroke-width="0.500000" />
<path stroke="#2b261f" stroke-opacity="0.501961" fill="none" d="M 246.345937 192.269235 Q 228.382695 128.797776, 227.845186 116.726389" stroke-width="0.500000" />
<path stroke="#29261b" stroke-opacity="0.501961" fill="none" d="M 177.872081 184.602247 Q 131.899512 180.251552, 6.489967 202.818646" stroke-width="0.500000" />
<path stroke="#bc9011" stroke-opacity="0.501961" fill="none" d="M 181.552819 107.876672 Q 115.016455 110.367133, 47.600216 136.323427" stroke-width="0.500000" />
<path stroke="#2c2c0b" stroke-opacity="0.501961" fill="none" d="M 94.505777 164.182456 Q 93.883965 157.601027, 186.667776 147.061609" stroke-width="0.500000" />
<path stroke="#35321d" stroke-opacity="0.501961" fill="none" d="M 175.543265 207.000000 Q 178.376794 176.892157, 152.898437 118.375930" stroke-width="0.500000" />
<path stroke="#ffeeac" stroke-opacity="0.501961" fill="none" d="M 176.025991 38.433556 Q 229.670604 21.582924, 260.191563 30.626718" stroke-width="0.500000" />
<path stroke="#82710e" stroke-opacity="0.501961" fill="none" d="M 175.069902 119.302157 Q 78.007056 132.468742, 66.503230 140.105155" stroke-width="0.500000" />
<path stroke="#262c38" stroke-opacity="0.501961" fill="none" d="M 53.355090 126.617418 Q 48.133157 128.274231, 41.853419 128.549649" stroke-width="0.500000" />
<path stroke="#f9e099" stroke-opacity="0.501961" fill="none" d="M 271.000000 21.505601 Q 174.955652 38.382308, 136.114814 32.430087" stroke-width="0.500000" />
<path stroke="#2a3f62" stroke-opacity="0.501961" fill="none" d="M 137.445363 134.914352 Q 142.239542 121.491509, 271.000000 108.069424" stroke-width="0.500000" />
<path stroke="#2d2f20" stroke-opacity="0.501961" fill="none" d="M -16.000000 181.126479 Q 32.225270 164.325949, 216.628998 142.799756" stroke-width="0.500000" />
<path stroke="#363019" stroke-opacity="0.501961" fill="none" d="M 20.883459 166.900217 Q 28.008624 145.392084, 8.287387 143.040855" stroke-width="0.500000" />
<path stroke="#c9ba9e" stroke-opacity="0.501961" fill="none" d="M 106.024672 115.144436 Q 31.627346 132.534529, 17.633975 144.216385" stroke-width="0.500000" />
<path stroke="#347dd8" stroke-opacity="0.501961" fill="none" d="M 237.797554 164.250597 Q 210.950478 166.692470, 209.626227 168.688005" stroke-width="0.500000" />
<path stroke="#ceb372" stroke-opacity="0.501961" fill="none" d="M 184.853686 73.504268 Q 164.854531 133.523392, 79.171573 127.405104" stroke-width="0.500000" />
<path stroke="#be9221" stroke-opacity="0.501961" fill="none" d="M 185.186800 102.489570 Q 169.808335 106.724965, 48.885816 133.655732" stroke-width="0.500000" />
<path stroke="#fce4a6" stroke-opacity="0.501961" fill="none" d="M 159.034644 37.364232 Q 269.790235 22.395013, 271.000000 31.131673" stroke-width="0.500000" />
<path stroke="#504d35" stroke-opacity="0.501961" fill="none" d="M 192.855523 117.007290 Q 210.757953 183.785281, 211.337516 207.000000" stroke-width="0.500000" />
<path stroke="#cba508" stroke-opacity="0.501961" fill="none" d="M 48.818008 136.799076 Q 66.997556 128.630227, 101.253738 118.099823" stroke-width="0.500000" />
<path stroke="#2f2d11" stroke-opacity="0.501961" fill="none" d="M 185.179313 146.114365 Q 155.259644 147.151998, 130.702356 157.533800" stroke-width="0.500000" />
<path stroke="#b8b690" stroke-opacity="0.501961" fill="none" d="M 51.294514 104.931764 Q 217.908777 107.168297, 271.000000 25.325815" stroke-width="0.500000" />
<path stroke="#ccbd88" stroke-opacity="0.501961" fill="none" d="M 170.093112 -1.390144 Q 239.054201 121.856198, 89.872860 128.986244" stroke-width="0.500000" />
<path stroke="#2b2c13" stroke-opacity="0.501961" fill="none" d="M 196.059288 145.043698 Q 191.861092 146.762575, 112.194023 158.567193" stroke-width="0.500000" />
</g>
</svg>