<svg xmlns="http://www.w3.org/2000/svg" version="1.1" width="1024" height="768">
<rect x="0" y="0" width="1024" height="768" fill="#929d99" />
<g transform="scale(4.000000) translate(0.5 0.5)">
<polygon fill="#00005d" fill-opacity="0.501961" points="-16,174 252,207 270,97" />
<polygon fill="#ffffd4" fill-opacity="0.501961" points="271,6 -9,151 1,-16" />
<polygon fill="#003070" fill-opacity="0.501961" points="6,207 271,167 -15,131" />
<polygon fill="#eee9c5" fill-opacity="0.501961" points="98,96 271,8 264,112" />
<polygon fill="#b78a00" fill-opacity="0.501961" points="132,161 169,88 43,106" />
<polygon fill="#095091" fill-opacity="0.501961" points="228,207 269,106 137,123" />
<polygon fill="#0b4389" fill-opacity="0.501961" points="81,207 -16,148 105,129" />
<polygon fill="#e9ba18" fill-opacity="0.501961" points="171,99 195,114 109,130" />
<polygon fill="#e5cd77" fill-opacity="0.501961" points="122,76 -16,144 84,132" />
<polygon fill="#ffffb9" fill-opacity="0.501961" points="-16,30 148,0 -16,-16" />
<polygon fill="#593800" fill-opacity="0.501961" points="134,106 106,100 110,138" />
<polygon fill="#172d3d" fill-opacity="0.501961" points="139,207 242,166 54,188" />
<polygon fill="#347bcc" fill-opacity="0.501961" points="68,187 95,185 61,130" />
<polygon fill="#1a2831" fill-opacity="0.501961" points="185,143 119,171 55,161" />
<polygon fill="#2771c8" fill-opacity="0.501961" points="137,155 227,159 141,178" />
<polygon fill="#fbe4a8" fill-opacity="0.501961" points="127,20 271,1 145,-16" />
<polygon fill="#1d1705" fill-opacity="0.501961" points="33,207 14,168 21,140" />
<polygon fill="#281d00" fill-opacity="0.501961" points="169,182 156,121 172,152" />
<polygon fill="#d7d5cc" fill-opacity="0.501961" points="41,138 17,-16 -16,144" />
<polygon fill="#0c52a7" fill-opacity="0.501961" points="260,207 140,189 258,170" />
<polygon fill="#b49e1a" fill-opacity="0.501961" points="143,121 140,155 81,118" />
<polygon fill="#c4cbc5" fill-opacity="0.501961" points="271,103 136,30 194,115" />
<polygon fill="#322b22" fill-opacity="0.501961" points="217,192 199,136 202,207" />
<polygon fill="#2e291a" fill-opacity="0.501961" points="258,207 234,125 235,170" />
<polygon fill="#0b56bb" fill-opacity="0.501961" points="-16,179 57,169 53,207" />
<polygon fill="#d2c47b" fill-opacity="0.501961" points="184,116 190,78 89,87" />
<polygon fill="#28200c" fill-opacity="0.501961" points="52,165 57,136 67,194" />
<polygon fill="#2e2610" fill-opacity="0.501961" points="85,151 103,190 93,127" />
<polygon fill="#26251d" fill-opacity="0.501961" points="235,142 168,150 195,135" />
<polygon fill="#3287ef" fill-opacity="0.501961" points="271,137 244,165 240,141" />
<polygon fill="#2569bf" fill-opacity="0.501961" points="197,118 224,114 247,207" />
<polygon fill="#1d73e8" fill-opacity="0.501961" points="232,116 271,105 250,133" />
<g transform="translate(240 138) rotate(172) scale(33 6)"><rect fill="#302100" fill-opacity="0.501961" x="-0.5" y="-0.5" width="1" height="1" /></g>
<g transform="translate(72 149) rotate(179) scale(24 19)"><rect fill="#2e7ad9" fill-opacity="0.501961" x="-0.5" y="-0.5" width="1" height="1" /></g>
<g transform="translate(150 133) rotate(259) scale(20 14)"><rect fill="#0c53ba" fill-opacity="0.501961" x="-0.5" y="-0.5" width="1" height="1" /></g>
<g transform="translate(133 170) rotate(330) scale(8 57)"><rect fill="#122742" fill-opacity="0.501961" x="-0.5" y="-0.5" width="1" height="1" /></g>
<g transform="translate(186 163) rotate(167) scale(26 23)"><rect fill="#2973d1" fill-opacity="0.501961" x="-0.5" y="-0.5" width="1" height="1" /></g>
<g transform="translate(73 115) rotate(280) scale(44 17)"><rect fill="#d6bb4c" fill-opacity="0.501961" x="-0.5" y="-0.5" width="1" height="1" /></g>
<g transform="translate(23 176) rotate(168) scale(5 64)"><rect fill="#2c2309" fill-opacity="0.501961" x="-0.5" y="-0.5" width="1" height="1" /></g>
<g transform="translate(6 157) rotate(170) scale(17 22)"><rect fill="#0e5fd9" fill-opacity="0.501961" x="-0.5" y="-0.5" width="1" height="1" /></g>
<g transform="translate(54 165) rotate(261) scale(4 121)"><rect fill="#2c2915" fill-opacity="0.501961" x="-0.5" y="-0.5" width="1" height="1" /></g>
<g transform="translate(98 141) rotate(331) scale(9 22)"><rect fill="#003aa5" fill-opacity="0.501961" x="-0.5" y="-0.5" width="1" height="1" /></g>
<g transform="translate(119 107) rotate(246) scale(16 18)"><rect fill="#3e3f26" fill-opacity="0.501961" x="-0.5" y="-0.5" width="1" height="1" /></g>
<g transform="translate(231 126) rotate(254) scale(20 4)"><rect fill="#332100" fill-opacity="0.501961" x="-0.5" y="-0.5" width="1" height="1" /></g>
<g transform="translate(231 171) rotate(261) scale(6 77)"><rect fill="#362f20" fill-opacity="0.501961" x="-0.5" y="-0.5" width="1" height="1" /></g>
<g transform="translate(165 122) rotate(168) scale(28 3)"><rect fill="#392c00" fill-opacity="0.501961" x="-0.5" y="-0.5" width="1" height="1" /></g>
<g transform="translate(51 115) rotate(191) scale(51 16)"><rect fill="#c7c6a7" fill-opacity="0.501961" x="-0.5" y="-0.5" width="1" height="1" /></g>
<g transform="translate(246 81) rotate(81) scale(55 70)"><rect fill="#bec9cc" fill-opacity="0.501961" x="-0.5" y="-0.5" width="1" height="1" /></g>
<g transform="translate(225 188) rotate(168) scale(21 22)"><rect fill="#2e7bdb" fill-opacity="0.501961" x="-0.5" y="-0.5" width="1" height="1" /></g>
<g transform="translate(79 106) rotate(180) scale(24 5)"><rect fill="#cc8e00" fill-opacity="0.501961" x="-0.5" y="-0.5" width="1" height="1" /></g>
<g transform="translate(81 172) rotate(170) scale(23 15)"><rect fill="#2a74d1" fill-opacity="0.501961" x="-0.5" y="-0.5" width="1" height="1" /></g>
<g transform="translate(193 190) rotate(167) scale(26 22)"><rect fill="#1054ba" fill-opacity="0.501961" x="-0.5" y="-0.5" width="1" height="1" /></g>
<g transform="translate(56 6) rotate(82) scale(13 191)"><rect fill="#fff7be" fill-opacity="0.501961" x="-0.5" y="-0.5" width="1" height="1" /></g>
<g transform="translate(125 186) rotate(351) scale(126 4)"><rect fill="#2e270d" fill-opacity="0.501961" x="-0.5" y="-0.5" width="1" height="1" /></g>
<g transform="translate(118 134) rotate(51) scale(20 29)"><rect fill="#a39108" fill-opacity="0.501961" x="-0.5" y="-0.5" width="1" height="1" /></g>
<g transform="translate(215 143) rotate(173) scale(39 6)"><rect fill="#2f2b1d" fill-opacity="0.501961" x="-0.5" y="-0.5" width="1" height="1" /></g>
<g transform="translate(165 118) rotate(77) scale(4 20)"><rect fill="#e6c800" fill-opacity="0.501961" x="-0.5" y="-0.5" width="1" height="1" /></g>
<g transform="translate(222 157) rotate(76) scale(22 22)"><rect fill="#266dc6" fill-opacity="0.501961" x="-0.5" y="-0.5" width="1" height="1" /></g>
<g transform="translate(167 44) rotate(270) scale(14 118)"><rect fill="#b8b79c" fill-opacity="0.501961" x="-0.5" y="-0.5" width="1" height="1" /></g>
<g transform="translate(50 127) rotate(167) scale(15 4)"><rect fill="#3e4549" fill-opacity="0.501961" x="-0.5" y="-0.5" width="1" height="1" /></g>
<g transform="translate(39 153) rotate(261) scale(26 27)"><rect fill="#0d3fa2" fill-opacity="0.501961" x="-0.5" y="-0.5" width="1" height="1" /></g>
<g transform="translate(196 129) rotate(75) scale(20 4)"><rect fill="#3d2c07" fill-opacity="0.501961" x="-0.5" y="-0.5" width="1" height="1" /></g>
<g transform="translate(115 71) rotate(264) scale(24 110)"><rect fill="#c8cfd2" fill-opacity="0.501961" x="-0.5" y="-0.5" width="1" height="1" /></g>
<g transform="translate(84 128) rotate(158) scale(35 11)"><rect fill="#bd9f3e" fill-opacity="0.501961" x="-0.5" y="-0.5" width="1" height="1" /></g>
<path stroke="#3b444d" stroke-opacity="0.501961" fill="none" d="M 239.756813 112.812048 Q 186.400478 113.691548, 159.316431 124.477064" stroke-width="0.500000" />
<path stroke="#4d5a4d" stroke-opacity="0.501961" fill="none" d="M 86.089266 133.226845 Q -16.000000 144.709739, -16.000000 159.394456" stroke-width="0.500000" />
<path stroke="#ffe99d" stroke-opacity="0.501961" fill="none" d="M 250.124756 25.658364 Q 173.282247 38.180936, 82.574335 32.933908" stroke-width="0.500000" />
<path stroke="#215191" stroke-opacity="0.501961" fill="none" d="M 271.000000 116.705801 Q 210.617085 146.107049, -16.000000 169.315861" stroke-width="0.500000" />
<path stroke="#3d4630" stroke-opacity="0.501961" fill="none" d="M 28.334807 140.860037 Q 74.181294 137.414469, 96.239545 132.089694" stroke-width="0.500000" />
<path stroke="#4f5336" stroke-opacity="0.501961" fill="none" d="M 51.260286 144.803247 Q 64.435009 134.251762, 258.575766 107.776972" stroke-width="0.500000" />
<path stroke="#beb273" stroke-opacity="0.501961" fill="none" d="M 159.204921 117.367884 Q 73.645238 137.765145, 5.731099 133.604071" stroke-width="0.500000" />
<path stroke="#c39c00" stroke-opacity="0.501961" fill="none" d="M 49.122728 134.597925 Q 79.080907 126.067682, 97.918301 118.991781" stroke-width="0.500000" />
<path stroke="#1572e5" stroke-opacity="0.501961" fill="none" d="M 135.240503 191.723680 Q 104.080374 187.412270, 91.366688 207.000000" stroke-width="0.500000" />
<path stroke="#fff6b4" stroke-opacity="0.501961" fill="none" d="M 42.307349 43.697615 Q 93.979253 41.200942, 146.628916 31.252208" stroke-width="0.500000" />
<path stroke="#404846" stroke-opacity="0.501961" fill="none" d="M 160.931004 121.949158 Q 203.234988 113.783016, 271.000000 107.818025" stroke-width="0.500000" />
<path stroke="#2e2308" stroke-opacity="0.501961" fill="none" d="M 180.035758 207.000000 Q 177.808712 202.238542, 170.579490 164.772697" stroke-width="0.500000" />
<path stroke="#2b2c2a" stroke-opacity="0.501961" fill="none" d="M 160.425542 123.641597 Q 174.889287 172.982734, 174.251752 195.882128" stroke-width="0.500000" />
<path stroke="#cfb49a" stroke-opacity="0.501961" fill="none" d="M 184.231236 114.806048 Q 143.359912 113.294987, 129.804250 119.869260" stroke-width="0.500000" />
<path stroke="#2d290e" stroke-opacity="0.501961" fill="none" d="M 60.195170 207.000000 Q 64.815402 194.000504, 52.597029 137.584787" stroke-width="0.500000" />
<path stroke="#d0c081" stroke-opacity="0.501961" fill="none" d="M 26.245853 99.386641 Q 91.761666 95.993778, 233.074625 113.216151" stroke-width="0.500000" />
<path stroke="#285a98" stroke-opacity="0.501961" fill="none" d="M 271.000000 152.434854 Q 224.955372 121.180002, 101.341827 156.863774" stroke-width="0.500000" />
<path stroke="#b1a357" stroke-opacity="0.501961" fill="none" d="M 90.361013 88.250303 Q 153.988878 78.763911, 141.073617 153.152249" stroke-width="0.500000" />
<path stroke="#b5891b" stroke-opacity="0.501961" fill="none" d="M 45.866708 138.406070 Q 63.288368 126.762209, 173.941936 106.433443" stroke-width="0.500000" />
<path stroke="#fff6b0" stroke-opacity="0.501961" fill="none" d="M 82.054451 42.993879 Q 123.058514 30.178637, 151.111158 34.366324" stroke-width="0.500000" />
<path stroke="#c0c4a9" stroke-opacity="0.501961" fill="none" d="M 95.377340 93.015780 Q 9.729831 121.105124, 20.218104 153.767116" stroke-width="0.500000" />
<path stroke="#f7e4a8" stroke-opacity="0.501961" fill="none" d="M 236.804132 25.819116 Q 143.140094 45.348423, 90.528421 26.183434" stroke-width="0.500000" />
<path stroke="#2969b1" stroke-opacity="0.501961" fill="none" d="M 126.543565 138.573686 Q 122.508009 153.101115, 116.316711 151.144948" stroke-width="0.500000" />
<path stroke="#baac5c" stroke-opacity="0.501961" fill="none" d="M 101.883414 84.207473 Q 94.449975 118.562253, 110.329961 152.038863" stroke-width="0.500000" />
<path stroke="#172439" stroke-opacity="0.501961" fill="none" d="M 58.853028 136.490100 Q 44.739025 146.522046, 67.851637 207.000000" stroke-width="0.500000" />
<path stroke="#c3b78d" stroke-opacity="0.501961" fill="none" d="M 12.381646 113.921278 Q 179.276229 166.804245, 203.866954 27.580957" stroke-width="0.500000" />
<path stroke="#c99600" stroke-opacity="0.501961" fill="none" d="M 168.447605 108.060670 Q 132.933307 107.736885, 131.722255 106.409678" stroke-width="0.500000" />
<path stroke="#284361" stroke-opacity="0.501961" fill="none" d="M -4.408832 145.821421 Q 67.967059 136.571533, 110.428743 138.023778" stroke-width="0.500000" />
<path stroke="#ced0b9" stroke-opacity="0.501961" fill="none" d="M 122.982260 70.038801 Q 50.752935 105.161494, 16.709938 145.456356" stroke-width="0.500000" />
<path stroke="#0a193d" stroke-opacity="0.501961" fill="none" d="M 230.488925 113.356983 Q 256.605520 107.123748, 271.000000 108.088863" stroke-width="0.500000" />
<path stroke="#fff0ae" stroke-opacity="0.501961" fill="none" d="M 45.402966 45.546263 Q 93.400226 25.980940, 132.737335 35.455551" stroke-width="0.500000" />
<path stroke="#bdbdb3" stroke-opacity="0.501961" fill="none" d="M 129.885969 107.389065 Q 221.857976 84.108441, 227.597955 114.185124" stroke-width="0.500000" />
</g>
</svg>