<svg xmlns="http://www.w3.org/2000/svg" version="1.1" width="1024" height="768">
<rect x="0" y="0" width="1024" height="768" fill="#929d99" />
<g transform="scale(4.000000) translate(0.5 0.5)">
<polygon fill="#00005d" fill-opacity="0.501961" points="251,207 -16,173 271,97" />
<g transform="translate(127 39) rotate(182) scale(255 133)"><rect fill="#fffccf" fill-opacity="0.501961" x="-0.5" y="-0.5" width="1" height="1" /></g>
<g transform="translate(67 10) rotate(139) scale(255 143)"><rect fill="#e3ddc0" fill-opacity="0.501961" x="-0.5" y="-0.5" width="1" height="1" /></g>
<g transform="translate(48 0) rotate(139) scale(255 158)"><rect fill="#d6d5bd" fill-opacity="0.501961" x="-0.5" y="-0.5" width="1" height="1" /></g>
<path stroke="#00162b" stroke-opacity="0.501961" fill="none" d="M 204.170874 115.344788 Q -16.000000 149.472889, -11.171471 193.890202" stroke-width="0.500000" />
<path stroke="#052834" stroke-opacity="0.501961" fill="none" d="M 242.686215 116.465962 Q -16.000000 126.604406, -0.932704 207.000000" stroke-width="0.500000" />
<path stroke="#00335f" stroke-opacity="0.501961" fill="none" d="M 270.214427 120.302226 Q -16.000000 123.211180, -16.000000 207.000000" stroke-width="0.500000" />
</g>
</svg>