<svg xmlns="http://www.w3.org/2000/svg" version="1.1" width="1024" height="768">
<rect x="0" y="0" width="1024" height="768" fill="#929d99" />
<g transform="scale(4.000000) translate(0.5 0.5)">
<polygon fill="#00005d" fill-opacity="0.501961" points="250,207 -16,173 271,97" />
<g transform="translate(128 25) rotate(181) scale(255 162)"><rect fill="#fffccf" fill-opacity="0.501961" x="-0.5" y="-0.5" width="1" height="1" /></g>
<g transform="translate(56 41) rotate(159) scale(183 154)"><rect fill="#dfd8b7" fill-opacity="0.501961" x="-0.5" y="-0.5" width="1" height="1" /></g>
<g transform="translate(46 30) rotate(144) scale(181 150)"><rect fill="#d4d4be" fill-opacity="0.501961" x="-0.5" y="-0.5" width="1" height="1" /></g>
<path stroke="#001b31" stroke-opacity="0.501961" fill="none" d="M -1.446524 179.802949 Q 5.172036 146.108090, 220.252246 112.598300" stroke-width="0.500000" />
<path stroke="#001e4c" stroke-opacity="0.501961" fill="none" d="M -16.000000 182.458429 Q -2.913635 153.572615, 218.180035 113.274456" stroke-width="0.500000" />
<path stroke="#0a2628" stroke-opacity="0.501961" fill="none" d="M -12.634877 174.023595 Q 29.826814 137.292219, 213.233570 114.416185" stroke-width="0.500000" />
</g>
</svg>