<svg xmlns="http://www.w3.org/2000/svg" version="1.1" width="1024" height="768">
<rect x="0" y="0" width="1024" height="768" fill="#929d99" />
<g transform="scale(4.000000) translate(0.5 0.5)">
<rect fill="#00035b" fill-opacity="0.501961" x="0" y="133" width="256" height="59" />
<rect fill="#fffcd0" fill-opacity="0.501961" x="0" y="0" width="256" height="105" />
<rect fill="#003e83" fill-opacity="0.501961" x="143" y="116" width="113" height="76" />
<rect fill="#b98d09" fill-opacity="0.501961" x="65" y="92" width="101" height="47" />
<rect fill="#e9e3bf" fill-opacity="0.501961" x="0" y="0" width="73" height="140" />
<rect fill="#003870" fill-opacity="0.501961" x="0" y="151" width="143" height="41" />
<rect fill="#8f7908" fill-opacity="0.501961" x="106" y="100" width="36" height="56" />
<rect fill="#043c98" fill-opacity="0.501961" x="144" y="122" width="112" height="17" />
<rect fill="#d8bc63" fill-opacity="0.501961" x="130" y="82" width="55" height="38" />
<rect fill="#2375ca" fill-opacity="0.501961" x="63" y="136" width="23" height="51" />
<rect fill="#235ba0" fill-opacity="0.501961" x="207" y="111" width="49" height="55" />
<rect fill="#d2d4cb" fill-opacity="0.501961" x="0" y="22" width="31" height="121" />
<rect fill="#162139" fill-opacity="0.501961" x="91" y="151" width="47" height="40" />
<rect fill="#253446" fill-opacity="0.501961" x="228" y="111" width="14" height="62" />
<rect fill="#d6ba49" fill-opacity="0.501961" x="47" y="103" width="43" height="32" />
<rect fill="#362921" fill-opacity="0.501961" x="105" y="99" width="22" height="20" />
<rect fill="#246fc7" fill-opacity="0.501961" x="138" y="155" width="59" height="17" />
<rect fill="#221e14" fill-opacity="0.501961" x="160" y="143" width="12" height="42" />
<rect fill="#0d2f54" fill-opacity="0.501961" x="84" y="131" width="18" height="33" />
<rect fill="#0b50ad" fill-opacity="0.501961" x="29" y="139" width="22" height="53" />
<rect fill="#237fed" fill-opacity="0.501961" x="215" y="176" width="26" height="16" />
<rect fill="#1561c0" fill-opacity="0.501961" x="0" y="145" width="15" height="47" />
<rect fill="#222825" fill-opacity="0.501961" x="0" y="165" width="64" height="9" />
<rect fill="#c7cabf" fill-opacity="0.501961" x="30" y="20" width="71" height="80" />
<rect fill="#2574d5" fill-opacity="0.501961" x="207" y="147" width="27" height="20" />
<rect fill="#2f2f21" fill-opacity="0.501961" x="199" y="140" width="10" height="39" />
<rect fill="#b6a31d" fill-opacity="0.501961" x="106" y="120" width="38" height="26" />
<rect fill="#342a19" fill-opacity="0.501961" x="192" y="116" width="7" height="31" />
<rect fill="#2c2512" fill-opacity="0.501961" x="55" y="159" width="45" height="7" />
<rect fill="#1f6bcd" fill-opacity="0.501961" x="31" y="171" width="26" height="21" />
<rect fill="#1466df" fill-opacity="0.501961" x="237" y="112" width="19" height="21" />
<rect fill="#256ece" fill-opacity="0.501961" x="68" y="167" width="26" height="21" />
</g>
</svg>