<svg xmlns="http://www.w3.org/2000/svg" version="1.1" width="1024" height="768">
<rect x="0" y="0" width="1024" height="768" fill="#929d99" />
<g transform="scale(4.000000) translate(0.5 0.5)">
<rect fill="#00035b" fill-opacity="0.501961" x="0" y="133" width="256" height="5" data-height="59" />
<rect fill="#fffcd0" fill-opacity="0.501961" x="0" y="0" width="256" height="5" data-height="105" />
<rect fill="#b08503" fill-opacity="0.501961" x="65" y="95" width="101" height="5" data-height="44" />
<rect fill="#003e87" fill-opacity="0.501961" x="144" y="116" width="112" height="5" data-height="76" />
<rect fill="#f6eba8" fill-opacity="0.501961" x="0" y="98" width="77" height="5" data-height="42" />
<rect fill="#001c37" fill-opacity="0.501961" x="90" y="151" width="52" height="5" data-height="41" />
<rect fill="#998109" fill-opacity="0.501961" x="106" y="101" width="37" height="5" data-height="51" />
<rect fill="#004a94" fill-opacity="0.501961" x="0" y="143" width="91" height="5" data-height="49" />
<rect fill="#d9ba5a" fill-opacity="0.501961" x="129" y="83" width="55" height="5" data-height="38" />
<rect fill="#e3e0cf" fill-opacity="0.501961" x="0" y="0" width="33" height="5" data-height="143" />
<rect fill="#0346af" fill-opacity="0.501961" x="201" y="111" width="55" height="5" data-height="23" />
<rect fill="#fff0b2" fill-opacity="0.501961" x="0" y="0" width="217" height="5" data-height="18" />
<rect fill="#342924" fill-opacity="0.501961" x="105" y="98" width="22" height="5" data-height="20" />
<rect fill="#1d568e" fill-opacity="0.501961" x="47" y="135" width="60" height="5" data-height="21" />
<rect fill="#bbbfb4" fill-opacity="0.501961" x="173" y="34" width="60" height="5" data-height="79" />
<rect fill="#2974c7" fill-opacity="0.501961" x="172" y="151" width="60" height="5" data-height="18" />
<rect fill="#1a7aee" fill-opacity="0.501961" x="138" y="157" width="22" height="5" data-height="20" />
<rect fill="#19325a" fill-opacity="0.501961" x="156" y="120" width="48" height="5" data-height="34" />
<rect fill="#ddbf66" fill-opacity="0.501961" x="55" y="93" width="48" height="5" data-height="38" />
<rect fill="#20282f" fill-opacity="0.501961" x="16" y="142" width="13" height="5" data-height="50" />
<rect fill="#4398f9" fill-opacity="0.501961" x="243" y="141" width="13" height="5" data-height="21" />
<rect fill="#237feb" fill-opacity="0.501961" x="215" y="176" width="26" height="5" data-height="16" />
<rect fill="#277ce3" fill-opacity="0.501961" x="66" y="166" width="27" height="5" data-height="19" />
<rect fill="#292519" fill-opacity="0.501961" x="228" y="112" width="9" height="5" data-height="34" />
<rect fill="#30260d" fill-opacity="0.501961" x="200" y="141" width="8" height="5" data-height="39" />
<rect fill="#ddb110" fill-opacity="0.501961" x="145" y="106" width="31" height="5" data-height="16" />
<rect fill="#c5b975" fill-opacity="0.501961" x="96" y="85" width="69" height="5" data-height="18" />
<rect fill="#20200e" fill-opacity="0.501961" x="131" y="178" width="45" height="5" data-height="9" />
<rect fill="#3280de" fill-opacity="0.501961" x="60" y="138" width="24" height="5" data-height="20" />
<rect fill="#24221d" fill-opacity="0.501961" x="87" y="131" width="10" height="5" data-height="32" />
<rect fill="#1e1e17" fill-opacity="0.501961" x="12" y="164" width="52" height="5" data-height="7" />
<rect fill="#b9a215" fill-opacity="0.501961" x="104" y="121" width="37" height="5" data-height="23" />
</g>
</svg>