<svg xmlns="http://www.w3.org/2000/svg" version="1.1" width="1024" height="768">
<rect x="0" y="0" width="1024" height="768" fill="#929d99" />
<g transform="scale(4.000000) translate(0.5 0.5)">
<rect fill="#00004b" fill-opacity="0.501961" x="0" y="168" width="256" height="6" />
<rect fill="#000061" fill-opacity="0.501961" x="0" y="185" width="256" height="6" />
<rect fill="#00005f" fill-opacity="0.501961" x="0" y="174" width="256" height="6" />
<rect fill="#000062" fill-opacity="0.501961" x="0" y="162" width="256" height="6" />
<rect fill="#00006b" fill-opacity="0.501961" x="0" y="156" width="256" height="6" />
<rect fill="#000064" fill-opacity="0.501961" x="0" y="150" width="256" height="6" />
<rect fill="#000065" fill-opacity="0.501961" x="0" y="180" width="256" height="6" />
<rect fill="#000a56" fill-opacity="0.501961" x="0" y="144" width="256" height="6" />
<rect fill="#001344" fill-opacity="0.501961" x="31" y="138" width="225" height="6" />
<rect fill="#001a35" fill-opacity="0.501961" x="83" y="132" width="173" height="6" />
<rect fill="#ffffe3" fill-opacity="0.501961" x="0" y="0" width="184" height="6" />
<rect fill="#ffffcb" fill-opacity="0.501961" x="0" y="6" width="256" height="6" />
<rect fill="#000c8f" fill-opacity="0.501961" x="142" y="125" width="114" height="6" />
<rect fill="#ffffd2" fill-opacity="0.501961" x="0" y="13" width="256" height="6" />
<rect fill="#001b62" fill-opacity="0.501961" x="142" y="119" width="114" height="6" />
<rect fill="#ffffd0" fill-opacity="0.501961" x="0" y="30" width="254" height="6" />
<rect fill="#d29400" fill-opacity="0.501961" x="46" y="105" width="135" height="6" />
<rect fill="#fcfced" fill-opacity="0.501961" x="0" y="62" width="256" height="6" />
<rect fill="#f8f9ec" fill-opacity="0.501961" x="0" y="71" width="256" height="6" />
<rect fill="#e7a000" fill-opacity="0.501961" x="52" y="116" width="125" height="6" />
<rect fill="#fffff0" fill-opacity="0.501961" x="0" y="77" width="127" height="6" />
<rect fill="#daa400" fill-opacity="0.501961" x="53" y="125" width="90" height="6" />
<rect fill="#ffffde" fill-opacity="0.501961" x="0" y="22" width="177" height="6" />
<rect fill="#001d97" fill-opacity="0.501961" x="194" y="113" width="62" height="6" />
<rect fill="#ffffd4" fill-opacity="0.501961" x="0" y="37" width="129" height="6" />
<rect fill="#f7f5e0" fill-opacity="0.501961" x="0" y="55" width="256" height="6" />
<rect fill="#ffffda" fill-opacity="0.501961" x="0" y="47" width="107" height="6" />
<rect fill="#ffff99" fill-opacity="0.501961" x="0" y="97" width="105" height="6" />
<rect fill="#ebc000" fill-opacity="0.501961" x="102" y="133" width="42" height="6" />
<rect fill="#fdf6ca" fill-opacity="0.501961" x="0" y="83" width="256" height="6" />
<rect fill="#6e2b00" fill-opacity="0.501961" x="105" y="110" width="43" height="6" />
<rect fill="#003179" fill-opacity="0.501961" x="0" y="186" width="256" height="6" />
<rect fill="#fff7b8" fill-opacity="0.501961" x="0" y="89" width="138" height="6" />
<rect fill="#ffffc2" fill-opacity="0.501961" x="183" y="0" width="73" height="6" />
<rect fill="#f5eccf" fill-opacity="0.501961" x="0" y="19" width="256" height="6" />
<rect fill="#e8e8d4" fill-opacity="0.501961" x="69" y="77" width="187" height="6" />
<rect fill="#fff1b3" fill-opacity="0.501961" x="0" y="119" width="79" height="6" />
<rect fill="#efe7bf" fill-opacity="0.501961" x="0" y="42" width="256" height="6" />
<rect fill="#f0dda1" fill-opacity="0.501961" x="87" y="93" width="169" height="6" />
<rect fill="#00181e" fill-opacity="0.501961" x="47" y="159" width="86" height="6" />
<rect fill="#001f37" fill-opacity="0.501961" x="95" y="178" width="119" height="6" />
<rect fill="#ce9100" fill-opacity="0.501961" x="77" y="122" width="66" height="6" />
<rect fill="#dbc400" fill-opacity="0.501961" x="109" y="139" width="33" height="6" />
<rect fill="#141100" fill-opacity="0.501961" x="104" y="104" width="25" height="6" />
<rect fill="#e5e4ca" fill-opacity="0.501961" x="59" y="49" width="175" height="6" />
<rect fill="#eae3c6" fill-opacity="0.501961" x="39" y="25" width="187" height="6" />
<rect fill="#fae5a2" fill-opacity="0.501961" x="132" y="99" width="124" height="6" />
<rect fill="#003c9f" fill-opacity="0.501961" x="145" y="129" width="111" height="6" />
<rect fill="#f7f2cf" fill-opacity="0.501961" x="0" y="112" width="67" height="6" />
<rect fill="#ffffdb" fill-opacity="0.501961" x="0" y="125" width="34" height="6" />
<rect fill="#f5f2cb" fill-opacity="0.501961" x="0" y="103" width="64" height="6" />
<rect fill="#032728" fill-opacity="0.501961" x="86" y="153" width="85" height="6" />
<rect fill="#f9c736" fill-opacity="0.501961" x="133" y="110" width="55" height="6" />
<rect fill="#fff4b4" fill-opacity="0.501961" x="0" y="7" width="247" height="6" />
<rect fill="#003e79" fill-opacity="0.501961" x="0" y="172" width="256" height="6" />
<rect fill="#dfe3da" fill-opacity="0.501961" x="168" y="89" width="88" height="6" />
<rect fill="#af9000" fill-opacity="0.501961" x="101" y="127" width="40" height="6" />
<rect fill="#002e98" fill-opacity="0.501961" x="230" y="110" width="26" height="6" />
<rect fill="#004c9c" fill-opacity="0.501961" x="64" y="165" width="171" height="6" />
<rect fill="#e5e7dc" fill-opacity="0.501961" x="0" y="66" width="166" height="6" />
<rect fill="#ebe1b9" fill-opacity="0.501961" x="3" y="36" width="252" height="6" />
<rect fill="#fffac4" fill-opacity="0.501961" x="208" y="24" width="48" height="6" />
<rect fill="#c09a30" fill-opacity="0.501961" x="74" y="99" width="91" height="6" />
<rect fill="#004ab0" fill-opacity="0.501961" x="19" y="141" width="71" height="6" />
<rect fill="#001b21" fill-opacity="0.501961" x="4" y="166" width="54" height="6" />
<rect fill="#0669bf" fill-opacity="0.501961" x="137" y="158" width="119" height="6" />
<rect fill="#005bb4" fill-opacity="0.501961" x="0" y="179" width="94" height="6" />
<rect fill="#041e36" fill-opacity="0.501961" x="161" y="141" width="79" height="6" />
<rect fill="#e9e7c7" fill-opacity="0.501961" x="0" y="133" width="43" height="6" />
<rect fill="#14261f" fill-opacity="0.501961" x="96" y="183" width="79" height="6" />
<rect fill="#106dc9" fill-opacity="0.501961" x="177" y="181" width="65" height="6" />
<rect fill="#0052ad" fill-opacity="0.501961" x="0" y="147" width="85" height="6" />
<rect fill="#004eb1" fill-opacity="0.501961" x="179" y="118" width="76" height="6" />
<rect fill="#eee1b7" fill-opacity="0.501961" x="0" y="95" width="100" height="6" />
<rect fill="#9ca51e" fill-opacity="0.501961" x="109" y="145" width="33" height="6" />
<rect fill="#532b00" fill-opacity="0.501961" x="102" y="113" width="26" height="6" />
<rect fill="#0566bc" fill-opacity="0.501961" x="174" y="151" width="82" height="6" />
<rect fill="#e3dfb5" fill-opacity="0.501961" x="178" y="105" width="63" height="6" />
<rect fill="#dfca5a" fill-opacity="0.501961" x="99" y="87" width="70" height="6" />
<rect fill="#e4d29a" fill-opacity="0.501961" x="0" y="109" width="97" height="6" />
<rect fill="#2172d1" fill-opacity="0.501961" x="34" y="171" width="55" height="6" />
<rect fill="#c6b123" fill-opacity="0.501961" x="47" y="131" width="34" height="6" />
<rect fill="#252516" fill-opacity="0.501961" x="202" y="169" width="47" height="6" />
<rect fill="#051e17" fill-opacity="0.501961" x="144" y="147" width="33" height="6" />
<rect fill="#f8f3dc" fill-opacity="0.501961" x="0" y="53" width="44" height="6" />
<rect fill="#0747ab" fill-opacity="0.501961" x="142" y="134" width="81" height="6" />
<rect fill="#151704" fill-opacity="0.501961" x="62" y="189" width="47" height="3" />
<rect fill="#c5a63e" fill-opacity="0.501961" x="107" y="93" width="52" height="6" />
<rect fill="#ffffc0" fill-opacity="0.501961" x="0" y="0" width="117" height="6" />
<rect fill="#ccd1c7" fill-opacity="0.501961" x="0" y="66" width="256" height="6" />
<rect fill="#f8ecd4" fill-opacity="0.501961" x="0" y="26" width="41" height="6" />
<rect fill="#0052a4" fill-opacity="0.501961" x="0" y="153" width="86" height="6" />
<rect fill="#1168c7" fill-opacity="0.501961" x="208" y="145" width="48" height="6" />
<rect fill="#e4a800" fill-opacity="0.501961" x="65" y="104" width="32" height="6" />
<rect fill="#ffffb3" fill-opacity="0.501961" x="0" y="12" width="83" height="6" />
<rect fill="#14140f" fill-opacity="0.501961" x="230" y="134" width="26" height="6" />
<rect fill="#1b82f4" fill-opacity="0.501961" x="215" y="187" width="26" height="5" />
<rect fill="#004799" fill-opacity="0.501961" x="0" y="159" width="58" height="6" />
<rect fill="#0d183f" fill-opacity="0.501961" x="95" y="164" width="44" height="6" />
<rect fill="#16528d" fill-opacity="0.501961" x="55" y="136" width="34" height="6" />
<rect fill="#1775eb" fill-opacity="0.501961" x="138" y="167" width="24" height="6" />
<rect fill="#177ade" fill-opacity="0.501961" x="31" y="185" width="26" height="6" />
<rect fill="#cbcdbb" fill-opacity="0.501961" x="155" y="48" width="99" height="6" />
<rect fill="#d7d4a7" fill-opacity="0.501961" x="187" y="109" width="25" height="6" />
<rect fill="#0e6fdc" fill-opacity="0.501961" x="213" y="176" width="27" height="6" />
<rect fill="#1a7cfb" fill-opacity="0.501961" x="241" y="140" width="15" height="6" />
<rect fill="#092120" fill-opacity="0.501961" x="236" y="163" width="20" height="6" />
<rect fill="#3f4e3b" fill-opacity="0.501961" x="110" y="99" width="17" height="6" />
<rect fill="#0a5497" fill-opacity="0.501961" x="144" y="124" width="112" height="6" />
<rect fill="#0c48a3" fill-opacity="0.501961" x="144" y="186" width="55" height="6" />
<rect fill="#cfd3c9" fill-opacity="0.501961" x="0" y="61" width="254" height="6" />
<rect fill="#303125" fill-opacity="0.501961" x="163" y="174" width="52" height="6" />
<rect fill="#270e00" fill-opacity="0.501961" x="57" y="172" width="7" height="6" />
<rect fill="#2681e2" fill-opacity="0.501961" x="173" y="164" width="24" height="6" />
<rect fill="#140c00" fill-opacity="0.501961" x="21" y="178" width="8" height="6" />
<rect fill="#291600" fill-opacity="0.501961" x="16" y="154" width="9" height="6" />
<rect fill="#c6d4df" fill-opacity="0.501961" x="188" y="96" width="68" height="6" />
<rect fill="#a78e00" fill-opacity="0.501961" x="106" y="129" width="38" height="6" />
<rect fill="#fff5bf" fill-opacity="0.501961" x="2" y="1" width="144" height="6" />
<rect fill="#0030b5" fill-opacity="0.501961" x="119" y="146" width="8" height="6" />
<rect fill="#281100" fill-opacity="0.501961" x="162" y="158" width="8" height="6" />
<rect fill="#514306" fill-opacity="0.501961" x="102" y="107" width="31" height="6" />
<rect fill="#1e1e0c" fill-opacity="0.501961" x="0" y="169" width="26" height="6" />
<rect fill="#0663d9" fill-opacity="0.501961" x="144" y="142" width="16" height="6" />
<rect fill="#2d1200" fill-opacity="0.501961" x="235" y="151" width="7" height="6" />
<rect fill="#2573d8" fill-opacity="0.501961" x="202" y="132" width="27" height="6" />
<rect fill="#d5bc00" fill-opacity="0.501961" x="148" y="115" width="26" height="6" />
<rect fill="#2e1a00" fill-opacity="0.501961" x="14" y="147" width="9" height="6" />
</g>
</svg>