<svg xmlns="http://www.w3.org/2000/svg" version="1.1" width="1024" height="768">
<rect x="0" y="0" width="1024" height="768" fill="#959d9c" />
<g transform="scale(0.444444) translate(0.5 0.5)">
<rect fill="#000047" fill-opacity="0.501961" x="0" y="1526" width="2304" height="6" />
<rect fill="#000047" fill-opacity="0.501961" x="0" y="1533" width="2304" height="6" />
<rect fill="#000049" fill-opacity="0.501961" x="0" y="1520" width="2304" height="6" />
<rect fill="#00004d" fill-opacity="0.501961" x="0" y="1539" width="2304" height="6" />
<rect fill="#00004d" fill-opacity="0.501961" x="0" y="1514" width="2304" height="6" />
<rect fill="#00004f" fill-opacity="0.501961" x="0" y="1545" width="2304" height="6" />
<rect fill="#000053" fill-opacity="0.501961" x="0" y="1508" width="2303" height="6" />
<rect fill="#000052" fill-opacity="0.501961" x="0" y="1554" width="2304" height="6" />
<rect fill="#000062" fill-opacity="0.501961" x="0" y="1694" width="2304" height="6" />
<rect fill="#000063" fill-opacity="0.501961" x="0" y="1686" width="2304" height="6" />
<rect fill="#000063" fill-opacity="0.501961" x="0" y="1676" width="2304" height="6" />
<rect fill="#000061" fill-opacity="0.501961" x="0" y="1653" width="2304" height="6" />
<rect fill="#000056" fill-opacity="0.501961" x="0" y="1560" width="2304" height="6" />
<rect fill="#000061" fill-opacity="0.501961" x="0" y="1600" width="2304" height="6" />
<rect fill="#000061" fill-opacity="0.501961" x="0" y="1665" width="2304" height="6" />
<rect fill="#00005a" fill-opacity="0.501961" x="0" y="1502" width="2304" height="6" />
<rect fill="#000065" fill-opacity="0.501961" x="0" y="1705" width="2304" height="6" />
<rect fill="#000060" fill-opacity="0.501961" x="0" y="1496" width="2304" height="6" />
<rect fill="#00005a" fill-opacity="0.501961" x="0" y="1567" width="2304" height="6" />
<rect fill="#000064" fill-opacity="0.501961" x="0" y="1490" width="2304" height="6" />
<rect fill="#000066" fill-opacity="0.501961" x="0" y="1717" width="2304" height="6" />
<rect fill="#000062" fill-opacity="0.501961" x="0" y="1659" width="2304" height="6" />
<rect fill="#000068" fill-opacity="0.501961" x="0" y="1467" width="2304" height="6" />
<rect fill="#000063" fill-opacity="0.501961" x="0" y="1647" width="2304" height="6" />
<rect fill="#000067" fill-opacity="0.501961" x="0" y="1461" width="2304" height="6" />
<rect fill="#00005f" fill-opacity="0.501961" x="0" y="1575" width="2296" height="6" />
<rect fill="#00006a" fill-opacity="0.501961" x="0" y="1484" width="2304" height="6" />
<rect fill="#000066" fill-opacity="0.501961" x="0" y="1445" width="2304" height="6" />
<rect fill="#000065" fill-opacity="0.501961" x="0" y="1453" width="2304" height="6" />
<rect fill="#00004f" fill-opacity="0.501961" x="0" y="1641" width="1594" height="6" />
<rect fill="#00005a" fill-opacity="0.501961" x="157" y="1606" width="2147" height="6" />
<rect fill="#000063" fill-opacity="0.501961" x="0" y="1594" width="2304" height="6" />
</g>
</svg>