<svg xmlns="http://www.w3.org/2000/svg" version="1.1" width="1024" height="768">
<rect x="0" y="0" width="1024" height="768" fill="#959d9c" />
<g transform="scale(0.444444) translate(0.5 0.5)">
<rect fill="#000047" fill-opacity="0.501961" x="0" y="1526" width="2304" height="6" />
<rect fill="#000047" fill-opacity="0.501961" x="0" y="1533" width="2304" height="6" />
<rect fill="#000049" fill-opacity="0.501961" x="0" y="1520" width="2304" height="6" />
<rect fill="#00004d" fill-opacity="0.501961" x="0" y="1539" width="2304" height="6" />
<rect fill="#00004d" fill-opacity="0.501961" x="0" y="1514" width="2304" height="6" />
<rect fill="#00004f" fill-opacity="0.501961" x="0" y="1545" width="2304" height="6" />
<rect fill="#000052" fill-opacity="0.501961" x="0" y="1554" width="2304" height="6" />
<rect fill="#000053" fill-opacity="0.501961" x="0" y="1508" width="2304" height="6" />
<rect fill="#000062" fill-opacity="0.501961" x="0" y="1694" width="2304" height="6" />
<rect fill="#000063" fill-opacity="0.501961" x="0" y="1686" width="2304" height="6" />
<rect fill="#000063" fill-opacity="0.501961" x="0" y="1676" width="2304" height="6" />
<rect fill="#000061" fill-opacity="0.501961" x="0" y="1653" width="2304" height="6" />
<rect fill="#00005a" fill-opacity="0.501961" x="0" y="1502" width="2304" height="6" />
<rect fill="#000056" fill-opacity="0.501961" x="0" y="1560" width="2304" height="6" />
<rect fill="#00005b" fill-opacity="0.501961" x="0" y="1569" width="2304" height="6" />
<rect fill="#000065" fill-opacity="0.501961" x="0" y="1705" width="2304" height="6" />
<rect fill="#000061" fill-opacity="0.501961" x="0" y="1601" width="2304" height="6" />
<rect fill="#000061" fill-opacity="0.501961" x="0" y="1665" width="2303" height="6" />
<rect fill="#000066" fill-opacity="0.501961" x="0" y="1716" width="2304" height="6" />
<rect fill="#000060" fill-opacity="0.501961" x="0" y="1496" width="2304" height="6" />
<rect fill="#000062" fill-opacity="0.501961" x="0" y="1659" width="2304" height="6" />
<rect fill="#000060" fill-opacity="0.501961" x="3" y="1576" width="2301" height="6" />
<rect fill="#000063" fill-opacity="0.501961" x="0" y="1647" width="2303" height="6" />
<rect fill="#000063" fill-opacity="0.501961" x="0" y="1595" width="2304" height="6" />
<rect fill="#000063" fill-opacity="0.501961" x="0" y="1607" width="2304" height="6" />
<rect fill="#000061" fill-opacity="0.501961" x="57" y="1641" width="2247" height="6" />
<rect fill="#000062" fill-opacity="0.501961" x="0" y="1623" width="2304" height="6" />
<rect fill="#000064" fill-opacity="0.501961" x="0" y="1490" width="2304" height="6" />
<rect fill="#000064" fill-opacity="0.501961" x="0" y="1589" width="2304" height="6" />
<rect fill="#000068" fill-opacity="0.501961" x="0" y="1467" width="2304" height="6" />
<rect fill="#000067" fill-opacity="0.501961" x="0" y="1461" width="2304" height="6" />
<rect fill="#000064" fill-opacity="0.501961" x="11" y="1635" width="2293" height="6" />
<rect fill="#00006a" fill-opacity="0.501961" x="0" y="1484" width="2304" height="6" />
<rect fill="#000066" fill-opacity="0.501961" x="0" y="1445" width="2304" height="6" />
<rect fill="#00004a" fill-opacity="0.501961" x="126" y="1451" width="1756" height="6" />
<rect fill="#00004b" fill-opacity="0.501961" x="0" y="1439" width="1605" height="6" />
<rect fill="#000064" fill-opacity="0.501961" x="546" y="1432" width="1698" height="6" />
<rect fill="#000071" fill-opacity="0.501961" x="0" y="1424" width="2304" height="6" />
<rect fill="#00006c" fill-opacity="0.501961" x="0" y="1393" width="2304" height="6" />
<rect fill="#000070" fill-opacity="0.501961" x="0" y="1401" width="2304" height="6" />
<rect fill="#000071" fill-opacity="0.501961" x="0" y="1408" width="2289" height="6" />
<rect fill="#00003f" fill-opacity="0.501961" x="1284" y="1287" width="1020" height="6" />
<rect fill="#00006c" fill-opacity="0.501961" x="7" y="1478" width="2297" height="6" />
<rect fill="#00004a" fill-opacity="0.501961" x="5" y="1418" width="1239" height="6" />
<rect fill="#000042" fill-opacity="0.501961" x="1288" y="1281" width="1016" height="6" />
<rect fill="#000069" fill-opacity="0.501961" x="0" y="1387" width="2304" height="6" />
<rect fill="#000067" fill-opacity="0.501961" x="0" y="1375" width="2304" height="6" />
<rect fill="#00003e" fill-opacity="0.501961" x="1288" y="1293" width="988" height="6" />
<rect fill="#000046" fill-opacity="0.501961" x="1294" y="1274" width="1010" height="6" />
<rect fill="#00004c" fill-opacity="0.501961" x="1292" y="1267" width="1012" height="6" />
<rect fill="#000061" fill-opacity="0.501961" x="42" y="1381" width="1174" height="6" />
<rect fill="#00006f" fill-opacity="0.501961" x="0" y="1369" width="1188" height="6" />
<rect fill="#000033" fill-opacity="0.501961" x="1286" y="1302" width="909" height="6" />
<rect fill="#000051" fill-opacity="0.501961" x="1272" y="1339" width="1032" height="6" />
<rect fill="#000047" fill-opacity="0.501961" x="687" y="1358" width="1528" height="6" />
<rect fill="#00054b" fill-opacity="0.501961" x="657" y="1352" width="1586" height="6" />
<rect fill="#00008a" fill-opacity="0.501961" x="0" y="1613" width="1087" height="6" />
<rect fill="#00005f" fill-opacity="0.501961" x="1290" y="1215" width="1014" height="6" />
<rect fill="#00004a" fill-opacity="0.501961" x="1282" y="1308" width="1019" height="6" />
<rect fill="#00004b" fill-opacity="0.501961" x="1285" y="1322" width="992" height="6" />
<rect fill="#00005a" fill-opacity="0.501961" x="1289" y="1248" width="1015" height="6" />
<rect fill="#00005f" fill-opacity="0.501961" x="1289" y="1222" width="1015" height="6" />
<rect fill="#000055" fill-opacity="0.501961" x="1289" y="1261" width="1015" height="6" />
<rect fill="#00005d" fill-opacity="0.501961" x="1296" y="1237" width="1008" height="6" />
<rect fill="#000061" fill-opacity="0.501961" x="1296" y="1228" width="1008" height="6" />
<rect fill="#00006a" fill-opacity="0.501961" x="1293" y="1208" width="1011" height="6" />
<rect fill="#000024" fill-opacity="0.501961" x="1011" y="1346" width="935" height="6" />
<rect fill="#000077" fill-opacity="0.501961" x="1295" y="1202" width="1009" height="6" />
<rect fill="#000083" fill-opacity="0.501961" x="1292" y="1196" width="1012" height="6" />
<rect fill="#00068a" fill-opacity="0.501961" x="1279" y="1189" width="1025" height="6" />
<rect fill="#000084" fill-opacity="0.501961" x="0" y="1308" width="961" height="6" />
<rect fill="#00088f" fill-opacity="0.501961" x="1289" y="1183" width="1015" height="6" />
<rect fill="#00003a" fill-opacity="0.501961" x="954" y="1364" width="1010" height="6" />
<rect fill="#00078e" fill-opacity="0.501961" x="1288" y="1172" width="1016" height="6" />
<rect fill="#000182" fill-opacity="0.501961" x="0" y="1345" width="972" height="6" />
<rect fill="#000019" fill-opacity="0.501961" x="1046" y="1629" width="861" height="6" />
<rect fill="#00017a" fill-opacity="0.501961" x="0" y="1302" width="973" height="6" />
<rect fill="#000037" fill-opacity="0.501961" x="1298" y="1316" width="828" height="6" />
<rect fill="#000683" fill-opacity="0.501961" x="1283" y="1115" width="1021" height="6" />
<rect fill="#000052" fill-opacity="0.501961" x="1276" y="1333" width="1016" height="6" />
<rect fill="#000892" fill-opacity="0.501961" x="1292" y="1166" width="1012" height="6" />
<rect fill="#000386" fill-opacity="0.501961" x="0" y="1314" width="970" height="6" />
<rect fill="#000386" fill-opacity="0.501961" x="0" y="1328" width="971" height="6" />
<rect fill="#000a90" fill-opacity="0.501961" x="1280" y="1126" width="1024" height="6" />
<rect fill="#000b92" fill-opacity="0.501961" x="1286" y="1139" width="1018" height="6" />
<rect fill="#000c93" fill-opacity="0.501961" x="1280" y="1160" width="1014" height="6" />
<rect fill="#000080" fill-opacity="0.501961" x="177" y="1278" width="767" height="6" />
<rect fill="#000b92" fill-opacity="0.501961" x="1283" y="1133" width="1021" height="6" />
<rect fill="#00097e" fill-opacity="0.501961" x="1304" y="1109" width="1000" height="6" />
<rect fill="#000b7e" fill-opacity="0.501961" x="1389" y="1101" width="915" height="6" />
<rect fill="#000277" fill-opacity="0.501961" x="10" y="1296" width="944" height="6" />
<rect fill="#000186" fill-opacity="0.501961" x="179" y="1284" width="766" height="6" />
<rect fill="#000384" fill-opacity="0.501961" x="0" y="1334" width="971" height="6" />
<rect fill="#000c74" fill-opacity="0.501961" x="1387" y="1095" width="917" height="6" />
<rect fill="#000b7b" fill-opacity="0.501961" x="1448" y="1089" width="856" height="6" />
<rect fill="#000387" fill-opacity="0.501961" x="175" y="1290" width="780" height="6" />
<rect fill="#00017a" fill-opacity="0.501961" x="204" y="1272" width="751" height="6" />
<rect fill="#000085" fill-opacity="0.501961" x="0" y="1359" width="686" height="6" />
<rect fill="#000481" fill-opacity="0.501961" x="1382" y="1381" width="838" height="6" />
<rect fill="#000019" fill-opacity="0.501961" x="939" y="1617" width="585" height="6" />
<rect fill="#000c94" fill-opacity="0.501961" x="1285" y="1149" width="1019" height="6" />
<rect fill="#00118e" fill-opacity="0.501961" x="1748" y="1417" width="456" height="6" />
<rect fill="#000b85" fill-opacity="0.501961" x="1499" y="1083" width="805" height="6" />
<rect fill="#000074" fill-opacity="0.501961" x="248" y="1266" width="700" height="6" />
<rect fill="#00000e" fill-opacity="0.501961" x="394" y="1722" width="563" height="6" />
<rect fill="#000d8b" fill-opacity="0.501961" x="1536" y="1077" width="768" height="6" />
<rect fill="#000c90" fill-opacity="0.501961" x="1567" y="1071" width="737" height="6" />
<rect fill="#000063" fill-opacity="0.501961" x="281" y="1259" width="676" height="6" />
<rect fill="#000000" fill-opacity="0.501961" x="1480" y="1582" width="487" height="6" />
<rect fill="#000000" fill-opacity="0.501961" x="589" y="1711" width="339" height="6" />
<rect fill="#000057" fill-opacity="0.501961" x="1446" y="1613" width="858" height="6" />
<rect fill="#000c9c" fill-opacity="0.501961" x="1743" y="1048" width="561" height="6" />
<rect fill="#00098d" fill-opacity="0.501961" x="1597" y="1063" width="707" height="6" />
<rect fill="#00000e" fill-opacity="0.501961" x="652" y="1700" width="600" height="6" />
<rect fill="#000000" fill-opacity="0.501961" x="931" y="1671" width="375" height="6" />
<rect fill="#000064" fill-opacity="0.501961" x="364" y="1253" width="570" height="6" />
<rect fill="#6b2100" fill-opacity="0.501961" x="918" y="1013" width="431" height="6" />
<rect fill="#bb7900" fill-opacity="0.501961" x="438" y="956" width="733" height="6" />
<rect fill="#000026" fill-opacity="0.501961" x="843" y="1472" width="327" height="6" />
<rect fill="#000000" fill-opacity="0.501961" x="1215" y="1370" width="356" height="6" />
<rect fill="#00007c" fill-opacity="0.501961" x="87" y="1353" width="580" height="6" />
<rect fill="#803000" fill-opacity="0.501961" x="920" y="1000" width="473" height="6" />
<rect fill="#00008a" fill-opacity="0.501961" x="0" y="1433" width="499" height="6" />
<rect fill="#000993" fill-opacity="0.501961" x="253" y="1321" width="712" height="6" />
<rect fill="#001362" fill-opacity="0.501961" x="445" y="1246" width="486" height="6" />
<rect fill="#474900" fill-opacity="0.501961" x="499" y="1227" width="798" height="6" />
<rect fill="#001299" fill-opacity="0.501961" x="1679" y="1057" width="625" height="6" />
<rect fill="#6c2500" fill-opacity="0.501961" x="911" y="1019" width="410" height="6" />
</g>
</svg>