<svg xmlns="http://www.w3.org/2000/svg" version="1.1" width="1024" height="768">
<rect x="0" y="0" width="1024" height="768" fill="#929d99" />
<g transform="scale(4.000000) translate(0.5 0.5)">
<rect fill="#00035b" fill-opacity="0.501961" x="0" y="133" width="256" height="59" />
<rect fill="#fffcd0" fill-opacity="0.501961" x="0" y="0" width="256" height="105" />
<rect fill="#003e82" fill-opacity="0.501961" x="147" y="115" width="109" height="77" />
<rect fill="#ba8d0a" fill-opacity="0.501961" x="64" y="92" width="103" height="46" />
<rect fill="#e9e3c0" fill-opacity="0.501961" x="0" y="0" width="72" height="140" />
<rect fill="#003971" fill-opacity="0.501961" x="0" y="150" width="147" height="42" />
<rect fill="#957e07" fill-opacity="0.501961" x="105" y="101" width="38" height="52" />
<rect fill="#013b9c" fill-opacity="0.501961" x="144" y="123" width="112" height="15" />
<rect fill="#efc648" fill-opacity="0.501961" x="137" y="101" width="56" height="18" />
<rect fill="#2578ce" fill-opacity="0.501961" x="65" y="137" width="22" height="50" />
<rect fill="#245ba1" fill-opacity="0.501961" x="208" y="111" width="48" height="55" />
<rect fill="#312722" fill-opacity="0.501961" x="106" y="99" width="23" height="19" />
<rect fill="#d1d3cb" fill-opacity="0.501961" x="0" y="26" width="33" height="117" />
<rect fill="#d5ba4b" fill-opacity="0.501961" x="46" y="104" width="43" height="31" />
<rect fill="#236dc7" fill-opacity="0.501961" x="138" y="155" width="62" height="18" />
<rect fill="#241d0c" fill-opacity="0.501961" x="161" y="144" width="11" height="41" />
<rect fill="#151f35" fill-opacity="0.501961" x="92" y="156" width="47" height="36" />
<rect fill="#c7cabf" fill-opacity="0.501961" x="32" y="21" width="68" height="79" />
<rect fill="#166edd" fill-opacity="0.501961" x="30" y="172" width="27" height="20" />
<rect fill="#102e4e" fill-opacity="0.501961" x="84" y="131" width="18" height="34" />
<rect fill="#b6bcb9" fill-opacity="0.501961" x="177" y="34" width="79" height="75" />
<rect fill="#2481f0" fill-opacity="0.501961" x="215" y="176" width="25" height="16" />
<rect fill="#243140" fill-opacity="0.501961" x="229" y="112" width="12" height="61" />
<rect fill="#054396" fill-opacity="0.501961" x="23" y="139" width="42" height="22" />
<rect fill="#c9bd7f" fill-opacity="0.501961" x="98" y="81" width="89" height="22" />
<rect fill="#1473ec" fill-opacity="0.501961" x="0" y="146" width="14" height="22" />
<rect fill="#0e5bcf" fill-opacity="0.501961" x="235" y="109" width="21" height="22" />
<rect fill="#fdefb2" fill-opacity="0.501961" x="0" y="0" width="220" height="17" />
<rect fill="#292315" fill-opacity="0.501961" x="52" y="159" width="57" height="6" />
<rect fill="#2676d6" fill-opacity="0.501961" x="209" y="149" width="26" height="20" />
<rect fill="#b6a415" fill-opacity="0.501961" x="106" y="122" width="37" height="23" />
<rect fill="#1870de" fill-opacity="0.501961" x="0" y="176" width="20" height="16" />
<rect fill="#302713" fill-opacity="0.501961" x="186" y="140" width="52" height="6" />
<rect fill="#458feb" fill-opacity="0.501961" x="243" y="142" width="13" height="20" />
<rect fill="#1f365f" fill-opacity="0.501961" x="178" y="117" width="23" height="32" />
<rect fill="#232008" fill-opacity="0.501961" x="15" y="146" width="9" height="28" />
<rect fill="#c8cdc3" fill-opacity="0.501961" x="190" y="84" width="40" height="29" />
<rect fill="#ecc300" fill-opacity="0.501961" x="151" y="115" width="24" height="6" />
<rect fill="#372200" fill-opacity="0.501961" x="232" y="134" width="24" height="6" />
<rect fill="#222415" fill-opacity="0.501961" x="53" y="136" width="6" height="36" />
<rect fill="#262310" fill-opacity="0.501961" x="131" y="179" width="46" height="7" />
<rect fill="#2d2f28" fill-opacity="0.501961" x="199" y="168" width="51" height="8" />
<rect fill="#1460ce" fill-opacity="0.501961" x="144" y="125" width="13" height="23" />
<rect fill="#1f1e0d" fill-opacity="0.501961" x="21" y="166" width="8" height="26" />
<rect fill="#1d69cf" fill-opacity="0.501961" x="137" y="158" width="25" height="19" />
<rect fill="#2265c3" fill-opacity="0.501961" x="201" y="114" width="25" height="25" />
<rect fill="#303426" fill-opacity="0.501961" x="114" y="150" width="54" height="7" />
<rect fill="#322b0e" fill-opacity="0.501961" x="167" y="175" width="47" height="4" />
<rect fill="#266ecd" fill-opacity="0.501961" x="70" y="164" width="23" height="21" />
<rect fill="#2b71bf" fill-opacity="0.501961" x="58" y="137" width="27" height="21" />
<rect fill="#2a77d5" fill-opacity="0.501961" x="171" y="151" width="24" height="17" />
<rect fill="#2a384b" fill-opacity="0.501961" x="45" y="125" width="12" height="4" />
<rect fill="#0a54c8" fill-opacity="0.501961" x="96" y="130" width="6" height="21" />
<rect fill="#d9c7a8" fill-opacity="0.501961" x="46" y="111" width="53" height="7" />
<rect fill="#c7cdca" fill-opacity="0.501961" x="0" y="55" width="185" height="29" />
<rect fill="#0f3692" fill-opacity="0.501961" x="105" y="162" width="23" height="22" />
<rect fill="#b9b99e" fill-opacity="0.501961" x="90" y="38" width="166" height="14" />
<rect fill="#caccb8" fill-opacity="0.501961" x="0" y="80" width="37" height="61" />
<rect fill="#a7923f" fill-opacity="0.501961" x="130" y="105" width="11" height="50" />
<rect fill="#da9b00" fill-opacity="0.501961" x="64" y="105" width="35" height="5" />
<rect fill="#2e2f23" fill-opacity="0.501961" x="199" y="140" width="8" height="28" />
<rect fill="#004ad0" fill-opacity="0.501961" x="119" y="144" width="6" height="8" />
<rect fill="#20262a" fill-opacity="0.501961" x="159" y="121" width="7" height="34" />
<rect fill="#252515" fill-opacity="0.501961" x="58" y="165" width="6" height="27" />
<rect fill="#1c50a4" fill-opacity="0.501961" x="164" y="121" width="28" height="20" />
<rect fill="#6d772f" fill-opacity="0.501961" x="48" y="135" width="29" height="4" />
<rect fill="#f3e7b2" fill-opacity="0.501961" x="76" y="30" width="46" height="12" />
<rect fill="#332e1e" fill-opacity="0.501961" x="243" y="165" width="6" height="27" />
<rect fill="#1f2624" fill-opacity="0.501961" x="8" y="166" width="54" height="5" />
<rect fill="#25221c" fill-opacity="0.501961" x="228" y="112" width="6" height="19" />
<rect fill="#1259bf" fill-opacity="0.501961" x="179" y="181" width="24" height="11" />
<rect fill="#36301b" fill-opacity="0.501961" x="206" y="172" width="7" height="20" />
<rect fill="#0b58c3" fill-opacity="0.501961" x="99" y="145" width="9" height="10" />
<rect fill="#231a00" fill-opacity="0.501961" x="0" y="170" width="15" height="5" />
<rect fill="#227ae6" fill-opacity="0.501961" x="113" y="190" width="21" height="2" />
<rect fill="#cea588" fill-opacity="0.501961" x="128" y="115" width="17" height="9" />
<rect fill="#c0cbce" fill-opacity="0.501961" x="224" y="59" width="32" height="49" />
<rect fill="#d6c75e" fill-opacity="0.501961" x="97" y="85" width="42" height="7" />
<rect fill="#d6d8ca" fill-opacity="0.501961" x="76" y="64" width="20" height="35" />
<rect fill="#2e2e1c" fill-opacity="0.501961" x="163" y="145" width="37" height="4" />
<rect fill="#d5ccad" fill-opacity="0.501961" x="93" y="5" width="130" height="13" />
<rect fill="#5c604a" fill-opacity="0.501961" x="106" y="98" width="20" height="6" />
<rect fill="#17325f" fill-opacity="0.501961" x="242" y="108" width="14" height="4" />
<rect fill="#144aa5" fill-opacity="0.501961" x="25" y="141" width="26" height="23" />
<rect fill="#c0c1a7" fill-opacity="0.501961" x="49" y="44" width="64" height="19" />
<rect fill="#373525" fill-opacity="0.501961" x="87" y="132" width="7" height="32" />
<rect fill="#272409" fill-opacity="0.501961" x="76" y="189" width="33" height="3" />
<rect fill="#f8f7c9" fill-opacity="0.501961" x="9" y="0" width="124" height="7" />
<rect fill="#2a2a13" fill-opacity="0.501961" x="96" y="185" width="45" height="4" />
<rect fill="#3e3620" fill-opacity="0.501961" x="193" y="116" width="5" height="21" />
<rect fill="#382f19" fill-opacity="0.501961" x="237" y="156" width="6" height="17" />
<rect fill="#6a5500" fill-opacity="0.501961" x="146" y="120" width="29" height="3" />
<rect fill="#eedf89" fill-opacity="0.501961" x="23" y="97" width="67" height="6" />
<rect fill="#c4b781" fill-opacity="0.501961" x="127" y="88" width="45" height="18" />
<rect fill="#c3c3aa" fill-opacity="0.501961" x="189" y="104" width="58" height="6" />
<rect fill="#2567bd" fill-opacity="0.501961" x="217" y="144" width="15" height="23" />
<rect fill="#ccb55a" fill-opacity="0.501961" x="53" y="116" width="38" height="17" />
<rect fill="#231a00" fill-opacity="0.501961" x="170" y="186" width="7" height="6" />
<rect fill="#1d3669" fill-opacity="0.501961" x="142" y="123" width="17" height="6" />
<rect fill="#241d07" fill-opacity="0.501961" x="247" y="165" width="9" height="5" />
<rect fill="#5a4013" fill-opacity="0.501961" x="102" y="107" width="30" height="9" />
<rect fill="#185dcb" fill-opacity="0.501961" x="248" y="171" width="8" height="11" />
<rect fill="#29280f" fill-opacity="0.501961" x="129" y="153" width="6" height="25" />
<rect fill="#e6d594" fill-opacity="0.501961" x="144" y="79" width="49" height="6" />
<rect fill="#b1ae91" fill-opacity="0.501961" x="219" y="32" width="37" height="8" />
<rect fill="#d1a96b" fill-opacity="0.501961" x="92" y="100" width="11" height="30" />
<rect fill="#d8d8bc" fill-opacity="0.501961" x="0" y="121" width="9" height="23" />
<rect fill="#ccc4b1" fill-opacity="0.501961" x="63" y="119" width="13" height="7" />
<rect fill="#2064bf" fill-opacity="0.501961" x="224" y="174" width="17" height="18" />
<rect fill="#fff6b3" fill-opacity="0.501961" x="0" y="8" width="65" height="11" />
<rect fill="#bcc4cf" fill-opacity="0.501961" x="200" y="11" width="56" height="11" />
<rect fill="#a98a00" fill-opacity="0.501961" x="108" y="125" width="30" height="11" />
<rect fill="#dacd64" fill-opacity="0.501961" x="168" y="100" width="17" height="17" />
<rect fill="#0a49b1" fill-opacity="0.501961" x="157" y="184" width="13" height="8" />
<rect fill="#bdc1a4" fill-opacity="0.501961" x="0" y="130" width="51" height="8" />
<rect fill="#eddca8" fill-opacity="0.501961" x="188" y="0" width="59" height="10" />
<rect fill="#003ba5" fill-opacity="0.501961" x="57" y="136" width="9" height="4" />
<rect fill="#be8015" fill-opacity="0.501961" x="82" y="121" width="42" height="4" />
<rect fill="#246eca" fill-opacity="0.501961" x="79" y="136" width="7" height="12" />
<rect fill="#f3e1a5" fill-opacity="0.501961" x="93" y="32" width="108" height="4" />
<rect fill="#939726" fill-opacity="0.501961" x="107" y="132" width="11" height="19" />
<rect fill="#352d16" fill-opacity="0.501961" x="234" y="145" width="5" height="13" />
<rect fill="#c29c00" fill-opacity="0.501961" x="150" y="107" width="25" height="3" />
<rect fill="#2263bd" fill-opacity="0.501961" x="0" y="155" width="17" height="12" />
<rect fill="#d9c846" fill-opacity="0.501961" x="68" y="91" width="7" height="10" />
<rect fill="#0948ac" fill-opacity="0.501961" x="116" y="149" width="10" height="4" />
<rect fill="#bdc7c9" fill-opacity="0.501961" x="117" y="50" width="8" height="40" />
<rect fill="#ffedb4" fill-opacity="0.501961" x="209" y="27" width="47" height="3" />
<rect fill="#1d61bf" fill-opacity="0.501961" x="42" y="170" width="14" height="5" />
<rect fill="#222829" fill-opacity="0.501961" x="55" y="149" width="5" height="27" />
<rect fill="#1f3145" fill-opacity="0.501961" x="32" y="139" width="22" height="2" />
<rect fill="#cac9bd" fill-opacity="0.501961" x="60" y="14" width="75" height="17" />
<rect fill="#0037b4" fill-opacity="0.501961" x="93" y="132" width="3" height="8" />
<rect fill="#122450" fill-opacity="0.501961" x="211" y="113" width="15" height="2" />
<rect fill="#d3d3be" fill-opacity="0.501961" x="194" y="110" width="21" height="4" />
<rect fill="#2769bb" fill-opacity="0.501961" x="175" y="162" width="27" height="10" />
<rect fill="#bfb339" fill-opacity="0.501961" x="48" y="130" width="11" height="7" />
<rect fill="#c19137" fill-opacity="0.501961" x="140" y="105" width="14" height="17" />
<rect fill="#2e73c9" fill-opacity="0.501961" x="62" y="144" width="14" height="16" />
<rect fill="#f0dc92" fill-opacity="0.501961" x="131" y="10" width="41" height="8" />
<rect fill="#272a22" fill-opacity="0.501961" x="143" y="149" width="35" height="3" />
<rect fill="#144da8" fill-opacity="0.501961" x="152" y="155" width="12" height="21" />
<rect fill="#1d5bb9" fill-opacity="0.501961" x="233" y="111" width="23" height="12" />
<rect fill="#e7dfbb" fill-opacity="0.501961" x="8" y="120" width="32" height="9" />
<rect fill="#c3cac5" fill-opacity="0.501961" x="0" y="75" width="64" height="23" />
<rect fill="#bfc8c6" fill-opacity="0.501961" x="109" y="49" width="67" height="31" />
<rect fill="#abb4b3" fill-opacity="0.501961" x="169" y="85" width="18" height="14" />
<rect fill="#302e24" fill-opacity="0.501961" x="57" y="161" width="22" height="5" />
<rect fill="#2b2d22" fill-opacity="0.501961" x="91" y="155" width="45" height="4" />
<rect fill="#2668bb" fill-opacity="0.501961" x="69" y="165" width="13" height="25" />
<rect fill="#293749" fill-opacity="0.501961" x="20" y="141" width="5" height="28" />
<rect fill="#2769c0" fill-opacity="0.501961" x="237" y="113" width="19" height="20" />
<rect fill="#32362f" fill-opacity="0.501961" x="166" y="165" width="7" height="17" />
<rect fill="#f8e9a9" fill-opacity="0.501961" x="50" y="38" width="36" height="5" />
<rect fill="#e4dfcf" fill-opacity="0.501961" x="6" y="26" width="18" height="39" />
<rect fill="#cdbf84" fill-opacity="0.501961" x="143" y="114" width="56" height="2" />
<rect fill="#15489d" fill-opacity="0.501961" x="196" y="115" width="15" height="8" />
<rect fill="#2d2e27" fill-opacity="0.501961" x="226" y="114" width="5" height="11" />
<rect fill="#393a2d" fill-opacity="0.501961" x="196" y="129" width="5" height="22" />
<rect fill="#1e2332" fill-opacity="0.501961" x="237" y="110" width="9" height="2" />
<rect fill="#1a50a7" fill-opacity="0.501961" x="182" y="118" width="8" height="25" />
<rect fill="#fff6a6" fill-opacity="0.501961" x="45" y="6" width="49" height="7" />
<rect fill="#d09f00" fill-opacity="0.501961" x="69" y="104" width="13" height="6" />
<rect fill="#bcbd9f" fill-opacity="0.501961" x="108" y="37" width="124" height="7" />
<rect fill="#c6b112" fill-opacity="0.501961" x="96" y="87" width="8" height="3" />
<rect fill="#bbc1b0" fill-opacity="0.501961" x="18" y="127" width="21" height="13" />
<rect fill="#1e5db2" fill-opacity="0.501961" x="34" y="184" width="26" height="8" />
<rect fill="#2968b9" fill-opacity="0.501961" x="200" y="118" width="27" height="16" />
<rect fill="#5d5d53" fill-opacity="0.501961" x="42" y="126" width="9" height="4" />
<rect fill="#296abb" fill-opacity="0.501961" x="210" y="156" width="12" height="14" />
<rect fill="#3576cb" fill-opacity="0.501961" x="240" y="141" width="16" height="9" />
<rect fill="#fee7a0" fill-opacity="0.501961" x="0" y="18" width="22" height="7" />
<rect fill="#c1c9bc" fill-opacity="0.501961" x="5" y="111" width="52" height="8" />
<rect fill="#939a3a" fill-opacity="0.501961" x="127" y="137" width="17" height="12" />
<rect fill="#063777" fill-opacity="0.501961" x="5" y="143" width="10" height="8" />
<rect fill="#262823" fill-opacity="0.501961" x="60" y="179" width="6" height="13" />
<rect fill="#c9bc44" fill-opacity="0.501961" x="147" y="90" width="20" height="4" />
<rect fill="#d2b700" fill-opacity="0.501961" x="163" y="115" width="14" height="5" />
<rect fill="#343936" fill-opacity="0.501961" x="187" y="173" width="31" height="4" />
<rect fill="#09214b" fill-opacity="0.501961" x="173" y="119" width="5" height="4" />
<rect fill="#c69f00" fill-opacity="0.501961" x="73" y="124" width="13" height="4" />
<rect fill="#2d71c4" fill-opacity="0.501961" x="63" y="168" width="23" height="8" />
<rect fill="#403f31" fill-opacity="0.501961" x="230" y="129" width="6" height="14" />
<rect fill="#b1b8ae" fill-opacity="0.501961" x="158" y="93" width="16" height="8" />
<rect fill="#c9cab3" fill-opacity="0.501961" x="16" y="98" width="4" height="46" />
<rect fill="#1f5caf" fill-opacity="0.501961" x="206" y="148" width="23" height="9" />
<rect fill="#1e5eb4" fill-opacity="0.501961" x="124" y="188" width="10" height="4" />
<rect fill="#c8aa00" fill-opacity="0.501961" x="149" y="117" width="13" height="5" />
<rect fill="#18489a" fill-opacity="0.501961" x="39" y="158" width="17" height="6" />
<rect fill="#904c00" fill-opacity="0.501961" x="108" y="116" width="21" height="3" />
<rect fill="#2469bf" fill-opacity="0.501961" x="140" y="156" width="15" height="22" />
<rect fill="#2e3029" fill-opacity="0.501961" x="161" y="133" width="4" height="27" />
<rect fill="#232b24" fill-opacity="0.501961" x="95" y="159" width="5" height="27" />
<rect fill="#2b3132" fill-opacity="0.501961" x="158" y="176" width="31" height="5" />
<rect fill="#fadf95" fill-opacity="0.501961" x="190" y="29" width="30" height="3" />
<rect fill="#cdcab5" fill-opacity="0.501961" x="119" y="3" width="67" height="7" />
<rect fill="#2a3030" fill-opacity="0.501961" x="135" y="175" width="7" height="17" />
<rect fill="#b0b4a3" fill-opacity="0.501961" x="0" y="107" width="26" height="6" />
<rect fill="#1955a8" fill-opacity="0.501961" x="80" y="179" width="16" height="7" />
<rect fill="#2769ba" fill-opacity="0.501961" x="175" y="150" width="20" height="24" />
<rect fill="#232824" fill-opacity="0.501961" x="119" y="182" width="45" height="3" />
<rect fill="#232822" fill-opacity="0.501961" x="36" y="165" width="25" height="4" />
<rect fill="#807b18" fill-opacity="0.501961" x="67" y="135" width="6" height="5" />
<rect fill="#59493a" fill-opacity="0.501961" x="84" y="150" width="7" height="5" />
<rect fill="#c4c7c4" fill-opacity="0.501961" x="168" y="15" width="54" height="12" />
<rect fill="#1a57a7" fill-opacity="0.501961" x="28" y="171" width="29" height="14" />
<rect fill="#255495" fill-opacity="0.501961" x="162" y="122" width="25" height="8" />
<rect fill="#2d2f28" fill-opacity="0.501961" x="78" y="158" width="19" height="5" />
<rect fill="#bac5c4" fill-opacity="0.501961" x="206" y="76" width="21" height="36" />
<rect fill="#c0a074" fill-opacity="0.501961" x="80" y="109" width="22" height="9" />
<rect fill="#b6bcb0" fill-opacity="0.501961" x="176" y="44" width="80" height="16" />
<rect fill="#3f3d30" fill-opacity="0.501961" x="217" y="139" width="20" height="4" />
<rect fill="#3472c0" fill-opacity="0.501961" x="247" y="139" width="9" height="24" />
<rect fill="#b9b792" fill-opacity="0.501961" x="48" y="45" width="40" height="4" />
<rect fill="#393324" fill-opacity="0.501961" x="156" y="122" width="6" height="10" />
<rect fill="#0b2347" fill-opacity="0.501961" x="46" y="138" width="7" height="2" />
<rect fill="#292c27" fill-opacity="0.501961" x="195" y="141" width="29" height="4" />
<rect fill="#bbc2b3" fill-opacity="0.501961" x="0" y="134" width="24" height="8" />
<rect fill="#272a1e" fill-opacity="0.501961" x="52" y="140" width="5" height="10" />
<rect fill="#154ca0" fill-opacity="0.501961" x="0" y="186" width="23" height="6" />
<rect fill="#a16701" fill-opacity="0.501961" x="130" y="112" width="14" height="3" />
<rect fill="#fff8c5" fill-opacity="0.501961" x="107" y="33" width="26" height="4" />
<rect fill="#0b4a95" fill-opacity="0.501961" x="81" y="134" width="5" height="4" />
<rect fill="#1d5ebb" fill-opacity="0.501961" x="252" y="174" width="4" height="18" />
<rect fill="#8b891d" fill-opacity="0.501961" x="101" y="130" width="13" height="7" />
<rect fill="#1a1b10" fill-opacity="0.501961" x="139" y="152" width="18" height="2" />
<rect fill="#e2cc5b" fill-opacity="0.501961" x="71" y="99" width="30" height="5" />
<rect fill="#184995" fill-opacity="0.501961" x="22" y="141" width="28" height="13" />
<rect fill="#cbb56c" fill-opacity="0.501961" x="83" y="126" width="25" height="3" />
<rect fill="#363832" fill-opacity="0.501961" x="244" y="178" width="6" height="14" />
<rect fill="#2661b3" fill-opacity="0.501961" x="145" y="124" width="8" height="25" />
<rect fill="#1a4898" fill-opacity="0.501961" x="166" y="133" width="10" height="13" />
<rect fill="#242a24" fill-opacity="0.501961" x="92" y="145" width="4" height="25" />
<rect fill="#f8f6d3" fill-opacity="0.501961" x="87" y="0" width="62" height="4" />
<rect fill="#303534" fill-opacity="0.501961" x="241" y="160" width="3" height="22" />
<rect fill="#d3c171" fill-opacity="0.501961" x="105" y="83" width="10" height="17" />
<rect fill="#1e5bb2" fill-opacity="0.501961" x="169" y="151" width="29" height="6" />
<rect fill="#c9d4c9" fill-opacity="0.501961" x="192" y="113" width="2" height="5" />
<rect fill="#114ead" fill-opacity="0.501961" x="139" y="173" width="11" height="7" />
<rect fill="#1f345b" fill-opacity="0.501961" x="231" y="111" width="15" height="2" />
<rect fill="#323229" fill-opacity="0.501961" x="202" y="159" width="6" height="14" />
<rect fill="#245eac" fill-opacity="0.501961" x="202" y="122" width="10" height="19" />
<rect fill="#2a6bb9" fill-opacity="0.501961" x="211" y="157" width="25" height="10" />
<rect fill="#efe5b7" fill-opacity="0.501961" x="100" y="25" width="36" height="3" />
<rect fill="#282921" fill-opacity="0.501961" x="245" y="133" width="11" height="5" />
<rect fill="#14347c" fill-opacity="0.501961" x="102" y="170" width="28" height="13" />
<rect fill="#d5d1a5" fill-opacity="0.501961" x="107" y="88" width="42" height="3" />
<rect fill="#d0d3ca" fill-opacity="0.501961" x="76" y="61" width="40" height="22" />
<rect fill="#0b1f15" fill-opacity="0.501961" x="14" y="142" width="2" height="7" />
<rect fill="#cacec2" fill-opacity="0.501961" x="83" y="92" width="15" height="8" />
<rect fill="#1b2c47" fill-opacity="0.501961" x="29" y="140" width="8" height="2" />
<rect fill="#c0c587" fill-opacity="0.501961" x="61" y="131" width="17" height="4" />
<rect fill="#2c2a20" fill-opacity="0.501961" x="208" y="170" width="23" height="3" />
<rect fill="#1e509c" fill-opacity="0.501961" x="97" y="144" width="11" height="12" />
<rect fill="#969533" fill-opacity="0.501961" x="106" y="142" width="14" height="6" />
<rect fill="#132b65" fill-opacity="0.501961" x="99" y="160" width="18" height="12" />
<rect fill="#a47947" fill-opacity="0.501961" x="94" y="117" width="23" height="6" />
<rect fill="#c1c3a7" fill-opacity="0.501961" x="45" y="101" width="20" height="4" />
<rect fill="#c19300" fill-opacity="0.501961" x="118" y="119" width="6" height="22" />
<rect fill="#0e57bc" fill-opacity="0.501961" x="239" y="186" width="5" height="6" />
<rect fill="#d0c397" fill-opacity="0.501961" x="56" y="121" width="28" height="2" />
<rect fill="#decc90" fill-opacity="0.501961" x="202" y="70" width="16" height="5" />
<rect fill="#dacc7e" fill-opacity="0.501961" x="180" y="99" width="14" height="5" />
<rect fill="#feeca1" fill-opacity="0.501961" x="147" y="80" width="11" height="6" />
<rect fill="#b9c4c4" fill-opacity="0.501961" x="160" y="60" width="52" height="11" />
<rect fill="#dbdbca" fill-opacity="0.501961" x="137" y="56" width="22" height="9" />
<rect fill="#57542a" fill-opacity="0.501961" x="103" y="104" width="27" height="5" />
<rect fill="#c9ccbf" fill-opacity="0.501961" x="230" y="89" width="19" height="20" />
<rect fill="#2264b4" fill-opacity="0.501961" x="8" y="174" width="10" height="14" />
<rect fill="#f4ecd2" fill-opacity="0.501961" x="0" y="128" width="13" height="4" />
<rect fill="#c9cec5" fill-opacity="0.501961" x="101" y="7" width="17" height="16" />
<rect fill="#1b57b0" fill-opacity="0.501961" x="239" y="111" width="9" height="24" />
<rect fill="#d2ca8d" fill-opacity="0.501961" x="176" y="111" width="7" height="7" />
<rect fill="#0f45a1" fill-opacity="0.501961" x="143" y="188" width="28" height="4" />
<rect fill="#989222" fill-opacity="0.501961" x="132" y="132" width="5" height="22" />
<rect fill="#c4cabd" fill-opacity="0.501961" x="47" y="49" width="25" height="43" />
<rect fill="#1a50a2" fill-opacity="0.501961" x="213" y="175" width="28" height="4" />
<rect fill="#182943" fill-opacity="0.501961" x="243" y="109" width="13" height="1" />
<rect fill="#222924" fill-opacity="0.501961" x="6" y="169" width="31" height="3" />
<rect fill="#bec2bc" fill-opacity="0.501961" x="60" y="35" width="39" height="3" />
<rect fill="#265ea9" fill-opacity="0.501961" x="152" y="138" width="8" height="10" />
<rect fill="#2264b7" fill-opacity="0.501961" x="83" y="163" width="7" height="18" />
<rect fill="#1a4490" fill-opacity="0.501961" x="175" y="132" width="20" height="11" />
<rect fill="#b9905a" fill-opacity="0.501961" x="135" y="96" width="9" height="15" />
<rect fill="#b5b7a8" fill-opacity="0.501961" x="226" y="29" width="22" height="17" />
<rect fill="#bbad31" fill-opacity="0.501961" x="52" y="130" width="14" height="3" />
<rect fill="#3d2805" fill-opacity="0.501961" x="120" y="98" width="4" height="2" />
<rect fill="#f1e990" fill-opacity="0.501961" x="56" y="107" width="8" height="5" />
<rect fill="#0d437f" fill-opacity="0.501961" x="143" y="124" width="1" height="9" />
<rect fill="#abb0a3" fill-opacity="0.501961" x="182" y="84" width="21" height="4" />
<rect fill="#c0b78b" fill-opacity="0.501961" x="42" y="121" width="35" height="4" />
<rect fill="#bcbbad" fill-opacity="0.501961" x="0" y="97" width="18" height="7" />
<rect fill="#263347" fill-opacity="0.501961" x="204" y="114" width="12" height="1" />
<rect fill="#c0d0bf" fill-opacity="0.501961" x="16" y="137" width="3" height="8" />
<rect fill="#f1e4ae" fill-opacity="0.501961" x="17" y="98" width="37" height="4" />
<rect fill="#3171bd" fill-opacity="0.501961" x="213" y="127" width="16" height="9" />
<rect fill="#35342c" fill-opacity="0.501961" x="191" y="118" width="6" height="8" />
<rect fill="#144495" fill-opacity="0.501961" x="192" y="178" width="13" height="14" />
<rect fill="#87913a" fill-opacity="0.501961" x="104" y="132" width="4" height="10" />
<rect fill="#7d7e18" fill-opacity="0.501961" x="79" y="131" width="7" height="4" />
<rect fill="#b5b6a2" fill-opacity="0.501961" x="11" y="130" width="41" height="3" />
<rect fill="#2b302b" fill-opacity="0.501961" x="157" y="147" width="29" height="3" />
<rect fill="#c6b837" fill-opacity="0.501961" x="127" y="86" width="14" height="2" />
<rect fill="#292c29" fill-opacity="0.501961" x="163" y="155" width="6" height="11" />
<rect fill="#cfb066" fill-opacity="0.501961" x="122" y="124" width="8" height="2" />
<rect fill="#1f5fb5" fill-opacity="0.501961" x="0" y="145" width="13" height="24" />
<rect fill="#c5bc1a" fill-opacity="0.501961" x="48" y="107" width="5" height="3" />
<rect fill="#dbc380" fill-opacity="0.501961" x="139" y="118" width="10" height="2" />
<rect fill="#d3ccab" fill-opacity="0.501961" x="159" y="0" width="68" height="4" />
<rect fill="#d6c87e" fill-opacity="0.501961" x="98" y="91" width="41" height="6" />
<rect fill="#bcbfae" fill-opacity="0.501961" x="188" y="103" width="49" height="8" />
<rect fill="#0e3c97" fill-opacity="0.501961" x="161" y="164" width="4" height="14" />
<rect fill="#1b5daf" fill-opacity="0.501961" x="175" y="168" width="9" height="8" />
<rect fill="#be8d00" fill-opacity="0.501961" x="138" y="106" width="13" height="2" />
<rect fill="#c2af22" fill-opacity="0.501961" x="63" y="127" width="10" height="3" />
<rect fill="#1f5cab" fill-opacity="0.501961" x="47" y="169" width="9" height="23" />
<rect fill="#c8cecb" fill-opacity="0.501961" x="0" y="103" width="51" height="4" />
<rect fill="#d9d290" fill-opacity="0.501961" x="55" y="134" width="8" height="2" />
<rect fill="#c1c4c4" fill-opacity="0.501961" x="139" y="25" width="25" height="8" />
<rect fill="#c7bc50" fill-opacity="0.501961" x="171" y="108" width="16" height="4" />
<rect fill="#d1cdbb" fill-opacity="0.501961" x="25" y="17" width="32" height="24" />
<rect fill="#d0b47e" fill-opacity="0.501961" x="152" y="111" width="22" height="3" />
<rect fill="#3f4744" fill-opacity="0.501961" x="170" y="172" width="4" height="12" />
<rect fill="#c2c5b2" fill-opacity="0.501961" x="73" y="48" width="68" height="12" />
<rect fill="#262d28" fill-opacity="0.501961" x="90" y="188" width="29" height="3" />
<rect fill="#222a30" fill-opacity="0.501961" x="55" y="136" width="2" height="28" />
<rect fill="#34361c" fill-opacity="0.501961" x="119" y="154" width="23" height="2" />
<rect fill="#20231e" fill-opacity="0.501961" x="66" y="191" width="29" height="1" />
<rect fill="#1c58ab" fill-opacity="0.501961" x="176" y="182" width="16" height="6" />
<rect fill="#323429" fill-opacity="0.501961" x="19" y="150" width="4" height="27" />
<rect fill="#3075c8" fill-opacity="0.501961" x="246" y="117" width="10" height="13" />
<rect fill="#eddc5b" fill-opacity="0.501961" x="163" y="83" width="8" height="3" />
<rect fill="#203e6b" fill-opacity="0.501961" x="221" y="112" width="4" height="3" />
<rect fill="#22271d" fill-opacity="0.501961" x="22" y="171" width="4" height="18" />
<rect fill="#1d5ab0" fill-opacity="0.501961" x="188" y="148" width="9" height="10" />
<rect fill="#323736" fill-opacity="0.501961" x="193" y="172" width="24" height="4" />
<rect fill="#2e3129" fill-opacity="0.501961" x="133" y="171" width="5" height="16" />
<rect fill="#0f3e9a" fill-opacity="0.501961" x="149" y="154" width="13" height="4" />
<rect fill="#ebd5a2" fill-opacity="0.501961" x="219" y="23" width="37" height="2" />
<rect fill="#ced2be" fill-opacity="0.501961" x="55" y="113" width="15" height="3" />
<rect fill="#34362d" fill-opacity="0.501961" x="198" y="146" width="6" height="10" />
<rect fill="#e4d299" fill-opacity="0.501961" x="63" y="11" width="37" height="4" />
<rect fill="#2768ba" fill-opacity="0.501961" x="63" y="143" width="25" height="5" />
<rect fill="#f0e0a3" fill-opacity="0.501961" x="0" y="124" width="47" height="2" />
<rect fill="#c6a14e" fill-opacity="0.501961" x="90" y="116" width="10" height="11" />
<rect fill="#293030" fill-opacity="0.501961" x="207" y="185" width="7" height="7" />
<rect fill="#224e85" fill-opacity="0.501961" x="121" y="143" width="5" height="10" />
<rect fill="#b5c1c7" fill-opacity="0.501961" x="239" y="53" width="17" height="27" />
<rect fill="#c0c1a9" fill-opacity="0.501961" x="38" y="106" width="6" height="32" />
<rect fill="#3e7bc6" fill-opacity="0.501961" x="72" y="148" width="11" height="9" />
<rect fill="#363e41" fill-opacity="0.501961" x="204" y="163" width="5" height="20" />
<rect fill="#1853a6" fill-opacity="0.501961" x="98" y="136" width="5" height="13" />
<rect fill="#869266" fill-opacity="0.501961" x="124" y="140" width="4" height="8" />
<rect fill="#114098" fill-opacity="0.501961" x="12" y="150" width="4" height="15" />
<rect fill="#bcb464" fill-opacity="0.501961" x="52" y="128" width="3" height="12" />
<rect fill="#b7bdc6" fill-opacity="0.501961" x="141" y="87" width="10" height="4" />
<rect fill="#ca9200" fill-opacity="0.501961" x="74" y="105" width="22" height="3" />
<rect fill="#192953" fill-opacity="0.501961" x="182" y="117" width="10" height="2" />
<rect fill="#8c9244" fill-opacity="0.501961" x="139" y="124" width="4" height="23" />
<rect fill="#bd9f62" fill-opacity="0.501961" x="125" y="120" width="21" height="4" />
<rect fill="#141e1e" fill-opacity="0.501961" x="16" y="146" width="2" height="13" />
<rect fill="#8c944c" fill-opacity="0.501961" x="67" y="134" width="9" height="4" />
<rect fill="#c9ad36" fill-opacity="0.501961" x="148" y="91" width="5" height="8" />
<rect fill="#f8ebb3" fill-opacity="0.501961" x="185" y="6" width="41" height="3" />
<rect fill="#bac5c4" fill-opacity="0.501961" x="115" y="68" width="61" height="12" />
<rect fill="#c69500" fill-opacity="0.501961" x="82" y="122" width="8" height="2" />
<rect fill="#c7c15b" fill-opacity="0.501961" x="53" y="103" width="8" height="4" />
<rect fill="#c2ccc3" fill-opacity="0.501961" x="0" y="139" width="6" height="5" />
<rect fill="#2f373b" fill-opacity="0.501961" x="233" y="127" width="3" height="26" />
<rect fill="#c5c9c1" fill-opacity="0.501961" x="65" y="15" width="28" height="18" />
<rect fill="#616e6e" fill-opacity="0.501961" x="51" y="124" width="6" height="2" />
<rect fill="#d9d397" fill-opacity="0.501961" x="135" y="83" width="7" height="12" />
<rect fill="#2b3c3c" fill-opacity="0.501961" x="166" y="120" width="9" height="4" />
<rect fill="#ffffd4" fill-opacity="0.501961" x="102" y="35" width="11" height="3" />
<rect fill="#d6d6c7" fill-opacity="0.501961" x="20" y="21" width="15" height="53" />
<rect fill="#242c37" fill-opacity="0.501961" x="20" y="142" width="3" height="12" />
<rect fill="#19499b" fill-opacity="0.501961" x="151" y="128" width="7" height="10" />
<rect fill="#1c252f" fill-opacity="0.501961" x="141" y="180" width="12" height="7" />
<rect fill="#bcbfa9" fill-opacity="0.501961" x="192" y="34" width="30" height="27" />
<rect fill="#2d2f38" fill-opacity="0.501961" x="198" y="115" width="10" height="1" />
<rect fill="#cecbc1" fill-opacity="0.501961" x="117" y="36" width="53" height="2" />
<rect fill="#2b2f2c" fill-opacity="0.501961" x="70" y="159" width="30" height="3" />
<rect fill="#deca70" fill-opacity="0.501961" x="52" y="116" width="23" height="4" />
<rect fill="#efd439" fill-opacity="0.501961" x="116" y="91" width="8" height="2" />
<rect fill="#2f72c3" fill-opacity="0.501961" x="221" y="177" width="11" height="14" />
<rect fill="#ffeca4" fill-opacity="0.501961" x="172" y="11" width="16" height="3" />
<rect fill="#d3d6c7" fill-opacity="0.501961" x="63" y="75" width="38" height="11" />
<rect fill="#e2cd13" fill-opacity="0.501961" x="158" y="115" width="8" height="6" />
<rect fill="#124297" fill-opacity="0.501961" x="26" y="159" width="12" height="8" />
<rect fill="#fde5b2" fill-opacity="0.501961" x="247" y="3" width="9" height="3" />
<rect fill="#bdae3a" fill-opacity="0.501961" x="50" y="132" width="7" height="5" />
<rect fill="#b7a1ac" fill-opacity="0.501961" x="131" y="105" width="4" height="2" />
<rect fill="#205aac" fill-opacity="0.501961" x="205" y="147" width="23" height="7" />
<rect fill="#1546a6" fill-opacity="0.501961" x="136" y="158" width="2" height="10" />
<rect fill="#e0c761" fill-opacity="0.501961" x="150" y="102" width="22" height="4" />
<rect fill="#ac7123" fill-opacity="0.501961" x="134" y="111" width="17" height="2" />
<rect fill="#ccc469" fill-opacity="0.501961" x="65" y="93" width="12" height="6" />
<rect fill="#dbd6aa" fill-opacity="0.501961" x="60" y="125" width="5" height="4" />
<rect fill="#212a30" fill-opacity="0.501961" x="125" y="152" width="7" height="12" />
<rect fill="#0f1e4c" fill-opacity="0.501961" x="92" y="131" width="7" height="2" />
<rect fill="#15499b" fill-opacity="0.501961" x="242" y="156" width="4" height="6" />
<rect fill="#124686" fill-opacity="0.501961" x="142" y="147" width="6" height="3" />
<rect fill="#c8c9b9" fill-opacity="0.501961" x="25" y="28" width="20" height="17" />
<rect fill="#d8cda2" fill-opacity="0.501961" x="124" y="9" width="19" height="10" />
<rect fill="#2b3339" fill-opacity="0.501961" x="239" y="150" width="2" height="28" />
<rect fill="#18489d" fill-opacity="0.501961" x="95" y="132" width="5" height="15" />
<rect fill="#a08a02" fill-opacity="0.501961" x="127" y="125" width="7" height="15" />
<rect fill="#dfd1a3" fill-opacity="0.501961" x="149" y="33" width="38" height="4" />
<rect fill="#1b56ad" fill-opacity="0.501961" x="231" y="173" width="9" height="9" />
<rect fill="#808461" fill-opacity="0.501961" x="108" y="99" width="5" height="6" />
<rect fill="#052873" fill-opacity="0.501961" x="204" y="180" width="3" height="12" />
<rect fill="#bfc4c3" fill-opacity="0.501961" x="228" y="7" width="28" height="16" />
<rect fill="#bbcbd2" fill-opacity="0.501961" x="227" y="74" width="24" height="13" />
<rect fill="#2c312f" fill-opacity="0.501961" x="179" y="144" width="32" height="3" />
<rect fill="#dacca0" fill-opacity="0.501961" x="142" y="20" width="39" height="2" />
<rect fill="#b9ab86" fill-opacity="0.501961" x="91" y="123" width="5" height="8" />
<rect fill="#c2ac88" fill-opacity="0.501961" x="87" y="109" width="14" height="7" />
<rect fill="#c28f00" fill-opacity="0.501961" x="89" y="120" width="4" height="4" />
<rect fill="#272c2a" fill-opacity="0.501961" x="242" y="134" width="9" height="6" />
<rect fill="#bcbc9e" fill-opacity="0.501961" x="163" y="80" width="14" height="4" />
<rect fill="#3a4142" fill-opacity="0.501961" x="222" y="138" width="22" height="3" />
<rect fill="#2f3639" fill-opacity="0.501961" x="201" y="137" width="2" height="29" />
<rect fill="#968f12" fill-opacity="0.501961" x="109" y="146" width="6" height="6" />
<rect fill="#fff6a8" fill-opacity="0.501961" x="95" y="31" width="25" height="2" />
<rect fill="#174da0" fill-opacity="0.501961" x="89" y="172" width="5" height="16" />
<rect fill="#222929" fill-opacity="0.501961" x="6" y="168" width="40" height="2" />
<rect fill="#282d31" fill-opacity="0.501961" x="248" y="185" width="3" height="7" />
<rect fill="#222925" fill-opacity="0.501961" x="8" y="143" width="8" height="2" />
<rect fill="#cfc595" fill-opacity="0.501961" x="217" y="67" width="13" height="3" />
<rect fill="#c7d1d8" fill-opacity="0.501961" x="118" y="81" width="6" height="7" />
<rect fill="#1d252b" fill-opacity="0.501961" x="152" y="178" width="9" height="7" />
<rect fill="#8d8d17" fill-opacity="0.501961" x="134" y="151" width="2" height="5" />
<rect fill="#273138" fill-opacity="0.501961" x="225" y="115" width="7" height="5" />
<rect fill="#143579" fill-opacity="0.501961" x="56" y="136" width="3" height="6" />
<rect fill="#2d3131" fill-opacity="0.501961" x="158" y="126" width="5" height="10" />
<rect fill="#2a67b3" fill-opacity="0.501961" x="62" y="137" width="6" height="24" />
<rect fill="#134ba2" fill-opacity="0.501961" x="20" y="180" width="2" height="12" />
<rect fill="#cbc09d" fill-opacity="0.501961" x="234" y="23" width="14" height="6" />
<rect fill="#1651a6" fill-opacity="0.501961" x="196" y="160" width="5" height="13" />
<rect fill="#fff4bc" fill-opacity="0.501961" x="208" y="28" width="16" height="3" />
<rect fill="#afad92" fill-opacity="0.501961" x="245" y="31" width="11" height="5" />
<rect fill="#3176c7" fill-opacity="0.501961" x="0" y="157" width="8" height="8" />
<rect fill="#c6ba45" fill-opacity="0.501961" x="101" y="86" width="12" height="3" />
<rect fill="#1650a2" fill-opacity="0.501961" x="245" y="160" width="5" height="6" />
<rect fill="#b9c5cc" fill-opacity="0.501961" x="194" y="23" width="22" height="5" />
<rect fill="#e9e6d4" fill-opacity="0.501961" x="5" y="48" width="16" height="11" />
<rect fill="#bcc1b0" fill-opacity="0.501961" x="0" y="133" width="30" height="8" />
<rect fill="#f5efb2" fill-opacity="0.501961" x="36" y="5" width="69" height="3" />
<rect fill="#bcc4bb" fill-opacity="0.501961" x="42" y="85" width="20" height="12" />
<rect fill="#153b85" fill-opacity="0.501961" x="116" y="174" width="15" height="6" />
<rect fill="#2e70be" fill-opacity="0.501961" x="172" y="155" width="24" height="11" />
<rect fill="#adb197" fill-opacity="0.501961" x="35" y="106" width="12" height="5" />
<rect fill="#d8cc9e" fill-opacity="0.501961" x="182" y="77" width="13" height="6" />
<rect fill="#dcdbc8" fill-opacity="0.501961" x="53" y="50" width="21" height="3" />
<rect fill="#fcf4ba" fill-opacity="0.501961" x="0" y="14" width="35" height="5" />
<rect fill="#947400" fill-opacity="0.501961" x="144" y="121" width="8" height="2" />
<rect fill="#212d35" fill-opacity="0.501961" x="91" y="132" width="2" height="35" />
<rect fill="#fceeb0" fill-opacity="0.501961" x="159" y="13" width="16" height="3" />
<rect fill="#0a1f2c" fill-opacity="0.501961" x="252" y="108" width="4" height="1" />
<rect fill="#5d4b18" fill-opacity="0.501961" x="123" y="99" width="3" height="14" />
<rect fill="#204f98" fill-opacity="0.501961" x="212" y="113" width="10" height="4" />
<rect fill="#82822a" fill-opacity="0.501961" x="64" y="136" width="12" height="2" />
<rect fill="#e5d8b1" fill-opacity="0.501961" x="22" y="16" width="40" height="5" />
<rect fill="#d4d0b6" fill-opacity="0.501961" x="183" y="13" width="27" height="7" />
<rect fill="#9a9119" fill-opacity="0.501961" x="116" y="136" width="5" height="10" />
<rect fill="#1c4b9a" fill-opacity="0.501961" x="44" y="153" width="10" height="10" />
<rect fill="#1a55a6" fill-opacity="0.501961" x="66" y="182" width="22" height="6" />
<rect fill="#d6cdab" fill-opacity="0.501961" x="67" y="89" width="17" height="4" />
<rect fill="#877b76" fill-opacity="0.501961" x="101" y="110" width="3" height="7" />
<rect fill="#2d73c3" fill-opacity="0.501961" x="144" y="160" width="8" height="16" />
<rect fill="#cdd1cd" fill-opacity="0.501961" x="0" y="119" width="34" height="3" />
<rect fill="#bec3bf" fill-opacity="0.501961" x="130" y="35" width="19" height="4" />
<rect fill="#abb9c6" fill-opacity="0.501961" x="150" y="86" width="8" height="3" />
<rect fill="#afb0a6" fill-opacity="0.501961" x="151" y="100" width="14" height="2" />
<rect fill="#205fb4" fill-opacity="0.501961" x="221" y="145" width="10" height="7" />
<rect fill="#56491c" fill-opacity="0.501961" x="146" y="122" width="14" height="2" />
<rect fill="#bbba94" fill-opacity="0.501961" x="44" y="48" width="19" height="2" />
<rect fill="#c5a57b" fill-opacity="0.501961" x="138" y="108" width="12" height="2" />
<rect fill="#f9eebd" fill-opacity="0.501961" x="48" y="41" width="34" height="2" />
<rect fill="#e5c87a" fill-opacity="0.501961" x="99" y="102" width="2" height="8" />
<rect fill="#5a4711" fill-opacity="0.501961" x="109" y="106" width="15" height="11" />
<rect fill="#c7ab74" fill-opacity="0.501961" x="128" y="99" width="26" height="6" />
<rect fill="#c5c5af" fill-opacity="0.501961" x="38" y="26" width="43" height="4" />
<rect fill="#5c4a00" fill-opacity="0.501961" x="169" y="119" width="5" height="2" />
<rect fill="#c2a07b" fill-opacity="0.501961" x="153" y="111" width="4" height="6" />
<rect fill="#cbc161" fill-opacity="0.501961" x="156" y="89" width="14" height="4" />
<rect fill="#293132" fill-opacity="0.501961" x="176" y="118" width="7" height="1" />
<rect fill="#c6a851" fill-opacity="0.501961" x="82" y="126" width="34" height="2" />
<rect fill="#d2d3c6" fill-opacity="0.501961" x="2" y="31" width="67" height="7" />
<rect fill="#bcc0a6" fill-opacity="0.501961" x="27" y="53" width="22" height="2" />
<rect fill="#b1a037" fill-opacity="0.501961" x="83" y="128" width="6" height="5" />
<rect fill="#705a2f" fill-opacity="0.501961" x="105" y="101" width="2" height="16" />
<rect fill="#c2a684" fill-opacity="0.501961" x="67" y="120" width="24" height="1" />
<rect fill="#eceabc" fill-opacity="0.501961" x="0" y="0" width="53" height="10" />
<rect fill="#0c2873" fill-opacity="0.501961" x="142" y="187" width="8" height="5" />
<rect fill="#fcf6b3" fill-opacity="0.501961" x="36" y="7" width="44" height="6" />
<rect fill="#c3a30d" fill-opacity="0.501961" x="163" y="106" width="8" height="1" />
<rect fill="#4b4d3c" fill-opacity="0.501961" x="19" y="145" width="2" height="15" />
<rect fill="#252c28" fill-opacity="0.501961" x="59" y="157" width="1" height="30" />
<rect fill="#2363b7" fill-opacity="0.501961" x="170" y="154" width="10" height="6" />
<rect fill="#c0c2aa" fill-opacity="0.501961" x="38" y="40" width="35" height="1" />
<rect fill="#c8c1a8" fill-opacity="0.501961" x="160" y="27" width="50" height="3" />
<rect fill="#1546a3" fill-opacity="0.501961" x="247" y="171" width="5" height="5" />
<rect fill="#d9d4a0" fill-opacity="0.501961" x="97" y="92" width="6" height="5" />
<rect fill="#eed996" fill-opacity="0.501961" x="55" y="14" width="15" height="3" />
<rect fill="#1e58a6" fill-opacity="0.501961" x="107" y="191" width="28" height="1" />
<rect fill="#6d803f" fill-opacity="0.501961" x="143" y="137" width="2" height="6" />
<rect fill="#bcbe9f" fill-opacity="0.501961" x="104" y="39" width="127" height="3" />
<rect fill="#fae8a2" fill-opacity="0.501961" x="0" y="17" width="6" height="10" />
<rect fill="#c1c1b1" fill-opacity="0.501961" x="91" y="34" width="13" height="2" />
<rect fill="#1a5dbb" fill-opacity="0.501961" x="65" y="170" width="4" height="13" />
<rect fill="#1c53ae" fill-opacity="0.501961" x="232" y="114" width="9" height="5" />
</g>
</svg>