<svg xmlns="http://www.w3.org/2000/svg" version="1.1" width="1024" height="768">
<rect x="0" y="0" width="1024" height="768" fill="#929d99" />
<g transform="scale(4.000000) translate(0.5 0.5)">
<rect fill="#00005c" fill-opacity="0.501961" x="0" y="135" width="256" height="57" />
<rect fill="#e9e0a8" fill-opacity="0.501961" x="2" y="0" width="140" height="158" />
<rect fill="#002b6e" fill-opacity="0.501961" x="2" y="141" width="131" height="51" />
<rect fill="#674e00" fill-opacity="0.501961" x="86" y="100" width="58" height="60" />
<rect fill="#003d7e" fill-opacity="0.501961" x="144" y="114" width="107" height="78" />
<rect fill="#e5d69e" fill-opacity="0.501961" x="129" y="0" width="54" height="136" />
<rect fill="#082e65" fill-opacity="0.501961" x="141" y="121" width="64" height="35" />
<rect fill="#e8e5cc" fill-opacity="0.501961" x="0" y="0" width="237" height="103" />
<rect fill="#a28728" fill-opacity="0.501961" x="63" y="92" width="106" height="48" />
<rect fill="#0041a2" fill-opacity="0.501961" x="27" y="138" width="81" height="22" />
<rect fill="#0141a6" fill-opacity="0.501961" x="205" y="112" width="51" height="26" />
<rect fill="#013ba0" fill-opacity="0.501961" x="144" y="122" width="36" height="26" />
<rect fill="#d7d7c1" fill-opacity="0.501961" x="183" y="0" width="73" height="111" />
<rect fill="#1c6bbc" fill-opacity="0.501961" x="28" y="171" width="59" height="21" />
<rect fill="#36270d" fill-opacity="0.501961" x="108" y="102" width="24" height="15" />
<rect fill="#083076" fill-opacity="0.501961" x="84" y="131" width="19" height="21" />
<rect fill="#d6d8c5" fill-opacity="0.501961" x="0" y="121" width="38" height="23" />
<rect fill="#0d2239" fill-opacity="0.501961" x="94" y="155" width="45" height="37" />
<rect fill="#0b51ba" fill-opacity="0.501961" x="235" y="109" width="21" height="25" />
<rect fill="#2a6eb6" fill-opacity="0.501961" x="167" y="153" width="89" height="15" />
<rect fill="#d5ac24" fill-opacity="0.501961" x="140" y="102" width="40" height="21" />
<rect fill="#297ddc" fill-opacity="0.501961" x="70" y="165" width="21" height="22" />
<rect fill="#dec675" fill-opacity="0.501961" x="53" y="88" width="50" height="46" />
<rect fill="#094393" fill-opacity="0.501961" x="0" y="142" width="41" height="23" />
<rect fill="#3891f6" fill-opacity="0.501961" x="242" y="141" width="14" height="18" />
<rect fill="#1263c9" fill-opacity="0.501961" x="139" y="153" width="23" height="27" />
<rect fill="#1c272b" fill-opacity="0.501961" x="134" y="174" width="44" height="14" />
<rect fill="#361d00" fill-opacity="0.501961" x="230" y="134" width="26" height="5" />
<rect fill="#2585f5" fill-opacity="0.501961" x="215" y="178" width="25" height="14" />
<rect fill="#12469a" fill-opacity="0.501961" x="165" y="119" width="23" height="24" />
<rect fill="#273232" fill-opacity="0.501961" x="202" y="165" width="54" height="9" />
<rect fill="#a7991e" fill-opacity="0.501961" x="110" y="118" width="35" height="33" />
<rect fill="#bdc2b1" fill-opacity="0.501961" x="48" y="43" width="126" height="59" />
<rect fill="#1f2f36" fill-opacity="0.501961" x="54" y="137" width="9" height="55" />
<rect fill="#232d2a" fill-opacity="0.501961" x="18" y="142" width="10" height="48" />
<rect fill="#272c32" fill-opacity="0.501961" x="159" y="122" width="10" height="48" />
<rect fill="#d29100" fill-opacity="0.501961" x="64" y="105" width="33" height="5" />
<rect fill="#146dd0" fill-opacity="0.501961" x="0" y="175" width="23" height="17" />
<rect fill="#bcab5e" fill-opacity="0.501961" x="97" y="86" width="89" height="23" />
<rect fill="#433917" fill-opacity="0.501961" x="105" y="99" width="21" height="18" />
<rect fill="#dcc986" fill-opacity="0.501961" x="148" y="110" width="68" height="5" />
<rect fill="#307cce" fill-opacity="0.501961" x="62" y="137" width="25" height="20" />
<rect fill="#2c2c26" fill-opacity="0.501961" x="229" y="112" width="7" height="40" />
<rect fill="#454638" fill-opacity="0.501961" x="44" y="125" width="13" height="5" />
<rect fill="#206ed3" fill-opacity="0.501961" x="137" y="158" width="25" height="18" />
<rect fill="#246ac1" fill-opacity="0.501961" x="210" y="144" width="22" height="28" />
<rect fill="#322d18" fill-opacity="0.501961" x="186" y="141" width="54" height="5" />
<rect fill="#0f3769" fill-opacity="0.501961" x="80" y="131" width="21" height="10" />
<rect fill="#0032a5" fill-opacity="0.501961" x="120" y="143" width="6" height="13" />
<rect fill="#2c2306" fill-opacity="0.501961" x="140" y="150" width="30" height="5" />
<rect fill="#fff7b8" fill-opacity="0.501961" x="0" y="2" width="82" height="23" />
<rect fill="#2a323a" fill-opacity="0.501961" x="198" y="141" width="10" height="46" />
<rect fill="#25261b" fill-opacity="0.501961" x="59" y="188" width="54" height="4" />
<rect fill="#2c271e" fill-opacity="0.501961" x="236" y="152" width="7" height="26" />
<rect fill="#332f07" fill-opacity="0.501961" x="68" y="159" width="29" height="5" />
<rect fill="#297bdb" fill-opacity="0.501961" x="175" y="156" width="22" height="18" />
<rect fill="#112d5e" fill-opacity="0.501961" x="29" y="139" width="28" height="5" />
<rect fill="#1d2003" fill-opacity="0.501961" x="0" y="169" width="32" height="5" />
<rect fill="#323120" fill-opacity="0.501961" x="165" y="175" width="48" height="5" />
<rect fill="#20519b" fill-opacity="0.501961" x="143" y="124" width="29" height="20" />
<rect fill="#1a6cd1" fill-opacity="0.501961" x="0" y="145" width="12" height="26" />
<rect fill="#fef7ba" fill-opacity="0.501961" x="39" y="0" width="87" height="13" />
<rect fill="#d4b300" fill-opacity="0.501961" x="150" y="116" width="25" height="5" />
<rect fill="#2f2919" fill-opacity="0.501961" x="203" y="169" width="31" height="5" />
<rect fill="#38341d" fill-opacity="0.501961" x="161" y="145" width="39" height="5" />
<rect fill="#125abf" fill-opacity="0.501961" x="176" y="181" width="26" height="11" />
<rect fill="#a49508" fill-opacity="0.501961" x="105" y="127" width="35" height="17" />
<rect fill="#c0b03c" fill-opacity="0.501961" x="47" y="129" width="43" height="5" />
<rect fill="#1f2611" fill-opacity="0.501961" x="30" y="165" width="32" height="5" />
<rect fill="#b8bdab" fill-opacity="0.501961" x="81" y="36" width="161" height="26" />
<rect fill="#032d72" fill-opacity="0.501961" x="243" y="108" width="13" height="5" />
<rect fill="#dad3b3" fill-opacity="0.501961" x="115" y="0" width="141" height="34" />
<rect fill="#3c2d0b" fill-opacity="0.501961" x="88" y="138" width="7" height="24" />
<rect fill="#d0d1c3" fill-opacity="0.501961" x="0" y="94" width="38" height="46" />
<rect fill="#276ece" fill-opacity="0.501961" x="176" y="149" width="21" height="9" />
<rect fill="#c1c4c1" fill-opacity="0.501961" x="19" y="19" width="132" height="10" />
<rect fill="#e1d176" fill-opacity="0.501961" x="173" y="112" width="22" height="5" />
<rect fill="#d7d9ca" fill-opacity="0.501961" x="75" y="62" width="25" height="39" />
<rect fill="#ebcd4c" fill-opacity="0.501961" x="68" y="99" width="35" height="5" />
<rect fill="#c89119" fill-opacity="0.501961" x="77" y="122" width="62" height="5" />
<rect fill="#0056c5" fill-opacity="0.501961" x="250" y="171" width="6" height="21" />
<rect fill="#2f75cb" fill-opacity="0.501961" x="61" y="142" width="18" height="18" />
<rect fill="#306bba" fill-opacity="0.501961" x="202" y="112" width="25" height="29" />
<rect fill="#cacec2" fill-opacity="0.501961" x="196" y="108" width="32" height="5" />
<rect fill="#163466" fill-opacity="0.501961" x="171" y="118" width="32" height="5" />
<rect fill="#143676" fill-opacity="0.501961" x="116" y="149" width="12" height="43" />
<rect fill="#cdd2bc" fill-opacity="0.501961" x="0" y="138" width="22" height="5" />
<rect fill="#282810" fill-opacity="0.501961" x="110" y="184" width="34" height="5" />
<rect fill="#c2ccd1" fill-opacity="0.501961" x="116" y="54" width="58" height="28" />
<rect fill="#d8cc81" fill-opacity="0.501961" x="103" y="81" width="66" height="16" />
<rect fill="#0742a9" fill-opacity="0.501961" x="141" y="186" width="29" height="6" />
<rect fill="#c5d1d5" fill-opacity="0.501961" x="228" y="73" width="28" height="36" />
<rect fill="#2c363c" fill-opacity="0.501961" x="156" y="124" width="10" height="28" />
<rect fill="#2866bb" fill-opacity="0.501961" x="145" y="128" width="13" height="22" />
<rect fill="#195eb9" fill-opacity="0.501961" x="30" y="176" width="30" height="16" />
<rect fill="#1349a6" fill-opacity="0.501961" x="22" y="141" width="26" height="9" />
<rect fill="#29281b" fill-opacity="0.501961" x="58" y="161" width="7" height="27" />
<rect fill="#bbc0af" fill-opacity="0.501961" x="173" y="36" width="21" height="71" />
<rect fill="#1f221e" fill-opacity="0.501961" x="21" y="179" width="9" height="13" />
<rect fill="#273035" fill-opacity="0.501961" x="15" y="144" width="10" height="37" />
<rect fill="#2f302e" fill-opacity="0.501961" x="243" y="165" width="8" height="27" />
<rect fill="#cc9f84" fill-opacity="0.501961" x="126" y="118" width="20" height="5" />
<rect fill="#2576d7" fill-opacity="0.501961" x="112" y="190" width="23" height="2" />
<rect fill="#f6e3a2" fill-opacity="0.501961" x="184" y="0" width="34" height="13" />
<rect fill="#307ad2" fill-opacity="0.501961" x="64" y="168" width="19" height="8" />
<rect fill="#1c62bf" fill-opacity="0.501961" x="227" y="173" width="14" height="19" />
<rect fill="#f0e6b0" fill-opacity="0.501961" x="81" y="31" width="44" height="10" />
<rect fill="#dfce7e" fill-opacity="0.501961" x="148" y="101" width="48" height="5" />
<rect fill="#222a1f" fill-opacity="0.501961" x="115" y="153" width="27" height="5" />
<rect fill="#cfd2ca" fill-opacity="0.501961" x="0" y="28" width="51" height="95" />
<rect fill="#323026" fill-opacity="0.501961" x="225" y="112" width="8" height="13" />
<rect fill="#f4e59e" fill-opacity="0.501961" x="17" y="97" width="50" height="5" />
<rect fill="#2d5567" fill-opacity="0.501961" x="56" y="136" width="24" height="5" />
<rect fill="#0d4aba" fill-opacity="0.501961" x="96" y="130" width="5" height="14" />
<rect fill="#b3b066" fill-opacity="0.501961" x="34" y="106" width="21" height="5" />
<rect fill="#323838" fill-opacity="0.501961" x="193" y="139" width="48" height="5" />
<rect fill="#b6b8a2" fill-opacity="0.501961" x="193" y="32" width="51" height="22" />
<rect fill="#c7cfcf" fill-opacity="0.501961" x="57" y="66" width="79" height="18" />
<rect fill="#b5bba4" fill-opacity="0.501961" x="16" y="130" width="26" height="9" />
<rect fill="#894a04" fill-opacity="0.501961" x="108" y="115" width="21" height="5" />
<rect fill="#323327" fill-opacity="0.501961" x="206" y="172" width="8" height="20" />
<rect fill="#282f30" fill-opacity="0.501961" x="166" y="155" width="5" height="37" />
<rect fill="#322c14" fill-opacity="0.501961" x="171" y="180" width="6" height="12" />
<rect fill="#1f63bd" fill-opacity="0.501961" x="206" y="147" width="27" height="11" />
<rect fill="#b6b796" fill-opacity="0.501961" x="107" y="38" width="81" height="5" />
<rect fill="#fcfbd2" fill-opacity="0.501961" x="97" y="0" width="53" height="5" />
<rect fill="#246bc2" fill-opacity="0.501961" x="3" y="176" width="16" height="11" />
<rect fill="#143582" fill-opacity="0.501961" x="106" y="163" width="25" height="21" />
<rect fill="#cebea4" fill-opacity="0.501961" x="44" y="111" width="58" height="5" />
<rect fill="#23271d" fill-opacity="0.501961" x="126" y="180" width="40" height="5" />
<rect fill="#241d0a" fill-opacity="0.501961" x="53" y="141" width="4" height="18" />
<rect fill="#bbab24" fill-opacity="0.501961" x="47" y="132" width="11" height="5" />
<rect fill="#d3a200" fill-opacity="0.501961" x="68" y="104" width="16" height="5" />
<rect fill="#c9a331" fill-opacity="0.501961" x="137" y="107" width="50" height="5" />
<rect fill="#5f4917" fill-opacity="0.501961" x="101" y="106" width="29" height="9" />
<rect fill="#d1c141" fill-opacity="0.501961" x="95" y="85" width="17" height="5" />
<rect fill="#212723" fill-opacity="0.501961" x="0" y="168" width="29" height="5" />
<rect fill="#e5cb03" fill-opacity="0.501961" x="157" y="115" width="19" height="5" />
<rect fill="#95994a" fill-opacity="0.501961" x="106" y="140" width="38" height="5" />
<rect fill="#c0c3ba" fill-opacity="0.501961" x="143" y="17" width="70" height="14" />
<rect fill="#f9e495" fill-opacity="0.501961" x="137" y="11" width="48" height="5" />
<rect fill="#a96c1d" fill-opacity="0.501961" x="132" y="110" width="19" height="5" />
<rect fill="#17479a" fill-opacity="0.501961" x="23" y="143" width="27" height="24" />
<rect fill="#c0c4bf" fill-opacity="0.501961" x="61" y="15" width="37" height="17" />
<rect fill="#c7c7b9" fill-opacity="0.501961" x="94" y="7" width="34" height="18" />
<rect fill="#1249a3" fill-opacity="0.501961" x="191" y="178" width="14" height="13" />
<rect fill="#313535" fill-opacity="0.501961" x="84" y="147" width="13" height="15" />
<rect fill="#c1c8c8" fill-opacity="0.501961" x="199" y="9" width="57" height="15" />
<rect fill="#2769c4" fill-opacity="0.501961" x="238" y="111" width="18" height="22" />
<rect fill="#93932e" fill-opacity="0.501961" x="65" y="134" width="11" height="5" />
<rect fill="#1d386a" fill-opacity="0.501961" x="231" y="110" width="13" height="5" />
<rect fill="#392e1f" fill-opacity="0.501961" x="192" y="118" width="6" height="15" />
<rect fill="#1a5dc2" fill-opacity="0.501961" x="248" y="172" width="8" height="9" />
<rect fill="#1454b5" fill-opacity="0.501961" x="158" y="185" width="13" height="7" />
<rect fill="#195dc7" fill-opacity="0.501961" x="58" y="136" width="7" height="11" />
<rect fill="#d1be72" fill-opacity="0.501961" x="45" y="118" width="38" height="5" />
<rect fill="#b9c0b7" fill-opacity="0.501961" x="195" y="33" width="27" height="79" />
<rect fill="#1f210e" fill-opacity="0.501961" x="128" y="156" width="7" height="19" />
<rect fill="#1f58b0" fill-opacity="0.501961" x="96" y="139" width="10" height="16" />
<rect fill="#1863cf" fill-opacity="0.501961" x="141" y="174" width="12" height="5" />
<rect fill="#b0b4a3" fill-opacity="0.501961" x="0" y="107" width="44" height="5" />
<rect fill="#bdc7c4" fill-opacity="0.501961" x="155" y="60" width="94" height="21" />
<rect fill="#353831" fill-opacity="0.501961" x="186" y="173" width="25" height="5" />
<rect fill="#2a72ca" fill-opacity="0.501961" x="216" y="162" width="21" height="5" />
<rect fill="#2366c0" fill-opacity="0.501961" x="200" y="118" width="27" height="16" />
<rect fill="#e3d294" fill-opacity="0.501961" x="146" y="79" width="45" height="5" />
<rect fill="#2366bb" fill-opacity="0.501961" x="173" y="166" width="29" height="5" />
<rect fill="#1f4d9d" fill-opacity="0.501961" x="169" y="125" width="24" height="19" />
<rect fill="#272b28" fill-opacity="0.501961" x="141" y="149" width="26" height="5" />
<rect fill="#d1d7bf" fill-opacity="0.501961" x="16" y="140" width="4" height="5" />
<rect fill="#fbf2b9" fill-opacity="0.501961" x="0" y="0" width="37" height="21" />
<rect fill="#727b68" fill-opacity="0.501961" x="111" y="98" width="13" height="5" />
<rect fill="#e5e0ce" fill-opacity="0.501961" x="0" y="23" width="26" height="43" />
<rect fill="#404520" fill-opacity="0.501961" x="153" y="120" width="21" height="5" />
<rect fill="#2255a0" fill-opacity="0.501961" x="161" y="122" width="30" height="5" />
<rect fill="#1453b1" fill-opacity="0.501961" x="67" y="185" width="14" height="5" />
<rect fill="#c3b17b" fill-opacity="0.501961" x="86" y="125" width="20" height="5" />
<rect fill="#30352f" fill-opacity="0.501961" x="235" y="135" width="5" height="30" />
<rect fill="#c3a108" fill-opacity="0.501961" x="73" y="124" width="13" height="5" />
<rect fill="#f2e09e" fill-opacity="0.501961" x="190" y="28" width="32" height="5" />
<rect fill="#1c60bb" fill-opacity="0.501961" x="29" y="172" width="28" height="5" />
<rect fill="#2065c0" fill-opacity="0.501961" x="0" y="148" width="14" height="19" />
<rect fill="#2d6fc7" fill-opacity="0.501961" x="239" y="140" width="17" height="9" />
<rect fill="#c2c7bb" fill-opacity="0.501961" x="191" y="109" width="21" height="5" />
<rect fill="#c4ccc7" fill-opacity="0.501961" x="39" y="65" width="29" height="31" />
<rect fill="#262f2e" fill-opacity="0.501961" x="232" y="133" width="24" height="5" />
<rect fill="#103d83" fill-opacity="0.501961" x="249" y="108" width="7" height="5" />
<rect fill="#bac0c5" fill-opacity="0.501961" x="141" y="85" width="17" height="5" />
<rect fill="#0d1c3b" fill-opacity="0.501961" x="9" y="143" width="7" height="5" />
<rect fill="#2365c2" fill-opacity="0.501961" x="234" y="113" width="22" height="10" />
<rect fill="#b4bdc2" fill-opacity="0.501961" x="161" y="96" width="14" height="5" />
<rect fill="#c1a071" fill-opacity="0.501961" x="128" y="115" width="17" height="9" />
<rect fill="#2269bd" fill-opacity="0.501961" x="62" y="166" width="28" height="5" />
<rect fill="#f7e9ae" fill-opacity="0.501961" x="49" y="38" width="34" height="5" />
<rect fill="#d0c8b2" fill-opacity="0.501961" x="64" y="121" width="12" height="5" />
<rect fill="#d2d4c0" fill-opacity="0.501961" x="0" y="139" width="7" height="5" />
<rect fill="#453a1b" fill-opacity="0.501961" x="196" y="132" width="4" height="10" />
<rect fill="#a4a224" fill-opacity="0.501961" x="107" y="144" width="10" height="5" />
<rect fill="#e0cb86" fill-opacity="0.501961" x="203" y="70" width="15" height="5" />
<rect fill="#cdaa79" fill-opacity="0.501961" x="128" y="100" width="23" height="5" />
<rect fill="#c39f00" fill-opacity="0.501961" x="149" y="117" width="12" height="5" />
<rect fill="#1c2725" fill-opacity="0.501961" x="134" y="187" width="9" height="5" />
<rect fill="#bbc7cc" fill-opacity="0.501961" x="226" y="56" width="30" height="32" />
<rect fill="#c3c9b4" fill-opacity="0.501961" x="22" y="134" width="25" height="5" />
<rect fill="#c2bf98" fill-opacity="0.501961" x="45" y="44" width="71" height="5" />
<rect fill="#2668bd" fill-opacity="0.501961" x="213" y="176" width="21" height="10" />
<rect fill="#ddcf4f" fill-opacity="0.501961" x="69" y="92" width="8" height="10" />
<rect fill="#2367c2" fill-opacity="0.501961" x="209" y="165" width="12" height="5" />
<rect fill="#eedfae" fill-opacity="0.501961" x="5" y="122" width="35" height="5" />
<rect fill="#a98c00" fill-opacity="0.501961" x="114" y="125" width="27" height="10" />
<rect fill="#164da8" fill-opacity="0.501961" x="135" y="156" width="26" height="5" />
<rect fill="#e6dab0" fill-opacity="0.501961" x="214" y="0" width="42" height="10" />
<rect fill="#959031" fill-opacity="0.501961" x="104" y="138" width="40" height="5" />
<rect fill="#0e499d" fill-opacity="0.501961" x="118" y="148" width="9" height="5" />
<rect fill="#c5b74b" fill-opacity="0.501961" x="148" y="89" width="18" height="5" />
<rect fill="#1e6cd4" fill-opacity="0.501961" x="79" y="136" width="7" height="5" />
<rect fill="#2a3d61" fill-opacity="0.501961" x="211" y="113" width="27" height="2" />
<rect fill="#2966b6" fill-opacity="0.501961" x="144" y="142" width="16" height="5" />
<rect fill="#bfc3aa" fill-opacity="0.501961" x="227" y="106" width="12" height="5" />
<rect fill="#30332e" fill-opacity="0.501961" x="201" y="142" width="5" height="35" />
<rect fill="#c19c71" fill-opacity="0.501961" x="80" y="109" width="23" height="9" />
<rect fill="#2d2e1a" fill-opacity="0.501961" x="57" y="161" width="14" height="5" />
<rect fill="#1b5dbb" fill-opacity="0.501961" x="220" y="144" width="11" height="5" />
<rect fill="#c5c494" fill-opacity="0.501961" x="64" y="130" width="13" height="5" />
<rect fill="#22261c" fill-opacity="0.501961" x="0" y="171" width="8" height="5" />
<rect fill="#232a27" fill-opacity="0.501961" x="39" y="164" width="20" height="5" />
<rect fill="#362a11" fill-opacity="0.501961" x="86" y="133" width="7" height="5" />
<rect fill="#fff7bc" fill-opacity="0.501961" x="105" y="32" width="24" height="5" />
<rect fill="#232a23" fill-opacity="0.501961" x="93" y="154" width="7" height="25" />
<rect fill="#1e5aaa" fill-opacity="0.501961" x="68" y="175" width="27" height="14" />
<rect fill="#272c26" fill-opacity="0.501961" x="88" y="186" width="30" height="5" />
<rect fill="#f1db8e" fill-opacity="0.501961" x="72" y="9" width="23" height="5" />
<rect fill="#2f70be" fill-opacity="0.501961" x="60" y="144" width="23" height="15" />
<rect fill="#c7cbc6" fill-opacity="0.501961" x="0" y="60" width="19" height="47" />
<rect fill="#2256a3" fill-opacity="0.501961" x="164" y="124" width="11" height="12" />
<rect fill="#b3b4a0" fill-opacity="0.501961" x="14" y="129" width="38" height="5" />
<rect fill="#1f5bae" fill-opacity="0.501961" x="124" y="188" width="11" height="4" />
<rect fill="#194491" fill-opacity="0.501961" x="196" y="115" width="18" height="5" />
<rect fill="#fff0af" fill-opacity="0.501961" x="247" y="25" width="9" height="5" />
<rect fill="#2c3434" fill-opacity="0.501961" x="166" y="165" width="7" height="22" />
<rect fill="#c7b249" fill-opacity="0.501961" x="53" y="127" width="35" height="5" />
<rect fill="#dadbcb" fill-opacity="0.501961" x="136" y="56" width="24" height="10" />
<rect fill="#b8b9a4" fill-opacity="0.501961" x="205" y="31" width="51" height="18" />
<rect fill="#ccbc2e" fill-opacity="0.501961" x="48" y="105" width="5" height="5" />
<rect fill="#c2d0e5" fill-opacity="0.501961" x="117" y="84" width="7" height="5" />
<rect fill="#131b1a" fill-opacity="0.501961" x="251" y="164" width="5" height="5" />
<rect fill="#2f2e20" fill-opacity="0.501961" x="170" y="146" width="10" height="5" />
<rect fill="#123b8a" fill-opacity="0.501961" x="92" y="131" width="8" height="9" />
<rect fill="#bdc2b7" fill-opacity="0.501961" x="121" y="28" width="47" height="5" />
<rect fill="#0e42a0" fill-opacity="0.501961" x="159" y="161" width="5" height="17" />
<rect fill="#e3d7a6" fill-opacity="0.501961" x="127" y="32" width="70" height="5" />
<rect fill="#232b26" fill-opacity="0.501961" x="17" y="166" width="23" height="5" />
<rect fill="#e3dead" fill-opacity="0.501961" x="39" y="99" width="33" height="5" />
<rect fill="#f1de99" fill-opacity="0.501961" x="133" y="13" width="34" height="5" />
<rect fill="#1e5eb0" fill-opacity="0.501961" x="46" y="169" width="10" height="13" />
<rect fill="#2d3332" fill-opacity="0.501961" x="51" y="138" width="6" height="13" />
<rect fill="#303433" fill-opacity="0.501961" x="205" y="170" width="25" height="5" />
<rect fill="#2f3333" fill-opacity="0.501961" x="153" y="177" width="29" height="5" />
<rect fill="#c8caa8" fill-opacity="0.501961" x="226" y="110" width="2" height="5" />
<rect fill="#2b281e" fill-opacity="0.501961" x="62" y="182" width="4" height="10" />
<rect fill="#2265bb" fill-opacity="0.501961" x="203" y="135" width="16" height="5" />
<rect fill="#2767bb" fill-opacity="0.501961" x="171" y="151" width="28" height="16" />
<rect fill="#f7e6ab" fill-opacity="0.501961" x="192" y="6" width="34" height="5" />
<rect fill="#fff4ac" fill-opacity="0.501961" x="148" y="81" width="10" height="5" />
<rect fill="#cfc871" fill-opacity="0.501961" x="173" y="100" width="14" height="14" />
<rect fill="#1f3b6b" fill-opacity="0.501961" x="20" y="141" width="11" height="5" />
<rect fill="#38351d" fill-opacity="0.501961" x="17" y="147" width="4" height="16" />
<rect fill="#b18248" fill-opacity="0.501961" x="133" y="106" width="15" height="5" />
<rect fill="#b5bcb3" fill-opacity="0.501961" x="166" y="90" width="20" height="10" />
<rect fill="#37301a" fill-opacity="0.501961" x="159" y="127" width="4" height="12" />
<rect fill="#f2efbe" fill-opacity="0.501961" x="0" y="0" width="97" height="9" />
<rect fill="#3c3f38" fill-opacity="0.501961" x="231" y="129" width="6" height="13" />
<rect fill="#c69221" fill-opacity="0.501961" x="82" y="119" width="15" height="5" />
<rect fill="#1d4d98" fill-opacity="0.501961" x="174" y="119" width="17" height="18" />
<rect fill="#272e2e" fill-opacity="0.501961" x="76" y="158" width="32" height="5" />
<rect fill="#2b6ebe" fill-opacity="0.501961" x="212" y="160" width="25" height="5" />
<rect fill="#d4b162" fill-opacity="0.501961" x="100" y="95" width="16" height="5" />
<rect fill="#2568b9" fill-opacity="0.501961" x="81" y="163" width="8" height="13" />
<rect fill="#c8bd50" fill-opacity="0.501961" x="52" y="134" width="3" height="5" />
<rect fill="#bdbba2" fill-opacity="0.501961" x="0" y="98" width="18" height="5" />
<rect fill="#1149a4" fill-opacity="0.501961" x="97" y="150" width="12" height="5" />
<rect fill="#c2cac5" fill-opacity="0.501961" x="107" y="51" width="74" height="26" />
<rect fill="#f0e7c1" fill-opacity="0.501961" x="0" y="125" width="18" height="5" />
<rect fill="#bfb26f" fill-opacity="0.501961" x="43" y="120" width="21" height="5" />
<rect fill="#d5c85b" fill-opacity="0.501961" x="125" y="84" width="15" height="5" />
<rect fill="#c7aa68" fill-opacity="0.501961" x="130" y="94" width="24" height="12" />
<rect fill="#d1cfbd" fill-opacity="0.501961" x="22" y="18" width="45" height="19" />
<rect fill="#1c5eb4" fill-opacity="0.501961" x="12" y="174" width="8" height="10" />
<rect fill="#93994f" fill-opacity="0.501961" x="125" y="143" width="17" height="5" />
<rect fill="#1848a0" fill-opacity="0.501961" x="143" y="124" width="12" height="5" />
<rect fill="#c6a174" fill-opacity="0.501961" x="150" y="112" width="10" height="5" />
<rect fill="#0643a7" fill-opacity="0.501961" x="143" y="145" width="2" height="5" />
<rect fill="#edd798" fill-opacity="0.501961" x="0" y="19" width="22" height="5" />
<rect fill="#15347c" fill-opacity="0.501961" x="102" y="164" width="28" height="18" />
<rect fill="#1c55b0" fill-opacity="0.501961" x="248" y="170" width="8" height="5" />
<rect fill="#2a2a26" fill-opacity="0.501961" x="228" y="124" width="7" height="5" />
<rect fill="#1850a9" fill-opacity="0.501961" x="1" y="145" width="13" height="13" />
<rect fill="#165eb9" fill-opacity="0.501961" x="175" y="171" width="6" height="5" />
<rect fill="#212a39" fill-opacity="0.501961" x="194" y="116" width="4" height="5" />
<rect fill="#2765b7" fill-opacity="0.501961" x="197" y="118" width="27" height="5" />
<rect fill="#144fa5" fill-opacity="0.501961" x="121" y="143" width="3" height="9" />
<rect fill="#0e56b8" fill-opacity="0.501961" x="239" y="185" width="5" height="7" />
<rect fill="#625939" fill-opacity="0.501961" x="119" y="98" width="7" height="5" />
<rect fill="#bdc6c3" fill-opacity="0.501961" x="192" y="82" width="37" height="25" />
<rect fill="#bdbda3" fill-opacity="0.501961" x="183" y="105" width="61" height="5" />
<rect fill="#333731" fill-opacity="0.501961" x="242" y="176" width="7" height="10" />
<rect fill="#cdc25a" fill-opacity="0.501961" x="105" y="83" width="11" height="5" />
<rect fill="#3372c1" fill-opacity="0.501961" x="247" y="141" width="9" height="24" />
<rect fill="#1c55b2" fill-opacity="0.501961" x="232" y="114" width="14" height="5" />
<rect fill="#fff7af" fill-opacity="0.501961" x="20" y="11" width="46" height="5" />
<rect fill="#f8eebc" fill-opacity="0.501961" x="208" y="27" width="17" height="5" />
<rect fill="#22261c" fill-opacity="0.501961" x="56" y="150" width="3" height="21" />
<rect fill="#20292c" fill-opacity="0.501961" x="129" y="168" width="9" height="13" />
<rect fill="#194ea1" fill-opacity="0.501961" x="27" y="158" width="28" height="5" />
<rect fill="#1b1e0d" fill-opacity="0.501961" x="21" y="174" width="6" height="5" />
<rect fill="#3b3e37" fill-opacity="0.501961" x="223" y="138" width="21" height="3" />
<rect fill="#929441" fill-opacity="0.501961" x="137" y="132" width="7" height="14" />
<rect fill="#202747" fill-opacity="0.501961" x="182" y="117" width="9" height="2" />
<rect fill="#d5cda6" fill-opacity="0.501961" x="122" y="4" width="27" height="16" />
<rect fill="#d7d7bd" fill-opacity="0.501961" x="135" y="88" width="9" height="5" />
<rect fill="#899121" fill-opacity="0.501961" x="132" y="149" width="7" height="5" />
<rect fill="#1b5bae" fill-opacity="0.501961" x="191" y="167" width="11" height="5" />
<rect fill="#d4c180" fill-opacity="0.501961" x="99" y="90" width="3" height="23" />
<rect fill="#e1ca0c" fill-opacity="0.501961" x="158" y="116" width="8" height="5" />
<rect fill="#27291a" fill-opacity="0.501961" x="77" y="190" width="25" height="2" />
<rect fill="#e5dfb7" fill-opacity="0.501961" x="109" y="24" width="27" height="5" />
<rect fill="#205fb3" fill-opacity="0.501961" x="45" y="183" width="14" height="9" />
<rect fill="#b4bbac" fill-opacity="0.501961" x="0" y="133" width="16" height="9" />
<rect fill="#2f3432" fill-opacity="0.501961" x="225" y="168" width="21" height="5" />
<rect fill="#b8c3c7" fill-opacity="0.501961" x="187" y="24" width="27" height="5" />
<rect fill="#acb0a0" fill-opacity="0.501961" x="170" y="85" width="24" height="5" />
<rect fill="#d7c97e" fill-opacity="0.501961" x="172" y="99" width="21" height="5" />
<rect fill="#154da6" fill-opacity="0.501961" x="238" y="130" width="8" height="5" />
<rect fill="#232c33" fill-opacity="0.501961" x="104" y="154" width="29" height="5" />
<rect fill="#d4b55d" fill-opacity="0.501961" x="81" y="100" width="25" height="5" />
<rect fill="#413928" fill-opacity="0.501961" x="157" y="125" width="5" height="5" />
<rect fill="#b48a56" fill-opacity="0.501961" x="92" y="116" width="12" height="10" />
<rect fill="#2a312b" fill-opacity="0.501961" x="96" y="174" width="6" height="18" />
<rect fill="#b1bcbe" fill-opacity="0.501961" x="120" y="78" width="22" height="5" />
<rect fill="#2b2f29" fill-opacity="0.501961" x="161" y="134" width="4" height="25" />
<rect fill="#c7ba47" fill-opacity="0.501961" x="182" y="109" width="8" height="5" />
<rect fill="#d4b667" fill-opacity="0.501961" x="57" y="116" width="32" height="5" />
<rect fill="#1b4c9a" fill-opacity="0.501961" x="25" y="141" width="27" height="10" />
<rect fill="#c57c00" fill-opacity="0.501961" x="118" y="119" width="7" height="5" />
<rect fill="#778465" fill-opacity="0.501961" x="108" y="99" width="15" height="5" />
<rect fill="#cb9606" fill-opacity="0.501961" x="73" y="106" width="13" height="5" />
<rect fill="#cfa423" fill-opacity="0.501961" x="146" y="106" width="21" height="5" />
<rect fill="#b5bdb0" fill-opacity="0.501961" x="9" y="114" width="36" height="4" />
<rect fill="#644d07" fill-opacity="0.501961" x="144" y="122" width="7" height="2" />
<rect fill="#242f32" fill-opacity="0.501961" x="12" y="142" width="4" height="5" />
<rect fill="#ece688" fill-opacity="0.501961" x="55" y="108" width="10" height="5" />
<rect fill="#e0d5a6" fill-opacity="0.501961" x="224" y="23" width="32" height="5" />
<rect fill="#514f25" fill-opacity="0.501961" x="105" y="104" width="24" height="5" />
<rect fill="#286bbd" fill-opacity="0.501961" x="1" y="160" width="15" height="5" />
<rect fill="#cdd0c8" fill-opacity="0.501961" x="81" y="84" width="15" height="13" />
<rect fill="#bec3be" fill-opacity="0.501961" x="192" y="111" width="5" height="5" />
<rect fill="#2667b8" fill-opacity="0.501961" x="64" y="170" width="30" height="13" />
<rect fill="#2d312c" fill-opacity="0.501961" x="167" y="163" width="5" height="12" />
<rect fill="#215bad" fill-opacity="0.501961" x="94" y="133" width="8" height="5" />
<rect fill="#1b58af" fill-opacity="0.501961" x="140" y="173" width="19" height="5" />
<rect fill="#ccc499" fill-opacity="0.501961" x="213" y="66" width="16" height="5" />
<rect fill="#3a3c36" fill-opacity="0.501961" x="239" y="162" width="5" height="12" />
<rect fill="#c0bf9e" fill-opacity="0.501961" x="171" y="38" width="58" height="9" />
<rect fill="#b8beb6" fill-opacity="0.501961" x="210" y="44" width="46" height="16" />
<rect fill="#262c2b" fill-opacity="0.501961" x="117" y="183" width="30" height="5" />
<rect fill="#12439e" fill-opacity="0.501961" x="161" y="184" width="8" height="5" />
<rect fill="#d3d2ad" fill-opacity="0.501961" x="52" y="112" width="18" height="5" />
<rect fill="#11181b" fill-opacity="0.501961" x="16" y="146" width="2" height="14" />
<rect fill="#1b4388" fill-opacity="0.501961" x="99" y="153" width="16" height="3" />
<rect fill="#6a731c" fill-opacity="0.501961" x="78" y="132" width="4" height="5" />
<rect fill="#d1c7a6" fill-opacity="0.501961" x="57" y="14" width="29" height="5" />
<rect fill="#c3c9c0" fill-opacity="0.501961" x="18" y="93" width="45" height="5" />
<rect fill="#202933" fill-opacity="0.501961" x="125" y="150" width="5" height="17" />
<rect fill="#9a906c" fill-opacity="0.501961" x="54" y="123" width="6" height="5" />
<rect fill="#b8bcb2" fill-opacity="0.501961" x="116" y="36" width="36" height="5" />
<rect fill="#2d6fc0" fill-opacity="0.501961" x="59" y="145" width="26" height="5" />
<rect fill="#bebca6" fill-opacity="0.501961" x="35" y="40" width="13" height="5" />
<rect fill="#c0c4bc" fill-opacity="0.501961" x="170" y="15" width="19" height="12" />
<rect fill="#2b302f" fill-opacity="0.501961" x="209" y="140" width="16" height="5" />
<rect fill="#bec6c8" fill-opacity="0.501961" x="222" y="9" width="34" height="11" />
<rect fill="#14438f" fill-opacity="0.501961" x="81" y="183" width="13" height="5" />
<rect fill="#204885" fill-opacity="0.501961" x="205" y="114" width="6" height="5" />
<rect fill="#1b58ad" fill-opacity="0.501961" x="195" y="161" width="6" height="10" />
<rect fill="#205cae" fill-opacity="0.501961" x="205" y="148" width="28" height="5" />
<rect fill="#ecdfa2" fill-opacity="0.501961" x="17" y="98" width="32" height="5" />
<rect fill="#8e9019" fill-opacity="0.501961" x="108" y="147" width="7" height="5" />
<rect fill="#bcb03b" fill-opacity="0.501961" x="49" y="131" width="11" height="5" />
<rect fill="#33342f" fill-opacity="0.501961" x="21" y="155" width="4" height="15" />
<rect fill="#898716" fill-opacity="0.501961" x="101" y="130" width="12" height="5" />
<rect fill="#fbf3aa" fill-opacity="0.501961" x="35" y="6" width="54" height="5" />
<rect fill="#d0d2c2" fill-opacity="0.501961" x="62" y="68" width="26" height="25" />
<rect fill="#cfd3ca" fill-opacity="0.501961" x="80" y="60" width="34" height="22" />
<rect fill="#1751a6" fill-opacity="0.501961" x="0" y="184" width="22" height="8" />
<rect fill="#353423" fill-opacity="0.501961" x="226" y="114" width="5" height="5" />
<rect fill="#333b3d" fill-opacity="0.501961" x="195" y="172" width="21" height="5" />
<rect fill="#55483a" fill-opacity="0.501961" x="85" y="149" width="6" height="5" />
<rect fill="#daae63" fill-opacity="0.501961" x="142" y="114" width="8" height="5" />
<rect fill="#cccfc4" fill-opacity="0.501961" x="228" y="94" width="28" height="9" />
<rect fill="#3d3f37" fill-opacity="0.501961" x="198" y="145" width="4" height="13" />
<rect fill="#1a65c3" fill-opacity="0.501961" x="0" y="164" width="6" height="5" />
<rect fill="#404324" fill-opacity="0.501961" x="168" y="119" width="9" height="4" />
<rect fill="#2d6fbd" fill-opacity="0.501961" x="144" y="156" width="10" height="20" />
<rect fill="#184492" fill-opacity="0.501961" x="146" y="154" width="15" height="5" />
<rect fill="#d4be5d" fill-opacity="0.501961" x="112" y="91" width="17" height="5" />
<rect fill="#d7ca9a" fill-opacity="0.501961" x="183" y="77" width="16" height="5" />
<rect fill="#585d5d" fill-opacity="0.501961" x="46" y="125" width="6" height="5" />
<rect fill="#b1b091" fill-opacity="0.501961" x="234" y="32" width="22" height="5" />
<rect fill="#2b6cba" fill-opacity="0.501961" x="213" y="132" width="17" height="5" />
<rect fill="#c6af3d" fill-opacity="0.501961" x="146" y="92" width="8" height="5" />
<rect fill="#e1d67c" fill-opacity="0.501961" x="163" y="83" width="8" height="5" />
<rect fill="#895f27" fill-opacity="0.501961" x="130" y="107" width="4" height="9" />
<rect fill="#2c71c7" fill-opacity="0.501961" x="248" y="111" width="8" height="20" />
<rect fill="#d2b161" fill-opacity="0.501961" x="72" y="110" width="13" height="9" />
<rect fill="#2a2e2b" fill-opacity="0.501961" x="152" y="148" width="11" height="5" />
<rect fill="#272b2b" fill-opacity="0.501961" x="234" y="151" width="7" height="5" />
<rect fill="#35362e" fill-opacity="0.501961" x="245" y="187" width="7" height="5" />
<rect fill="#cfba72" fill-opacity="0.501961" x="156" y="110" width="17" height="5" />
<rect fill="#fff1c3" fill-opacity="0.501961" x="65" y="41" width="30" height="1" />
<rect fill="#2e3131" fill-opacity="0.501961" x="181" y="143" width="18" height="5" />
<rect fill="#e1cf5b" fill-opacity="0.501961" x="70" y="98" width="13" height="5" />
<rect fill="#c6c5b1" fill-opacity="0.501961" x="47" y="129" width="7" height="2" />
<rect fill="#f1e19a" fill-opacity="0.501961" x="94" y="30" width="15" height="5" />
<rect fill="#c6c361" fill-opacity="0.501961" x="55" y="103" width="8" height="5" />
<rect fill="#cbccbb" fill-opacity="0.501961" x="35" y="26" width="39" height="15" />
<rect fill="#3a75c2" fill-opacity="0.501961" x="241" y="149" width="15" height="5" />
<rect fill="#e8e5d3" fill-opacity="0.501961" x="7" y="48" width="29" height="5" />
<rect fill="#b8c4c6" fill-opacity="0.501961" x="122" y="75" width="57" height="5" />
<rect fill="#1f3e80" fill-opacity="0.501961" x="167" y="141" width="13" height="5" />
<rect fill="#e9da9c" fill-opacity="0.501961" x="135" y="10" width="34" height="9" />
<rect fill="#132b65" fill-opacity="0.501961" x="56" y="136" width="3" height="5" />
<rect fill="#bb9500" fill-opacity="0.501961" x="117" y="127" width="7" height="14" />
<rect fill="#225faf" fill-opacity="0.501961" x="59" y="140" width="20" height="5" />
<rect fill="#746a44" fill-opacity="0.501961" x="42" y="128" width="6" height="2" />
<rect fill="#d2cb95" fill-opacity="0.501961" x="176" y="112" width="9" height="5" />
<rect fill="#c4cbc3" fill-opacity="0.501961" x="15" y="80" width="43" height="17" />
<rect fill="#f6f7cf" fill-opacity="0.501961" x="102" y="34" width="9" height="5" />
<rect fill="#cbc8b2" fill-opacity="0.501961" x="83" y="34" width="20" height="5" />
<rect fill="#878326" fill-opacity="0.501961" x="68" y="135" width="5" height="5" />
<rect fill="#124ba1" fill-opacity="0.501961" x="29" y="174" width="2" height="14" />
<rect fill="#c8b156" fill-opacity="0.501961" x="124" y="123" width="3" height="5" />
<rect fill="#7f7465" fill-opacity="0.501961" x="100" y="109" width="4" height="5" />
<rect fill="#194a88" fill-opacity="0.501961" x="115" y="150" width="3" height="5" />
<rect fill="#cbc5a2" fill-opacity="0.501961" x="163" y="27" width="45" height="5" />
<rect fill="#2c322e" fill-opacity="0.501961" x="164" y="158" width="6" height="9" />
<rect fill="#2060b6" fill-opacity="0.501961" x="223" y="175" width="17" height="5" />
<rect fill="#1d54a1" fill-opacity="0.501961" x="119" y="146" width="6" height="5" />
<rect fill="#5b6358" fill-opacity="0.501961" x="170" y="178" width="3" height="5" />
<rect fill="#d4c654" fill-opacity="0.501961" x="55" y="116" width="10" height="5" />
<rect fill="#b9b797" fill-opacity="0.501961" x="155" y="93" width="14" height="9" />
<rect fill="#ede5b5" fill-opacity="0.501961" x="45" y="41" width="12" height="5" />
<rect fill="#1c56a5" fill-opacity="0.501961" x="176" y="183" width="30" height="5" />
<rect fill="#b9b99d" fill-opacity="0.501961" x="47" y="45" width="30" height="5" />
<rect fill="#1e2731" fill-opacity="0.501961" x="170" y="187" width="8" height="5" />
<rect fill="#cbc08e" fill-opacity="0.501961" x="42" y="121" width="7" height="5" />
<rect fill="#393f3f" fill-opacity="0.501961" x="204" y="161" width="4" height="19" />
<rect fill="#c3ad93" fill-opacity="0.501961" x="89" y="109" width="8" height="5" />
<rect fill="#a97631" fill-opacity="0.501961" x="108" y="119" width="11" height="5" />
<rect fill="#262f33" fill-opacity="0.501961" x="57" y="161" width="6" height="21" />
<rect fill="#31383b" fill-opacity="0.501961" x="195" y="129" width="5" height="19" />
<rect fill="#232c2a" fill-opacity="0.501961" x="0" y="170" width="14" height="5" />
<rect fill="#2663b5" fill-opacity="0.501961" x="145" y="137" width="14" height="5" />
<rect fill="#d3c17d" fill-opacity="0.501961" x="130" y="84" width="2" height="23" />
<rect fill="#bbc2bc" fill-opacity="0.501961" x="116" y="20" width="26" height="5" />
<rect fill="#234981" fill-opacity="0.501961" x="220" y="112" width="5" height="5" />
<rect fill="#c6c9b7" fill-opacity="0.501961" x="38" y="49" width="89" height="13" />
<rect fill="#c3995b" fill-opacity="0.501961" x="140" y="107" width="10" height="5" />
<rect fill="#2b6bbc" fill-opacity="0.501961" x="74" y="138" width="12" height="9" />
<rect fill="#15356d" fill-opacity="0.501961" x="31" y="140" width="17" height="2" />
<rect fill="#13337d" fill-opacity="0.501961" x="104" y="180" width="12" height="5" />
<rect fill="#2259a6" fill-opacity="0.501961" x="181" y="118" width="8" height="9" />
<rect fill="#1b448c" fill-opacity="0.501961" x="168" y="138" width="28" height="5" />
<rect fill="#b9c6c7" fill-opacity="0.501961" x="203" y="76" width="35" height="15" />
<rect fill="#fee99e" fill-opacity="0.501961" x="0" y="22" width="8" height="5" />
<rect fill="#d0c459" fill-opacity="0.501961" x="65" y="94" width="8" height="5" />
<rect fill="#c5b88f" fill-opacity="0.501961" x="62" y="119" width="18" height="5" />
<rect fill="#3a7bc5" fill-opacity="0.501961" x="215" y="127" width="11" height="5" />
<rect fill="#e6d9b3" fill-opacity="0.501961" x="34" y="16" width="30" height="5" />
<rect fill="#154394" fill-opacity="0.501961" x="25" y="150" width="29" height="11" />
<rect fill="#b8bfbf" fill-opacity="0.501961" x="38" y="103" width="11" height="5" />
<rect fill="#788531" fill-opacity="0.501961" x="103" y="135" width="7" height="5" />
<rect fill="#8b924d" fill-opacity="0.501961" x="127" y="145" width="16" height="5" />
<rect fill="#dcd6a5" fill-opacity="0.501961" x="106" y="89" width="5" height="5" />
<rect fill="#224579" fill-opacity="0.501961" x="254" y="107" width="2" height="5" />
<rect fill="#bbbda5" fill-opacity="0.501961" x="192" y="113" width="2" height="5" />
<rect fill="#1c56ab" fill-opacity="0.501961" x="189" y="148" width="7" height="9" />
<rect fill="#d8d2ad" fill-opacity="0.501961" x="61" y="123" width="4" height="5" />
<rect fill="#15274a" fill-opacity="0.501961" x="49" y="138" width="3" height="5" />
<rect fill="#144996" fill-opacity="0.501961" x="245" y="161" width="9" height="5" />
<rect fill="#c4c6ba" fill-opacity="0.501961" x="228" y="7" width="28" height="5" />
<rect fill="#babfb7" fill-opacity="0.501961" x="219" y="30" width="21" height="5" />
<rect fill="#d6d6c6" fill-opacity="0.501961" x="67" y="82" width="32" height="5" />
<rect fill="#222a32" fill-opacity="0.501961" x="58" y="179" width="7" height="5" />
<rect fill="#918c1d" fill-opacity="0.501961" x="134" y="145" width="2" height="11" />
<rect fill="#ccbe47" fill-opacity="0.501961" x="96" y="87" width="8" height="5" />
<rect fill="#2056a8" fill-opacity="0.501961" x="144" y="129" width="13" height="9" />
<rect fill="#125db5" fill-opacity="0.501961" x="252" y="138" width="4" height="5" />
<rect fill="#2e3125" fill-opacity="0.501961" x="239" y="135" width="10" height="5" />
<rect fill="#2769bb" fill-opacity="0.501961" x="170" y="155" width="29" height="5" />
<rect fill="#4f4f36" fill-opacity="0.501961" x="95" y="130" width="8" height="2" />
<rect fill="#f5f5cf" fill-opacity="0.501961" x="80" y="0" width="74" height="2" />
<rect fill="#bdc1b4" fill-opacity="0.501961" x="142" y="86" width="36" height="2" />
<rect fill="#1a3c78" fill-opacity="0.501961" x="236" y="110" width="20" height="2" />
<rect fill="#1f5fbf" fill-opacity="0.501961" x="248" y="110" width="8" height="5" />
<rect fill="#bfc9ce" fill-opacity="0.501961" x="116" y="80" width="12" height="5" />
<rect fill="#6a4a16" fill-opacity="0.501961" x="107" y="113" width="20" height="5" />
<rect fill="#052570" fill-opacity="0.501961" x="204" y="185" width="4" height="7" />
<rect fill="#2162b5" fill-opacity="0.501961" x="81" y="135" width="4" height="5" />
<rect fill="#232b2a" fill-opacity="0.501961" x="93" y="152" width="5" height="20" />
<rect fill="#205cad" fill-opacity="0.501961" x="217" y="145" width="15" height="5" />
<rect fill="#e0d9b6" fill-opacity="0.501961" x="193" y="14" width="16" height="5" />
<rect fill="#1e52a2" fill-opacity="0.501961" x="107" y="191" width="15" height="1" />
<rect fill="#b7a14e" fill-opacity="0.501961" x="80" y="127" width="11" height="5" />
</g>
</svg>