<svg xmlns="http://www.w3.org/2000/svg" version="1.1" width="1024" height="768">
<rect x="0" y="0" width="1024" height="768" fill="#959d9c" />
<g transform="scale(0.444444) translate(0.5 0.5)">
<rect fill="#00025c" fill-opacity="0.501961" x="0" y="1198" width="2219" height="530" />
<rect fill="#ebe5ba" fill-opacity="0.501961" x="0" y="0" width="1003" height="1447" />
<rect fill="#003a84" fill-opacity="0.501961" x="1292" y="1037" width="1012" height="691" />
<rect fill="#002d82" fill-opacity="0.501961" x="0" y="1247" width="917" height="481" />
<rect fill="#997505" fill-opacity="0.501961" x="665" y="898" width="816" height="424" />
<rect fill="#022954" fill-opacity="0.501961" x="748" y="1179" width="252" height="396" />
<rect fill="#0b398d" fill-opacity="0.501961" x="1292" y="1105" width="591" height="227" />
<rect fill="#e5d59e" fill-opacity="0.501961" x="1129" y="0" width="384" height="1343" />
<rect fill="#645b1d" fill-opacity="0.501961" x="944" y="954" width="615" height="448" />
<rect fill="#0444ad" fill-opacity="0.501961" x="1856" y="1007" width="399" height="202" />
<rect fill="#f2ca35" fill-opacity="0.501961" x="1387" y="909" width="231" height="199" />
<rect fill="#d6d4c0" fill-opacity="0.501961" x="1516" y="2" width="434" height="1258" />
<rect fill="#f1ead3" fill-opacity="0.501961" x="0" y="0" width="1045" height="792" />
<rect fill="#001e74" fill-opacity="0.501961" x="1294" y="1070" width="589" height="285" />
<rect fill="#e5e0c8" fill-opacity="0.501961" x="1005" y="0" width="1069" height="835" />
<rect fill="#0a6ade" fill-opacity="0.501961" x="534" y="1230" width="217" height="202" />
<rect fill="#053b8a" fill-opacity="0.501961" x="1645" y="1031" width="296" height="237" />
<rect fill="#e8e5d6" fill-opacity="0.501961" x="1948" y="0" width="352" height="978" />
<rect fill="#f3eecc" fill-opacity="0.501961" x="0" y="1148" width="121" height="152" />
<rect fill="#ccb345" fill-opacity="0.501961" x="428" y="943" width="211" height="299" />
<rect fill="#0045bc" fill-opacity="0.501961" x="2114" y="983" width="190" height="105" />
<rect fill="#002c73" fill-opacity="0.501961" x="60" y="1284" width="470" height="215" />
<rect fill="#dedfbe" fill-opacity="0.501961" x="105" y="1205" width="156" height="84" />
<rect fill="#e2a640" fill-opacity="0.501961" x="1209" y="947" width="183" height="180" />
<rect fill="#145bc2" fill-opacity="0.501961" x="1822" y="1024" width="129" height="238" />
<rect fill="#2a1300" fill-opacity="0.501961" x="2055" y="1004" width="50" height="187" />
<rect fill="#031a3e" fill-opacity="0.501961" x="837" y="1373" width="257" height="355" />
<rect fill="#0f66eb" fill-opacity="0.501961" x="1299" y="1113" width="97" height="227" />
<rect fill="#312300" fill-opacity="0.501961" x="140" y="1306" width="57" height="263" />
<rect fill="#f0c946" fill-opacity="0.501961" x="585" y="837" width="125" height="241" />
<rect fill="#1f1f20" fill-opacity="0.501961" x="2074" y="1486" width="229" height="76" />
<rect fill="#231e09" fill-opacity="0.501961" x="481" y="1326" width="66" height="210" />
<rect fill="#cdb252" fill-opacity="0.501961" x="957" y="757" width="276" height="168" />
<rect fill="#473116" fill-opacity="0.501961" x="951" y="884" width="188" height="179" />
<rect fill="#2b73c7" fill-opacity="0.501961" x="1901" y="1315" width="195" height="240" />
<rect fill="#d0ac15" fill-opacity="0.501961" x="946" y="1070" width="164" height="251" />
<rect fill="#302f26" fill-opacity="0.501961" x="2066" y="1191" width="183" height="93" />
<rect fill="#c7ae2f" fill-opacity="0.501961" x="1421" y="966" width="276" height="127" />
<rect fill="#332f22" fill-opacity="0.501961" x="1811" y="1520" width="213" height="86" />
<rect fill="#2c354f" fill-opacity="0.501961" x="401" y="1128" width="90" height="41" />
<rect fill="#002675" fill-opacity="0.501961" x="1554" y="1062" width="97" height="56" />
<rect fill="#00101c" fill-opacity="0.501961" x="1094" y="1610" width="112" height="94" />
<rect fill="#2482e6" fill-opacity="0.501961" x="594" y="1601" width="205" height="77" />
<rect fill="#0045dc" fill-opacity="0.501961" x="852" y="1213" width="63" height="118" />
<rect fill="#2d87ea" fill-opacity="0.501961" x="605" y="1569" width="175" height="49" />
<rect fill="#2f83e2" fill-opacity="0.501961" x="579" y="1489" width="206" height="128" />
<rect fill="#c7b052" fill-opacity="0.501961" x="1288" y="802" width="213" height="105" />
<rect fill="#0048c1" fill-opacity="0.501961" x="1070" y="1292" width="54" height="93" />
<rect fill="#16335e" fill-opacity="0.501961" x="438" y="1225" width="136" height="76" />
<rect fill="#2781f3" fill-opacity="0.501961" x="1932" y="1581" width="88" height="147" />
<rect fill="#01192b" fill-opacity="0.501961" x="1092" y="1382" width="144" height="315" />
<rect fill="#001252" fill-opacity="0.501961" x="179" y="1271" width="83" height="35" />
<rect fill="#0e080b" fill-opacity="0.501961" x="2225" y="1197" width="79" height="60" />
<rect fill="#2f2908" fill-opacity="0.501961" x="542" y="1438" width="168" height="50" />
<rect fill="#0a6ce9" fill-opacity="0.501961" x="0" y="1311" width="62" height="210" />
<rect fill="#77730d" fill-opacity="0.501961" x="585" y="1211" width="83" height="50" />
<rect fill="#0e52c9" fill-opacity="0.501961" x="876" y="1282" width="85" height="123" />
<rect fill="#2062c9" fill-opacity="0.501961" x="710" y="1218" width="83" height="139" />
<rect fill="#3386f5" fill-opacity="0.501961" x="2168" y="1263" width="68" height="145" />
<rect fill="#e4e8c7" fill-opacity="0.501961" x="256" y="1198" width="91" height="65" />
<rect fill="#033db1" fill-opacity="0.501961" x="1620" y="1055" width="77" height="66" />
<rect fill="#d5c065" fill-opacity="0.501961" x="891" y="752" width="170" height="171" />
<rect fill="#311c00" fill-opacity="0.501961" x="1992" y="1518" width="78" height="48" />
<rect fill="#caa100" fill-opacity="0.501961" x="1332" y="1054" width="109" height="53" />
<rect fill="#101c16" fill-opacity="0.501961" x="1206" y="1600" width="100" height="128" />
<rect fill="#dbb144" fill-opacity="0.501961" x="638" y="912" width="175" height="311" />
<rect fill="#40341b" fill-opacity="0.501961" x="1731" y="1110" width="60" height="235" />
<rect fill="#282100" fill-opacity="0.501961" x="195" y="1395" width="36" height="333" />
<rect fill="#1b1e1d" fill-opacity="0.501961" x="1313" y="1594" width="209" height="88" />
<rect fill="#02319c" fill-opacity="0.501961" x="832" y="1174" width="69" height="74" />
<rect fill="#23242c" fill-opacity="0.501961" x="2184" y="1494" width="73" height="234" />
<rect fill="#2a82e8" fill-opacity="0.501961" x="1574" y="1502" width="146" height="58" />
<rect fill="#002874" fill-opacity="0.501961" x="2209" y="974" width="91" height="39" />
<rect fill="#0064e4" fill-opacity="0.501961" x="1234" y="1415" width="53" height="151" />
<rect fill="#1f3137" fill-opacity="0.501961" x="227" y="1486" width="200" height="74" />
<rect fill="#373b32" fill-opacity="0.501961" x="1782" y="1259" width="273" height="76" />
<rect fill="#d8b700" fill-opacity="0.501961" x="1452" y="1041" width="138" height="46" />
<rect fill="#453419" fill-opacity="0.501961" x="1716" y="1049" width="60" height="78" />
<rect fill="#2d87f3" fill-opacity="0.501961" x="1542" y="1356" width="157" height="148" />
<rect fill="#051846" fill-opacity="0.501961" x="1335" y="1100" width="82" height="31" />
<rect fill="#e3e3c4" fill-opacity="0.501961" x="144" y="1242" width="33" height="68" />
<rect fill="#2672e2" fill-opacity="0.501961" x="2199" y="1254" width="101" height="223" />
<rect fill="#303128" fill-opacity="0.501961" x="1483" y="1574" width="214" height="83" />
<rect fill="#1771da" fill-opacity="0.501961" x="271" y="1544" width="108" height="184" />
<rect fill="#322505" fill-opacity="0.501961" x="686" y="1428" width="80" height="43" />
<rect fill="#246acc" fill-opacity="0.501961" x="1861" y="1311" width="174" height="158" />
<rect fill="#084dd5" fill-opacity="0.501961" x="2225" y="1534" width="51" height="59" />
<rect fill="#2078e9" fill-opacity="0.501961" x="1271" y="1397" width="127" height="221" />
<rect fill="#d4d4cf" fill-opacity="0.501961" x="0" y="503" width="407" height="662" />
<rect fill="#9c971a" fill-opacity="0.501961" x="1182" y="1280" width="48" height="135" />
<rect fill="#f0e6ba" fill-opacity="0.501961" x="0" y="0" width="1131" height="276" />
<rect fill="#58400d" fill-opacity="0.501961" x="1034" y="932" width="129" height="111" />
<rect fill="#3e4337" fill-opacity="0.501961" x="1557" y="1295" width="205" height="63" />
<rect fill="#2d8dfd" fill-opacity="0.501961" x="2019" y="1574" width="55" height="154" />
<rect fill="#0d47a2" fill-opacity="0.501961" x="1490" y="1081" width="108" height="228" />
<rect fill="#cebd72" fill-opacity="0.501961" x="1648" y="987" width="99" height="72" />
<rect fill="#0a285b" fill-opacity="0.501961" x="721" y="1208" width="136" height="32" />
<rect fill="#2973d3" fill-opacity="0.501961" x="1626" y="1341" width="153" height="214" />
<rect fill="#232308" fill-opacity="0.501961" x="0" y="1521" width="116" height="63" />
<rect fill="#ce9700" fill-opacity="0.501961" x="1060" y="1056" width="83" height="207" />
<rect fill="#b59b00" fill-opacity="0.501961" x="1109" y="1136" width="94" height="139" />
<rect fill="#2369c9" fill-opacity="0.501961" x="0" y="1312" width="93" height="205" />
<rect fill="#1247ac" fill-opacity="0.501961" x="219" y="1336" width="87" height="163" />
<rect fill="#0941a4" fill-opacity="0.501961" x="319" y="1255" width="134" height="81" />
<rect fill="#373015" fill-opacity="0.501961" x="2106" y="1285" width="55" height="157" />
<rect fill="#1c74da" fill-opacity="0.501961" x="0" y="1578" width="115" height="150" />
<rect fill="#2d6fc5" fill-opacity="0.501961" x="637" y="1477" width="176" height="168" />
<rect fill="#1a58bb" fill-opacity="0.501961" x="518" y="1221" width="68" height="88" />
<rect fill="#362b0b" fill-opacity="0.501961" x="1691" y="1558" width="123" height="49" />
<rect fill="#cba774" fill-opacity="0.501961" x="1155" y="1039" width="159" height="88" />
<rect fill="#123475" fill-opacity="0.501961" x="1885" y="1018" width="144" height="28" />
<rect fill="#d3bb22" fill-opacity="0.501961" x="866" y="775" width="93" height="39" />
<rect fill="#333329" fill-opacity="0.501961" x="1806" y="1341" width="67" height="200" />
<rect fill="#2b1c00" fill-opacity="0.501961" x="1534" y="1654" width="50" height="74" />
<rect fill="#2a2100" fill-opacity="0.501961" x="698" y="1704" width="121" height="24" />
<rect fill="#0e4ab7" fill-opacity="0.501961" x="1358" y="1665" width="159" height="63" />
<rect fill="#aca608" fill-opacity="0.501961" x="977" y="1319" width="60" height="54" />
<rect fill="#1665d4" fill-opacity="0.501961" x="1600" y="1627" width="113" height="101" />
<rect fill="#060800" fill-opacity="0.501961" x="111" y="1281" width="34" height="28" />
<rect fill="#e2d9aa" fill-opacity="0.501961" x="418" y="843" width="145" height="233" />
<rect fill="#d09d00" fill-opacity="0.501961" x="595" y="940" width="135" height="64" />
<rect fill="#172343" fill-opacity="0.501961" x="2104" y="992" width="95" height="26" />
<rect fill="#2a290b" fill-opacity="0.501961" x="528" y="1537" width="54" height="191" />
<rect fill="#1c76de" fill-opacity="0.501961" x="378" y="1532" width="47" height="196" />
<rect fill="#dcd3bd" fill-opacity="0.501961" x="566" y="993" width="73" height="64" />
<rect fill="#543613" fill-opacity="0.501961" x="771" y="1325" width="61" height="75" />
<rect fill="#dadcce" fill-opacity="0.501961" x="1916" y="982" width="117" height="34" />
<rect fill="#d4b78d" fill-opacity="0.501961" x="641" y="989" width="140" height="122" />
</g>
</svg>