<svg xmlns="http://www.w3.org/2000/svg" version="1.1" width="1024" height="768">
<rect x="0" y="0" width="1024" height="768" fill="#929d99" />
<g transform="scale(4.000000) translate(0.5 0.5)">
<rect fill="#000055" fill-opacity="0.501961" x="0" y="139" width="181" height="53" />
<rect fill="#001473" fill-opacity="0.501961" x="145" y="116" width="111" height="76" />
<rect fill="#ffffd8" fill-opacity="0.501961" x="0" y="0" width="109" height="105" />
<rect fill="#a4830b" fill-opacity="0.501961" x="68" y="98" width="101" height="47" />
<rect fill="#f7eec5" fill-opacity="0.501961" x="79" y="0" width="159" height="103" />
<rect fill="#084986" fill-opacity="0.501961" x="142" y="125" width="108" height="55" />
<rect fill="#004b90" fill-opacity="0.501961" x="0" y="138" width="103" height="54" />
<rect fill="#fcf2ce" fill-opacity="0.501961" x="0" y="112" width="32" height="33" />
<rect fill="#7e6806" fill-opacity="0.501961" x="103" y="96" width="26" height="55" />
<rect fill="#0756b8" fill-opacity="0.501961" x="204" y="112" width="52" height="21" />
<rect fill="#00152d" fill-opacity="0.501961" x="93" y="154" width="44" height="38" />
<rect fill="#dfd8b7" fill-opacity="0.501961" x="0" y="10" width="73" height="129" />
<rect fill="#dabc56" fill-opacity="0.501961" x="132" y="83" width="55" height="38" />
<rect fill="#27578e" fill-opacity="0.501961" x="55" y="132" width="49" height="22" />
<rect fill="#d8bb51" fill-opacity="0.501961" x="45" y="97" width="50" height="40" />
<rect fill="#b9c8d3" fill-opacity="0.501961" x="236" y="15" width="20" height="119" />
<rect fill="#002969" fill-opacity="0.501961" x="229" y="109" width="27" height="35" />
<rect fill="#182b45" fill-opacity="0.501961" x="14" y="141" width="18" height="44" />
<rect fill="#d2d2bd" fill-opacity="0.501961" x="0" y="0" width="256" height="91" />
<rect fill="#004aa1" fill-opacity="0.501961" x="184" y="181" width="72" height="11" />
<rect fill="#1e2c47" fill-opacity="0.501961" x="85" y="130" width="17" height="39" />
<rect fill="#2b1c00" fill-opacity="0.501961" x="203" y="169" width="46" height="5" />
<rect fill="#286ab8" fill-opacity="0.501961" x="139" y="155" width="82" height="15" />
<rect fill="#1b3544" fill-opacity="0.501961" x="136" y="175" width="77" height="14" />
<rect fill="#27292b" fill-opacity="0.501961" x="161" y="141" width="60" height="9" />
<rect fill="#9c8619" fill-opacity="0.501961" x="110" y="109" width="32" height="45" />
<rect fill="#c2cac5" fill-opacity="0.501961" x="189" y="77" width="49" height="37" />
<rect fill="#2d6fbe" fill-opacity="0.501961" x="62" y="140" width="25" height="46" />
<rect fill="#2b1a00" fill-opacity="0.501961" x="55" y="159" width="44" height="5" />
<rect fill="#4b2810" fill-opacity="0.501961" x="106" y="106" width="24" height="14" />
<rect fill="#cbb452" fill-opacity="0.501961" x="94" y="86" width="36" height="14" />
<rect fill="#1b2742" fill-opacity="0.501961" x="159" y="122" width="10" height="49" />
<rect fill="#211d0b" fill-opacity="0.501961" x="18" y="165" width="49" height="5" />
<rect fill="#164eaf" fill-opacity="0.501961" x="145" y="127" width="32" height="17" />
<rect fill="#0a4186" fill-opacity="0.501961" x="117" y="143" width="10" height="14" />
<rect fill="#d9b600" fill-opacity="0.501961" x="146" y="116" width="30" height="5" />
<rect fill="#2f87e8" fill-opacity="0.501961" x="246" y="138" width="10" height="26" />
<rect fill="#1c71dc" fill-opacity="0.501961" x="0" y="177" width="20" height="12" />
<rect fill="#241800" fill-opacity="0.501961" x="0" y="169" width="28" height="5" />
<rect fill="#1f6ed2" fill-opacity="0.501961" x="139" y="161" width="27" height="15" />
<rect fill="#412b00" fill-opacity="0.501961" x="229" y="135" width="27" height="5" />
<rect fill="#2376dd" fill-opacity="0.501961" x="215" y="146" width="17" height="21" />
<rect fill="#293c4f" fill-opacity="0.501961" x="228" y="111" width="10" height="54" />
<rect fill="#0e3c73" fill-opacity="0.501961" x="171" y="118" width="29" height="12" />
<rect fill="#fffab2" fill-opacity="0.501961" x="5" y="0" width="91" height="21" />
<rect fill="#252b38" fill-opacity="0.501961" x="200" y="139" width="8" height="53" />
<rect fill="#3b3909" fill-opacity="0.501961" x="126" y="150" width="44" height="5" />
<rect fill="#1059c7" fill-opacity="0.501961" x="177" y="180" width="27" height="12" />
<rect fill="#dd9a00" fill-opacity="0.501961" x="66" y="105" width="34" height="5" />
<rect fill="#247de5" fill-opacity="0.501961" x="218" y="178" width="20" height="14" />
<rect fill="#1e1600" fill-opacity="0.501961" x="237" y="165" width="19" height="5" />
<rect fill="#c3c7b7" fill-opacity="0.501961" x="49" y="20" width="89" height="55" />
<rect fill="#1862c9" fill-opacity="0.501961" x="0" y="143" width="15" height="25" />
<rect fill="#211d14" fill-opacity="0.501961" x="52" y="138" width="6" height="28" />
<rect fill="#116be6" fill-opacity="0.501961" x="236" y="115" width="20" height="13" />
<rect fill="#d09c35" fill-opacity="0.501961" x="86" y="118" width="49" height="12" />
<rect fill="#424c55" fill-opacity="0.501961" x="43" y="125" width="13" height="5" />
<rect fill="#fffccc" fill-opacity="0.501961" x="54" y="0" width="108" height="5" />
<rect fill="#d2c9b7" fill-opacity="0.501961" x="33" y="111" width="65" height="5" />
<rect fill="#e9ddb1" fill-opacity="0.501961" x="148" y="0" width="108" height="17" />
<rect fill="#1665cd" fill-opacity="0.501961" x="29" y="171" width="26" height="21" />
<rect fill="#23241d" fill-opacity="0.501961" x="60" y="188" width="50" height="4" />
<rect fill="#4b5042" fill-opacity="0.501961" x="106" y="98" width="21" height="11" />
<rect fill="#283337" fill-opacity="0.501961" x="163" y="144" width="9" height="48" />
<rect fill="#0851bb" fill-opacity="0.501961" x="143" y="186" width="27" height="6" />
<rect fill="#286bc1" fill-opacity="0.501961" x="200" y="118" width="28" height="22" />
<rect fill="#2972cc" fill-opacity="0.501961" x="170" y="152" width="25" height="22" />
<rect fill="#cccab0" fill-opacity="0.501961" x="57" y="13" width="84" height="48" />
<rect fill="#251a00" fill-opacity="0.501961" x="59" y="172" width="6" height="20" />
<rect fill="#0d56c9" fill-opacity="0.501961" x="96" y="140" width="10" height="14" />
<rect fill="#353223" fill-opacity="0.501961" x="196" y="139" width="43" height="5" />
<rect fill="#2d2617" fill-opacity="0.501961" x="243" y="175" width="8" height="17" />
<rect fill="#1246a4" fill-opacity="0.501961" x="22" y="140" width="27" height="24" />
<rect fill="#a69e1a" fill-opacity="0.501961" x="111" y="126" width="32" height="22" />
<rect fill="#bcc0a8" fill-opacity="0.501961" x="175" y="36" width="20" height="79" />
<rect fill="#04398c" fill-opacity="0.501961" x="80" y="134" width="22" height="5" />
<rect fill="#d9bb57" fill-opacity="0.501961" x="142" y="100" width="48" height="16" />
<rect fill="#0e367c" fill-opacity="0.501961" x="106" y="163" width="25" height="29" />
<rect fill="#232923" fill-opacity="0.501961" x="96" y="183" width="58" height="7" />
<rect fill="#173870" fill-opacity="0.501961" x="208" y="113" width="28" height="5" />
<rect fill="#ffffb9" fill-opacity="0.501961" x="104" y="32" width="31" height="5" />
<rect fill="#d5d7bd" fill-opacity="0.501961" x="0" y="137" width="25" height="5" />
<rect fill="#37301e" fill-opacity="0.501961" x="186" y="173" width="30" height="5" />
<rect fill="#1b4b9a" fill-opacity="0.501961" x="142" y="123" width="49" height="5" />
<rect fill="#c0cac8" fill-opacity="0.501961" x="211" y="60" width="45" height="49" />
<rect fill="#201f13" fill-opacity="0.501961" x="22" y="175" width="8" height="17" />
<rect fill="#2367c0" fill-opacity="0.501961" x="208" y="146" width="24" height="22" />
<rect fill="#2471d2" fill-opacity="0.501961" x="64" y="166" width="28" height="15" />
<rect fill="#c6ccc1" fill-opacity="0.501961" x="0" y="72" width="62" height="50" />
<rect fill="#002e8a" fill-opacity="0.501961" x="247" y="108" width="9" height="5" />
<rect fill="#385761" fill-opacity="0.501961" x="47" y="136" width="33" height="5" />
<rect fill="#c2b379" fill-opacity="0.501961" x="65" y="94" width="100" height="8" />
<rect fill="#bcc4bd" fill-opacity="0.501961" x="162" y="54" width="94" height="51" />
<rect fill="#393111" fill-opacity="0.501961" x="18" y="151" width="6" height="20" />
<rect fill="#003fb0" fill-opacity="0.501961" x="119" y="144" width="5" height="10" />
<rect fill="#afb4a0" fill-opacity="0.501961" x="186" y="34" width="62" height="25" />
<rect fill="#c4b558" fill-opacity="0.501961" x="52" y="126" width="56" height="5" />
<rect fill="#c6bd74" fill-opacity="0.501961" x="120" y="85" width="51" height="12" />
<rect fill="#216fcd" fill-opacity="0.501961" x="116" y="189" width="19" height="3" />
<rect fill="#152549" fill-opacity="0.501961" x="5" y="143" width="10" height="5" />
<rect fill="#2c3426" fill-opacity="0.501961" x="108" y="153" width="37" height="5" />
<rect fill="#362b0a" fill-opacity="0.501961" x="160" y="130" width="5" height="21" />
<rect fill="#383321" fill-opacity="0.501961" x="87" y="132" width="8" height="31" />
<rect fill="#d1aa8c" fill-opacity="0.501961" x="128" y="116" width="14" height="8" />
<rect fill="#323729" fill-opacity="0.501961" x="170" y="168" width="6" height="24" />
<rect fill="#30353c" fill-opacity="0.501961" x="191" y="116" width="9" height="29" />
<rect fill="#024fba" fill-opacity="0.501961" x="249" y="169" width="7" height="15" />
<rect fill="#bcc6cb" fill-opacity="0.501961" x="205" y="11" width="51" height="13" />
<rect fill="#322d23" fill-opacity="0.501961" x="238" y="152" width="5" height="24" />
<rect fill="#226ac7" fill-opacity="0.501961" x="139" y="158" width="18" height="20" />
<rect fill="#cabf43" fill-opacity="0.501961" x="98" y="84" width="19" height="5" />
<rect fill="#faeaa4" fill-opacity="0.501961" x="22" y="98" width="49" height="5" />
<rect fill="#3a7ed7" fill-opacity="0.501961" x="240" y="141" width="16" height="10" />
<rect fill="#2d73ca" fill-opacity="0.501961" x="60" y="138" width="19" height="16" />
<rect fill="#e5cc00" fill-opacity="0.501961" x="159" y="115" width="18" height="5" />
<rect fill="#2c2b1f" fill-opacity="0.501961" x="56" y="160" width="25" height="5" />
<rect fill="#25291b" fill-opacity="0.501961" x="133" y="179" width="38" height="5" />
<rect fill="#2160b6" fill-opacity="0.501961" x="198" y="115" width="26" height="13" />
<rect fill="#d2c181" fill-opacity="0.501961" x="41" y="117" width="40" height="8" />
<rect fill="#b8bc9f" fill-opacity="0.501961" x="103" y="38" width="71" height="13" />
<rect fill="#342a14" fill-opacity="0.501961" x="207" y="181" width="7" height="11" />
<rect fill="#2463bb" fill-opacity="0.501961" x="145" y="134" width="15" height="15" />
<rect fill="#ecda98" fill-opacity="0.501961" x="123" y="10" width="57" height="9" />
<rect fill="#f5e6b2" fill-opacity="0.501961" x="210" y="26" width="46" height="5" />
<rect fill="#c5961c" fill-opacity="0.501961" x="139" y="106" width="32" height="5" />
<rect fill="#b4bbaa" fill-opacity="0.501961" x="12" y="128" width="26" height="13" />
<rect fill="#1456bb" fill-opacity="0.501961" x="233" y="111" width="23" height="9" />
<rect fill="#c5b74a" fill-opacity="0.501961" x="48" y="129" width="42" height="5" />
</g>
</svg>