<svg xmlns="http://www.w3.org/2000/svg" version="1.1" width="2304" height="1728">
<rect x="0" y="0" width="2304" height="1728" fill="#959d9c" />
<g transform="scale(1.000000) translate(0.5 0.5)">
<rect fill="#000047" fill-opacity="0.501961" x="0" y="1527" width="2304" height="5" />
<rect fill="#000047" fill-opacity="0.501961" x="0" y="1534" width="2304" height="5" />
<rect fill="#000048" fill-opacity="0.501961" x="0" y="1522" width="2304" height="5" />
<rect fill="#00004d" fill-opacity="0.501961" x="0" y="1539" width="2304" height="5" />
<rect fill="#00004b" fill-opacity="0.501961" x="0" y="1517" width="2304" height="5" />
<rect fill="#00004f" fill-opacity="0.501961" x="0" y="1512" width="2304" height="5" />
<rect fill="#000050" fill-opacity="0.501961" x="0" y="1548" width="2304" height="5" />
<rect fill="#000052" fill-opacity="0.501961" x="0" y="1555" width="2304" height="5" />
<rect fill="#000055" fill-opacity="0.501961" x="0" y="1507" width="2304" height="5" />
<rect fill="#000062" fill-opacity="0.501961" x="0" y="1694" width="2304" height="5" />
<rect fill="#000063" fill-opacity="0.501961" x="0" y="1689" width="2304" height="5" />
<rect fill="#000061" fill-opacity="0.501961" x="0" y="1653" width="2304" height="5" />
<rect fill="#000055" fill-opacity="0.501961" x="0" y="1560" width="2304" height="5" />
<rect fill="#000062" fill-opacity="0.501961" x="0" y="1676" width="2304" height="5" />
<rect fill="#000065" fill-opacity="0.501961" x="0" y="1706" width="2304" height="5" />
<rect fill="#000064" fill-opacity="0.501961" x="0" y="1684" width="2304" height="5" />
<rect fill="#000066" fill-opacity="0.501961" x="0" y="1717" width="2304" height="5" />
<rect fill="#000059" fill-opacity="0.501961" x="0" y="1567" width="2304" height="5" />
<rect fill="#000061" fill-opacity="0.501961" x="0" y="1601" width="2304" height="5" />
<rect fill="#000064" fill-opacity="0.501961" x="0" y="1699" width="2304" height="5" />
<rect fill="#00005a" fill-opacity="0.501961" x="0" y="1502" width="2304" height="5" />
<rect fill="#000061" fill-opacity="0.501961" x="0" y="1663" width="2304" height="5" />
<rect fill="#000060" fill-opacity="0.501961" x="0" y="1576" width="2304" height="5" />
<rect fill="#00005f" fill-opacity="0.501961" x="0" y="1497" width="2304" height="5" />
<rect fill="#000063" fill-opacity="0.501961" x="0" y="1671" width="2304" height="5" />
<rect fill="#000062" fill-opacity="0.501961" x="0" y="1658" width="2304" height="5" />
<rect fill="#000060" fill-opacity="0.501961" x="43" y="1606" width="2261" height="5" />
<rect fill="#000063" fill-opacity="0.501961" x="0" y="1648" width="2304" height="5" />
<rect fill="#000063" fill-opacity="0.501961" x="0" y="1492" width="2304" height="5" />
<rect fill="#000067" fill-opacity="0.501961" x="0" y="1711" width="2304" height="5" />
<rect fill="#000060" fill-opacity="0.501961" x="54" y="1643" width="2250" height="5" />
<rect fill="#000068" fill-opacity="0.501961" x="0" y="1487" width="2304" height="5" />
<rect fill="#000061" fill-opacity="0.501961" x="42" y="1595" width="2262" height="5" />
<rect fill="#000068" fill-opacity="0.501961" x="0" y="1468" width="2304" height="5" />
<rect fill="#000060" fill-opacity="0.501961" x="43" y="1623" width="2253" height="5" />
<rect fill="#000067" fill-opacity="0.501961" x="0" y="1463" width="2304" height="5" />
<rect fill="#000065" fill-opacity="0.501961" x="0" y="1453" width="2304" height="5" />
<rect fill="#000062" fill-opacity="0.501961" x="64" y="1638" width="2240" height="5" />
<rect fill="#000066" fill-opacity="0.501961" x="0" y="1447" width="2304" height="5" />
<rect fill="#000064" fill-opacity="0.501961" x="0" y="1590" width="2304" height="5" />
<rect fill="#00006c" fill-opacity="0.501961" x="0" y="1482" width="2304" height="5" />
<rect fill="#00006c" fill-opacity="0.501961" x="0" y="1477" width="2304" height="5" />
<rect fill="#000067" fill-opacity="0.501961" x="0" y="1458" width="2304" height="5" />
<rect fill="#000064" fill-opacity="0.501961" x="3" y="1441" width="2231" height="5" />
<rect fill="#00005c" fill-opacity="0.501961" x="155" y="1611" width="2149" height="5" />
<rect fill="#000066" fill-opacity="0.501961" x="0" y="1436" width="2218" height="5" />
<rect fill="#000065" fill-opacity="0.501961" x="1" y="1629" width="2303" height="5" />
<rect fill="#00006a" fill-opacity="0.501961" x="366" y="1430" width="1938" height="5" />
<rect fill="#000071" fill-opacity="0.501961" x="0" y="1424" width="2304" height="5" />
<rect fill="#00006b" fill-opacity="0.501961" x="0" y="1393" width="2304" height="5" />
<rect fill="#000071" fill-opacity="0.501961" x="0" y="1402" width="2304" height="5" />
<rect fill="#000071" fill-opacity="0.501961" x="0" y="1409" width="2304" height="5" />
<rect fill="#00005b" fill-opacity="0.501961" x="0" y="1419" width="1625" height="5" />
<rect fill="#000053" fill-opacity="0.501961" x="0" y="1414" width="1328" height="5" />
<rect fill="#000053" fill-opacity="0.501961" x="0" y="1388" width="1650" height="5" />
<rect fill="#000067" fill-opacity="0.501961" x="0" y="1375" width="2304" height="5" />
<rect fill="#000065" fill-opacity="0.501961" x="275" y="1383" width="2029" height="5" />
<rect fill="#000048" fill-opacity="0.501961" x="778" y="1585" width="1526" height="5" />
<rect fill="#000049" fill-opacity="0.501961" x="710" y="1370" width="1330" height="5" />
<rect fill="#000450" fill-opacity="0.501961" x="641" y="1358" width="1617" height="5" />
<rect fill="#000067" fill-opacity="0.501961" x="0" y="1723" width="2304" height="5" />
<rect fill="#00003f" fill-opacity="0.501961" x="1287" y="1288" width="1016" height="5" />
<rect fill="#000040" fill-opacity="0.501961" x="1285" y="1283" width="1019" height="5" />
<rect fill="#000042" fill-opacity="0.501961" x="1285" y="1293" width="1019" height="5" />
<rect fill="#000045" fill-opacity="0.501961" x="1291" y="1277" width="1013" height="5" />
<rect fill="#000660" fill-opacity="0.501961" x="385" y="1365" width="1919" height="5" />
<rect fill="#00004d" fill-opacity="0.501961" x="1296" y="1266" width="1008" height="5" />
<rect fill="#000048" fill-opacity="0.501961" x="1285" y="1303" width="1019" height="5" />
<rect fill="#000048" fill-opacity="0.501961" x="1285" y="1272" width="1019" height="5" />
<rect fill="#000045" fill-opacity="0.501961" x="1291" y="1298" width="1003" height="5" />
<rect fill="#000051" fill-opacity="0.501961" x="1275" y="1340" width="1029" height="5" />
<rect fill="#000047" fill-opacity="0.501961" x="1289" y="1308" width="995" height="5" />
<rect fill="#000856" fill-opacity="0.501961" x="456" y="1353" width="1838" height="5" />
<rect fill="#00004a" fill-opacity="0.501961" x="491" y="1618" width="1542" height="5" />
<rect fill="#00004f" fill-opacity="0.501961" x="1284" y="1324" width="1020" height="5" />
<rect fill="#00004e" fill-opacity="0.501961" x="1285" y="1318" width="1019" height="5" />
<rect fill="#00004c" fill-opacity="0.501961" x="121" y="1398" width="1376" height="5" />
<rect fill="#00005a" fill-opacity="0.501961" x="1290" y="1249" width="1014" height="5" />
<rect fill="#000060" fill-opacity="0.501961" x="1293" y="1223" width="1011" height="5" />
<rect fill="#000060" fill-opacity="0.501961" x="1295" y="1215" width="1009" height="5" />
<rect fill="#000055" fill-opacity="0.501961" x="1284" y="1261" width="1020" height="5" />
<rect fill="#001742" fill-opacity="0.501961" x="314" y="1256" width="1527" height="5" />
<rect fill="#00005d" fill-opacity="0.501961" x="1293" y="1237" width="1011" height="5" />
<rect fill="#000181" fill-opacity="0.501961" x="0" y="1346" width="975" height="5" />
<rect fill="#00005c" fill-opacity="0.501961" x="1293" y="1244" width="1011" height="5" />
<rect fill="#00003f" fill-opacity="0.501961" x="1278" y="1335" width="905" height="5" />
<rect fill="#000060" fill-opacity="0.501961" x="1293" y="1228" width="1011" height="5" />
<rect fill="#000067" fill-opacity="0.501961" x="1293" y="1210" width="1011" height="5" />
<rect fill="#000034" fill-opacity="0.501961" x="1282" y="1313" width="874" height="5" />
<rect fill="#000042" fill-opacity="0.501961" x="1183" y="1345" width="1048" height="5" />
<rect fill="#000071" fill-opacity="0.501961" x="1291" y="1205" width="1013" height="5" />
<rect fill="#00004e" fill-opacity="0.501961" x="798" y="1572" width="1506" height="5" />
<rect fill="#00007c" fill-opacity="0.501961" x="1300" y="1200" width="1004" height="5" />
<rect fill="#000187" fill-opacity="0.501961" x="1292" y="1195" width="1012" height="5" />
<rect fill="#000042" fill-opacity="0.501961" x="1281" y="1329" width="928" height="5" />
<rect fill="#00048d" fill-opacity="0.501961" x="1294" y="1190" width="1010" height="5" />
<rect fill="#000c72" fill-opacity="0.501961" x="0" y="1341" width="1152" height="5" />
<rect fill="#000058" fill-opacity="0.501961" x="491" y="1472" width="1237" height="5" />
<rect fill="#000085" fill-opacity="0.501961" x="0" y="1309" width="961" height="5" />
<rect fill="#000682" fill-opacity="0.501961" x="1283" y="1115" width="1021" height="5" />
<rect fill="#00068f" fill-opacity="0.501961" x="1291" y="1185" width="1013" height="5" />
<rect fill="#000076" fill-opacity="0.501961" x="424" y="1581" width="1162" height="5" />
<rect fill="#00007e" fill-opacity="0.501961" x="0" y="1304" width="957" height="5" />
<rect fill="#00078e" fill-opacity="0.501961" x="1291" y="1173" width="1013" height="5" />
<rect fill="#000890" fill-opacity="0.501961" x="1289" y="1168" width="1015" height="5" />
<rect fill="#000187" fill-opacity="0.501961" x="0" y="1314" width="964" height="5" />
<rect fill="#000486" fill-opacity="0.501961" x="0" y="1328" width="973" height="5" />
<rect fill="#000273" fill-opacity="0.501961" x="0" y="1299" width="979" height="5" />
<rect fill="#000270" fill-opacity="0.501961" x="82" y="1543" width="1594" height="5" />
<rect fill="#000384" fill-opacity="0.501961" x="0" y="1334" width="971" height="5" />
<rect fill="#000991" fill-opacity="0.501961" x="1291" y="1180" width="1013" height="5" />
<rect fill="#00098b" fill-opacity="0.501961" x="1280" y="1120" width="1024" height="5" />
<rect fill="#000a91" fill-opacity="0.501961" x="1282" y="1139" width="1022" height="5" />
<rect fill="#000b94" fill-opacity="0.501961" x="1284" y="1163" width="1020" height="5" />
<rect fill="#000a90" fill-opacity="0.501961" x="1281" y="1126" width="1023" height="5" />
<rect fill="#000c91" fill-opacity="0.501961" x="1280" y="1134" width="1024" height="5" />
<rect fill="#000c93" fill-opacity="0.501961" x="1283" y="1149" width="1021" height="5" />
<rect fill="#000045" fill-opacity="0.501961" x="628" y="1633" width="1312" height="5" />
<rect fill="#00048a" fill-opacity="0.501961" x="0" y="1322" width="967" height="5" />
<rect fill="#000d96" fill-opacity="0.501961" x="1283" y="1158" width="1021" height="5" />
<rect fill="#00097f" fill-opacity="0.501961" x="1301" y="1110" width="1003" height="5" />
<rect fill="#000773" fill-opacity="0.501961" x="1315" y="1105" width="989" height="5" />
<rect fill="#00097f" fill-opacity="0.501961" x="1431" y="1095" width="873" height="5" />
<rect fill="#00007e" fill-opacity="0.501961" x="178" y="1277" width="765" height="5" />
<rect fill="#000a7d" fill-opacity="0.501961" x="1452" y="1090" width="852" height="5" />
<rect fill="#000003" fill-opacity="0.501961" x="835" y="1666" width="707" height="5" />
<rect fill="#000285" fill-opacity="0.501961" x="178" y="1287" width="779" height="5" />
<rect fill="#000b84" fill-opacity="0.501961" x="1493" y="1084" width="811" height="5" />
</g>
</svg>