<svg xmlns="http://www.w3.org/2000/svg" version="1.1" width="4096" height="3072">
<rect x="0" y="0" width="4096" height="3072" fill="#939d99" />
<g transform="scale(4.000000) translate(0.5 0.5)">
<rect fill="#000272" fill-opacity="0.501961" x="767" y="481" width="257" height="287" />
<rect fill="#000017" fill-opacity="0.501961" x="655" y="481" width="5" height="287" />
<rect fill="#00000a" fill-opacity="0.501961" x="660" y="481" width="5" height="258" />
<rect fill="#000010" fill-opacity="0.501961" x="644" y="474" width="5" height="250" />
<rect fill="#000021" fill-opacity="0.501961" x="672" y="484" width="5" height="240" />
<rect fill="#000000" fill-opacity="0.501961" x="381" y="546" width="5" height="221" />
<rect fill="#000007" fill-opacity="0.501961" x="374" y="534" width="5" height="233" />
<rect fill="#00001a" fill-opacity="0.501961" x="387" y="512" width="5" height="256" />
<rect fill="#00001a" fill-opacity="0.501961" x="366" y="508" width="5" height="260" />
<rect fill="#000e31" fill-opacity="0.501961" x="396" y="436" width="5" height="324" />
<rect fill="#00000a" fill-opacity="0.501961" x="229" y="545" width="5" height="204" />
<rect fill="#000051" fill-opacity="0.501961" x="406" y="543" width="5" height="174" />
<rect fill="#282100" fill-opacity="0.501961" x="438" y="468" width="5" height="264" />
<rect fill="#171000" fill-opacity="0.501961" x="494" y="395" width="5" height="359" />
<rect fill="#171000" fill-opacity="0.501961" x="489" y="394" width="5" height="360" />
<rect fill="#000014" fill-opacity="0.501961" x="650" y="463" width="5" height="302" />
<rect fill="#000017" fill-opacity="0.501961" x="666" y="451" width="5" height="317" />
<rect fill="#000022" fill-opacity="0.501961" x="639" y="452" width="5" height="313" />
<rect fill="#00006c" fill-opacity="0.501961" x="621" y="481" width="5" height="287" />
<rect fill="#00005f" fill-opacity="0.501961" x="633" y="524" width="5" height="244" />
<rect fill="#000000" fill-opacity="0.501961" x="524" y="604" width="5" height="156" />
<rect fill="#000000" fill-opacity="0.501961" x="529" y="570" width="5" height="187" />
<rect fill="#000024" fill-opacity="0.501961" x="503" y="573" width="5" height="163" />
<rect fill="#000000" fill-opacity="0.501961" x="519" y="554" width="5" height="182" />
<rect fill="#000000" fill-opacity="0.501961" x="514" y="585" width="5" height="160" />
<rect fill="#00005b" fill-opacity="0.501961" x="627" y="479" width="5" height="267" />
<rect fill="#000d36" fill-opacity="0.501961" x="680" y="441" width="5" height="288" />
<rect fill="#00058b" fill-opacity="0.501961" x="706" y="477" width="5" height="237" />
<rect fill="#000051" fill-opacity="0.501961" x="687" y="487" width="5" height="281" />
<rect fill="#00025a" fill-opacity="0.501961" x="693" y="465" width="5" height="286" />
<rect fill="#000000" fill-opacity="0.501961" x="85" y="566" width="5" height="194" />
<rect fill="#000000" fill-opacity="0.501961" x="92" y="573" width="5" height="187" />
<rect fill="#000017" fill-opacity="0.501961" x="98" y="563" width="5" height="197" />
<rect fill="#000004" fill-opacity="0.501961" x="80" y="566" width="5" height="194" />
<rect fill="#000004" fill-opacity="0.501961" x="71" y="587" width="5" height="150" />
<rect fill="#00000c" fill-opacity="0.501961" x="234" y="557" width="5" height="178" />
<rect fill="#000033" fill-opacity="0.501961" x="241" y="549" width="5" height="219" />
<rect fill="#000010" fill-opacity="0.501961" x="224" y="544" width="5" height="206" />
<rect fill="#000029" fill-opacity="0.501961" x="218" y="559" width="5" height="191" />
<rect fill="#00004f" fill-opacity="0.501961" x="212" y="555" width="5" height="195" />
<rect fill="#000079" fill-opacity="0.501961" x="616" y="483" width="5" height="284" />
<rect fill="#000d70" fill-opacity="0.501961" x="609" y="463" width="5" height="304" />
<rect fill="#000a84" fill-opacity="0.501961" x="604" y="481" width="5" height="286" />
<rect fill="#00078c" fill-opacity="0.501961" x="595" y="491" width="5" height="276" />
<rect fill="#000785" fill-opacity="0.501961" x="577" y="511" width="5" height="252" />
<rect fill="#000039" fill-opacity="0.501961" x="413" y="554" width="5" height="214" />
<rect fill="#00001b" fill-opacity="0.501961" x="402" y="590" width="5" height="178" />
<rect fill="#000031" fill-opacity="0.501961" x="359" y="532" width="5" height="226" />
<rect fill="#00002a" fill-opacity="0.501961" x="418" y="536" width="5" height="228" />
<rect fill="#00002c" fill-opacity="0.501961" x="392" y="530" width="5" height="238" />
<rect fill="#004c87" fill-opacity="0.501961" x="767" y="465" width="257" height="303" />
<rect fill="#000084" fill-opacity="0.501961" x="757" y="468" width="5" height="300" />
<rect fill="#000062" fill-opacity="0.501961" x="699" y="473" width="5" height="295" />
<rect fill="#00088d" fill-opacity="0.501961" x="752" y="462" width="5" height="306" />
<rect fill="#000a90" fill-opacity="0.501961" x="746" y="468" width="5" height="287" />
<rect fill="#000000" fill-opacity="0.501961" x="536" y="602" width="5" height="160" />
<rect fill="#000016" fill-opacity="0.501961" x="509" y="612" width="5" height="156" />
<rect fill="#00003e" fill-opacity="0.501961" x="484" y="569" width="5" height="199" />
<rect fill="#00000c" fill-opacity="0.501961" x="479" y="521" width="5" height="236" />
<rect fill="#000a00" fill-opacity="0.501961" x="460" y="510" width="5" height="247" />
<rect fill="#00002d" fill-opacity="0.501961" x="430" y="600" width="5" height="168" />
<rect fill="#000025" fill-opacity="0.501961" x="465" y="590" width="5" height="178" />
<rect fill="#000021" fill-opacity="0.501961" x="449" y="602" width="5" height="165" />
<rect fill="#000033" fill-opacity="0.501961" x="473" y="581" width="5" height="186" />
<rect fill="#00002c" fill-opacity="0.501961" x="425" y="560" width="5" height="208" />
<rect fill="#00004a" fill-opacity="0.501961" x="107" y="565" width="5" height="175" />
<rect fill="#00006f" fill-opacity="0.501961" x="112" y="566" width="5" height="170" />
<rect fill="#000088" fill-opacity="0.501961" x="158" y="553" width="5" height="215" />
<rect fill="#000087" fill-opacity="0.501961" x="164" y="552" width="5" height="216" />
<rect fill="#000081" fill-opacity="0.501961" x="199" y="548" width="5" height="209" />
<rect fill="#000000" fill-opacity="0.501961" x="66" y="581" width="5" height="115" />
<rect fill="#00002b" fill-opacity="0.501961" x="59" y="579" width="5" height="117" />
<rect fill="#00088e" fill-opacity="0.501961" x="26" y="572" width="5" height="131" />
<rect fill="#000000" fill-opacity="0.501961" x="75" y="580" width="5" height="135" />
<rect fill="#00007c" fill-opacity="0.501961" x="49" y="580" width="5" height="133" />
<rect fill="#000000" fill-opacity="0.501961" x="541" y="604" width="5" height="164" />
<rect fill="#00000d" fill-opacity="0.501961" x="546" y="577" width="5" height="180" />
<rect fill="#000c93" fill-opacity="0.501961" x="586" y="521" width="5" height="236" />
<rect fill="#00154c" fill-opacity="0.501961" x="571" y="530" width="5" height="227" />
<rect fill="#001a93" fill-opacity="0.501961" x="581" y="510" width="5" height="252" />
</g>
</svg>