<svg xmlns="http://www.w3.org/2000/svg" version="1.1" width="4096" height="3072">
<rect x="0" y="0" width="4096" height="3072" fill="#939d99" />
<g transform="scale(4.000000) translate(0.5 0.5)">
<rect fill="#000061" fill-opacity="0.501961" x="767" y="667" width="257" height="101" />
<rect fill="#001d7e" fill-opacity="0.501961" x="767" y="451" width="257" height="311" />
<rect fill="#000d7c" fill-opacity="0.501961" x="761" y="440" width="5" height="328" />
<rect fill="#000f8e" fill-opacity="0.501961" x="748" y="455" width="5" height="313" />
<rect fill="#000010" fill-opacity="0.501961" x="655" y="449" width="5" height="319" />
<rect fill="#000000" fill-opacity="0.501961" x="662" y="539" width="5" height="203" />
<rect fill="#00000a" fill-opacity="0.501961" x="670" y="553" width="5" height="215" />
<rect fill="#00001e" fill-opacity="0.501961" x="678" y="553" width="5" height="215" />
<rect fill="#000020" fill-opacity="0.501961" x="650" y="556" width="5" height="205" />
<rect fill="#000028" fill-opacity="0.501961" x="644" y="556" width="5" height="181" />
<rect fill="#00004b" fill-opacity="0.501961" x="635" y="512" width="5" height="246" />
<rect fill="#000067" fill-opacity="0.501961" x="630" y="512" width="5" height="256" />
<rect fill="#000036" fill-opacity="0.501961" x="640" y="516" width="5" height="234" />
<rect fill="#000047" fill-opacity="0.501961" x="686" y="516" width="5" height="252" />
<rect fill="#000062" fill-opacity="0.501961" x="694" y="488" width="5" height="280" />
<rect fill="#000007" fill-opacity="0.501961" x="374" y="524" width="5" height="244" />
<rect fill="#00000f" fill-opacity="0.501961" x="384" y="524" width="5" height="242" />
<rect fill="#000012" fill-opacity="0.501961" x="369" y="516" width="5" height="252" />
<rect fill="#000026" fill-opacity="0.501961" x="394" y="524" width="5" height="244" />
<rect fill="#000010" fill-opacity="0.501961" x="380" y="537" width="5" height="231" />
<rect fill="#000000" fill-opacity="0.501961" x="528" y="617" width="5" height="151" />
<rect fill="#000000" fill-opacity="0.501961" x="522" y="598" width="5" height="161" />
<rect fill="#000000" fill-opacity="0.501961" x="516" y="598" width="5" height="166" />
<rect fill="#000000" fill-opacity="0.501961" x="537" y="598" width="5" height="167" />
<rect fill="#000023" fill-opacity="0.501961" x="458" y="617" width="5" height="151" />
<rect fill="#000000" fill-opacity="0.501961" x="89" y="577" width="5" height="191" />
<rect fill="#000000" fill-opacity="0.501961" x="84" y="591" width="5" height="163" />
<rect fill="#000028" fill-opacity="0.501961" x="71" y="602" width="5" height="166" />
<rect fill="#000007" fill-opacity="0.501961" x="101" y="602" width="5" height="166" />
<rect fill="#000043" fill-opacity="0.501961" x="106" y="548" width="5" height="213" />
<rect fill="#000018" fill-opacity="0.501961" x="228" y="545" width="5" height="223" />
<rect fill="#00001e" fill-opacity="0.501961" x="234" y="551" width="5" height="217" />
<rect fill="#000017" fill-opacity="0.501961" x="222" y="551" width="5" height="202" />
<rect fill="#00003f" fill-opacity="0.501961" x="216" y="539" width="5" height="229" />
<rect fill="#00006c" fill-opacity="0.501961" x="113" y="539" width="5" height="229" />
<rect fill="#171000" fill-opacity="0.501961" x="435" y="425" width="5" height="343" />
<rect fill="#191100" fill-opacity="0.501961" x="463" y="414" width="5" height="354" />
<rect fill="#120f00" fill-opacity="0.501961" x="494" y="403" width="5" height="365" />
<rect fill="#1a1300" fill-opacity="0.501961" x="501" y="395" width="5" height="373" />
<rect fill="#120e00" fill-opacity="0.501961" x="487" y="393" width="5" height="375" />
<rect fill="#000011" fill-opacity="0.501961" x="400" y="588" width="5" height="180" />
<rect fill="#00003a" fill-opacity="0.501961" x="408" y="551" width="5" height="217" />
<rect fill="#00002d" fill-opacity="0.501961" x="419" y="549" width="5" height="219" />
<rect fill="#000032" fill-opacity="0.501961" x="413" y="538" width="5" height="230" />
<rect fill="#000019" fill-opacity="0.501961" x="389" y="538" width="5" height="227" />
<rect fill="#000000" fill-opacity="0.501961" x="94" y="631" width="5" height="137" />
<rect fill="#000016" fill-opacity="0.501961" x="79" y="633" width="5" height="120" />
<rect fill="#000011" fill-opacity="0.501961" x="65" y="633" width="5" height="69" />
<rect fill="#000082" fill-opacity="0.501961" x="58" y="616" width="5" height="152" />
<rect fill="#000998" fill-opacity="0.501961" x="43" y="614" width="5" height="154" />
<rect fill="#00000b" fill-opacity="0.501961" x="508" y="611" width="5" height="145" />
<rect fill="#000038" fill-opacity="0.501961" x="476" y="595" width="5" height="173" />
<rect fill="#00002b" fill-opacity="0.501961" x="468" y="579" width="5" height="189" />
<rect fill="#000033" fill-opacity="0.501961" x="424" y="577" width="5" height="191" />
<rect fill="#000033" fill-opacity="0.501961" x="363" y="561" width="5" height="183" />
<rect fill="#00002b" fill-opacity="0.501961" x="441" y="629" width="5" height="139" />
<rect fill="#000027" fill-opacity="0.501961" x="453" y="624" width="5" height="144" />
<rect fill="#000025" fill-opacity="0.501961" x="446" y="607" width="5" height="161" />
<rect fill="#000024" fill-opacity="0.501961" x="431" y="624" width="4" height="141" />
<rect fill="#000048" fill-opacity="0.501961" x="483" y="600" width="5" height="168" />
<rect fill="#000000" fill-opacity="0.501961" x="544" y="593" width="5" height="172" />
<rect fill="#000000" fill-opacity="0.501961" x="533" y="593" width="5" height="163" />
<rect fill="#000021" fill-opacity="0.501961" x="549" y="593" width="5" height="175" />
<rect fill="#000074" fill-opacity="0.501961" x="622" y="566" width="5" height="201" />
<rect fill="#000075" fill-opacity="0.501961" x="575" y="580" width="5" height="188" />
<rect fill="#000080" fill-opacity="0.501961" x="118" y="582" width="5" height="186" />
<rect fill="#00028a" fill-opacity="0.501961" x="165" y="545" width="5" height="223" />
<rect fill="#000764" fill-opacity="0.501961" x="207" y="531" width="5" height="237" />
<rect fill="#000034" fill-opacity="0.501961" x="241" y="545" width="5" height="223" />
<rect fill="#00004f" fill-opacity="0.501961" x="248" y="545" width="5" height="213" />
<rect fill="#00006d" fill-opacity="0.501961" x="701" y="485" width="5" height="283" />
<rect fill="#00088f" fill-opacity="0.501961" x="731" y="468" width="5" height="300" />
<rect fill="#00058c" fill-opacity="0.501961" x="753" y="466" width="5" height="302" />
<rect fill="#105088" fill-opacity="0.501961" x="767" y="456" width="257" height="312" />
<rect fill="#001a74" fill-opacity="0.501961" x="707" y="431" width="5" height="337" />
<rect fill="#00001c" fill-opacity="0.501961" x="253" y="637" width="5" height="131" />
<rect fill="#000066" fill-opacity="0.501961" x="260" y="627" width="5" height="141" />
<rect fill="#000381" fill-opacity="0.501961" x="352" y="637" width="5" height="131" />
<rect fill="#000047" fill-opacity="0.501961" x="359" y="573" width="5" height="192" />
<rect fill="#000675" fill-opacity="0.501961" x="343" y="576" width="5" height="191" />
</g>
</svg>