<svg xmlns="http://www.w3.org/2000/svg" version="1.1" width="4096" height="3072">
<rect x="0" y="0" width="4096" height="3072" fill="#939d99" />
<g transform="scale(4.000000) translate(0.5 0.5)">
<rect fill="#000043" fill-opacity="0.501961" x="22" y="751" width="576" height="5" />
<rect fill="#000048" fill-opacity="0.501961" x="3" y="746" width="601" height="5" />
<rect fill="#000049" fill-opacity="0.501961" x="40" y="763" width="561" height="5" />
<rect fill="#000049" fill-opacity="0.501961" x="30" y="737" width="579" height="5" />
<rect fill="#00004c" fill-opacity="0.501961" x="55" y="732" width="565" height="5" />
<rect fill="#00003e" fill-opacity="0.501961" x="414" y="712" width="541" height="5" />
<rect fill="#000044" fill-opacity="0.501961" x="332" y="706" width="629" height="5" />
<rect fill="#00004b" fill-opacity="0.501961" x="30" y="680" width="934" height="5" />
<rect fill="#000051" fill-opacity="0.501961" x="0" y="688" width="944" height="5" />
<rect fill="#00005c" fill-opacity="0.501961" x="0" y="698" width="944" height="5" />
<rect fill="#000000" fill-opacity="0.501961" x="269" y="636" width="274" height="5" />
<rect fill="#000000" fill-opacity="0.501961" x="271" y="641" width="272" height="5" />
<rect fill="#000004" fill-opacity="0.501961" x="179" y="649" width="364" height="5" />
<rect fill="#00002b" fill-opacity="0.501961" x="196" y="656" width="375" height="5" />
<rect fill="#000041" fill-opacity="0.501961" x="105" y="631" width="481" height="5" />
<rect fill="#00003c" fill-opacity="0.501961" x="327" y="617" width="519" height="5" />
<rect fill="#000050" fill-opacity="0.501961" x="297" y="623" width="549" height="5" />
<rect fill="#000077" fill-opacity="0.501961" x="316" y="675" width="560" height="5" />
<rect fill="#00006c" fill-opacity="0.501961" x="175" y="665" width="698" height="5" />
<rect fill="#000055" fill-opacity="0.501961" x="130" y="757" width="756" height="5" />
<rect fill="#000025" fill-opacity="0.501961" x="661" y="570" width="345" height="5" />
<rect fill="#00002e" fill-opacity="0.501961" x="648" y="579" width="358" height="5" />
<rect fill="#00003e" fill-opacity="0.501961" x="574" y="565" width="432" height="5" />
<rect fill="#00004a" fill-opacity="0.501961" x="564" y="593" width="442" height="5" />
<rect fill="#00003f" fill-opacity="0.501961" x="565" y="584" width="426" height="5" />
<rect fill="#00003e" fill-opacity="0.501961" x="0" y="644" width="389" height="5" />
<rect fill="#000027" fill-opacity="0.501961" x="32" y="671" width="357" height="5" />
<rect fill="#000e9a" fill-opacity="0.501961" x="0" y="710" width="389" height="5" />
<rect fill="#000a96" fill-opacity="0.501961" x="0" y="727" width="389" height="5" />
<rect fill="#000d97" fill-opacity="0.501961" x="25" y="719" width="364" height="5" />
<rect fill="#000001" fill-opacity="0.501961" x="371" y="724" width="324" height="5" />
<rect fill="#000000" fill-opacity="0.501961" x="381" y="741" width="325" height="5" />
<rect fill="#000013" fill-opacity="0.501961" x="391" y="717" width="306" height="5" />
<rect fill="#00006e" fill-opacity="0.501961" x="327" y="670" width="370" height="5" />
<rect fill="#000070" fill-opacity="0.501961" x="280" y="693" width="417" height="5" />
<rect fill="#00007f" fill-opacity="0.501961" x="0" y="580" width="397" height="5" />
<rect fill="#000076" fill-opacity="0.501961" x="0" y="603" width="397" height="5" />
<rect fill="#000046" fill-opacity="0.501961" x="7" y="661" width="387" height="5" />
<rect fill="#000071" fill-opacity="0.501961" x="33" y="610" width="359" height="5" />
<rect fill="#000281" fill-opacity="0.501961" x="0" y="590" width="396" height="5" />
<rect fill="#00000b" fill-opacity="0.501961" x="388" y="612" width="245" height="5" />
<rect fill="#000b1f" fill-opacity="0.501961" x="307" y="606" width="319" height="5" />
<rect fill="#001e43" fill-opacity="0.501961" x="243" y="599" width="383" height="5" />
<rect fill="#000356" fill-opacity="0.501961" x="150" y="626" width="499" height="5" />
<rect fill="#000160" fill-opacity="0.501961" x="100" y="653" width="549" height="5" />
<rect fill="#000079" fill-opacity="0.501961" x="576" y="540" width="260" height="5" />
<rect fill="#000072" fill-opacity="0.501961" x="568" y="555" width="268" height="5" />
<rect fill="#000009" fill-opacity="0.501961" x="596" y="589" width="236" height="5" />
<rect fill="#00001d" fill-opacity="0.501961" x="600" y="598" width="216" height="5" />
<rect fill="#00098f" fill-opacity="0.501961" x="432" y="660" width="369" height="5" />
<rect fill="#00027a" fill-opacity="0.501961" x="106" y="563" width="265" height="5" />
<rect fill="#000587" fill-opacity="0.501961" x="23" y="585" width="348" height="5" />
<rect fill="#000789" fill-opacity="0.501961" x="74" y="573" width="299" height="5" />
<rect fill="#000e86" fill-opacity="0.501961" x="61" y="568" width="309" height="5" />
<rect fill="#000b84" fill-opacity="0.501961" x="8" y="596" width="368" height="5" />
<rect fill="#000036" fill-opacity="0.501961" x="612" y="560" width="363" height="5" />
<rect fill="#000063" fill-opacity="0.501961" x="603" y="604" width="356" height="5" />
<rect fill="#00001e" fill-opacity="0.501961" x="633" y="574" width="342" height="5" />
<rect fill="#00006e" fill-opacity="0.501961" x="567" y="550" width="391" height="5" />
<rect fill="#000969" fill-opacity="0.501961" x="539" y="545" width="419" height="5" />
<rect fill="#000069" fill-opacity="0.501961" x="566" y="526" width="235" height="5" />
<rect fill="#00005a" fill-opacity="0.501961" x="566" y="495" width="214" height="5" />
<rect fill="#000076" fill-opacity="0.501961" x="569" y="532" width="211" height="5" />
<rect fill="#00006c" fill-opacity="0.501961" x="570" y="500" width="230" height="5" />
<rect fill="#000173" fill-opacity="0.501961" x="565" y="507" width="219" height="5" />
<rect fill="#000000" fill-opacity="0.501961" x="863" y="675" width="161" height="5" />
<rect fill="#00002f" fill-opacity="0.501961" x="829" y="670" width="195" height="5" />
<rect fill="#000029" fill-opacity="0.501961" x="822" y="693" width="202" height="5" />
<rect fill="#000080" fill-opacity="0.501961" x="648" y="762" width="359" height="5" />
<rect fill="#00007b" fill-opacity="0.501961" x="631" y="736" width="378" height="5" />
<rect fill="#000369" fill-opacity="0.501961" x="588" y="490" width="393" height="5" />
<rect fill="#000785" fill-opacity="0.501961" x="568" y="520" width="421" height="5" />
<rect fill="#00098e" fill-opacity="0.501961" x="599" y="515" width="409" height="5" />
<rect fill="#000d70" fill-opacity="0.501961" x="618" y="485" width="406" height="5" />
<rect fill="#001f94" fill-opacity="0.501961" x="616" y="503" width="408" height="5" />
<rect fill="#000068" fill-opacity="0.501961" x="695" y="718" width="299" height="5" />
<rect fill="#00004d" fill-opacity="0.501961" x="547" y="729" width="453" height="5" />
<rect fill="#000174" fill-opacity="0.501961" x="479" y="752" width="521" height="5" />
<rect fill="#000064" fill-opacity="0.501961" x="463" y="746" width="554" height="5" />
<rect fill="#001170" fill-opacity="0.501961" x="428" y="741" width="596" height="5" />
</g>
</svg>