<svg xmlns="http://www.w3.org/2000/svg" version="1.1" width="4096" height="3072">
<rect x="0" y="0" width="4096" height="3072" fill="#939d99" />
<g transform="scale(4.000000) translate(0.5 0.5)">
<rect fill="#00006b" fill-opacity="0.501961" x="767" y="637" width="257" height="131" />
<rect fill="#000017" fill-opacity="0.501961" x="648" y="486" width="5" height="263" />
<rect fill="#00000b" fill-opacity="0.501961" x="655" y="479" width="5" height="270" />
<rect fill="#00001c" fill-opacity="0.501961" x="661" y="500" width="5" height="268" />
<rect fill="#00001e" fill-opacity="0.501961" x="669" y="474" width="5" height="294" />
<rect fill="#000a7c" fill-opacity="0.501961" x="767" y="451" width="257" height="178" />
<rect fill="#07518a" fill-opacity="0.501961" x="767" y="459" width="257" height="170" />
<rect fill="#000059" fill-opacity="0.501961" x="760" y="456" width="5" height="147" />
<rect fill="#000062" fill-opacity="0.501961" x="716" y="465" width="5" height="133" />
<rect fill="#00005e" fill-opacity="0.501961" x="702" y="470" width="5" height="125" />
<rect fill="#00000a" fill-opacity="0.501961" x="380" y="520" width="5" height="213" />
<rect fill="#00000e" fill-opacity="0.501961" x="373" y="512" width="5" height="227" />
<rect fill="#000012" fill-opacity="0.501961" x="368" y="521" width="5" height="218" />
<rect fill="#00001e" fill-opacity="0.501961" x="363" y="485" width="5" height="254" />
<rect fill="#000020" fill-opacity="0.501961" x="385" y="525" width="5" height="194" />
<rect fill="#00001f" fill-opacity="0.501961" x="640" y="484" width="5" height="261" />
<rect fill="#000016" fill-opacity="0.501961" x="674" y="545" width="5" height="221" />
<rect fill="#000047" fill-opacity="0.501961" x="631" y="477" width="5" height="273" />
<rect fill="#00006a" fill-opacity="0.501961" x="625" y="485" width="5" height="283" />
<rect fill="#000037" fill-opacity="0.501961" x="665" y="482" width="5" height="286" />
<rect fill="#000000" fill-opacity="0.501961" x="84" y="566" width="5" height="173" />
<rect fill="#000000" fill-opacity="0.501961" x="92" y="582" width="5" height="162" />
<rect fill="#000006" fill-opacity="0.501961" x="97" y="592" width="5" height="152" />
<rect fill="#00002d" fill-opacity="0.501961" x="103" y="556" width="5" height="212" />
<rect fill="#00005a" fill-opacity="0.501961" x="110" y="561" width="5" height="188" />
<rect fill="#191200" fill-opacity="0.501961" x="494" y="399" width="5" height="346" />
<rect fill="#130e00" fill-opacity="0.501961" x="486" y="392" width="5" height="376" />
<rect fill="#1c1400" fill-opacity="0.501961" x="459" y="400" width="5" height="368" />
<rect fill="#221900" fill-opacity="0.501961" x="437" y="407" width="5" height="341" />
<rect fill="#141000" fill-opacity="0.501961" x="432" y="414" width="5" height="354" />
<rect fill="#000000" fill-opacity="0.501961" x="524" y="580" width="5" height="185" />
<rect fill="#2f1c00" fill-opacity="0.501961" x="529" y="488" width="5" height="258" />
<rect fill="#1e1400" fill-opacity="0.501961" x="500" y="399" width="5" height="344" />
<rect fill="#382300" fill-opacity="0.501961" x="514" y="424" width="5" height="308" />
<rect fill="#211800" fill-opacity="0.501961" x="479" y="416" width="5" height="316" />
<rect fill="#000024" fill-opacity="0.501961" x="393" y="520" width="5" height="248" />
<rect fill="#020f18" fill-opacity="0.501961" x="417" y="457" width="5" height="311" />
<rect fill="#191100" fill-opacity="0.501961" x="464" y="415" width="5" height="353" />
<rect fill="#241c00" fill-opacity="0.501961" x="442" y="395" width="5" height="373" />
<rect fill="#211900" fill-opacity="0.501961" x="450" y="403" width="5" height="365" />
<rect fill="#000000" fill-opacity="0.501961" x="519" y="600" width="5" height="168" />
<rect fill="#000011" fill-opacity="0.501961" x="506" y="589" width="5" height="167" />
<rect fill="#000012" fill-opacity="0.501961" x="473" y="535" width="5" height="221" />
<rect fill="#00003d" fill-opacity="0.501961" x="403" y="523" width="5" height="227" />
<rect fill="#00002d" fill-opacity="0.501961" x="412" y="518" width="5" height="245" />
<rect fill="#00000e" fill-opacity="0.501961" x="229" y="570" width="5" height="198" />
<rect fill="#00001e" fill-opacity="0.501961" x="222" y="550" width="5" height="213" />
<rect fill="#000013" fill-opacity="0.501961" x="234" y="548" width="5" height="192" />
<rect fill="#00001a" fill-opacity="0.501961" x="217" y="566" width="5" height="156" />
<rect fill="#000055" fill-opacity="0.501961" x="207" y="548" width="5" height="174" />
<rect fill="#00007f" fill-opacity="0.501961" x="619" y="515" width="5" height="252" />
<rect fill="#000085" fill-opacity="0.501961" x="612" y="525" width="5" height="242" />
<rect fill="#000053" fill-opacity="0.501961" x="636" y="509" width="5" height="258" />
<rect fill="#00003c" fill-opacity="0.501961" x="643" y="492" width="5" height="275" />
<rect fill="#000038" fill-opacity="0.501961" x="679" y="512" width="5" height="221" />
<rect fill="#000000" fill-opacity="0.501961" x="536" y="602" width="5" height="166" />
<rect fill="#000000" fill-opacity="0.501961" x="541" y="617" width="5" height="151" />
<rect fill="#00002c" fill-opacity="0.501961" x="549" y="613" width="5" height="155" />
<rect fill="#000e7e" fill-opacity="0.501961" x="605" y="476" width="5" height="267" />
<rect fill="#001493" fill-opacity="0.501961" x="597" y="483" width="5" height="245" />
<rect fill="#004478" fill-opacity="0.501961" x="767" y="629" width="257" height="102" />
<rect fill="#00078f" fill-opacity="0.501961" x="752" y="471" width="5" height="240" />
<rect fill="#000688" fill-opacity="0.501961" x="707" y="472" width="5" height="239" />
<rect fill="#000b93" fill-opacity="0.501961" x="747" y="466" width="5" height="243" />
<rect fill="#000069" fill-opacity="0.501961" x="684" y="491" width="5" height="206" />
<rect fill="#00005e" fill-opacity="0.501961" x="695" y="474" width="5" height="289" />
<rect fill="#000058" fill-opacity="0.501961" x="690" y="479" width="5" height="289" />
<rect fill="#00003c" fill-opacity="0.501961" x="652" y="518" width="5" height="250" />
<rect fill="#000787" fill-opacity="0.501961" x="578" y="491" width="5" height="277" />
<rect fill="#000a93" fill-opacity="0.501961" x="586" y="501" width="5" height="267" />
<rect fill="#000016" fill-opacity="0.501961" x="78" y="578" width="5" height="190" />
<rect fill="#00007b" fill-opacity="0.501961" x="116" y="557" width="5" height="206" />
<rect fill="#000022" fill-opacity="0.501961" x="71" y="576" width="5" height="192" />
<rect fill="#00003b" fill-opacity="0.501961" x="65" y="581" width="5" height="187" />
<rect fill="#000064" fill-opacity="0.501961" x="59" y="580" width="5" height="188" />
<rect fill="#000032" fill-opacity="0.501961" x="425" y="595" width="5" height="170" />
<rect fill="#000015" fill-opacity="0.501961" x="398" y="581" width="5" height="179" />
<rect fill="#00004d" fill-opacity="0.501961" x="407" y="551" width="5" height="200" />
<rect fill="#00032b" fill-opacity="0.501961" x="469" y="555" width="5" height="213" />
<rect fill="#001016" fill-opacity="0.501961" x="511" y="534" width="5" height="234" />
</g>
</svg>