<svg xmlns="http://www.w3.org/2000/svg" version="1.1" width="4096" height="3072">
<rect x="0" y="0" width="4096" height="3072" fill="#939d99" />
<g transform="scale(4.000000) translate(0.5 0.5)">
<rect fill="#000375" fill-opacity="0.501961" x="767" y="581" width="257" height="187" />
<rect fill="#00347e" fill-opacity="0.501961" x="767" y="482" width="257" height="286" />
<rect fill="#1c4f85" fill-opacity="0.501961" x="767" y="482" width="257" height="280" />
<rect fill="#000286" fill-opacity="0.501961" x="756" y="464" width="5" height="304" />
<rect fill="#00000b" fill-opacity="0.501961" x="654" y="459" width="5" height="302" />
<rect fill="#000000" fill-opacity="0.501961" x="87" y="576" width="5" height="166" />
<rect fill="#000000" fill-opacity="0.501961" x="82" y="567" width="5" height="163" />
<rect fill="#00000a" fill-opacity="0.501961" x="92" y="559" width="5" height="171" />
<rect fill="#000021" fill-opacity="0.501961" x="97" y="570" width="5" height="160" />
<rect fill="#000000" fill-opacity="0.501961" x="77" y="573" width="5" height="157" />
<rect fill="#00000d" fill-opacity="0.501961" x="377" y="526" width="5" height="226" />
<rect fill="#00000c" fill-opacity="0.501961" x="372" y="529" width="5" height="213" />
<rect fill="#00001a" fill-opacity="0.501961" x="385" y="532" width="5" height="201" />
<rect fill="#000045" fill-opacity="0.501961" x="398" y="528" width="5" height="205" />
<rect fill="#00002d" fill-opacity="0.501961" x="391" y="521" width="5" height="212" />
<rect fill="#000000" fill-opacity="0.501961" x="664" y="563" width="5" height="205" />
<rect fill="#000020" fill-opacity="0.501961" x="649" y="531" width="5" height="237" />
<rect fill="#000013" fill-opacity="0.501961" x="659" y="514" width="5" height="254" />
<rect fill="#000024" fill-opacity="0.501961" x="671" y="507" width="5" height="261" />
<rect fill="#00001d" fill-opacity="0.501961" x="643" y="476" width="5" height="292" />
<rect fill="#000036" fill-opacity="0.501961" x="404" y="555" width="5" height="208" />
<rect fill="#000041" fill-opacity="0.501961" x="411" y="565" width="5" height="192" />
<rect fill="#000043" fill-opacity="0.501961" x="416" y="559" width="5" height="184" />
<rect fill="#1a1200" fill-opacity="0.501961" x="459" y="411" width="5" height="357" />
<rect fill="#1c1400" fill-opacity="0.501961" x="436" y="402" width="5" height="366" />
<rect fill="#000016" fill-opacity="0.501961" x="231" y="552" width="5" height="213" />
<rect fill="#000000" fill-opacity="0.501961" x="237" y="599" width="5" height="169" />
<rect fill="#000000" fill-opacity="0.501961" x="244" y="633" width="5" height="135" />
<rect fill="#00002c" fill-opacity="0.501961" x="225" y="611" width="5" height="157" />
<rect fill="#000053" fill-opacity="0.501961" x="216" y="607" width="5" height="134" />
<rect fill="#000000" fill-opacity="0.501961" x="527" y="580" width="5" height="182" />
<rect fill="#000000" fill-opacity="0.501961" x="532" y="568" width="5" height="194" />
<rect fill="#000000" fill-opacity="0.501961" x="517" y="537" width="5" height="216" />
<rect fill="#0d0a00" fill-opacity="0.501961" x="537" y="530" width="5" height="238" />
<rect fill="#040500" fill-opacity="0.501961" x="522" y="521" width="5" height="247" />
<rect fill="#124086" fill-opacity="0.501961" x="767" y="449" width="257" height="153" />
<rect fill="#000076" fill-opacity="0.501961" x="737" y="470" width="5" height="125" />
<rect fill="#312c24" fill-opacity="0.501961" x="767" y="468" width="35" height="129" />
<rect fill="#000052" fill-opacity="0.501961" x="761" y="468" width="5" height="132" />
<rect fill="#000072" fill-opacity="0.501961" x="729" y="470" width="5" height="131" />
<rect fill="#000028" fill-opacity="0.501961" x="677" y="523" width="5" height="238" />
<rect fill="#00002b" fill-opacity="0.501961" x="682" y="548" width="5" height="220" />
<rect fill="#000064" fill-opacity="0.501961" x="699" y="471" width="5" height="290" />
<rect fill="#00005b" fill-opacity="0.501961" x="694" y="471" width="5" height="290" />
<rect fill="#000489" fill-opacity="0.501961" x="717" y="471" width="5" height="293" />
<rect fill="#000045" fill-opacity="0.501961" x="635" y="498" width="5" height="256" />
<rect fill="#000063" fill-opacity="0.501961" x="620" y="471" width="5" height="283" />
<rect fill="#00007f" fill-opacity="0.501961" x="614" y="488" width="5" height="270" />
<rect fill="#000059" fill-opacity="0.501961" x="630" y="494" width="5" height="245" />
<rect fill="#00078d" fill-opacity="0.501961" x="607" y="490" width="5" height="249" />
<rect fill="#00000d" fill-opacity="0.501961" x="507" y="594" width="5" height="163" />
<rect fill="#00002d" fill-opacity="0.501961" x="501" y="586" width="5" height="145" />
<rect fill="#00004c" fill-opacity="0.501961" x="487" y="566" width="5" height="150" />
<rect fill="#000040" fill-opacity="0.501961" x="477" y="585" width="5" height="103" />
<rect fill="#00002b" fill-opacity="0.501961" x="422" y="543" width="5" height="150" />
<rect fill="#00002e" fill-opacity="0.501961" x="429" y="590" width="5" height="178" />
<rect fill="#00002a" fill-opacity="0.501961" x="464" y="603" width="5" height="165" />
<rect fill="#000025" fill-opacity="0.501961" x="444" y="619" width="5" height="149" />
<rect fill="#000016" fill-opacity="0.501961" x="454" y="588" width="5" height="158" />
<rect fill="#000000" fill-opacity="0.501961" x="512" y="589" width="5" height="166" />
<rect fill="#000c8f" fill-opacity="0.501961" x="599" y="489" width="5" height="253" />
<rect fill="#000c8e" fill-opacity="0.501961" x="593" y="490" width="5" height="258" />
<rect fill="#000c8e" fill-opacity="0.501961" x="579" y="493" width="5" height="255" />
<rect fill="#000e6a" fill-opacity="0.501961" x="574" y="491" width="5" height="257" />
<rect fill="#1d2200" fill-opacity="0.501961" x="545" y="500" width="5" height="248" />
<rect fill="#000000" fill-opacity="0.501961" x="221" y="549" width="5" height="133" />
<rect fill="#001399" fill-opacity="0.501961" x="251" y="545" width="5" height="137" />
<rect fill="#001ea0" fill-opacity="0.501961" x="260" y="552" width="5" height="128" />
<rect fill="#00004e" fill-opacity="0.501961" x="205" y="550" width="5" height="145" />
<rect fill="#0022a3" fill-opacity="0.501961" x="268" y="550" width="5" height="136" />
<rect fill="#000027" fill-opacity="0.501961" x="102" y="566" width="5" height="193" />
<rect fill="#000019" fill-opacity="0.501961" x="71" y="580" width="5" height="179" />
<rect fill="#000048" fill-opacity="0.501961" x="108" y="559" width="5" height="200" />
<rect fill="#00007e" fill-opacity="0.501961" x="116" y="563" width="5" height="178" />
<rect fill="#00007e" fill-opacity="0.501961" x="195" y="554" width="5" height="174" />
<rect fill="#000020" fill-opacity="0.501961" x="364" y="536" width="5" height="232" />
<rect fill="#000038" fill-opacity="0.501961" x="359" y="562" width="5" height="206" />
<rect fill="#00003d" fill-opacity="0.501961" x="351" y="526" width="5" height="238" />
<rect fill="#000e58" fill-opacity="0.501961" x="345" y="508" width="5" height="256" />
<rect fill="#00001b" fill-opacity="0.501961" x="382" y="497" width="4" height="267" />
</g>
</svg>