<svg xmlns="http://www.w3.org/2000/svg" version="1.1" width="4096" height="3072">
<rect x="0" y="0" width="4096" height="3072" fill="#939d99" />
<g transform="scale(4.000000) translate(0.5 0.5)">
<rect fill="#000374" fill-opacity="0.501961" x="767" y="473" width="257" height="295" />
<rect fill="#000018" fill-opacity="0.501961" x="656" y="482" width="5" height="286" />
<rect fill="#00001e" fill-opacity="0.501961" x="662" y="485" width="5" height="283" />
<rect fill="#00001d" fill-opacity="0.501961" x="646" y="485" width="5" height="277" />
<rect fill="#000031" fill-opacity="0.501961" x="639" y="489" width="5" height="279" />
<rect fill="#000007" fill-opacity="0.501961" x="375" y="523" width="5" height="245" />
<rect fill="#000007" fill-opacity="0.501961" x="380" y="524" width="5" height="241" />
<rect fill="#000011" fill-opacity="0.501961" x="386" y="537" width="5" height="228" />
<rect fill="#00000d" fill-opacity="0.501961" x="370" y="525" width="5" height="243" />
<rect fill="#000023" fill-opacity="0.501961" x="392" y="527" width="5" height="241" />
<rect fill="#000023" fill-opacity="0.501961" x="667" y="491" width="5" height="277" />
<rect fill="#000026" fill-opacity="0.501961" x="672" y="480" width="5" height="288" />
<rect fill="#000014" fill-opacity="0.501961" x="651" y="457" width="5" height="311" />
<rect fill="#00052b" fill-opacity="0.501961" x="678" y="436" width="5" height="332" />
<rect fill="#00007b" fill-opacity="0.501961" x="762" y="464" width="5" height="304" />
<rect fill="#000000" fill-opacity="0.501961" x="88" y="565" width="5" height="203" />
<rect fill="#000011" fill-opacity="0.501961" x="95" y="550" width="5" height="218" />
<rect fill="#00001a" fill-opacity="0.501961" x="100" y="566" width="5" height="202" />
<rect fill="#000000" fill-opacity="0.501961" x="80" y="566" width="5" height="181" />
<rect fill="#000021" fill-opacity="0.501961" x="70" y="584" width="5" height="184" />
<rect fill="#000013" fill-opacity="0.501961" x="228" y="546" width="5" height="215" />
<rect fill="#00001a" fill-opacity="0.501961" x="233" y="530" width="5" height="230" />
<rect fill="#00002f" fill-opacity="0.501961" x="239" y="542" width="5" height="222" />
<rect fill="#000020" fill-opacity="0.501961" x="222" y="547" width="5" height="221" />
<rect fill="#000039" fill-opacity="0.501961" x="245" y="544" width="5" height="224" />
<rect fill="#1b1200" fill-opacity="0.501961" x="464" y="406" width="5" height="362" />
<rect fill="#130f00" fill-opacity="0.501961" x="487" y="390" width="5" height="378" />
<rect fill="#181200" fill-opacity="0.501961" x="496" y="386" width="5" height="382" />
<rect fill="#1a1200" fill-opacity="0.501961" x="501" y="396" width="5" height="369" />
<rect fill="#181300" fill-opacity="0.501961" x="478" y="396" width="5" height="372" />
<rect fill="#000032" fill-opacity="0.501961" x="398" y="520" width="5" height="248" />
<rect fill="#00001c" fill-opacity="0.501961" x="365" y="514" width="5" height="254" />
<rect fill="#00002b" fill-opacity="0.501961" x="359" y="529" width="5" height="239" />
<rect fill="#000040" fill-opacity="0.501961" x="351" y="534" width="5" height="234" />
<rect fill="#000036" fill-opacity="0.501961" x="403" y="529" width="5" height="239" />
<rect fill="#000049" fill-opacity="0.501961" x="633" y="485" width="5" height="276" />
<rect fill="#000065" fill-opacity="0.501961" x="628" y="494" width="5" height="274" />
<rect fill="#00006c" fill-opacity="0.501961" x="622" y="481" width="5" height="287" />
<rect fill="#000083" fill-opacity="0.501961" x="611" y="489" width="5" height="279" />
<rect fill="#00007b" fill-opacity="0.501961" x="617" y="487" width="5" height="281" />
<rect fill="#000036" fill-opacity="0.501961" x="409" y="565" width="5" height="203" />
<rect fill="#000038" fill-opacity="0.501961" x="414" y="555" width="5" height="213" />
<rect fill="#00001f" fill-opacity="0.501961" x="419" y="514" width="5" height="254" />
<rect fill="#000025" fill-opacity="0.501961" x="424" y="540" width="5" height="228" />
<rect fill="#050d00" fill-opacity="0.501961" x="437" y="500" width="5" height="268" />
<rect fill="#000044" fill-opacity="0.501961" x="683" y="489" width="5" height="279" />
<rect fill="#000064" fill-opacity="0.501961" x="699" y="475" width="5" height="293" />
<rect fill="#000180" fill-opacity="0.501961" x="709" y="469" width="5" height="299" />
<rect fill="#00005e" fill-opacity="0.501961" x="694" y="478" width="5" height="290" />
<rect fill="#000059" fill-opacity="0.501961" x="689" y="495" width="5" height="273" />
<rect fill="#000000" fill-opacity="0.501961" x="523" y="533" width="5" height="235" />
<rect fill="#00000a" fill-opacity="0.501961" x="459" y="548" width="5" height="220" />
<rect fill="#000000" fill-opacity="0.501961" x="530" y="566" width="5" height="202" />
<rect fill="#050800" fill-opacity="0.501961" x="518" y="515" width="5" height="253" />
<rect fill="#1e1500" fill-opacity="0.501961" x="535" y="502" width="5" height="266" />
<rect fill="#1f1300" fill-opacity="0.501961" x="507" y="410" width="5" height="358" />
<rect fill="#1e1600" fill-opacity="0.501961" x="473" y="396" width="5" height="370" />
<rect fill="#131000" fill-opacity="0.501961" x="431" y="413" width="5" height="355" />
<rect fill="#231900" fill-opacity="0.501961" x="454" y="398" width="5" height="370" />
<rect fill="#292000" fill-opacity="0.501961" x="448" y="396" width="5" height="350" />
<rect fill="#00048a" fill-opacity="0.501961" x="718" y="472" width="5" height="296" />
<rect fill="#000085" fill-opacity="0.501961" x="757" y="470" width="5" height="298" />
<rect fill="#00078f" fill-opacity="0.501961" x="730" y="470" width="5" height="298" />
<rect fill="#000890" fill-opacity="0.501961" x="723" y="480" width="5" height="288" />
<rect fill="#00078f" fill-opacity="0.501961" x="750" y="466" width="5" height="302" />
<rect fill="#000986" fill-opacity="0.501961" x="604" y="483" width="5" height="285" />
<rect fill="#00078f" fill-opacity="0.501961" x="598" y="493" width="5" height="273" />
<rect fill="#000a8a" fill-opacity="0.501961" x="592" y="487" width="5" height="281" />
<rect fill="#000982" fill-opacity="0.501961" x="578" y="484" width="5" height="284" />
<rect fill="#0017a1" fill-opacity="0.501961" x="585" y="487" width="5" height="236" />
<rect fill="#024c88" fill-opacity="0.501961" x="767" y="448" width="257" height="320" />
<rect fill="#000a92" fill-opacity="0.501961" x="745" y="468" width="5" height="300" />
<rect fill="#000e91" fill-opacity="0.501961" x="739" y="463" width="5" height="301" />
<rect fill="#001470" fill-opacity="0.501961" x="704" y="442" width="5" height="326" />
<rect fill="#00158d" fill-opacity="0.501961" x="714" y="480" width="5" height="286" />
<rect fill="#00003a" fill-opacity="0.501961" x="107" y="562" width="5" height="206" />
<rect fill="#00003e" fill-opacity="0.501961" x="65" y="574" width="5" height="194" />
<rect fill="#00001e" fill-opacity="0.501961" x="75" y="579" width="5" height="189" />
<rect fill="#000088" fill-opacity="0.501961" x="159" y="557" width="5" height="211" />
<rect fill="#000032" fill-opacity="0.501961" x="217" y="545" width="5" height="213" />
</g>
</svg>