<svg xmlns="http://www.w3.org/2000/svg" version="1.1" width="4096" height="3072">
<rect x="0" y="0" width="4096" height="3072" fill="#939d99" />
<g transform="scale(4.000000) translate(0.5 0.5)">
<rect fill="#000c7f" fill-opacity="0.501961" x="767" y="450" width="257" height="196" />
<rect fill="#07528b" fill-opacity="0.501961" x="767" y="459" width="257" height="187" />
<rect fill="#00307d" fill-opacity="0.501961" x="767" y="459" width="257" height="309" />
<rect fill="#245087" fill-opacity="0.501961" x="767" y="459" width="257" height="309" />
<rect fill="#00087c" fill-opacity="0.501961" x="760" y="448" width="5" height="320" />
<rect fill="#00001b" fill-opacity="0.501961" x="655" y="489" width="5" height="279" />
<rect fill="#000014" fill-opacity="0.501961" x="663" y="460" width="5" height="308" />
<rect fill="#00001a" fill-opacity="0.501961" x="646" y="475" width="5" height="293" />
<rect fill="#000025" fill-opacity="0.501961" x="641" y="481" width="5" height="287" />
<rect fill="#000022" fill-opacity="0.501961" x="668" y="483" width="5" height="285" />
<rect fill="#000008" fill-opacity="0.501961" x="376" y="525" width="5" height="243" />
<rect fill="#000000" fill-opacity="0.501961" x="383" y="551" width="5" height="217" />
<rect fill="#00001c" fill-opacity="0.501961" x="390" y="534" width="5" height="234" />
<rect fill="#00000c" fill-opacity="0.501961" x="371" y="523" width="5" height="240" />
<rect fill="#00002a" fill-opacity="0.501961" x="395" y="505" width="5" height="263" />
<rect fill="#000000" fill-opacity="0.501961" x="88" y="566" width="5" height="201" />
<rect fill="#000000" fill-opacity="0.501961" x="93" y="566" width="5" height="202" />
<rect fill="#00001a" fill-opacity="0.501961" x="100" y="566" width="5" height="202" />
<rect fill="#000007" fill-opacity="0.501961" x="81" y="586" width="5" height="182" />
<rect fill="#000025" fill-opacity="0.501961" x="69" y="579" width="5" height="189" />
<rect fill="#000029" fill-opacity="0.501961" x="673" y="481" width="5" height="287" />
<rect fill="#000033" fill-opacity="0.501961" x="681" y="469" width="5" height="299" />
<rect fill="#00003e" fill-opacity="0.501961" x="636" y="486" width="5" height="280" />
<rect fill="#00001d" fill-opacity="0.501961" x="651" y="483" width="5" height="260" />
<rect fill="#000e42" fill-opacity="0.501961" x="631" y="438" width="5" height="330" />
<rect fill="#00001a" fill-opacity="0.501961" x="366" y="509" width="5" height="259" />
<rect fill="#000039" fill-opacity="0.501961" x="402" y="527" width="5" height="236" />
<rect fill="#000035" fill-opacity="0.501961" x="407" y="535" width="5" height="233" />
<rect fill="#100d00" fill-opacity="0.501961" x="524" y="506" width="5" height="262" />
<rect fill="#1d1500" fill-opacity="0.501961" x="531" y="499" width="5" height="269" />
<rect fill="#000018" fill-opacity="0.501961" x="229" y="543" width="5" height="225" />
<rect fill="#00001a" fill-opacity="0.501961" x="224" y="545" width="5" height="219" />
<rect fill="#000028" fill-opacity="0.501961" x="236" y="537" width="5" height="231" />
<rect fill="#000030" fill-opacity="0.501961" x="218" y="562" width="5" height="196" />
<rect fill="#000086" fill-opacity="0.501961" x="163" y="556" width="5" height="212" />
<rect fill="#000070" fill-opacity="0.501961" x="624" y="489" width="5" height="279" />
<rect fill="#00007c" fill-opacity="0.501961" x="618" y="492" width="5" height="276" />
<rect fill="#000086" fill-opacity="0.501961" x="609" y="489" width="5" height="279" />
<rect fill="#00068e" fill-opacity="0.501961" x="604" y="491" width="5" height="277" />
<rect fill="#00078e" fill-opacity="0.501961" x="598" y="492" width="5" height="276" />
<rect fill="#00004b" fill-opacity="0.501961" x="688" y="472" width="5" height="296" />
<rect fill="#00002e" fill-opacity="0.501961" x="660" y="480" width="5" height="279" />
<rect fill="#00098f" fill-opacity="0.501961" x="592" y="492" width="5" height="276" />
<rect fill="#1c1400" fill-opacity="0.501961" x="537" y="506" width="5" height="262" />
<rect fill="#000683" fill-opacity="0.501961" x="577" y="493" width="5" height="275" />
<rect fill="#00002d" fill-opacity="0.501961" x="412" y="522" width="5" height="246" />
<rect fill="#000034" fill-opacity="0.501961" x="417" y="560" width="5" height="208" />
<rect fill="#000023" fill-opacity="0.501961" x="422" y="532" width="5" height="236" />
<rect fill="#00002a" fill-opacity="0.501961" x="361" y="520" width="5" height="242" />
<rect fill="#000035" fill-opacity="0.501961" x="356" y="523" width="5" height="239" />
<rect fill="#00005e" fill-opacity="0.501961" x="695" y="477" width="5" height="291" />
<rect fill="#00006b" fill-opacity="0.501961" x="700" y="482" width="5" height="284" />
<rect fill="#00068e" fill-opacity="0.501961" x="752" y="467" width="5" height="301" />
<rect fill="#000176" fill-opacity="0.501961" x="706" y="467" width="5" height="301" />
<rect fill="#000488" fill-opacity="0.501961" x="712" y="471" width="5" height="297" />
<rect fill="#191300" fill-opacity="0.501961" x="495" y="384" width="5" height="384" />
<rect fill="#1c1500" fill-opacity="0.501961" x="460" y="397" width="5" height="371" />
<rect fill="#140f00" fill-opacity="0.501961" x="485" y="392" width="5" height="374" />
<rect fill="#181300" fill-opacity="0.501961" x="479" y="394" width="5" height="374" />
<rect fill="#1c1300" fill-opacity="0.501961" x="467" y="407" width="5" height="358" />
<rect fill="#1b1300" fill-opacity="0.501961" x="437" y="411" width="5" height="357" />
<rect fill="#181300" fill-opacity="0.501961" x="432" y="398" width="5" height="370" />
<rect fill="#231900" fill-opacity="0.501961" x="453" y="400" width="5" height="367" />
<rect fill="#1d1500" fill-opacity="0.501961" x="473" y="400" width="5" height="368" />
<rect fill="#1d1700" fill-opacity="0.501961" x="446" y="413" width="5" height="355" />
<rect fill="#00058a" fill-opacity="0.501961" x="719" y="471" width="5" height="297" />
<rect fill="#000a91" fill-opacity="0.501961" x="744" y="467" width="5" height="301" />
<rect fill="#00108e" fill-opacity="0.501961" x="729" y="457" width="5" height="311" />
<rect fill="#000a91" fill-opacity="0.501961" x="736" y="470" width="5" height="295" />
<rect fill="#000891" fill-opacity="0.501961" x="724" y="482" width="5" height="286" />
<rect fill="#000000" fill-opacity="0.501961" x="519" y="550" width="5" height="213" />
<rect fill="#000000" fill-opacity="0.501961" x="513" y="543" width="5" height="225" />
<rect fill="#010700" fill-opacity="0.501961" x="507" y="498" width="5" height="270" />
<rect fill="#0f1000" fill-opacity="0.501961" x="542" y="520" width="5" height="248" />
<rect fill="#100f00" fill-opacity="0.501961" x="490" y="430" width="5" height="338" />
<rect fill="#00002f" fill-opacity="0.501961" x="105" y="566" width="5" height="202" />
<rect fill="#000053" fill-opacity="0.501961" x="61" y="568" width="5" height="200" />
<rect fill="#00001f" fill-opacity="0.501961" x="75" y="585" width="5" height="183" />
<rect fill="#00007f" fill-opacity="0.501961" x="52" y="570" width="5" height="198" />
<rect fill="#000595" fill-opacity="0.501961" x="44" y="571" width="5" height="197" />
</g>
</svg>