<svg xmlns="http://www.w3.org/2000/svg" version="1.1" width="4096" height="3072">
<rect x="0" y="0" width="4096" height="3072" fill="#939d99" />
<g transform="scale(4.000000) translate(0.5 0.5)">
<rect fill="#000375" fill-opacity="0.501961" x="767" y="460" width="257" height="308" />
<rect fill="#045087" fill-opacity="0.501961" x="767" y="460" width="257" height="308" />
<rect fill="#000015" fill-opacity="0.501961" x="655" y="477" width="5" height="291" />
<rect fill="#00001e" fill-opacity="0.501961" x="650" y="481" width="5" height="287" />
<rect fill="#000018" fill-opacity="0.501961" x="660" y="480" width="5" height="288" />
<rect fill="#000008" fill-opacity="0.501961" x="377" y="523" width="5" height="245" />
<rect fill="#00000e" fill-opacity="0.501961" x="384" y="530" width="5" height="238" />
<rect fill="#00000a" fill-opacity="0.501961" x="372" y="519" width="5" height="249" />
<rect fill="#00001e" fill-opacity="0.501961" x="389" y="500" width="5" height="268" />
<rect fill="#000023" fill-opacity="0.501961" x="394" y="472" width="5" height="296" />
<rect fill="#000021" fill-opacity="0.501961" x="665" y="485" width="5" height="283" />
<rect fill="#000022" fill-opacity="0.501961" x="638" y="464" width="5" height="292" />
<rect fill="#000022" fill-opacity="0.501961" x="645" y="494" width="5" height="272" />
<rect fill="#000055" fill-opacity="0.501961" x="631" y="489" width="5" height="279" />
<rect fill="#000085" fill-opacity="0.501961" x="610" y="489" width="5" height="279" />
<rect fill="#000035" fill-opacity="0.501961" x="401" y="518" width="5" height="250" />
<rect fill="#000016" fill-opacity="0.501961" x="367" y="518" width="5" height="250" />
<rect fill="#1c1400" fill-opacity="0.501961" x="436" y="403" width="5" height="365" />
<rect fill="#1c1400" fill-opacity="0.501961" x="460" y="399" width="5" height="365" />
<rect fill="#130f00" fill-opacity="0.501961" x="488" y="390" width="5" height="378" />
<rect fill="#000000" fill-opacity="0.501961" x="89" y="564" width="5" height="204" />
<rect fill="#000000" fill-opacity="0.501961" x="84" y="590" width="5" height="178" />
<rect fill="#000000" fill-opacity="0.501961" x="94" y="594" width="5" height="174" />
<rect fill="#00002b" fill-opacity="0.501961" x="74" y="615" width="5" height="153" />
<rect fill="#00002e" fill-opacity="0.501961" x="67" y="581" width="5" height="187" />
<rect fill="#000020" fill-opacity="0.501961" x="670" y="475" width="5" height="293" />
<rect fill="#00002f" fill-opacity="0.501961" x="676" y="480" width="5" height="283" />
<rect fill="#000037" fill-opacity="0.501961" x="681" y="475" width="5" height="293" />
<rect fill="#00004c" fill-opacity="0.501961" x="686" y="484" width="5" height="284" />
<rect fill="#00005e" fill-opacity="0.501961" x="695" y="477" width="5" height="291" />
<rect fill="#00000c" fill-opacity="0.501961" x="227" y="546" width="5" height="204" />
<rect fill="#00001f" fill-opacity="0.501961" x="217" y="549" width="5" height="184" />
<rect fill="#000000" fill-opacity="0.501961" x="235" y="613" width="5" height="108" />
<rect fill="#000018" fill-opacity="0.501961" x="99" y="563" width="5" height="205" />
<rect fill="#000046" fill-opacity="0.501961" x="109" y="565" width="5" height="203" />
<rect fill="#000034" fill-opacity="0.501961" x="406" y="530" width="5" height="238" />
<rect fill="#000034" fill-opacity="0.501961" x="411" y="534" width="5" height="234" />
<rect fill="#000023" fill-opacity="0.501961" x="362" y="527" width="5" height="241" />
<rect fill="#000032" fill-opacity="0.501961" x="357" y="532" width="5" height="236" />
<rect fill="#00003c" fill-opacity="0.501961" x="352" y="533" width="5" height="235" />
<rect fill="#000000" fill-opacity="0.501961" x="524" y="568" width="5" height="200" />
<rect fill="#000000" fill-opacity="0.501961" x="529" y="570" width="5" height="196" />
<rect fill="#1b1300" fill-opacity="0.501961" x="536" y="507" width="5" height="261" />
<rect fill="#100f00" fill-opacity="0.501961" x="518" y="498" width="5" height="270" />
<rect fill="#010800" fill-opacity="0.501961" x="510" y="505" width="5" height="263" />
<rect fill="#000018" fill-opacity="0.501961" x="222" y="552" width="5" height="201" />
<rect fill="#000031" fill-opacity="0.501961" x="240" y="545" width="5" height="223" />
<rect fill="#00044d" fill-opacity="0.501961" x="249" y="524" width="5" height="244" />
<rect fill="#000029" fill-opacity="0.501961" x="232" y="544" width="5" height="224" />
<rect fill="#000069" fill-opacity="0.501961" x="254" y="554" width="5" height="214" />
<rect fill="#00007d" fill-opacity="0.501961" x="762" y="472" width="5" height="296" />
<rect fill="#000186" fill-opacity="0.501961" x="756" y="468" width="5" height="300" />
<rect fill="#000082" fill-opacity="0.501961" x="708" y="482" width="5" height="283" />
<rect fill="#00058a" fill-opacity="0.501961" x="719" y="470" width="5" height="298" />
<rect fill="#000065" fill-opacity="0.501961" x="700" y="473" width="5" height="295" />
<rect fill="#000032" fill-opacity="0.501961" x="416" y="552" width="5" height="216" />
<rect fill="#000028" fill-opacity="0.501961" x="421" y="540" width="5" height="225" />
<rect fill="#000021" fill-opacity="0.501961" x="427" y="540" width="5" height="220" />
<rect fill="#00003c" fill-opacity="0.501961" x="483" y="568" width="5" height="200" />
<rect fill="#00002f" fill-opacity="0.501961" x="499" y="585" width="5" height="183" />
<rect fill="#000068" fill-opacity="0.501961" x="624" y="480" width="5" height="288" />
<rect fill="#00007a" fill-opacity="0.501961" x="618" y="489" width="5" height="279" />
<rect fill="#000988" fill-opacity="0.501961" x="600" y="484" width="5" height="284" />
<rect fill="#000980" fill-opacity="0.501961" x="605" y="478" width="5" height="290" />
<rect fill="#00088e" fill-opacity="0.501961" x="594" y="493" width="5" height="275" />
<rect fill="#00078f" fill-opacity="0.501961" x="730" y="470" width="5" height="298" />
<rect fill="#00098e" fill-opacity="0.501961" x="751" y="462" width="5" height="306" />
<rect fill="#000b92" fill-opacity="0.501961" x="746" y="465" width="5" height="303" />
<rect fill="#000589" fill-opacity="0.501961" x="713" y="470" width="5" height="298" />
<rect fill="#00078f" fill-opacity="0.501961" x="724" y="472" width="5" height="296" />
<rect fill="#1b1300" fill-opacity="0.501961" x="465" y="400" width="5" height="368" />
<rect fill="#181300" fill-opacity="0.501961" x="478" y="394" width="5" height="374" />
<rect fill="#171000" fill-opacity="0.501961" x="494" y="403" width="5" height="349" />
<rect fill="#281700" fill-opacity="0.501961" x="505" y="396" width="5" height="356" />
<rect fill="#1f1700" fill-opacity="0.501961" x="473" y="388" width="5" height="380" />
<rect fill="#261c00" fill-opacity="0.501961" x="449" y="394" width="5" height="367" />
<rect fill="#302200" fill-opacity="0.501961" x="455" y="387" width="5" height="358" />
<rect fill="#372b00" fill-opacity="0.501961" x="442" y="374" width="5" height="370" />
<rect fill="#241d00" fill-opacity="0.501961" x="432" y="392" width="4" height="346" />
<rect fill="#342600" fill-opacity="0.501961" x="470" y="394" width="3" height="320" />
</g>
</svg>