<svg xmlns="http://www.w3.org/2000/svg" version="1.1" width="4096" height="3072">
<rect x="0" y="0" width="4096" height="3072" fill="#939d99" />
<g transform="scale(4.000000) translate(0.5 0.5)">
<rect fill="#000879" fill-opacity="0.501961" x="767" y="453" width="257" height="233" />
<rect fill="#000018" fill-opacity="0.501961" x="655" y="483" width="5" height="284" />
<rect fill="#000013" fill-opacity="0.501961" x="660" y="470" width="5" height="297" />
<rect fill="#000011" fill-opacity="0.501961" x="648" y="428" width="5" height="340" />
<rect fill="#000019" fill-opacity="0.501961" x="643" y="447" width="5" height="321" />
<rect fill="#000008" fill-opacity="0.501961" x="376" y="524" width="5" height="244" />
<rect fill="#000001" fill-opacity="0.501961" x="381" y="540" width="5" height="228" />
<rect fill="#000016" fill-opacity="0.501961" x="386" y="527" width="5" height="241" />
<rect fill="#00000b" fill-opacity="0.501961" x="371" y="522" width="5" height="246" />
<rect fill="#000021" fill-opacity="0.501961" x="391" y="523" width="5" height="245" />
<rect fill="#000000" fill-opacity="0.501961" x="89" y="567" width="5" height="201" />
<rect fill="#000000" fill-opacity="0.501961" x="81" y="559" width="5" height="178" />
<rect fill="#00000f" fill-opacity="0.501961" x="97" y="563" width="5" height="205" />
<rect fill="#000018" fill-opacity="0.501961" x="102" y="586" width="5" height="182" />
<rect fill="#000051" fill-opacity="0.501961" x="109" y="573" width="5" height="178" />
<rect fill="#000068" fill-opacity="0.501961" x="767" y="681" width="257" height="87" />
<rect fill="#055088" fill-opacity="0.501961" x="767" y="459" width="257" height="309" />
<rect fill="#00001b" fill-opacity="0.501961" x="667" y="474" width="5" height="292" />
<rect fill="#000026" fill-opacity="0.501961" x="672" y="480" width="5" height="288" />
<rect fill="#000030" fill-opacity="0.501961" x="677" y="476" width="5" height="292" />
<rect fill="#000032" fill-opacity="0.501961" x="638" y="484" width="5" height="284" />
<rect fill="#00004b" fill-opacity="0.501961" x="632" y="480" width="5" height="288" />
<rect fill="#00003a" fill-opacity="0.501961" x="683" y="471" width="5" height="297" />
<rect fill="#00005f" fill-opacity="0.501961" x="696" y="476" width="5" height="292" />
<rect fill="#00027f" fill-opacity="0.501961" x="760" y="458" width="5" height="310" />
<rect fill="#130f00" fill-opacity="0.501961" x="487" y="390" width="5" height="378" />
<rect fill="#151000" fill-opacity="0.501961" x="497" y="390" width="5" height="378" />
<rect fill="#161200" fill-opacity="0.501961" x="492" y="390" width="5" height="378" />
<rect fill="#1d1500" fill-opacity="0.501961" x="465" y="393" width="5" height="375" />
<rect fill="#1b1400" fill-opacity="0.501961" x="460" y="404" width="5" height="364" />
<rect fill="#00002c" fill-opacity="0.501961" x="396" y="521" width="5" height="247" />
<rect fill="#000033" fill-opacity="0.501961" x="404" y="522" width="5" height="246" />
<rect fill="#00001c" fill-opacity="0.501961" x="366" y="496" width="5" height="272" />
<rect fill="#00002b" fill-opacity="0.501961" x="361" y="510" width="5" height="250" />
<rect fill="#000031" fill-opacity="0.501961" x="356" y="520" width="5" height="248" />
<rect fill="#000018" fill-opacity="0.501961" x="229" y="546" width="5" height="222" />
<rect fill="#00001f" fill-opacity="0.501961" x="234" y="544" width="5" height="224" />
<rect fill="#000020" fill-opacity="0.501961" x="223" y="550" width="5" height="218" />
<rect fill="#00002e" fill-opacity="0.501961" x="239" y="546" width="5" height="222" />
<rect fill="#000032" fill-opacity="0.501961" x="218" y="546" width="5" height="222" />
</g>
</svg>