<svg xmlns="http://www.w3.org/2000/svg" version="1.1" width="4096" height="3072">
<rect x="0" y="0" width="4096" height="3072" fill="#939d99" />
<g transform="scale(4.000000) translate(0.5 0.5)">
<rect fill="#000275" fill-opacity="0.501961" x="767" y="580" width="257" height="188" />
<rect fill="#000000" fill-opacity="0.501961" x="663" y="568" width="5" height="200" />
<rect fill="#000005" fill-opacity="0.501961" x="657" y="549" width="5" height="219" />
<rect fill="#000012" fill-opacity="0.501961" x="668" y="532" width="5" height="236" />
<rect fill="#000019" fill-opacity="0.501961" x="651" y="502" width="5" height="257" />
<rect fill="#00219a" fill-opacity="0.501961" x="767" y="450" width="257" height="37" />
<rect fill="#eeebd4" fill-opacity="0.501961" x="767" y="0" width="257" height="460" />
<rect fill="#fef3c7" fill-opacity="0.501961" x="750" y="0" width="5" height="442" />
<rect fill="#fff2bc" fill-opacity="0.501961" x="743" y="0" width="5" height="460" />
<rect fill="#fff1b5" fill-opacity="0.501961" x="677" y="0" width="5" height="467" />
<rect fill="#000007" fill-opacity="0.501961" x="378" y="523" width="5" height="245" />
<rect fill="#000009" fill-opacity="0.501961" x="373" y="517" width="5" height="251" />
<rect fill="#000010" fill-opacity="0.501961" x="385" y="535" width="5" height="227" />
<rect fill="#000020" fill-opacity="0.501961" x="390" y="518" width="5" height="250" />
<rect fill="#000017" fill-opacity="0.501961" x="368" y="496" width="5" height="272" />
<rect fill="#000013" fill-opacity="0.501961" x="645" y="463" width="5" height="300" />
<rect fill="#00002c" fill-opacity="0.501961" x="674" y="490" width="5" height="270" />
<rect fill="#000038" fill-opacity="0.501961" x="637" y="484" width="5" height="284" />
<rect fill="#00005d" fill-opacity="0.501961" x="630" y="494" width="5" height="274" />
<rect fill="#000031" fill-opacity="0.501961" x="682" y="536" width="5" height="223" />
</g>
</svg>