<svg xmlns="http://www.w3.org/2000/svg" version="1.1" width="4096" height="3072">
<rect x="0" y="0" width="4096" height="3072" fill="#939d99" />
<g transform="scale(4.000000) translate(0.5 0.5)">
<g transform="translate(534.645512 676.862031) rotate(-9.039788) scale(1008.339930 180.026468)"><ellipse fill="#00015a" fill-opacity="0.501961" cx="0" cy="0" rx="1" ry="1" /></g>
<g transform="translate(652.883965 159.723283) rotate(266.403804) scale(253.588980 1023.000000)"><ellipse fill="#fffcd0" fill-opacity="0.501961" cx="0" cy="0" rx="1" ry="1" /></g>
<g transform="translate(460.402385 461.667173) rotate(-7.247452) scale(260.771521 95.804444)"><ellipse fill="#c79a0c" fill-opacity="0.501961" cx="0" cy="0" rx="1" ry="1" /></g>
<ellipse fill="#907d19" fill-opacity="0.501961" cx="495" cy="501" rx="105" ry="105" />
<g transform="translate(492.708075 701.845068) rotate(275.785612) scale(126.268613 621.732610)"><ellipse fill="#00417c" fill-opacity="0.501961" cx="0" cy="0" rx="1" ry="1" /></g>
<ellipse fill="#f4eab8" fill-opacity="0.501961" cx="96" cy="479" rx="215" ry="81" />
<ellipse fill="#3c2a1a" fill-opacity="0.501961" cx="465" cy="437" rx="51" ry="51" />
<g transform="translate(993.784120 485.343081) rotate(168.943420) scale(59.697489 51.325707)"><ellipse fill="#0064e2" fill-opacity="0.501961" cx="0" cy="0" rx="1" ry="1" /></g>
<polygon fill="#bba524" fill-opacity="0.501961" points="412,591 566,412 574,622" />
<g transform="translate(889.313434 419.867832) rotate(261.136137) scale(27.486198 222.412691)"><ellipse fill="#ede9c4" fill-opacity="0.501961" cx="0" cy="0" rx="1" ry="1" /></g>
<g transform="translate(855.450589 507.277207) rotate(99.388119) scale(54.485727 59.583173)"><ellipse fill="#036fde" fill-opacity="0.501961" cx="0" cy="0" rx="1" ry="1" /></g>
<g transform="translate(601.435327 542.683607) rotate(-9.089853) scale(26.084381 53.850099)"><ellipse fill="#0055e2" fill-opacity="0.501961" cx="0" cy="0" rx="1" ry="1" /></g>
<g transform="translate(295.888108 591.511052) rotate(51.031351) scale(32.799263 64.939804)"><ellipse fill="#2986f4" fill-opacity="0.501961" cx="0" cy="0" rx="1" ry="1" /></g>
<ellipse fill="#247fed" fill-opacity="0.501961" cx="743" cy="648" rx="59" ry="50" />
<ellipse fill="#f3e8c4" fill-opacity="0.501961" cx="114" cy="0" rx="258" ry="258" />
<ellipse fill="#0c74e2" fill-opacity="0.501961" cx="884" cy="627" rx="53" ry="53" />
</g>
</svg>