<svg xmlns="http://www.w3.org/2000/svg" version="1.1" width="4096" height="3072">
<rect x="0" y="0" width="4096" height="3072" fill="#939d99" />
<g transform="scale(4.000000) translate(0.5 0.5)">
<rect fill="#000019" fill-opacity="0.501961" x="656" y="485" width="5" height="283" />
<rect fill="#000018" fill-opacity="0.501961" x="661" y="477" width="5" height="291" />
<rect fill="#000007" fill-opacity="0.501961" x="379" y="524" width="5" height="244" />
<rect fill="#000008" fill-opacity="0.501961" x="374" y="521" width="5" height="247" />
<rect fill="#00000e" fill-opacity="0.501961" x="384" y="523" width="5" height="245" />
<rect fill="#00001e" fill-opacity="0.501961" x="651" y="483" width="5" height="285" />
<rect fill="#00003e" fill-opacity="0.501961" x="808" y="461" width="5" height="306" />
<rect fill="#000039" fill-opacity="0.501961" x="951" y="441" width="5" height="284" />
<rect fill="#00001f" fill-opacity="0.501961" x="644" y="483" width="5" height="283" />
<rect fill="#000052" fill-opacity="0.501961" x="945" y="443" width="5" height="325" />
<rect fill="#000020" fill-opacity="0.501961" x="666" y="498" width="5" height="268" />
<rect fill="#00003f" fill-opacity="0.501961" x="813" y="460" width="5" height="308" />
<rect fill="#000047" fill-opacity="0.501961" x="818" y="454" width="5" height="314" />
<rect fill="#000000" fill-opacity="0.501961" x="90" y="565" width="5" height="203" />
<rect fill="#00005b" fill-opacity="0.501961" x="956" y="441" width="5" height="327" />
<rect fill="#00001d" fill-opacity="0.501961" x="671" y="475" width="5" height="284" />
</g>
</svg>