<svg xmlns="http://www.w3.org/2000/svg" version="1.1" width="4096" height="3072">
<rect x="0" y="0" width="4096" height="3072" fill="#939d99" />
<g transform="scale(4.000000) translate(0.5 0.5)">
<rect fill="#000016" fill-opacity="0.501961" x="655" y="481" width="5" height="286" />
<rect fill="#000007" fill-opacity="0.501961" x="374" y="523" width="5" height="245" />
<rect fill="#00001e" fill-opacity="0.501961" x="662" y="485" width="5" height="283" />
<rect fill="#00000a" fill-opacity="0.501961" x="382" y="524" width="5" height="243" />
<rect fill="#00004e" fill-opacity="0.501961" x="951" y="443" width="5" height="325" />
<rect fill="#00003e" fill-opacity="0.501961" x="808" y="463" width="5" height="305" />
<rect fill="#000022" fill-opacity="0.501961" x="650" y="488" width="5" height="280" />
<rect fill="#000051" fill-opacity="0.501961" x="946" y="442" width="5" height="326" />
<rect fill="#000018" fill-opacity="0.501961" x="387" y="529" width="5" height="239" />
<rect fill="#00001e" fill-opacity="0.501961" x="668" y="477" width="5" height="291" />
<rect fill="#000000" fill-opacity="0.501961" x="88" y="565" width="5" height="203" />
<rect fill="#00005e" fill-opacity="0.501961" x="957" y="443" width="5" height="325" />
<rect fill="#000019" fill-opacity="0.501961" x="231" y="546" width="5" height="222" />
<rect fill="#000048" fill-opacity="0.501961" x="793" y="459" width="5" height="309" />
<rect fill="#00001e" fill-opacity="0.501961" x="645" y="481" width="5" height="287" />
<rect fill="#00002d" fill-opacity="0.501961" x="638" y="488" width="5" height="263" />
</g>
</svg>