<svg xmlns="http://www.w3.org/2000/svg" version="1.1" width="4096" height="3072">
<rect x="0" y="0" width="4096" height="3072" fill="#939d99" />
<g transform="scale(4.000000) translate(0.5 0.5)">
<rect fill="#000019" fill-opacity="0.501961" x="654" y="484" width="5" height="284" />
<rect fill="#000017" fill-opacity="0.501961" x="659" y="479" width="5" height="289" />
<rect fill="#00001d" fill-opacity="0.501961" x="647" y="480" width="5" height="288" />
<rect fill="#000006" fill-opacity="0.501961" x="380" y="523" width="5" height="245" />
<rect fill="#00000a" fill-opacity="0.501961" x="371" y="524" width="5" height="244" />
<rect fill="#000000" fill-opacity="0.501961" x="87" y="568" width="5" height="200" />
<rect fill="#00003e" fill-opacity="0.501961" x="808" y="461" width="5" height="306" />
<rect fill="#000014" fill-opacity="0.501961" x="385" y="513" width="5" height="255" />
<rect fill="#00003f" fill-opacity="0.501961" x="813" y="458" width="5" height="310" />
<rect fill="#000013" fill-opacity="0.501961" x="664" y="520" width="5" height="243" />
<rect fill="#000023" fill-opacity="0.501961" x="671" y="477" width="5" height="291" />
<rect fill="#00004e" fill-opacity="0.501961" x="951" y="449" width="5" height="319" />
<rect fill="#00001f" fill-opacity="0.501961" x="390" y="523" width="5" height="245" />
<rect fill="#000054" fill-opacity="0.501961" x="944" y="444" width="5" height="324" />
<rect fill="#00005b" fill-opacity="0.501961" x="956" y="442" width="5" height="326" />
<rect fill="#00002b" fill-opacity="0.501961" x="395" y="516" width="5" height="252" />
</g>
</svg>