<svg xmlns="http://www.w3.org/2000/svg" version="1.1" width="4096" height="3072">
<rect x="0" y="0" width="4096" height="3072" fill="#939d99" />
<g transform="scale(4.000000) translate(0.5 0.5)">
<rect fill="#000018" fill-opacity="0.501961" x="655" y="483" width="5" height="285" />
<rect fill="#00001b" fill-opacity="0.501961" x="660" y="498" width="5" height="270" />
<rect fill="#000020" fill-opacity="0.501961" x="645" y="484" width="5" height="284" />
<rect fill="#000008" fill-opacity="0.501961" x="376" y="523" width="5" height="245" />
<rect fill="#000008" fill-opacity="0.501961" x="381" y="525" width="5" height="243" />
<rect fill="#00003e" fill-opacity="0.501961" x="811" y="460" width="5" height="308" />
<rect fill="#00000c" fill-opacity="0.501961" x="371" y="520" width="5" height="248" />
<rect fill="#00000e" fill-opacity="0.501961" x="665" y="536" width="5" height="232" />
<rect fill="#00001b" fill-opacity="0.501961" x="388" y="523" width="5" height="245" />
<rect fill="#00004e" fill-opacity="0.501961" x="951" y="443" width="5" height="325" />
<rect fill="#00002c" fill-opacity="0.501961" x="675" y="478" width="5" height="290" />
<rect fill="#000000" fill-opacity="0.501961" x="90" y="563" width="5" height="205" />
<rect fill="#00004d" fill-opacity="0.501961" x="946" y="442" width="5" height="317" />
<rect fill="#000057" fill-opacity="0.501961" x="937" y="446" width="5" height="322" />
<rect fill="#000026" fill-opacity="0.501961" x="394" y="526" width="5" height="242" />
<rect fill="#000034" fill-opacity="0.501961" x="399" y="522" width="5" height="246" />
</g>
</svg>