<svg xmlns="http://www.w3.org/2000/svg" version="1.1" width="4096" height="3072">
<rect x="0" y="0" width="4096" height="3072" fill="#939d99" />
<g transform="scale(4.000000) translate(0.5 0.5)">
<rect fill="#00000f" fill-opacity="0.501961" x="657" y="483" width="5" height="268" />
<rect fill="#00001c" fill-opacity="0.501961" x="662" y="482" width="5" height="286" />
<rect fill="#000007" fill-opacity="0.501961" x="379" y="522" width="5" height="246" />
<rect fill="#00001f" fill-opacity="0.501961" x="645" y="483" width="5" height="285" />
<rect fill="#000007" fill-opacity="0.501961" x="374" y="525" width="5" height="243" />
<rect fill="#000040" fill-opacity="0.501961" x="807" y="457" width="5" height="311" />
<rect fill="#000011" fill-opacity="0.501961" x="385" y="533" width="5" height="232" />
<rect fill="#00000e" fill-opacity="0.501961" x="652" y="484" width="5" height="253" />
<rect fill="#000047" fill-opacity="0.501961" x="951" y="443" width="5" height="311" />
<rect fill="#000040" fill-opacity="0.501961" x="814" y="457" width="5" height="311" />
<rect fill="#000010" fill-opacity="0.501961" x="369" y="530" width="5" height="238" />
<rect fill="#00001c" fill-opacity="0.501961" x="667" y="512" width="5" height="256" />
<rect fill="#00004a" fill-opacity="0.501961" x="789" y="462" width="5" height="305" />
<rect fill="#000031" fill-opacity="0.501961" x="640" y="498" width="5" height="270" />
<rect fill="#000047" fill-opacity="0.501961" x="794" y="468" width="5" height="293" />
<rect fill="#000020" fill-opacity="0.501961" x="390" y="527" width="5" height="241" />
</g>
</svg>