<svg xmlns="http://www.w3.org/2000/svg" version="1.1" width="4096" height="3072">
<rect x="0" y="0" width="4096" height="3072" fill="#939d99" />
<g transform="scale(4.000000) translate(0.5 0.5)">
<rect fill="#000018" fill-opacity="0.501961" x="655" y="483" width="5" height="285" />
<rect fill="#000016" fill-opacity="0.501961" x="660" y="482" width="5" height="279" />
<rect fill="#000020" fill-opacity="0.501961" x="650" y="484" width="5" height="284" />
<rect fill="#000006" fill-opacity="0.501961" x="380" y="523" width="5" height="245" />
<rect fill="#00004e" fill-opacity="0.501961" x="951" y="440" width="5" height="328" />
<rect fill="#000023" fill-opacity="0.501961" x="645" y="490" width="5" height="278" />
<rect fill="#00003d" fill-opacity="0.501961" x="811" y="459" width="5" height="309" />
<rect fill="#000009" fill-opacity="0.501961" x="374" y="523" width="5" height="239" />
<rect fill="#000047" fill-opacity="0.501961" x="793" y="460" width="5" height="308" />
<rect fill="#000053" fill-opacity="0.501961" x="945" y="446" width="5" height="322" />
<rect fill="#000042" fill-opacity="0.501961" x="806" y="460" width="5" height="306" />
<rect fill="#000011" fill-opacity="0.501961" x="369" y="518" width="5" height="250" />
<rect fill="#000012" fill-opacity="0.501961" x="385" y="521" width="5" height="247" />
<rect fill="#000000" fill-opacity="0.501961" x="88" y="565" width="5" height="203" />
<rect fill="#000052" fill-opacity="0.501961" x="935" y="444" width="5" height="312" />
<rect fill="#00001b" fill-opacity="0.501961" x="666" y="483" width="5" height="275" />
</g>
</svg>