<svg xmlns="http://www.w3.org/2000/svg" version="1.1" width="4096" height="3072">
<rect x="0" y="0" width="4096" height="3072" fill="#939d99" />
<g transform="scale(4.000000) translate(0.5 0.5)">
<rect fill="#000018" fill-opacity="0.501961" x="656" y="483" width="5" height="285" />
<rect fill="#000007" fill-opacity="0.501961" x="379" y="523" width="5" height="245" />
<rect fill="#000008" fill-opacity="0.501961" x="374" y="521" width="5" height="247" />
<rect fill="#00003e" fill-opacity="0.501961" x="809" y="456" width="5" height="312" />
<rect fill="#00001e" fill-opacity="0.501961" x="661" y="489" width="5" height="279" />
<rect fill="#00000f" fill-opacity="0.501961" x="369" y="527" width="5" height="241" />
<rect fill="#00004d" fill-opacity="0.501961" x="949" y="443" width="5" height="325" />
<rect fill="#000010" fill-opacity="0.501961" x="384" y="524" width="5" height="239" />
<rect fill="#00001f" fill-opacity="0.501961" x="645" y="483" width="5" height="284" />
<rect fill="#000000" fill-opacity="0.501961" x="88" y="564" width="5" height="204" />
<rect fill="#00001e" fill-opacity="0.501961" x="389" y="524" width="5" height="244" />
<rect fill="#000041" fill-opacity="0.501961" x="814" y="456" width="5" height="312" />
<rect fill="#000020" fill-opacity="0.501961" x="651" y="487" width="5" height="281" />
<rect fill="#000056" fill-opacity="0.501961" x="939" y="444" width="5" height="324" />
<rect fill="#000014" fill-opacity="0.501961" x="669" y="476" width="5" height="252" />
<rect fill="#1c1500" fill-opacity="0.501961" x="463" y="395" width="5" height="373" />
</g>
</svg>