<svg xmlns="http://www.w3.org/2000/svg" version="1.1" width="4096" height="3072">
<rect x="0" y="0" width="4096" height="3072" fill="#939d99" />
<g transform="scale(4.000000) translate(0.5 0.5)">
<rect fill="#000016" fill-opacity="0.501961" x="656" y="480" width="5" height="288" />
<rect fill="#00001b" fill-opacity="0.501961" x="661" y="482" width="5" height="286" />
<rect fill="#000007" fill-opacity="0.501961" x="380" y="521" width="5" height="247" />
<rect fill="#000007" fill-opacity="0.501961" x="374" y="527" width="5" height="241" />
<rect fill="#00001c" fill-opacity="0.501961" x="646" y="479" width="5" height="289" />
<rect fill="#00001e" fill-opacity="0.501961" x="667" y="482" width="5" height="281" />
<rect fill="#000014" fill-opacity="0.501961" x="385" y="513" width="5" height="255" />
<rect fill="#000015" fill-opacity="0.501961" x="368" y="511" width="5" height="257" />
<rect fill="#000025" fill-opacity="0.501961" x="674" y="518" width="5" height="250" />
<rect fill="#00004e" fill-opacity="0.501961" x="950" y="438" width="5" height="330" />
<rect fill="#000000" fill-opacity="0.501961" x="88" y="566" width="5" height="202" />
<rect fill="#00003d" fill-opacity="0.501961" x="809" y="458" width="5" height="310" />
<rect fill="#000020" fill-opacity="0.501961" x="391" y="520" width="5" height="248" />
<rect fill="#000023" fill-opacity="0.501961" x="814" y="521" width="5" height="247" />
<rect fill="#00002d" fill-opacity="0.501961" x="396" y="522" width="5" height="246" />
<rect fill="#000052" fill-opacity="0.501961" x="945" y="441" width="5" height="327" />
</g>
</svg>