<svg xmlns="http://www.w3.org/2000/svg" version="1.1" width="4096" height="3072">
<rect x="0" y="0" width="4096" height="3072" fill="#939d99" />
<g transform="scale(4.000000) translate(0.5 0.5)">
<rect fill="#000045" fill-opacity="0.501961" x="0" y="679" width="1024" height="5" />
<rect fill="#000060" fill-opacity="0.501961" x="0" y="751" width="1024" height="5" />
<rect fill="#00004a" fill-opacity="0.501961" x="0" y="684" width="1002" height="5" />
<rect fill="#000061" fill-opacity="0.501961" x="0" y="746" width="1024" height="5" />
<rect fill="#000048" fill-opacity="0.501961" x="14" y="673" width="1010" height="5" />
<rect fill="#00004e" fill-opacity="0.501961" x="0" y="689" width="1007" height="5" />
<rect fill="#000063" fill-opacity="0.501961" x="0" y="757" width="1024" height="5" />
<rect fill="#00005f" fill-opacity="0.501961" x="0" y="733" width="1024" height="5" />
<rect fill="#000039" fill-opacity="0.501961" x="0" y="644" width="603" height="5" />
<rect fill="#00004c" fill-opacity="0.501961" x="291" y="709" width="733" height="5" />
<rect fill="#000026" fill-opacity="0.501961" x="242" y="738" width="493" height="5" />
<rect fill="#000057" fill-opacity="0.501961" x="112" y="668" width="912" height="5" />
<rect fill="#000059" fill-opacity="0.501961" x="0" y="696" width="1024" height="5" />
<rect fill="#00005e" fill-opacity="0.501961" x="88" y="662" width="936" height="5" />
<rect fill="#000061" fill-opacity="0.501961" x="0" y="720" width="1024" height="5" />
<rect fill="#00003d" fill-opacity="0.501961" x="41" y="638" width="660" height="5" />
<rect fill="#000055" fill-opacity="0.501961" x="951" y="439" width="5" height="329" />
<rect fill="#000014" fill-opacity="0.501961" x="656" y="486" width="5" height="239" />
<rect fill="#000029" fill-opacity="0.501961" x="645" y="483" width="5" height="285" />
<rect fill="#00001a" fill-opacity="0.501961" x="661" y="485" width="5" height="261" />
<rect fill="#00004d" fill-opacity="0.501961" x="792" y="458" width="5" height="302" />
<rect fill="#000045" fill-opacity="0.501961" x="808" y="458" width="5" height="310" />
<rect fill="#00005a" fill-opacity="0.501961" x="945" y="445" width="5" height="323" />
<rect fill="#00004c" fill-opacity="0.501961" x="939" y="444" width="5" height="290" />
<rect fill="#000041" fill-opacity="0.501961" x="783" y="468" width="5" height="251" />
<rect fill="#000047" fill-opacity="0.501961" x="813" y="462" width="5" height="306" />
<rect fill="#000054" fill-opacity="0.501961" x="934" y="446" width="5" height="298" />
<rect fill="#000058" fill-opacity="0.501961" x="956" y="438" width="5" height="302" />
<rect fill="#000012" fill-opacity="0.501961" x="380" y="522" width="5" height="246" />
<rect fill="#00004f" fill-opacity="0.501961" x="928" y="447" width="5" height="285" />
<rect fill="#00001f" fill-opacity="0.501961" x="651" y="492" width="5" height="255" />
<rect fill="#000013" fill-opacity="0.501961" x="374" y="522" width="5" height="246" />
</g>
</svg>