<svg xmlns="http://www.w3.org/2000/svg" version="1.1" width="4096" height="3072">
<rect x="0" y="0" width="4096" height="3072" fill="#939d99" />
<g transform="scale(4.000000) translate(0.5 0.5)">
<rect fill="#000045" fill-opacity="0.501961" x="0" y="679" width="1024" height="5" />
<rect fill="#000060" fill-opacity="0.501961" x="0" y="751" width="1024" height="5" />
<rect fill="#000061" fill-opacity="0.501961" x="0" y="746" width="1024" height="5" />
<rect fill="#000048" fill-opacity="0.501961" x="0" y="674" width="1024" height="5" />
<rect fill="#000058" fill-opacity="0.501961" x="67" y="711" width="957" height="5" />
<rect fill="#00005f" fill-opacity="0.501961" x="0" y="733" width="1024" height="5" />
<rect fill="#00004d" fill-opacity="0.501961" x="0" y="684" width="958" height="5" />
<rect fill="#00004e" fill-opacity="0.501961" x="0" y="642" width="755" height="5" />
<rect fill="#000028" fill-opacity="0.501961" x="32" y="650" width="388" height="5" />
<rect fill="#00002d" fill-opacity="0.501961" x="389" y="721" width="520" height="5" />
<rect fill="#00005d" fill-opacity="0.501961" x="360" y="620" width="664" height="5" />
<rect fill="#00002d" fill-opacity="0.501961" x="270" y="637" width="440" height="5" />
<rect fill="#000042" fill-opacity="0.501961" x="0" y="655" width="510" height="5" />
<rect fill="#00004a" fill-opacity="0.501961" x="308" y="704" width="641" height="5" />
<rect fill="#000037" fill-opacity="0.501961" x="602" y="570" width="422" height="5" />
<rect fill="#000048" fill-opacity="0.501961" x="186" y="728" width="702" height="5" />
<rect fill="#000010" fill-opacity="0.501961" x="658" y="478" width="5" height="262" />
<rect fill="#000044" fill-opacity="0.501961" x="809" y="460" width="5" height="308" />
<rect fill="#00003d" fill-opacity="0.501961" x="790" y="462" width="5" height="256" />
<rect fill="#000054" fill-opacity="0.501961" x="952" y="440" width="5" height="328" />
<rect fill="#000040" fill-opacity="0.501961" x="947" y="443" width="5" height="285" />
<rect fill="#000019" fill-opacity="0.501961" x="653" y="484" width="5" height="265" />
<rect fill="#000061" fill-opacity="0.501961" x="957" y="439" width="5" height="325" />
<rect fill="#000069" fill-opacity="0.501961" x="962" y="438" width="5" height="330" />
<rect fill="#00005c" fill-opacity="0.501961" x="937" y="443" width="5" height="325" />
<rect fill="#00035e" fill-opacity="0.501961" x="930" y="447" width="5" height="317" />
<rect fill="#000026" fill-opacity="0.501961" x="646" y="480" width="5" height="288" />
<rect fill="#000047" fill-opacity="0.501961" x="814" y="458" width="5" height="310" />
<rect fill="#000028" fill-opacity="0.501961" x="665" y="482" width="5" height="285" />
<rect fill="#000012" fill-opacity="0.501961" x="379" y="523" width="5" height="245" />
<rect fill="#00002e" fill-opacity="0.501961" x="671" y="480" width="5" height="288" />
<rect fill="#000000" fill-opacity="0.501961" x="88" y="560" width="5" height="208" />
</g>
</svg>