<svg xmlns="http://www.w3.org/2000/svg" version="1.1" width="4096" height="3072">
<rect x="0" y="0" width="4096" height="3072" fill="#939d99" />
<g transform="scale(4.000000) translate(0.5 0.5)">
<rect fill="#000044" fill-opacity="0.501961" x="0" y="679" width="1018" height="5" />
<rect fill="#000049" fill-opacity="0.501961" x="0" y="673" width="1024" height="5" />
<rect fill="#000061" fill-opacity="0.501961" x="0" y="749" width="1024" height="5" />
<rect fill="#00004c" fill-opacity="0.501961" x="0" y="684" width="1024" height="5" />
<rect fill="#000062" fill-opacity="0.501961" x="0" y="754" width="1024" height="5" />
<rect fill="#000050" fill-opacity="0.501961" x="0" y="689" width="1024" height="5" />
<rect fill="#000053" fill-opacity="0.501961" x="0" y="668" width="1024" height="5" />
<rect fill="#00005a" fill-opacity="0.501961" x="128" y="734" width="896" height="5" />
<rect fill="#00003c" fill-opacity="0.501961" x="8" y="643" width="618" height="5" />
<rect fill="#00004f" fill-opacity="0.501961" x="202" y="709" width="811" height="5" />
<rect fill="#00005e" fill-opacity="0.501961" x="6" y="663" width="1018" height="5" />
<rect fill="#000047" fill-opacity="0.501961" x="253" y="741" width="665" height="5" />
<rect fill="#000053" fill-opacity="0.501961" x="0" y="694" width="996" height="5" />
<rect fill="#00005a" fill-opacity="0.501961" x="66" y="728" width="958" height="5" />
<rect fill="#000062" fill-opacity="0.501961" x="121" y="763" width="903" height="5" />
<rect fill="#000039" fill-opacity="0.501961" x="281" y="637" width="464" height="5" />
<rect fill="#000057" fill-opacity="0.501961" x="60" y="719" width="869" height="5" />
<rect fill="#000065" fill-opacity="0.501961" x="258" y="649" width="766" height="5" />
<rect fill="#00003a" fill-opacity="0.501961" x="0" y="654" width="551" height="5" />
<rect fill="#000051" fill-opacity="0.501961" x="307" y="616" width="614" height="5" />
<rect fill="#00005e" fill-opacity="0.501961" x="210" y="632" width="690" height="5" />
<rect fill="#00003e" fill-opacity="0.501961" x="572" y="570" width="452" height="5" />
<rect fill="#00004d" fill-opacity="0.501961" x="361" y="621" width="523" height="5" />
<rect fill="#00005e" fill-opacity="0.501961" x="0" y="627" width="469" height="5" />
<rect fill="#000027" fill-opacity="0.501961" x="564" y="575" width="381" height="5" />
<rect fill="#000037" fill-opacity="0.501961" x="563" y="564" width="425" height="5" />
<rect fill="#000058" fill-opacity="0.501961" x="0" y="610" width="587" height="5" />
<rect fill="#000042" fill-opacity="0.501961" x="339" y="605" width="636" height="5" />
<rect fill="#000026" fill-opacity="0.501961" x="365" y="600" width="480" height="5" />
<rect fill="#000041" fill-opacity="0.501961" x="523" y="699" width="496" height="5" />
<rect fill="#00002e" fill-opacity="0.501961" x="570" y="580" width="343" height="5" />
<rect fill="#00003a" fill-opacity="0.501961" x="566" y="593" width="387" height="5" />
<rect fill="#000053" fill-opacity="0.501961" x="578" y="559" width="446" height="5" />
<rect fill="#00005f" fill-opacity="0.501961" x="579" y="540" width="442" height="5" />
<rect fill="#000058" fill-opacity="0.501961" x="572" y="552" width="452" height="5" />
<rect fill="#00007e" fill-opacity="0.501961" x="0" y="579" width="426" height="5" />
<rect fill="#00005d" fill-opacity="0.501961" x="573" y="545" width="449" height="5" />
<rect fill="#00006f" fill-opacity="0.501961" x="611" y="533" width="413" height="5" />
<rect fill="#00004c" fill-opacity="0.501961" x="0" y="659" width="497" height="5" />
<rect fill="#000781" fill-opacity="0.501961" x="575" y="494" width="449" height="5" />
<rect fill="#00048e" fill-opacity="0.501961" x="0" y="622" width="336" height="5" />
<rect fill="#000389" fill-opacity="0.501961" x="580" y="528" width="438" height="5" />
<rect fill="#00088c" fill-opacity="0.501961" x="572" y="519" width="452" height="5" />
<rect fill="#000484" fill-opacity="0.501961" x="0" y="589" width="432" height="5" />
<rect fill="#000b8f" fill-opacity="0.501961" x="572" y="500" width="452" height="5" />
<rect fill="#000d8e" fill-opacity="0.501961" x="566" y="505" width="458" height="5" />
<rect fill="#00001b" fill-opacity="0.501961" x="567" y="587" width="289" height="5" />
<rect fill="#000007" fill-opacity="0.501961" x="500" y="714" width="228" height="5" />
<rect fill="#00002c" fill-opacity="0.501961" x="496" y="704" width="263" height="5" />
<rect fill="#000286" fill-opacity="0.501961" x="0" y="584" width="410" height="5" />
<rect fill="#00046a" fill-opacity="0.501961" x="616" y="488" width="352" height="5" />
<rect fill="#000077" fill-opacity="0.501961" x="51" y="595" width="372" height="5" />
<rect fill="#00027e" fill-opacity="0.501961" x="2" y="601" width="367" height="5" />
<rect fill="#000387" fill-opacity="0.501961" x="78" y="574" width="342" height="5" />
<rect fill="#00007e" fill-opacity="0.501961" x="78" y="567" width="342" height="5" />
<rect fill="#00001f" fill-opacity="0.501961" x="349" y="724" width="289" height="5" />
<rect fill="#000080" fill-opacity="0.501961" x="87" y="714" width="334" height="5" />
<rect fill="#000026" fill-opacity="0.501961" x="300" y="758" width="319" height="5" />
<rect fill="#000369" fill-opacity="0.501961" x="129" y="560" width="303" height="5" />
<rect fill="#000759" fill-opacity="0.501961" x="642" y="482" width="294" height="5" />
<rect fill="#00007c" fill-opacity="0.501961" x="199" y="699" width="312" height="5" />
<rect fill="#000b96" fill-opacity="0.501961" x="784" y="461" width="240" height="5" />
<rect fill="#000284" fill-opacity="0.501961" x="0" y="704" width="258" height="5" />
<rect fill="#000000" fill-opacity="0.501961" x="384" y="745" width="226" height="5" />
<rect fill="#000076" fill-opacity="0.501961" x="10" y="637" width="264" height="5" />
<rect fill="#000595" fill-opacity="0.501961" x="13" y="740" width="228" height="5" />
<rect fill="#000037" fill-opacity="0.501961" x="467" y="627" width="213" height="5" />
<rect fill="#001291" fill-opacity="0.501961" x="614" y="658" width="373" height="5" />
<rect fill="#000072" fill-opacity="0.501961" x="746" y="714" width="278" height="5" />
<rect fill="#000040" fill-opacity="0.501961" x="39" y="649" width="250" height="5" />
<rect fill="#000d8b" fill-opacity="0.501961" x="691" y="476" width="333" height="5" />
<rect fill="#000b98" fill-opacity="0.501961" x="659" y="513" width="222" height="5" />
<rect fill="#bf7900" fill-opacity="0.501961" x="305" y="427" width="424" height="5" />
<rect fill="#ffffed" fill-opacity="0.501961" x="0" y="0" width="640" height="5" />
<rect fill="#484d00" fill-opacity="0.501961" x="205" y="545" width="369" height="5" />
<rect fill="#000985" fill-opacity="0.501961" x="792" y="610" width="204" height="5" />
<rect fill="#001da5" fill-opacity="0.501961" x="717" y="626" width="300" height="5" />
<rect fill="#001ba1" fill-opacity="0.501961" x="662" y="644" width="362" height="5" />
<rect fill="#501000" fill-opacity="0.501961" x="411" y="449" width="152" height="5" />
<rect fill="#000077" fill-opacity="0.501961" x="0" y="616" width="268" height="5" />
<rect fill="#000475" fill-opacity="0.501961" x="72" y="759" width="231" height="5" />
<rect fill="#0026ac" fill-opacity="0.501961" x="714" y="638" width="294" height="5" />
<rect fill="#ffffed" fill-opacity="0.501961" x="0" y="5" width="578" height="5" />
<rect fill="#000d82" fill-opacity="0.501961" x="724" y="468" width="273" height="5" />
<rect fill="#00007a" fill-opacity="0.501961" x="296" y="704" width="220" height="5" />
<rect fill="#000007" fill-opacity="0.501961" x="751" y="704" width="127" height="5" />
<rect fill="#000000" fill-opacity="0.501961" x="392" y="736" width="250" height="5" />
<rect fill="#000000" fill-opacity="0.501961" x="559" y="611" width="118" height="5" />
<rect fill="#000077" fill-opacity="0.501961" x="0" y="699" width="207" height="5" />
<rect fill="#7f3400" fill-opacity="0.501961" x="403" y="444" width="214" height="5" />
<rect fill="#ffffe9" fill-opacity="0.501961" x="31" y="10" width="560" height="5" />
<rect fill="#0031b1" fill-opacity="0.501961" x="526" y="653" width="280" height="5" />
<rect fill="#ffffe5" fill-opacity="0.501961" x="0" y="15" width="476" height="5" />
<rect fill="#ffffdc" fill-opacity="0.501961" x="0" y="21" width="494" height="5" />
<rect fill="#da8900" fill-opacity="0.501961" x="385" y="473" width="322" height="5" />
<rect fill="#e09400" fill-opacity="0.501961" x="294" y="501" width="276" height="5" />
<rect fill="#5c5400" fill-opacity="0.501961" x="293" y="538" width="288" height="5" />
<rect fill="#ffffd5" fill-opacity="0.501961" x="6" y="26" width="426" height="5" />
<rect fill="#00003b" fill-opacity="0.501961" x="637" y="723" width="221" height="5" />
<rect fill="#7c5f00" fill-opacity="0.501961" x="356" y="524" width="226" height="5" />
<rect fill="#000a82" fill-opacity="0.501961" x="834" y="453" width="190" height="5" />
<rect fill="#6a2100" fill-opacity="0.501961" x="420" y="455" width="155" height="5" />
<rect fill="#00229d" fill-opacity="0.501961" x="766" y="510" width="258" height="5" />
<rect fill="#ffffd4" fill-opacity="0.501961" x="82" y="134" width="518" height="5" />
<rect fill="#001494" fill-opacity="0.501961" x="0" y="723" width="278" height="5" />
<rect fill="#0017a0" fill-opacity="0.501961" x="7" y="745" width="215" height="5" />
<rect fill="#ffffd3" fill-opacity="0.501961" x="0" y="34" width="464" height="5" />
<rect fill="#420d00" fill-opacity="0.501961" x="404" y="438" width="131" height="5" />
<rect fill="#ffffca" fill-opacity="0.501961" x="593" y="23" width="403" height="5" />
<rect fill="#000a62" fill-opacity="0.501961" x="748" y="585" width="238" height="5" />
<rect fill="#000077" fill-opacity="0.501961" x="636" y="759" width="204" height="4" />
<rect fill="#350c00" fill-opacity="0.501961" x="415" y="432" width="117" height="5" />
<rect fill="#ffffca" fill-opacity="0.501961" x="0" y="39" width="369" height="5" />
<rect fill="#b07f00" fill-opacity="0.501961" x="399" y="518" width="176" height="5" />
<rect fill="#e58600" fill-opacity="0.501961" x="313" y="491" width="221" height="5" />
<rect fill="#ffffcd" fill-opacity="0.501961" x="0" y="48" width="314" height="5" />
<rect fill="#001283" fill-opacity="0.501961" x="570" y="746" width="275" height="5" />
<rect fill="#ffffda" fill-opacity="0.501961" x="0" y="60" width="224" height="5" />
<rect fill="#ffffd7" fill-opacity="0.501961" x="14" y="55" width="172" height="5" />
<rect fill="#00169c" fill-opacity="0.501961" x="11" y="710" width="185" height="5" />
<rect fill="#c17c00" fill-opacity="0.501961" x="232" y="422" width="256" height="5" />
<rect fill="#da8700" fill-opacity="0.501961" x="427" y="468" width="281" height="5" />
<rect fill="#5e4e00" fill-opacity="0.501961" x="425" y="512" width="234" height="5" />
<rect fill="#fffff0" fill-opacity="0.501961" x="3" y="202" width="326" height="5" />
<rect fill="#00199a" fill-opacity="0.501961" x="91" y="606" width="253" height="5" />
<rect fill="#000f8a" fill-opacity="0.501961" x="812" y="654" width="212" height="4" />
<rect fill="#000e61" fill-opacity="0.501961" x="197" y="555" width="229" height="5" />
<rect fill="#00007e" fill-opacity="0.501961" x="3" y="632" width="128" height="5" />
<rect fill="#ffffc6" fill-opacity="0.501961" x="321" y="127" width="259" height="5" />
<rect fill="#000079" fill-opacity="0.501961" x="0" y="763" width="131" height="5" />
<rect fill="#ffffd4" fill-opacity="0.501961" x="0" y="66" width="255" height="5" />
<rect fill="#000b96" fill-opacity="0.501961" x="877" y="704" width="147" height="5" />
<rect fill="#001a98" fill-opacity="0.501961" x="805" y="599" width="191" height="5" />
<rect fill="#001193" fill-opacity="0.501961" x="0" y="733" width="158" height="5" />
<rect fill="#ffffe1" fill-opacity="0.501961" x="0" y="164" width="357" height="5" />
<rect fill="#00097d" fill-opacity="0.501961" x="577" y="524" width="252" height="5" />
<rect fill="#4e0900" fill-opacity="0.501961" x="421" y="460" width="106" height="5" />
<rect fill="#0020a9" fill-opacity="0.501961" x="867" y="744" width="157" height="5" />
<rect fill="#ac7f00" fill-opacity="0.501961" x="404" y="530" width="158" height="5" />
<rect fill="#d28300" fill-opacity="0.501961" x="379" y="496" width="192" height="5" />
<rect fill="#ffffce" fill-opacity="0.501961" x="0" y="71" width="245" height="5" />
<rect fill="#ffae00" fill-opacity="0.501961" x="233" y="432" width="182" height="5" />
<rect fill="#000b33" fill-opacity="0.501961" x="564" y="597" width="241" height="5" />
<rect fill="#ffffca" fill-opacity="0.501961" x="719" y="29" width="180" height="5" />
<rect fill="#002b94" fill-opacity="0.501961" x="637" y="738" width="275" height="5" />
<rect fill="#ffffbe" fill-opacity="0.501961" x="178" y="44" width="657" height="5" />
<rect fill="#0025ab" fill-opacity="0.501961" x="866" y="621" width="158" height="5" />
<rect fill="#00007d" fill-opacity="0.501961" x="915" y="447" width="109" height="5" />
<rect fill="#ba8200" fill-opacity="0.501961" x="540" y="479" width="159" height="5" />
<rect fill="#ffffb9" fill-opacity="0.501961" x="508" y="50" width="362" height="5" />
<rect fill="#fffff1" fill-opacity="0.501961" x="0" y="224" width="299" height="5" />
<rect fill="#ffffbf" fill-opacity="0.501961" x="552" y="55" width="249" height="5" />
<rect fill="#00206b" fill-opacity="0.501961" x="618" y="537" width="406" height="5" />
<rect fill="#000600" fill-opacity="0.501961" x="345" y="623" width="213" height="5" />
<rect fill="#fffff2" fill-opacity="0.501961" x="0" y="207" width="233" height="5" />
<rect fill="#0033b1" fill-opacity="0.501961" x="851" y="589" width="173" height="5" />
<rect fill="#ffbb00" fill-opacity="0.501961" x="256" y="417" width="159" height="5" />
<rect fill="#ffffd4" fill-opacity="0.501961" x="0" y="78" width="306" height="5" />
<rect fill="#b77200" fill-opacity="0.501961" x="447" y="484" width="221" height="5" />
<rect fill="#ffffca" fill-opacity="0.501961" x="635" y="111" width="350" height="5" />
<rect fill="#ffffe5" fill-opacity="0.501961" x="0" y="94" width="334" height="5" />
<rect fill="#001c83" fill-opacity="0.501961" x="185" y="744" width="221" height="5" />
<rect fill="#ffffcc" fill-opacity="0.501961" x="494" y="141" width="349" height="5" />
<rect fill="#000017" fill-opacity="0.501961" x="308" y="646" width="237" height="5" />
<rect fill="#00309b" fill-opacity="0.501961" x="742" y="523" width="282" height="5" />
<rect fill="#ffff71" fill-opacity="0.501961" x="149" y="398" width="271" height="5" />
<rect fill="#002d86" fill-opacity="0.501961" x="110" y="563" width="310" height="5" />
<rect fill="#002796" fill-opacity="0.501961" x="720" y="472" width="304" height="5" />
<rect fill="#00149d" fill-opacity="0.501961" x="888" y="723" width="136" height="5" />
<rect fill="#ffffd1" fill-opacity="0.501961" x="351" y="61" width="253" height="5" />
<rect fill="#ffffff" fill-opacity="0.501961" x="0" y="229" width="198" height="5" />
<rect fill="#000000" fill-opacity="0.501961" x="453" y="731" width="197" height="5" />
<rect fill="#ffffc4" fill-opacity="0.501961" x="191" y="153" width="272" height="5" />
<rect fill="#001852" fill-opacity="0.501961" x="305" y="550" width="133" height="5" />
<rect fill="#a18500" fill-opacity="0.501961" x="416" y="555" width="151" height="5" />
<rect fill="#ffd100" fill-opacity="0.501961" x="585" y="463" width="121" height="5" />
<rect fill="#002dad" fill-opacity="0.501961" x="869" y="515" width="155" height="5" />
<rect fill="#00258c" fill-opacity="0.501961" x="801" y="458" width="217" height="5" />
<rect fill="#ffffac" fill-opacity="0.501961" x="381" y="334" width="393" height="5" />
<rect fill="#ffffef" fill-opacity="0.501961" x="0" y="190" width="211" height="5" />
<rect fill="#ffffde" fill-opacity="0.501961" x="0" y="89" width="286" height="5" />
<rect fill="#001ab9" fill-opacity="0.501961" x="676" y="610" width="120" height="5" />
<rect fill="#c88c00" fill-opacity="0.501961" x="423" y="507" width="149" height="5" />
<rect fill="#f4aa00" fill-opacity="0.501961" x="535" y="432" width="177" height="5" />
<rect fill="#ffffc2" fill-opacity="0.501961" x="74" y="53" width="214" height="5" />
<rect fill="#002fb0" fill-opacity="0.501961" x="864" y="631" width="160" height="5" />
<rect fill="#000210" fill-opacity="0.501961" x="628" y="583" width="148" height="5" />
<rect fill="#ffffcd" fill-opacity="0.501961" x="455" y="17" width="560" height="5" />
<rect fill="#001180" fill-opacity="0.501961" x="432" y="658" width="186" height="5" />
<rect fill="#ffff89" fill-opacity="0.501961" x="174" y="393" width="257" height="5" />
<rect fill="#fffff6" fill-opacity="0.501961" x="0" y="284" width="349" height="5" />
<rect fill="#00005d" fill-opacity="0.501961" x="402" y="714" width="109" height="5" />
<rect fill="#fbfdf0" fill-opacity="0.501961" x="155" y="261" width="719" height="5" />
<rect fill="#002357" fill-opacity="0.501961" x="802" y="547" width="222" height="5" />
<rect fill="#ffffac" fill-opacity="0.501961" x="47" y="405" width="279" height="5" />
<rect fill="#ffffd7" fill-opacity="0.501961" x="415" y="103" width="306" height="5" />
<rect fill="#00006d" fill-opacity="0.501961" x="931" y="442" width="93" height="5" />
<rect fill="#fffff1" fill-opacity="0.501961" x="18" y="256" width="651" height="5" />
<rect fill="#ffffe0" fill-opacity="0.501961" x="0" y="169" width="377" height="5" />
<rect fill="#a28800" fill-opacity="0.501961" x="413" y="550" width="171" height="5" />
<rect fill="#0031ab" fill-opacity="0.501961" x="869" y="580" width="155" height="5" />
<rect fill="#ffffe9" fill-opacity="0.501961" x="0" y="105" width="199" height="5" />
<rect fill="#001194" fill-opacity="0.501961" x="911" y="739" width="113" height="5" />
<rect fill="#000204" fill-opacity="0.501961" x="12" y="674" width="240" height="5" />
<rect fill="#ffffbb" fill-opacity="0.501961" x="606" y="36" width="377" height="5" />
<rect fill="#ffffc5" fill-opacity="0.501961" x="782" y="116" width="242" height="5" />
<rect fill="#ffffc9" fill-opacity="0.501961" x="569" y="60" width="246" height="5" />
<rect fill="#ffffed" fill-opacity="0.501961" x="0" y="123" width="362" height="5" />
<rect fill="#ffffc5" fill-opacity="0.501961" x="0" y="498" width="175" height="5" />
<rect fill="#fffff1" fill-opacity="0.501961" x="41" y="267" width="504" height="5" />
<rect fill="#ffffc5" fill-opacity="0.501961" x="80" y="29" width="379" height="5" />
<rect fill="#000e00" fill-opacity="0.501961" x="52" y="668" width="204" height="5" />
<rect fill="#000b9a" fill-opacity="0.501961" x="112" y="632" width="107" height="5" />
<rect fill="#3c2a00" fill-opacity="0.501961" x="410" y="417" width="108" height="5" />
<rect fill="#fffce8" fill-opacity="0.501961" x="715" y="70" width="246" height="5" />
<rect fill="#001f4b" fill-opacity="0.501961" x="781" y="556" width="243" height="5" />
<rect fill="#948700" fill-opacity="0.501961" x="417" y="560" width="171" height="5" />
<rect fill="#ffffce" fill-opacity="0.501961" x="848" y="106" width="174" height="5" />
<rect fill="#fffff4" fill-opacity="0.501961" x="21" y="319" width="468" height="5" />
<rect fill="#ffffba" fill-opacity="0.501961" x="453" y="66" width="225" height="5" />
<rect fill="#003084" fill-opacity="0.501961" x="21" y="572" width="306" height="5" />
<rect fill="#fffff0" fill-opacity="0.501961" x="0" y="146" width="213" height="5" />
<rect fill="#ffd50d" fill-opacity="0.501961" x="185" y="437" width="158" height="5" />
<rect fill="#ffffbe" fill-opacity="0.501961" x="567" y="129" width="315" height="5" />
<rect fill="#fffff4" fill-opacity="0.501961" x="0" y="251" width="224" height="5" />
<rect fill="#003db2" fill-opacity="0.501961" x="536" y="642" width="185" height="5" />
<rect fill="#ffffe1" fill-opacity="0.501961" x="365" y="144" width="152" height="5" />
<rect fill="#ffffcc" fill-opacity="0.501961" x="603" y="11" width="410" height="5" />
<rect fill="#002382" fill-opacity="0.501961" x="590" y="549" width="222" height="5" />
<rect fill="#002391" fill-opacity="0.501961" x="761" y="759" width="263" height="5" />
<rect fill="#ffffed" fill-opacity="0.501961" x="0" y="129" width="289" height="5" />
<rect fill="#fffff9" fill-opacity="0.501961" x="0" y="418" width="169" height="5" />
<rect fill="#003fc2" fill-opacity="0.501961" x="804" y="483" width="220" height="5" />
<rect fill="#ffffd3" fill-opacity="0.501961" x="0" y="84" width="250" height="5" />
<rect fill="#002f8b" fill-opacity="0.501961" x="0" y="738" width="270" height="5" />
<rect fill="#fff9bf" fill-opacity="0.501961" x="504" y="328" width="323" height="5" />
<rect fill="#ffffe3" fill-opacity="0.501961" x="0" y="99" width="223" height="5" />
<rect fill="#f8f9ec" fill-opacity="0.501961" x="350" y="248" width="543" height="5" />
<rect fill="#e59e11" fill-opacity="0.501961" x="209" y="478" width="292" height="5" />
<rect fill="#f5fcf9" fill-opacity="0.501961" x="340" y="298" width="412" height="5" />
<rect fill="#002790" fill-opacity="0.501961" x="556" y="510" width="193" height="5" />
<rect fill="#ffffec" fill-opacity="0.501961" x="0" y="326" width="484" height="5" />
<rect fill="#fffffe" fill-opacity="0.501961" x="0" y="195" width="142" height="5" />
<rect fill="#fffff3" fill-opacity="0.501961" x="55" y="306" width="353" height="5" />
<rect fill="#ffffee" fill-opacity="0.501961" x="0" y="234" width="305" height="5" />
<rect fill="#00000f" fill-opacity="0.501961" x="267" y="638" width="251" height="5" />
<rect fill="#001b7e" fill-opacity="0.501961" x="0" y="605" width="188" height="5" />
<rect fill="#fffff0" fill-opacity="0.501961" x="0" y="242" width="235" height="5" />
<rect fill="#fffff5" fill-opacity="0.501961" x="0" y="289" width="270" height="5" />
<rect fill="#fdfcec" fill-opacity="0.501961" x="475" y="242" width="276" height="5" />
<rect fill="#002ca8" fill-opacity="0.501961" x="885" y="615" width="139" height="5" />
<rect fill="#ffffc7" fill-opacity="0.501961" x="567" y="5" width="457" height="5" />
<rect fill="#b98f00" fill-opacity="0.501961" x="427" y="535" width="140" height="5" />
<rect fill="#ddb100" fill-opacity="0.501961" x="218" y="514" width="355" height="5" />
<rect fill="#fffff2" fill-opacity="0.501961" x="48" y="275" width="197" height="5" />
<rect fill="#ffffe0" fill-opacity="0.501961" x="351" y="139" width="150" height="5" />
<rect fill="#020900" fill-opacity="0.501961" x="952" y="559" width="5" height="136" />
<rect fill="#000a08" fill-opacity="0.501961" x="371" y="526" width="5" height="158" />
<rect fill="#fffad7" fill-opacity="0.501961" x="0" y="0" width="5" height="568" />
<rect fill="#011304" fill-opacity="0.501961" x="88" y="563" width="5" height="205" />
<rect fill="#fff9db" fill-opacity="0.501961" x="122" y="218" width="5" height="333" />
<rect fill="#ecefe4" fill-opacity="0.501961" x="937" y="173" width="5" height="268" />
<rect fill="#000700" fill-opacity="0.501961" x="222" y="545" width="5" height="123" />
<rect fill="#fffcda" fill-opacity="0.501961" x="27" y="0" width="5" height="574" />
<rect fill="#000c00" fill-opacity="0.501961" x="366" y="526" width="5" height="141" />
<rect fill="#fef8e0" fill-opacity="0.501961" x="22" y="331" width="5" height="241" />
<rect fill="#6a5b00" fill-opacity="0.501961" x="437" y="401" width="5" height="245" />
<rect fill="#fffbe4" fill-opacity="0.501961" x="33" y="111" width="5" height="426" />
<rect fill="#051100" fill-opacity="0.501961" x="947" y="552" width="5" height="145" />
<rect fill="#141500" fill-opacity="0.501961" x="923" y="446" width="5" height="121" />
<rect fill="#0a1400" fill-opacity="0.501961" x="809" y="564" width="5" height="141" />
<rect fill="#001001" fill-opacity="0.501961" x="94" y="602" width="5" height="166" />
<rect fill="#fffcd8" fill-opacity="0.501961" x="8" y="0" width="5" height="428" />
<rect fill="#fbf5e2" fill-opacity="0.501961" x="15" y="212" width="5" height="359" />
<rect fill="#fff9d7" fill-opacity="0.501961" x="127" y="280" width="5" height="276" />
<rect fill="#0044b6" fill-opacity="0.501961" x="0" y="578" width="5" height="189" />
<rect fill="#000f19" fill-opacity="0.501961" x="656" y="532" width="5" height="206" />
<rect fill="#fffbdb" fill-opacity="0.501961" x="38" y="26" width="5" height="545" />
<rect fill="#fffbda" fill-opacity="0.501961" x="45" y="26" width="5" height="541" />
<rect fill="#e9f0ef" fill-opacity="0.501961" x="976" y="196" width="5" height="241" />
<rect fill="#7f6500" fill-opacity="0.501961" x="464" y="387" width="5" height="215" />
<rect fill="#fffbd9" fill-opacity="0.501961" x="50" y="0" width="5" height="562" />
<rect fill="#2d3000" fill-opacity="0.501961" x="529" y="566" width="5" height="190" />
<rect fill="#faf4db" fill-opacity="0.501961" x="67" y="173" width="5" height="408" />
<rect fill="#fff8db" fill-opacity="0.501961" x="58" y="46" width="5" height="521" />
<rect fill="#b59200" fill-opacity="0.501961" x="535" y="440" width="5" height="182" />
<rect fill="#00132b" fill-opacity="0.501961" x="378" y="523" width="5" height="243" />
<rect fill="#fdf4db" fill-opacity="0.501961" x="75" y="80" width="5" height="489" />
<rect fill="#fff7d5" fill-opacity="0.501961" x="103" y="0" width="5" height="564" />
<rect fill="#fff6d2" fill-opacity="0.501961" x="315" y="106" width="5" height="289" />
<rect fill="#efedd9" fill-opacity="0.501961" x="914" y="0" width="5" height="434" />
<rect fill="#0048ad" fill-opacity="0.501961" x="1019" y="508" width="5" height="260" />
<rect fill="#fff6d9" fill-opacity="0.501961" x="82" y="63" width="5" height="470" />
<rect fill="#001106" fill-opacity="0.501961" x="231" y="585" width="5" height="160" />
<rect fill="#fff9da" fill-opacity="0.501961" x="109" y="261" width="5" height="197" />
<rect fill="#6e5500" fill-opacity="0.501961" x="496" y="396" width="5" height="204" />
<rect fill="#001318" fill-opacity="0.501961" x="663" y="556" width="5" height="194" />
<rect fill="#0e1b08" fill-opacity="0.501961" x="942" y="515" width="5" height="134" />
<rect fill="#fef0ac" fill-opacity="0.501961" x="247" y="281" width="5" height="231" />
<rect fill="#fffadb" fill-opacity="0.501961" x="116" y="302" width="5" height="249" />
<rect fill="#f1e8c6" fill-opacity="0.501961" x="768" y="0" width="5" height="472" />
<rect fill="#fdf5d5" fill-opacity="0.501961" x="323" y="80" width="5" height="313" />
<rect fill="#faefc3" fill-opacity="0.501961" x="547" y="0" width="5" height="380" />
<rect fill="#021000" fill-opacity="0.501961" x="217" y="549" width="5" height="117" />
<rect fill="#faf4d8" fill-opacity="0.501961" x="132" y="125" width="5" height="352" />
<rect fill="#fff8d1" fill-opacity="0.501961" x="410" y="0" width="5" height="347" />
<rect fill="#e9ebdc" fill-opacity="0.501961" x="932" y="118" width="5" height="327" />
<rect fill="#f4eed2" fill-opacity="0.501961" x="140" y="108" width="5" height="447" />
<rect fill="#f5efd4" fill-opacity="0.501961" x="151" y="161" width="5" height="395" />
<rect fill="#fff7d0" fill-opacity="0.501961" x="329" y="0" width="5" height="397" />
<rect fill="#fef2c5" fill-opacity="0.501961" x="620" y="20" width="5" height="362" />
<rect fill="#004ab8" fill-opacity="0.501961" x="6" y="581" width="5" height="187" />
<rect fill="#ebeee3" fill-opacity="0.501961" x="942" y="169" width="5" height="273" />
<rect fill="#7d6600" fill-opacity="0.501961" x="458" y="395" width="5" height="209" />
<rect fill="#001b27" fill-opacity="0.501961" x="957" y="543" width="5" height="181" />
<rect fill="#f9edb6" fill-opacity="0.501961" x="252" y="146" width="5" height="342" />
<rect fill="#000c00" fill-opacity="0.501961" x="70" y="581" width="5" height="114" />
<rect fill="#866500" fill-opacity="0.501961" x="474" y="384" width="5" height="211" />
<rect fill="#005ac4" fill-opacity="0.501961" x="1014" y="443" width="5" height="220" />
<rect fill="#020e00" fill-opacity="0.501961" x="99" y="661" width="5" height="107" />
<rect fill="#0a1b0c" fill-opacity="0.501961" x="917" y="447" width="5" height="137" />
<rect fill="#eaeddf" fill-opacity="0.501961" x="925" y="147" width="5" height="291" />
<rect fill="#fff5cd" fill-opacity="0.501961" x="337" y="20" width="5" height="386" />
<rect fill="#fff7c3" fill-opacity="0.501961" x="421" y="0" width="5" height="387" />
<rect fill="#fceeb2" fill-opacity="0.501961" x="242" y="15" width="5" height="523" />
<rect fill="#070b00" fill-opacity="0.501961" x="361" y="526" width="5" height="80" />
<rect fill="#eceadd" fill-opacity="0.501961" x="993" y="14" width="5" height="418" />
<rect fill="#fff6d3" fill-opacity="0.501961" x="368" y="0" width="5" height="396" />
<rect fill="#feeead" fill-opacity="0.501961" x="265" y="0" width="5" height="533" />
<rect fill="#001c29" fill-opacity="0.501961" x="963" y="593" width="5" height="139" />
<rect fill="#091300" fill-opacity="0.501961" x="83" y="567" width="5" height="161" />
<rect fill="#fff7d1" fill-opacity="0.501961" x="361" y="0" width="5" height="393" />
<rect fill="#e9e9dc" fill-opacity="0.501961" x="960" y="14" width="5" height="424" />
<rect fill="#f9f1cd" fill-opacity="0.501961" x="343" y="185" width="5" height="226" />
<rect fill="#03202a" fill-opacity="0.501961" x="934" y="445" width="5" height="181" />
<rect fill="#f8eaba" fill-opacity="0.501961" x="542" y="0" width="5" height="414" />
<rect fill="#272c00" fill-opacity="0.501961" x="523" y="565" width="5" height="159" />
<rect fill="#071500" fill-opacity="0.501961" x="243" y="632" width="5" height="136" />
<rect fill="#faedb6" fill-opacity="0.501961" x="628" y="56" width="5" height="371" />
<rect fill="#001100" fill-opacity="0.501961" x="384" y="614" width="5" height="154" />
<rect fill="#091a11" fill-opacity="0.501961" x="816" y="562" width="5" height="168" />
<rect fill="#967a00" fill-opacity="0.501961" x="443" y="454" width="5" height="157" />
<rect fill="#fbe9a3" fill-opacity="0.501961" x="272" y="102" width="5" height="435" />
<rect fill="#fcf2c4" fill-opacity="0.501961" x="615" y="47" width="5" height="334" />
<rect fill="#0c1400" fill-opacity="0.501961" x="644" y="495" width="5" height="129" />
<rect fill="#765700" fill-opacity="0.501961" x="489" y="390" width="5" height="200" />
<rect fill="#fcf6db" fill-opacity="0.501961" x="376" y="195" width="5" height="198" />
<rect fill="#f0eed7" fill-opacity="0.501961" x="896" y="14" width="5" height="425" />
<rect fill="#ecf0eb" fill-opacity="0.501961" x="954" y="200" width="5" height="238" />
<rect fill="#e8ede8" fill-opacity="0.501961" x="966" y="166" width="5" height="260" />
<rect fill="#f8f2d4" fill-opacity="0.501961" x="156" y="232" width="5" height="308" />
<rect fill="#fdf2c7" fill-opacity="0.501961" x="610" y="41" width="5" height="327" />
<rect fill="#f8f1d2" fill-opacity="0.501961" x="161" y="281" width="5" height="252" />
<rect fill="#f7e9be" fill-opacity="0.501961" x="566" y="0" width="5" height="410" />
<rect fill="#1a2407" fill-opacity="0.501961" x="784" y="458" width="5" height="135" />
<rect fill="#eeebdd" fill-opacity="0.501961" x="1016" y="0" width="5" height="426" />
<rect fill="#faf0cc" fill-opacity="0.501961" x="605" y="9" width="5" height="345" />
<rect fill="#f5ecbc" fill-opacity="0.501961" x="231" y="91" width="5" height="404" />
<rect fill="#fff6d1" fill-opacity="0.501961" x="404" y="7" width="5" height="294" />
<rect fill="#f0edd4" fill-opacity="0.501961" x="873" y="0" width="5" height="450" />
<rect fill="#fff6c6" fill-opacity="0.501961" x="426" y="9" width="5" height="368" />
<rect fill="#f9f4d7" fill-opacity="0.501961" x="97" y="299" width="5" height="266" />
<rect fill="#005ece" fill-opacity="0.501961" x="582" y="495" width="5" height="225" />
<rect fill="#004db9" fill-opacity="0.501961" x="1009" y="556" width="5" height="211" />
<rect fill="#e8ecdf" fill-opacity="0.501961" x="907" y="208" width="5" height="251" />
<rect fill="#fffccd" fill-opacity="0.501961" x="416" y="0" width="5" height="223" />
<rect fill="#0059c5" fill-opacity="0.501961" x="599" y="491" width="5" height="227" />
<rect fill="#faf3d7" fill-opacity="0.501961" x="89" y="223" width="5" height="285" />
<rect fill="#fdf4cc" fill-opacity="0.501961" x="443" y="0" width="5" height="346" />
<rect fill="#f9eec8" fill-opacity="0.501961" x="599" y="0" width="5" height="354" />
<rect fill="#fff7d1" fill-opacity="0.501961" x="432" y="0" width="5" height="318" />
<rect fill="#f9f0c8" fill-opacity="0.501961" x="477" y="0" width="5" height="386" />
<rect fill="#f7e8a9" fill-opacity="0.501961" x="257" y="115" width="5" height="419" />
<rect fill="#f8f1d2" fill-opacity="0.501961" x="354" y="116" width="5" height="284" />
<rect fill="#f6efd7" fill-opacity="0.501961" x="6" y="406" width="5" height="161" />
<rect fill="#ffdc57" fill-opacity="0.501961" x="288" y="329" width="5" height="211" />
<rect fill="#f8eecc" fill-opacity="0.501961" x="571" y="0" width="5" height="368" />
<rect fill="#f8f2d6" fill-opacity="0.501961" x="145" y="178" width="5" height="320" />
<rect fill="#fff8ce" fill-opacity="0.501961" x="465" y="0" width="5" height="248" />
<rect fill="#fdeba2" fill-opacity="0.501961" x="277" y="0" width="5" height="538" />
<rect fill="#f8e9b6" fill-opacity="0.501961" x="521" y="0" width="5" height="428" />
<rect fill="#fff6cd" fill-opacity="0.501961" x="449" y="1" width="5" height="248" />
<rect fill="#021600" fill-opacity="0.501961" x="238" y="625" width="5" height="142" />
<rect fill="#004cb2" fill-opacity="0.501961" x="13" y="574" width="5" height="194" />
<rect fill="#fcf5d0" fill-opacity="0.501961" x="310" y="112" width="5" height="285" />
<rect fill="#101b00" fill-opacity="0.501961" x="981" y="654" width="5" height="114" />
<rect fill="#f3ebca" fill-opacity="0.501961" x="677" y="0" width="5" height="356" />
<rect fill="#feeeb2" fill-opacity="0.501961" x="399" y="92" width="5" height="335" />
<rect fill="#ffffcf" fill-opacity="0.501961" x="20" y="39" width="5" height="178" />
<rect fill="#282800" fill-opacity="0.501961" x="351" y="523" width="5" height="124" />
<rect fill="#ebf0ee" fill-opacity="0.501961" x="984" y="226" width="5" height="204" />
<rect fill="#f6efcd" fill-opacity="0.501961" x="382" y="149" width="5" height="242" />
<rect fill="#ffe47e" fill-opacity="0.501961" x="283" y="267" width="5" height="254" />
<rect fill="#7b6700" fill-opacity="0.501961" x="451" y="388" width="5" height="240" />
<rect fill="#f9f0c5" fill-opacity="0.501961" x="472" y="0" width="5" height="389" />
<rect fill="#00070c" fill-opacity="0.501961" x="65" y="587" width="5" height="109" />
<rect fill="#f9eec4" fill-opacity="0.501961" x="559" y="0" width="5" height="380" />
<rect fill="#021100" fill-opacity="0.501961" x="390" y="627" width="5" height="141" />
<rect fill="#08180b" fill-opacity="0.501961" x="671" y="578" width="5" height="168" />
<rect fill="#0f1b05" fill-opacity="0.501961" x="639" y="482" width="5" height="141" />
<rect fill="#9d8d00" fill-opacity="0.501961" x="542" y="495" width="5" height="130" />
<rect fill="#efecd2" fill-opacity="0.501961" x="866" y="0" width="5" height="454" />
<rect fill="#121c04" fill-opacity="0.501961" x="929" y="476" width="5" height="124" />
<rect fill="#00216c" fill-opacity="0.501961" x="486" y="571" width="5" height="197" />
<rect fill="#001b32" fill-opacity="0.501961" x="650" y="511" width="5" height="232" />
<rect fill="#070e00" fill-opacity="0.501961" x="534" y="635" width="5" height="106" />
<rect fill="#e9eceb" fill-opacity="0.501961" x="1009" y="224" width="5" height="207" />
<rect fill="#004eb7" fill-opacity="0.501961" x="19" y="586" width="5" height="182" />
<rect fill="#f4ebd0" fill-opacity="0.501961" x="1011" y="2" width="5" height="190" />
<rect fill="#faefc1" fill-opacity="0.501961" x="552" y="0" width="5" height="381" />
<rect fill="#0043a4" fill-opacity="0.501961" x="997" y="561" width="5" height="192" />
<rect fill="#00110a" fill-opacity="0.501961" x="227" y="543" width="5" height="126" />
<rect fill="#f7efc4" fill-opacity="0.501961" x="387" y="147" width="5" height="217" />
<rect fill="#e9e7d7" fill-opacity="0.501961" x="1004" y="0" width="5" height="329" />
<rect fill="#826000" fill-opacity="0.501961" x="480" y="387" width="5" height="199" />
<rect fill="#051c1c" fill-opacity="0.501961" x="969" y="630" width="5" height="121" />
<rect fill="#ecaf0a" fill-opacity="0.501961" x="331" y="401" width="5" height="135" />
<rect fill="#000500" fill-opacity="0.501961" x="518" y="620" width="5" height="87" />
<rect fill="#f2efd6" fill-opacity="0.501961" x="166" y="264" width="5" height="188" />
<rect fill="#f8f1d0" fill-opacity="0.501961" x="303" y="158" width="5" height="215" />
<rect fill="#ffd53f" fill-opacity="0.501961" x="297" y="359" width="5" height="173" />
<rect fill="#fff3c7" fill-opacity="0.501961" x="536" y="0" width="5" height="231" />
<rect fill="#fef4da" fill-opacity="0.501961" x="95" y="64" width="5" height="240" />
<rect fill="#f8edc8" fill-opacity="0.501961" x="585" y="0" width="5" height="361" />
<rect fill="#facb2f" fill-opacity="0.501961" x="303" y="375" width="5" height="169" />
<rect fill="#171f00" fill-opacity="0.501961" x="76" y="580" width="5" height="116" />
<rect fill="#ebb10c" fill-opacity="0.501961" x="324" y="395" width="5" height="143" />
<rect fill="#003ab9" fill-opacity="0.501961" x="397" y="520" width="5" height="103" />
<rect fill="#004cb3" fill-opacity="0.501961" x="27" y="576" width="5" height="192" />
<rect fill="#7d6500" fill-opacity="0.501961" x="430" y="390" width="5" height="202" />
<rect fill="#f5c322" fill-opacity="0.501961" x="308" y="381" width="5" height="163" />
<rect fill="#ecf1e6" fill-opacity="0.501961" x="901" y="264" width="5" height="177" />
<rect fill="#f2eacb" fill-opacity="0.501961" x="883" y="0" width="5" height="313" />
<rect fill="#f1ebce" fill-opacity="0.501961" x="850" y="0" width="5" height="452" />
<rect fill="#f8eab4" fill-opacity="0.501961" x="633" y="12" width="5" height="412" />
<rect fill="#edb30c" fill-opacity="0.501961" x="319" y="403" width="5" height="135" />
<rect fill="#e6a914" fill-opacity="0.501961" x="348" y="401" width="5" height="137" />
<rect fill="#021100" fill-opacity="0.501961" x="105" y="670" width="5" height="98" />
<rect fill="#0b1c09" fill-opacity="0.501961" x="976" y="651" width="5" height="117" />
<rect fill="#2f2b01" fill-opacity="0.501961" x="356" y="523" width="5" height="118" />
<rect fill="#002471" fill-opacity="0.501961" x="491" y="575" width="5" height="193" />
<rect fill="#fff4c8" fill-opacity="0.501961" x="482" y="0" width="5" height="243" />
<rect fill="#f6f0d3" fill-opacity="0.501961" x="172" y="289" width="5" height="210" />
<rect fill="#efeacf" fill-opacity="0.501961" x="840" y="0" width="5" height="455" />
<rect fill="#5c3200" fill-opacity="0.501961" x="501" y="400" width="5" height="85" />
<rect fill="#fdf2c6" fill-opacity="0.501961" x="296" y="14" width="5" height="242" />
<rect fill="#fbe582" fill-opacity="0.501961" x="224" y="357" width="5" height="180" />
<rect fill="#e4af0e" fill-opacity="0.501961" x="607" y="357" width="5" height="137" />
<rect fill="#0057c5" fill-opacity="0.501961" x="607" y="493" width="5" height="217" />
<rect fill="#f5ecc2" fill-opacity="0.501961" x="494" y="0" width="5" height="390" />
<rect fill="#ffffd8" fill-opacity="0.501961" x="70" y="26" width="5" height="229" />
<rect fill="#f1e9ca" fill-opacity="0.501961" x="919" y="0" width="5" height="222" />
<rect fill="#1e2300" fill-opacity="0.501961" x="779" y="466" width="5" height="86" />
<rect fill="#efe9cd" fill-opacity="0.501961" x="820" y="0" width="5" height="455" />
<rect fill="#fffdcf" fill-opacity="0.501961" x="437" y="21" width="5" height="134" />
<rect fill="#f2f7f2" fill-opacity="0.501961" x="947" y="299" width="5" height="134" />
<rect fill="#f2e286" fill-opacity="0.501961" x="668" y="227" width="5" height="253" />
<rect fill="#005cc4" fill-opacity="0.501961" x="589" y="491" width="5" height="235" />
<rect fill="#006ace" fill-opacity="0.501961" x="283" y="560" width="5" height="205" />
<rect fill="#938900" fill-opacity="0.501961" x="547" y="493" width="5" height="134" />
<rect fill="#001310" fill-opacity="0.501961" x="396" y="614" width="5" height="154" />
<rect fill="#e8f0ec" fill-opacity="0.501961" x="880" y="302" width="5" height="128" />
<rect fill="#e8ede2" fill-opacity="0.501961" x="891" y="269" width="5" height="182" />
<rect fill="#061d1c" fill-opacity="0.501961" x="822" y="624" width="5" height="144" />
<rect fill="#005fce" fill-opacity="0.501961" x="594" y="513" width="5" height="204" />
<rect fill="#eae6cd" fill-opacity="0.501961" x="812" y="122" width="5" height="335" />
<rect fill="#051f24" fill-opacity="0.501961" x="676" y="579" width="5" height="180" />
<rect fill="#eee9cd" fill-opacity="0.501961" x="834" y="0" width="5" height="449" />
<rect fill="#ede3c6" fill-opacity="0.501961" x="986" y="0" width="5" height="211" />
<rect fill="#e8e8d9" fill-opacity="0.501961" x="785" y="244" width="5" height="217" />
<rect fill="#efae17" fill-opacity="0.501961" x="343" y="399" width="5" height="114" />
<rect fill="#f7edb9" fill-opacity="0.501961" x="394" y="180" width="5" height="222" />
<rect fill="#fddb52" fill-opacity="0.501961" x="639" y="308" width="5" height="179" />
<rect fill="#f9efc6" fill-opacity="0.501961" x="179" y="0" width="5" height="500" />
<rect fill="#f5eabf" fill-opacity="0.501961" x="649" y="0" width="5" height="384" />
<rect fill="#006ae6" fill-opacity="0.501961" x="278" y="662" width="5" height="101" />
<rect fill="#0057bc" fill-opacity="0.501961" x="577" y="499" width="5" height="178" />
<rect fill="#0033ac" fill-opacity="0.501961" x="391" y="519" width="5" height="98" />
<rect fill="#f9f2ce" fill-opacity="0.501961" x="460" y="0" width="5" height="279" />
<rect fill="#fff3c2" fill-opacity="0.501961" x="393" y="17" width="5" height="162" />
<rect fill="#e7e6cf" fill-opacity="0.501961" x="773" y="175" width="5" height="288" />
<rect fill="#081c17" fill-opacity="0.501961" x="987" y="656" width="5" height="112" />
<rect fill="#006de8" fill-opacity="0.501961" x="289" y="659" width="5" height="99" />
<rect fill="#f6edc6" fill-opacity="0.501961" x="499" y="0" width="5" height="369" />
<rect fill="#fffbc8" fill-opacity="0.501961" x="348" y="0" width="5" height="186" />
<rect fill="#ebac1c" fill-opacity="0.501961" x="353" y="402" width="5" height="131" />
<rect fill="#f5ebc3" fill-opacity="0.501961" x="760" y="270" width="5" height="167" />
<rect fill="#f6efcf" fill-opacity="0.501961" x="527" y="0" width="5" height="322" />
<rect fill="#071300" fill-opacity="0.501961" x="248" y="685" width="5" height="83" />
<rect fill="#056bca" fill-opacity="0.501961" x="326" y="537" width="5" height="224" />
<rect fill="#004aad" fill-opacity="0.501961" x="34" y="574" width="5" height="194" />
<rect fill="#f1e9c6" fill-opacity="0.501961" x="184" y="95" width="5" height="406" />
<rect fill="#ece7c4" fill-opacity="0.501961" x="753" y="210" width="5" height="226" />
<rect fill="#fff4c6" fill-opacity="0.501961" x="291" y="0" width="5" height="231" />
<rect fill="#f3e6b7" fill-opacity="0.501961" x="748" y="1" width="5" height="466" />
<rect fill="#f0e9cb" fill-opacity="0.501961" x="778" y="0" width="5" height="457" />
<rect fill="#f7eac0" fill-opacity="0.501961" x="803" y="0" width="5" height="198" />
<rect fill="#066fd0" fill-opacity="0.501961" x="297" y="553" width="5" height="212" />
<rect fill="#002659" fill-opacity="0.501961" x="59" y="566" width="5" height="153" />
<rect fill="#f9efc7" fill-opacity="0.501961" x="516" y="0" width="5" height="259" />
<rect fill="#eab00b" fill-opacity="0.501961" x="602" y="365" width="5" height="126" />
<rect fill="#0054c0" fill-opacity="0.501961" x="612" y="498" width="5" height="215" />
<rect fill="#5d3d00" fill-opacity="0.501961" x="485" y="393" width="5" height="103" />
<rect fill="#eaae13" fill-opacity="0.501961" x="336" y="401" width="5" height="134" />
<rect fill="#edf3f2" fill-opacity="0.501961" x="971" y="271" width="5" height="159" />
<rect fill="#e8e5ce" fill-opacity="0.501961" x="792" y="99" width="5" height="359" />
<rect fill="#eeecd4" fill-opacity="0.501961" x="642" y="137" width="5" height="201" />
<rect fill="#f7edc8" fill-opacity="0.501961" x="878" y="0" width="5" height="191" />
<rect fill="#f7ecc5" fill-opacity="0.501961" x="591" y="0" width="5" height="368" />
<rect fill="#0f1e0a" fill-opacity="0.501961" x="804" y="553" width="5" height="114" />
<rect fill="#fcf1c4" fill-opacity="0.501961" x="285" y="8" width="5" height="222" />
<rect fill="#f0e5b0" fill-opacity="0.501961" x="740" y="201" width="5" height="260" />
</g>
</svg>