<svg xmlns="http://www.w3.org/2000/svg" version="1.1" width="1024" height="768">
<rect x="0" y="0" width="1024" height="768" fill="#929d99" />
<g transform="scale(4.000000) translate(0.5 0.5)">
<polygon fill="#00005d" fill-opacity="0.501961" points="-16,174 250,207 271,97" />
<polygon fill="#ffffd4" fill-opacity="0.501961" points="1,146 -2,-16 271,7" />
<polygon fill="#003070" fill-opacity="0.501961" points="6,207 -16,131 271,167" />
<polygon fill="#eee9c4" fill-opacity="0.501961" points="271,8 254,111 99,97" />
<polygon fill="#b68d08" fill-opacity="0.501961" points="130,159 187,85 41,106" />
<polygon fill="#085092" fill-opacity="0.501961" points="270,105 136,124 228,207" />
<polygon fill="#0b4389" fill-opacity="0.501961" points="80,207 106,130 -16,147" />
<polygon fill="#e4cb7b" fill-opacity="0.501961" points="97,129 -16,145 111,77" />
<polygon fill="#ffffb9" fill-opacity="0.501961" points="-12,30 10,-16 169,-3" />
<polygon fill="#745700" fill-opacity="0.501961" points="105,98 134,107 109,160" />
<polygon fill="#dfc86d" fill-opacity="0.501961" points="158,120 90,77 227,110" />
<polygon fill="#132d48" fill-opacity="0.501961" points="97,207 195,196 86,133" />
<polygon fill="#286bbb" fill-opacity="0.501961" points="240,157 142,182 136,155" />
<polygon fill="#f7e2a9" fill-opacity="0.501961" points="103,22 269,4 183,-16" />
<polygon fill="#222012" fill-opacity="0.501961" points="159,176 179,194 160,120" />
<polygon fill="#33250b" fill-opacity="0.501961" points="198,169 220,207 199,128" />
<polygon fill="#1959aa" fill-opacity="0.501961" points="-16,181 93,162 87,207" />
<polygon fill="#1f1500" fill-opacity="0.501961" points="31,168 14,142 26,207" />
<polygon fill="#2b1c00" fill-opacity="0.501961" points="51,162 67,193 56,132" />
<polygon fill="#c4cbc8" fill-opacity="0.501961" points="27,63 271,58 226,113" />
<polygon fill="#baa014" fill-opacity="0.501961" points="142,122 141,153 77,117" />
<polygon fill="#282715" fill-opacity="0.501961" points="257,204 234,128 235,169" />
<polygon fill="#d7d5cc" fill-opacity="0.501961" points="-16,145 44,136 16,-16" />
<polygon fill="#3173c1" fill-opacity="0.501961" points="76,195 86,139 57,137" />
<polygon fill="#0b53ac" fill-opacity="0.501961" points="116,192 271,168 251,207" />
<polygon fill="#202d3c" fill-opacity="0.501961" points="153,146 52,162 128,171" />
<polygon fill="#433721" fill-opacity="0.501961" points="119,95 102,115 137,115" />
<polygon fill="#348ef4" fill-opacity="0.501961" points="248,165 271,135 240,143" />
<polygon fill="#262824" fill-opacity="0.501961" points="160,145 234,138 198,152" />
<polygon fill="#241b03" fill-opacity="0.501961" points="73,207 11,197 135,182" />
<polygon fill="#a38000" fill-opacity="0.501961" points="189,115 148,115 156,124" />
<polygon fill="#145cba" fill-opacity="0.501961" points="149,121 166,175 137,177" />
<polygon fill="#2265bd" fill-opacity="0.501961" points="204,141 199,114 271,112" />
<polygon fill="#2f2816" fill-opacity="0.501961" points="242,141 226,143 229,111" />
<polygon fill="#d8af0b" fill-opacity="0.501961" points="70,92 64,110 92,107" />
<polygon fill="#bda31e" fill-opacity="0.501961" points="101,118 50,131 72,139" />
<polygon fill="#d0be6d" fill-opacity="0.501961" points="175,78 149,105 92,88" />
<polygon fill="#2571d7" fill-opacity="0.501961" points="202,172 169,153 197,147" />
<polygon fill="#2a2300" fill-opacity="0.501961" points="169,144 135,153 161,154" />
<polygon fill="#0c3289" fill-opacity="0.501961" points="131,179 103,184 123,140" />
<polygon fill="#1153c2" fill-opacity="0.501961" points="96,127 110,153 97,156" />
<polygon fill="#2a75d2" fill-opacity="0.501961" points="211,170 238,163 211,143" />
<polygon fill="#383026" fill-opacity="0.501961" points="188,172 206,182 236,168" />
<polygon fill="#b39321" fill-opacity="0.501961" points="157,106 110,155 104,122" />
<polygon fill="#0e62dd" fill-opacity="0.501961" points="3,144 -16,174 17,163" />
<polygon fill="#c8c9ac" fill-opacity="0.501961" points="18,143 -10,97 77,95" />
<polygon fill="#272315" fill-opacity="0.501961" points="130,180 136,192 175,176" />
<polygon fill="#2174e3" fill-opacity="0.501961" points="271,89 271,131 237,130" />
<polygon fill="#1a3a73" fill-opacity="0.501961" points="195,138 202,114 144,124" />
<polygon fill="#2e7bd9" fill-opacity="0.501961" points="217,207 243,182 218,175" />
<polygon fill="#2d75ce" fill-opacity="0.501961" points="64,175 95,184 90,161" />
<polygon fill="#3c3118" fill-opacity="0.501961" points="85,160 90,132 101,162" />
<polygon fill="#bec9cb" fill-opacity="0.501961" points="194,113 259,106 252,45" />
<polygon fill="#3a2e17" fill-opacity="0.501961" points="250,179 248,204 238,159" />
<polygon fill="#242614" fill-opacity="0.501961" points="18,163 48,168 -13,176" />
<polygon fill="#b5b69f" fill-opacity="0.501961" points="117,40 271,31 209,59" />
<polygon fill="#2a1600" fill-opacity="0.501961" points="271,129 236,136 253,138" />
<polygon fill="#2a3641" fill-opacity="0.501961" points="58,123 49,129 44,126" />
<polygon fill="#fff3b9" fill-opacity="0.501961" points="132,0 -4,24 -11,-16" />
<polygon fill="#0a57c2" fill-opacity="0.501961" points="20,207 -16,175 21,176" />
<polygon fill="#d9bd4f" fill-opacity="0.501961" points="125,121 194,115 179,99" />
<polygon fill="#fdecaf" fill-opacity="0.501961" points="70,42 140,33 96,27" />
<polygon fill="#104099" fill-opacity="0.501961" points="52,137 23,142 31,195" />
<polygon fill="#ddd9cd" fill-opacity="0.501961" points="37,15 -16,37 50,88" />
<polygon fill="#2a70ca" fill-opacity="0.501961" points="205,135 222,113 231,136" />
<polygon fill="#343428" fill-opacity="0.501961" points="208,159 194,114 195,145" />
<polygon fill="#26291f" fill-opacity="0.501961" points="24,170 45,161 61,167" />
<polygon fill="#8a9947" fill-opacity="0.501961" points="137,156 145,137 124,144" />
<polygon fill="#222623" fill-opacity="0.501961" points="131,152 112,152 140,182" />
<polygon fill="#35332a" fill-opacity="0.501961" points="206,201 219,202 204,156" />
<polygon fill="#221a0b" fill-opacity="0.501961" points="58,180 66,207 78,200" />
<polygon fill="#1c63bd" fill-opacity="0.501961" points="47,207 27,172 56,170" />
<polygon fill="#dacb90" fill-opacity="0.501961" points="89,119 63,127 49,102" />
<polygon fill="#3179d0" fill-opacity="0.501961" points="60,157 87,157 75,137" />
<polygon fill="#f1e3b1" fill-opacity="0.501961" points="211,-10 271,1 169,14" />
<polygon fill="#1b5dbb" fill-opacity="0.501961" points="144,146 162,145 144,123" />
<polygon fill="#312f20" fill-opacity="0.501961" points="163,156 176,207 177,176" />
<polygon fill="#ccd0cb" fill-opacity="0.501961" points="121,57 91,94 -16,75" />
<polygon fill="#1d65c1" fill-opacity="0.501961" points="204,146 232,147 236,166" />
<polygon fill="#bcbca2" fill-opacity="0.501961" points="111,61 49,46 152,35" />
<polygon fill="#2873cc" fill-opacity="0.501961" points="177,175 199,170 172,157" />
<polygon fill="#c1c0a1" fill-opacity="0.501961" points="207,113 154,100 188,73" />
<polygon fill="#ba9477" fill-opacity="0.501961" points="101,108 90,130 107,127" />
<polygon fill="#c4a600" fill-opacity="0.501961" points="161,114 141,122 173,119" />
<polygon fill="#1e55a9" fill-opacity="0.501961" points="190,115 189,140 162,127" />
<polygon fill="#2e342b" fill-opacity="0.501961" points="164,173 167,184 191,176" />
<polygon fill="#0f275c" fill-opacity="0.501961" points="100,129 96,138 81,135" />
<polygon fill="#322d1e" fill-opacity="0.501961" points="232,112 224,112 230,129" />
<polygon fill="#2b2d29" fill-opacity="0.501961" points="245,173 270,161 221,169" />
<polygon fill="#322913" fill-opacity="0.501961" points="59,160 63,166 83,158" />
<polygon fill="#be935a" fill-opacity="0.501961" points="124,123 152,88 145,123" />
<polygon fill="#1548a1" fill-opacity="0.501961" points="47,143 33,166 57,161" />
<polygon fill="#2972cf" fill-opacity="0.501961" points="162,161 147,178 137,157" />
<polygon fill="#666952" fill-opacity="0.501961" points="131,97 100,113 105,99" />
<polygon fill="#949010" fill-opacity="0.501961" points="144,125 109,150 101,129" />
<polygon fill="#313028" fill-opacity="0.501961" points="24,141 15,146 22,172" />
<polygon fill="#d0c36e" fill-opacity="0.501961" points="99,102 95,83 140,85" />
<polygon fill="#c1c9c8" fill-opacity="0.501961" points="119,89 190,52 103,50" />
<polygon fill="#c99200" fill-opacity="0.501961" points="76,110 61,103 98,105" />
<polygon fill="#e6d993" fill-opacity="0.501961" points="78,103 78,89 28,102" />
<polygon fill="#272e35" fill-opacity="0.501961" points="155,122 165,154 176,149" />
<polygon fill="#272717" fill-opacity="0.501961" points="101,197 93,162 102,174" />
<polygon fill="#babfb9" fill-opacity="0.501961" points="70,114 -8,118 -16,95" />
<polygon fill="#144f98" fill-opacity="0.501961" points="114,153 127,152 124,141" />
<polygon fill="#583908" fill-opacity="0.501961" points="130,118 107,115 107,103" />
<polygon fill="#d4cdb8" fill-opacity="0.501961" points="22,20 72,54 158,-1" />
<polygon fill="#e7dab3" fill-opacity="0.501961" points="230,18 188,33 267,27" />
<polygon fill="#c0c5c8" fill-opacity="0.501961" points="186,28 271,-15 264,21" />
<polygon fill="#1f2b3c" fill-opacity="0.501961" points="61,135 54,155 51,138" />
<polygon fill="#fde99c" fill-opacity="0.501961" points="152,78 166,83 133,84" />
<polygon fill="#bc891b" fill-opacity="0.501961" points="171,105 135,105 134,116" />
<polygon fill="#1f64c2" fill-opacity="0.501961" points="133,187 98,193 135,207" />
<polygon fill="#2f3635" fill-opacity="0.501961" points="208,143 239,144 253,132" />
<polygon fill="#bfc5bb" fill-opacity="0.501961" points="194,44 190,115 254,105" />
<polygon fill="#3171c3" fill-opacity="0.501961" points="252,164 238,142 270,135" />
<polygon fill="#0d50aa" fill-opacity="0.501961" points="204,177 195,207 176,183" />
<polygon fill="#0e367f" fill-opacity="0.501961" points="233,111 257,107 271,115" />
<polygon fill="#b4bdb2" fill-opacity="0.501961" points="-14,137 27,140 40,124" />
<polygon fill="#15347f" fill-opacity="0.501961" points="129,180 126,159 96,166" />
<polygon fill="#b9ad31" fill-opacity="0.501961" points="56,135 45,138 57,125" />
<polygon fill="#1855a5" fill-opacity="0.501961" points="56,143 62,135 80,142" />
<polygon fill="#11409a" fill-opacity="0.501961" points="168,145 194,141 165,129" />
<polygon fill="#104ead" fill-opacity="0.501961" points="255,193 246,170 271,168" />
<polygon fill="#bfac79" fill-opacity="0.501961" points="172,95 133,106 118,91" />
<polygon fill="#ced1c6" fill-opacity="0.501961" points="80,59 101,98 77,96" />
<polygon fill="#2063b7" fill-opacity="0.501961" points="83,134 59,145 89,146" />
<polygon fill="#ffefa1" fill-opacity="0.501961" points="29,102 14,97 42,98" />
<polygon fill="#262e36" fill-opacity="0.501961" points="198,136 219,144 170,149" />
<path stroke="#c4b994" stroke-opacity="0.501961" fill="none" d="M 34.042208 138.275159 Q 56.077412 139.016834, 100.149453 121.955758" stroke-width="0.500000" />
<path stroke="#424a44" stroke-opacity="0.501961" fill="none" d="M 234.392437 114.287269 Q 200.881346 111.389459, 134.310397 128.679302" stroke-width="0.500000" />
<path stroke="#2b2e1c" stroke-opacity="0.501961" fill="none" d="M 211.526555 143.185486 Q 146.159170 151.994405, 62.839558 165.762275" stroke-width="0.500000" />
<path stroke="#474938" stroke-opacity="0.501961" fill="none" d="M 271.000000 107.428721 Q 227.183332 111.233022, 137.577854 125.461026" stroke-width="0.500000" />
<path stroke="#2f2f1d" stroke-opacity="0.501961" fill="none" d="M 117.730270 188.868030 Q 192.009019 175.592784, 258.503944 166.339246" stroke-width="0.500000" />
<path stroke="#fcdf8f" stroke-opacity="0.501961" fill="none" d="M 218.165377 30.093432 Q 186.516063 33.510496, 143.974259 33.610329" stroke-width="0.500000" />
<path stroke="#707323" stroke-opacity="0.501961" fill="none" d="M 66.080008 136.231255 Q 74.598807 142.792910, 88.857494 129.758099" stroke-width="0.500000" />
<path stroke="#463904" stroke-opacity="0.501961" fill="none" d="M 144.234856 121.391380 Q 155.252535 124.734306, 178.057896 119.409653" stroke-width="0.500000" />
<path stroke="#b3982b" stroke-opacity="0.501961" fill="none" d="M 194.513549 127.636751 Q 193.654670 96.981504, 140.460032 112.644411" stroke-width="0.500000" />
<path stroke="#4f5743" stroke-opacity="0.501961" fill="none" d="M 30.012764 140.308999 Q 66.094903 140.735874, 98.965106 130.241531" stroke-width="0.500000" />
<path stroke="#2d2f1d" stroke-opacity="0.501961" fill="none" d="M -1.561332 173.427448 Q 87.047107 162.193779, 132.051424 152.708103" stroke-width="0.500000" />
<path stroke="#c09508" stroke-opacity="0.501961" fill="none" d="M 57.311841 133.051883 Q 100.031498 118.112845, 104.379620 116.852160" stroke-width="0.500000" />
<path stroke="#2a2d27" stroke-opacity="0.501961" fill="none" d="M 146.845958 154.463108 Q 67.973031 160.846541, -16.000000 173.879522" stroke-width="0.500000" />
<path stroke="#bec2aa" stroke-opacity="0.501961" fill="none" d="M 225.630231 114.256407 Q 255.573342 93.375435, 271.000000 111.685880" stroke-width="0.500000" />
<path stroke="#2e2f26" stroke-opacity="0.501961" fill="none" d="M 239.351260 172.468470 Q 163.031172 175.221723, 122.704565 186.925189" stroke-width="0.500000" />
<path stroke="#c2af55" stroke-opacity="0.501961" fill="none" d="M 39.160294 111.968751 Q 112.388057 91.188449, 154.988973 110.107867" stroke-width="0.500000" />
<path stroke="#b2bda5" stroke-opacity="0.501961" fill="none" d="M 78.687659 132.656775 Q 53.087457 136.643973, 18.191226 141.130658" stroke-width="0.500000" />
<path stroke="#39392c" stroke-opacity="0.501961" fill="none" d="M 271.000000 130.821246 Q 248.124457 138.642459, 81.209210 159.309959" stroke-width="0.500000" />
<path stroke="#353d3e" stroke-opacity="0.501961" fill="none" d="M 166.973205 124.018569 Q 185.951383 111.919641, 194.641833 122.489840" stroke-width="0.500000" />
<path stroke="#50503c" stroke-opacity="0.501961" fill="none" d="M 187.667097 110.567058 Q 196.612887 130.840090, 210.693032 190.001703" stroke-width="0.500000" />
<path stroke="#d3c486" stroke-opacity="0.501961" fill="none" d="M 228.728579 114.607258 Q 208.384271 89.813645, 141.923970 110.561325" stroke-width="0.500000" />
<path stroke="#66744c" stroke-opacity="0.501961" fill="none" d="M 70.516780 142.152423 Q 104.497647 115.368405, 115.019551 151.760285" stroke-width="0.500000" />
<path stroke="#1a4483" stroke-opacity="0.501961" fill="none" d="M 115.059487 153.510023 Q 38.975920 164.034733, -6.834685 169.700269" stroke-width="0.500000" />
<path stroke="#1d1f2d" stroke-opacity="0.501961" fill="none" d="M 13.688874 143.438318 Q -14.505844 146.523073, -16.000000 152.239147" stroke-width="0.500000" />
<path stroke="#fffbb7" stroke-opacity="0.501961" fill="none" d="M 44.042397 42.631163 Q 53.209846 42.107166, 89.483769 41.450961" stroke-width="0.500000" />
<path stroke="#cbb761" stroke-opacity="0.501961" fill="none" d="M 173.973502 109.919529 Q 127.744858 129.710788, 56.358382 133.388314" stroke-width="0.500000" />
<path stroke="#bd9f2e" stroke-opacity="0.501961" fill="none" d="M 47.311880 108.606509 Q 94.283129 97.712313, 88.047927 138.249254" stroke-width="0.500000" />
<path stroke="#123981" stroke-opacity="0.501961" fill="none" d="M 141.595803 188.712990 Q 148.467557 186.406025, 223.249712 175.549157" stroke-width="0.500000" />
<path stroke="#dacb83" stroke-opacity="0.501961" fill="none" d="M 147.438958 96.693600 Q 192.588219 70.292914, 225.848057 69.720689" stroke-width="0.500000" />
<path stroke="#cbcdbe" stroke-opacity="0.501961" fill="none" d="M 12.928872 71.160799 Q -0.068199 138.678516, 18.773371 144.613669" stroke-width="0.500000" />
<path stroke="#272d2c" stroke-opacity="0.501961" fill="none" d="M 130.605705 151.474996 Q 51.535180 165.490472, -16.000000 176.370988" stroke-width="0.500000" />
<path stroke="#1e2729" stroke-opacity="0.501961" fill="none" d="M 31.086165 198.298600 Q 23.511034 156.899870, -16.000000 174.919469" stroke-width="0.500000" />
<path stroke="#2f332a" stroke-opacity="0.501961" fill="none" d="M 82.916990 190.683787 Q 118.338135 193.083873, 254.894552 165.847924" stroke-width="0.500000" />
<path stroke="#ccc59e" stroke-opacity="0.501961" fill="none" d="M 244.068758 65.123683 Q 109.114173 92.061322, 107.925060 105.256059" stroke-width="0.500000" />
<path stroke="#2d2e24" stroke-opacity="0.501961" fill="none" d="M 271.000000 167.025677 Q 160.103247 175.713420, 123.376871 188.193003" stroke-width="0.500000" />
<path stroke="#bfb597" stroke-opacity="0.501961" fill="none" d="M 107.425514 117.932855 Q 37.797929 150.754087, -16.000000 134.910107" stroke-width="0.500000" />
<path stroke="#272b23" stroke-opacity="0.501961" fill="none" d="M 25.120917 172.862013 Q 74.779917 156.088899, 138.311988 156.710045" stroke-width="0.500000" />
<path stroke="#fff0bb" stroke-opacity="0.501961" fill="none" d="M 0.520663 130.303627 Q 39.442359 123.269036, 40.051301 124.296027" stroke-width="0.500000" />
<path stroke="#9b7828" stroke-opacity="0.501961" fill="none" d="M 72.589343 136.923052 Q 109.901042 118.221270, 138.975258 111.689542" stroke-width="0.500000" />
<path stroke="#c7b95a" stroke-opacity="0.501961" fill="none" d="M 74.501309 89.402057 Q 67.109186 104.207888, 52.662550 141.756856" stroke-width="0.500000" />
<path stroke="#c1b48a" stroke-opacity="0.501961" fill="none" d="M 265.309403 106.074938 Q 175.454555 105.589455, 127.900642 118.868424" stroke-width="0.500000" />
<path stroke="#b68c08" stroke-opacity="0.501961" fill="none" d="M 72.209094 129.584043 Q 81.222422 117.617995, 142.852298 129.050280" stroke-width="0.500000" />
<path stroke="#25292d" stroke-opacity="0.501961" fill="none" d="M 232.172039 120.199080 Q 228.469689 139.992227, 247.594690 194.830739" stroke-width="0.500000" />
<path stroke="#16376e" stroke-opacity="0.501961" fill="none" d="M -16.000000 201.139165 Q 246.047826 167.021471, 262.695220 161.897530" stroke-width="0.500000" />
<path stroke="#ecda9c" stroke-opacity="0.501961" fill="none" d="M -16.000000 26.647711 Q 108.682910 2.010624, 171.411152 16.073786" stroke-width="0.500000" />
<path stroke="#1e3e6b" stroke-opacity="0.501961" fill="none" d="M 79.553979 192.288681 Q 127.099895 166.277046, 99.464229 134.952899" stroke-width="0.500000" />
<path stroke="#f9e6a5" stroke-opacity="0.501961" fill="none" d="M 238.541379 28.187906 Q 227.830172 25.324399, 157.975135 37.609394" stroke-width="0.500000" />
<path stroke="#fff4b8" stroke-opacity="0.501961" fill="none" d="M 53.212736 40.729130 Q 71.145275 46.131158, 121.571518 33.785449" stroke-width="0.500000" />
<path stroke="#20231d" stroke-opacity="0.501961" fill="none" d="M 132.116384 176.776500 Q 126.771269 158.060069, 147.133534 149.497102" stroke-width="0.500000" />
<path stroke="#1a3f7b" stroke-opacity="0.501961" fill="none" d="M 269.612805 133.874951 Q 268.941350 138.088045, 180.533215 151.068359" stroke-width="0.500000" />
<path stroke="#f7e8a7" stroke-opacity="0.501961" fill="none" d="M 187.403172 35.570285 Q 96.523168 33.026913, 79.910352 34.062172" stroke-width="0.500000" />
<path stroke="#b3bcb5" stroke-opacity="0.501961" fill="none" d="M 175.662716 115.490982 Q 204.589523 122.183389, 222.175590 92.716629" stroke-width="0.500000" />
<path stroke="#cdc597" stroke-opacity="0.501961" fill="none" d="M 75.230482 97.529879 Q 95.033170 109.215328, 241.087300 62.084216" stroke-width="0.500000" />
<path stroke="#e4c95e" stroke-opacity="0.501961" fill="none" d="M 195.557143 100.758947 Q 180.900154 99.779211, 147.542844 106.955919" stroke-width="0.500000" />
<path stroke="#c0c4b4" stroke-opacity="0.501961" fill="none" d="M 18.034068 145.497499 Q 36.594160 92.897053, 64.255121 104.511469" stroke-width="0.500000" />
<path stroke="#394140" stroke-opacity="0.501961" fill="none" d="M 260.744071 107.002698 Q 258.443205 107.084858, 229.234793 113.327670" stroke-width="0.500000" />
<path stroke="#e4c853" stroke-opacity="0.501961" fill="none" d="M 64.467919 96.027113 Q 83.014272 112.179645, 118.878401 90.924854" stroke-width="0.500000" />
<path stroke="#272715" stroke-opacity="0.501961" fill="none" d="M 55.553304 151.686821 Q 56.623292 165.060310, 65.445888 207.000000" stroke-width="0.500000" />
<path stroke="#403e33" stroke-opacity="0.501961" fill="none" d="M 212.547805 207.000000 Q 193.400819 115.092764, 189.120754 114.877197" stroke-width="0.500000" />
<path stroke="#c4cecb" stroke-opacity="0.501961" fill="none" d="M 227.475357 62.735731 Q 166.717973 78.032467, 134.186039 95.607184" stroke-width="0.500000" />
<path stroke="#c1990b" stroke-opacity="0.501961" fill="none" d="M 60.549493 130.408566 Q 92.341776 124.411938, 99.737351 117.841206" stroke-width="0.500000" />
<path stroke="#1a3a77" stroke-opacity="0.501961" fill="none" d="M 238.828590 184.537640 Q 249.358838 171.399276, 232.125971 114.234006" stroke-width="0.500000" />
<path stroke="#1c55a4" stroke-opacity="0.501961" fill="none" d="M 111.671388 153.232298 Q 101.120948 155.129001, 100.176184 130.232929" stroke-width="0.500000" />
<path stroke="#b4a45d" stroke-opacity="0.501961" fill="none" d="M 115.185099 155.763697 Q 95.530092 88.820091, 28.060222 135.002971" stroke-width="0.500000" />
<path stroke="#fbeb9d" stroke-opacity="0.501961" fill="none" d="M 88.910670 40.405470 Q 64.820650 34.714065, 43.081891 44.466938" stroke-width="0.500000" />
<path stroke="#1d221f" stroke-opacity="0.501961" fill="none" d="M 128.356801 161.726330 Q 137.838910 152.249127, 172.962100 149.357871" stroke-width="0.500000" />
<path stroke="#123f92" stroke-opacity="0.501961" fill="none" d="M 152.571500 126.529096 Q 164.133654 164.115670, 165.504531 176.473579" stroke-width="0.500000" />
<path stroke="#c9b189" stroke-opacity="0.501961" fill="none" d="M 184.976860 114.734186 Q 129.624004 112.550373, 125.445367 124.976828" stroke-width="0.500000" />
<path stroke="#dac507" stroke-opacity="0.501961" fill="none" d="M 178.017736 117.684755 Q 160.311420 112.135371, 158.732589 123.422918" stroke-width="0.500000" />
<path stroke="#c6a524" stroke-opacity="0.501961" fill="none" d="M 95.700096 108.843408 Q 48.752663 101.109054, 46.998987 111.197274" stroke-width="0.500000" />
<path stroke="#c5b62d" stroke-opacity="0.501961" fill="none" d="M 167.901227 89.766520 Q 162.990990 91.665180, 142.482318 93.739021" stroke-width="0.500000" />
<path stroke="#c2c5b6" stroke-opacity="0.501961" fill="none" d="M 75.777905 121.749533 Q -0.213673 146.765980, -7.135661 137.672636" stroke-width="0.500000" />
<path stroke="#72722d" stroke-opacity="0.501961" fill="none" d="M 110.746873 130.255663 Q 93.622259 128.884122, 65.480801 140.024742" stroke-width="0.500000" />
<path stroke="#263041" stroke-opacity="0.501961" fill="none" d="M 145.116924 123.589286 Q 160.764409 124.525275, 189.285662 117.970505" stroke-width="0.500000" />
<path stroke="#252c2b" stroke-opacity="0.501961" fill="none" d="M 188.970693 144.774628 Q 84.333020 167.866468, 74.757552 161.172086" stroke-width="0.500000" />
<path stroke="#20282c" stroke-opacity="0.501961" fill="none" d="M 58.188581 181.390247 Q 58.634889 142.149440, 47.726039 138.166267" stroke-width="0.500000" />
<path stroke="#4c4a3b" stroke-opacity="0.501961" fill="none" d="M 254.877637 207.000000 Q 239.520095 169.313656, 227.312109 114.302644" stroke-width="0.500000" />
<path stroke="#c2b872" stroke-opacity="0.501961" fill="none" d="M 45.495201 113.220473 Q 92.089308 67.985920, 125.403374 106.012043" stroke-width="0.500000" />
<path stroke="#c5c2b7" stroke-opacity="0.501961" fill="none" d="M 103.519241 112.916050 Q 81.167710 114.003353, 12.673199 114.096097" stroke-width="0.500000" />
<path stroke="#252c33" stroke-opacity="0.501961" fill="none" d="M 232.952292 111.657890 Q 227.385283 115.849321, 255.295896 205.677645" stroke-width="0.500000" />
<path stroke="#feecb0" stroke-opacity="0.501961" fill="none" d="M 39.719978 123.913716 Q 13.791489 127.660947, -16.000000 121.249801" stroke-width="0.500000" />
<path stroke="#b0b5a3" stroke-opacity="0.501961" fill="none" d="M 229.281792 114.340013 Q 202.322599 95.791186, 192.512127 117.960250" stroke-width="0.500000" />
<path stroke="#cebc68" stroke-opacity="0.501961" fill="none" d="M 46.897077 137.677615 Q 92.742410 122.253338, 109.257231 128.102678" stroke-width="0.500000" />
<path stroke="#a7791f" stroke-opacity="0.501961" fill="none" d="M 173.694502 108.080018 Q 82.222808 117.590038, 77.916670 126.019378" stroke-width="0.500000" />
<path stroke="#735d0f" stroke-opacity="0.501961" fill="none" d="M 162.107683 132.368371 Q 156.667233 115.164295, 144.008632 122.582599" stroke-width="0.500000" />
<path stroke="#9a987a" stroke-opacity="0.501961" fill="none" d="M 15.266011 132.030780 Q 48.636558 132.703478, 67.201275 120.582369" stroke-width="0.500000" />
<path stroke="#846d03" stroke-opacity="0.501961" fill="none" d="M 135.437605 120.640528 Q 166.932901 123.229533, 175.615536 118.656894" stroke-width="0.500000" />
<path stroke="#b0b9ab" stroke-opacity="0.501961" fill="none" d="M 199.733829 107.424902 Q 231.168474 119.360655, 271.000000 97.618195" stroke-width="0.500000" />
<path stroke="#b4a557" stroke-opacity="0.501961" fill="none" d="M 125.088528 81.252529 Q 146.245242 104.557384, 142.294897 147.395498" stroke-width="0.500000" />
<path stroke="#223344" stroke-opacity="0.501961" fill="none" d="M 271.000000 166.078306 Q 265.347112 168.518372, 106.009179 191.482115" stroke-width="0.500000" />
<path stroke="#c5b522" stroke-opacity="0.501961" fill="none" d="M 108.875749 83.392483 Q 108.375885 88.887693, 97.989138 88.902074" stroke-width="0.500000" />
<path stroke="#f3dd9c" stroke-opacity="0.501961" fill="none" d="M -14.401805 22.978864 Q 78.022670 15.702306, 104.888668 5.225305" stroke-width="0.500000" />
<path stroke="#b8b890" stroke-opacity="0.501961" fill="none" d="M 41.681832 49.627456 Q 74.098893 44.002226, 124.739819 43.468604" stroke-width="0.500000" />
<path stroke="#c9ae81" stroke-opacity="0.501961" fill="none" d="M 126.987076 92.783663 Q 128.420492 114.200678, 146.470068 108.415086" stroke-width="0.500000" />
<path stroke="#242a38" stroke-opacity="0.501961" fill="none" d="M 251.321616 207.000000 Q 252.870564 172.481050, 230.539400 143.532626" stroke-width="0.500000" />
<path stroke="#f9f0b4" stroke-opacity="0.501961" fill="none" d="M 48.405404 41.205224 Q 101.816584 45.019866, 135.775590 22.831186" stroke-width="0.500000" />
<path stroke="#cebb63" stroke-opacity="0.501961" fill="none" d="M 194.155363 119.884902 Q 188.457716 100.293051, 133.381986 102.324017" stroke-width="0.500000" />
<path stroke="#1e5fbe" stroke-opacity="0.501961" fill="none" d="M 213.446666 181.688683 Q 221.499435 167.864464, 241.275889 185.672620" stroke-width="0.500000" />
<path stroke="#f3e298" stroke-opacity="0.501961" fill="none" d="M 147.525837 85.180490 Q 178.373416 85.853928, 198.167078 80.221099" stroke-width="0.500000" />
<path stroke="#e9d69b" stroke-opacity="0.501961" fill="none" d="M 255.925452 25.989758 Q 129.221653 41.793237, 114.457519 27.195439" stroke-width="0.500000" />
<path stroke="#1d2333" stroke-opacity="0.501961" fill="none" d="M 14.910679 144.626857 Q -11.483743 142.551545, -16.000000 151.287806" stroke-width="0.500000" />
<path stroke="#f7e7a9" stroke-opacity="0.501961" fill="none" d="M 144.814021 16.657989 Q 160.755850 15.850594, 271.000000 1.377239" stroke-width="0.500000" />
<path stroke="#154693" stroke-opacity="0.501961" fill="none" d="M 35.057296 161.835309 Q 7.488294 167.105617, 6.504237 168.678354" stroke-width="0.500000" />
<path stroke="#cabe7b" stroke-opacity="0.501961" fill="none" d="M 56.269719 135.358559 Q 87.920453 125.179644, 106.631474 130.257067" stroke-width="0.500000" />
<path stroke="#363a34" stroke-opacity="0.501961" fill="none" d="M 114.735801 186.092315 Q 162.943236 179.051227, 265.755984 168.441986" stroke-width="0.500000" />
<path stroke="#956c12" stroke-opacity="0.501961" fill="none" d="M 161.883461 128.706403 Q 149.452400 105.013073, 116.340531 118.710506" stroke-width="0.500000" />
<path stroke="#eed902" stroke-opacity="0.501961" fill="none" d="M 174.538023 117.849433 Q 171.943925 116.515804, 157.747142 117.705219" stroke-width="0.500000" />
<path stroke="#c0c08d" stroke-opacity="0.501961" fill="none" d="M 0.264636 111.399311 Q 64.512609 105.056872, 86.753276 101.939281" stroke-width="0.500000" />
<path stroke="#333428" stroke-opacity="0.501961" fill="none" d="M -16.000000 172.752672 Q 31.257374 169.072093, 91.477867 160.103306" stroke-width="0.500000" />
<path stroke="#5c6232" stroke-opacity="0.501961" fill="none" d="M 93.293043 131.783811 Q 90.668041 132.004049, 65.718890 140.436830" stroke-width="0.500000" />
<path stroke="#e5e3d3" stroke-opacity="0.501961" fill="none" d="M -6.514097 104.443700 Q 31.124229 109.200746, 49.164239 100.107006" stroke-width="0.500000" />
<path stroke="#30362d" stroke-opacity="0.501961" fill="none" d="M 271.000000 163.522592 Q 216.733917 178.206785, 41.149751 195.138575" stroke-width="0.500000" />
<path stroke="#b7c5cc" stroke-opacity="0.501961" fill="none" d="M 271.000000 45.339505 Q 213.330397 94.829481, 158.416717 101.197754" stroke-width="0.500000" />
<path stroke="#272f28" stroke-opacity="0.501961" fill="none" d="M -12.710532 177.091029 Q -5.974234 174.055265, 175.423007 150.030700" stroke-width="0.500000" />
<path stroke="#292d24" stroke-opacity="0.501961" fill="none" d="M 9.472891 143.342422 Q 27.741274 145.204407, 24.800235 193.941060" stroke-width="0.500000" />
<path stroke="#f6f4d7" stroke-opacity="0.501961" fill="none" d="M 44.411102 -11.605855 Q 118.981260 20.372827, 209.467578 -16.000000" stroke-width="0.500000" />
<path stroke="#fff0b3" stroke-opacity="0.501961" fill="none" d="M 205.783612 30.870195 Q 227.006135 26.223236, 264.339082 30.273973" stroke-width="0.500000" />
<path stroke="#c5af1b" stroke-opacity="0.501961" fill="none" d="M 190.714133 113.197525 Q 186.704159 110.640603, 151.001970 107.469501" stroke-width="0.500000" />
<path stroke="#235097" stroke-opacity="0.501961" fill="none" d="M 94.320397 135.462178 Q 102.507346 167.647444, 128.229349 146.183889" stroke-width="0.500000" />
<path stroke="#ba983b" stroke-opacity="0.501961" fill="none" d="M 141.019374 140.249879 Q 115.932562 108.300509, 49.591706 121.376327" stroke-width="0.500000" />
<path stroke="#d6cfb8" stroke-opacity="0.501961" fill="none" d="M -0.708605 133.675949 Q 37.920851 111.740265, 98.115508 112.238839" stroke-width="0.500000" />
<path stroke="#335889" stroke-opacity="0.501961" fill="none" d="M 44.821746 127.869990 Q 33.300157 172.191708, 78.314889 165.103616" stroke-width="0.500000" />
<path stroke="#0b3595" stroke-opacity="0.501961" fill="none" d="M 5.960123 145.307033 Q 17.643694 147.108786, 16.484662 166.996623" stroke-width="0.500000" />
<path stroke="#989236" stroke-opacity="0.501961" fill="none" d="M 119.151057 135.285704 Q 128.613037 153.468531, 138.327527 153.119125" stroke-width="0.500000" />
<path stroke="#28353e" stroke-opacity="0.501961" fill="none" d="M 98.676498 169.007929 Q 74.775467 156.400935, 92.650716 131.418219" stroke-width="0.500000" />
<path stroke="#cec88f" stroke-opacity="0.501961" fill="none" d="M 171.613984 85.851194 Q 126.985695 67.901256, 116.807845 102.641564" stroke-width="0.500000" />
<path stroke="#7f7a15" stroke-opacity="0.501961" fill="none" d="M 91.784161 134.375685 Q 86.540232 131.107378, 68.062379 138.399233" stroke-width="0.500000" />
<path stroke="#143368" stroke-opacity="0.501961" fill="none" d="M 212.929403 205.990649 Q 202.649738 180.861986, 192.144318 122.843593" stroke-width="0.500000" />
</g>
</svg>