<svg xmlns="http://www.w3.org/2000/svg" version="1.1" width="1024" height="768">
<rect x="0" y="0" width="1024" height="768" fill="#929d99" />
<g transform="scale(4.000000) translate(0.5 0.5)">
<polygon fill="#00005d" fill-opacity="0.501961" points="271,97 251,207 -16,173" />
<polygon fill="#ffffd4" fill-opacity="0.501961" points="271,6 -16,-16 3,146" />
<polygon fill="#003071" fill-opacity="0.501961" points="7,131 271,172 -16,207" />
<polygon fill="#eee9c6" fill-opacity="0.501961" points="271,6 254,112 104,95" />
<polygon fill="#b78b00" fill-opacity="0.501961" points="171,88 133,160 41,107" />
<polygon fill="#0c4387" fill-opacity="0.501961" points="-16,147 104,130 86,207" />
<polygon fill="#075092" fill-opacity="0.501961" points="271,104 252,207 136,125" />
<polygon fill="#e3cd80" fill-opacity="0.501961" points="86,130 -16,146 129,65" />
<polygon fill="#e0c45c" fill-opacity="0.501961" points="227,110 103,83 156,121" />
<polygon fill="#f1e4ba" fill-opacity="0.501961" points="1,59 271,-1 -16,-15" />
<polygon fill="#412200" fill-opacity="0.501961" points="106,100 108,126 136,108" />
<polygon fill="#162d45" fill-opacity="0.501961" points="208,207 97,205 85,130" />
<polygon fill="#246fc7" fill-opacity="0.501961" points="133,156 224,159 143,179" />
<polygon fill="#242108" fill-opacity="0.501961" points="179,194 160,117 159,165" />
<polygon fill="#1759ac" fill-opacity="0.501961" points="-16,179 74,207 93,163" />
<polygon fill="#201600" fill-opacity="0.501961" points="15,143 25,205 31,167" />
<polygon fill="#ae9700" fill-opacity="0.501961" points="109,154 104,118 144,126" />
<polygon fill="#2b230f" fill-opacity="0.501961" points="56,131 70,207 50,167" />
<polygon fill="#2f2512" fill-opacity="0.501961" points="190,116 206,183 208,145" />
<polygon fill="#312510" fill-opacity="0.501961" points="248,164 248,197 230,139" />
<polygon fill="#0c58b4" fill-opacity="0.501961" points="140,188 249,207 239,173" />
<polygon fill="#3577c4" fill-opacity="0.501961" points="71,195 86,143 60,138" />
<polygon fill="#cecfc7" fill-opacity="0.501961" points="-16,144 41,6 41,138" />
<polygon fill="#c3c9c1" fill-opacity="0.501961" points="91,-10 271,105 193,113" />
<polygon fill="#fffeb8" fill-opacity="0.501961" points="-13,26 145,0 0,-16" />
<polygon fill="#1e2e42" fill-opacity="0.501961" points="58,165 123,145 143,163" />
<polygon fill="#3a89ed" fill-opacity="0.501961" points="239,141 247,165 271,137" />
<polygon fill="#2f2101" fill-opacity="0.501961" points="234,132 257,136 208,146" />
<polygon fill="#cea945" fill-opacity="0.501961" points="65,139 115,122 67,92" />
<polygon fill="#d7b200" fill-opacity="0.501961" points="178,117 146,122 167,103" />
<polygon fill="#352e1e" fill-opacity="0.501961" points="209,182 245,165 176,176" />
<polygon fill="#2767b9" fill-opacity="0.501961" points="229,207 226,115 195,113" />
<polygon fill="#164381" fill-opacity="0.501961" points="143,123 184,117 148,152" />
<polygon fill="#25271f" fill-opacity="0.501961" points="174,176 57,192 103,207" />
<polygon fill="#27241e" fill-opacity="0.501961" points="200,150 170,144 232,137" />
<polygon fill="#1b6fe4" fill-opacity="0.501961" points="235,114 242,135 271,106" />
<polygon fill="#cdc17e" fill-opacity="0.501961" points="185,116 92,88 191,76" />
<polygon fill="#0f59d4" fill-opacity="0.501961" points="98,153 110,154 97,127" />
<polygon fill="#287adc" fill-opacity="0.501961" points="194,148 171,154 194,173" />
<polygon fill="#c4ccd1" fill-opacity="0.501961" points="209,71 136,47 32,90" />
<polygon fill="#0f63dc" fill-opacity="0.501961" points="16,161 -16,176 3,141" />
<polygon fill="#c7c6b4" fill-opacity="0.501961" points="271,13 18,18 60,79" />
<polygon fill="#192828" fill-opacity="0.501961" points="135,153 168,155 190,139" />
<polygon fill="#2e270f" fill-opacity="0.501961" points="216,196 208,166 203,207" />
<polygon fill="#c9c3a1" fill-opacity="0.501961" points="8,105 99,112 67,126" />
<polygon fill="#2c73cb" fill-opacity="0.501961" points="65,183 96,185 88,161" />
<polygon fill="#322f23" fill-opacity="0.501961" points="241,137 240,169 225,111" />
<polygon fill="#2070d8" fill-opacity="0.501961" points="136,159 148,179 165,162" />
<polygon fill="#252715" fill-opacity="0.501961" points="22,163 52,167 -7,176" />
<polygon fill="#342e1a" fill-opacity="0.501961" points="85,153 103,189 92,131" />
<polygon fill="#a39838" fill-opacity="0.501961" points="68,127 51,138 44,123" />
<polygon fill="#b8c6cf" fill-opacity="0.501961" points="149,101 271,52 260,90" />
<polygon fill="#123581" fill-opacity="0.501961" points="123,141 136,203 104,174" />
<polygon fill="#a29a13" fill-opacity="0.501961" points="143,127 101,127 142,154" />
<polygon fill="#49431d" fill-opacity="0.501961" points="100,115 132,111 122,96" />
<polygon fill="#b6b89d" fill-opacity="0.501961" points="116,41 207,58 271,29" />
<polygon fill="#33270a" fill-opacity="0.501961" points="88,159 52,168 66,158" />
<polygon fill="#1b6cd2" fill-opacity="0.501961" points="144,124 162,146 144,145" />
<polygon fill="#1b63c2" fill-opacity="0.501961" points="55,170 28,173 55,207" />
<polygon fill="#473706" fill-opacity="0.501961" points="157,127 152,121 178,119" />
<polygon fill="#0e43a9" fill-opacity="0.501961" points="22,166 41,138 55,161" />
<polygon fill="#ce9700" fill-opacity="0.501961" points="78,110 99,103 65,104" />
<polygon fill="#30291b" fill-opacity="0.501961" points="243,171 203,176 225,167" />
<polygon fill="#0953bc" fill-opacity="0.501961" points="19,172 -16,187 28,207" />
<polygon fill="#d2d4ce" fill-opacity="0.501961" points="-16,76 9,23 105,96" />
<polygon fill="#2471ce" fill-opacity="0.501961" points="237,165 210,165 232,145" />
<polygon fill="#2b2d29" fill-opacity="0.501961" points="167,150 181,200 163,180" />
<polygon fill="#c6953c" fill-opacity="0.501961" points="136,127 132,104 174,104" />
<polygon fill="#eddca3" fill-opacity="0.501961" points="271,1 214,-14 135,19" />
<polygon fill="#2a74d1" fill-opacity="0.501961" points="214,175 224,207 240,178" />
<polygon fill="#2d75cd" fill-opacity="0.501961" points="85,132 83,157 57,159" />
<polygon fill="#222420" fill-opacity="0.501961" points="120,154 135,157 141,194" />
<polygon fill="#1446a2" fill-opacity="0.501961" points="166,145 191,141 188,114" />
<polygon fill="#1e71dd" fill-opacity="0.501961" points="90,193 144,207 133,188" />
<polygon fill="#276ec1" fill-opacity="0.501961" points="204,168 177,175 169,150" />
<polygon fill="#bdc7c5" fill-opacity="0.501961" points="271,26 194,110 228,112" />
<polygon fill="#f9ecac" fill-opacity="0.501961" points="74,41 143,33 109,27" />
<polygon fill="#8b973a" fill-opacity="0.501961" points="111,153 102,131 121,143" />
<polygon fill="#286cc5" fill-opacity="0.501961" points="218,112 201,138 230,137" />
<polygon fill="#a97403" fill-opacity="0.501961" points="109,137 136,110 108,123" />
<polygon fill="#231800" fill-opacity="0.501961" points="244,168 271,169 271,157" />
<polygon fill="#d3c267" fill-opacity="0.501961" points="92,104 101,84 141,85" />
<polygon fill="#c9cbb8" fill-opacity="0.501961" points="19,143 85,59 -16,111" />
<polygon fill="#dad38a" fill-opacity="0.501961" points="83,87 53,120 50,97" />
<polygon fill="#353228" fill-opacity="0.501961" points="190,118 197,115 202,142" />
<polygon fill="#26281c" fill-opacity="0.501961" points="80,207 71,191 140,181" />
<polygon fill="#292411" fill-opacity="0.501961" points="226,116 231,111 236,134" />
<polygon fill="#42495e" fill-opacity="0.501961" points="41,129 46,124 58,125" />
<polygon fill="#1759ba" fill-opacity="0.501961" points="137,157 167,175 161,154" />
<polygon fill="#bf9200" fill-opacity="0.501961" points="96,118 84,127 71,126" />
<polygon fill="#cfb100" fill-opacity="0.501961" points="156,122 152,117 172,116" />
<polygon fill="#eee1b1" fill-opacity="0.501961" points="236,20 271,30 201,30" />
<polygon fill="#283136" fill-opacity="0.501961" points="263,133 236,132 211,147" />
<polygon fill="#032875" fill-opacity="0.501961" points="271,104 237,111 271,113" />
<polygon fill="#093a9d" fill-opacity="0.501961" points="98,151 101,133 93,130" />
<polygon fill="#0b46a0" fill-opacity="0.501961" points="203,176 184,181 213,207" />
<polygon fill="#272b2a" fill-opacity="0.501961" points="31,196 21,140 15,165" />
<polygon fill="#1b5fbe" fill-opacity="0.501961" points="204,147 209,161 230,144" />
<polygon fill="#bbc8d1" fill-opacity="0.501961" points="121,90 137,60 111,76" />
<polygon fill="#d1c16a" fill-opacity="0.501961" points="177,105 144,115 191,114" />
<polygon fill="#2870cc" fill-opacity="0.501961" points="238,133 255,109 271,128" />
<polygon fill="#162a4f" fill-opacity="0.501961" points="-2,144 15,142 20,148" />
<polygon fill="#feea9b" fill-opacity="0.501961" points="171,85 154,79 136,83" />
<polygon fill="#bcbe9f" fill-opacity="0.501961" points="55,45 155,36 102,58" />
<polygon fill="#d3c069" fill-opacity="0.501961" points="49,115 86,117 57,135" />
<polygon fill="#1b5db6" fill-opacity="0.501961" points="61,157 78,141 56,135" />
<polygon fill="#828217" fill-opacity="0.501961" points="66,139 91,131 78,130" />
<polygon fill="#bbc0b7" fill-opacity="0.501961" points="64,114 -16,119 -13,92" />
<polygon fill="#fceaa1" fill-opacity="0.501961" points="33,104 14,97 53,98" />
<polygon fill="#cecaaf" fill-opacity="0.501961" points="199,-5 63,15 121,33" />
<polygon fill="#272e34" fill-opacity="0.501961" points="167,178 171,149 158,129" />
<polygon fill="#b6bdaf" fill-opacity="0.501961" points="17,128 -8,145 52,129" />
<polygon fill="#1855be" fill-opacity="0.501961" points="256,169 247,172 259,204" />
<polygon fill="#1958ac" fill-opacity="0.501961" points="25,195 54,167 64,207" />
<polygon fill="#c2c7c8" fill-opacity="0.501961" points="190,27 266,-13 271,22" />
<polygon fill="#adae98" fill-opacity="0.501961" points="199,85 148,103 174,84" />
<polygon fill="#5f674f" fill-opacity="0.501961" points="106,100 101,114 124,98" />
<polygon fill="#2a3025" fill-opacity="0.501961" points="153,149 105,155 128,161" />
<polygon fill="#cab885" fill-opacity="0.501961" points="86,131 110,126 95,125" />
<polygon fill="#201f02" fill-opacity="0.501961" points="-16,182 14,167 -16,173" />
<polygon fill="#c3c9c6" fill-opacity="0.501961" points="74,15 135,20 32,43" />
<polygon fill="#cbd0c5" fill-opacity="0.501961" points="9,69 98,99 91,60" />
<polygon fill="#939641" fill-opacity="0.501961" points="142,144 137,155 113,133" />
<polygon fill="#29281c" fill-opacity="0.501961" points="61,200 74,207 59,166" />
<polygon fill="#343835" fill-opacity="0.501961" points="215,192 202,175 203,147" />
<polygon fill="#cba672" fill-opacity="0.501961" points="123,125 132,114 151,118" />
<polygon fill="#f2e7bb" fill-opacity="0.501961" points="34,124 -4,122 -16,136" />
<polygon fill="#b18c09" fill-opacity="0.501961" points="111,116 142,125 117,143" />
</g>
</svg>