<svg xmlns="http://www.w3.org/2000/svg" version="1.1" width="4096" height="3072">
<rect x="0" y="0" width="4096" height="3072" fill="#939d99" />
<g transform="scale(4.000000) translate(0.5 0.5)">
<rect fill="#000018" fill-opacity="0.501961" x="386" y="730" width="414" height="9" />
<rect fill="#000015" fill-opacity="0.501961" x="127" y="640" width="434" height="9" />
<rect fill="#00002f" fill-opacity="0.501961" x="371" y="704" width="538" height="9" />
<rect fill="#000017" fill-opacity="0.501961" x="268" y="746" width="339" height="9" />
<rect fill="#000028" fill-opacity="0.501961" x="315" y="627" width="386" height="9" />
<rect fill="#00000b" fill-opacity="0.501961" x="196" y="649" width="306" height="9" />
<rect fill="#000033" fill-opacity="0.501961" x="83" y="661" width="382" height="9" />
<rect fill="#000034" fill-opacity="0.501961" x="219" y="757" width="444" height="9" />
<rect fill="#000010" fill-opacity="0.501961" x="510" y="717" width="323" height="9" />
<rect fill="#00005a" fill-opacity="0.501961" x="191" y="695" width="755" height="9" />
<rect fill="#000079" fill-opacity="0.501961" x="0" y="618" width="411" height="9" />
<rect fill="#000064" fill-opacity="0.501961" x="162" y="670" width="559" height="9" />
<rect fill="#00007a" fill-opacity="0.501961" x="0" y="609" width="440" height="9" />
<rect fill="#00007c" fill-opacity="0.501961" x="0" y="599" width="435" height="9" />
<rect fill="#000035" fill-opacity="0.501961" x="574" y="570" width="424" height="9" />
<rect fill="#00007c" fill-opacity="0.501961" x="69" y="719" width="411" height="9" />
<rect fill="#000000" fill-opacity="0.501961" x="0" y="676" width="231" height="9" />
<rect fill="#000036" fill-opacity="0.501961" x="642" y="561" width="377" height="9" />
<rect fill="#00004a" fill-opacity="0.501961" x="448" y="614" width="443" height="9" />
<rect fill="#000045" fill-opacity="0.501961" x="521" y="684" width="488" height="9" />
<rect fill="#00006f" fill-opacity="0.501961" x="549" y="739" width="475" height="9" />
<rect fill="#00002d" fill-opacity="0.501961" x="477" y="605" width="367" height="9" />
<rect fill="#000046" fill-opacity="0.501961" x="592" y="579" width="432" height="9" />
<rect fill="#000058" fill-opacity="0.501961" x="0" y="687" width="326" height="8" />
<rect fill="#000283" fill-opacity="0.501961" x="0" y="580" width="431" height="9" />
<rect fill="#000012" fill-opacity="0.501961" x="552" y="590" width="286" height="9" />
<rect fill="#000591" fill-opacity="0.501961" x="0" y="735" width="335" height="9" />
<rect fill="#000081" fill-opacity="0.501961" x="656" y="759" width="368" height="9" />
<rect fill="#000059" fill-opacity="0.501961" x="675" y="540" width="349" height="9" />
<rect fill="#00007d" fill-opacity="0.501961" x="0" y="629" width="232" height="9" />
<rect fill="#00078c" fill-opacity="0.501961" x="443" y="661" width="337" height="9" />
<rect fill="#000286" fill-opacity="0.501961" x="673" y="529" width="335" height="9" />
<rect fill="#000988" fill-opacity="0.501961" x="568" y="495" width="456" height="9" />
<rect fill="#000a95" fill-opacity="0.501961" x="0" y="707" width="308" height="9" />
<rect fill="#00078c" fill-opacity="0.501961" x="577" y="519" width="429" height="9" />
<rect fill="#000991" fill-opacity="0.501961" x="5" y="746" width="296" height="9" />
<rect fill="#000c93" fill-opacity="0.501961" x="713" y="472" width="307" height="9" />
<rect fill="#000040" fill-opacity="0.501961" x="713" y="674" width="291" height="9" />
<rect fill="#00179f" fill-opacity="0.501961" x="585" y="641" width="403" height="9" />
<rect fill="#000040" fill-opacity="0.501961" x="810" y="549" width="214" height="9" />
<rect fill="#000032" fill-opacity="0.501961" x="357" y="682" width="198" height="9" />
<rect fill="#000a7b" fill-opacity="0.501961" x="669" y="596" width="277" height="9" />
<rect fill="#00006f" fill-opacity="0.501961" x="147" y="557" width="264" height="9" />
<rect fill="#000000" fill-opacity="0.501961" x="367" y="739" width="181" height="7" />
<rect fill="#000063" fill-opacity="0.501961" x="0" y="695" width="199" height="9" />
<rect fill="#000ca0" fill-opacity="0.501961" x="748" y="748" width="217" height="9" />
<rect fill="#000757" fill-opacity="0.501961" x="37" y="759" width="373" height="9" />
<rect fill="#000062" fill-opacity="0.501961" x="762" y="665" width="236" height="9" />
<rect fill="#000081" fill-opacity="0.501961" x="0" y="649" width="190" height="9" />
<rect fill="#001fa8" fill-opacity="0.501961" x="712" y="625" width="312" height="9" />
<rect fill="#000f94" fill-opacity="0.501961" x="746" y="726" width="278" height="9" />
<rect fill="#000042" fill-opacity="0.501961" x="414" y="748" width="319" height="9" />
<rect fill="#00017f" fill-opacity="0.501961" x="606" y="506" width="251" height="9" />
<rect fill="#000473" fill-opacity="0.501961" x="786" y="656" width="238" height="9" />
<rect fill="#000075" fill-opacity="0.501961" x="12" y="590" width="208" height="9" />
<rect fill="#00007d" fill-opacity="0.501961" x="591" y="552" width="190" height="9" />
<rect fill="#ffffe9" fill-opacity="0.501961" x="0" y="0" width="433" height="9" />
<rect fill="#000063" fill-opacity="0.501961" x="27" y="570" width="199" height="9" />
<rect fill="#000a97" fill-opacity="0.501961" x="779" y="463" width="227" height="9" />
<rect fill="#000014" fill-opacity="0.501961" x="4" y="667" width="160" height="9" />
<rect fill="#002199" fill-opacity="0.501961" x="790" y="634" width="234" height="8" />
<rect fill="#00002b" fill-opacity="0.501961" x="226" y="631" width="337" height="9" />
<rect fill="#000047" fill-opacity="0.501961" x="416" y="713" width="229" height="9" />
<rect fill="#000682" fill-opacity="0.501961" x="813" y="713" width="211" height="9" />
<rect fill="#ffffe4" fill-opacity="0.501961" x="2" y="13" width="434" height="9" />
<rect fill="#0017ad" fill-opacity="0.501961" x="792" y="481" width="214" height="9" />
<rect fill="#712900" fill-opacity="0.501961" x="417" y="449" width="182" height="9" />
<rect fill="#314310" fill-opacity="0.501961" x="190" y="548" width="366" height="9" />
<rect fill="#e58f00" fill-opacity="0.501961" x="305" y="491" width="259" height="9" />
<rect fill="#000421" fill-opacity="0.501961" x="576" y="486" width="228" height="9" />
<rect fill="#df9800" fill-opacity="0.501961" x="308" y="501" width="254" height="9" />
<rect fill="#ffffd4" fill-opacity="0.501961" x="2" y="56" width="235" height="9" />
<rect fill="#000000" fill-opacity="0.501961" x="352" y="618" width="219" height="9" />
<rect fill="#00119b" fill-opacity="0.501961" x="0" y="638" width="189" height="9" />
<rect fill="#001194" fill-opacity="0.501961" x="513" y="652" width="240" height="9" />
<rect fill="#ffffc7" fill-opacity="0.501961" x="155" y="30" width="251" height="9" />
<rect fill="#000004" fill-opacity="0.501961" x="484" y="722" width="232" height="8" />
<rect fill="#430d00" fill-opacity="0.501961" x="406" y="438" width="132" height="9" />
<rect fill="#956c00" fill-opacity="0.501961" x="374" y="520" width="189" height="9" />
<rect fill="#ffb900" fill-opacity="0.501961" x="189" y="426" width="201" height="9" />
<rect fill="#0025ae" fill-opacity="0.501961" x="823" y="509" width="181" height="9" />
<rect fill="#001207" fill-opacity="0.501961" x="473" y="598" width="239" height="9" />
<rect fill="#ffffbc" fill-opacity="0.501961" x="370" y="132" width="345" height="9" />
<rect fill="#ffffce" fill-opacity="0.501961" x="0" y="37" width="200" height="9" />
<rect fill="#00098f" fill-opacity="0.501961" x="824" y="455" width="196" height="8" />
<rect fill="#0020aa" fill-opacity="0.501961" x="845" y="606" width="179" height="9" />
<rect fill="#622d00" fill-opacity="0.501961" x="417" y="425" width="162" height="9" />
<rect fill="#001182" fill-opacity="0.501961" x="199" y="567" width="226" height="9" />
<rect fill="#001391" fill-opacity="0.501961" x="47" y="726" width="157" height="9" />
<rect fill="#e49500" fill-opacity="0.501961" x="459" y="467" width="255" height="9" />
<rect fill="#fffff4" fill-opacity="0.501961" x="362" y="4" width="211" height="9" />
<rect fill="#00168c" fill-opacity="0.501961" x="575" y="543" width="206" height="9" />
<rect fill="#00117f" fill-opacity="0.501961" x="205" y="679" width="378" height="8" />
<rect fill="#002591" fill-opacity="0.501961" x="777" y="647" width="242" height="9" />
<rect fill="#ffffb2" fill-opacity="0.501961" x="539" y="49" width="241" height="9" />
<rect fill="#a47c00" fill-opacity="0.501961" x="409" y="529" width="173" height="9" />
<rect fill="#000052" fill-opacity="0.501961" x="349" y="688" width="196" height="9" />
<rect fill="#374405" fill-opacity="0.501961" x="252" y="538" width="216" height="9" />
<rect fill="#d28000" fill-opacity="0.501961" x="357" y="477" width="272" height="9" />
<rect fill="#00128b" fill-opacity="0.501961" x="269" y="590" width="162" height="9" />
<rect fill="#001e9c" fill-opacity="0.501961" x="178" y="728" width="186" height="8" />
<rect fill="#ffffc7" fill-opacity="0.501961" x="38" y="46" width="311" height="9" />
<rect fill="#6a2400" fill-opacity="0.501961" x="401" y="458" width="138" height="9" />
<rect fill="#000017" fill-opacity="0.501961" x="615" y="709" width="206" height="9" />
<rect fill="#ffffdf" fill-opacity="0.501961" x="297" y="141" width="223" height="9" />
<rect fill="#fffff4" fill-opacity="0.501961" x="1" y="203" width="247" height="9" />
<rect fill="#002194" fill-opacity="0.501961" x="781" y="587" width="241" height="9" />
<rect fill="#ffffd8" fill-opacity="0.501961" x="0" y="65" width="150" height="9" />
<rect fill="#001787" fill-opacity="0.501961" x="577" y="534" width="184" height="9" />
<rect fill="#ffffcf" fill-opacity="0.501961" x="288" y="122" width="276" height="9" />
<rect fill="#00078a" fill-opacity="0.501961" x="907" y="704" width="117" height="9" />
<rect fill="#ffffc6" fill-opacity="0.501961" x="729" y="21" width="268" height="9" />
<rect fill="#000d51" fill-opacity="0.501961" x="46" y="658" width="368" height="9" />
<rect fill="#0038ac" fill-opacity="0.501961" x="787" y="486" width="224" height="9" />
<rect fill="#fcb800" fill-opacity="0.501961" x="206" y="418" width="208" height="9" />
<rect fill="#8c6b00" fill-opacity="0.501961" x="434" y="510" width="169" height="9" />
<rect fill="#ffffe3" fill-opacity="0.501961" x="0" y="165" width="306" height="9" />
<rect fill="#ffffdd" fill-opacity="0.501961" x="435" y="13" width="216" height="9" />
<rect fill="#ffffd0" fill-opacity="0.501961" x="828" y="109" width="196" height="9" />
<rect fill="#0025aa" fill-opacity="0.501961" x="869" y="616" width="155" height="9" />
<rect fill="#00008b" fill-opacity="0.501961" x="918" y="446" width="106" height="9" />
<rect fill="#002b8a" fill-opacity="0.501961" x="55" y="712" width="360" height="9" />
<rect fill="#002676" fill-opacity="0.501961" x="11" y="751" width="412" height="9" />
<rect fill="#fcb900" fill-opacity="0.501961" x="578" y="426" width="149" height="9" />
<rect fill="#000c2d" fill-opacity="0.501961" x="756" y="693" width="253" height="9" />
<rect fill="#ffff8f" fill-opacity="0.501961" x="98" y="394" width="266" height="9" />
<rect fill="#003891" fill-opacity="0.501961" x="24" y="703" width="272" height="9" />
<rect fill="#ffffe3" fill-opacity="0.501961" x="0" y="24" width="169" height="9" />
<rect fill="#ffffd5" fill-opacity="0.501961" x="0" y="75" width="353" height="9" />
<rect fill="#0033b0" fill-opacity="0.501961" x="538" y="635" width="213" height="9" />
<rect fill="#ffffde" fill-opacity="0.501961" x="0" y="88" width="251" height="9" />
<rect fill="#002587" fill-opacity="0.501961" x="577" y="510" width="234" height="9" />
<rect fill="#ffffe5" fill-opacity="0.501961" x="0" y="192" width="236" height="9" />
<rect fill="#ffffcf" fill-opacity="0.501961" x="172" y="21" width="212" height="9" />
<rect fill="#0040b3" fill-opacity="0.501961" x="819" y="502" width="205" height="9" />
<rect fill="#004abe" fill-opacity="0.501961" x="547" y="675" width="266" height="9" />
<rect fill="#b58c00" fill-opacity="0.501961" x="435" y="538" width="142" height="9" />
<rect fill="#ffffec" fill-opacity="0.501961" x="2" y="103" width="167" height="9" />
<rect fill="#ffffcd" fill-opacity="0.501961" x="0" y="494" width="158" height="9" />
<rect fill="#fffffc" fill-opacity="0.501961" x="4" y="226" width="224" height="9" />
<rect fill="#ffffc5" fill-opacity="0.501961" x="689" y="30" width="335" height="9" />
<rect fill="#ffffee" fill-opacity="0.501961" x="0" y="135" width="306" height="9" />
<rect fill="#ffffc1" fill-opacity="0.501961" x="246" y="151" width="173" height="9" />
<rect fill="#927d00" fill-opacity="0.501961" x="412" y="557" width="141" height="9" />
<rect fill="#003b96" fill-opacity="0.501961" x="129" y="576" width="293" height="9" />
<rect fill="#ffffc9" fill-opacity="0.501961" x="396" y="60" width="295" height="9" />
<rect fill="#331f00" fill-opacity="0.501961" x="413" y="417" width="102" height="9" />
<rect fill="#fffff7" fill-opacity="0.501961" x="0" y="253" width="229" height="9" />
<rect fill="#000000" fill-opacity="0.501961" x="2" y="685" width="119" height="9" />
<rect fill="#ffc116" fill-opacity="0.501961" x="572" y="437" width="199" height="9" />
<rect fill="#001c6c" fill-opacity="0.501961" x="89" y="562" width="160" height="9" />
<rect fill="#1a2b00" fill-opacity="0.501961" x="636" y="477" width="154" height="9" />
<rect fill="#003698" fill-opacity="0.501961" x="788" y="734" width="236" height="9" />
<rect fill="#ffffb9" fill-opacity="0.501961" x="138" y="39" width="263" height="9" />
<rect fill="#ffffd4" fill-opacity="0.501961" x="358" y="22" width="203" height="9" />
<rect fill="#ffffdb" fill-opacity="0.501961" x="384" y="0" width="351" height="9" />
<rect fill="#ffffea" fill-opacity="0.501961" x="6" y="123" width="291" height="9" />
<rect fill="#000047" fill-opacity="0.501961" x="400" y="653" width="153" height="9" />
<rect fill="#ffffee" fill-opacity="0.501961" x="91" y="322" width="417" height="9" />
<rect fill="#ffffc0" fill-opacity="0.501961" x="75" y="403" width="183" height="9" />
<rect fill="#fffff5" fill-opacity="0.501961" x="0" y="289" width="237" height="9" />
<rect fill="#fffff2" fill-opacity="0.501961" x="0" y="184" width="195" height="9" />
<rect fill="#00229e" fill-opacity="0.501961" x="563" y="623" width="146" height="9" />
<rect fill="#ffffb7" fill-opacity="0.501961" x="597" y="39" width="272" height="9" />
<rect fill="#ffffc2" fill-opacity="0.501961" x="709" y="119" width="243" height="9" />
<rect fill="#fffff8" fill-opacity="0.501961" x="5" y="242" width="150" height="9" />
<rect fill="#000042" fill-opacity="0.501961" x="964" y="750" width="57" height="9" />
<rect fill="#fffff1" fill-opacity="0.501961" x="7" y="338" width="322" height="9" />
<rect fill="#000562" fill-opacity="0.501961" x="353" y="727" width="126" height="9" />
<rect fill="#ffd010" fill-opacity="0.501961" x="564" y="458" width="158" height="9" />
<rect fill="#002159" fill-opacity="0.501961" x="743" y="552" width="281" height="9" />
<rect fill="#002584" fill-opacity="0.501961" x="580" y="528" width="185" height="8" />
<rect fill="#ffffee" fill-opacity="0.501961" x="0" y="144" width="201" height="9" />
<rect fill="#ffffef" fill-opacity="0.501961" x="0" y="262" width="377" height="9" />
<rect fill="#fffff3" fill-opacity="0.501961" x="118" y="308" width="287" height="9" />
<rect fill="#fffeec" fill-opacity="0.501961" x="207" y="252" width="438" height="9" />
<rect fill="#ffffd6" fill-opacity="0.501961" x="171" y="331" width="302" height="8" />
<rect fill="#ffffa0" fill-opacity="0.501961" x="465" y="334" width="245" height="9" />
<rect fill="#003188" fill-opacity="0.501961" x="0" y="622" width="271" height="9" />
<rect fill="#003ca6" fill-opacity="0.501961" x="860" y="718" width="164" height="9" />
<rect fill="#887d00" fill-opacity="0.501961" x="423" y="567" width="155" height="9" />
<rect fill="#003a8c" fill-opacity="0.501961" x="0" y="741" width="263" height="9" />
<rect fill="#00050e" fill-opacity="0.501961" x="913" y="534" width="111" height="9" />
<rect fill="#ffffcf" fill-opacity="0.501961" x="374" y="48" width="165" height="9" />
<rect fill="#ffffd6" fill-opacity="0.501961" x="335" y="100" width="222" height="9" />
<rect fill="#fffff1" fill-opacity="0.501961" x="60" y="271" width="382" height="9" />
<rect fill="#003d99" fill-opacity="0.501961" x="708" y="750" width="221" height="9" />
<rect fill="#f9faed" fill-opacity="0.501961" x="449" y="242" width="355" height="9" />
<rect fill="#ffffc0" fill-opacity="0.501961" x="771" y="8" width="203" height="9" />
<rect fill="#fefdef" fill-opacity="0.501961" x="0" y="348" width="355" height="9" />
<rect fill="#ffee4e" fill-opacity="0.501961" x="241" y="407" width="171" height="9" />
<rect fill="#fff782" fill-opacity="0.501961" x="372" y="353" width="218" height="9" />
<rect fill="#fffff0" fill-opacity="0.501961" x="4" y="279" width="279" height="9" />
<rect fill="#000064" fill-opacity="0.501961" x="960" y="437" width="64" height="9" />
<rect fill="#cc8200" fill-opacity="0.501961" x="329" y="486" width="194" height="9" />
<rect fill="#fef9e9" fill-opacity="0.501961" x="709" y="69" width="288" height="9" />
<rect fill="#ffc900" fill-opacity="0.501961" x="228" y="435" width="126" height="9" />
<rect fill="#000000" fill-opacity="0.501961" x="941" y="664" width="83" height="9" />
<rect fill="#533400" fill-opacity="0.501961" x="408" y="431" width="133" height="9" />
<rect fill="#813500" fill-opacity="0.501961" x="391" y="467" width="116" height="9" />
<rect fill="#ffd949" fill-opacity="0.501961" x="512" y="406" width="231" height="9" />
<rect fill="#fcf9e7" fill-opacity="0.501961" x="402" y="222" width="327" height="9" />
<rect fill="#ffc72e" fill-opacity="0.501961" x="552" y="447" width="193" height="9" />
<rect fill="#ffffcd" fill-opacity="0.501961" x="125" y="62" width="285" height="9" />
<rect fill="#ffffee" fill-opacity="0.501961" x="1" y="216" width="159" height="9" />
<rect fill="#001937" fill-opacity="0.501961" x="572" y="582" width="228" height="9" />
<rect fill="#fffecb" fill-opacity="0.501961" x="0" y="474" width="231" height="9" />
<rect fill="#fffde8" fill-opacity="0.501961" x="0" y="360" width="280" height="9" />
<rect fill="#0f2213" fill-opacity="0.501961" x="320" y="529" width="91" height="9" />
<rect fill="#fffff9" fill-opacity="0.501961" x="0" y="114" width="103" height="9" />
<rect fill="#d4ac1a" fill-opacity="0.501961" x="169" y="510" width="208" height="9" />
<rect fill="#ffffcd" fill-opacity="0.501961" x="17" y="5" width="198" height="9" />
<rect fill="#002b80" fill-opacity="0.501961" x="501" y="644" width="198" height="9" />
<rect fill="#ffffef" fill-opacity="0.501961" x="245" y="287" width="200" height="9" />
<rect fill="#fbf8e7" fill-opacity="0.501961" x="738" y="375" width="286" height="9" />
<rect fill="#f8f6e5" fill-opacity="0.501961" x="737" y="390" width="287" height="9" />
<rect fill="#fffdb8" fill-opacity="0.501961" x="43" y="386" width="301" height="9" />
<rect fill="#ffffeb" fill-opacity="0.501961" x="0" y="155" width="197" height="9" />
<rect fill="#fffff5" fill-opacity="0.501961" x="19" y="417" width="158" height="9" />
<rect fill="#fff7d6" fill-opacity="0.501961" x="161" y="112" width="300" height="9" />
<rect fill="#ffffe7" fill-opacity="0.501961" x="0" y="508" width="105" height="9" />
<rect fill="#ffffbc" fill-opacity="0.501961" x="725" y="0" width="276" height="9" />
<rect fill="#ffffc3" fill-opacity="0.501961" x="876" y="90" width="148" height="9" />
<rect fill="#fffbb3" fill-opacity="0.501961" x="217" y="53" width="207" height="9" />
<rect fill="#ffffc0" fill-opacity="0.501961" x="2" y="32" width="340" height="9" />
<rect fill="#f9fdf5" fill-opacity="0.501961" x="439" y="262" width="249" height="9" />
<rect fill="#ffffd8" fill-opacity="0.501961" x="302" y="160" width="97" height="9" />
<rect fill="#fbf6e1" fill-opacity="0.501961" x="392" y="91" width="341" height="9" />
<rect fill="#ffffb7" fill-opacity="0.501961" x="676" y="128" width="168" height="9" />
<rect fill="#ffffce" fill-opacity="0.501961" x="566" y="141" width="195" height="9" />
<rect fill="#13392f" fill-opacity="0.501961" x="351" y="588" width="156" height="9" />
<rect fill="#fffec0" fill-opacity="0.501961" x="336" y="33" width="262" height="9" />
<rect fill="#040e00" fill-opacity="0.501961" x="810" y="683" width="156" height="9" />
<rect fill="#003bc9" fill-opacity="0.501961" x="0" y="720" width="84" height="9" />
<rect fill="#fffec6" fill-opacity="0.501961" x="409" y="69" width="273" height="8" />
<rect fill="#f2faf9" fill-opacity="0.501961" x="393" y="296" width="299" height="9" />
<rect fill="#003ca4" fill-opacity="0.501961" x="894" y="596" width="127" height="9" />
<rect fill="#e5bf00" fill-opacity="0.501961" x="592" y="473" width="99" height="9" />
<rect fill="#fffff8" fill-opacity="0.501961" x="0" y="174" width="140" height="9" />
<rect fill="#f3f6ee" fill-opacity="0.501961" x="348" y="280" width="254" height="9" />
<rect fill="#fff9cb" fill-opacity="0.501961" x="595" y="10" width="193" height="9" />
<rect fill="#4a4200" fill-opacity="0.501961" x="417" y="407" width="90" height="9" />
<rect fill="#0042a5" fill-opacity="0.501961" x="534" y="689" width="227" height="9" />
<rect fill="#ffffe2" fill-opacity="0.501961" x="0" y="483" width="141" height="9" />
<rect fill="#fffff2" fill-opacity="0.501961" x="17" y="374" width="168" height="9" />
<rect fill="#c3a300" fill-opacity="0.501961" x="410" y="548" width="169" height="9" />
<rect fill="#fff8b0" fill-opacity="0.501961" x="523" y="323" width="229" height="9" />
<rect fill="#00378e" fill-opacity="0.501961" x="0" y="646" width="232" height="9" />
<rect fill="#fff176" fill-opacity="0.501961" x="353" y="362" width="213" height="9" />
<rect fill="#003cd5" fill-opacity="0.501961" x="297" y="703" width="78" height="9" />
<rect fill="#f4cc17" fill-opacity="0.501961" x="200" y="520" width="140" height="9" />
<rect fill="#fffce9" fill-opacity="0.501961" x="0" y="302" width="175" height="9" />
<rect fill="#fbf7e2" fill-opacity="0.501961" x="707" y="102" width="226" height="9" />
<rect fill="#ffffbd" fill-opacity="0.501961" x="302" y="131" width="174" height="9" />
<rect fill="#001ab2" fill-opacity="0.501961" x="578" y="561" width="63" height="9" />
<rect fill="#fff5cb" fill-opacity="0.501961" x="476" y="79" width="285" height="9" />
<rect fill="#000800" fill-opacity="0.501961" x="220" y="549" width="9" height="110" />
<rect fill="#121c00" fill-opacity="0.501961" x="923" y="447" width="9" height="141" />
<rect fill="#101400" fill-opacity="0.501961" x="87" y="622" width="9" height="140" />
<rect fill="#151500" fill-opacity="0.501961" x="950" y="591" width="9" height="101" />
<rect fill="#004cb7" fill-opacity="0.501961" x="1015" y="425" width="9" height="343" />
<rect fill="#0a1300" fill-opacity="0.501961" x="663" y="616" width="9" height="125" />
<rect fill="#e8e8d0" fill-opacity="0.501961" x="819" y="146" width="9" height="305" />
<rect fill="#e8e7d6" fill-opacity="0.501961" x="936" y="0" width="9" height="442" />
<rect fill="#101700" fill-opacity="0.501961" x="239" y="639" width="9" height="129" />
<rect fill="#e7e9db" fill-opacity="0.501961" x="925" y="129" width="9" height="309" />
<rect fill="#0d210a" fill-opacity="0.501961" x="914" y="445" width="9" height="106" />
<rect fill="#010e00" fill-opacity="0.501961" x="67" y="580" width="9" height="91" />
<rect fill="#003198" fill-opacity="0.501961" x="0" y="657" width="9" height="111" />
<rect fill="#091400" fill-opacity="0.501961" x="97" y="644" width="9" height="124" />
<rect fill="#142010" fill-opacity="0.501961" x="782" y="465" width="9" height="135" />
<rect fill="#141800" fill-opacity="0.501961" x="640" y="486" width="9" height="110" />
<rect fill="#121a00" fill-opacity="0.501961" x="808" y="558" width="9" height="140" />
<rect fill="#e8ede7" fill-opacity="0.501961" x="951" y="198" width="9" height="241" />
<rect fill="#101300" fill-opacity="0.501961" x="363" y="522" width="9" height="110" />
<rect fill="#efe9d9" fill-opacity="0.501961" x="0" y="199" width="9" height="307" />
<rect fill="#1b1e00" fill-opacity="0.501961" x="978" y="680" width="9" height="88" />
<rect fill="#f3eac3" fill-opacity="0.501961" x="252" y="0" width="9" height="400" />
<rect fill="#ecebd4" fill-opacity="0.501961" x="868" y="14" width="9" height="424" />
<rect fill="#192000" fill-opacity="0.501961" x="77" y="577" width="9" height="141" />
<rect fill="#091603" fill-opacity="0.501961" x="388" y="625" width="9" height="141" />
<rect fill="#121b00" fill-opacity="0.501961" x="842" y="685" width="9" height="83" />
<rect fill="#e6ece3" fill-opacity="0.501961" x="915" y="205" width="9" height="240" />
<rect fill="#001819" fill-opacity="0.501961" x="230" y="560" width="9" height="172" />
<rect fill="#e7e6d4" fill-opacity="0.501961" x="806" y="188" width="9" height="270" />
<rect fill="#00121f" fill-opacity="0.501961" x="372" y="524" width="9" height="156" />
<rect fill="#01181d" fill-opacity="0.501961" x="652" y="544" width="9" height="183" />
<rect fill="#eee9d9" fill-opacity="0.501961" x="9" y="241" width="9" height="334" />
<rect fill="#8d7400" fill-opacity="0.501961" x="437" y="447" width="9" height="165" />
<rect fill="#0f1700" fill-opacity="0.501961" x="528" y="618" width="9" height="135" />
<rect fill="#eae8da" fill-opacity="0.501961" x="1015" y="0" width="9" height="432" />
<rect fill="#ab9500" fill-opacity="0.501961" x="532" y="488" width="9" height="135" />
<rect fill="#e2e6de" fill-opacity="0.501961" x="975" y="121" width="9" height="301" />
<rect fill="#f2ebce" fill-opacity="0.501961" x="120" y="336" width="9" height="224" />
<rect fill="#181c00" fill-opacity="0.501961" x="673" y="622" width="9" height="84" />
<rect fill="#f0e9d7" fill-opacity="0.501961" x="33" y="139" width="9" height="359" />
<rect fill="#1f1f00" fill-opacity="0.501961" x="941" y="558" width="9" height="76" />
<rect fill="#f1eed9" fill-opacity="0.501961" x="732" y="210" width="9" height="127" />
<rect fill="#e5e5da" fill-opacity="0.501961" x="984" y="103" width="9" height="330" />
<rect fill="#005fcb" fill-opacity="0.501961" x="1006" y="434" width="9" height="197" />
<rect fill="#001003" fill-opacity="0.501961" x="519" y="626" width="9" height="121" />
<rect fill="#edf2e9" fill-opacity="0.501961" x="903" y="258" width="9" height="118" />
<rect fill="#0c1e17" fill-opacity="0.501961" x="793" y="503" width="9" height="129" />
<rect fill="#f6e9c0" fill-opacity="0.501961" x="778" y="10" width="9" height="223" />
<rect fill="#eae1bd" fill-opacity="0.501961" x="690" y="15" width="9" height="410" />
<rect fill="#fbf1c7" fill-opacity="0.501961" x="262" y="8" width="9" height="253" />
<rect fill="#e6eff1" fill-opacity="0.501961" x="965" y="205" width="9" height="169" />
<rect fill="#7f6d00" fill-opacity="0.501961" x="454" y="401" width="9" height="212" />
<rect fill="#f1ebd9" fill-opacity="0.501961" x="21" y="194" width="9" height="341" />
<rect fill="#ffffb7" fill-opacity="0.501961" x="0" y="0" width="9" height="127" />
<rect fill="#101f18" fill-opacity="0.501961" x="959" y="590" width="9" height="115" />
<rect fill="#f7ebc4" fill-opacity="0.501961" x="620" y="2" width="9" height="243" />
<rect fill="#19260f" fill-opacity="0.501961" x="931" y="507" width="9" height="110" />
<rect fill="#e6eade" fill-opacity="0.501961" x="893" y="196" width="9" height="254" />
<rect fill="#e7e6d1" fill-opacity="0.501961" x="768" y="174" width="9" height="232" />
<rect fill="#0c2018" fill-opacity="0.501961" x="248" y="640" width="9" height="128" />
<rect fill="#ece7d1" fill-opacity="0.501961" x="50" y="297" width="9" height="245" />
<rect fill="#e9e4c5" fill-opacity="0.501961" x="755" y="87" width="9" height="315" />
<rect fill="#ebe6cb" fill-opacity="0.501961" x="789" y="21" width="9" height="435" />
<rect fill="#003294" fill-opacity="0.501961" x="1005" y="642" width="9" height="126" />
<rect fill="#9c9000" fill-opacity="0.501961" x="541" y="495" width="9" height="130" />
<rect fill="#f2ebca" fill-opacity="0.501961" x="353" y="0" width="9" height="399" />
<rect fill="#e8e8d4" fill-opacity="0.501961" x="877" y="116" width="9" height="323" />
<rect fill="#f0e7cc" fill-opacity="0.501961" x="1003" y="0" width="9" height="202" />
<rect fill="#002676" fill-opacity="0.501961" x="485" y="569" width="9" height="199" />
<rect fill="#071911" fill-opacity="0.501961" x="380" y="592" width="8" height="176" />
<rect fill="#f0e9cb" fill-opacity="0.501961" x="366" y="137" width="9" height="270" />
<rect fill="#13200f" fill-opacity="0.501961" x="969" y="653" width="9" height="100" />
<rect fill="#ece9d0" fill-opacity="0.501961" x="611" y="73" width="9" height="247" />
<rect fill="#ece3b4" fill-opacity="0.501961" x="665" y="111" width="9" height="312" />
<rect fill="#ece9ca" fill-opacity="0.501961" x="66" y="403" width="9" height="179" />
<rect fill="#f2ecc7" fill-opacity="0.501961" x="420" y="74" width="9" height="270" />
<rect fill="#ede6c6" fill-opacity="0.501961" x="744" y="94" width="9" height="253" />
<rect fill="#0063d8" fill-opacity="0.501961" x="768" y="590" width="9" height="103" />
<rect fill="#f6d24a" fill-opacity="0.501961" x="282" y="361" width="9" height="188" />
<rect fill="#004eb0" fill-opacity="0.501961" x="575" y="499" width="9" height="102" />
<rect fill="#e6e9da" fill-opacity="0.501961" x="828" y="226" width="9" height="222" />
<rect fill="#e8e4be" fill-opacity="0.501961" x="710" y="240" width="9" height="194" />
<rect fill="#0066de" fill-opacity="0.501961" x="758" y="593" width="9" height="102" />
<rect fill="#f0c93d" fill-opacity="0.501961" x="292" y="366" width="9" height="187" />
<rect fill="#e4e9eb" fill-opacity="0.501961" x="1005" y="231" width="9" height="177" />
<rect fill="#0040c0" fill-opacity="0.501961" x="395" y="520" width="9" height="99" />
<rect fill="#005cce" fill-opacity="0.501961" x="335" y="647" width="9" height="104" />
<rect fill="#fff9bd" fill-opacity="0.501961" x="12" y="0" width="9" height="185" />
<rect fill="#f4e07e" fill-opacity="0.501961" x="234" y="370" width="9" height="173" />
<rect fill="#ede3c7" fill-opacity="0.501961" x="994" y="13" width="9" height="181" />
<rect fill="#005fd5" fill-opacity="0.501961" x="13" y="577" width="9" height="102" />
<rect fill="#142518" fill-opacity="0.501961" x="682" y="653" width="9" height="115" />
<rect fill="#f4ecca" fill-opacity="0.501961" x="326" y="0" width="9" height="389" />
<rect fill="#eae7d8" fill-opacity="0.501961" x="42" y="294" width="8" height="187" />
<rect fill="#00205f" fill-opacity="0.501961" x="466" y="597" width="9" height="169" />
<rect fill="#eaebd9" fill-opacity="0.501961" x="837" y="218" width="9" height="144" />
<rect fill="#232704" fill-opacity="0.501961" x="818" y="622" width="8" height="87" />
<rect fill="#eae8cf" fill-opacity="0.501961" x="856" y="151" width="9" height="216" />
<rect fill="#e2e7de" fill-opacity="0.501961" x="798" y="231" width="8" height="140" />
<rect fill="#ebe3c6" fill-opacity="0.501961" x="911" y="0" width="9" height="205" />
<rect fill="#fff3c2" fill-opacity="0.501961" x="230" y="1" width="9" height="253" />
<rect fill="#0033ae" fill-opacity="0.501961" x="385" y="525" width="9" height="97" />
<rect fill="#0064dc" fill-opacity="0.501961" x="246" y="546" width="9" height="99" />
<rect fill="#f2e9c8" fill-opacity="0.501961" x="569" y="0" width="9" height="293" />
<rect fill="#efe4af" fill-opacity="0.501961" x="629" y="181" width="9" height="244" />
<rect fill="#005ed2" fill-opacity="0.501961" x="344" y="651" width="9" height="102" />
<rect fill="#e7e4d0" fill-opacity="0.501961" x="76" y="287" width="9" height="169" />
<rect fill="#eae6c8" fill-opacity="0.501961" x="721" y="251" width="9" height="149" />
<rect fill="#f2e9bf" fill-opacity="0.501961" x="271" y="7" width="9" height="380" />
<rect fill="#e7efea" fill-opacity="0.501961" x="945" y="268" width="6" height="175" />
<rect fill="#fff5c5" fill-opacity="0.501961" x="243" y="0" width="9" height="234" />
<rect fill="#ab9300" fill-opacity="0.501961" x="523" y="482" width="9" height="132" />
<rect fill="#8d6f00" fill-opacity="0.501961" x="472" y="388" width="9" height="200" />
<rect fill="#f6c735" fill-opacity="0.501961" x="301" y="374" width="9" height="159" />
<rect fill="#c89c22" fill-opacity="0.501961" x="562" y="379" width="9" height="158" />
<rect fill="#0a6fd1" fill-opacity="0.501961" x="324" y="541" width="9" height="164" />
<rect fill="#f0c861" fill-opacity="0.501961" x="398" y="338" width="9" height="147" />
<rect fill="#e6dec5" fill-opacity="0.501961" x="956" y="18" width="9" height="173" />
<rect fill="#051e1f" fill-opacity="0.501961" x="211" y="558" width="9" height="120" />
<rect fill="#e3eaec" fill-opacity="0.501961" x="994" y="196" width="8" height="178" />
<rect fill="#f3e8c2" fill-opacity="0.501961" x="676" y="20" width="9" height="203" />
<rect fill="#152416" fill-opacity="0.501961" x="825" y="645" width="9" height="123" />
<rect fill="#fdf1c3" fill-opacity="0.501961" x="215" y="0" width="9" height="258" />
<rect fill="#0054be" fill-opacity="0.501961" x="353" y="653" width="9" height="104" />
<rect fill="#0063db" fill-opacity="0.501961" x="23" y="582" width="9" height="94" />
<rect fill="#2e2b0b" fill-opacity="0.501961" x="353" y="535" width="9" height="99" />
<rect fill="#ab8e00" fill-opacity="0.501961" x="463" y="500" width="9" height="95" />
<rect fill="#101c0a" fill-opacity="0.501961" x="537" y="646" width="9" height="122" />
<rect fill="#f2ebc6" fill-opacity="0.501961" x="404" y="108" width="9" height="169" />
<rect fill="#efead0" fill-opacity="0.501961" x="315" y="169" width="9" height="189" />
<rect fill="#e6b019" fill-opacity="0.501961" x="320" y="400" width="9" height="139" />
<rect fill="#f0e9cd" fill-opacity="0.501961" x="339" y="228" width="9" height="179" />
<rect fill="#0672dd" fill-opacity="0.501961" x="256" y="550" width="9" height="94" />
<rect fill="#eae6cb" fill-opacity="0.501961" x="285" y="85" width="9" height="231" />
<rect fill="#faf1c5" fill-opacity="0.501961" x="461" y="105" width="9" height="137" />
<rect fill="#ebe7ce" fill-opacity="0.501961" x="100" y="315" width="9" height="249" />
<rect fill="#faedc7" fill-opacity="0.501961" x="847" y="0" width="9" height="157" />
<rect fill="#eee2a8" fill-opacity="0.501961" x="243" y="291" width="9" height="224" />
<rect fill="#8b7600" fill-opacity="0.501961" x="445" y="439" width="9" height="176" />
<rect fill="#e8e6d1" fill-opacity="0.501961" x="643" y="82" width="9" height="241" />
<rect fill="#f8dc71" fill-opacity="0.501961" x="260" y="359" width="9" height="182" />
<rect fill="#016ddc" fill-opacity="0.501961" x="746" y="593" width="9" height="102" />
<rect fill="#ffffbf" fill-opacity="0.501961" x="21" y="17" width="9" height="124" />
<rect fill="#e8e7ce" fill-opacity="0.501961" x="847" y="167" width="9" height="193" />
<rect fill="#f1e8c7" fill-opacity="0.501961" x="602" y="19" width="9" height="269" />
<rect fill="#f5edc5" fill-opacity="0.501961" x="429" y="79" width="9" height="204" />
<rect fill="#0069e2" fill-opacity="0.501961" x="4" y="581" width="9" height="95" />
<rect fill="#eee6c5" fill-opacity="0.501961" x="585" y="0" width="9" height="304" />
<rect fill="#e7e3ca" fill-opacity="0.501961" x="557" y="94" width="9" height="248" />
<rect fill="#f1eac8" fill-opacity="0.501961" x="394" y="144" width="9" height="141" />
<rect fill="#001623" fill-opacity="0.501961" x="399" y="628" width="9" height="140" />
<rect fill="#f8e99b" fill-opacity="0.501961" x="224" y="362" width="9" height="135" />
<rect fill="#021615" fill-opacity="0.501961" x="106" y="671" width="9" height="97" />
<rect fill="#0f82ea" fill-opacity="0.501961" x="309" y="661" width="9" height="88" />
<rect fill="#f5ecc8" fill-opacity="0.501961" x="305" y="0" width="9" height="313" />
<rect fill="#ba9821" fill-opacity="0.501961" x="553" y="379" width="9" height="208" />
<rect fill="#0d1d1b" fill-opacity="0.501961" x="987" y="673" width="8" height="95" />
<rect fill="#005cd2" fill-opacity="0.501961" x="777" y="593" width="9" height="84" />
<rect fill="#eee5c2" fill-opacity="0.501961" x="540" y="0" width="9" height="274" />
<rect fill="#eee4c2" fill-opacity="0.501961" x="895" y="4" width="9" height="195" />
<rect fill="#ebb41e" fill-opacity="0.501961" x="601" y="362" width="9" height="89" />
<rect fill="#faf1d3" fill-opacity="0.501961" x="66" y="48" width="9" height="315" />
<rect fill="#00296f" fill-opacity="0.501961" x="478" y="580" width="9" height="188" />
<rect fill="#e9e7cf" fill-opacity="0.501961" x="522" y="104" width="9" height="219" />
<rect fill="#eab824" fill-opacity="0.501961" x="311" y="391" width="9" height="147" />
<rect fill="#e4e4d5" fill-opacity="0.501961" x="700" y="233" width="9" height="124" />
<rect fill="#efe8ca" fill-opacity="0.501961" x="129" y="338" width="9" height="222" />
<rect fill="#fff6c5" fill-opacity="0.501961" x="201" y="42" width="9" height="142" />
<rect fill="#ede7ca" fill-opacity="0.501961" x="178" y="170" width="9" height="158" />
<rect fill="#e4e7de" fill-opacity="0.501961" x="780" y="240" width="9" height="112" />
<rect fill="#e8e5c9" fill-opacity="0.501961" x="652" y="118" width="9" height="230" />
<rect fill="#182b29" fill-opacity="0.501961" x="773" y="463" width="9" height="129" />
<rect fill="#0978e2" fill-opacity="0.501961" x="278" y="661" width="9" height="103" />
<rect fill="#001a3f" fill-opacity="0.501961" x="58" y="572" width="9" height="105" />
<rect fill="#f7e8bf" fill-opacity="0.501961" x="799" y="0" width="9" height="188" />
<rect fill="#684700" fill-opacity="0.501961" x="491" y="388" width="9" height="103" />
<rect fill="#003fb7" fill-opacity="0.501961" x="12" y="703" width="9" height="65" />
<rect fill="#0270e0" fill-opacity="0.501961" x="725" y="602" width="9" height="98" />
<rect fill="#e3dfbf" fill-opacity="0.501961" x="187" y="142" width="9" height="332" />
<rect fill="#fff8cd" fill-opacity="0.501961" x="76" y="0" width="9" height="232" />
<rect fill="#dee0d3" fill-opacity="0.501961" x="479" y="166" width="9" height="192" />
<rect fill="#e7e4d0" fill-opacity="0.501961" x="157" y="177" width="9" height="211" />
<rect fill="#f0eac5" fill-opacity="0.501961" x="441" y="121" width="9" height="167" />
<rect fill="#fffbc9" fill-opacity="0.501961" x="50" y="9" width="9" height="177" />
<rect fill="#036fdd" fill-opacity="0.501961" x="709" y="604" width="9" height="101" />
<rect fill="#ffffbe" fill-opacity="0.501961" x="31" y="0" width="9" height="119" />
<rect fill="#e2ac1f" fill-opacity="0.501961" x="330" y="400" width="9" height="136" />
<rect fill="#0059cc" fill-opacity="0.501961" x="583" y="500" width="9" height="99" />
<rect fill="#005ccf" fill-opacity="0.501961" x="35" y="583" width="9" height="92" />
<rect fill="#3d3600" fill-opacity="0.501961" x="631" y="481" width="9" height="67" />
<rect fill="#117fe6" fill-opacity="0.501961" x="312" y="544" width="9" height="91" />
<rect fill="#0058d1" fill-opacity="0.501961" x="236" y="544" width="9" height="70" />
<rect fill="#167ef0" fill-opacity="0.501961" x="989" y="560" width="9" height="89" />
<rect fill="#e3dac2" fill-opacity="0.501961" x="966" y="0" width="9" height="181" />
<rect fill="#1c2a1f" fill-opacity="0.501961" x="799" y="545" width="9" height="115" />
<rect fill="#0f75d2" fill-opacity="0.501961" x="299" y="551" width="9" height="201" />
<rect fill="#e9e4c8" fill-opacity="0.501961" x="142" y="315" width="9" height="243" />
<rect fill="#252a00" fill-opacity="0.501961" x="834" y="703" width="8" height="65" />
<rect fill="#e8e2c1" fill-opacity="0.501961" x="152" y="415" width="9" height="138" />
<rect fill="#0160d0" fill-opacity="0.501961" x="595" y="503" width="9" height="91" />
<rect fill="#dea420" fill-opacity="0.501961" x="348" y="410" width="9" height="123" />
<rect fill="#f0ebdc" fill-opacity="0.501961" x="376" y="294" width="9" height="105" />
<rect fill="#ffd542" fill-opacity="0.501961" x="412" y="338" width="9" height="73" />
<rect fill="#fee487" fill-opacity="0.501961" x="620" y="306" width="9" height="116" />
<rect fill="#00184d" fill-opacity="0.501961" x="410" y="606" width="9" height="162" />
<rect fill="#eeebcf" fill-opacity="0.501961" x="385" y="158" width="9" height="150" />
<rect fill="#f9d75f" fill-opacity="0.501961" x="274" y="423" width="8" height="121" />
<rect fill="#0c78db" fill-opacity="0.501961" x="290" y="653" width="9" height="99" />
<rect fill="#f3e59e" fill-opacity="0.501961" x="211" y="369" width="9" height="127" />
<rect fill="#0e7fe9" fill-opacity="0.501961" x="267" y="560" width="9" height="80" />
<rect fill="#0049bd" fill-opacity="0.501961" x="21" y="703" width="9" height="65" />
<rect fill="#eae6cc" fill-opacity="0.501961" x="594" y="183" width="8" height="171" />
<rect fill="#dcac4a" fill-opacity="0.501961" x="540" y="337" width="9" height="157" />
<rect fill="#001a46" fill-opacity="0.501961" x="503" y="591" width="9" height="161" />
<rect fill="#0c7ce9" fill-opacity="0.501961" x="589" y="626" width="9" height="93" />
<rect fill="#ebe0c9" fill-opacity="0.501961" x="979" y="6" width="9" height="123" />
<rect fill="#837202" fill-opacity="0.501961" x="427" y="422" width="9" height="174" />
<rect fill="#005dbf" fill-opacity="0.501961" x="813" y="456" width="9" height="101" />
<rect fill="#036dd2" fill-opacity="0.501961" x="269" y="659" width="9" height="106" />
<rect fill="#e9cd47" fill-opacity="0.501961" x="650" y="322" width="9" height="161" />
<rect fill="#f2e5c1" fill-opacity="0.501961" x="838" y="0" width="9" height="176" />
<rect fill="#f8eccb" fill-opacity="0.501961" x="857" y="29" width="9" height="121" />
<rect fill="#0353ac" fill-opacity="0.501961" x="738" y="468" width="9" height="187" />
<rect fill="#00205e" fill-opacity="0.501961" x="419" y="595" width="9" height="173" />
<rect fill="#00429c" fill-opacity="0.501961" x="749" y="467" width="9" height="114" />
<rect fill="#081909" fill-opacity="0.501961" x="694" y="698" width="9" height="70" />
<rect fill="#eae4bf" fill-opacity="0.501961" x="296" y="160" width="9" height="242" />
<rect fill="#102939" fill-opacity="0.501961" x="344" y="537" width="9" height="114" />
<rect fill="#534100" fill-opacity="0.501961" x="481" y="387" width="9" height="86" />
<rect fill="#f3ebce" fill-opacity="0.501961" x="111" y="358" width="9" height="158" />
<rect fill="#00459b" fill-opacity="0.501961" x="189" y="559" width="9" height="156" />
<rect fill="#f4c631" fill-opacity="0.501961" x="611" y="356" width="9" height="82" />
<rect fill="#f8e8c3" fill-opacity="0.501961" x="769" y="36" width="9" height="118" />
<rect fill="#e9e0be" fill-opacity="0.501961" x="376" y="31" width="9" height="245" />
<rect fill="#e8ece1" fill-opacity="0.501961" x="887" y="245" width="6" height="144" />
<rect fill="#0e76d4" fill-opacity="0.501961" x="879" y="452" width="9" height="106" />
<rect fill="#00439c" fill-opacity="0.501961" x="118" y="564" width="9" height="177" />
<rect fill="#e0ddbf" fill-opacity="0.501961" x="488" y="155" width="9" height="230" />
<rect fill="#ebe4c5" fill-opacity="0.501961" x="85" y="378" width="9" height="187" />
<rect fill="#c59300" fill-opacity="0.501961" x="483" y="476" width="9" height="95" />
<rect fill="#e1e2d2" fill-opacity="0.501961" x="451" y="193" width="9" height="132" />
<rect fill="#e2ac27" fill-opacity="0.501961" x="339" y="398" width="8" height="132" />
<rect fill="#f2e9c1" fill-opacity="0.501961" x="344" y="0" width="9" height="250" />
<rect fill="#001f57" fill-opacity="0.501961" x="440" y="607" width="9" height="161" />
<rect fill="#e9e0bd" fill-opacity="0.501961" x="633" y="68" width="9" height="146" />
<rect fill="#dbe3e0" fill-opacity="0.501961" x="959" y="271" width="9" height="164" />
<rect fill="#045cba" fill-opacity="0.501961" x="605" y="496" width="9" height="203" />
<rect fill="#fffac5" fill-opacity="0.501961" x="107" y="0" width="9" height="139" />
<rect fill="#dda82a" fill-opacity="0.501961" x="590" y="365" width="9" height="127" />
<rect fill="#f2e3b8" fill-opacity="0.501961" x="700" y="16" width="9" height="185" />
<rect fill="#0773e3" fill-opacity="0.501961" x="578" y="623" width="9" height="95" />
<rect fill="#1f80e9" fill-opacity="0.501961" x="998" y="560" width="9" height="88" />
<rect fill="#e4e2d1" fill-opacity="0.501961" x="84" y="207" width="9" height="183" />
<rect fill="#004fb9" fill-opacity="0.501961" x="30" y="697" width="9" height="71" />
<rect fill="#167fea" fill-opacity="0.501961" x="980" y="562" width="9" height="87" />
<rect fill="#e4b95d" fill-opacity="0.501961" x="389" y="352" width="9" height="166" />
</g>
</svg>