<svg xmlns="http://www.w3.org/2000/svg" version="1.1" width="4096" height="3072">
<rect x="0" y="0" width="4096" height="3072" fill="#939d99" />
<g transform="scale(4.000000) translate(0.5 0.5)">
<rect fill="#000045" fill-opacity="0.501961" x="0" y="676" width="1024" height="5" />
<rect fill="#000061" fill-opacity="0.501961" x="0" y="752" width="1024" height="5" />
<rect fill="#00005a" fill-opacity="0.501961" x="0" y="646" width="883" height="5" />
<rect fill="#000060" fill-opacity="0.501961" x="6" y="747" width="1018" height="5" />
<rect fill="#000046" fill-opacity="0.501961" x="0" y="681" width="1014" height="5" />
<rect fill="#00004e" fill-opacity="0.501961" x="0" y="687" width="1016" height="5" />
<rect fill="#000060" fill-opacity="0.501961" x="0" y="742" width="1024" height="5" />
<rect fill="#000057" fill-opacity="0.501961" x="153" y="733" width="871" height="5" />
<rect fill="#000057" fill-opacity="0.501961" x="221" y="759" width="803" height="5" />
<rect fill="#00003a" fill-opacity="0.501961" x="364" y="710" width="648" height="5" />
<rect fill="#00004a" fill-opacity="0.501961" x="30" y="671" width="993" height="5" />
<rect fill="#00002b" fill-opacity="0.501961" x="0" y="640" width="548" height="5" />
<rect fill="#000056" fill-opacity="0.501961" x="0" y="728" width="840" height="5" />
<rect fill="#000048" fill-opacity="0.501961" x="135" y="722" width="564" height="5" />
<rect fill="#000038" fill-opacity="0.501961" x="0" y="652" width="469" height="5" />
<rect fill="#00003b" fill-opacity="0.501961" x="289" y="635" width="457" height="5" />
<rect fill="#000056" fill-opacity="0.501961" x="5" y="694" width="1019" height="5" />
<rect fill="#00006e" fill-opacity="0.501961" x="95" y="624" width="929" height="5" />
<rect fill="#000051" fill-opacity="0.501961" x="331" y="617" width="663" height="5" />
<rect fill="#00003d" fill-opacity="0.501961" x="570" y="570" width="454" height="5" />
<rect fill="#00004f" fill-opacity="0.501961" x="314" y="612" width="677" height="5" />
<rect fill="#000029" fill-opacity="0.501961" x="572" y="575" width="394" height="5" />
<rect fill="#000063" fill-opacity="0.501961" x="359" y="630" width="650" height="5" />
<rect fill="#00005f" fill-opacity="0.501961" x="0" y="700" width="947" height="5" />
<rect fill="#000038" fill-opacity="0.501961" x="338" y="705" width="571" height="5" />
<rect fill="#000041" fill-opacity="0.501961" x="489" y="601" width="493" height="5" />
<rect fill="#00006e" fill-opacity="0.501961" x="0" y="606" width="518" height="5" />
<rect fill="#000030" fill-opacity="0.501961" x="212" y="657" width="299" height="5" />
<rect fill="#00004c" fill-opacity="0.501961" x="146" y="737" width="647" height="5" />
<rect fill="#000043" fill-opacity="0.501961" x="567" y="565" width="457" height="5" />
<rect fill="#000054" fill-opacity="0.501961" x="629" y="540" width="395" height="5" />
<rect fill="#00002c" fill-opacity="0.501961" x="559" y="580" width="396" height="5" />
<rect fill="#000060" fill-opacity="0.501961" x="5" y="763" width="876" height="5" />
<rect fill="#000036" fill-opacity="0.501961" x="571" y="586" width="373" height="5" />
<rect fill="#000013" fill-opacity="0.501961" x="369" y="717" width="381" height="5" />
<rect fill="#000067" fill-opacity="0.501961" x="135" y="663" width="756" height="5" />
<rect fill="#000059" fill-opacity="0.501961" x="573" y="552" width="451" height="5" />
<rect fill="#000078" fill-opacity="0.501961" x="0" y="578" width="391" height="5" />
<rect fill="#000050" fill-opacity="0.501961" x="567" y="594" width="457" height="5" />
<rect fill="#00005c" fill-opacity="0.501961" x="579" y="547" width="445" height="5" />
<rect fill="#000078" fill-opacity="0.501961" x="0" y="601" width="441" height="5" />
<rect fill="#00004e" fill-opacity="0.501961" x="571" y="560" width="453" height="5" />
<rect fill="#00006b" fill-opacity="0.501961" x="574" y="535" width="450" height="5" />
<rect fill="#000778" fill-opacity="0.501961" x="0" y="595" width="451" height="5" />
<rect fill="#000689" fill-opacity="0.501961" x="570" y="527" width="454" height="5" />
<rect fill="#000486" fill-opacity="0.501961" x="0" y="584" width="431" height="5" />
<rect fill="#001492" fill-opacity="0.501961" x="667" y="657" width="341" height="5" />
<rect fill="#00088e" fill-opacity="0.501961" x="575" y="522" width="449" height="5" />
<rect fill="#000177" fill-opacity="0.501961" x="570" y="495" width="403" height="5" />
<rect fill="#000a90" fill-opacity="0.501961" x="571" y="516" width="453" height="5" />
<rect fill="#000c8d" fill-opacity="0.501961" x="567" y="500" width="457" height="5" />
<rect fill="#000977" fill-opacity="0.501961" x="604" y="489" width="417" height="5" />
<rect fill="#000e8e" fill-opacity="0.501961" x="564" y="506" width="460" height="5" />
<rect fill="#000b89" fill-opacity="0.501961" x="669" y="482" width="355" height="5" />
<rect fill="#00000c" fill-opacity="0.501961" x="0" y="666" width="247" height="5" />
<rect fill="#000a8f" fill-opacity="0.501961" x="0" y="714" width="505" height="5" />
<rect fill="#00038c" fill-opacity="0.501961" x="0" y="619" width="330" height="5" />
<rect fill="#000678" fill-opacity="0.501961" x="31" y="589" width="415" height="5" />
<rect fill="#00006f" fill-opacity="0.501961" x="720" y="715" width="304" height="5" />
<rect fill="#00067f" fill-opacity="0.501961" x="45" y="573" width="364" height="5" />
<rect fill="#000182" fill-opacity="0.501961" x="0" y="629" width="369" height="5" />
<rect fill="#000d94" fill-opacity="0.501961" x="702" y="476" width="322" height="5" />
<rect fill="#00006d" fill-opacity="0.501961" x="139" y="559" width="276" height="5" />
<rect fill="#000063" fill-opacity="0.501961" x="585" y="607" width="323" height="5" />
<rect fill="#001095" fill-opacity="0.501961" x="494" y="652" width="283" height="5" />
<rect fill="#00003b" fill-opacity="0.501961" x="47" y="658" width="159" height="5" />
<rect fill="#000a81" fill-opacity="0.501961" x="191" y="568" width="234" height="5" />
<rect fill="#00007b" fill-opacity="0.501961" x="694" y="722" width="330" height="5" />
<rect fill="#000384" fill-opacity="0.501961" x="31" y="706" width="221" height="5" />
<rect fill="#000f98" fill-opacity="0.501961" x="741" y="471" width="283" height="5" />
<rect fill="#ffffee" fill-opacity="0.501961" x="0" y="0" width="584" height="5" />
<rect fill="#00006e" fill-opacity="0.501961" x="45" y="635" width="247" height="5" />
<rect fill="#000e9b" fill-opacity="0.501961" x="774" y="465" width="250" height="5" />
<rect fill="#eca600" fill-opacity="0.501961" x="257" y="502" width="306" height="5" />
<rect fill="#000291" fill-opacity="0.501961" x="0" y="757" width="196" height="5" />
<rect fill="#3e4700" fill-opacity="0.501961" x="222" y="546" width="355" height="5" />
<rect fill="#000c9d" fill-opacity="0.501961" x="810" y="460" width="207" height="5" />
<rect fill="#00119b" fill-opacity="0.501961" x="108" y="613" width="231" height="5" />
<rect fill="#672000" fill-opacity="0.501961" x="413" y="450" width="179" height="5" />
<rect fill="#001897" fill-opacity="0.501961" x="0" y="719" width="278" height="5" />
<rect fill="#001a81" fill-opacity="0.501961" x="170" y="564" width="261" height="5" />
<rect fill="#5f5900" fill-opacity="0.501961" x="257" y="540" width="321" height="5" />
<rect fill="#000035" fill-opacity="0.501961" x="878" y="666" width="146" height="5" />
<rect fill="#ffffe8" fill-opacity="0.501961" x="0" y="9" width="480" height="5" />
<rect fill="#756000" fill-opacity="0.501961" x="313" y="531" width="266" height="5" />
<rect fill="#0024aa" fill-opacity="0.501961" x="725" y="637" width="299" height="5" />
<rect fill="#ffffe3" fill-opacity="0.501961" x="2" y="16" width="447" height="5" />
<rect fill="#722b00" fill-opacity="0.501961" x="402" y="455" width="180" height="5" />
<rect fill="#886a00" fill-opacity="0.501961" x="315" y="525" width="263" height="5" />
<rect fill="#000e74" fill-opacity="0.501961" x="224" y="667" width="287" height="5" />
<rect fill="#ffffd3" fill-opacity="0.501961" x="0" y="34" width="373" height="5" />
<rect fill="#b07200" fill-opacity="0.501961" x="382" y="428" width="337" height="5" />
<rect fill="#0028a8" fill-opacity="0.501961" x="0" y="736" width="238" height="5" />
<rect fill="#f1a000" fill-opacity="0.501961" x="474" y="469" width="235" height="5" />
<rect fill="#0017a2" fill-opacity="0.501961" x="777" y="511" width="247" height="5" />
<rect fill="#ffffdc" fill-opacity="0.501961" x="0" y="21" width="468" height="5" />
<rect fill="#00002c" fill-opacity="0.501961" x="574" y="589" width="273" height="5" />
<rect fill="#742a00" fill-opacity="0.501961" x="410" y="443" width="193" height="5" />
<rect fill="#ffffd4" fill-opacity="0.501961" x="36" y="28" width="339" height="5" />
<rect fill="#000781" fill-opacity="0.501961" x="818" y="455" width="196" height="5" />
<rect fill="#ffffcb" fill-opacity="0.501961" x="0" y="49" width="341" height="5" />
<rect fill="#000523" fill-opacity="0.501961" x="347" y="622" width="342" height="5" />
<rect fill="#ffb300" fill-opacity="0.501961" x="203" y="423" width="200" height="5" />
<rect fill="#ffffcd" fill-opacity="0.501961" x="0" y="43" width="301" height="5" />
<rect fill="#e19300" fill-opacity="0.501961" x="286" y="475" width="405" height="5" />
<rect fill="#000a74" fill-opacity="0.501961" x="567" y="511" width="247" height="4" />
<rect fill="#0019a1" fill-opacity="0.501961" x="852" y="651" width="172" height="5" />
<rect fill="#ffffd7" fill-opacity="0.501961" x="5" y="58" width="200" height="5" />
<rect fill="#e38500" fill-opacity="0.501961" x="329" y="490" width="228" height="5" />
<rect fill="#000016" fill-opacity="0.501961" x="307" y="755" width="231" height="5" />
<rect fill="#9d7200" fill-opacity="0.501961" x="380" y="520" width="196" height="5" />
<rect fill="#00067c" fill-opacity="0.501961" x="0" y="611" width="217" height="5" />
<rect fill="#4a1500" fill-opacity="0.501961" x="409" y="436" width="139" height="5" />
<rect fill="#ffffc5" fill-opacity="0.501961" x="314" y="132" width="254" height="5" />
<rect fill="#bd8900" fill-opacity="0.501961" x="401" y="514" width="174" height="5" />
<rect fill="#00105e" fill-opacity="0.501961" x="664" y="555" width="360" height="5" />
<rect fill="#ffffd5" fill-opacity="0.501961" x="385" y="4" width="639" height="5" />
<rect fill="#002baf" fill-opacity="0.501961" x="710" y="641" width="181" height="5" />
<rect fill="#ffffd1" fill-opacity="0.501961" x="188" y="164" width="254" height="5" />
<rect fill="#0013a2" fill-opacity="0.501961" x="863" y="727" width="161" height="5" />
<rect fill="#002dac" fill-opacity="0.501961" x="0" y="724" width="202" height="5" />
<rect fill="#e38800" fill-opacity="0.501961" x="304" y="495" width="182" height="5" />
<rect fill="#ffffca" fill-opacity="0.501961" x="488" y="21" width="508" height="5" />
<rect fill="#000979" fill-opacity="0.501961" x="455" y="658" width="233" height="5" />
<rect fill="#000985" fill-opacity="0.501961" x="523" y="641" width="162" height="5" />
<rect fill="#000c77" fill-opacity="0.501961" x="857" y="450" width="167" height="5" />
<rect fill="#000958" fill-opacity="0.501961" x="877" y="662" width="147" height="5" />
<rect fill="#260500" fill-opacity="0.501961" x="419" y="422" width="101" height="5" />
<rect fill="#ffffcb" fill-opacity="0.501961" x="704" y="26" width="251" height="5" />
<rect fill="#e0a400" fill-opacity="0.501961" x="269" y="507" width="290" height="5" />
<rect fill="#ffffd1" fill-opacity="0.501961" x="421" y="13" width="511" height="5" />
<rect fill="#001f90" fill-opacity="0.501961" x="0" y="709" width="271" height="5" />
<rect fill="#001a80" fill-opacity="0.501961" x="397" y="691" width="359" height="5" />
<rect fill="#001753" fill-opacity="0.501961" x="216" y="551" width="171" height="5" />
<rect fill="#fffff6" fill-opacity="0.501961" x="0" y="205" width="243" height="5" />
<rect fill="#00239d" fill-opacity="0.501961" x="605" y="667" width="217" height="4" />
<rect fill="#ffff81" fill-opacity="0.501961" x="132" y="398" width="245" height="5" />
<rect fill="#000515" fill-opacity="0.501961" x="757" y="690" width="191" height="5" />
<rect fill="#ffffce" fill-opacity="0.501961" x="289" y="137" width="271" height="5" />
<rect fill="#030900" fill-opacity="0.501961" x="530" y="606" width="149" height="5" />
<rect fill="#6c2500" fill-opacity="0.501961" x="413" y="460" width="145" height="5" />
<rect fill="#000224" fill-opacity="0.501961" x="515" y="713" width="222" height="5" />
<rect fill="#ffba00" fill-opacity="0.501961" x="222" y="429" width="189" height="5" />
<rect fill="#ffca00" fill-opacity="0.501961" x="566" y="464" width="132" height="5" />
<rect fill="#000000" fill-opacity="0.501961" x="0" y="691" width="122" height="5" />
<rect fill="#001983" fill-opacity="0.501961" x="572" y="531" width="207" height="5" />
<rect fill="#ffffc5" fill-opacity="0.501961" x="137" y="39" width="296" height="5" />
<rect fill="#ffffdb" fill-opacity="0.501961" x="0" y="64" width="231" height="5" />
<rect fill="#00086e" fill-opacity="0.501961" x="0" y="661" width="158" height="5" />
<rect fill="#00007a" fill-opacity="0.501961" x="81" y="568" width="130" height="5" />
<rect fill="#0025a7" fill-opacity="0.501961" x="847" y="738" width="177" height="5" />
<rect fill="#000e25" fill-opacity="0.501961" x="133" y="645" width="319" height="5" />
<rect fill="#000075" fill-opacity="0.501961" x="923" y="444" width="101" height="5" />
<rect fill="#ffffc5" fill-opacity="0.501961" x="342" y="127" width="279" height="5" />
<rect fill="#0021a3" fill-opacity="0.501961" x="864" y="705" width="146" height="5" />
<rect fill="#ffffc1" fill-opacity="0.501961" x="662" y="32" width="284" height="5" />
<rect fill="#ffffc4" fill-opacity="0.501961" x="190" y="153" width="283" height="5" />
<rect fill="#ffffee" fill-opacity="0.501961" x="0" y="200" width="246" height="5" />
<rect fill="#000500" fill-opacity="0.501961" x="344" y="628" width="220" height="5" />
<rect fill="#5a3b00" fill-opacity="0.501961" x="559" y="484" width="147" height="5" />
<rect fill="#000821" fill-opacity="0.501961" x="365" y="726" width="357" height="5" />
<rect fill="#ffffd0" fill-opacity="0.501961" x="0" y="69" width="243" height="5" />
<rect fill="#002b98" fill-opacity="0.501961" x="819" y="530" width="205" height="5" />
<rect fill="#003da1" fill-opacity="0.501961" x="688" y="485" width="336" height="5" />
<rect fill="#000000" fill-opacity="0.501961" x="560" y="597" width="165" height="5" />
<rect fill="#ffffcf" fill-opacity="0.501961" x="0" y="53" width="207" height="5" />
<rect fill="#701b00" fill-opacity="0.501961" x="400" y="465" width="110" height="5" />
<rect fill="#fffff4" fill-opacity="0.501961" x="0" y="223" width="283" height="5" />
<rect fill="#4f2a00" fill-opacity="0.501961" x="423" y="431" width="143" height="5" />
<rect fill="#ffffce" fill-opacity="0.501961" x="0" y="74" width="245" height="5" />
<rect fill="#001f8d" fill-opacity="0.501961" x="586" y="757" width="261" height="5" />
<rect fill="#001b63" fill-opacity="0.501961" x="807" y="699" width="214" height="5" />
<rect fill="#ffffba" fill-opacity="0.501961" x="220" y="54" width="624" height="5" />
<rect fill="#575500" fill-opacity="0.501961" x="338" y="554" width="234" height="5" />
<rect fill="#001d9f" fill-opacity="0.501961" x="889" y="644" width="134" height="5" />
<rect fill="#ffffdf" fill-opacity="0.501961" x="0" y="122" width="517" height="5" />
<rect fill="#001687" fill-opacity="0.501961" x="3" y="624" width="157" height="5" />
<rect fill="#00002b" fill-opacity="0.501961" x="344" y="651" width="203" height="5" />
<rect fill="#ffffae" fill-opacity="0.501961" x="455" y="334" width="303" height="5" />
<rect fill="#ffffff" fill-opacity="0.501961" x="0" y="194" width="151" height="5" />
<rect fill="#ffffe2" fill-opacity="0.501961" x="275" y="144" width="222" height="5" />
<rect fill="#fffff7" fill-opacity="0.501961" x="15" y="189" width="173" height="5" />
<rect fill="#fcb000" fill-opacity="0.501961" x="248" y="418" width="177" height="5" />
<rect fill="#a38200" fill-opacity="0.501961" x="400" y="535" width="168" height="5" />
<rect fill="#fffff1" fill-opacity="0.501961" x="33" y="261" width="756" height="5" />
<rect fill="#001b64" fill-opacity="0.501961" x="389" y="699" width="362" height="5" />
<rect fill="#ffff91" fill-opacity="0.501961" x="135" y="393" width="218" height="5" />
<rect fill="#ffffcc" fill-opacity="0.501961" x="763" y="112" width="261" height="5" />
<rect fill="#00136e" fill-opacity="0.501961" x="4" y="616" width="243" height="4" />
<rect fill="#ffffe3" fill-opacity="0.501961" x="0" y="92" width="312" height="5" />
<rect fill="#ffffd1" fill-opacity="0.501961" x="0" y="80" width="269" height="5" />
<rect fill="#ffc003" fill-opacity="0.501961" x="175" y="434" width="234" height="5" />
<rect fill="#fffff6" fill-opacity="0.501961" x="0" y="184" width="195" height="5" />
<rect fill="#0044b7" fill-opacity="0.501961" x="106" y="691" width="286" height="5" />
<rect fill="#ffffd4" fill-opacity="0.501961" x="779" y="107" width="242" height="5" />
<rect fill="#000000" fill-opacity="0.501961" x="908" y="545" width="116" height="5" />
<rect fill="#ffffb0" fill-opacity="0.501961" x="4" y="405" width="318" height="5" />
<rect fill="#fffff7" fill-opacity="0.501961" x="0" y="255" width="255" height="5" />
<rect fill="#d98000" fill-opacity="0.501961" x="336" y="482" width="195" height="5" />
<rect fill="#ffffc3" fill-opacity="0.501961" x="0" y="498" width="179" height="5" />
<rect fill="#312600" fill-opacity="0.501961" x="419" y="416" width="89" height="5" />
<rect fill="#ffffd7" fill-opacity="0.501961" x="663" y="47" width="293" height="5" />
<rect fill="#001538" fill-opacity="0.501961" x="0" y="682" width="264" height="5" />
<rect fill="#ffffc1" fill-opacity="0.501961" x="469" y="60" width="240" height="5" />
<rect fill="#003293" fill-opacity="0.501961" x="676" y="599" width="289" height="5" />
<rect fill="#fffffd" fill-opacity="0.501961" x="0" y="229" width="229" height="5" />
<rect fill="#ffffd5" fill-opacity="0.501961" x="337" y="103" width="270" height="5" />
<rect fill="#ffffdb" fill-opacity="0.501961" x="121" y="5" width="166" height="5" />
<rect fill="#ffffa4" fill-opacity="0.501961" x="524" y="43" width="204" height="5" />
<rect fill="#00389e" fill-opacity="0.501961" x="428" y="682" width="360" height="5" />
<rect fill="#ffffc6" fill-opacity="0.501961" x="261" y="26" width="206" height="5" />
<rect fill="#ffffe4" fill-opacity="0.501961" x="0" y="97" width="226" height="5" />
<rect fill="#ffffe9" fill-opacity="0.501961" x="9" y="218" width="250" height="5" />
<rect fill="#ffffe3" fill-opacity="0.501961" x="10" y="170" width="291" height="5" />
<rect fill="#ffffea" fill-opacity="0.501961" x="0" y="105" width="182" height="5" />
<rect fill="#fcbf00" fill-opacity="0.501961" x="596" y="433" width="154" height="5" />
<rect fill="#ffffc7" fill-opacity="0.501961" x="727" y="37" width="297" height="5" />
<rect fill="#000c00" fill-opacity="0.501961" x="383" y="742" width="233" height="5" />
<rect fill="#002aaa" fill-opacity="0.501961" x="857" y="763" width="167" height="5" />
<rect fill="#fffdce" fill-opacity="0.501961" x="424" y="117" width="600" height="5" />
<rect fill="#ffffee" fill-opacity="0.501961" x="0" y="130" width="320" height="5" />
<rect fill="#0029a2" fill-opacity="0.501961" x="882" y="607" width="137" height="5" />
<rect fill="#fffff5" fill-opacity="0.501961" x="0" y="289" width="322" height="5" />
<rect fill="#002bb1" fill-opacity="0.501961" x="840" y="590" width="184" height="4" />
<rect fill="#fffff0" fill-opacity="0.501961" x="0" y="137" width="289" height="5" />
<rect fill="#00287b" fill-opacity="0.501961" x="151" y="554" width="259" height="5" />
<rect fill="#002187" fill-opacity="0.501961" x="0" y="656" width="216" height="5" />
<rect fill="#f6f1d6" fill-opacity="0.501961" x="637" y="375" width="387" height="5" />
<rect fill="#ffffef" fill-opacity="0.501961" x="0" y="147" width="230" height="5" />
<rect fill="#ffffbd" fill-opacity="0.501961" x="367" y="48" width="300" height="5" />
<rect fill="#ffffe4" fill-opacity="0.501961" x="19" y="176" width="238" height="5" />
<rect fill="#00339b" fill-opacity="0.501961" x="161" y="705" width="324" height="5" />
<rect fill="#998100" fill-opacity="0.501961" x="418" y="559" width="151" height="5" />
<rect fill="#001e94" fill-opacity="0.501961" x="577" y="542" width="193" height="5" />
<rect fill="#fffff6" fill-opacity="0.501961" x="196" y="266" width="371" height="5" />
<rect fill="#0030a7" fill-opacity="0.501961" x="0" y="731" width="185" height="5" />
<rect fill="#fffff5" fill-opacity="0.501961" x="0" y="283" width="301" height="5" />
<rect fill="#ffffda" fill-opacity="0.501961" x="0" y="320" width="802" height="5" />
<rect fill="#ad7c00" fill-opacity="0.501961" x="538" y="479" width="161" height="5" />
<rect fill="#fffff5" fill-opacity="0.501961" x="0" y="311" width="332" height="5" />
<rect fill="#000f22" fill-opacity="0.501961" x="634" y="583" width="234" height="5" />
<rect fill="#ffffef" fill-opacity="0.501961" x="0" y="111" width="146" height="5" />
<rect fill="#f6f9ef" fill-opacity="0.501961" x="270" y="255" width="734" height="5" />
<rect fill="#ffffea" fill-opacity="0.501961" x="0" y="250" width="345" height="5" />
<rect fill="#ffffe1" fill-opacity="0.501961" x="488" y="8" width="175" height="5" />
<rect fill="#003db0" fill-opacity="0.501961" x="816" y="585" width="191" height="5" />
<rect fill="#fcfef2" fill-opacity="0.501961" x="71" y="300" width="651" height="5" />
<rect fill="#ffffe9" fill-opacity="0.501961" x="22" y="210" width="210" height="5" />
<rect fill="#002c71" fill-opacity="0.501961" x="75" y="758" width="271" height="5" />
<rect fill="#ffffcb" fill-opacity="0.501961" x="0" y="493" width="167" height="5" />
<rect fill="#002c97" fill-opacity="0.501961" x="736" y="651" width="117" height="5" />
<rect fill="#fcb800" fill-opacity="0.501961" x="542" y="423" width="176" height="5" />
<rect fill="#ffffc4" fill-opacity="0.501961" x="206" y="16" width="818" height="5" />
<rect fill="#fffac0" fill-opacity="0.501961" x="690" y="124" width="305" height="5" />
<rect fill="#fffff7" fill-opacity="0.501961" x="0" y="242" width="161" height="5" />
<rect fill="#002d8b" fill-opacity="0.501961" x="0" y="634" width="268" height="5" />
<rect fill="#010e00" fill-opacity="0.501961" x="89" y="594" width="5" height="173" />
<rect fill="#fffbdc" fill-opacity="0.501961" x="124" y="234" width="5" height="323" />
<rect fill="#fff8d2" fill-opacity="0.501961" x="323" y="0" width="5" height="395" />
<rect fill="#fef7d8" fill-opacity="0.501961" x="367" y="143" width="5" height="256" />
<rect fill="#fef7db" fill-opacity="0.501961" x="103" y="236" width="5" height="328" />
<rect fill="#000c12" fill-opacity="0.501961" x="372" y="524" width="5" height="173" />
<rect fill="#031000" fill-opacity="0.501961" x="950" y="536" width="5" height="167" />
<rect fill="#846a00" fill-opacity="0.501961" x="438" y="420" width="5" height="193" />
<rect fill="#0c1400" fill-opacity="0.501961" x="921" y="446" width="5" height="129" />
<rect fill="#7c6300" fill-opacity="0.501961" x="464" y="389" width="5" height="220" />
<rect fill="#fff9d7" fill-opacity="0.501961" x="0" y="0" width="5" height="572" />
<rect fill="#fdf7db" fill-opacity="0.501961" x="372" y="164" width="5" height="235" />
<rect fill="#000f01" fill-opacity="0.501961" x="229" y="574" width="5" height="156" />
<rect fill="#0046ba" fill-opacity="0.501961" x="1019" y="575" width="5" height="193" />
<rect fill="#000c00" fill-opacity="0.501961" x="367" y="527" width="5" height="142" />
<rect fill="#fff6ca" fill-opacity="0.501961" x="352" y="1" width="5" height="417" />
<rect fill="#fbf5e2" fill-opacity="0.501961" x="24" y="231" width="5" height="343" />
<rect fill="#fbf5d8" fill-opacity="0.501961" x="119" y="102" width="5" height="458" />
<rect fill="#fffbd7" fill-opacity="0.501961" x="129" y="335" width="5" height="221" />
<rect fill="#232900" fill-opacity="0.501961" x="523" y="564" width="5" height="189" />
<rect fill="#fff6cc" fill-opacity="0.501961" x="619" y="0" width="5" height="364" />
<rect fill="#796300" fill-opacity="0.501961" x="459" y="396" width="5" height="217" />
<rect fill="#f8f1de" fill-opacity="0.501961" x="9" y="182" width="5" height="397" />
<rect fill="#000a00" fill-opacity="0.501961" x="95" y="632" width="5" height="136" />
<rect fill="#fff4cc" fill-opacity="0.501961" x="329" y="43" width="5" height="370" />
<rect fill="#fdf7e2" fill-opacity="0.501961" x="30" y="187" width="5" height="377" />
<rect fill="#091200" fill-opacity="0.501961" x="84" y="569" width="5" height="161" />
<rect fill="#01110e" fill-opacity="0.501961" x="955" y="575" width="5" height="132" />
<rect fill="#fff6cf" fill-opacity="0.501961" x="624" y="19" width="5" height="329" />
<rect fill="#000900" fill-opacity="0.501961" x="221" y="546" width="5" height="133" />
<rect fill="#fff8d8" fill-opacity="0.501961" x="14" y="12" width="5" height="546" />
<rect fill="#fff6cb" fill-opacity="0.501961" x="362" y="0" width="5" height="417" />
<rect fill="#2b2d00" fill-opacity="0.501961" x="529" y="572" width="5" height="183" />
<rect fill="#816a00" fill-opacity="0.501961" x="450" y="389" width="5" height="227" />
<rect fill="#f7f2d9" fill-opacity="0.501961" x="70" y="219" width="5" height="363" />
<rect fill="#00132e" fill-opacity="0.501961" x="380" y="522" width="5" height="182" />
<rect fill="#fffbda" fill-opacity="0.501961" x="55" y="0" width="5" height="569" />
<rect fill="#06160e" fill-opacity="0.501961" x="813" y="573" width="5" height="167" />
<rect fill="#fbe8a8" fill-opacity="0.501961" x="398" y="166" width="5" height="302" />
<rect fill="#fffae0" fill-opacity="0.501961" x="98" y="203" width="5" height="236" />
<rect fill="#051400" fill-opacity="0.501961" x="236" y="617" width="5" height="138" />
<rect fill="#fef4c5" fill-opacity="0.501961" x="611" y="68" width="5" height="317" />
<rect fill="#111600" fill-opacity="0.501961" x="362" y="523" width="5" height="120" />
<rect fill="#e7e9dc" fill-opacity="0.501961" x="926" y="121" width="5" height="319" />
<rect fill="#fdf7e0" fill-opacity="0.501961" x="35" y="297" width="5" height="272" />
<rect fill="#faedc6" fill-opacity="0.501961" x="744" y="0" width="5" height="254" />
<rect fill="#fcf6dc" fill-opacity="0.501961" x="155" y="228" width="5" height="266" />
<rect fill="#876800" fill-opacity="0.501961" x="470" y="394" width="5" height="205" />
<rect fill="#ebebd8" fill-opacity="0.501961" x="917" y="0" width="5" height="442" />
<rect fill="#7c5c00" fill-opacity="0.501961" x="495" y="389" width="5" height="205" />
<rect fill="#fff8db" fill-opacity="0.501961" x="109" y="224" width="5" height="296" />
<rect fill="#071709" fill-opacity="0.501961" x="808" y="564" width="5" height="165" />
<rect fill="#010f00" fill-opacity="0.501961" x="69" y="577" width="5" height="112" />
<rect fill="#fcf3cb" fill-opacity="0.501961" x="346" y="199" width="5" height="219" />
<rect fill="#fff1b7" fill-opacity="0.501961" x="248" y="14" width="5" height="509" />
<rect fill="#0c1300" fill-opacity="0.501961" x="244" y="642" width="5" height="126" />
<rect fill="#004dbf" fill-opacity="0.501961" x="1012" y="559" width="5" height="172" />
<rect fill="#fff4ba" fill-opacity="0.501961" x="403" y="0" width="5" height="421" />
<rect fill="#f9f0cf" fill-opacity="0.501961" x="568" y="35" width="5" height="339" />
<rect fill="#fffddb" fill-opacity="0.501961" x="47" y="0" width="5" height="395" />
<rect fill="#011a26" fill-opacity="0.501961" x="818" y="567" width="5" height="201" />
<rect fill="#765900" fill-opacity="0.501961" x="490" y="386" width="5" height="213" />
<rect fill="#fbf6dd" fill-opacity="0.501961" x="150" y="215" width="5" height="221" />
<rect fill="#fef3ca" fill-opacity="0.501961" x="377" y="10" width="5" height="398" />
<rect fill="#fdf3cc" fill-opacity="0.501961" x="629" y="0" width="5" height="335" />
<rect fill="#3b3a00" fill-opacity="0.501961" x="534" y="563" width="5" height="180" />
<rect fill="#7a6a00" fill-opacity="0.501961" x="433" y="440" width="5" height="188" />
<rect fill="#fcf6e0" fill-opacity="0.501961" x="41" y="271" width="5" height="233" />
<rect fill="#111a00" fill-opacity="0.501961" x="926" y="448" width="5" height="129" />
<rect fill="#fff9e0" fill-opacity="0.501961" x="341" y="232" width="5" height="166" />
<rect fill="#fff5be" fill-opacity="0.501961" x="419" y="0" width="5" height="402" />
<rect fill="#efedd6" fill-opacity="0.501961" x="867" y="27" width="5" height="419" />
<rect fill="#e7e9db" fill-opacity="0.501961" x="935" y="118" width="5" height="325" />
<rect fill="#00120b" fill-opacity="0.501961" x="963" y="616" width="5" height="108" />
<rect fill="#836300" fill-opacity="0.501961" x="476" y="392" width="5" height="202" />
<rect fill="#fffdda" fill-opacity="0.501961" x="60" y="0" width="5" height="399" />
<rect fill="#feefbb" fill-opacity="0.501961" x="606" y="0" width="5" height="398" />
<rect fill="#000e00" fill-opacity="0.501961" x="662" y="594" width="5" height="134" />
<rect fill="#fcf4d3" fill-opacity="0.501961" x="334" y="203" width="5" height="204" />
<rect fill="#f6f2d9" fill-opacity="0.501961" x="573" y="69" width="5" height="245" />
<rect fill="#fff3b9" fill-opacity="0.501961" x="413" y="15" width="5" height="397" />
<rect fill="#fcf4d3" fill-opacity="0.501961" x="315" y="84" width="5" height="312" />
<rect fill="#001100" fill-opacity="0.501961" x="101" y="643" width="5" height="125" />
<rect fill="#b69400" fill-opacity="0.501961" x="541" y="417" width="5" height="205" />
<rect fill="#fff7cd" fill-opacity="0.501961" x="310" y="7" width="5" height="391" />
<rect fill="#ffed95" fill-opacity="0.501961" x="242" y="313" width="5" height="228" />
<rect fill="#fff6dc" fill-opacity="0.501961" x="65" y="79" width="5" height="454" />
<rect fill="#f9eec9" fill-opacity="0.501961" x="737" y="0" width="5" height="334" />
<rect fill="#e9e9da" fill-opacity="0.501961" x="957" y="1" width="5" height="438" />
<rect fill="#faebbd" fill-opacity="0.501961" x="585" y="0" width="5" height="401" />
<rect fill="#f9f2d6" fill-opacity="0.501961" x="161" y="236" width="5" height="278" />
<rect fill="#fff6c5" fill-opacity="0.501961" x="427" y="3" width="5" height="383" />
<rect fill="#fcf5da" fill-opacity="0.501961" x="114" y="144" width="5" height="367" />
<rect fill="#001719" fill-opacity="0.501961" x="824" y="626" width="5" height="142" />
<rect fill="#181e00" fill-opacity="0.501961" x="79" y="573" width="5" height="133" />
<rect fill="#faecb7" fill-opacity="0.501961" x="639" y="0" width="5" height="426" />
<rect fill="#001e63" fill-opacity="0.501961" x="485" y="571" width="5" height="197" />
<rect fill="#f8f1ca" fill-opacity="0.501961" x="263" y="99" width="5" height="321" />
<rect fill="#fbf2cb" fill-opacity="0.501961" x="648" y="24" width="5" height="336" />
<rect fill="#fcf1ca" fill-opacity="0.501961" x="600" y="0" width="5" height="348" />
<rect fill="#f2e9c6" fill-opacity="0.501961" x="770" y="0" width="5" height="470" />
<rect fill="#fcedae" fill-opacity="0.501961" x="254" y="38" width="5" height="503" />
<rect fill="#eaede1" fill-opacity="0.501961" x="941" y="162" width="5" height="271" />
<rect fill="#faf3d8" fill-opacity="0.501961" x="136" y="240" width="5" height="298" />
<rect fill="#111c01" fill-opacity="0.501961" x="784" y="462" width="5" height="125" />
<rect fill="#e4e8e2" fill-opacity="0.501961" x="975" y="136" width="5" height="301" />
<rect fill="#0f1500" fill-opacity="0.501961" x="642" y="489" width="5" height="102" />
<rect fill="#fff4c8" fill-opacity="0.501961" x="357" y="149" width="5" height="268" />
<rect fill="#fcf6de" fill-opacity="0.501961" x="75" y="297" width="5" height="220" />
<rect fill="#000f02" fill-opacity="0.501961" x="216" y="562" width="5" height="113" />
<rect fill="#1b2a0a" fill-opacity="0.501961" x="518" y="564" width="5" height="198" />
<rect fill="#0a1804" fill-opacity="0.501961" x="979" y="649" width="5" height="119" />
<rect fill="#00141b" fill-opacity="0.501961" x="656" y="533" width="5" height="191" />
<rect fill="#9c7d00" fill-opacity="0.501961" x="443" y="454" width="5" height="156" />
<rect fill="#f5eece" fill-opacity="0.501961" x="595" y="106" width="5" height="255" />
<rect fill="#0035bd" fill-opacity="0.501961" x="397" y="520" width="5" height="104" />
<rect fill="#faeec3" fill-opacity="0.501961" x="383" y="33" width="5" height="381" />
<rect fill="#fff8e0" fill-opacity="0.501961" x="80" y="95" width="5" height="339" />
<rect fill="#f1e9cb" fill-opacity="0.501961" x="777" y="0" width="5" height="460" />
<rect fill="#0d1300" fill-opacity="0.501961" x="916" y="452" width="5" height="77" />
<rect fill="#eaf1ef" fill-opacity="0.501961" x="964" y="226" width="5" height="207" />
<rect fill="#000d01" fill-opacity="0.501961" x="107" y="669" width="5" height="99" />
<rect fill="#fff4bf" fill-opacity="0.501961" x="432" y="0" width="5" height="394" />
<rect fill="#111800" fill-opacity="0.501961" x="984" y="664" width="5" height="104" />
<rect fill="#fff5cd" fill-opacity="0.501961" x="305" y="0" width="5" height="383" />
<rect fill="#051d1a" fill-opacity="0.501961" x="944" y="514" width="5" height="175" />
<rect fill="#f6f1d1" fill-opacity="0.501961" x="182" y="229" width="5" height="264" />
<rect fill="#f8edc5" fill-opacity="0.501961" x="561" y="0" width="5" height="384" />
<rect fill="#cba412" fill-opacity="0.501961" x="530" y="369" width="5" height="249" />
<rect fill="#efecd4" fill-opacity="0.501961" x="874" y="0" width="5" height="429" />
<rect fill="#132006" fill-opacity="0.501961" x="779" y="464" width="5" height="102" />
<rect fill="#131e00" fill-opacity="0.501961" x="669" y="601" width="5" height="133" />
<rect fill="#0e1d0e" fill-opacity="0.501961" x="933" y="477" width="5" height="130" />
<rect fill="#a79400" fill-opacity="0.501961" x="546" y="481" width="5" height="135" />
<rect fill="#f0eace" fill-opacity="0.501961" x="806" y="0" width="5" height="451" />
<rect fill="#051e1d" fill-opacity="0.501961" x="794" y="500" width="5" height="141" />
<rect fill="#0026b6" fill-opacity="0.501961" x="391" y="523" width="5" height="67" />
<rect fill="#f7eecc" fill-opacity="0.501961" x="728" y="29" width="5" height="270" />
<rect fill="#f1efd9" fill-opacity="0.501961" x="176" y="225" width="5" height="236" />
<rect fill="#fff2c0" fill-opacity="0.501961" x="443" y="0" width="5" height="386" />
<rect fill="#f1eccf" fill-opacity="0.501961" x="862" y="0" width="5" height="436" />
<rect fill="#f9efc5" fill-opacity="0.501961" x="653" y="0" width="5" height="365" />
<rect fill="#f8f0c8" fill-opacity="0.501961" x="300" y="61" width="5" height="341" />
<rect fill="#f1ebce" fill-opacity="0.501961" x="854" y="0" width="5" height="452" />
<rect fill="#041a18" fill-opacity="0.501961" x="974" y="642" width="5" height="126" />
<rect fill="#fcf1cc" fill-opacity="0.501961" x="677" y="0" width="5" height="255" />
<rect fill="#f9f0c2" fill-opacity="0.501961" x="269" y="142" width="5" height="273" />
<rect fill="#efeacd" fill-opacity="0.501961" x="817" y="0" width="5" height="456" />
<rect fill="#7b5400" fill-opacity="0.501961" x="482" y="388" width="5" height="140" />
<rect fill="#f8f1ce" fill-opacity="0.501961" x="479" y="0" width="5" height="371" />
<rect fill="#000f00" fill-opacity="0.501961" x="845" y="683" width="5" height="85" />
<rect fill="#f9eec3" fill-opacity="0.501961" x="556" y="0" width="5" height="375" />
<rect fill="#ba9a00" fill-opacity="0.501961" x="536" y="449" width="5" height="177" />
<rect fill="#f6e89d" fill-opacity="0.501961" x="237" y="266" width="5" height="266" />
<rect fill="#181f00" fill-opacity="0.501961" x="74" y="577" width="5" height="113" />
<rect fill="#e9f0f0" fill-opacity="0.501961" x="969" y="241" width="5" height="195" />
<rect fill="#ecead3" fill-opacity="0.501961" x="908" y="0" width="5" height="454" />
<rect fill="#191d00" fill-opacity="0.501961" x="637" y="486" width="5" height="82" />
<rect fill="#f8e8b5" fill-opacity="0.501961" x="520" y="18" width="5" height="409" />
<rect fill="#ffe57d" fill-opacity="0.501961" x="279" y="271" width="5" height="267" />
<rect fill="#f7efba" fill-opacity="0.501961" x="437" y="168" width="5" height="211" />
<rect fill="#005dc5" fill-opacity="0.501961" x="992" y="433" width="5" height="223" />
<rect fill="#fff7d1" fill-opacity="0.501961" x="5" y="74" width="5" height="205" />
<rect fill="#fbefbf" fill-opacity="0.501961" x="448" y="29" width="5" height="364" />
<rect fill="#6d5900" fill-opacity="0.501961" x="512" y="428" width="5" height="245" />
<rect fill="#f5eac2" fill-opacity="0.501961" x="761" y="0" width="5" height="450" />
<rect fill="#f9f0c9" fill-opacity="0.501961" x="474" y="5" width="5" height="376" />
<rect fill="#004ebc" fill-opacity="0.501961" x="0" y="582" width="5" height="186" />
<rect fill="#e5e9e4" fill-opacity="0.501961" x="987" y="154" width="5" height="277" />
<rect fill="#efecd4" fill-opacity="0.501961" x="896" y="0" width="5" height="398" />
<rect fill="#ebe9dc" fill-opacity="0.501961" x="1010" y="0" width="5" height="428" />
<rect fill="#fffed1" fill-opacity="0.501961" x="19" y="0" width="5" height="304" />
<rect fill="#fcf6da" fill-opacity="0.501961" x="93" y="290" width="5" height="218" />
<rect fill="#041608" fill-opacity="0.501961" x="385" y="600" width="5" height="168" />
<rect fill="#001c29" fill-opacity="0.501961" x="968" y="621" width="5" height="131" />
<rect fill="#eeebd3" fill-opacity="0.501961" x="881" y="0" width="5" height="436" />
<rect fill="#f9eaba" fill-opacity="0.501961" x="548" y="5" width="5" height="401" />
<rect fill="#f2e9c8" fill-opacity="0.501961" x="812" y="0" width="5" height="316" />
<rect fill="#eae9db" fill-opacity="0.501961" x="1019" y="0" width="5" height="429" />
<rect fill="#efe9cd" fill-opacity="0.501961" x="788" y="10" width="5" height="445" />
<rect fill="#faecae" fill-opacity="0.501961" x="230" y="0" width="5" height="544" />
<rect fill="#fff5d3" fill-opacity="0.501961" x="47" y="389" width="5" height="153" />
<rect fill="#f8eec1" fill-opacity="0.501961" x="541" y="0" width="5" height="391" />
<rect fill="#e2a908" fill-opacity="0.501961" x="603" y="363" width="5" height="130" />
<rect fill="#fff6ce" fill-opacity="0.501961" x="466" y="0" width="5" height="257" />
<rect fill="#051300" fill-opacity="0.501961" x="391" y="626" width="5" height="142" />
<rect fill="#ebf1ed" fill-opacity="0.501961" x="952" y="224" width="5" height="198" />
<rect fill="#f2ecd0" fill-opacity="0.501961" x="145" y="98" width="5" height="450" />
<rect fill="#101c08" fill-opacity="0.501961" x="829" y="651" width="5" height="96" />
<rect fill="#ffe166" fill-opacity="0.501961" x="285" y="316" width="5" height="221" />
<rect fill="#f7edc8" fill-opacity="0.501961" x="750" y="42" width="5" height="192" />
<rect fill="#f7edbe" fill-opacity="0.501961" x="461" y="35" width="5" height="363" />
<rect fill="#f4ecc7" fill-opacity="0.501961" x="484" y="32" width="5" height="357" />
<rect fill="#004eb4" fill-opacity="0.501961" x="10" y="576" width="5" height="189" />
<rect fill="#fffdd5" fill-opacity="0.501961" x="75" y="0" width="5" height="303" />
<rect fill="#004eb3" fill-opacity="0.501961" x="24" y="573" width="5" height="195" />
<rect fill="#0068ca" fill-opacity="0.501961" x="283" y="566" width="5" height="202" />
<rect fill="#002355" fill-opacity="0.501961" x="480" y="566" width="5" height="194" />
<rect fill="#ffffd4" fill-opacity="0.501961" x="40" y="0" width="5" height="250" />
<rect fill="#e9ebdc" fill-opacity="0.501961" x="827" y="233" width="5" height="216" />
<rect fill="#0061c8" fill-opacity="0.501961" x="587" y="491" width="5" height="228" />
<rect fill="#005ed1" fill-opacity="0.501961" x="1019" y="426" width="5" height="105" />
<rect fill="#f1e7ac" fill-opacity="0.501961" x="225" y="233" width="5" height="291" />
<rect fill="#f7edbf" fill-opacity="0.501961" x="666" y="0" width="5" height="376" />
<rect fill="#081608" fill-opacity="0.501961" x="541" y="648" width="5" height="118" />
<rect fill="#ffde65" fill-opacity="0.501961" x="291" y="304" width="5" height="226" />
<rect fill="#032c45" fill-opacity="0.501961" x="939" y="467" width="5" height="209" />
<rect fill="#f5efd0" fill-opacity="0.501961" x="526" y="7" width="5" height="308" />
<rect fill="#ffffc8" fill-opacity="0.501961" x="243" y="0" width="5" height="165" />
<rect fill="#efe5c8" fill-opacity="0.501961" x="996" y="0" width="5" height="206" />
<rect fill="#f5f0d4" fill-opacity="0.501961" x="659" y="61" width="5" height="260" />
<rect fill="#fccf35" fill-opacity="0.501961" x="297" y="372" width="5" height="162" />
<rect fill="#fbf6e6" fill-opacity="0.501961" x="19" y="327" width="5" height="162" />
<rect fill="#fff2a9" fill-opacity="0.501961" x="390" y="268" width="5" height="149" />
<rect fill="#f8efce" fill-opacity="0.501961" x="672" y="0" width="5" height="311" />
<rect fill="#fff7c4" fill-opacity="0.501961" x="340" y="0" width="5" height="207" />
<rect fill="#fff4c9" fill-opacity="0.501961" x="290" y="0" width="5" height="252" />
<rect fill="#f6c421" fill-opacity="0.501961" x="306" y="387" width="5" height="154" />
<rect fill="#f9edc6" fill-opacity="0.501961" x="755" y="41" width="5" height="163" />
<rect fill="#0050b8" fill-opacity="0.501961" x="1007" y="548" width="5" height="198" />
<rect fill="#f3f0d9" fill-opacity="0.501961" x="171" y="267" width="5" height="215" />
<rect fill="#fef6dc" fill-opacity="0.501961" x="86" y="198" width="5" height="210" />
<rect fill="#f2efd6" fill-opacity="0.501961" x="166" y="224" width="5" height="269" />
<rect fill="#fdf5e0" fill-opacity="0.501961" x="5" y="349" width="4" height="187" />
<rect fill="#705a00" fill-opacity="0.501961" x="500" y="398" width="5" height="218" />
<rect fill="#282602" fill-opacity="0.501961" x="357" y="528" width="5" height="117" />
<rect fill="#f4ebc9" fill-opacity="0.501961" x="848" y="0" width="5" height="337" />
<rect fill="#f2f2dd" fill-opacity="0.501961" x="580" y="171" width="5" height="127" />
<rect fill="#faf0cc" fill-opacity="0.501961" x="682" y="19" width="5" height="236" />
<rect fill="#e7ebdf" fill-opacity="0.501961" x="946" y="154" width="5" height="287" />
<rect fill="#e9efe6" fill-opacity="0.501961" x="901" y="271" width="5" height="177" />
<rect fill="#fbdc57" fill-opacity="0.501961" x="274" y="350" width="5" height="210" />
<rect fill="#000100" fill-opacity="0.501961" x="64" y="583" width="5" height="63" />
<rect fill="#8f6600" fill-opacity="0.501961" x="506" y="413" width="5" height="154" />
<rect fill="#0048a8" fill-opacity="0.501961" x="1001" y="574" width="5" height="194" />
<rect fill="#e6ecea" fill-opacity="0.501961" x="982" y="192" width="5" height="224" />
<rect fill="#262704" fill-opacity="0.501961" x="352" y="530" width="5" height="121" />
<rect fill="#f4e9bd" fill-opacity="0.501961" x="499" y="31" width="5" height="360" />
<rect fill="#7e6700" fill-opacity="0.501961" x="426" y="401" width="5" height="170" />
<rect fill="#f0e8be" fill-opacity="0.501961" x="494" y="109" width="5" height="285" />
<rect fill="#e7ecea" fill-opacity="0.501961" x="996" y="245" width="5" height="189" />
<rect fill="#f1e7ca" fill-opacity="0.501961" x="1003" y="0" width="5" height="170" />
<rect fill="#a08900" fill-opacity="0.501961" x="454" y="484" width="5" height="131" />
<rect fill="#ffffd2" fill-opacity="0.501961" x="70" y="0" width="5" height="184" />
<rect fill="#efe9c3" fill-opacity="0.501961" x="536" y="145" width="5" height="233" />
<rect fill="#04140c" fill-opacity="0.501961" x="226" y="545" width="4" height="157" />
<rect fill="#e1ac0c" fill-opacity="0.501961" x="608" y="358" width="5" height="130" />
<rect fill="#e6dfc7" fill-opacity="0.501961" x="970" y="0" width="5" height="240" />
<rect fill="#f2e9c8" fill-opacity="0.501961" x="687" y="0" width="5" height="373" />
<rect fill="#eeead0" fill-opacity="0.501961" x="783" y="50" width="5" height="252" />
<rect fill="#046dd0" fill-opacity="0.501961" x="294" y="556" width="5" height="204" />
<rect fill="#f0e9c9" fill-opacity="0.501961" x="801" y="0" width="5" height="341" />
<rect fill="#efd86e" fill-opacity="0.501961" x="215" y="383" width="5" height="174" />
<rect fill="#f1e7b8" fill-opacity="0.501961" x="711" y="0" width="5" height="463" />
<rect fill="#f5efc7" fill-opacity="0.501961" x="187" y="272" width="5" height="221" />
<rect fill="#ffffca" fill-opacity="0.501961" x="24" y="0" width="5" height="191" />
</g>
</svg>